M48
; DRILL file {KiCad 8.0.9-1.fc41} date 2025-03-09T10:33:43+1100
; FORMAT={-:-/ absolute / inch / decimal}
; #@! TF.CreationDate,2025-03-09T10:33:43+11:00
; #@! TF.GenerationSoftware,Kicad,Pcbnew,8.0.9-1.fc41
; #@! TF.FileFunction,Plated,1,4,PTH
FMAT,2
INCH
; #@! TA.AperFunction,Plated,PTH,ComponentDrill
T1C0.0118
; #@! TA.AperFunction,Plated,PTH,ViaDrill
T2C0.0157
; #@! TA.AperFunction,Plated,PTH,ComponentDrill
T3C0.0394
; #@! TA.AperFunction,Plated,PTH,ComponentDrill
T4C0.0400
; #@! TA.AperFunction,Plated,PTH,ComponentDrill
T5C0.0512
%
G90
G05
T1
X2.2676Y-3.4558
X2.3555Y-3.4777
X2.4486Y-2.73
X2.5364Y-2.7519
X2.9474Y-3.8788
X3.033Y-3.9083
X3.1909Y-3.1715
X3.2765Y-3.201
X3.4345Y-2.4642
X3.5201Y-2.4937
X3.7357Y-3.9505
X3.8196Y-3.9844
X4.0159Y-3.257
X4.0999Y-3.2909
X4.2331Y-5.3362
X4.2671Y-5.2522
X4.2961Y-2.5634
X4.3592Y-4.4041
X4.3801Y-2.5973
X4.4432Y-4.438
X4.6394Y-3.7106
X4.7234Y-3.7445
X4.8567Y-5.7898
X4.8906Y-5.7058
X4.9196Y-3.017
X5.0036Y-3.0509
X5.1929Y-4.3376
X5.2768Y-4.3715
X5.4731Y-3.644
X5.557Y-3.6779
X6.9382Y-3.6779
X7.0221Y-3.644
X7.2184Y-4.3715
X7.3024Y-4.3376
X7.4916Y-3.0509
X7.5756Y-3.017
X7.6046Y-5.7058
X7.6386Y-5.7898
X7.7719Y-3.7445
X7.8558Y-3.7106
X8.0521Y-4.438
X8.1151Y-2.5973
X8.136Y-4.4041
X8.1991Y-2.5634
X8.2282Y-5.2522
X8.2621Y-5.3362
X8.3954Y-3.2909
X8.4793Y-3.257
X8.6756Y-3.9844
X8.7595Y-3.9505
X8.9751Y-2.4937
X9.0608Y-2.4642
X9.2187Y-3.201
X9.3043Y-3.1715
X9.4622Y-3.9083
X9.5478Y-3.8788
X9.9588Y-2.7519
X10.0467Y-2.73
X10.1398Y-3.4777
X10.2276Y-3.4558
T2
X2.0352Y-3.3376
X2.0432Y-3.3824
X2.1931Y-3.7229
X2.1991Y-2.6844
X2.2306Y-3.752
X2.2429Y-2.6542
X2.5557Y-3.8348
X2.5628Y-3.5451
X2.5734Y-3.7786
X2.5902Y-3.5115
X2.6078Y-3.8115
X2.6778Y-2.9322
X2.6967Y-4.1595
X2.6973Y-3.9003
X2.7021Y-3.9523
X2.7295Y-2.9665
X2.7319Y-3.8033
X2.7408Y-4.1189
X2.7468Y-2.8285
X2.7514Y-2.7627
X2.9738Y-3.1
X3.0205Y-2.8252
X3.0213Y-2.7658
X3.023Y-4.2088
X3.0428Y-2.6206
X3.0619Y-2.8395
X3.0659Y-4.2863
X3.0805Y-2.7855
X3.0835Y-4.2037
X3.0938Y-2.6498
X3.1159Y-2.858
X3.1272Y-2.6496
X3.1344Y-2.8041
X3.168Y-4.1697
X3.1867Y-2.477
X3.2185Y-2.1632
X3.2333Y-2.3806
X3.2444Y-2.2142
X3.2472Y-4.1244
X3.2635Y-4.0554
X3.2944Y-4.1253
X3.3559Y-2.0993
X3.3584Y-3.5627
X3.3584Y-2.1588
X3.4034Y-3.6022
X3.4666Y-3.9428
X3.4687Y-3.9965
X3.4926Y-3.1628
X3.4934Y-3.5647
X3.4944Y-3.5048
X3.505Y-3.2671
X3.5217Y-3.8686
X3.5385Y-4.1623
X3.5427Y-3.007
X3.5751Y-2.9561
X3.6001Y-3.6078
X3.6086Y-3.0256
X3.6196Y-2.8515
X3.6214Y-3.5549
X3.653Y-3.6292
X3.662Y-2.8935
X3.6744Y-3.5762
X3.718Y-2.5809
X3.7526Y-2.7945
X3.7538Y-2.8542
X3.7661Y-2.494
X3.822Y-2.509
X3.8267Y-2.32
X3.8735Y-2.2758
X3.8807Y-2.3386
X3.8836Y-2.9061
X3.905Y-2.8531
X3.9365Y-2.9275
X3.9579Y-2.8745
X3.9931Y-4.5036
X4.0153Y-2.3224
X4.0181Y-3.7773
X4.0194Y-2.3837
X4.0592Y-4.3314
X4.0637Y-3.7396
X4.0991Y-4.38
X4.1064Y-3.9854
X4.1194Y-4.8012
X4.1302Y-4.6804
X4.142Y-4.0323
X4.1441Y-4.316
X4.1605Y-4.8426
X4.1658Y-3.9786
X4.1741Y-4.7839
X4.2265Y-4.0647
X4.2479Y-4.0118
X4.2794Y-4.0861
X4.2808Y-2.1971
X4.2854Y-2.2574
X4.3008Y-4.0331
X4.3019Y-3.3973
X4.3112Y-3.3317
X4.3345Y-3.0907
X4.3679Y-4.9264
X4.3803Y-3.0526
X4.4171Y-4.8847
X4.4176Y-3.2865
X4.4206Y-3.6209
X4.4209Y-4.9478
X4.4243Y-5.6566
X4.4536Y-3.3332
X4.4633Y-4.9649
X4.4676Y-5.6155
X4.4775Y-3.2808
X4.4831Y-4.9113
X4.5018Y-5.0535
X4.5126Y-3.3565
X4.519Y-4.9479
X4.5284Y-5.9005
X4.5289Y-4.8429
X4.534Y-3.3036
X4.5413Y-5.0894
X4.5528Y-4.8976
X4.5552Y-5.0331
X4.5655Y-3.3779
X4.5737Y-5.8625
X4.5869Y-3.325
X4.5908Y-2.3809
X4.592Y-4.7557
X4.6026Y-5.0516
X4.6162Y-4.8109
X4.6247Y-5.1231
X4.6337Y-2.3396
X4.6479Y-5.0709
X4.6718Y-4.5229
X4.6772Y-5.1204
X4.6787Y-2.5879
X4.7041Y-4.7475
X4.7085Y-4.2705
X4.7119Y-5.0346
X4.7124Y-4.4437
X4.7193Y-2.6327
X4.7298Y-5.0981
X4.7365Y-2.5777
X4.7418Y-4.2124
X4.7485Y-4.9166
X4.7578Y-5.4661
X4.7584Y-5.4115
X4.759Y-4.4859
X4.7598Y-4.4263
X4.763Y-4.8807
X4.7694Y-5.0446
X4.7702Y-5.9971
X4.7742Y-4.2836
X4.8011Y-5.1232
X4.81Y-5.4431
X4.817Y-5.1606
X4.8275Y-5.136
X4.8468Y-4.5211
X4.8681Y-4.4682
X4.8765Y-5.2715
X4.8868Y-6.0488
X4.8997Y-4.5425
X4.9046Y-3.5149
X4.908Y-5.1261
X4.9211Y-4.4895
X4.9427Y-3.868
X4.9515Y-3.4791
X4.9525Y-3.8231
X4.9848Y-3.7433
X4.9912Y-3.9697
X5.0008Y-3.8588
X5.0142Y-5.0616
X5.0244Y-5.1453
X5.0276Y-3.9218
X5.0306Y-5.0066
X5.0453Y-4.9734
X5.0525Y-3.7211
X5.0529Y-3.9952
X5.053Y-5.0592
X5.0742Y-3.9422
X5.0849Y-4.9837
X5.1058Y-4.0166
X5.1272Y-3.9636
X5.1303Y-5.8843
X5.1495Y-5.0183
X5.1655Y-5.9333
X5.1785Y-4.944
X5.2307Y-3.568
X5.2389Y-3.1037
X5.2456Y-3.1634
X5.2495Y-4.9758
X5.2598Y-4.6855
X5.2615Y-4.6251
X5.2771Y-4.9021
X5.2783Y-3.5472
X5.2899Y-3.2633
X5.2922Y-3.127
X5.2984Y-5.4799
X5.3036Y-2.8869
X5.333Y-3.222
X5.3359Y-2.8222
X5.3365Y-5.5268
X5.3443Y-4.9356
X5.3604Y-4.8667
X5.3653Y-4.643
X5.3748Y-2.9144
X5.4224Y-4.9024
X5.4334Y-4.5521
X5.4475Y-4.8298
X5.4697Y-4.4715
X5.4831Y-4.5886
X5.5044Y-4.8676
X5.5244Y-4.7971
X5.5444Y-4.2093
X5.5692Y-4.6622
X5.5775Y-4.8366
X5.5913Y-4.1736
X5.5962Y-4.7667
X5.6215Y-4.8947
X5.6218Y-4.2489
X5.6479Y-4.8067
X5.6748Y-4.7333
X5.7134Y-4.1109
X5.7302Y-4.7718
X5.7427Y-4.1404
X5.7541Y-4.6996
X5.7649Y-3.7686
X5.8062Y-4.7395
X5.8197Y-4.6718
X5.8232Y-3.4817
X5.8376Y-3.5137
X5.8658Y-3.4389
X5.8696Y-4.7126
X5.8974Y-3.5083
X6.0056Y-4.7947
X6.0056Y-4.7124
X6.0056Y-4.6551
X6.0073Y-4.3448
X6.0327Y-4.4233
X6.0455Y-4.2573
X6.058Y-4.4486
X6.0627Y-4.7947
X6.0627Y-4.7124
X6.0627Y-4.6553
X6.0644Y-4.3448
X6.1206Y-4.6553
X6.1206Y-4.7124
X6.1206Y-4.7947
X6.1776Y-4.6553
X6.1776Y-4.7124
X6.1776Y-4.7947
X6.2181Y-4.7124
X6.2181Y-4.6553
X6.229Y-4.4205
X6.2485Y-4.4806
X6.2591Y-4.6553
X6.2604Y-4.7124
X6.2705Y-4.3472
X6.296Y-4.3858
X6.296Y-4.4428
X6.3008Y-4.7124
X6.3014Y-4.6582
X6.3296Y-4.3473
X6.3412Y-4.7124
X6.343Y-4.6553
X6.3629Y-4.4428
X6.3629Y-4.3858
X6.3831Y-4.7124
X6.3846Y-4.6553
X6.4213Y-4.6676
X6.4274Y-4.7545
X6.4309Y-4.4428
X6.4309Y-4.3858
X6.4467Y-4.693
X6.4642Y-4.7912
X6.4708Y-4.7171
X6.5014Y-4.8293
X6.6097Y-3.5499
X6.6291Y-4.1788
X6.643Y-3.4648
X6.6689Y-3.546
X6.6849Y-4.2182
X6.6873Y-3.5054
X6.6975Y-4.7409
X6.7203Y-4.294
X6.7205Y-4.3858
X6.7205Y-4.4428
X6.7313Y-3.7765
X6.7448Y-4.265
X6.7478Y-4.49
X6.7536Y-4.843
X6.7536Y-4.7859
X6.7678Y-4.6445
X6.7819Y-4.4662
X6.7857Y-4.0968
X6.8106Y-4.7859
X6.8106Y-4.843
X6.8645Y-4.4428
X6.8687Y-4.8502
X6.8721Y-4.265
X6.882Y-4.7893
X6.8855Y-4.1902
X6.8887Y-4.3869
X6.9153Y-4.1331
X6.9362Y-4.8502
X6.9373Y-4.221
X6.9439Y-4.4369
X6.9538Y-4.1783
X6.9844Y-4.6229
X6.9844Y-4.6623
X6.9944Y-4.8502
X7.001Y-4.742
X7.0125Y-4.5917
X7.0297Y-4.8775
X7.0304Y-4.9425
X7.072Y-4.8854
X7.0794Y-4.7608
X7.0899Y-4.8182
X7.1227Y-4.7702
X7.1377Y-4.8854
X7.1572Y-5.5268
X7.1677Y-2.9553
X7.1748Y-4.8543
X7.1916Y-3.2401
X7.1954Y-5.4797
X7.2174Y-2.8396
X7.227Y-3.5499
X7.2274Y-2.9496
X7.2354Y-3.2815
X7.2384Y-3.1322
X7.2472Y-5.5191
X7.2546Y-2.8856
X7.2565Y-4.7656
X7.2583Y-4.8277
X7.2738Y-3.5931
X7.2756Y-5.7439
X7.2866Y-3.1662
X7.2895Y-4.903
X7.3043Y-5.5191
X7.3043Y-5.0702
X7.3043Y-5.2942
X7.3351Y-5.9373
X7.3578Y-3.9533
X7.3643Y-5.8871
X7.3673Y-4.936
X7.3792Y-4.0062
X7.4011Y-4.8883
X7.4107Y-3.9319
X7.424Y-4.9406
X7.4321Y-3.9848
X7.4434Y-3.6147
X7.4906Y-3.5059
X7.4975Y-4.8494
X7.5018Y-3.8951
X7.5026Y-3.6118
X7.516Y-4.2502
X7.5266Y-4.8992
X7.5275Y-3.8254
X7.5295Y-3.5511
X7.5326Y-4.9685
X7.5479Y-3.9319
X7.5518Y-4.8464
X7.5533Y-3.7372
X7.5641Y-5.0398
X7.5832Y-3.8515
X7.5866Y-4.5197
X7.5999Y-4.8668
X7.6071Y-6.0524
X7.608Y-4.5726
X7.6396Y-4.4983
X7.6459Y-4.8888
X7.661Y-4.5512
X7.6727Y-5.4724
X7.6919Y-4.7804
X7.7119Y-5.0958
X7.7123Y-4.2962
X7.7163Y-5.4282
X7.7185Y-2.6366
X7.7251Y-6.0058
X7.7281Y-4.9585
X7.7296Y-5.4845
X7.7326Y-4.9194
X7.7328Y-5.0464
X7.7403Y-4.8124
X7.7418Y-4.8811
X7.7448Y-4.7589
X7.748Y-2.6928
X7.7489Y-4.21
X7.7679Y-2.9176
X7.7732Y-4.5122
X7.776Y-4.4513
X7.7777Y-2.6435
X7.7796Y-4.2774
X7.8149Y-2.9403
X7.8229Y-4.5332
X7.8395Y-2.3568
X7.8473Y-2.7333
X7.8488Y-2.6736
X7.883Y-2.3982
X7.9144Y-3.334
X7.9222Y-5.1229
X7.9275Y-5.4027
X7.9288Y-5.8666
X7.9358Y-3.387
X7.9383Y-4.8428
X7.9505Y-5.2094
X7.96Y-5.3331
X7.9644Y-4.7834
X7.9673Y-3.3126
X7.9697Y-4.9469
X7.9708Y-5.9088
X7.9755Y-5.1505
X7.9835Y-5.2778
X7.9887Y-3.3656
X8.0092Y-4.8694
X8.0113Y-5.6831
X8.02Y-4.9266
X8.0285Y-3.2879
X8.0341Y-5.1426
X8.0402Y-4.7969
X8.048Y-3.3416
X8.0501Y-5.728
X8.061Y-4.8786
X8.0695Y-3.6232
X8.0698Y-4.9366
X8.0876Y-3.2948
X8.1228Y-4.9152
X8.1361Y-3.0391
X8.1779Y-3.0821
X8.185Y-3.3362
X8.1947Y-4.0279
X8.1975Y-3.4001
X8.1996Y-2.2702
X8.2013Y-2.2108
X8.2161Y-4.0808
X8.2477Y-4.0065
X8.2691Y-4.0594
X8.2768Y-5.5745
X8.3018Y-3.9837
X8.3034Y-4.7692
X8.3218Y-5.6131
X8.3264Y-4.0363
X8.3377Y-4.8268
X8.3437Y-4.6743
X8.3504Y-4.3317
X8.3615Y-3.9891
X8.4079Y-3.7441
X8.4153Y-4.3397
X8.4332Y-4.6096
X8.4458Y-3.7904
X8.4575Y-2.3781
X8.4615Y-2.3186
X8.4661Y-4.0335
X8.4787Y-4.0945
X8.4956Y-4.4673
X8.5357Y-2.8749
X8.5571Y-2.9279
X8.5886Y-2.8536
X8.61Y-2.9065
X8.6117Y-2.3272
X8.6198Y-2.264
X8.6426Y-2.8938
X8.6433Y-2.8341
X8.6657Y-2.3086
X8.7112Y-3.1652
X8.731Y-2.4981
X8.7757Y-2.9504
X8.8024Y-3.0166
X8.8192Y-2.9099
X8.8193Y-3.577
X8.8407Y-3.6299
X8.8447Y-2.9689
X8.8651Y-3.0235
X8.8723Y-3.5556
X8.8757Y-3.218
X8.8936Y-3.6085
X8.9184Y-3.1765
X8.919Y-4.1328
X8.9611Y-3.5207
X8.965Y-3.5802
X8.9687Y-4.1637
X8.9753Y-3.8618
X8.9814Y-3.9878
X9.0404Y-3.9932
X9.0885Y-3.6327
X9.1221Y-2.0911
X9.1362Y-3.5944
X9.1407Y-2.145
X9.1638Y-2.0913
X9.2113Y-3.9728
X9.2115Y-4.1271
X9.2172Y-2.1839
X9.2319Y-2.1245
X9.2349Y-4.0576
X9.2386Y-4.1183
X9.2428Y-3.8981
X9.245Y-4.207
X9.2658Y-2.3861
X9.2702Y-2.1627
X9.2906Y-2.4153
X9.3137Y-2.4824
X9.3434Y-2.5504
X9.3597Y-2.6123
X9.3601Y-2.7926
X9.3787Y-2.8466
X9.4047Y-2.6625
X9.4114Y-4.2882
X9.4141Y-2.7741
X9.4231Y-2.6067
X9.4327Y-2.828
X9.441Y-4.2391
X9.4524Y-4.1591
X9.4812Y-2.751
X9.5004Y-2.8047
X9.5226Y-3.0939
X9.5375Y-2.7568
X9.6997Y-4.133
X9.717Y-2.9313
X9.7439Y-2.7644
X9.7589Y-2.8311
X9.7642Y-2.895
X9.7662Y-3.8013
X9.8052Y-4.1494
X9.8651Y-3.5138
X9.8954Y-3.8417
X9.9245Y-3.4849
X9.9322Y-3.8891
X9.9371Y-3.5559
X10.2605Y-2.6636
X10.4324Y-3.7041
X10.4583Y-3.3978
X10.4746Y-3.6325
X10.4755Y-3.7431
X10.5324Y-3.6472
T3
X5.6996Y-4.2626
X5.7996Y-4.2626
X5.9476Y-4.5661
X5.9476Y-4.3661
X5.9476Y-4.6661
X5.9476Y-4.4661
X5.9476Y-4.7661
X5.9476Y-4.8661
X5.9476Y-4.2661
X6.5476Y-4.8661
X6.5476Y-4.2661
X6.5476Y-4.3661
X6.5476Y-4.6661
X6.5476Y-4.4661
X6.5476Y-4.7661
X6.5476Y-4.5661
T4
X6.0726Y-4.5536
X6.1974Y-4.3289
X6.3976Y-4.9286
T5
X4.7152Y-4.6674
X4.9525Y-4.7633
M30
