%TF.GenerationSoftware,KiCad,Pcbnew,8.0.9-1.fc41*%
%TF.CreationDate,2025-03-09T10:33:46+11:00*%
%TF.ProjectId,katori,6b61746f-7269-42e6-9b69-6361645f7063,0.2*%
%TF.SameCoordinates,Original*%
%TF.FileFunction,Profile,NP*%
%FSLAX46Y46*%
G04 Gerber Fmt 4.6, Leading zero omitted, Abs format (unit mm)*
G04 Created by KiCad (PCBNEW 8.0.9-1.fc41) date 2025-03-09 10:33:46*
%MOMM*%
%LPD*%
G01*
G04 APERTURE LIST*
%TA.AperFunction,Profile*%
%ADD10C,0.150000*%
%TD*%
%TA.AperFunction,Profile*%
%ADD11C,0.200000*%
%TD*%
%TA.AperFunction,Profile*%
%ADD12C,0.120000*%
%TD*%
G04 APERTURE END LIST*
D10*
X149571039Y-105338394D02*
G75*
G02*
X146789516Y-101214549I-139J2999894D01*
G01*
X213853245Y-120604744D02*
G75*
G02*
X214682075Y-118651999I1391055J561844D01*
G01*
X47802364Y-93373609D02*
X56172855Y-59801383D01*
X167807688Y-105338381D02*
X149571039Y-105338394D01*
X97236845Y-140173899D02*
X112071750Y-146167590D01*
X151627455Y-89240156D02*
X146789483Y-101214536D01*
X253038726Y-99042801D02*
X268483792Y-95191932D01*
X252760355Y-103243282D02*
G75*
G02*
X251830413Y-105149857I-1418255J-488318D01*
G01*
X204478075Y-148120292D02*
G75*
G02*
X205306917Y-146167552I1390925J561892D01*
G01*
X82914317Y-107238892D02*
G75*
G02*
X84894524Y-106336440I1418283J-488308D01*
G01*
X170589242Y-101214563D02*
G75*
G02*
X167807688Y-105338350I-2781342J-1123937D01*
G01*
X112071772Y-146167612D02*
G75*
G02*
X112900604Y-148120281I-561772J-1390688D01*
G01*
X210939029Y-53996212D02*
G75*
G02*
X212891749Y-54825081I561971J-1390688D01*
G01*
X196301672Y-63415332D02*
G75*
G02*
X195472787Y-65367986I-1390572J-561968D01*
G01*
X65548304Y-105149903D02*
X80298389Y-110228760D01*
X121077045Y-63415341D02*
X121732631Y-61792766D01*
X251983324Y-100986634D02*
G75*
G02*
X253038726Y-99042801I1418176J488434D01*
G01*
X215610656Y-57760043D02*
X233403253Y-51633542D01*
X65395393Y-100986626D02*
X64618378Y-103243293D01*
D11*
X183689358Y-127694666D02*
X183689359Y-138694662D01*
X133689355Y-138694661D01*
X133689350Y-127694662D01*
X183689358Y-127694666D01*
D10*
X180637854Y-71361740D02*
X195472802Y-65368024D01*
X183050260Y-145862674D02*
G75*
G02*
X183832003Y-146671558I-608960J-1370726D01*
G01*
X252760355Y-103243282D02*
X251983316Y-100986652D01*
X165751286Y-89240187D02*
X170589242Y-101214563D01*
X78663946Y-62451950D02*
G75*
G02*
X76882810Y-63419010I-1418246J488350D01*
G01*
X102696627Y-118652037D02*
G75*
G02*
X103525453Y-120604699I-561727J-1390663D01*
G01*
X189840707Y-157539392D02*
G75*
G02*
X187888017Y-156710530I-561907J1390792D01*
G01*
X129490698Y-156710534D02*
X133546698Y-146671564D01*
X213731548Y-56903656D02*
X212891740Y-54825085D01*
X83975456Y-51633553D02*
X101768047Y-57760042D01*
X96407973Y-138221210D02*
X103525470Y-120604706D01*
X135963631Y-81293806D02*
X150798575Y-87287490D01*
X189840707Y-157539392D02*
X204304784Y-151695547D01*
X179809009Y-73314406D02*
G75*
G02*
X180637856Y-71361745I1390991J561806D01*
G01*
X113073951Y-151695557D02*
X127538008Y-157539402D01*
X82205019Y-109298846D02*
X82914317Y-107238892D01*
X217306830Y-112468543D02*
X232484235Y-106336465D01*
X121905903Y-65368019D02*
G75*
G02*
X121077010Y-63415327I562197J1390919D01*
G01*
X82205025Y-109298831D02*
G75*
G02*
X80298421Y-110228722I-1418625J489131D01*
G01*
X195646128Y-61792758D02*
X196301672Y-63415332D01*
X57991181Y-58708840D02*
X76882806Y-63419027D01*
X240495927Y-63419058D02*
G75*
G02*
X238714754Y-62451955I-362827J1455558D01*
G01*
X48894916Y-95191939D02*
G75*
G02*
X47802340Y-93373603I363184J1455639D01*
G01*
X65548299Y-105149897D02*
G75*
G02*
X64618363Y-103243288I489001J1418597D01*
G01*
X84894517Y-106336458D02*
X100071870Y-112468530D01*
X121905899Y-65368008D02*
X136740853Y-71361729D01*
X120903732Y-59840087D02*
G75*
G02*
X121732602Y-61792754I-561532J-1390613D01*
G01*
X103647184Y-56903672D02*
G75*
G02*
X101768057Y-57760014I-1390784J561972D01*
G01*
X135134790Y-79341097D02*
X137569711Y-73314409D01*
X64340021Y-99042828D02*
G75*
G02*
X65395356Y-100986613I-363021J-1455472D01*
G01*
X237080334Y-110228764D02*
G75*
G02*
X235173735Y-109298840I-488434J1418064D01*
G01*
X166580128Y-87287509D02*
X181415072Y-81293786D01*
X136740849Y-71361736D02*
G75*
G02*
X137569684Y-73314398I-561949J-1390764D01*
G01*
X215610656Y-57760043D02*
G75*
G02*
X213731559Y-56903652I-488156J1418643D01*
G01*
X100071870Y-112468530D02*
G75*
G02*
X100900726Y-114421184I-562170J-1390870D01*
G01*
X100900762Y-114421198D02*
X100245189Y-116043791D01*
X259387529Y-58708847D02*
G75*
G02*
X261205892Y-59801387I362971J-1455353D01*
G01*
X269576375Y-93373628D02*
G75*
G02*
X268483795Y-95191944I-1455275J-362972D01*
G01*
X213853246Y-120604712D02*
X220970756Y-138221212D01*
X48894916Y-95191939D02*
X64340021Y-99042828D01*
X97236845Y-140173899D02*
G75*
G02*
X96407941Y-138221197I561655J1390699D01*
G01*
X82068808Y-52563463D02*
G75*
G02*
X83975469Y-51633516I1418392J-488537D01*
G01*
X216477967Y-114421210D02*
G75*
G02*
X217306813Y-112468502I1391533J561610D01*
G01*
X179809020Y-73314417D02*
X182243937Y-79341118D01*
X113073951Y-151695557D02*
G75*
G02*
X112245060Y-149742847I562749J1391157D01*
G01*
X56172855Y-59801383D02*
G75*
G02*
X57991191Y-58708798I1455245J-362517D01*
G01*
X133546698Y-146671564D02*
G75*
G02*
X134328457Y-145862678I1391102J-562236D01*
G01*
X150798585Y-87287494D02*
G75*
G02*
X151627426Y-89240183I-561785J-1390706D01*
G01*
X101074053Y-117996475D02*
G75*
G02*
X100245156Y-116043777I561847J1390775D01*
G01*
X183832009Y-146671556D02*
X187888021Y-156710529D01*
X129490708Y-156710538D02*
G75*
G02*
X127538020Y-157539372I-1390808J562038D01*
G01*
X217133539Y-116043773D02*
G75*
G02*
X216304677Y-117996480I-1390539J-562027D01*
G01*
X205306932Y-146167590D02*
X220141889Y-140173888D01*
X205133648Y-149742852D02*
G75*
G02*
X204304773Y-151695519I-1390648J-561948D01*
G01*
X234464396Y-107238904D02*
X235173693Y-109298854D01*
X217133539Y-116043773D02*
X216477967Y-114421210D01*
X78663946Y-62451950D02*
X82068808Y-52563463D01*
X101074066Y-117996477D02*
X102696630Y-118652033D01*
X112900627Y-148120290D02*
X112245076Y-149742854D01*
X235309885Y-52563488D02*
X238714768Y-62451950D01*
X233403253Y-51633542D02*
G75*
G02*
X235309875Y-52563492I488447J-1418058D01*
G01*
X205133648Y-149742852D02*
X204478088Y-148120281D01*
X120903732Y-59840087D02*
X106439686Y-53996210D01*
X220970747Y-138221234D02*
G75*
G02*
X220141879Y-140173863I-1390547J-561966D01*
G01*
X135963631Y-81293806D02*
G75*
G02*
X135134752Y-79341082I562169J1390906D01*
G01*
X104486978Y-54825080D02*
G75*
G02*
X106439695Y-53996189I1390722J-561720D01*
G01*
X261205868Y-59801393D02*
X269576359Y-93373627D01*
X210939029Y-53996212D02*
X196474974Y-59840077D01*
X165751279Y-89240179D02*
G75*
G02*
X166580125Y-87287501I1391321J561679D01*
G01*
X104486978Y-54825080D02*
X103647182Y-56903661D01*
X195646132Y-61792751D02*
G75*
G02*
X196474962Y-59840048I1390968J561851D01*
G01*
X240495927Y-63419058D02*
X259387531Y-58708846D01*
X134328452Y-145862667D02*
G75*
G02*
X183050262Y-145862673I24360898J-54831993D01*
G01*
X232484224Y-106336459D02*
G75*
G02*
X234464434Y-107238891I562076J-1390441D01*
G01*
X237080334Y-110228764D02*
X251830425Y-105149892D01*
X182243937Y-79341118D02*
G75*
G02*
X181415064Y-81293766I-1390537J-561982D01*
G01*
X214682088Y-118652030D02*
X216304679Y-117996484D01*
D12*
%TO.C,U1*%
X153990121Y-115229824D02*
X153989371Y-113886393D01*
X154370383Y-113505373D02*
X156276139Y-113502625D01*
X154620991Y-110387568D02*
X154620991Y-112063968D01*
X156276134Y-115915632D02*
X154675944Y-115915635D01*
X156657124Y-113883632D02*
X156657132Y-115534625D01*
X156983191Y-109701768D02*
X155306791Y-109701767D01*
X156983191Y-112749768D02*
X155306791Y-112749768D01*
X157668991Y-110387568D02*
X157668992Y-112063968D01*
X160106991Y-125057503D02*
X160106991Y-123406487D01*
X160488016Y-123025492D02*
X162088193Y-123025990D01*
X162088184Y-125438989D02*
X160487991Y-125438499D01*
X162773994Y-123711795D02*
X162773987Y-124753196D01*
X153989371Y-113886393D02*
G75*
G02*
X154370383Y-113505373I380989J31D01*
G01*
X153990121Y-115229824D02*
G75*
G02*
X154675944Y-115915635I247769J-438050D01*
G01*
X154620991Y-110387568D02*
G75*
G02*
X155306791Y-109701767I659466J26335D01*
G01*
X155306791Y-112749768D02*
G75*
G02*
X154620991Y-112063968I-31058J654742D01*
G01*
X156276139Y-113502625D02*
G75*
G02*
X156657124Y-113883632I8J-380977D01*
G01*
X156657132Y-115534625D02*
G75*
G02*
X156276134Y-115915632I-380999J-8D01*
G01*
X157668991Y-110387568D02*
G75*
G02*
X156983191Y-109701768I-247753J438047D01*
G01*
X157668992Y-112063968D02*
G75*
G02*
X156983191Y-112749768I-656107J-29693D01*
G01*
X160106991Y-123406487D02*
G75*
G02*
X160488016Y-123025486I381051J-50D01*
G01*
X160487991Y-125438499D02*
G75*
G02*
X160106990Y-125057503I-19J380982D01*
G01*
X162088184Y-125438989D02*
G75*
G02*
X162773989Y-124753192I438048J247752D01*
G01*
X162088193Y-123025990D02*
G75*
G02*
X162773999Y-123711795I39549J-646257D01*
G01*
%TD*%
M02*
