%TF.GenerationSoftware,KiCad,Pcbnew,8.0.9-1.fc41*%
%TF.CreationDate,2025-03-09T10:33:46+11:00*%
%TF.ProjectId,katori,6b61746f-7269-42e6-9b69-6361645f7063,0.2*%
%TF.SameCoordinates,Original*%
%TF.FileFunction,Legend,Bot*%
%TF.FilePolarity,Positive*%
%FSLAX46Y46*%
G04 Gerber Fmt 4.6, Leading zero omitted, Abs format (unit mm)*
G04 Created by KiCad (PCBNEW 8.0.9-1.fc41) date 2025-03-09 10:33:46*
%MOMM*%
%LPD*%
G01*
G04 APERTURE LIST*
%ADD10C,0.150000*%
%ADD11C,0.120000*%
G04 APERTURE END LIST*
D10*
X144567860Y-119184706D02*
X145234425Y-119173071D01*
X145043978Y-119176395D02*
X145138370Y-119127121D01*
X145138370Y-119127121D02*
X145185151Y-119078678D01*
X145185151Y-119078678D02*
X145231101Y-118982623D01*
X145231101Y-118982623D02*
X145229439Y-118887400D01*
X144598019Y-118184026D02*
X144552070Y-118280081D01*
X144552070Y-118280081D02*
X144555394Y-118470528D01*
X144555394Y-118470528D02*
X144604668Y-118564921D01*
X144604668Y-118564921D02*
X144700723Y-118610870D01*
X144700723Y-118610870D02*
X145081617Y-118604222D01*
X145081617Y-118604222D02*
X145176009Y-118554948D01*
X145176009Y-118554948D02*
X145221959Y-118458893D01*
X145221959Y-118458893D02*
X145218635Y-118268446D01*
X145218635Y-118268446D02*
X145169361Y-118174054D01*
X145169361Y-118174054D02*
X145073306Y-118128104D01*
X145073306Y-118128104D02*
X144978083Y-118129766D01*
X144978083Y-118129766D02*
X144891170Y-118607546D01*
X144534617Y-117280233D02*
X145534465Y-117262781D01*
X144582229Y-117279402D02*
X144536279Y-117375457D01*
X144536279Y-117375457D02*
X144539604Y-117565904D01*
X144539604Y-117565904D02*
X144588878Y-117660297D01*
X144588878Y-117660297D02*
X144637321Y-117707077D01*
X144637321Y-117707077D02*
X144733375Y-117753027D01*
X144733375Y-117753027D02*
X145019046Y-117748041D01*
X145019046Y-117748041D02*
X145113438Y-117698767D01*
X145113438Y-117698767D02*
X145160219Y-117650324D01*
X145160219Y-117650324D02*
X145206169Y-117554269D01*
X145206169Y-117554269D02*
X145202845Y-117363822D01*
X145202845Y-117363822D02*
X145153571Y-117269429D01*
X144893904Y-116035678D02*
X144880607Y-115273889D01*
X144506361Y-115661432D02*
X145268150Y-115648135D01*
X164775798Y-115330583D02*
X164775798Y-114330583D01*
X164680560Y-114949630D02*
X164394846Y-115330583D01*
X164394846Y-114663916D02*
X164775798Y-115044868D01*
X163537703Y-115330583D02*
X163537703Y-114806773D01*
X163537703Y-114806773D02*
X163585322Y-114711535D01*
X163585322Y-114711535D02*
X163680560Y-114663916D01*
X163680560Y-114663916D02*
X163871036Y-114663916D01*
X163871036Y-114663916D02*
X163966274Y-114711535D01*
X163537703Y-115282964D02*
X163632941Y-115330583D01*
X163632941Y-115330583D02*
X163871036Y-115330583D01*
X163871036Y-115330583D02*
X163966274Y-115282964D01*
X163966274Y-115282964D02*
X164013893Y-115187725D01*
X164013893Y-115187725D02*
X164013893Y-115092487D01*
X164013893Y-115092487D02*
X163966274Y-114997249D01*
X163966274Y-114997249D02*
X163871036Y-114949630D01*
X163871036Y-114949630D02*
X163632941Y-114949630D01*
X163632941Y-114949630D02*
X163537703Y-114902011D01*
X163204369Y-114663916D02*
X162823417Y-114663916D01*
X163061512Y-114330583D02*
X163061512Y-115187725D01*
X163061512Y-115187725D02*
X163013893Y-115282964D01*
X163013893Y-115282964D02*
X162918655Y-115330583D01*
X162918655Y-115330583D02*
X162823417Y-115330583D01*
X162347226Y-115330583D02*
X162442464Y-115282964D01*
X162442464Y-115282964D02*
X162490083Y-115235344D01*
X162490083Y-115235344D02*
X162537702Y-115140106D01*
X162537702Y-115140106D02*
X162537702Y-114854392D01*
X162537702Y-114854392D02*
X162490083Y-114759154D01*
X162490083Y-114759154D02*
X162442464Y-114711535D01*
X162442464Y-114711535D02*
X162347226Y-114663916D01*
X162347226Y-114663916D02*
X162204369Y-114663916D01*
X162204369Y-114663916D02*
X162109131Y-114711535D01*
X162109131Y-114711535D02*
X162061512Y-114759154D01*
X162061512Y-114759154D02*
X162013893Y-114854392D01*
X162013893Y-114854392D02*
X162013893Y-115140106D01*
X162013893Y-115140106D02*
X162061512Y-115235344D01*
X162061512Y-115235344D02*
X162109131Y-115282964D01*
X162109131Y-115282964D02*
X162204369Y-115330583D01*
X162204369Y-115330583D02*
X162347226Y-115330583D01*
X161585321Y-115330583D02*
X161585321Y-114663916D01*
X161585321Y-114854392D02*
X161537702Y-114759154D01*
X161537702Y-114759154D02*
X161490083Y-114711535D01*
X161490083Y-114711535D02*
X161394845Y-114663916D01*
X161394845Y-114663916D02*
X161299607Y-114663916D01*
X160966273Y-115330583D02*
X160966273Y-114663916D01*
X160966273Y-114330583D02*
X161013892Y-114378202D01*
X161013892Y-114378202D02*
X160966273Y-114425821D01*
X160966273Y-114425821D02*
X160918654Y-114378202D01*
X160918654Y-114378202D02*
X160966273Y-114330583D01*
X160966273Y-114330583D02*
X160966273Y-114425821D01*
X159728178Y-115330583D02*
X159728178Y-114663916D01*
X159728178Y-114854392D02*
X159680559Y-114759154D01*
X159680559Y-114759154D02*
X159632940Y-114711535D01*
X159632940Y-114711535D02*
X159537702Y-114663916D01*
X159537702Y-114663916D02*
X159442464Y-114663916D01*
X158728178Y-115282964D02*
X158823416Y-115330583D01*
X158823416Y-115330583D02*
X159013892Y-115330583D01*
X159013892Y-115330583D02*
X159109130Y-115282964D01*
X159109130Y-115282964D02*
X159156749Y-115187725D01*
X159156749Y-115187725D02*
X159156749Y-114806773D01*
X159156749Y-114806773D02*
X159109130Y-114711535D01*
X159109130Y-114711535D02*
X159013892Y-114663916D01*
X159013892Y-114663916D02*
X158823416Y-114663916D01*
X158823416Y-114663916D02*
X158728178Y-114711535D01*
X158728178Y-114711535D02*
X158680559Y-114806773D01*
X158680559Y-114806773D02*
X158680559Y-114902011D01*
X158680559Y-114902011D02*
X159156749Y-114997249D01*
X158347225Y-114663916D02*
X158109130Y-115330583D01*
X158109130Y-115330583D02*
X157871035Y-114663916D01*
X157537701Y-114425821D02*
X157490082Y-114378202D01*
X157490082Y-114378202D02*
X157394844Y-114330583D01*
X157394844Y-114330583D02*
X157156749Y-114330583D01*
X157156749Y-114330583D02*
X157061511Y-114378202D01*
X157061511Y-114378202D02*
X157013892Y-114425821D01*
X157013892Y-114425821D02*
X156966273Y-114521059D01*
X156966273Y-114521059D02*
X156966273Y-114616297D01*
X156966273Y-114616297D02*
X157013892Y-114759154D01*
X157013892Y-114759154D02*
X157585320Y-115330583D01*
X157585320Y-115330583D02*
X156966273Y-115330583D01*
X164347227Y-116273860D02*
X164347227Y-117083384D01*
X164347227Y-117083384D02*
X164394846Y-117178622D01*
X164394846Y-117178622D02*
X164442465Y-117226241D01*
X164442465Y-117226241D02*
X164537703Y-117273860D01*
X164537703Y-117273860D02*
X164680560Y-117273860D01*
X164680560Y-117273860D02*
X164775798Y-117226241D01*
X164347227Y-116892908D02*
X164442465Y-116940527D01*
X164442465Y-116940527D02*
X164632941Y-116940527D01*
X164632941Y-116940527D02*
X164728179Y-116892908D01*
X164728179Y-116892908D02*
X164775798Y-116845288D01*
X164775798Y-116845288D02*
X164823417Y-116750050D01*
X164823417Y-116750050D02*
X164823417Y-116464336D01*
X164823417Y-116464336D02*
X164775798Y-116369098D01*
X164775798Y-116369098D02*
X164728179Y-116321479D01*
X164728179Y-116321479D02*
X164632941Y-116273860D01*
X164632941Y-116273860D02*
X164442465Y-116273860D01*
X164442465Y-116273860D02*
X164347227Y-116321479D01*
X163871036Y-116940527D02*
X163871036Y-116273860D01*
X163871036Y-116464336D02*
X163823417Y-116369098D01*
X163823417Y-116369098D02*
X163775798Y-116321479D01*
X163775798Y-116321479D02*
X163680560Y-116273860D01*
X163680560Y-116273860D02*
X163585322Y-116273860D01*
X162823417Y-116940527D02*
X162823417Y-116416717D01*
X162823417Y-116416717D02*
X162871036Y-116321479D01*
X162871036Y-116321479D02*
X162966274Y-116273860D01*
X162966274Y-116273860D02*
X163156750Y-116273860D01*
X163156750Y-116273860D02*
X163251988Y-116321479D01*
X162823417Y-116892908D02*
X162918655Y-116940527D01*
X162918655Y-116940527D02*
X163156750Y-116940527D01*
X163156750Y-116940527D02*
X163251988Y-116892908D01*
X163251988Y-116892908D02*
X163299607Y-116797669D01*
X163299607Y-116797669D02*
X163299607Y-116702431D01*
X163299607Y-116702431D02*
X163251988Y-116607193D01*
X163251988Y-116607193D02*
X163156750Y-116559574D01*
X163156750Y-116559574D02*
X162918655Y-116559574D01*
X162918655Y-116559574D02*
X162823417Y-116511955D01*
X162394845Y-116892908D02*
X162299607Y-116940527D01*
X162299607Y-116940527D02*
X162109131Y-116940527D01*
X162109131Y-116940527D02*
X162013893Y-116892908D01*
X162013893Y-116892908D02*
X161966274Y-116797669D01*
X161966274Y-116797669D02*
X161966274Y-116750050D01*
X161966274Y-116750050D02*
X162013893Y-116654812D01*
X162013893Y-116654812D02*
X162109131Y-116607193D01*
X162109131Y-116607193D02*
X162251988Y-116607193D01*
X162251988Y-116607193D02*
X162347226Y-116559574D01*
X162347226Y-116559574D02*
X162394845Y-116464336D01*
X162394845Y-116464336D02*
X162394845Y-116416717D01*
X162394845Y-116416717D02*
X162347226Y-116321479D01*
X162347226Y-116321479D02*
X162251988Y-116273860D01*
X162251988Y-116273860D02*
X162109131Y-116273860D01*
X162109131Y-116273860D02*
X162013893Y-116321479D01*
X161585321Y-116892908D02*
X161490083Y-116940527D01*
X161490083Y-116940527D02*
X161299607Y-116940527D01*
X161299607Y-116940527D02*
X161204369Y-116892908D01*
X161204369Y-116892908D02*
X161156750Y-116797669D01*
X161156750Y-116797669D02*
X161156750Y-116750050D01*
X161156750Y-116750050D02*
X161204369Y-116654812D01*
X161204369Y-116654812D02*
X161299607Y-116607193D01*
X161299607Y-116607193D02*
X161442464Y-116607193D01*
X161442464Y-116607193D02*
X161537702Y-116559574D01*
X161537702Y-116559574D02*
X161585321Y-116464336D01*
X161585321Y-116464336D02*
X161585321Y-116416717D01*
X161585321Y-116416717D02*
X161537702Y-116321479D01*
X161537702Y-116321479D02*
X161442464Y-116273860D01*
X161442464Y-116273860D02*
X161299607Y-116273860D01*
X161299607Y-116273860D02*
X161204369Y-116321479D01*
X160871035Y-116273860D02*
X160490083Y-116273860D01*
X160728178Y-116940527D02*
X160728178Y-116083384D01*
X160728178Y-116083384D02*
X160680559Y-115988146D01*
X160680559Y-115988146D02*
X160585321Y-115940527D01*
X160585321Y-115940527D02*
X160490083Y-115940527D01*
X159775797Y-116892908D02*
X159871035Y-116940527D01*
X159871035Y-116940527D02*
X160061511Y-116940527D01*
X160061511Y-116940527D02*
X160156749Y-116892908D01*
X160156749Y-116892908D02*
X160204368Y-116797669D01*
X160204368Y-116797669D02*
X160204368Y-116416717D01*
X160204368Y-116416717D02*
X160156749Y-116321479D01*
X160156749Y-116321479D02*
X160061511Y-116273860D01*
X160061511Y-116273860D02*
X159871035Y-116273860D01*
X159871035Y-116273860D02*
X159775797Y-116321479D01*
X159775797Y-116321479D02*
X159728178Y-116416717D01*
X159728178Y-116416717D02*
X159728178Y-116511955D01*
X159728178Y-116511955D02*
X160204368Y-116607193D01*
X158871035Y-116940527D02*
X158871035Y-115940527D01*
X158871035Y-116892908D02*
X158966273Y-116940527D01*
X158966273Y-116940527D02*
X159156749Y-116940527D01*
X159156749Y-116940527D02*
X159251987Y-116892908D01*
X159251987Y-116892908D02*
X159299606Y-116845288D01*
X159299606Y-116845288D02*
X159347225Y-116750050D01*
X159347225Y-116750050D02*
X159347225Y-116464336D01*
X159347225Y-116464336D02*
X159299606Y-116369098D01*
X159299606Y-116369098D02*
X159251987Y-116321479D01*
X159251987Y-116321479D02*
X159156749Y-116273860D01*
X159156749Y-116273860D02*
X158966273Y-116273860D01*
X158966273Y-116273860D02*
X158871035Y-116321479D01*
X158394844Y-116940527D02*
X158394844Y-116273860D01*
X158394844Y-116464336D02*
X158347225Y-116369098D01*
X158347225Y-116369098D02*
X158299606Y-116321479D01*
X158299606Y-116321479D02*
X158204368Y-116273860D01*
X158204368Y-116273860D02*
X158109130Y-116273860D01*
X157394844Y-116892908D02*
X157490082Y-116940527D01*
X157490082Y-116940527D02*
X157680558Y-116940527D01*
X157680558Y-116940527D02*
X157775796Y-116892908D01*
X157775796Y-116892908D02*
X157823415Y-116797669D01*
X157823415Y-116797669D02*
X157823415Y-116416717D01*
X157823415Y-116416717D02*
X157775796Y-116321479D01*
X157775796Y-116321479D02*
X157680558Y-116273860D01*
X157680558Y-116273860D02*
X157490082Y-116273860D01*
X157490082Y-116273860D02*
X157394844Y-116321479D01*
X157394844Y-116321479D02*
X157347225Y-116416717D01*
X157347225Y-116416717D02*
X157347225Y-116511955D01*
X157347225Y-116511955D02*
X157823415Y-116607193D01*
X156537701Y-116892908D02*
X156632939Y-116940527D01*
X156632939Y-116940527D02*
X156823415Y-116940527D01*
X156823415Y-116940527D02*
X156918653Y-116892908D01*
X156918653Y-116892908D02*
X156966272Y-116797669D01*
X156966272Y-116797669D02*
X156966272Y-116416717D01*
X156966272Y-116416717D02*
X156918653Y-116321479D01*
X156918653Y-116321479D02*
X156823415Y-116273860D01*
X156823415Y-116273860D02*
X156632939Y-116273860D01*
X156632939Y-116273860D02*
X156537701Y-116321479D01*
X156537701Y-116321479D02*
X156490082Y-116416717D01*
X156490082Y-116416717D02*
X156490082Y-116511955D01*
X156490082Y-116511955D02*
X156966272Y-116607193D01*
X156156748Y-116273860D02*
X155918653Y-116940527D01*
X155918653Y-116940527D02*
X155680558Y-116273860D01*
X154918653Y-116892908D02*
X155013891Y-116940527D01*
X155013891Y-116940527D02*
X155204367Y-116940527D01*
X155204367Y-116940527D02*
X155299605Y-116892908D01*
X155299605Y-116892908D02*
X155347224Y-116797669D01*
X155347224Y-116797669D02*
X155347224Y-116416717D01*
X155347224Y-116416717D02*
X155299605Y-116321479D01*
X155299605Y-116321479D02*
X155204367Y-116273860D01*
X155204367Y-116273860D02*
X155013891Y-116273860D01*
X155013891Y-116273860D02*
X154918653Y-116321479D01*
X154918653Y-116321479D02*
X154871034Y-116416717D01*
X154871034Y-116416717D02*
X154871034Y-116511955D01*
X154871034Y-116511955D02*
X155347224Y-116607193D01*
X143094266Y-120710660D02*
X144094114Y-120693207D01*
X143713219Y-120699856D02*
X143759169Y-120603801D01*
X143759169Y-120603801D02*
X143755845Y-120413354D01*
X143755845Y-120413354D02*
X143706571Y-120318961D01*
X143706571Y-120318961D02*
X143658128Y-120272181D01*
X143658128Y-120272181D02*
X143562073Y-120226231D01*
X143562073Y-120226231D02*
X143276403Y-120231217D01*
X143276403Y-120231217D02*
X143182010Y-120280491D01*
X143182010Y-120280491D02*
X143135229Y-120328934D01*
X143135229Y-120328934D02*
X143089280Y-120424989D01*
X143089280Y-120424989D02*
X143092604Y-120615436D01*
X143092604Y-120615436D02*
X143141878Y-120709829D01*
X143075983Y-119663200D02*
X143125256Y-119757593D01*
X143125256Y-119757593D02*
X143221311Y-119803542D01*
X143221311Y-119803542D02*
X144078323Y-119788583D01*
X143061854Y-118853799D02*
X143585584Y-118844657D01*
X143585584Y-118844657D02*
X143681639Y-118890607D01*
X143681639Y-118890607D02*
X143730913Y-118984999D01*
X143730913Y-118984999D02*
X143734237Y-119175447D01*
X143734237Y-119175447D02*
X143688287Y-119271501D01*
X143109466Y-118852968D02*
X143063517Y-118949023D01*
X143063517Y-118949023D02*
X143067672Y-119187082D01*
X143067672Y-119187082D02*
X143116946Y-119281474D01*
X143116946Y-119281474D02*
X143213000Y-119327424D01*
X143213000Y-119327424D02*
X143308224Y-119325762D01*
X143308224Y-119325762D02*
X143402617Y-119276488D01*
X143402617Y-119276488D02*
X143448566Y-119180433D01*
X143448566Y-119180433D02*
X143444411Y-118942374D01*
X143444411Y-118942374D02*
X143490361Y-118846319D01*
X143093676Y-117948344D02*
X143047726Y-118044398D01*
X143047726Y-118044398D02*
X143051051Y-118234846D01*
X143051051Y-118234846D02*
X143100324Y-118329238D01*
X143100324Y-118329238D02*
X143148767Y-118376019D01*
X143148767Y-118376019D02*
X143244822Y-118421968D01*
X143244822Y-118421968D02*
X143530493Y-118416982D01*
X143530493Y-118416982D02*
X143624885Y-118367708D01*
X143624885Y-118367708D02*
X143671666Y-118319265D01*
X143671666Y-118319265D02*
X143717616Y-118223211D01*
X143717616Y-118223211D02*
X143714291Y-118032763D01*
X143714291Y-118032763D02*
X143665017Y-117938371D01*
X143038585Y-117520669D02*
X144038432Y-117503216D01*
X143417817Y-117418796D02*
X143031936Y-117139774D01*
X143698501Y-117128139D02*
X143324255Y-117515682D01*
X143392054Y-115942830D02*
X143378757Y-115181042D01*
X147771796Y-106214573D02*
X147009892Y-106214573D01*
X147390844Y-106595526D02*
X147390844Y-105833621D01*
X145009891Y-106214573D02*
X144247987Y-106214573D01*
X197753168Y-130242507D02*
X197378561Y-129315323D01*
X197556945Y-129756839D02*
X197027126Y-129970900D01*
X197223348Y-130456568D02*
X196848742Y-129529384D01*
X196009861Y-129868314D02*
X196186467Y-129796960D01*
X196186467Y-129796960D02*
X196292609Y-129805435D01*
X196292609Y-129805435D02*
X196354599Y-129831748D01*
X196354599Y-129831748D02*
X196496418Y-129928526D01*
X196496418Y-129928526D02*
X196611923Y-130087294D01*
X196611923Y-130087294D02*
X196754630Y-130440507D01*
X196754630Y-130440507D02*
X196746155Y-130546649D01*
X196746155Y-130546649D02*
X196719842Y-130608639D01*
X196719842Y-130608639D02*
X196649377Y-130688467D01*
X196649377Y-130688467D02*
X196472771Y-130759821D01*
X196472771Y-130759821D02*
X196366629Y-130751346D01*
X196366629Y-130751346D02*
X196304639Y-130725033D01*
X196304639Y-130725033D02*
X196224811Y-130654568D01*
X196224811Y-130654568D02*
X196135619Y-130433810D01*
X196135619Y-130433810D02*
X196144093Y-130327668D01*
X196144093Y-130327668D02*
X196170407Y-130265678D01*
X196170407Y-130265678D02*
X196240871Y-130185850D01*
X196240871Y-130185850D02*
X196417478Y-130114496D01*
X196417478Y-130114496D02*
X196523620Y-130122971D01*
X196523620Y-130122971D02*
X196585610Y-130149284D01*
X196585610Y-130149284D02*
X196665438Y-130219749D01*
X116605572Y-123663987D02*
X117356149Y-123967240D01*
X117356149Y-123967240D02*
X117426614Y-124047069D01*
X117426614Y-124047069D02*
X117452927Y-124109059D01*
X117452927Y-124109059D02*
X117461402Y-124215200D01*
X117461402Y-124215200D02*
X117390049Y-124391807D01*
X117390049Y-124391807D02*
X117310220Y-124462272D01*
X117310220Y-124462272D02*
X117248230Y-124488585D01*
X117248230Y-124488585D02*
X117142089Y-124497060D01*
X117142089Y-124497060D02*
X116391511Y-124193807D01*
X116319269Y-124626848D02*
X116257279Y-124653161D01*
X116257279Y-124653161D02*
X116177450Y-124723626D01*
X116177450Y-124723626D02*
X116088258Y-124944384D01*
X116088258Y-124944384D02*
X116096733Y-125050526D01*
X116096733Y-125050526D02*
X116123046Y-125112516D01*
X116123046Y-125112516D02*
X116193511Y-125192344D01*
X116193511Y-125192344D02*
X116281814Y-125228021D01*
X116281814Y-125228021D02*
X116432108Y-125237385D01*
X116432108Y-125237385D02*
X117175988Y-124921626D01*
X117175988Y-124921626D02*
X116944088Y-125495597D01*
X226090170Y-90120720D02*
X226220847Y-89554335D01*
X226619989Y-89906659D02*
X226245382Y-88979475D01*
X226245382Y-88979475D02*
X225892169Y-89122182D01*
X225892169Y-89122182D02*
X225821705Y-89202011D01*
X225821705Y-89202011D02*
X225795391Y-89264001D01*
X225795391Y-89264001D02*
X225786917Y-89370142D01*
X225786917Y-89370142D02*
X225840432Y-89502597D01*
X225840432Y-89502597D02*
X225920260Y-89573062D01*
X225920260Y-89573062D02*
X225982250Y-89599375D01*
X225982250Y-89599375D02*
X226088392Y-89607850D01*
X226088392Y-89607850D02*
X226441605Y-89465143D01*
X225207137Y-90477488D02*
X225736957Y-90263427D01*
X225472047Y-90370458D02*
X225097440Y-89443274D01*
X225097440Y-89443274D02*
X225239259Y-89540052D01*
X225239259Y-89540052D02*
X225363239Y-89592678D01*
X225363239Y-89592678D02*
X225469380Y-89601153D01*
X224523469Y-89675173D02*
X223949498Y-89907072D01*
X223949498Y-89907072D02*
X224401267Y-90135416D01*
X224401267Y-90135416D02*
X224268812Y-90188932D01*
X224268812Y-90188932D02*
X224198347Y-90268760D01*
X224198347Y-90268760D02*
X224172034Y-90330750D01*
X224172034Y-90330750D02*
X224163559Y-90436892D01*
X224163559Y-90436892D02*
X224252751Y-90657650D01*
X224252751Y-90657650D02*
X224332580Y-90728115D01*
X224332580Y-90728115D02*
X224394570Y-90754428D01*
X224394570Y-90754428D02*
X224500711Y-90762903D01*
X224500711Y-90762903D02*
X224765621Y-90655872D01*
X224765621Y-90655872D02*
X224836086Y-90576044D01*
X224836086Y-90576044D02*
X224862399Y-90514054D01*
X121417243Y-122866139D02*
X121443557Y-122928129D01*
X121443557Y-122928129D02*
X121558173Y-123025796D01*
X121558173Y-123025796D02*
X121646476Y-123061473D01*
X121646476Y-123061473D02*
X121796769Y-123070837D01*
X121796769Y-123070837D02*
X121920749Y-123018210D01*
X121920749Y-123018210D02*
X122000578Y-122947745D01*
X122000578Y-122947745D02*
X122116083Y-122788977D01*
X122116083Y-122788977D02*
X122169598Y-122656523D01*
X122169598Y-122656523D02*
X122196800Y-122462078D01*
X122196800Y-122462078D02*
X122188326Y-122355936D01*
X122188326Y-122355936D02*
X122135699Y-122231956D01*
X122135699Y-122231956D02*
X122021083Y-122134289D01*
X122021083Y-122134289D02*
X121932780Y-122098612D01*
X121932780Y-122098612D02*
X121782486Y-122089249D01*
X121782486Y-122089249D02*
X121720496Y-122115562D01*
X120498534Y-122597674D02*
X121028354Y-122811735D01*
X120763444Y-122704705D02*
X121138051Y-121777521D01*
X121138051Y-121777521D02*
X121172839Y-121945653D01*
X121172839Y-121945653D02*
X121225465Y-122069633D01*
X121225465Y-122069633D02*
X121295930Y-122149461D01*
X219019822Y-63730216D02*
X218694254Y-62784698D01*
X218849287Y-63234945D02*
X218308990Y-63420984D01*
X218479526Y-63916255D02*
X218153958Y-62970737D01*
X217779742Y-63200315D02*
X217719214Y-63170794D01*
X217719214Y-63170794D02*
X217613661Y-63156776D01*
X217613661Y-63156776D02*
X217388538Y-63234292D01*
X217388538Y-63234292D02*
X217313992Y-63310323D01*
X217313992Y-63310323D02*
X217284470Y-63370851D01*
X217284470Y-63370851D02*
X217270452Y-63476404D01*
X217270452Y-63476404D02*
X217301459Y-63566453D01*
X217301459Y-63566453D02*
X217392993Y-63686024D01*
X217392993Y-63686024D02*
X218119328Y-64040281D01*
X218119328Y-64040281D02*
X217534007Y-64241824D01*
X172407501Y-122376316D02*
X172740834Y-121900125D01*
X172978929Y-122376316D02*
X172978929Y-121376316D01*
X172978929Y-121376316D02*
X172597977Y-121376316D01*
X172597977Y-121376316D02*
X172502739Y-121423935D01*
X172502739Y-121423935D02*
X172455120Y-121471554D01*
X172455120Y-121471554D02*
X172407501Y-121566792D01*
X172407501Y-121566792D02*
X172407501Y-121709649D01*
X172407501Y-121709649D02*
X172455120Y-121804887D01*
X172455120Y-121804887D02*
X172502739Y-121852506D01*
X172502739Y-121852506D02*
X172597977Y-121900125D01*
X172597977Y-121900125D02*
X172978929Y-121900125D01*
X171836072Y-121804887D02*
X171931310Y-121757268D01*
X171931310Y-121757268D02*
X171978929Y-121709649D01*
X171978929Y-121709649D02*
X172026548Y-121614411D01*
X172026548Y-121614411D02*
X172026548Y-121566792D01*
X172026548Y-121566792D02*
X171978929Y-121471554D01*
X171978929Y-121471554D02*
X171931310Y-121423935D01*
X171931310Y-121423935D02*
X171836072Y-121376316D01*
X171836072Y-121376316D02*
X171645596Y-121376316D01*
X171645596Y-121376316D02*
X171550358Y-121423935D01*
X171550358Y-121423935D02*
X171502739Y-121471554D01*
X171502739Y-121471554D02*
X171455120Y-121566792D01*
X171455120Y-121566792D02*
X171455120Y-121614411D01*
X171455120Y-121614411D02*
X171502739Y-121709649D01*
X171502739Y-121709649D02*
X171550358Y-121757268D01*
X171550358Y-121757268D02*
X171645596Y-121804887D01*
X171645596Y-121804887D02*
X171836072Y-121804887D01*
X171836072Y-121804887D02*
X171931310Y-121852506D01*
X171931310Y-121852506D02*
X171978929Y-121900125D01*
X171978929Y-121900125D02*
X172026548Y-121995363D01*
X172026548Y-121995363D02*
X172026548Y-122185839D01*
X172026548Y-122185839D02*
X171978929Y-122281077D01*
X171978929Y-122281077D02*
X171931310Y-122328697D01*
X171931310Y-122328697D02*
X171836072Y-122376316D01*
X171836072Y-122376316D02*
X171645596Y-122376316D01*
X171645596Y-122376316D02*
X171550358Y-122328697D01*
X171550358Y-122328697D02*
X171502739Y-122281077D01*
X171502739Y-122281077D02*
X171455120Y-122185839D01*
X171455120Y-122185839D02*
X171455120Y-121995363D01*
X171455120Y-121995363D02*
X171502739Y-121900125D01*
X171502739Y-121900125D02*
X171550358Y-121852506D01*
X171550358Y-121852506D02*
X171645596Y-121804887D01*
X204454790Y-129358068D02*
X204585467Y-128791683D01*
X204984609Y-129144007D02*
X204610002Y-128216823D01*
X204610002Y-128216823D02*
X204256789Y-128359530D01*
X204256789Y-128359530D02*
X204186325Y-128439359D01*
X204186325Y-128439359D02*
X204160011Y-128501349D01*
X204160011Y-128501349D02*
X204151537Y-128607490D01*
X204151537Y-128607490D02*
X204205052Y-128739945D01*
X204205052Y-128739945D02*
X204284880Y-128810410D01*
X204284880Y-128810410D02*
X204346870Y-128836723D01*
X204346870Y-128836723D02*
X204453012Y-128845198D01*
X204453012Y-128845198D02*
X204806225Y-128702491D01*
X203571757Y-129714836D02*
X204101577Y-129500775D01*
X203836667Y-129607806D02*
X203462060Y-128680622D01*
X203462060Y-128680622D02*
X203603879Y-128777400D01*
X203603879Y-128777400D02*
X203727859Y-128830026D01*
X203727859Y-128830026D02*
X203834000Y-128838501D01*
X202879615Y-129018663D02*
X202817625Y-128992349D01*
X202817625Y-128992349D02*
X202711483Y-128983875D01*
X202711483Y-128983875D02*
X202490725Y-129073067D01*
X202490725Y-129073067D02*
X202420260Y-129152895D01*
X202420260Y-129152895D02*
X202393947Y-129214885D01*
X202393947Y-129214885D02*
X202385472Y-129321027D01*
X202385472Y-129321027D02*
X202421149Y-129409330D01*
X202421149Y-129409330D02*
X202518816Y-129523946D01*
X202518816Y-129523946D02*
X203262696Y-129839705D01*
X203262696Y-129839705D02*
X202688725Y-130071604D01*
X99799693Y-64226308D02*
X100125261Y-63280790D01*
X99970229Y-63731037D02*
X99429932Y-63544998D01*
X99259397Y-64040269D02*
X99584965Y-63094751D01*
X98313878Y-63714701D02*
X98854174Y-63900740D01*
X98584026Y-63807721D02*
X98909594Y-62862202D01*
X98909594Y-62862202D02*
X98953134Y-63028283D01*
X98953134Y-63028283D02*
X99012177Y-63149339D01*
X99012177Y-63149339D02*
X99086723Y-63225370D01*
X210413554Y-101739304D02*
X210544231Y-101172919D01*
X210943373Y-101525243D02*
X210568766Y-100598059D01*
X210568766Y-100598059D02*
X210215553Y-100740766D01*
X210215553Y-100740766D02*
X210145089Y-100820595D01*
X210145089Y-100820595D02*
X210118775Y-100882585D01*
X210118775Y-100882585D02*
X210110301Y-100988726D01*
X210110301Y-100988726D02*
X210163816Y-101121181D01*
X210163816Y-101121181D02*
X210243644Y-101191646D01*
X210243644Y-101191646D02*
X210305634Y-101217959D01*
X210305634Y-101217959D02*
X210411776Y-101226434D01*
X210411776Y-101226434D02*
X210764989Y-101083727D01*
X209530521Y-102096072D02*
X210060341Y-101882011D01*
X209795431Y-101989042D02*
X209420824Y-101061858D01*
X209420824Y-101061858D02*
X209562643Y-101158636D01*
X209562643Y-101158636D02*
X209686623Y-101211262D01*
X209686623Y-101211262D02*
X209792764Y-101219737D01*
X208486054Y-101799041D02*
X208735792Y-102417163D01*
X208564105Y-101356636D02*
X209052439Y-101929718D01*
X209052439Y-101929718D02*
X208478469Y-102161617D01*
X144605621Y-111803238D02*
X144605621Y-112517523D01*
X144605621Y-112517523D02*
X144653240Y-112660380D01*
X144653240Y-112660380D02*
X144748478Y-112755619D01*
X144748478Y-112755619D02*
X144891335Y-112803238D01*
X144891335Y-112803238D02*
X144986573Y-112803238D01*
X143605621Y-112803238D02*
X144177049Y-112803238D01*
X143891335Y-112803238D02*
X143891335Y-111803238D01*
X143891335Y-111803238D02*
X143986573Y-111946095D01*
X143986573Y-111946095D02*
X144081811Y-112041333D01*
X144081811Y-112041333D02*
X144177049Y-112088952D01*
X169858176Y-117278672D02*
X169381985Y-116945339D01*
X169858176Y-116707244D02*
X168858176Y-116707244D01*
X168858176Y-116707244D02*
X168858176Y-117088196D01*
X168858176Y-117088196D02*
X168905795Y-117183434D01*
X168905795Y-117183434D02*
X168953414Y-117231053D01*
X168953414Y-117231053D02*
X169048652Y-117278672D01*
X169048652Y-117278672D02*
X169191509Y-117278672D01*
X169191509Y-117278672D02*
X169286747Y-117231053D01*
X169286747Y-117231053D02*
X169334366Y-117183434D01*
X169334366Y-117183434D02*
X169381985Y-117088196D01*
X169381985Y-117088196D02*
X169381985Y-116707244D01*
X169858176Y-118231053D02*
X169858176Y-117659625D01*
X169858176Y-117945339D02*
X168858176Y-117945339D01*
X168858176Y-117945339D02*
X169001033Y-117850101D01*
X169001033Y-117850101D02*
X169096271Y-117754863D01*
X169096271Y-117754863D02*
X169143890Y-117659625D01*
X168858176Y-119088196D02*
X168858176Y-118897720D01*
X168858176Y-118897720D02*
X168905795Y-118802482D01*
X168905795Y-118802482D02*
X168953414Y-118754863D01*
X168953414Y-118754863D02*
X169096271Y-118659625D01*
X169096271Y-118659625D02*
X169286747Y-118612006D01*
X169286747Y-118612006D02*
X169667699Y-118612006D01*
X169667699Y-118612006D02*
X169762937Y-118659625D01*
X169762937Y-118659625D02*
X169810557Y-118707244D01*
X169810557Y-118707244D02*
X169858176Y-118802482D01*
X169858176Y-118802482D02*
X169858176Y-118992958D01*
X169858176Y-118992958D02*
X169810557Y-119088196D01*
X169810557Y-119088196D02*
X169762937Y-119135815D01*
X169762937Y-119135815D02*
X169667699Y-119183434D01*
X169667699Y-119183434D02*
X169429604Y-119183434D01*
X169429604Y-119183434D02*
X169334366Y-119135815D01*
X169334366Y-119135815D02*
X169286747Y-119088196D01*
X169286747Y-119088196D02*
X169239128Y-118992958D01*
X169239128Y-118992958D02*
X169239128Y-118802482D01*
X169239128Y-118802482D02*
X169286747Y-118707244D01*
X169286747Y-118707244D02*
X169334366Y-118659625D01*
X169334366Y-118659625D02*
X169429604Y-118612006D01*
X130391535Y-101136082D02*
X130878981Y-100819434D01*
X130921355Y-101350143D02*
X131295961Y-100422959D01*
X131295961Y-100422959D02*
X130942749Y-100280251D01*
X130942749Y-100280251D02*
X130836607Y-100288726D01*
X130836607Y-100288726D02*
X130774617Y-100315039D01*
X130774617Y-100315039D02*
X130694788Y-100385504D01*
X130694788Y-100385504D02*
X130641273Y-100517959D01*
X130641273Y-100517959D02*
X130649748Y-100624101D01*
X130649748Y-100624101D02*
X130676061Y-100686091D01*
X130676061Y-100686091D02*
X130746526Y-100765919D01*
X130746526Y-100765919D02*
X131099739Y-100908626D01*
X129846544Y-100196868D02*
X129596806Y-100814990D01*
X130210010Y-99932847D02*
X130163191Y-100684313D01*
X130163191Y-100684313D02*
X129589220Y-100452414D01*
X55075925Y-78758819D02*
X55514558Y-78377414D01*
X55630380Y-78897060D02*
X55872302Y-77926764D01*
X55872302Y-77926764D02*
X55502665Y-77834603D01*
X55502665Y-77834603D02*
X55398736Y-77857768D01*
X55398736Y-77857768D02*
X55341012Y-77892452D01*
X55341012Y-77892452D02*
X55271767Y-77973341D01*
X55271767Y-77973341D02*
X55237207Y-78111955D01*
X55237207Y-78111955D02*
X55260371Y-78215884D01*
X55260371Y-78215884D02*
X55295055Y-78273609D01*
X55295055Y-78273609D02*
X55375944Y-78342853D01*
X55375944Y-78342853D02*
X55745581Y-78435014D01*
X54486165Y-77581161D02*
X54670983Y-77627242D01*
X54670983Y-77627242D02*
X54751872Y-77696486D01*
X54751872Y-77696486D02*
X54786557Y-77754211D01*
X54786557Y-77754211D02*
X54844406Y-77915865D01*
X54844406Y-77915865D02*
X54844530Y-78112203D01*
X54844530Y-78112203D02*
X54752369Y-78481840D01*
X54752369Y-78481840D02*
X54683124Y-78562729D01*
X54683124Y-78562729D02*
X54625400Y-78597413D01*
X54625400Y-78597413D02*
X54521471Y-78620578D01*
X54521471Y-78620578D02*
X54336652Y-78574497D01*
X54336652Y-78574497D02*
X54255763Y-78505252D01*
X54255763Y-78505252D02*
X54221079Y-78447528D01*
X54221079Y-78447528D02*
X54197914Y-78343599D01*
X54197914Y-78343599D02*
X54255515Y-78112576D01*
X54255515Y-78112576D02*
X54324760Y-78031687D01*
X54324760Y-78031687D02*
X54382484Y-77997002D01*
X54382484Y-77997002D02*
X54486414Y-77973838D01*
X54486414Y-77973838D02*
X54671232Y-78019918D01*
X54671232Y-78019918D02*
X54752121Y-78089163D01*
X54752121Y-78089163D02*
X54786805Y-78146888D01*
X54786805Y-78146888D02*
X54809970Y-78250817D01*
X172432513Y-114281111D02*
X172480132Y-114328731D01*
X172480132Y-114328731D02*
X172622989Y-114376350D01*
X172622989Y-114376350D02*
X172718227Y-114376350D01*
X172718227Y-114376350D02*
X172861084Y-114328731D01*
X172861084Y-114328731D02*
X172956322Y-114233492D01*
X172956322Y-114233492D02*
X173003941Y-114138254D01*
X173003941Y-114138254D02*
X173051560Y-113947778D01*
X173051560Y-113947778D02*
X173051560Y-113804921D01*
X173051560Y-113804921D02*
X173003941Y-113614445D01*
X173003941Y-113614445D02*
X172956322Y-113519207D01*
X172956322Y-113519207D02*
X172861084Y-113423969D01*
X172861084Y-113423969D02*
X172718227Y-113376350D01*
X172718227Y-113376350D02*
X172622989Y-113376350D01*
X172622989Y-113376350D02*
X172480132Y-113423969D01*
X172480132Y-113423969D02*
X172432513Y-113471588D01*
X172051560Y-113471588D02*
X172003941Y-113423969D01*
X172003941Y-113423969D02*
X171908703Y-113376350D01*
X171908703Y-113376350D02*
X171670608Y-113376350D01*
X171670608Y-113376350D02*
X171575370Y-113423969D01*
X171575370Y-113423969D02*
X171527751Y-113471588D01*
X171527751Y-113471588D02*
X171480132Y-113566826D01*
X171480132Y-113566826D02*
X171480132Y-113662064D01*
X171480132Y-113662064D02*
X171527751Y-113804921D01*
X171527751Y-113804921D02*
X172099179Y-114376350D01*
X172099179Y-114376350D02*
X171480132Y-114376350D01*
X201469000Y-125023192D02*
X200718423Y-125326445D01*
X200718423Y-125326445D02*
X200612281Y-125317970D01*
X200612281Y-125317970D02*
X200550291Y-125291657D01*
X200550291Y-125291657D02*
X200470463Y-125221192D01*
X200470463Y-125221192D02*
X200399109Y-125044586D01*
X200399109Y-125044586D02*
X200407584Y-124938444D01*
X200407584Y-124938444D02*
X200433897Y-124876454D01*
X200433897Y-124876454D02*
X200504362Y-124796626D01*
X200504362Y-124796626D02*
X201254939Y-124493373D01*
X200606948Y-123779361D02*
X199988826Y-124029099D01*
X201049353Y-123857412D02*
X200476271Y-124345746D01*
X200476271Y-124345746D02*
X200244372Y-123771775D01*
X175820001Y-112946342D02*
X176153334Y-112470151D01*
X176391429Y-112946342D02*
X176391429Y-111946342D01*
X176391429Y-111946342D02*
X176010477Y-111946342D01*
X176010477Y-111946342D02*
X175915239Y-111993961D01*
X175915239Y-111993961D02*
X175867620Y-112041580D01*
X175867620Y-112041580D02*
X175820001Y-112136818D01*
X175820001Y-112136818D02*
X175820001Y-112279675D01*
X175820001Y-112279675D02*
X175867620Y-112374913D01*
X175867620Y-112374913D02*
X175915239Y-112422532D01*
X175915239Y-112422532D02*
X176010477Y-112470151D01*
X176010477Y-112470151D02*
X176391429Y-112470151D01*
X175343810Y-112946342D02*
X175153334Y-112946342D01*
X175153334Y-112946342D02*
X175058096Y-112898723D01*
X175058096Y-112898723D02*
X175010477Y-112851103D01*
X175010477Y-112851103D02*
X174915239Y-112708246D01*
X174915239Y-112708246D02*
X174867620Y-112517770D01*
X174867620Y-112517770D02*
X174867620Y-112136818D01*
X174867620Y-112136818D02*
X174915239Y-112041580D01*
X174915239Y-112041580D02*
X174962858Y-111993961D01*
X174962858Y-111993961D02*
X175058096Y-111946342D01*
X175058096Y-111946342D02*
X175248572Y-111946342D01*
X175248572Y-111946342D02*
X175343810Y-111993961D01*
X175343810Y-111993961D02*
X175391429Y-112041580D01*
X175391429Y-112041580D02*
X175439048Y-112136818D01*
X175439048Y-112136818D02*
X175439048Y-112374913D01*
X175439048Y-112374913D02*
X175391429Y-112470151D01*
X175391429Y-112470151D02*
X175343810Y-112517770D01*
X175343810Y-112517770D02*
X175248572Y-112565389D01*
X175248572Y-112565389D02*
X175058096Y-112565389D01*
X175058096Y-112565389D02*
X174962858Y-112517770D01*
X174962858Y-112517770D02*
X174915239Y-112470151D01*
X174915239Y-112470151D02*
X174867620Y-112374913D01*
X162077148Y-111099280D02*
X161934291Y-111146899D01*
X161934291Y-111146899D02*
X161696196Y-111146899D01*
X161696196Y-111146899D02*
X161600958Y-111099280D01*
X161600958Y-111099280D02*
X161553339Y-111051660D01*
X161553339Y-111051660D02*
X161505720Y-110956422D01*
X161505720Y-110956422D02*
X161505720Y-110861184D01*
X161505720Y-110861184D02*
X161553339Y-110765946D01*
X161553339Y-110765946D02*
X161600958Y-110718327D01*
X161600958Y-110718327D02*
X161696196Y-110670708D01*
X161696196Y-110670708D02*
X161886672Y-110623089D01*
X161886672Y-110623089D02*
X161981910Y-110575470D01*
X161981910Y-110575470D02*
X162029529Y-110527851D01*
X162029529Y-110527851D02*
X162077148Y-110432613D01*
X162077148Y-110432613D02*
X162077148Y-110337375D01*
X162077148Y-110337375D02*
X162029529Y-110242137D01*
X162029529Y-110242137D02*
X161981910Y-110194518D01*
X161981910Y-110194518D02*
X161886672Y-110146899D01*
X161886672Y-110146899D02*
X161648577Y-110146899D01*
X161648577Y-110146899D02*
X161505720Y-110194518D01*
X161172386Y-110146899D02*
X160934291Y-111146899D01*
X160934291Y-111146899D02*
X160743815Y-110432613D01*
X160743815Y-110432613D02*
X160553339Y-111146899D01*
X160553339Y-111146899D02*
X160315244Y-110146899D01*
X160029529Y-110146899D02*
X159410482Y-110146899D01*
X159410482Y-110146899D02*
X159743815Y-110527851D01*
X159743815Y-110527851D02*
X159600958Y-110527851D01*
X159600958Y-110527851D02*
X159505720Y-110575470D01*
X159505720Y-110575470D02*
X159458101Y-110623089D01*
X159458101Y-110623089D02*
X159410482Y-110718327D01*
X159410482Y-110718327D02*
X159410482Y-110956422D01*
X159410482Y-110956422D02*
X159458101Y-111051660D01*
X159458101Y-111051660D02*
X159505720Y-111099280D01*
X159505720Y-111099280D02*
X159600958Y-111146899D01*
X159600958Y-111146899D02*
X159886672Y-111146899D01*
X159886672Y-111146899D02*
X159981910Y-111099280D01*
X159981910Y-111099280D02*
X160029529Y-111051660D01*
X158458101Y-111146899D02*
X159029529Y-111146899D01*
X158743815Y-111146899D02*
X158743815Y-110146899D01*
X158743815Y-110146899D02*
X158839053Y-110289756D01*
X158839053Y-110289756D02*
X158934291Y-110384994D01*
X158934291Y-110384994D02*
X159029529Y-110432613D01*
X93724838Y-90888696D02*
X94212284Y-90572048D01*
X94254658Y-91102757D02*
X94629264Y-90175573D01*
X94629264Y-90175573D02*
X94276052Y-90032865D01*
X94276052Y-90032865D02*
X94169910Y-90041340D01*
X94169910Y-90041340D02*
X94107920Y-90067653D01*
X94107920Y-90067653D02*
X94028091Y-90138118D01*
X94028091Y-90138118D02*
X93974576Y-90270573D01*
X93974576Y-90270573D02*
X93983051Y-90376715D01*
X93983051Y-90376715D02*
X94009364Y-90438705D01*
X94009364Y-90438705D02*
X94079829Y-90518533D01*
X94079829Y-90518533D02*
X94433042Y-90661240D01*
X93710555Y-89907108D02*
X93684242Y-89845118D01*
X93684242Y-89845118D02*
X93613777Y-89765289D01*
X93613777Y-89765289D02*
X93393019Y-89676097D01*
X93393019Y-89676097D02*
X93286878Y-89684572D01*
X93286878Y-89684572D02*
X93224888Y-89710885D01*
X93224888Y-89710885D02*
X93145059Y-89781350D01*
X93145059Y-89781350D02*
X93109382Y-89869653D01*
X93109382Y-89869653D02*
X93100019Y-90019947D01*
X93100019Y-90019947D02*
X93415777Y-90763827D01*
X93415777Y-90763827D02*
X92841806Y-90531927D01*
X109347019Y-102573899D02*
X109834465Y-102257251D01*
X109876839Y-102787960D02*
X110251445Y-101860776D01*
X110251445Y-101860776D02*
X109898233Y-101718068D01*
X109898233Y-101718068D02*
X109792091Y-101726543D01*
X109792091Y-101726543D02*
X109730101Y-101752856D01*
X109730101Y-101752856D02*
X109650272Y-101823321D01*
X109650272Y-101823321D02*
X109596757Y-101955776D01*
X109596757Y-101955776D02*
X109605232Y-102061918D01*
X109605232Y-102061918D02*
X109631545Y-102123908D01*
X109631545Y-102123908D02*
X109702010Y-102203736D01*
X109702010Y-102203736D02*
X110055223Y-102346443D01*
X109412565Y-101521846D02*
X108838594Y-101289947D01*
X108838594Y-101289947D02*
X109004948Y-101768028D01*
X109004948Y-101768028D02*
X108872493Y-101714513D01*
X108872493Y-101714513D02*
X108766351Y-101722988D01*
X108766351Y-101722988D02*
X108704361Y-101749301D01*
X108704361Y-101749301D02*
X108624533Y-101819766D01*
X108624533Y-101819766D02*
X108535341Y-102040524D01*
X108535341Y-102040524D02*
X108543816Y-102146666D01*
X108543816Y-102146666D02*
X108570129Y-102208656D01*
X108570129Y-102208656D02*
X108640594Y-102288484D01*
X108640594Y-102288484D02*
X108905503Y-102395515D01*
X108905503Y-102395515D02*
X109011645Y-102387040D01*
X109011645Y-102387040D02*
X109073635Y-102360727D01*
X178415257Y-117626346D02*
X178415257Y-118435869D01*
X178415257Y-118435869D02*
X178367638Y-118531107D01*
X178367638Y-118531107D02*
X178320019Y-118578727D01*
X178320019Y-118578727D02*
X178224781Y-118626346D01*
X178224781Y-118626346D02*
X178034305Y-118626346D01*
X178034305Y-118626346D02*
X177939067Y-118578727D01*
X177939067Y-118578727D02*
X177891448Y-118531107D01*
X177891448Y-118531107D02*
X177843829Y-118435869D01*
X177843829Y-118435869D02*
X177843829Y-117626346D01*
X177462876Y-117626346D02*
X176843829Y-117626346D01*
X176843829Y-117626346D02*
X177177162Y-118007298D01*
X177177162Y-118007298D02*
X177034305Y-118007298D01*
X177034305Y-118007298D02*
X176939067Y-118054917D01*
X176939067Y-118054917D02*
X176891448Y-118102536D01*
X176891448Y-118102536D02*
X176843829Y-118197774D01*
X176843829Y-118197774D02*
X176843829Y-118435869D01*
X176843829Y-118435869D02*
X176891448Y-118531107D01*
X176891448Y-118531107D02*
X176939067Y-118578727D01*
X176939067Y-118578727D02*
X177034305Y-118626346D01*
X177034305Y-118626346D02*
X177320019Y-118626346D01*
X177320019Y-118626346D02*
X177415257Y-118578727D01*
X177415257Y-118578727D02*
X177462876Y-118531107D01*
X72311263Y-78001039D02*
X72553185Y-77030743D01*
X72437984Y-77492789D02*
X71883529Y-77354548D01*
X71756808Y-77862798D02*
X71998730Y-76892502D01*
X71629094Y-76800341D02*
X71028434Y-76650580D01*
X71028434Y-76650580D02*
X71259705Y-77100857D01*
X71259705Y-77100857D02*
X71121092Y-77066297D01*
X71121092Y-77066297D02*
X71017163Y-77089461D01*
X71017163Y-77089461D02*
X70959438Y-77124146D01*
X70959438Y-77124146D02*
X70890193Y-77205035D01*
X70890193Y-77205035D02*
X70832593Y-77436058D01*
X70832593Y-77436058D02*
X70855757Y-77539987D01*
X70855757Y-77539987D02*
X70890442Y-77597712D01*
X70890442Y-77597712D02*
X70971331Y-77666956D01*
X70971331Y-77666956D02*
X71248558Y-77736077D01*
X71248558Y-77736077D02*
X71352487Y-77712912D01*
X71352487Y-77712912D02*
X71410212Y-77678228D01*
X178570013Y-116126341D02*
X178903346Y-115650150D01*
X179141441Y-116126341D02*
X179141441Y-115126341D01*
X179141441Y-115126341D02*
X178760489Y-115126341D01*
X178760489Y-115126341D02*
X178665251Y-115173960D01*
X178665251Y-115173960D02*
X178617632Y-115221579D01*
X178617632Y-115221579D02*
X178570013Y-115316817D01*
X178570013Y-115316817D02*
X178570013Y-115459674D01*
X178570013Y-115459674D02*
X178617632Y-115554912D01*
X178617632Y-115554912D02*
X178665251Y-115602531D01*
X178665251Y-115602531D02*
X178760489Y-115650150D01*
X178760489Y-115650150D02*
X179141441Y-115650150D01*
X178236679Y-115126341D02*
X177570013Y-115126341D01*
X177570013Y-115126341D02*
X177998584Y-116126341D01*
X187373466Y-99947228D02*
X187504143Y-99380843D01*
X187903285Y-99733167D02*
X187528678Y-98805983D01*
X187528678Y-98805983D02*
X187175465Y-98948690D01*
X187175465Y-98948690D02*
X187105001Y-99028519D01*
X187105001Y-99028519D02*
X187078687Y-99090509D01*
X187078687Y-99090509D02*
X187070213Y-99196650D01*
X187070213Y-99196650D02*
X187123728Y-99329105D01*
X187123728Y-99329105D02*
X187203556Y-99399570D01*
X187203556Y-99399570D02*
X187265546Y-99425883D01*
X187265546Y-99425883D02*
X187371688Y-99434358D01*
X187371688Y-99434358D02*
X187724901Y-99291651D01*
X186490433Y-100303996D02*
X187020253Y-100089935D01*
X186755343Y-100196966D02*
X186380736Y-99269782D01*
X186380736Y-99269782D02*
X186522555Y-99366560D01*
X186522555Y-99366560D02*
X186646535Y-99419186D01*
X186646535Y-99419186D02*
X186752676Y-99427661D01*
X185276946Y-99715742D02*
X185718462Y-99537358D01*
X185718462Y-99537358D02*
X185940998Y-99961036D01*
X185940998Y-99961036D02*
X185879008Y-99934722D01*
X185879008Y-99934722D02*
X185772866Y-99926248D01*
X185772866Y-99926248D02*
X185552108Y-100015440D01*
X185552108Y-100015440D02*
X185481643Y-100095268D01*
X185481643Y-100095268D02*
X185455330Y-100157258D01*
X185455330Y-100157258D02*
X185446855Y-100263400D01*
X185446855Y-100263400D02*
X185536047Y-100484158D01*
X185536047Y-100484158D02*
X185615876Y-100554623D01*
X185615876Y-100554623D02*
X185677866Y-100580936D01*
X185677866Y-100580936D02*
X185784007Y-100589411D01*
X185784007Y-100589411D02*
X186004766Y-100500219D01*
X186004766Y-100500219D02*
X186075230Y-100420390D01*
X186075230Y-100420390D02*
X186101544Y-100358400D01*
X73731492Y-89916732D02*
X74201697Y-89575007D01*
X74271788Y-90102771D02*
X74597356Y-89157252D01*
X74597356Y-89157252D02*
X74237159Y-89033226D01*
X74237159Y-89033226D02*
X74131606Y-89047244D01*
X74131606Y-89047244D02*
X74071078Y-89076766D01*
X74071078Y-89076766D02*
X73995047Y-89151312D01*
X73995047Y-89151312D02*
X73948537Y-89286386D01*
X73948537Y-89286386D02*
X73962556Y-89391938D01*
X73962556Y-89391938D02*
X73992077Y-89452466D01*
X73992077Y-89452466D02*
X74066623Y-89528498D01*
X74066623Y-89528498D02*
X74426821Y-89652524D01*
X72830998Y-89606667D02*
X73371294Y-89792706D01*
X73101146Y-89699686D02*
X73426714Y-88754168D01*
X73426714Y-88754168D02*
X73470254Y-88920248D01*
X73470254Y-88920248D02*
X73529297Y-89041304D01*
X73529297Y-89041304D02*
X73603843Y-89117335D01*
X264907354Y-78666613D02*
X265115585Y-78123927D01*
X265461808Y-78528372D02*
X265219887Y-77558076D01*
X265219887Y-77558076D02*
X264850250Y-77650237D01*
X264850250Y-77650237D02*
X264769361Y-77719482D01*
X264769361Y-77719482D02*
X264734677Y-77777207D01*
X264734677Y-77777207D02*
X264711512Y-77881136D01*
X264711512Y-77881136D02*
X264746073Y-78019749D01*
X264746073Y-78019749D02*
X264815317Y-78100638D01*
X264815317Y-78100638D02*
X264873042Y-78135323D01*
X264873042Y-78135323D02*
X264976971Y-78158487D01*
X264976971Y-78158487D02*
X265346608Y-78066327D01*
X263983263Y-78897015D02*
X264537717Y-78758774D01*
X264260490Y-78827895D02*
X264018568Y-77857599D01*
X264018568Y-77857599D02*
X264145537Y-77973172D01*
X264145537Y-77973172D02*
X264260987Y-78042541D01*
X264260987Y-78042541D02*
X264364916Y-78065706D01*
X263059171Y-79127417D02*
X263613626Y-78989176D01*
X263336399Y-79058296D02*
X263094477Y-78088001D01*
X263094477Y-78088001D02*
X263221446Y-78203574D01*
X263221446Y-78203574D02*
X263336896Y-78272943D01*
X263336896Y-78272943D02*
X263440825Y-78296107D01*
X246568126Y-88082155D02*
X246728266Y-87523385D01*
X247108422Y-87896116D02*
X246782854Y-86950597D01*
X246782854Y-86950597D02*
X246422656Y-87074623D01*
X246422656Y-87074623D02*
X246348110Y-87150654D01*
X246348110Y-87150654D02*
X246318589Y-87211182D01*
X246318589Y-87211182D02*
X246304570Y-87316735D01*
X246304570Y-87316735D02*
X246351080Y-87451809D01*
X246351080Y-87451809D02*
X246427111Y-87526355D01*
X246427111Y-87526355D02*
X246487639Y-87555876D01*
X246487639Y-87555876D02*
X246593192Y-87569895D01*
X246593192Y-87569895D02*
X246953389Y-87445869D01*
X245667632Y-88392219D02*
X246207928Y-88206180D01*
X245937780Y-88299200D02*
X245612212Y-87353681D01*
X245612212Y-87353681D02*
X245748771Y-87457749D01*
X245748771Y-87457749D02*
X245869827Y-87516792D01*
X245869827Y-87516792D02*
X245975379Y-87530810D01*
X244756742Y-87648243D02*
X244666693Y-87679250D01*
X244666693Y-87679250D02*
X244592147Y-87755281D01*
X244592147Y-87755281D02*
X244562625Y-87815809D01*
X244562625Y-87815809D02*
X244548607Y-87921361D01*
X244548607Y-87921361D02*
X244565596Y-88116963D01*
X244565596Y-88116963D02*
X244643112Y-88342087D01*
X244643112Y-88342087D02*
X244750149Y-88506682D01*
X244750149Y-88506682D02*
X244826181Y-88581228D01*
X244826181Y-88581228D02*
X244886709Y-88610750D01*
X244886709Y-88610750D02*
X244992261Y-88624768D01*
X244992261Y-88624768D02*
X245082311Y-88593762D01*
X245082311Y-88593762D02*
X245156857Y-88517730D01*
X245156857Y-88517730D02*
X245186378Y-88457203D01*
X245186378Y-88457203D02*
X245200396Y-88351650D01*
X245200396Y-88351650D02*
X245183408Y-88156048D01*
X245183408Y-88156048D02*
X245105892Y-87930924D01*
X245105892Y-87930924D02*
X244998854Y-87766329D01*
X244998854Y-87766329D02*
X244922823Y-87691783D01*
X244922823Y-87691783D02*
X244862295Y-87662261D01*
X244862295Y-87662261D02*
X244756742Y-87648243D01*
X123963704Y-134593307D02*
X124451150Y-134276659D01*
X124493524Y-134807368D02*
X124868130Y-133880184D01*
X124868130Y-133880184D02*
X124514918Y-133737476D01*
X124514918Y-133737476D02*
X124408776Y-133745951D01*
X124408776Y-133745951D02*
X124346786Y-133772264D01*
X124346786Y-133772264D02*
X124266957Y-133842729D01*
X124266957Y-133842729D02*
X124213442Y-133975184D01*
X124213442Y-133975184D02*
X124221917Y-134081326D01*
X124221917Y-134081326D02*
X124248230Y-134143316D01*
X124248230Y-134143316D02*
X124318695Y-134223144D01*
X124318695Y-134223144D02*
X124671908Y-134365851D01*
X123499430Y-133327193D02*
X123940947Y-133505577D01*
X123940947Y-133505577D02*
X123806714Y-133964932D01*
X123806714Y-133964932D02*
X123780401Y-133902942D01*
X123780401Y-133902942D02*
X123709936Y-133823113D01*
X123709936Y-133823113D02*
X123489178Y-133733921D01*
X123489178Y-133733921D02*
X123383036Y-133742396D01*
X123383036Y-133742396D02*
X123321046Y-133768709D01*
X123321046Y-133768709D02*
X123241218Y-133839174D01*
X123241218Y-133839174D02*
X123152026Y-134059932D01*
X123152026Y-134059932D02*
X123160501Y-134166074D01*
X123160501Y-134166074D02*
X123186814Y-134228064D01*
X123186814Y-134228064D02*
X123257279Y-134307892D01*
X123257279Y-134307892D02*
X123478037Y-134397084D01*
X123478037Y-134397084D02*
X123584178Y-134388609D01*
X123584178Y-134388609D02*
X123646168Y-134362296D01*
X246546018Y-77632393D02*
X246304096Y-76662097D01*
X246419297Y-77124143D02*
X245864842Y-77262384D01*
X245991563Y-77770634D02*
X245749642Y-76800338D01*
X244952396Y-77342652D02*
X245113677Y-77989516D01*
X245091258Y-76915415D02*
X245495082Y-77550883D01*
X245495082Y-77550883D02*
X244894423Y-77700644D01*
X175820002Y-122211097D02*
X175867621Y-122258717D01*
X175867621Y-122258717D02*
X176010478Y-122306336D01*
X176010478Y-122306336D02*
X176105716Y-122306336D01*
X176105716Y-122306336D02*
X176248573Y-122258717D01*
X176248573Y-122258717D02*
X176343811Y-122163478D01*
X176343811Y-122163478D02*
X176391430Y-122068240D01*
X176391430Y-122068240D02*
X176439049Y-121877764D01*
X176439049Y-121877764D02*
X176439049Y-121734907D01*
X176439049Y-121734907D02*
X176391430Y-121544431D01*
X176391430Y-121544431D02*
X176343811Y-121449193D01*
X176343811Y-121449193D02*
X176248573Y-121353955D01*
X176248573Y-121353955D02*
X176105716Y-121306336D01*
X176105716Y-121306336D02*
X176010478Y-121306336D01*
X176010478Y-121306336D02*
X175867621Y-121353955D01*
X175867621Y-121353955D02*
X175820002Y-121401574D01*
X175486668Y-121306336D02*
X174867621Y-121306336D01*
X174867621Y-121306336D02*
X175200954Y-121687288D01*
X175200954Y-121687288D02*
X175058097Y-121687288D01*
X175058097Y-121687288D02*
X174962859Y-121734907D01*
X174962859Y-121734907D02*
X174915240Y-121782526D01*
X174915240Y-121782526D02*
X174867621Y-121877764D01*
X174867621Y-121877764D02*
X174867621Y-122115859D01*
X174867621Y-122115859D02*
X174915240Y-122211097D01*
X174915240Y-122211097D02*
X174962859Y-122258717D01*
X174962859Y-122258717D02*
X175058097Y-122306336D01*
X175058097Y-122306336D02*
X175343811Y-122306336D01*
X175343811Y-122306336D02*
X175439049Y-122258717D01*
X175439049Y-122258717D02*
X175486668Y-122211097D01*
X121038391Y-130813359D02*
X121412998Y-129886175D01*
X121234614Y-130327691D02*
X120704794Y-130113630D01*
X120508572Y-130599298D02*
X120883178Y-129672114D01*
X120000146Y-129315346D02*
X120441662Y-129493730D01*
X120441662Y-129493730D02*
X120307430Y-129953085D01*
X120307430Y-129953085D02*
X120281117Y-129891095D01*
X120281117Y-129891095D02*
X120210652Y-129811266D01*
X120210652Y-129811266D02*
X119989894Y-129722074D01*
X119989894Y-129722074D02*
X119883752Y-129730549D01*
X119883752Y-129730549D02*
X119821762Y-129756862D01*
X119821762Y-129756862D02*
X119741934Y-129827327D01*
X119741934Y-129827327D02*
X119652742Y-130048085D01*
X119652742Y-130048085D02*
X119661216Y-130154227D01*
X119661216Y-130154227D02*
X119687530Y-130216217D01*
X119687530Y-130216217D02*
X119757994Y-130296045D01*
X119757994Y-130296045D02*
X119978752Y-130385237D01*
X119978752Y-130385237D02*
X120084894Y-130376762D01*
X120084894Y-130376762D02*
X120146884Y-130350449D01*
X199727593Y-127791476D02*
X199789583Y-127817789D01*
X199789583Y-127817789D02*
X199939876Y-127808425D01*
X199939876Y-127808425D02*
X200028180Y-127772749D01*
X200028180Y-127772749D02*
X200142796Y-127675082D01*
X200142796Y-127675082D02*
X200195422Y-127551102D01*
X200195422Y-127551102D02*
X200203897Y-127444960D01*
X200203897Y-127444960D02*
X200176695Y-127250515D01*
X200176695Y-127250515D02*
X200123180Y-127118060D01*
X200123180Y-127118060D02*
X200007675Y-126959292D01*
X200007675Y-126959292D02*
X199927846Y-126888828D01*
X199927846Y-126888828D02*
X199803866Y-126836201D01*
X199803866Y-126836201D02*
X199653573Y-126845565D01*
X199653573Y-126845565D02*
X199565270Y-126881242D01*
X199565270Y-126881242D02*
X199450653Y-126978908D01*
X199450653Y-126978908D02*
X199424340Y-127040898D01*
X198718803Y-127582748D02*
X198968541Y-128200870D01*
X198796854Y-127140343D02*
X199285188Y-127713425D01*
X199285188Y-127713425D02*
X198711217Y-127945324D01*
D11*
%TO.C,U2*%
X118119580Y-128048812D02*
X120159377Y-128872936D01*
X120168667Y-122977133D02*
X122208483Y-123801268D01*
X122199193Y-129697071D02*
X120159377Y-128872936D01*
X124248280Y-124625392D02*
X122208483Y-123801268D01*
X125831163Y-126019887D02*
X125615095Y-125673743D01*
X126010968Y-125574826D01*
X125831163Y-126019887D01*
G36*
X125831163Y-126019887D02*
G01*
X125615095Y-125673743D01*
X126010968Y-125574826D01*
X125831163Y-126019887D01*
G37*
%TO.C,R13*%
X224828513Y-88034093D02*
X224356162Y-88224931D01*
X225219970Y-89002981D02*
X224747619Y-89193819D01*
%TO.C,C1*%
X118934950Y-122024987D02*
X118663720Y-121915406D01*
X119317046Y-121079250D02*
X119045816Y-120969669D01*
%TO.C,R8*%
X171986124Y-119899016D02*
X172495558Y-119899016D01*
X171986124Y-120943998D02*
X172495558Y-120943998D01*
%TO.C,R12*%
X203193126Y-127271444D02*
X202720777Y-127462277D01*
X203584581Y-128240337D02*
X203112232Y-128431170D01*
%TO.C,R14*%
X209151897Y-99652677D02*
X208679546Y-99843515D01*
X209543354Y-100621565D02*
X209071003Y-100812403D01*
%TO.C,J1*%
X142062289Y-110238424D02*
X142062290Y-113588411D01*
X143112285Y-110238414D02*
X142062289Y-110238424D01*
X143132288Y-114758417D02*
X143482285Y-114758423D01*
X143482285Y-114758423D02*
X143882280Y-114258420D01*
X143882280Y-114258420D02*
X144662287Y-114258420D01*
X144622284Y-109194869D02*
X144872288Y-109548424D01*
X144662287Y-114258420D02*
X145062292Y-114758417D01*
X144872288Y-109548424D02*
X145122291Y-109194870D01*
X145062292Y-114758417D02*
X145412288Y-114758421D01*
X145122291Y-109194870D02*
X144622284Y-109194869D01*
X145432286Y-110238417D02*
X146482286Y-110238418D01*
X145432289Y-110048418D02*
X145432286Y-110238417D01*
X146482286Y-110238418D02*
X146482291Y-113588421D01*
%TO.C,R16*%
X170380854Y-118176255D02*
X170380851Y-117666813D01*
X171425843Y-118176259D02*
X171425840Y-117666817D01*
%TO.C,R4*%
X130983513Y-99905948D02*
X130511157Y-99715103D01*
X131374973Y-98937055D02*
X130902617Y-98746210D01*
%TO.C,R6*%
X55490942Y-77458268D02*
X54996612Y-77335031D01*
X55743754Y-76444305D02*
X55249424Y-76321068D01*
%TO.C,C2*%
X172412125Y-114911517D02*
X172119584Y-114911510D01*
X172412128Y-115931536D02*
X172119587Y-115931529D01*
%TO.C,U4*%
X193130433Y-124625383D02*
X195170243Y-123801246D01*
X195179540Y-129697082D02*
X197219341Y-128872952D01*
X197210044Y-122977116D02*
X195170243Y-123801246D01*
X199259151Y-128048815D02*
X197219341Y-128872952D01*
X193468095Y-129892422D02*
X193252039Y-130238581D01*
X193072200Y-129793524D01*
X193468095Y-129892422D01*
G36*
X193468095Y-129892422D02*
G01*
X193252039Y-130238581D01*
X193072200Y-129793524D01*
X193468095Y-129892422D01*
G37*
%TO.C,R9*%
X175398625Y-113399032D02*
X175908059Y-113399032D01*
X175398625Y-114444014D02*
X175908059Y-114444014D01*
%TO.C,SW31*%
X155071903Y-106603857D02*
X155071890Y-107393849D01*
X157121893Y-104303855D02*
X157121893Y-105593869D01*
X157321896Y-104093863D02*
X157121893Y-104303855D01*
X158221892Y-104093868D02*
X157321896Y-104093863D01*
X158221892Y-104093868D02*
X158421891Y-104303867D01*
X158421895Y-105593867D02*
X158421891Y-104303867D01*
X158621905Y-108443857D02*
X156921896Y-108443848D01*
X160121891Y-108443857D02*
X159921892Y-108443867D01*
X161371893Y-105593864D02*
X155671881Y-105593858D01*
X161971895Y-107393854D02*
X161971893Y-106603875D01*
%TO.C,R2*%
X94316814Y-89658567D02*
X93844462Y-89467717D01*
X94708274Y-88689663D02*
X94235922Y-88498813D01*
%TO.C,R3*%
X109938999Y-101343767D02*
X109466639Y-101152914D01*
X110330465Y-100374862D02*
X109858105Y-100184009D01*
%TO.C,U3*%
X173715847Y-119531530D02*
X174515868Y-119531523D01*
X173715849Y-116411526D02*
X174515842Y-116411535D01*
X175315861Y-119531532D02*
X174515868Y-119531523D01*
X175315863Y-116411528D02*
X174515842Y-116411535D01*
X176055849Y-116131524D02*
X175815858Y-116461515D01*
X175575862Y-116131517D01*
X176055849Y-116131524D01*
G36*
X176055849Y-116131524D02*
G01*
X175815858Y-116461515D01*
X175575862Y-116131517D01*
X176055849Y-116131524D01*
G37*
%TO.C,R7*%
X175398626Y-114899042D02*
X175908060Y-114899042D01*
X175398626Y-115944024D02*
X175908060Y-115944024D01*
%TO.C,R15*%
X185573284Y-97896156D02*
X186045634Y-97705310D01*
X185964740Y-98865046D02*
X186437090Y-98674200D01*
%TO.C,R1*%
X74258267Y-88657310D02*
X73776595Y-88491440D01*
X74598477Y-87669244D02*
X74116805Y-87503374D01*
%TO.C,R11*%
X263948358Y-76424717D02*
X263454050Y-76547955D01*
X264201160Y-77438671D02*
X263706852Y-77561909D01*
%TO.C,R10*%
X245417385Y-85932350D02*
X244935701Y-86098210D01*
X245757609Y-86920414D02*
X245275925Y-87086274D01*
%TO.C,R5*%
X124555687Y-133363178D02*
X124083331Y-133172329D01*
X124947137Y-132394273D02*
X124474781Y-132203424D01*
%TO.C,C3*%
X175799611Y-120931532D02*
X175507041Y-120931535D01*
X175799613Y-119911511D02*
X175507043Y-119911514D01*
%TO.C,C4*%
X199867544Y-128643639D02*
X199596322Y-128753209D01*
X200249634Y-129589371D02*
X199978412Y-129698941D01*
%TD*%
M02*
