M48
; DRILL file {KiCad 8.0.9-1.fc41} date 2025-03-09T10:33:43+1100
; FORMAT={-:-/ absolute / inch / decimal}
; #@! TF.CreationDate,2025-03-09T10:33:43+11:00
; #@! TF.GenerationSoftware,Kicad,Pcbnew,8.0.9-1.fc41
; #@! TF.FileFunction,NonPlated,1,4,NPTH
FMAT,2
INCH
; #@! TA.AperFunction,NonPlated,NPTH,ComponentDrill
T1C0.0354
; #@! TA.AperFunction,NonPlated,NPTH,ComponentDrill
T2C0.0866
; #@! TA.AperFunction,NonPlated,NPTH,ComponentDrill
T3C0.1673
%
G90
G05
T1
X6.182Y-4.2124
X6.3001Y-4.2124
T2
X2.402Y-3.1038
X2.9649Y-2.5834
X3.112Y-3.5399
X3.3555Y-2.8326
X3.9178Y-3.6207
X3.9322Y-2.4274
X4.198Y-2.9271
X4.2611Y-4.7679
X4.5413Y-4.0743
X4.8215Y-3.3807
X5.0137Y-5.401
X5.0947Y-4.7013
X5.375Y-4.0077
X7.1203Y-4.0077
X7.4005Y-4.7013
X7.4815Y-5.401
X7.6737Y-3.3807
X7.9539Y-4.0743
X8.2342Y-4.7679
X8.2972Y-2.9271
X8.563Y-2.4274
X8.5774Y-3.6207
X9.1397Y-2.8326
X9.3833Y-3.5399
X9.5303Y-2.5834
X10.0932Y-3.1038
T3
X2.784Y-3.1991
X3.8553Y-2.6508
X4.6852Y-5.2683
X7.81Y-5.2683
X8.6399Y-2.6508
X9.7112Y-3.1991
M30
