%TF.GenerationSoftware,KiCad,Pcbnew,8.0.9-1.fc41*%
%TF.CreationDate,2025-03-09T10:33:42+11:00*%
%TF.ProjectId,katori,6b61746f-7269-42e6-9b69-6361645f7063,0.2*%
%TF.SameCoordinates,Original*%
%TF.FileFunction,Drillmap*%
%TF.FilePolarity,Positive*%
%FSLAX45Y45*%
G04 Gerber Fmt 4.5, Leading zero omitted, Abs format (unit mm)*
G04 Created by KiCad (PCBNEW 8.0.9-1.fc41) date 2025-03-09 10:33:42*
%MOMM*%
%LPD*%
G01*
G04 APERTURE LIST*
%ADD10C,0.150000*%
%ADD11C,0.200000*%
%ADD12C,0.120000*%
%ADD13C,0.100000*%
%ADD14C,0.101600*%
%ADD15C,0.130000*%
G04 APERTURE END LIST*
D10*
X14957104Y-10533839D02*
G75*
G02*
X14678952Y-10121455I-14J299989D01*
G01*
X21385325Y-12060474D02*
G75*
G02*
X21468208Y-11865200I139106J56184D01*
G01*
X4780236Y-9337361D02*
X5617285Y-5980138D01*
X16780769Y-10533838D02*
X14957104Y-10533839D01*
X9723685Y-14017390D02*
X11207175Y-14616759D01*
X15162745Y-8924016D02*
X14678948Y-10121454D01*
X25303873Y-9904280D02*
X26848379Y-9519193D01*
X25276035Y-10324328D02*
G75*
G02*
X25183041Y-10514986I-141826J-48832D01*
G01*
X20447808Y-14812029D02*
G75*
G02*
X20530692Y-14616755I139093J56189D01*
G01*
X8291432Y-10723889D02*
G75*
G02*
X8489452Y-10633644I141828J-48831D01*
G01*
X17058924Y-10121456D02*
G75*
G02*
X16780769Y-10533835I-278134J-112394D01*
G01*
X11207177Y-14616761D02*
G75*
G02*
X11290060Y-14812028I-56177J-139069D01*
G01*
X21093903Y-5399621D02*
G75*
G02*
X21289175Y-5482508I56197J-139069D01*
G01*
X19630167Y-6341533D02*
G75*
G02*
X19547279Y-6536799I-139057J-56197D01*
G01*
X6554830Y-10514990D02*
X8029839Y-11022876D01*
X12107704Y-6341534D02*
X12173263Y-6179277D01*
X25198332Y-10098663D02*
G75*
G02*
X25303873Y-9904280I141818J48843D01*
G01*
X21561066Y-5776004D02*
X23340325Y-5163354D01*
X6539539Y-10098663D02*
X6461838Y-10324329D01*
D11*
X18368936Y-12769467D02*
X18368936Y-13869466D01*
X13368935Y-13869466D01*
X13368935Y-12769466D01*
X18368936Y-12769467D01*
D10*
X18063785Y-7136174D02*
X19547280Y-6536802D01*
X18305026Y-14586267D02*
G75*
G02*
X18383200Y-14667156I-60896J-137073D01*
G01*
X25276035Y-10324328D02*
X25198332Y-10098665D01*
X16575129Y-8924019D02*
X17058924Y-10121456D01*
X7866395Y-6245195D02*
G75*
G02*
X7688281Y-6341901I-141825J48835D01*
G01*
X10269663Y-11865204D02*
G75*
G02*
X10352545Y-12060470I-56173J-139066D01*
G01*
X18984071Y-15753939D02*
G75*
G02*
X18788802Y-15671053I-56191J139079D01*
G01*
X12949070Y-15671053D02*
X13354670Y-14667156D01*
X21373155Y-5690366D02*
X21289174Y-5482509D01*
X8397546Y-5163355D02*
X10176805Y-5776004D01*
X9640797Y-13822121D02*
X10352547Y-12060471D01*
X13596363Y-8129381D02*
X15079857Y-8728749D01*
X18984071Y-15753939D02*
X20430478Y-15169555D01*
X17980901Y-7331441D02*
G75*
G02*
X18063786Y-7136174I139099J56181D01*
G01*
X11307395Y-15169556D02*
X12753801Y-15753940D01*
X8220502Y-10929885D02*
X8291432Y-10723889D01*
X21730683Y-11246854D02*
X23248423Y-10633647D01*
X12190590Y-6536802D02*
G75*
G02*
X12107701Y-6341533I56220J139092D01*
G01*
X8220502Y-10929883D02*
G75*
G02*
X8029842Y-11022872I-141863J48913D01*
G01*
X19564613Y-6179276D02*
X19630167Y-6341533D01*
X5799118Y-5870884D02*
X7688281Y-6341903D01*
X24049593Y-6341906D02*
G75*
G02*
X23871475Y-6245195I-36283J145556D01*
G01*
X4889492Y-9519194D02*
G75*
G02*
X4780234Y-9337360I36318J145564D01*
G01*
X6554830Y-10514990D02*
G75*
G02*
X6461836Y-10324329I48900J141860D01*
G01*
X8489452Y-10633646D02*
X10007187Y-11246853D01*
X12190590Y-6536801D02*
X13674085Y-7136173D01*
X12090373Y-5984009D02*
G75*
G02*
X12173260Y-6179275I-56153J-139061D01*
G01*
X10364718Y-5690367D02*
G75*
G02*
X10176806Y-5776001I-139078J56197D01*
G01*
X13513479Y-7934110D02*
X13756971Y-7331441D01*
X6434002Y-9904283D02*
G75*
G02*
X6539536Y-10098661I-36302J-145547D01*
G01*
X23708033Y-11022876D02*
G75*
G02*
X23517373Y-10929884I-48843J141806D01*
G01*
X16658013Y-8728751D02*
X18141507Y-8129379D01*
X13674085Y-7136174D02*
G75*
G02*
X13756968Y-7331440I-56195J-139076D01*
G01*
X21561066Y-5776004D02*
G75*
G02*
X21373156Y-5690365I-48816J141864D01*
G01*
X10007187Y-11246853D02*
G75*
G02*
X10090073Y-11442118I-56217J-139087D01*
G01*
X10090076Y-11442120D02*
X10024519Y-11604379D01*
X25938753Y-5870885D02*
G75*
G02*
X26120589Y-5980139I36297J-145535D01*
G01*
X26957637Y-9337363D02*
G75*
G02*
X26848379Y-9519194I-145528J-36297D01*
G01*
X21385325Y-12060471D02*
X22097076Y-13822121D01*
X4889492Y-9519194D02*
X6434002Y-9904283D01*
X9723685Y-14017390D02*
G75*
G02*
X9640794Y-13822120I56166J139070D01*
G01*
X8206881Y-5256346D02*
G75*
G02*
X8397547Y-5163352I141839J-48854D01*
G01*
X21647797Y-11442121D02*
G75*
G02*
X21730681Y-11246850I139153J56161D01*
G01*
X17980902Y-7331442D02*
X18224394Y-7934112D01*
X11307395Y-15169556D02*
G75*
G02*
X11224506Y-14974285I56275J139116D01*
G01*
X5617285Y-5980138D02*
G75*
G02*
X5799119Y-5870880I145525J-36252D01*
G01*
X13354670Y-14667156D02*
G75*
G02*
X13432846Y-14586268I139110J-56224D01*
G01*
X15079858Y-8728749D02*
G75*
G02*
X15162743Y-8924018I-56179J-139071D01*
G01*
X10107405Y-11799647D02*
G75*
G02*
X10024516Y-11604378I56185J139078D01*
G01*
X18383201Y-14667156D02*
X18788802Y-15671053D01*
X12949071Y-15671054D02*
G75*
G02*
X12753802Y-15753937I-139081J56204D01*
G01*
X21713354Y-11604377D02*
G75*
G02*
X21630468Y-11799648I-139054J-56203D01*
G01*
X20530693Y-14616759D02*
X22014189Y-14017389D01*
X20513365Y-14974285D02*
G75*
G02*
X20430477Y-15169552I-139065J-56195D01*
G01*
X23446440Y-10723890D02*
X23517369Y-10929885D01*
X21713354Y-11604377D02*
X21647797Y-11442121D01*
X7866395Y-6245195D02*
X8206881Y-5256346D01*
X10107407Y-11799648D02*
X10269663Y-11865203D01*
X11290063Y-14812029D02*
X11224508Y-14974285D01*
X23530988Y-5256349D02*
X23871477Y-6245195D01*
X23340325Y-5163354D02*
G75*
G02*
X23530987Y-5256349I48845J-141806D01*
G01*
X20513365Y-14974285D02*
X20447809Y-14812028D01*
X12090373Y-5984009D02*
X10643969Y-5399621D01*
X22097075Y-13822123D02*
G75*
G02*
X22014188Y-14017386I-139055J-56197D01*
G01*
X13596363Y-8129381D02*
G75*
G02*
X13513475Y-7934108I56217J139091D01*
G01*
X10448698Y-5482508D02*
G75*
G02*
X10643970Y-5399619I139072J-56172D01*
G01*
X26120587Y-5980139D02*
X26957636Y-9337363D01*
X21093903Y-5399621D02*
X19647497Y-5984008D01*
X16575128Y-8924018D02*
G75*
G02*
X16658012Y-8728750I139132J56168D01*
G01*
X10448698Y-5482508D02*
X10364718Y-5690366D01*
X19564613Y-6179275D02*
G75*
G02*
X19647496Y-5984005I139097J56185D01*
G01*
X24049593Y-6341906D02*
X25938753Y-5870885D01*
X13432845Y-14586267D02*
G75*
G02*
X18305026Y-14586267I2436090J-5483199D01*
G01*
X23248422Y-10633646D02*
G75*
G02*
X23446443Y-10723889I56208J-139044D01*
G01*
X23708033Y-11022876D02*
X25183042Y-10514989D01*
X18224394Y-7934112D02*
G75*
G02*
X18141506Y-8129377I-139054J-56198D01*
G01*
X21468209Y-11865203D02*
X21630468Y-11799648D01*
D12*
X15399012Y-11522982D02*
X15398937Y-11388639D01*
X15437038Y-11350537D02*
X15627614Y-11350262D01*
X15462099Y-11038757D02*
X15462099Y-11206397D01*
X15627613Y-11591563D02*
X15467594Y-11591563D01*
X15665712Y-11388363D02*
X15665713Y-11553462D01*
X15698319Y-10970177D02*
X15530679Y-10970177D01*
X15698319Y-11274977D02*
X15530679Y-11274977D01*
X15766899Y-11038757D02*
X15766899Y-11206397D01*
X16010699Y-12505750D02*
X16010699Y-12340649D01*
X16048802Y-12302549D02*
X16208819Y-12302599D01*
X16208818Y-12543899D02*
X16048799Y-12543850D01*
X16277399Y-12371179D02*
X16277399Y-12475320D01*
X15398937Y-11388639D02*
G75*
G02*
X15437038Y-11350537I38099J3D01*
G01*
X15399012Y-11522982D02*
G75*
G02*
X15467594Y-11591563I24777J-43805D01*
G01*
X15462099Y-11038757D02*
G75*
G02*
X15530679Y-10970177I65947J2634D01*
G01*
X15530679Y-11274977D02*
G75*
G02*
X15462099Y-11206397I-3106J65474D01*
G01*
X15627614Y-11350262D02*
G75*
G02*
X15665712Y-11388363I1J-38098D01*
G01*
X15665713Y-11553462D02*
G75*
G02*
X15627613Y-11591563I-38100J-1D01*
G01*
X15766899Y-11038757D02*
G75*
G02*
X15698319Y-10970177I-24775J43805D01*
G01*
X15766899Y-11206397D02*
G75*
G02*
X15698319Y-11274977I-65611J-2969D01*
G01*
X16010699Y-12340649D02*
G75*
G02*
X16048802Y-12302549I38105J-5D01*
G01*
X16048799Y-12543850D02*
G75*
G02*
X16010699Y-12505750I-2J38098D01*
G01*
X16208818Y-12543899D02*
G75*
G02*
X16277399Y-12475319I43805J24775D01*
G01*
X16208819Y-12302599D02*
G75*
G02*
X16277400Y-12371179I3955J-64626D01*
G01*
D11*
D13*
X5744726Y-8762696D02*
X5774726Y-8792696D01*
X5774726Y-8762696D02*
X5744726Y-8792696D01*
X5967894Y-8818338D02*
X5997894Y-8848338D01*
X5997894Y-8818338D02*
X5967894Y-8848338D01*
X6204377Y-6919136D02*
X6234377Y-6949136D01*
X6234377Y-6919136D02*
X6204377Y-6949136D01*
X6427545Y-6974778D02*
X6457545Y-7004778D01*
X6457545Y-6974778D02*
X6427545Y-7004778D01*
X7471380Y-9837161D02*
X7501380Y-9867161D01*
X7501380Y-9837161D02*
X7471380Y-9867161D01*
X7688849Y-9912042D02*
X7718849Y-9942042D01*
X7718849Y-9912042D02*
X7688849Y-9942042D01*
X8089956Y-8040676D02*
X8119956Y-8070676D01*
X8119956Y-8040676D02*
X8089956Y-8070676D01*
X8307426Y-8115556D02*
X8337426Y-8145556D01*
X8337426Y-8115556D02*
X8307426Y-8145556D01*
X8708537Y-6244190D02*
X8738537Y-6274190D01*
X8738537Y-6244190D02*
X8708537Y-6274190D01*
X8926006Y-6319070D02*
X8956006Y-6349070D01*
X8956006Y-6319070D02*
X8926006Y-6349070D01*
X9473655Y-10019314D02*
X9503655Y-10049314D01*
X9503655Y-10019314D02*
X9473655Y-10049314D01*
X9686907Y-10105474D02*
X9716907Y-10135474D01*
X9716907Y-10105474D02*
X9686907Y-10135474D01*
X10185408Y-8257663D02*
X10215408Y-8287663D01*
X10215408Y-8257663D02*
X10185408Y-8287663D01*
X10398660Y-8343823D02*
X10428660Y-8373823D01*
X10428660Y-8343823D02*
X10398660Y-8373823D01*
X10737190Y-13538928D02*
X10767190Y-13568928D01*
X10767190Y-13538928D02*
X10737190Y-13568928D01*
X10823350Y-13325676D02*
X10853350Y-13355676D01*
X10853350Y-13325676D02*
X10823350Y-13355676D01*
X10897160Y-6496016D02*
X10927160Y-6526016D01*
X10927160Y-6496016D02*
X10897160Y-6526016D01*
X11057367Y-11171479D02*
X11087367Y-11201479D01*
X11087367Y-11171479D02*
X11057367Y-11201479D01*
X11110412Y-6582176D02*
X11140412Y-6612176D01*
X11140412Y-6582176D02*
X11110412Y-6612176D01*
X11270619Y-11257639D02*
X11300619Y-11287639D01*
X11300619Y-11257639D02*
X11270619Y-11287639D01*
X11769121Y-9409828D02*
X11799121Y-9439828D01*
X11799121Y-9409828D02*
X11769121Y-9439828D01*
X11982373Y-9495988D02*
X12012373Y-9525988D01*
X12012373Y-9495988D02*
X11982373Y-9525988D01*
X12320901Y-14691092D02*
X12350901Y-14721092D01*
X12350901Y-14691092D02*
X12320901Y-14721092D01*
X12407061Y-14477840D02*
X12437061Y-14507840D01*
X12437061Y-14477840D02*
X12407061Y-14507840D01*
X12480869Y-7648179D02*
X12510869Y-7678179D01*
X12510869Y-7648179D02*
X12480869Y-7678179D01*
X12694122Y-7734339D02*
X12724122Y-7764339D01*
X12724122Y-7734339D02*
X12694122Y-7764339D01*
X13174892Y-11002405D02*
X13204892Y-11032405D01*
X13204892Y-11002405D02*
X13174892Y-11032405D01*
X13388144Y-11088565D02*
X13418144Y-11118565D01*
X13418144Y-11088565D02*
X13388144Y-11118565D01*
X13886645Y-9240756D02*
X13916645Y-9270756D01*
X13916645Y-9240756D02*
X13886645Y-9270756D01*
X14099897Y-9326916D02*
X14129897Y-9356916D01*
X14129897Y-9326916D02*
X14099897Y-9356916D01*
X17607976Y-9326917D02*
X17637976Y-9356917D01*
X17637976Y-9326917D02*
X17607976Y-9356917D01*
X17821229Y-9240758D02*
X17851229Y-9270758D01*
X17851229Y-9240758D02*
X17821229Y-9270758D01*
X18319727Y-11088567D02*
X18349727Y-11118567D01*
X18349727Y-11088567D02*
X18319727Y-11118567D01*
X18532980Y-11002407D02*
X18562980Y-11032407D01*
X18562980Y-11002407D02*
X18532980Y-11032407D01*
X19013747Y-7734340D02*
X19043747Y-7764340D01*
X19043747Y-7734340D02*
X19013747Y-7764340D01*
X19226999Y-7648180D02*
X19256999Y-7678180D01*
X19256999Y-7648180D02*
X19226999Y-7678180D01*
X19300810Y-14477839D02*
X19330810Y-14507839D01*
X19330810Y-14477839D02*
X19300810Y-14507839D01*
X19386970Y-14691091D02*
X19416970Y-14721091D01*
X19416970Y-14691091D02*
X19386970Y-14721091D01*
X19725501Y-9495991D02*
X19755501Y-9525991D01*
X19755501Y-9495991D02*
X19725501Y-9525991D01*
X19938753Y-9409831D02*
X19968753Y-9439831D01*
X19968753Y-9409831D02*
X19938753Y-9439831D01*
X20437251Y-11257639D02*
X20467251Y-11287639D01*
X20467251Y-11257639D02*
X20437251Y-11287639D01*
X20597461Y-6582175D02*
X20627461Y-6612175D01*
X20627461Y-6582175D02*
X20597461Y-6612175D01*
X20650503Y-11171479D02*
X20680503Y-11201479D01*
X20680503Y-11171479D02*
X20650503Y-11201479D01*
X20810713Y-6496015D02*
X20840713Y-6526015D01*
X20840713Y-6496015D02*
X20810713Y-6526015D01*
X20884522Y-13325675D02*
X20914522Y-13355675D01*
X20914522Y-13325675D02*
X20884522Y-13355675D01*
X20970682Y-13538927D02*
X21000682Y-13568927D01*
X21000682Y-13538927D02*
X20970682Y-13568927D01*
X21309212Y-8343824D02*
X21339212Y-8373824D01*
X21339212Y-8343824D02*
X21309212Y-8373824D01*
X21522464Y-8257664D02*
X21552464Y-8287664D01*
X21552464Y-8257664D02*
X21522464Y-8287664D01*
X22020965Y-10105475D02*
X22050965Y-10135475D01*
X22050965Y-10105475D02*
X22020965Y-10135475D01*
X22234217Y-10019315D02*
X22264217Y-10049315D01*
X22264217Y-10019315D02*
X22234217Y-10049315D01*
X22781866Y-6319072D02*
X22811866Y-6349072D01*
X22811866Y-6319072D02*
X22781866Y-6349072D01*
X22999335Y-6244192D02*
X23029335Y-6274192D01*
X23029335Y-6244192D02*
X22999335Y-6274192D01*
X23400444Y-8115557D02*
X23430444Y-8145557D01*
X23430444Y-8115557D02*
X23400444Y-8145557D01*
X23617913Y-8040676D02*
X23647913Y-8070676D01*
X23647913Y-8040676D02*
X23617913Y-8070676D01*
X24019025Y-9912043D02*
X24049025Y-9942043D01*
X24049025Y-9912043D02*
X24019025Y-9942043D01*
X24236494Y-9837163D02*
X24266494Y-9867163D01*
X24266494Y-9837163D02*
X24236494Y-9867163D01*
X25280326Y-6974776D02*
X25310326Y-7004776D01*
X25310326Y-6974776D02*
X25280326Y-7004776D01*
X25503494Y-6919134D02*
X25533494Y-6949134D01*
X25533494Y-6919134D02*
X25503494Y-6949134D01*
X25739979Y-8818341D02*
X25769979Y-8848341D01*
X25769979Y-8818341D02*
X25739979Y-8848341D01*
X25963148Y-8762698D02*
X25993148Y-8792698D01*
X25993148Y-8762698D02*
X25963148Y-8792698D01*
X5189462Y-8477433D02*
G75*
G02*
X5149462Y-8477433I-20000J0D01*
G01*
X5149462Y-8477433D02*
G75*
G02*
X5189462Y-8477433I20000J0D01*
G01*
X5209849Y-8591182D02*
G75*
G02*
X5169849Y-8591182I-20000J0D01*
G01*
X5169849Y-8591182D02*
G75*
G02*
X5209849Y-8591182I20000J0D01*
G01*
X5590469Y-9456278D02*
G75*
G02*
X5550469Y-9456278I-20000J0D01*
G01*
X5550469Y-9456278D02*
G75*
G02*
X5590469Y-9456278I20000J0D01*
G01*
X5605597Y-6818378D02*
G75*
G02*
X5565597Y-6818378I-20000J0D01*
G01*
X5565597Y-6818378D02*
G75*
G02*
X5605597Y-6818378I20000J0D01*
G01*
X5685821Y-9530082D02*
G75*
G02*
X5645821Y-9530082I-20000J0D01*
G01*
X5645821Y-9530082D02*
G75*
G02*
X5685821Y-9530082I20000J0D01*
G01*
X5717054Y-6741634D02*
G75*
G02*
X5677054Y-6741634I-20000J0D01*
G01*
X5677054Y-6741634D02*
G75*
G02*
X5717054Y-6741634I20000J0D01*
G01*
X6511419Y-9740360D02*
G75*
G02*
X6471419Y-9740360I-20000J0D01*
G01*
X6471419Y-9740360D02*
G75*
G02*
X6511419Y-9740360I20000J0D01*
G01*
X6529399Y-9004471D02*
G75*
G02*
X6489399Y-9004471I-20000J0D01*
G01*
X6489399Y-9004471D02*
G75*
G02*
X6529399Y-9004471I20000J0D01*
G01*
X6556375Y-9597696D02*
G75*
G02*
X6516375Y-9597696I-20000J0D01*
G01*
X6516375Y-9597696D02*
G75*
G02*
X6556375Y-9597696I20000J0D01*
G01*
X6599109Y-8919086D02*
G75*
G02*
X6559109Y-8919086I-20000J0D01*
G01*
X6559109Y-8919086D02*
G75*
G02*
X6599109Y-8919086I20000J0D01*
G01*
X6643867Y-9681288D02*
G75*
G02*
X6603867Y-9681288I-20000J0D01*
G01*
X6603867Y-9681288D02*
G75*
G02*
X6643867Y-9681288I20000J0D01*
G01*
X6821559Y-7447706D02*
G75*
G02*
X6781559Y-7447706I-20000J0D01*
G01*
X6781559Y-7447706D02*
G75*
G02*
X6821559Y-7447706I20000J0D01*
G01*
X6869617Y-10565132D02*
G75*
G02*
X6829617Y-10565132I-20000J0D01*
G01*
X6829617Y-10565132D02*
G75*
G02*
X6869617Y-10565132I20000J0D01*
G01*
X6871061Y-9906766D02*
G75*
G02*
X6831061Y-9906766I-20000J0D01*
G01*
X6831061Y-9906766D02*
G75*
G02*
X6871061Y-9906766I20000J0D01*
G01*
X6883252Y-10038951D02*
G75*
G02*
X6843252Y-10038951I-20000J0D01*
G01*
X6843252Y-10038951D02*
G75*
G02*
X6883252Y-10038951I20000J0D01*
G01*
X6952911Y-7534956D02*
G75*
G02*
X6912911Y-7534956I-20000J0D01*
G01*
X6912911Y-7534956D02*
G75*
G02*
X6952911Y-7534956I20000J0D01*
G01*
X6959021Y-9660351D02*
G75*
G02*
X6919021Y-9660351I-20000J0D01*
G01*
X6919021Y-9660351D02*
G75*
G02*
X6959021Y-9660351I20000J0D01*
G01*
X6981531Y-10461979D02*
G75*
G02*
X6941531Y-10461979I-20000J0D01*
G01*
X6941531Y-10461979D02*
G75*
G02*
X6981531Y-10461979I20000J0D01*
G01*
X6996983Y-7184347D02*
G75*
G02*
X6956983Y-7184347I-20000J0D01*
G01*
X6956983Y-7184347D02*
G75*
G02*
X6996983Y-7184347I20000J0D01*
G01*
X7008639Y-7017341D02*
G75*
G02*
X6968639Y-7017341I-20000J0D01*
G01*
X6968639Y-7017341D02*
G75*
G02*
X7008639Y-7017341I20000J0D01*
G01*
X7573573Y-7874114D02*
G75*
G02*
X7533573Y-7874114I-20000J0D01*
G01*
X7533573Y-7874114D02*
G75*
G02*
X7573573Y-7874114I20000J0D01*
G01*
X7692142Y-7176057D02*
G75*
G02*
X7652142Y-7176057I-20000J0D01*
G01*
X7652142Y-7176057D02*
G75*
G02*
X7692142Y-7176057I20000J0D01*
G01*
X7694227Y-7025091D02*
G75*
G02*
X7654227Y-7025091I-20000J0D01*
G01*
X7654227Y-7025091D02*
G75*
G02*
X7694227Y-7025091I20000J0D01*
G01*
X7698468Y-10690365D02*
G75*
G02*
X7658468Y-10690365I-20000J0D01*
G01*
X7658468Y-10690365D02*
G75*
G02*
X7698468Y-10690365I20000J0D01*
G01*
X7748712Y-6656384D02*
G75*
G02*
X7708712Y-6656384I-20000J0D01*
G01*
X7708712Y-6656384D02*
G75*
G02*
X7748712Y-6656384I20000J0D01*
G01*
X7797166Y-7212219D02*
G75*
G02*
X7757166Y-7212219I-20000J0D01*
G01*
X7757166Y-7212219D02*
G75*
G02*
X7797166Y-7212219I20000J0D01*
G01*
X7807466Y-10887284D02*
G75*
G02*
X7767466Y-10887284I-20000J0D01*
G01*
X7767466Y-10887284D02*
G75*
G02*
X7807466Y-10887284I20000J0D01*
G01*
X7844372Y-7075120D02*
G75*
G02*
X7804372Y-7075120I-20000J0D01*
G01*
X7804372Y-7075120D02*
G75*
G02*
X7844372Y-7075120I20000J0D01*
G01*
X7852203Y-10677406D02*
G75*
G02*
X7812203Y-10677406I-20000J0D01*
G01*
X7812203Y-10677406D02*
G75*
G02*
X7852203Y-10677406I20000J0D01*
G01*
X7878325Y-6730616D02*
G75*
G02*
X7838325Y-6730616I-20000J0D01*
G01*
X7838325Y-6730616D02*
G75*
G02*
X7878325Y-6730616I20000J0D01*
G01*
X7934265Y-7259428D02*
G75*
G02*
X7894265Y-7259428I-20000J0D01*
G01*
X7894265Y-7259428D02*
G75*
G02*
X7934265Y-7259428I20000J0D01*
G01*
X7963182Y-6730071D02*
G75*
G02*
X7923182Y-6730071I-20000J0D01*
G01*
X7923182Y-6730071D02*
G75*
G02*
X7963182Y-6730071I20000J0D01*
G01*
X7981472Y-7122328D02*
G75*
G02*
X7941472Y-7122328I-20000J0D01*
G01*
X7941472Y-7122328D02*
G75*
G02*
X7981472Y-7122328I20000J0D01*
G01*
X8066834Y-10591140D02*
G75*
G02*
X8026834Y-10591140I-20000J0D01*
G01*
X8026834Y-10591140D02*
G75*
G02*
X8066834Y-10591140I20000J0D01*
G01*
X8114147Y-6291638D02*
G75*
G02*
X8074147Y-6291638I-20000J0D01*
G01*
X8074147Y-6291638D02*
G75*
G02*
X8114147Y-6291638I20000J0D01*
G01*
X8195081Y-5494601D02*
G75*
G02*
X8155081Y-5494601I-20000J0D01*
G01*
X8155081Y-5494601D02*
G75*
G02*
X8195081Y-5494601I20000J0D01*
G01*
X8232618Y-6046689D02*
G75*
G02*
X8192618Y-6046689I-20000J0D01*
G01*
X8192618Y-6046689D02*
G75*
G02*
X8232618Y-6046689I20000J0D01*
G01*
X8260650Y-5623947D02*
G75*
G02*
X8220650Y-5623947I-20000J0D01*
G01*
X8220650Y-5623947D02*
G75*
G02*
X8260650Y-5623947I20000J0D01*
G01*
X8268010Y-10475906D02*
G75*
G02*
X8228010Y-10475906I-20000J0D01*
G01*
X8228010Y-10475906D02*
G75*
G02*
X8268010Y-10475906I20000J0D01*
G01*
X8309256Y-10300639D02*
G75*
G02*
X8269256Y-10300639I-20000J0D01*
G01*
X8269256Y-10300639D02*
G75*
G02*
X8309256Y-10300639I20000J0D01*
G01*
X8387886Y-10478291D02*
G75*
G02*
X8347886Y-10478291I-20000J0D01*
G01*
X8347886Y-10478291D02*
G75*
G02*
X8387886Y-10478291I20000J0D01*
G01*
X8544110Y-5332172D02*
G75*
G02*
X8504110Y-5332172I-20000J0D01*
G01*
X8504110Y-5332172D02*
G75*
G02*
X8544110Y-5332172I20000J0D01*
G01*
X8550272Y-9049136D02*
G75*
G02*
X8510272Y-9049136I-20000J0D01*
G01*
X8510272Y-9049136D02*
G75*
G02*
X8550272Y-9049136I20000J0D01*
G01*
X8550398Y-5483254D02*
G75*
G02*
X8510398Y-5483254I-20000J0D01*
G01*
X8510398Y-5483254D02*
G75*
G02*
X8550398Y-5483254I20000J0D01*
G01*
X8664682Y-9149527D02*
G75*
G02*
X8624682Y-9149527I-20000J0D01*
G01*
X8624682Y-9149527D02*
G75*
G02*
X8664682Y-9149527I20000J0D01*
G01*
X8825191Y-10014688D02*
G75*
G02*
X8785191Y-10014688I-20000J0D01*
G01*
X8785191Y-10014688D02*
G75*
G02*
X8825191Y-10014688I20000J0D01*
G01*
X8830414Y-10151227D02*
G75*
G02*
X8790414Y-10151227I-20000J0D01*
G01*
X8790414Y-10151227D02*
G75*
G02*
X8830414Y-10151227I20000J0D01*
G01*
X8891084Y-8033571D02*
G75*
G02*
X8851084Y-8033571I-20000J0D01*
G01*
X8851084Y-8033571D02*
G75*
G02*
X8891084Y-8033571I20000J0D01*
G01*
X8893328Y-9054343D02*
G75*
G02*
X8853328Y-9054343I-20000J0D01*
G01*
X8853328Y-9054343D02*
G75*
G02*
X8893328Y-9054343I20000J0D01*
G01*
X8895678Y-8902260D02*
G75*
G02*
X8855678Y-8902260I-20000J0D01*
G01*
X8855678Y-8902260D02*
G75*
G02*
X8895678Y-8902260I20000J0D01*
G01*
X8922603Y-8298527D02*
G75*
G02*
X8882603Y-8298527I-20000J0D01*
G01*
X8882603Y-8298527D02*
G75*
G02*
X8922603Y-8298527I20000J0D01*
G01*
X8965124Y-9826342D02*
G75*
G02*
X8925124Y-9826342I-20000J0D01*
G01*
X8925124Y-9826342D02*
G75*
G02*
X8965124Y-9826342I20000J0D01*
G01*
X9007693Y-10572322D02*
G75*
G02*
X8967693Y-10572322I-20000J0D01*
G01*
X8967693Y-10572322D02*
G75*
G02*
X9007693Y-10572322I20000J0D01*
G01*
X9018400Y-7637823D02*
G75*
G02*
X8978400Y-7637823I-20000J0D01*
G01*
X8978400Y-7637823D02*
G75*
G02*
X9018400Y-7637823I20000J0D01*
G01*
X9100730Y-7508535D02*
G75*
G02*
X9060730Y-7508535I-20000J0D01*
G01*
X9060730Y-7508535D02*
G75*
G02*
X9100730Y-7508535I20000J0D01*
G01*
X9164160Y-9163764D02*
G75*
G02*
X9124160Y-9163764I-20000J0D01*
G01*
X9124160Y-9163764D02*
G75*
G02*
X9164160Y-9163764I20000J0D01*
G01*
X9185830Y-7684980D02*
G75*
G02*
X9145830Y-7684980I-20000J0D01*
G01*
X9145830Y-7684980D02*
G75*
G02*
X9185830Y-7684980I20000J0D01*
G01*
X9213886Y-7242853D02*
G75*
G02*
X9173886Y-7242853I-20000J0D01*
G01*
X9173886Y-7242853D02*
G75*
G02*
X9213886Y-7242853I20000J0D01*
G01*
X9218475Y-9029323D02*
G75*
G02*
X9178475Y-9029323I-20000J0D01*
G01*
X9178475Y-9029323D02*
G75*
G02*
X9218475Y-9029323I20000J0D01*
G01*
X9298601Y-9218082D02*
G75*
G02*
X9258601Y-9218082I-20000J0D01*
G01*
X9258601Y-9218082D02*
G75*
G02*
X9298601Y-9218082I20000J0D01*
G01*
X9321425Y-7349372D02*
G75*
G02*
X9281425Y-7349372I-20000J0D01*
G01*
X9281425Y-7349372D02*
G75*
G02*
X9321425Y-7349372I20000J0D01*
G01*
X9352919Y-9083641D02*
G75*
G02*
X9312919Y-9083641I-20000J0D01*
G01*
X9312919Y-9083641D02*
G75*
G02*
X9352919Y-9083641I20000J0D01*
G01*
X9463621Y-6555604D02*
G75*
G02*
X9423621Y-6555604I-20000J0D01*
G01*
X9423621Y-6555604D02*
G75*
G02*
X9463621Y-6555604I20000J0D01*
G01*
X9551638Y-7098049D02*
G75*
G02*
X9511638Y-7098049I-20000J0D01*
G01*
X9511638Y-7098049D02*
G75*
G02*
X9551638Y-7098049I20000J0D01*
G01*
X9554645Y-7249597D02*
G75*
G02*
X9514645Y-7249597I-20000J0D01*
G01*
X9514645Y-7249597D02*
G75*
G02*
X9554645Y-7249597I20000J0D01*
G01*
X9585892Y-6334641D02*
G75*
G02*
X9545892Y-6334641I-20000J0D01*
G01*
X9545892Y-6334641D02*
G75*
G02*
X9585892Y-6334641I20000J0D01*
G01*
X9727831Y-6372849D02*
G75*
G02*
X9687831Y-6372849I-20000J0D01*
G01*
X9687831Y-6372849D02*
G75*
G02*
X9727831Y-6372849I20000J0D01*
G01*
X9739774Y-5892788D02*
G75*
G02*
X9699774Y-5892788I-20000J0D01*
G01*
X9699774Y-5892788D02*
G75*
G02*
X9739774Y-5892788I20000J0D01*
G01*
X9858784Y-5780411D02*
G75*
G02*
X9818784Y-5780411I-20000J0D01*
G01*
X9818784Y-5780411D02*
G75*
G02*
X9858784Y-5780411I20000J0D01*
G01*
X9876875Y-5939995D02*
G75*
G02*
X9836875Y-5939995I-20000J0D01*
G01*
X9836875Y-5939995D02*
G75*
G02*
X9876875Y-5939995I20000J0D01*
G01*
X9884266Y-7381436D02*
G75*
G02*
X9844266Y-7381436I-20000J0D01*
G01*
X9844266Y-7381436D02*
G75*
G02*
X9884266Y-7381436I20000J0D01*
G01*
X9938584Y-7246995D02*
G75*
G02*
X9898584Y-7246995I-20000J0D01*
G01*
X9898584Y-7246995D02*
G75*
G02*
X9938584Y-7246995I20000J0D01*
G01*
X10018709Y-7435754D02*
G75*
G02*
X9978709Y-7435754I-20000J0D01*
G01*
X9978709Y-7435754D02*
G75*
G02*
X10018709Y-7435754I20000J0D01*
G01*
X10073026Y-7301313D02*
G75*
G02*
X10033026Y-7301313I-20000J0D01*
G01*
X10033026Y-7301313D02*
G75*
G02*
X10073026Y-7301313I20000J0D01*
G01*
X10162496Y-11439269D02*
G75*
G02*
X10122496Y-11439269I-20000J0D01*
G01*
X10122496Y-11439269D02*
G75*
G02*
X10162496Y-11439269I20000J0D01*
G01*
X10218972Y-5898959D02*
G75*
G02*
X10178972Y-5898959I-20000J0D01*
G01*
X10178972Y-5898959D02*
G75*
G02*
X10218972Y-5898959I20000J0D01*
G01*
X10225938Y-9594396D02*
G75*
G02*
X10185938Y-9594396I-20000J0D01*
G01*
X10185938Y-9594396D02*
G75*
G02*
X10225938Y-9594396I20000J0D01*
G01*
X10229362Y-6054535D02*
G75*
G02*
X10189362Y-6054535I-20000J0D01*
G01*
X10189362Y-6054535D02*
G75*
G02*
X10229362Y-6054535I20000J0D01*
G01*
X10330400Y-11001783D02*
G75*
G02*
X10290400Y-11001783I-20000J0D01*
G01*
X10290400Y-11001783D02*
G75*
G02*
X10330400Y-11001783I20000J0D01*
G01*
X10341875Y-9498493D02*
G75*
G02*
X10301875Y-9498493I-20000J0D01*
G01*
X10301875Y-9498493D02*
G75*
G02*
X10341875Y-9498493I20000J0D01*
G01*
X10431679Y-11125224D02*
G75*
G02*
X10391679Y-11125224I-20000J0D01*
G01*
X10391679Y-11125224D02*
G75*
G02*
X10431679Y-11125224I20000J0D01*
G01*
X10450272Y-10122892D02*
G75*
G02*
X10410272Y-10122892I-20000J0D01*
G01*
X10410272Y-10122892D02*
G75*
G02*
X10450272Y-10122892I20000J0D01*
G01*
X10483289Y-12195006D02*
G75*
G02*
X10443289Y-12195006I-20000J0D01*
G01*
X10443289Y-12195006D02*
G75*
G02*
X10483289Y-12195006I20000J0D01*
G01*
X10510627Y-11888312D02*
G75*
G02*
X10470627Y-11888312I-20000J0D01*
G01*
X10470627Y-11888312D02*
G75*
G02*
X10510627Y-11888312I20000J0D01*
G01*
X10540685Y-10242036D02*
G75*
G02*
X10500685Y-10242036I-20000J0D01*
G01*
X10500685Y-10242036D02*
G75*
G02*
X10540685Y-10242036I20000J0D01*
G01*
X10545902Y-10962551D02*
G75*
G02*
X10505902Y-10962551I-20000J0D01*
G01*
X10505902Y-10962551D02*
G75*
G02*
X10545902Y-10962551I20000J0D01*
G01*
X10587765Y-12300146D02*
G75*
G02*
X10547765Y-12300146I-20000J0D01*
G01*
X10547765Y-12300146D02*
G75*
G02*
X10587765Y-12300146I20000J0D01*
G01*
X10601160Y-10105660D02*
G75*
G02*
X10561160Y-10105660I-20000J0D01*
G01*
X10561160Y-10105660D02*
G75*
G02*
X10601160Y-10105660I20000J0D01*
G01*
X10622177Y-12151110D02*
G75*
G02*
X10582177Y-12151110I-20000J0D01*
G01*
X10582177Y-12151110D02*
G75*
G02*
X10622177Y-12151110I20000J0D01*
G01*
X10755268Y-10324312D02*
G75*
G02*
X10715268Y-10324312I-20000J0D01*
G01*
X10715268Y-10324312D02*
G75*
G02*
X10755268Y-10324312I20000J0D01*
G01*
X10809587Y-10189868D02*
G75*
G02*
X10769587Y-10189868I-20000J0D01*
G01*
X10769587Y-10189868D02*
G75*
G02*
X10809587Y-10189868I20000J0D01*
G01*
X10889711Y-10378630D02*
G75*
G02*
X10849711Y-10378630I-20000J0D01*
G01*
X10849711Y-10378630D02*
G75*
G02*
X10889711Y-10378630I20000J0D01*
G01*
X10893165Y-5580536D02*
G75*
G02*
X10853165Y-5580536I-20000J0D01*
G01*
X10853165Y-5580536D02*
G75*
G02*
X10893165Y-5580536I20000J0D01*
G01*
X10904806Y-5733760D02*
G75*
G02*
X10864806Y-5733760I-20000J0D01*
G01*
X10864806Y-5733760D02*
G75*
G02*
X10904806Y-5733760I20000J0D01*
G01*
X10944028Y-10244188D02*
G75*
G02*
X10904028Y-10244188I-20000J0D01*
G01*
X10904028Y-10244188D02*
G75*
G02*
X10944028Y-10244188I20000J0D01*
G01*
X10946916Y-8629096D02*
G75*
G02*
X10906916Y-8629096I-20000J0D01*
G01*
X10906916Y-8629096D02*
G75*
G02*
X10946916Y-8629096I20000J0D01*
G01*
X10970536Y-8462425D02*
G75*
G02*
X10930536Y-8462425I-20000J0D01*
G01*
X10930536Y-8462425D02*
G75*
G02*
X10970536Y-8462425I20000J0D01*
G01*
X11029709Y-7850459D02*
G75*
G02*
X10989709Y-7850459I-20000J0D01*
G01*
X10989709Y-7850459D02*
G75*
G02*
X11029709Y-7850459I20000J0D01*
G01*
X11114564Y-12512988D02*
G75*
G02*
X11074564Y-12512988I-20000J0D01*
G01*
X11074564Y-12512988D02*
G75*
G02*
X11114564Y-12512988I20000J0D01*
G01*
X11145869Y-7753571D02*
G75*
G02*
X11105869Y-7753571I-20000J0D01*
G01*
X11105869Y-7753571D02*
G75*
G02*
X11145869Y-7753571I20000J0D01*
G01*
X11239534Y-12407091D02*
G75*
G02*
X11199534Y-12407091I-20000J0D01*
G01*
X11199534Y-12407091D02*
G75*
G02*
X11239534Y-12407091I20000J0D01*
G01*
X11240781Y-8347712D02*
G75*
G02*
X11200781Y-8347712I-20000J0D01*
G01*
X11200781Y-8347712D02*
G75*
G02*
X11240781Y-8347712I20000J0D01*
G01*
X11248385Y-9197157D02*
G75*
G02*
X11208385Y-9197157I-20000J0D01*
G01*
X11208385Y-9197157D02*
G75*
G02*
X11248385Y-9197157I20000J0D01*
G01*
X11249006Y-12567305D02*
G75*
G02*
X11209006Y-12567305I-20000J0D01*
G01*
X11209006Y-12567305D02*
G75*
G02*
X11249006Y-12567305I20000J0D01*
G01*
X11257662Y-14367694D02*
G75*
G02*
X11217662Y-14367694I-20000J0D01*
G01*
X11217662Y-14367694D02*
G75*
G02*
X11257662Y-14367694I20000J0D01*
G01*
X11332197Y-8466431D02*
G75*
G02*
X11292197Y-8466431I-20000J0D01*
G01*
X11292197Y-8466431D02*
G75*
G02*
X11332197Y-8466431I20000J0D01*
G01*
X11356795Y-12610855D02*
G75*
G02*
X11316795Y-12610855I-20000J0D01*
G01*
X11316795Y-12610855D02*
G75*
G02*
X11356795Y-12610855I20000J0D01*
G01*
X11367798Y-14263297D02*
G75*
G02*
X11327798Y-14263297I-20000J0D01*
G01*
X11327798Y-14263297D02*
G75*
G02*
X11367798Y-14263297I20000J0D01*
G01*
X11392840Y-8333164D02*
G75*
G02*
X11352840Y-8333164I-20000J0D01*
G01*
X11352840Y-8333164D02*
G75*
G02*
X11392840Y-8333164I20000J0D01*
G01*
X11407009Y-12474754D02*
G75*
G02*
X11367009Y-12474754I-20000J0D01*
G01*
X11367009Y-12474754D02*
G75*
G02*
X11407009Y-12474754I20000J0D01*
G01*
X11454598Y-12835943D02*
G75*
G02*
X11414598Y-12835943I-20000J0D01*
G01*
X11414598Y-12835943D02*
G75*
G02*
X11454598Y-12835943I20000J0D01*
G01*
X11482004Y-8525575D02*
G75*
G02*
X11442004Y-8525575I-20000J0D01*
G01*
X11442004Y-8525575D02*
G75*
G02*
X11482004Y-8525575I20000J0D01*
G01*
X11498277Y-12567746D02*
G75*
G02*
X11458277Y-12567746I-20000J0D01*
G01*
X11458277Y-12567746D02*
G75*
G02*
X11498277Y-12567746I20000J0D01*
G01*
X11522085Y-14987287D02*
G75*
G02*
X11482085Y-14987287I-20000J0D01*
G01*
X11482085Y-14987287D02*
G75*
G02*
X11522085Y-14987287I20000J0D01*
G01*
X11523514Y-12300857D02*
G75*
G02*
X11483514Y-12300857I-20000J0D01*
G01*
X11483514Y-12300857D02*
G75*
G02*
X11523514Y-12300857I20000J0D01*
G01*
X11536321Y-8391133D02*
G75*
G02*
X11496321Y-8391133I-20000J0D01*
G01*
X11496321Y-8391133D02*
G75*
G02*
X11536321Y-8391133I20000J0D01*
G01*
X11554937Y-12927094D02*
G75*
G02*
X11514937Y-12927094I-20000J0D01*
G01*
X11514937Y-12927094D02*
G75*
G02*
X11554937Y-12927094I20000J0D01*
G01*
X11584198Y-12440027D02*
G75*
G02*
X11544198Y-12440027I-20000J0D01*
G01*
X11544198Y-12440027D02*
G75*
G02*
X11584198Y-12440027I20000J0D01*
G01*
X11590142Y-12784169D02*
G75*
G02*
X11550142Y-12784169I-20000J0D01*
G01*
X11550142Y-12784169D02*
G75*
G02*
X11590142Y-12784169I20000J0D01*
G01*
X11616446Y-8579893D02*
G75*
G02*
X11576446Y-8579893I-20000J0D01*
G01*
X11576446Y-8579893D02*
G75*
G02*
X11616446Y-8579893I20000J0D01*
G01*
X11637207Y-14890741D02*
G75*
G02*
X11597207Y-14890741I-20000J0D01*
G01*
X11597207Y-14890741D02*
G75*
G02*
X11637207Y-14890741I20000J0D01*
G01*
X11670765Y-8445452D02*
G75*
G02*
X11630765Y-8445452I-20000J0D01*
G01*
X11630765Y-8445452D02*
G75*
G02*
X11670765Y-8445452I20000J0D01*
G01*
X11680707Y-6047371D02*
G75*
G02*
X11640707Y-6047371I-20000J0D01*
G01*
X11640707Y-6047371D02*
G75*
G02*
X11680707Y-6047371I20000J0D01*
G01*
X11683766Y-12079404D02*
G75*
G02*
X11643766Y-12079404I-20000J0D01*
G01*
X11643766Y-12079404D02*
G75*
G02*
X11683766Y-12079404I20000J0D01*
G01*
X11710693Y-12830939D02*
G75*
G02*
X11670693Y-12830939I-20000J0D01*
G01*
X11670693Y-12830939D02*
G75*
G02*
X11710693Y-12830939I20000J0D01*
G01*
X11745080Y-12219797D02*
G75*
G02*
X11705080Y-12219797I-20000J0D01*
G01*
X11705080Y-12219797D02*
G75*
G02*
X11745080Y-12219797I20000J0D01*
G01*
X11766701Y-13012652D02*
G75*
G02*
X11726701Y-13012652I-20000J0D01*
G01*
X11726701Y-13012652D02*
G75*
G02*
X11766701Y-13012652I20000J0D01*
G01*
X11789483Y-5942692D02*
G75*
G02*
X11749483Y-5942692I-20000J0D01*
G01*
X11749483Y-5942692D02*
G75*
G02*
X11789483Y-5942692I20000J0D01*
G01*
X11825646Y-12880064D02*
G75*
G02*
X11785646Y-12880064I-20000J0D01*
G01*
X11785646Y-12880064D02*
G75*
G02*
X11825646Y-12880064I20000J0D01*
G01*
X11886442Y-11488220D02*
G75*
G02*
X11846442Y-11488220I-20000J0D01*
G01*
X11846442Y-11488220D02*
G75*
G02*
X11886442Y-11488220I20000J0D01*
G01*
X11900202Y-13005938D02*
G75*
G02*
X11860202Y-13005938I-20000J0D01*
G01*
X11860202Y-13005938D02*
G75*
G02*
X11900202Y-13005938I20000J0D01*
G01*
X11903928Y-6573248D02*
G75*
G02*
X11863928Y-6573248I-20000J0D01*
G01*
X11863928Y-6573248D02*
G75*
G02*
X11903928Y-6573248I20000J0D01*
G01*
X11968341Y-12058566D02*
G75*
G02*
X11928341Y-12058566I-20000J0D01*
G01*
X11928341Y-12058566D02*
G75*
G02*
X11968341Y-12058566I20000J0D01*
G01*
X11979487Y-10847134D02*
G75*
G02*
X11939487Y-10847134I-20000J0D01*
G01*
X11939487Y-10847134D02*
G75*
G02*
X11979487Y-10847134I20000J0D01*
G01*
X11988121Y-12787779D02*
G75*
G02*
X11948121Y-12787779I-20000J0D01*
G01*
X11948121Y-12787779D02*
G75*
G02*
X11988121Y-12787779I20000J0D01*
G01*
X11989536Y-11286935D02*
G75*
G02*
X11949536Y-11286935I-20000J0D01*
G01*
X11949536Y-11286935D02*
G75*
G02*
X11989536Y-11286935I20000J0D01*
G01*
X12007102Y-6686976D02*
G75*
G02*
X11967102Y-6686976I-20000J0D01*
G01*
X11967102Y-6686976D02*
G75*
G02*
X12007102Y-6686976I20000J0D01*
G01*
X12033637Y-12949300D02*
G75*
G02*
X11993637Y-12949300I-20000J0D01*
G01*
X11993637Y-12949300D02*
G75*
G02*
X12033637Y-12949300I20000J0D01*
G01*
X12050774Y-6547285D02*
G75*
G02*
X12010774Y-6547285I-20000J0D01*
G01*
X12010774Y-6547285D02*
G75*
G02*
X12050774Y-6547285I20000J0D01*
G01*
X12064116Y-10699554D02*
G75*
G02*
X12024116Y-10699554I-20000J0D01*
G01*
X12024116Y-10699554D02*
G75*
G02*
X12064116Y-10699554I20000J0D01*
G01*
X12081214Y-12488261D02*
G75*
G02*
X12041214Y-12488261I-20000J0D01*
G01*
X12041214Y-12488261D02*
G75*
G02*
X12081214Y-12488261I20000J0D01*
G01*
X12104866Y-13884010D02*
G75*
G02*
X12064866Y-13884010I-20000J0D01*
G01*
X12064866Y-13884010D02*
G75*
G02*
X12104866Y-13884010I20000J0D01*
G01*
X12106246Y-13745298D02*
G75*
G02*
X12066246Y-13745298I-20000J0D01*
G01*
X12066246Y-13745298D02*
G75*
G02*
X12106246Y-13745298I20000J0D01*
G01*
X12107853Y-11394236D02*
G75*
G02*
X12067853Y-11394236I-20000J0D01*
G01*
X12067853Y-11394236D02*
G75*
G02*
X12107853Y-11394236I20000J0D01*
G01*
X12109964Y-11242918D02*
G75*
G02*
X12069964Y-11242918I-20000J0D01*
G01*
X12069964Y-11242918D02*
G75*
G02*
X12109964Y-11242918I20000J0D01*
G01*
X12118104Y-12396956D02*
G75*
G02*
X12078104Y-12396956I-20000J0D01*
G01*
X12078104Y-12396956D02*
G75*
G02*
X12118104Y-12396956I20000J0D01*
G01*
X12134202Y-12813288D02*
G75*
G02*
X12094202Y-12813288I-20000J0D01*
G01*
X12094202Y-12813288D02*
G75*
G02*
X12134202Y-12813288I20000J0D01*
G01*
X12136230Y-15232522D02*
G75*
G02*
X12096230Y-15232522I-20000J0D01*
G01*
X12096230Y-15232522D02*
G75*
G02*
X12136230Y-15232522I20000J0D01*
G01*
X12146411Y-10880301D02*
G75*
G02*
X12106411Y-10880301I-20000J0D01*
G01*
X12106411Y-10880301D02*
G75*
G02*
X12146411Y-10880301I20000J0D01*
G01*
X12214833Y-13013049D02*
G75*
G02*
X12174833Y-13013049I-20000J0D01*
G01*
X12174833Y-13013049D02*
G75*
G02*
X12214833Y-13013049I20000J0D01*
G01*
X12237505Y-13825389D02*
G75*
G02*
X12197505Y-13825389I-20000J0D01*
G01*
X12197505Y-13825389D02*
G75*
G02*
X12237505Y-13825389I20000J0D01*
G01*
X12255112Y-13107938D02*
G75*
G02*
X12215112Y-13107938I-20000J0D01*
G01*
X12215112Y-13107938D02*
G75*
G02*
X12255112Y-13107938I20000J0D01*
G01*
X12281895Y-13045542D02*
G75*
G02*
X12241895Y-13045542I-20000J0D01*
G01*
X12241895Y-13045542D02*
G75*
G02*
X12281895Y-13045542I20000J0D01*
G01*
X12330751Y-11483564D02*
G75*
G02*
X12290751Y-11483564I-20000J0D01*
G01*
X12290751Y-11483564D02*
G75*
G02*
X12330751Y-11483564I20000J0D01*
G01*
X12385070Y-11349123D02*
G75*
G02*
X12345070Y-11349123I-20000J0D01*
G01*
X12345070Y-11349123D02*
G75*
G02*
X12385070Y-11349123I20000J0D01*
G01*
X12406376Y-13389522D02*
G75*
G02*
X12366376Y-13389522I-20000J0D01*
G01*
X12366376Y-13389522D02*
G75*
G02*
X12406376Y-13389522I20000J0D01*
G01*
X12432598Y-15363944D02*
G75*
G02*
X12392598Y-15363944I-20000J0D01*
G01*
X12392598Y-15363944D02*
G75*
G02*
X12432598Y-15363944I20000J0D01*
G01*
X12465192Y-11537882D02*
G75*
G02*
X12425192Y-11537882I-20000J0D01*
G01*
X12425192Y-11537882D02*
G75*
G02*
X12465192Y-11537882I20000J0D01*
G01*
X12477672Y-8927851D02*
G75*
G02*
X12437672Y-8927851I-20000J0D01*
G01*
X12437672Y-8927851D02*
G75*
G02*
X12477672Y-8927851I20000J0D01*
G01*
X12486249Y-13020252D02*
G75*
G02*
X12446249Y-13020252I-20000J0D01*
G01*
X12446249Y-13020252D02*
G75*
G02*
X12486249Y-13020252I20000J0D01*
G01*
X12519511Y-11403440D02*
G75*
G02*
X12479511Y-11403440I-20000J0D01*
G01*
X12479511Y-11403440D02*
G75*
G02*
X12519511Y-11403440I20000J0D01*
G01*
X12574462Y-9824643D02*
G75*
G02*
X12534462Y-9824643I-20000J0D01*
G01*
X12534462Y-9824643D02*
G75*
G02*
X12574462Y-9824643I20000J0D01*
G01*
X12596909Y-8837032D02*
G75*
G02*
X12556909Y-8837032I-20000J0D01*
G01*
X12556909Y-8837032D02*
G75*
G02*
X12596909Y-8837032I20000J0D01*
G01*
X12599419Y-9710688D02*
G75*
G02*
X12559419Y-9710688I-20000J0D01*
G01*
X12559419Y-9710688D02*
G75*
G02*
X12599419Y-9710688I20000J0D01*
G01*
X12681346Y-9507913D02*
G75*
G02*
X12641346Y-9507913I-20000J0D01*
G01*
X12641346Y-9507913D02*
G75*
G02*
X12681346Y-9507913I20000J0D01*
G01*
X12697681Y-10083088D02*
G75*
G02*
X12657681Y-10083088I-20000J0D01*
G01*
X12657681Y-10083088D02*
G75*
G02*
X12697681Y-10083088I20000J0D01*
G01*
X12722047Y-9801334D02*
G75*
G02*
X12682047Y-9801334I-20000J0D01*
G01*
X12682047Y-9801334D02*
G75*
G02*
X12722047Y-9801334I20000J0D01*
G01*
X12756185Y-12856350D02*
G75*
G02*
X12716185Y-12856350I-20000J0D01*
G01*
X12716185Y-12856350D02*
G75*
G02*
X12756185Y-12856350I20000J0D01*
G01*
X12781999Y-13069023D02*
G75*
G02*
X12741999Y-13069023I-20000J0D01*
G01*
X12741999Y-13069023D02*
G75*
G02*
X12781999Y-13069023I20000J0D01*
G01*
X12789983Y-9961383D02*
G75*
G02*
X12749983Y-9961383I-20000J0D01*
G01*
X12749983Y-9961383D02*
G75*
G02*
X12789983Y-9961383I20000J0D01*
G01*
X12797632Y-12716708D02*
G75*
G02*
X12757632Y-12716708I-20000J0D01*
G01*
X12757632Y-12716708D02*
G75*
G02*
X12797632Y-12716708I20000J0D01*
G01*
X12835089Y-12632353D02*
G75*
G02*
X12795089Y-12632353I-20000J0D01*
G01*
X12795089Y-12632353D02*
G75*
G02*
X12835089Y-12632353I20000J0D01*
G01*
X12853331Y-9451707D02*
G75*
G02*
X12813331Y-9451707I-20000J0D01*
G01*
X12813331Y-9451707D02*
G75*
G02*
X12853331Y-9451707I20000J0D01*
G01*
X12854250Y-10147748D02*
G75*
G02*
X12814250Y-10147748I-20000J0D01*
G01*
X12814250Y-10147748D02*
G75*
G02*
X12854250Y-10147748I20000J0D01*
G01*
X12854598Y-12850478D02*
G75*
G02*
X12814598Y-12850478I-20000J0D01*
G01*
X12814598Y-12850478D02*
G75*
G02*
X12854598Y-12850478I20000J0D01*
G01*
X12908567Y-10013306D02*
G75*
G02*
X12868567Y-10013306I-20000J0D01*
G01*
X12868567Y-10013306D02*
G75*
G02*
X12908567Y-10013306I20000J0D01*
G01*
X12935718Y-12658522D02*
G75*
G02*
X12895718Y-12658522I-20000J0D01*
G01*
X12895718Y-12658522D02*
G75*
G02*
X12935718Y-12658522I20000J0D01*
G01*
X12988691Y-10202067D02*
G75*
G02*
X12948691Y-10202067I-20000J0D01*
G01*
X12948691Y-10202067D02*
G75*
G02*
X12988691Y-10202067I20000J0D01*
G01*
X13043009Y-10067625D02*
G75*
G02*
X13003009Y-10067625I-20000J0D01*
G01*
X13003009Y-10067625D02*
G75*
G02*
X13043009Y-10067625I20000J0D01*
G01*
X13051068Y-14946179D02*
G75*
G02*
X13011068Y-14946179I-20000J0D01*
G01*
X13011068Y-14946179D02*
G75*
G02*
X13051068Y-14946179I20000J0D01*
G01*
X13099772Y-12746408D02*
G75*
G02*
X13059772Y-12746408I-20000J0D01*
G01*
X13059772Y-12746408D02*
G75*
G02*
X13099772Y-12746408I20000J0D01*
G01*
X13140264Y-15070491D02*
G75*
G02*
X13100264Y-15070491I-20000J0D01*
G01*
X13100264Y-15070491D02*
G75*
G02*
X13140264Y-15070491I20000J0D01*
G01*
X13173295Y-12557677D02*
G75*
G02*
X13133295Y-12557677I-20000J0D01*
G01*
X13133295Y-12557677D02*
G75*
G02*
X13173295Y-12557677I20000J0D01*
G01*
X13306016Y-9062643D02*
G75*
G02*
X13266016Y-9062643I-20000J0D01*
G01*
X13266016Y-9062643D02*
G75*
G02*
X13306016Y-9062643I20000J0D01*
G01*
X13326914Y-7883378D02*
G75*
G02*
X13286914Y-7883378I-20000J0D01*
G01*
X13286914Y-7883378D02*
G75*
G02*
X13326914Y-7883378I20000J0D01*
G01*
X13343834Y-8035035D02*
G75*
G02*
X13303834Y-8035035I-20000J0D01*
G01*
X13303834Y-8035035D02*
G75*
G02*
X13343834Y-8035035I20000J0D01*
G01*
X13353622Y-12638655D02*
G75*
G02*
X13313622Y-12638655I-20000J0D01*
G01*
X13313622Y-12638655D02*
G75*
G02*
X13353622Y-12638655I20000J0D01*
G01*
X13379927Y-11901225D02*
G75*
G02*
X13339927Y-11901225I-20000J0D01*
G01*
X13339927Y-11901225D02*
G75*
G02*
X13379927Y-11901225I20000J0D01*
G01*
X13384155Y-11747629D02*
G75*
G02*
X13344155Y-11747629I-20000J0D01*
G01*
X13344155Y-11747629D02*
G75*
G02*
X13384155Y-11747629I20000J0D01*
G01*
X13423891Y-12451306D02*
G75*
G02*
X13383891Y-12451306I-20000J0D01*
G01*
X13383891Y-12451306D02*
G75*
G02*
X13423891Y-12451306I20000J0D01*
G01*
X13426771Y-9009931D02*
G75*
G02*
X13386771Y-9009931I-20000J0D01*
G01*
X13386771Y-9009931D02*
G75*
G02*
X13426771Y-9009931I20000J0D01*
G01*
X13456290Y-8288800D02*
G75*
G02*
X13416290Y-8288800I-20000J0D01*
G01*
X13416290Y-8288800D02*
G75*
G02*
X13456290Y-8288800I20000J0D01*
G01*
X13462144Y-7942659D02*
G75*
G02*
X13422144Y-7942659I-20000J0D01*
G01*
X13422144Y-7942659D02*
G75*
G02*
X13462144Y-7942659I20000J0D01*
G01*
X13477945Y-13919003D02*
G75*
G02*
X13437945Y-13919003I-20000J0D01*
G01*
X13437945Y-13919003D02*
G75*
G02*
X13477945Y-13919003I20000J0D01*
G01*
X13491270Y-7332744D02*
G75*
G02*
X13451270Y-7332744I-20000J0D01*
G01*
X13451270Y-7332744D02*
G75*
G02*
X13491270Y-7332744I20000J0D01*
G01*
X13565775Y-8183991D02*
G75*
G02*
X13525775Y-8183991I-20000J0D01*
G01*
X13525775Y-8183991D02*
G75*
G02*
X13565775Y-8183991I20000J0D01*
G01*
X13573068Y-7168339D02*
G75*
G02*
X13533068Y-7168339I-20000J0D01*
G01*
X13533068Y-7168339D02*
G75*
G02*
X13573068Y-7168339I20000J0D01*
G01*
X13574668Y-14038015D02*
G75*
G02*
X13534668Y-14038015I-20000J0D01*
G01*
X13534668Y-14038015D02*
G75*
G02*
X13574668Y-14038015I20000J0D01*
G01*
X13594452Y-12536429D02*
G75*
G02*
X13554452Y-12536429I-20000J0D01*
G01*
X13554452Y-12536429D02*
G75*
G02*
X13594452Y-12536429I20000J0D01*
G01*
X13635430Y-12361511D02*
G75*
G02*
X13595430Y-12361511I-20000J0D01*
G01*
X13595430Y-12361511D02*
G75*
G02*
X13635430Y-12361511I20000J0D01*
G01*
X13647877Y-11793208D02*
G75*
G02*
X13607877Y-11793208I-20000J0D01*
G01*
X13607877Y-11793208D02*
G75*
G02*
X13647877Y-11793208I20000J0D01*
G01*
X13672015Y-7402467D02*
G75*
G02*
X13632015Y-7402467I-20000J0D01*
G01*
X13632015Y-7402467D02*
G75*
G02*
X13672015Y-7402467I20000J0D01*
G01*
X13792975Y-12452160D02*
G75*
G02*
X13752975Y-12452160I-20000J0D01*
G01*
X13752975Y-12452160D02*
G75*
G02*
X13792975Y-12452160I20000J0D01*
G01*
X13820882Y-11562249D02*
G75*
G02*
X13780882Y-11562249I-20000J0D01*
G01*
X13780882Y-11562249D02*
G75*
G02*
X13820882Y-11562249I20000J0D01*
G01*
X13856735Y-12267574D02*
G75*
G02*
X13816735Y-12267574I-20000J0D01*
G01*
X13816735Y-12267574D02*
G75*
G02*
X13856735Y-12267574I20000J0D01*
G01*
X13913091Y-11357711D02*
G75*
G02*
X13873091Y-11357711I-20000J0D01*
G01*
X13873091Y-11357711D02*
G75*
G02*
X13913091Y-11357711I20000J0D01*
G01*
X13946976Y-11655079D02*
G75*
G02*
X13906976Y-11655079I-20000J0D01*
G01*
X13906976Y-11655079D02*
G75*
G02*
X13946976Y-11655079I20000J0D01*
G01*
X14001262Y-12363748D02*
G75*
G02*
X13961262Y-12363748I-20000J0D01*
G01*
X13961262Y-12363748D02*
G75*
G02*
X14001262Y-12363748I20000J0D01*
G01*
X14052005Y-12184687D02*
G75*
G02*
X14012005Y-12184687I-20000J0D01*
G01*
X14012005Y-12184687D02*
G75*
G02*
X14052005Y-12184687I20000J0D01*
G01*
X14102721Y-10691517D02*
G75*
G02*
X14062721Y-10691517I-20000J0D01*
G01*
X14062721Y-10691517D02*
G75*
G02*
X14102721Y-10691517I20000J0D01*
G01*
X14165766Y-11842056D02*
G75*
G02*
X14125766Y-11842056I-20000J0D01*
G01*
X14125766Y-11842056D02*
G75*
G02*
X14165766Y-11842056I20000J0D01*
G01*
X14186768Y-12285005D02*
G75*
G02*
X14146768Y-12285005I-20000J0D01*
G01*
X14146768Y-12285005D02*
G75*
G02*
X14186768Y-12285005I20000J0D01*
G01*
X14221810Y-10600974D02*
G75*
G02*
X14181810Y-10600974I-20000J0D01*
G01*
X14181810Y-10600974D02*
G75*
G02*
X14221810Y-10600974I20000J0D01*
G01*
X14234254Y-12107326D02*
G75*
G02*
X14194254Y-12107326I-20000J0D01*
G01*
X14194254Y-12107326D02*
G75*
G02*
X14234254Y-12107326I20000J0D01*
G01*
X14298721Y-12432605D02*
G75*
G02*
X14258721Y-12432605I-20000J0D01*
G01*
X14258721Y-12432605D02*
G75*
G02*
X14298721Y-12432605I20000J0D01*
G01*
X14299381Y-10792102D02*
G75*
G02*
X14259381Y-10792102I-20000J0D01*
G01*
X14259381Y-10792102D02*
G75*
G02*
X14299381Y-10792102I20000J0D01*
G01*
X14365764Y-12209026D02*
G75*
G02*
X14325764Y-12209026I-20000J0D01*
G01*
X14325764Y-12209026D02*
G75*
G02*
X14365764Y-12209026I20000J0D01*
G01*
X14434082Y-12022505D02*
G75*
G02*
X14394082Y-12022505I-20000J0D01*
G01*
X14394082Y-12022505D02*
G75*
G02*
X14434082Y-12022505I20000J0D01*
G01*
X14532054Y-10441654D02*
G75*
G02*
X14492054Y-10441654I-20000J0D01*
G01*
X14492054Y-10441654D02*
G75*
G02*
X14532054Y-10441654I20000J0D01*
G01*
X14574699Y-12120339D02*
G75*
G02*
X14534699Y-12120339I-20000J0D01*
G01*
X14534699Y-12120339D02*
G75*
G02*
X14574699Y-12120339I20000J0D01*
G01*
X14606411Y-10516560D02*
G75*
G02*
X14566411Y-10516560I-20000J0D01*
G01*
X14566411Y-10516560D02*
G75*
G02*
X14606411Y-10516560I20000J0D01*
G01*
X14635488Y-11937013D02*
G75*
G02*
X14595488Y-11937013I-20000J0D01*
G01*
X14595488Y-11937013D02*
G75*
G02*
X14635488Y-11937013I20000J0D01*
G01*
X14662824Y-9572271D02*
G75*
G02*
X14622824Y-9572271I-20000J0D01*
G01*
X14622824Y-9572271D02*
G75*
G02*
X14662824Y-9572271I20000J0D01*
G01*
X14767797Y-12038374D02*
G75*
G02*
X14727797Y-12038374I-20000J0D01*
G01*
X14727797Y-12038374D02*
G75*
G02*
X14767797Y-12038374I20000J0D01*
G01*
X14802050Y-11866312D02*
G75*
G02*
X14762050Y-11866312I-20000J0D01*
G01*
X14762050Y-11866312D02*
G75*
G02*
X14802050Y-11866312I20000J0D01*
G01*
X14810901Y-8843444D02*
G75*
G02*
X14770901Y-8843444I-20000J0D01*
G01*
X14770901Y-8843444D02*
G75*
G02*
X14810901Y-8843444I20000J0D01*
G01*
X14847520Y-8924794D02*
G75*
G02*
X14807520Y-8924794I-20000J0D01*
G01*
X14807520Y-8924794D02*
G75*
G02*
X14847520Y-8924794I20000J0D01*
G01*
X14919227Y-8734793D02*
G75*
G02*
X14879227Y-8734793I-20000J0D01*
G01*
X14879227Y-8734793D02*
G75*
G02*
X14919227Y-8734793I20000J0D01*
G01*
X14928692Y-11970078D02*
G75*
G02*
X14888692Y-11970078I-20000J0D01*
G01*
X14888692Y-11970078D02*
G75*
G02*
X14928692Y-11970078I20000J0D01*
G01*
X14999472Y-8911053D02*
G75*
G02*
X14959472Y-8911053I-20000J0D01*
G01*
X14959472Y-8911053D02*
G75*
G02*
X14999472Y-8911053I20000J0D01*
G01*
X15274345Y-12178605D02*
G75*
G02*
X15234345Y-12178605I-20000J0D01*
G01*
X15234345Y-12178605D02*
G75*
G02*
X15274345Y-12178605I20000J0D01*
G01*
X15274345Y-11969466D02*
G75*
G02*
X15234345Y-11969466I-20000J0D01*
G01*
X15234345Y-11969466D02*
G75*
G02*
X15274345Y-11969466I20000J0D01*
G01*
X15274345Y-11824070D02*
G75*
G02*
X15234345Y-11824070I-20000J0D01*
G01*
X15234345Y-11824070D02*
G75*
G02*
X15274345Y-11824070I20000J0D01*
G01*
X15278529Y-11035708D02*
G75*
G02*
X15238529Y-11035708I-20000J0D01*
G01*
X15238529Y-11035708D02*
G75*
G02*
X15278529Y-11035708I20000J0D01*
G01*
X15343106Y-11235295D02*
G75*
G02*
X15303106Y-11235295I-20000J0D01*
G01*
X15303106Y-11235295D02*
G75*
G02*
X15343106Y-11235295I20000J0D01*
G01*
X15375529Y-10813542D02*
G75*
G02*
X15335529Y-10813542I-20000J0D01*
G01*
X15335529Y-10813542D02*
G75*
G02*
X15375529Y-10813542I20000J0D01*
G01*
X15407240Y-11299430D02*
G75*
G02*
X15367240Y-11299430I-20000J0D01*
G01*
X15367240Y-11299430D02*
G75*
G02*
X15407240Y-11299430I20000J0D01*
G01*
X15419345Y-12178605D02*
G75*
G02*
X15379345Y-12178605I-20000J0D01*
G01*
X15379345Y-12178605D02*
G75*
G02*
X15419345Y-12178605I20000J0D01*
G01*
X15419345Y-11969466D02*
G75*
G02*
X15379345Y-11969466I-20000J0D01*
G01*
X15379345Y-11969466D02*
G75*
G02*
X15419345Y-11969466I20000J0D01*
G01*
X15419345Y-11824466D02*
G75*
G02*
X15379345Y-11824466I-20000J0D01*
G01*
X15379345Y-11824466D02*
G75*
G02*
X15419345Y-11824466I20000J0D01*
G01*
X15423529Y-11035708D02*
G75*
G02*
X15383529Y-11035708I-20000J0D01*
G01*
X15383529Y-11035708D02*
G75*
G02*
X15423529Y-11035708I20000J0D01*
G01*
X15566229Y-11824466D02*
G75*
G02*
X15526229Y-11824466I-20000J0D01*
G01*
X15526229Y-11824466D02*
G75*
G02*
X15566229Y-11824466I20000J0D01*
G01*
X15566229Y-11969466D02*
G75*
G02*
X15526229Y-11969466I-20000J0D01*
G01*
X15526229Y-11969466D02*
G75*
G02*
X15566229Y-11969466I20000J0D01*
G01*
X15566229Y-12178605D02*
G75*
G02*
X15526229Y-12178605I-20000J0D01*
G01*
X15526229Y-12178605D02*
G75*
G02*
X15566229Y-12178605I20000J0D01*
G01*
X15711229Y-11824466D02*
G75*
G02*
X15671229Y-11824466I-20000J0D01*
G01*
X15671229Y-11824466D02*
G75*
G02*
X15711229Y-11824466I20000J0D01*
G01*
X15711229Y-11969466D02*
G75*
G02*
X15671229Y-11969466I-20000J0D01*
G01*
X15671229Y-11969466D02*
G75*
G02*
X15711229Y-11969466I20000J0D01*
G01*
X15711229Y-12178605D02*
G75*
G02*
X15671229Y-12178605I-20000J0D01*
G01*
X15671229Y-12178605D02*
G75*
G02*
X15711229Y-12178605I20000J0D01*
G01*
X15814029Y-11969466D02*
G75*
G02*
X15774029Y-11969466I-20000J0D01*
G01*
X15774029Y-11969466D02*
G75*
G02*
X15814029Y-11969466I20000J0D01*
G01*
X15814029Y-11824466D02*
G75*
G02*
X15774029Y-11824466I-20000J0D01*
G01*
X15774029Y-11824466D02*
G75*
G02*
X15814029Y-11824466I20000J0D01*
G01*
X15841664Y-11228176D02*
G75*
G02*
X15801664Y-11228176I-20000J0D01*
G01*
X15801664Y-11228176D02*
G75*
G02*
X15841664Y-11228176I20000J0D01*
G01*
X15891238Y-11380685D02*
G75*
G02*
X15851238Y-11380685I-20000J0D01*
G01*
X15851238Y-11380685D02*
G75*
G02*
X15891238Y-11380685I20000J0D01*
G01*
X15918229Y-11824466D02*
G75*
G02*
X15878229Y-11824466I-20000J0D01*
G01*
X15878229Y-11824466D02*
G75*
G02*
X15918229Y-11824466I20000J0D01*
G01*
X15921329Y-11969466D02*
G75*
G02*
X15881329Y-11969466I-20000J0D01*
G01*
X15881329Y-11969466D02*
G75*
G02*
X15921329Y-11969466I20000J0D01*
G01*
X15947190Y-11041781D02*
G75*
G02*
X15907190Y-11041781I-20000J0D01*
G01*
X15907190Y-11041781D02*
G75*
G02*
X15947190Y-11041781I20000J0D01*
G01*
X16011762Y-11139837D02*
G75*
G02*
X15971762Y-11139837I-20000J0D01*
G01*
X15971762Y-11139837D02*
G75*
G02*
X16011762Y-11139837I20000J0D01*
G01*
X16011762Y-11284837D02*
G75*
G02*
X15971762Y-11284837I-20000J0D01*
G01*
X15971762Y-11284837D02*
G75*
G02*
X16011762Y-11284837I20000J0D01*
G01*
X16024029Y-11969466D02*
G75*
G02*
X15984029Y-11969466I-20000J0D01*
G01*
X15984029Y-11969466D02*
G75*
G02*
X16024029Y-11969466I20000J0D01*
G01*
X16025529Y-11831942D02*
G75*
G02*
X15985529Y-11831942I-20000J0D01*
G01*
X15985529Y-11831942D02*
G75*
G02*
X16025529Y-11831942I20000J0D01*
G01*
X16097190Y-11042209D02*
G75*
G02*
X16057190Y-11042209I-20000J0D01*
G01*
X16057190Y-11042209D02*
G75*
G02*
X16097190Y-11042209I20000J0D01*
G01*
X16126629Y-11969466D02*
G75*
G02*
X16086629Y-11969466I-20000J0D01*
G01*
X16086629Y-11969466D02*
G75*
G02*
X16126629Y-11969466I20000J0D01*
G01*
X16131329Y-11824466D02*
G75*
G02*
X16091329Y-11824466I-20000J0D01*
G01*
X16091329Y-11824466D02*
G75*
G02*
X16131329Y-11824466I20000J0D01*
G01*
X16181762Y-11284837D02*
G75*
G02*
X16141762Y-11284837I-20000J0D01*
G01*
X16141762Y-11284837D02*
G75*
G02*
X16181762Y-11284837I20000J0D01*
G01*
X16181762Y-11139837D02*
G75*
G02*
X16141762Y-11139837I-20000J0D01*
G01*
X16141762Y-11139837D02*
G75*
G02*
X16181762Y-11139837I20000J0D01*
G01*
X16233106Y-11969467D02*
G75*
G02*
X16193106Y-11969467I-20000J0D01*
G01*
X16193106Y-11969467D02*
G75*
G02*
X16233106Y-11969467I20000J0D01*
G01*
X16236985Y-11824466D02*
G75*
G02*
X16196985Y-11824466I-20000J0D01*
G01*
X16196985Y-11824466D02*
G75*
G02*
X16236985Y-11824466I20000J0D01*
G01*
X16330126Y-11855736D02*
G75*
G02*
X16290126Y-11855736I-20000J0D01*
G01*
X16290126Y-11855736D02*
G75*
G02*
X16330126Y-11855736I20000J0D01*
G01*
X16345700Y-12076371D02*
G75*
G02*
X16305700Y-12076371I-20000J0D01*
G01*
X16305700Y-12076371D02*
G75*
G02*
X16345700Y-12076371I20000J0D01*
G01*
X16354530Y-11284837D02*
G75*
G02*
X16314530Y-11284837I-20000J0D01*
G01*
X16314530Y-11284837D02*
G75*
G02*
X16354530Y-11284837I20000J0D01*
G01*
X16354530Y-11139838D02*
G75*
G02*
X16314530Y-11139838I-20000J0D01*
G01*
X16314530Y-11139838D02*
G75*
G02*
X16354530Y-11139838I20000J0D01*
G01*
X16394581Y-11920190D02*
G75*
G02*
X16354581Y-11920190I-20000J0D01*
G01*
X16354581Y-11920190D02*
G75*
G02*
X16394581Y-11920190I20000J0D01*
G01*
X16439000Y-12169671D02*
G75*
G02*
X16399000Y-12169671I-20000J0D01*
G01*
X16399000Y-12169671D02*
G75*
G02*
X16439000Y-12169671I20000J0D01*
G01*
X16455939Y-11981549D02*
G75*
G02*
X16415939Y-11981549I-20000J0D01*
G01*
X16415939Y-11981549D02*
G75*
G02*
X16455939Y-11981549I20000J0D01*
G01*
X16533495Y-12266527D02*
G75*
G02*
X16493495Y-12266527I-20000J0D01*
G01*
X16493495Y-12266527D02*
G75*
G02*
X16533495Y-12266527I20000J0D01*
G01*
X16808632Y-9016864D02*
G75*
G02*
X16768632Y-9016864I-20000J0D01*
G01*
X16768632Y-9016864D02*
G75*
G02*
X16808632Y-9016864I20000J0D01*
G01*
X16857861Y-10614272D02*
G75*
G02*
X16817861Y-10614272I-20000J0D01*
G01*
X16817861Y-10614272D02*
G75*
G02*
X16857861Y-10614272I20000J0D01*
G01*
X16893132Y-8800585D02*
G75*
G02*
X16853132Y-8800585I-20000J0D01*
G01*
X16853132Y-8800585D02*
G75*
G02*
X16893132Y-8800585I20000J0D01*
G01*
X16958908Y-9006851D02*
G75*
G02*
X16918908Y-9006851I-20000J0D01*
G01*
X16918908Y-9006851D02*
G75*
G02*
X16958908Y-9006851I20000J0D01*
G01*
X16999529Y-10714246D02*
G75*
G02*
X16959529Y-10714246I-20000J0D01*
G01*
X16959529Y-10714246D02*
G75*
G02*
X16999529Y-10714246I20000J0D01*
G01*
X17005808Y-8903829D02*
G75*
G02*
X16965808Y-8903829I-20000J0D01*
G01*
X16965808Y-8903829D02*
G75*
G02*
X17005808Y-8903829I20000J0D01*
G01*
X17031550Y-12041967D02*
G75*
G02*
X16991550Y-12041967I-20000J0D01*
G01*
X16991550Y-12041967D02*
G75*
G02*
X17031550Y-12041967I20000J0D01*
G01*
X17089530Y-10906706D02*
G75*
G02*
X17049530Y-10906706I-20000J0D01*
G01*
X17049530Y-10906706D02*
G75*
G02*
X17089530Y-10906706I20000J0D01*
G01*
X17089986Y-11139838D02*
G75*
G02*
X17049986Y-11139838I-20000J0D01*
G01*
X17049986Y-11139838D02*
G75*
G02*
X17089986Y-11139838I20000J0D01*
G01*
X17089987Y-11284838D02*
G75*
G02*
X17049987Y-11284838I-20000J0D01*
G01*
X17049987Y-11284838D02*
G75*
G02*
X17089987Y-11284838I20000J0D01*
G01*
X17117471Y-9592354D02*
G75*
G02*
X17077471Y-9592354I-20000J0D01*
G01*
X17077471Y-9592354D02*
G75*
G02*
X17117471Y-9592354I20000J0D01*
G01*
X17151741Y-10833041D02*
G75*
G02*
X17111741Y-10833041I-20000J0D01*
G01*
X17111741Y-10833041D02*
G75*
G02*
X17151741Y-10833041I20000J0D01*
G01*
X17159454Y-11404502D02*
G75*
G02*
X17119454Y-11404502I-20000J0D01*
G01*
X17119454Y-11404502D02*
G75*
G02*
X17159454Y-11404502I20000J0D01*
G01*
X17174050Y-12301106D02*
G75*
G02*
X17134050Y-12301106I-20000J0D01*
G01*
X17134050Y-12301106D02*
G75*
G02*
X17174050Y-12301106I20000J0D01*
G01*
X17174050Y-12156104D02*
G75*
G02*
X17134050Y-12156104I-20000J0D01*
G01*
X17134050Y-12156104D02*
G75*
G02*
X17174050Y-12156104I20000J0D01*
G01*
X17210335Y-11797152D02*
G75*
G02*
X17170335Y-11797152I-20000J0D01*
G01*
X17170335Y-11797152D02*
G75*
G02*
X17210335Y-11797152I20000J0D01*
G01*
X17246037Y-11344105D02*
G75*
G02*
X17206037Y-11344105I-20000J0D01*
G01*
X17206037Y-11344105D02*
G75*
G02*
X17246037Y-11344105I20000J0D01*
G01*
X17255607Y-10405869D02*
G75*
G02*
X17215607Y-10405869I-20000J0D01*
G01*
X17215607Y-10405869D02*
G75*
G02*
X17255607Y-10405869I20000J0D01*
G01*
X17319050Y-12156105D02*
G75*
G02*
X17279050Y-12156105I-20000J0D01*
G01*
X17279050Y-12156105D02*
G75*
G02*
X17319050Y-12156105I20000J0D01*
G01*
X17319050Y-12301105D02*
G75*
G02*
X17279050Y-12301105I-20000J0D01*
G01*
X17279050Y-12301105D02*
G75*
G02*
X17319050Y-12301105I20000J0D01*
G01*
X17455940Y-11284838D02*
G75*
G02*
X17415940Y-11284838I-20000J0D01*
G01*
X17415940Y-11284838D02*
G75*
G02*
X17455940Y-11284838I20000J0D01*
G01*
X17466488Y-12319466D02*
G75*
G02*
X17426488Y-12319466I-20000J0D01*
G01*
X17426488Y-12319466D02*
G75*
G02*
X17466488Y-12319466I20000J0D01*
G01*
X17475177Y-10833040D02*
G75*
G02*
X17435177Y-10833040I-20000J0D01*
G01*
X17435177Y-10833040D02*
G75*
G02*
X17475177Y-10833040I20000J0D01*
G01*
X17500336Y-12164928D02*
G75*
G02*
X17460336Y-12164928I-20000J0D01*
G01*
X17460336Y-12164928D02*
G75*
G02*
X17500336Y-12164928I20000J0D01*
G01*
X17509191Y-10643042D02*
G75*
G02*
X17469191Y-10643042I-20000J0D01*
G01*
X17469191Y-10643042D02*
G75*
G02*
X17509191Y-10643042I20000J0D01*
G01*
X17517264Y-11142795D02*
G75*
G02*
X17477264Y-11142795I-20000J0D01*
G01*
X17477264Y-11142795D02*
G75*
G02*
X17517264Y-11142795I20000J0D01*
G01*
X17584792Y-10497957D02*
G75*
G02*
X17544792Y-10497957I-20000J0D01*
G01*
X17544792Y-10497957D02*
G75*
G02*
X17584792Y-10497957I20000J0D01*
G01*
X17638019Y-12319466D02*
G75*
G02*
X17598019Y-12319466I-20000J0D01*
G01*
X17598019Y-12319466D02*
G75*
G02*
X17638019Y-12319466I20000J0D01*
G01*
X17640781Y-10721251D02*
G75*
G02*
X17600781Y-10721251I-20000J0D01*
G01*
X17600781Y-10721251D02*
G75*
G02*
X17640781Y-10721251I20000J0D01*
G01*
X17657490Y-11269805D02*
G75*
G02*
X17617490Y-11269805I-20000J0D01*
G01*
X17617490Y-11269805D02*
G75*
G02*
X17657490Y-11269805I20000J0D01*
G01*
X17682603Y-10612921D02*
G75*
G02*
X17642603Y-10612921I-20000J0D01*
G01*
X17642603Y-10612921D02*
G75*
G02*
X17682603Y-10612921I20000J0D01*
G01*
X17760332Y-11742153D02*
G75*
G02*
X17720332Y-11742153I-20000J0D01*
G01*
X17720332Y-11742153D02*
G75*
G02*
X17760332Y-11742153I20000J0D01*
G01*
X17760333Y-11842154D02*
G75*
G02*
X17720333Y-11842154I-20000J0D01*
G01*
X17720333Y-11842154D02*
G75*
G02*
X17760333Y-11842154I20000J0D01*
G01*
X17785664Y-12319466D02*
G75*
G02*
X17745664Y-12319466I-20000J0D01*
G01*
X17745664Y-12319466D02*
G75*
G02*
X17785664Y-12319466I20000J0D01*
G01*
X17802544Y-12044578D02*
G75*
G02*
X17762544Y-12044578I-20000J0D01*
G01*
X17762544Y-12044578D02*
G75*
G02*
X17802544Y-12044578I20000J0D01*
G01*
X17831753Y-11662942D02*
G75*
G02*
X17791753Y-11662942I-20000J0D01*
G01*
X17791753Y-11662942D02*
G75*
G02*
X17831753Y-11662942I20000J0D01*
G01*
X17875336Y-12388937D02*
G75*
G02*
X17835336Y-12388937I-20000J0D01*
G01*
X17835336Y-12388937D02*
G75*
G02*
X17875336Y-12388937I20000J0D01*
G01*
X17877329Y-12553901D02*
G75*
G02*
X17837329Y-12553901I-20000J0D01*
G01*
X17837329Y-12553901D02*
G75*
G02*
X17877329Y-12553901I20000J0D01*
G01*
X17982763Y-12408900D02*
G75*
G02*
X17942763Y-12408900I-20000J0D01*
G01*
X17942763Y-12408900D02*
G75*
G02*
X17982763Y-12408900I20000J0D01*
G01*
X18001551Y-12092428D02*
G75*
G02*
X17961551Y-12092428I-20000J0D01*
G01*
X17961551Y-12092428D02*
G75*
G02*
X18001551Y-12092428I20000J0D01*
G01*
X18028246Y-12238313D02*
G75*
G02*
X17988246Y-12238313I-20000J0D01*
G01*
X17988246Y-12238313D02*
G75*
G02*
X18028246Y-12238313I20000J0D01*
G01*
X18111723Y-12116224D02*
G75*
G02*
X18071723Y-12116224I-20000J0D01*
G01*
X18071723Y-12116224D02*
G75*
G02*
X18111723Y-12116224I20000J0D01*
G01*
X18149763Y-12408900D02*
G75*
G02*
X18109763Y-12408900I-20000J0D01*
G01*
X18109763Y-12408900D02*
G75*
G02*
X18149763Y-12408900I20000J0D01*
G01*
X18199184Y-14038040D02*
G75*
G02*
X18159184Y-14038040I-20000J0D01*
G01*
X18159184Y-14038040D02*
G75*
G02*
X18199184Y-14038040I20000J0D01*
G01*
X18225897Y-7506376D02*
G75*
G02*
X18185897Y-7506376I-20000J0D01*
G01*
X18185897Y-7506376D02*
G75*
G02*
X18225897Y-7506376I20000J0D01*
G01*
X18243950Y-12329873D02*
G75*
G02*
X18203950Y-12329873I-20000J0D01*
G01*
X18203950Y-12329873D02*
G75*
G02*
X18243950Y-12329873I20000J0D01*
G01*
X18286608Y-8229966D02*
G75*
G02*
X18246608Y-8229966I-20000J0D01*
G01*
X18246608Y-8229966D02*
G75*
G02*
X18286608Y-8229966I20000J0D01*
G01*
X18296379Y-13918463D02*
G75*
G02*
X18256379Y-13918463I-20000J0D01*
G01*
X18256379Y-13918463D02*
G75*
G02*
X18296379Y-13918463I20000J0D01*
G01*
X18352216Y-7212572D02*
G75*
G02*
X18312216Y-7212572I-20000J0D01*
G01*
X18312216Y-7212572D02*
G75*
G02*
X18352216Y-7212572I20000J0D01*
G01*
X18376613Y-9016770D02*
G75*
G02*
X18336613Y-9016770I-20000J0D01*
G01*
X18336613Y-9016770D02*
G75*
G02*
X18376613Y-9016770I20000J0D01*
G01*
X18377509Y-7491871D02*
G75*
G02*
X18337509Y-7491871I-20000J0D01*
G01*
X18337509Y-7491871D02*
G75*
G02*
X18377509Y-7491871I20000J0D01*
G01*
X18397941Y-8335134D02*
G75*
G02*
X18357941Y-8335134I-20000J0D01*
G01*
X18357941Y-8335134D02*
G75*
G02*
X18397941Y-8335134I20000J0D01*
G01*
X18405542Y-7955874D02*
G75*
G02*
X18365542Y-7955874I-20000J0D01*
G01*
X18365542Y-7955874D02*
G75*
G02*
X18405542Y-7955874I20000J0D01*
G01*
X18427834Y-14018442D02*
G75*
G02*
X18387834Y-14018442I-20000J0D01*
G01*
X18387834Y-14018442D02*
G75*
G02*
X18427834Y-14018442I20000J0D01*
G01*
X18446639Y-7329444D02*
G75*
G02*
X18406639Y-7329444I-20000J0D01*
G01*
X18406639Y-7329444D02*
G75*
G02*
X18446639Y-7329444I20000J0D01*
G01*
X18451532Y-12104553D02*
G75*
G02*
X18411532Y-12104553I-20000J0D01*
G01*
X18411532Y-12104553D02*
G75*
G02*
X18451532Y-12104553I20000J0D01*
G01*
X18456059Y-12262387D02*
G75*
G02*
X18416059Y-12262387I-20000J0D01*
G01*
X18416059Y-12262387D02*
G75*
G02*
X18456059Y-12262387I20000J0D01*
G01*
X18495573Y-9126372D02*
G75*
G02*
X18455573Y-9126372I-20000J0D01*
G01*
X18455573Y-9126372D02*
G75*
G02*
X18495573Y-9126372I20000J0D01*
G01*
X18500134Y-14589381D02*
G75*
G02*
X18460134Y-14589381I-20000J0D01*
G01*
X18460134Y-14589381D02*
G75*
G02*
X18500134Y-14589381I20000J0D01*
G01*
X18528008Y-8042169D02*
G75*
G02*
X18488008Y-8042169I-20000J0D01*
G01*
X18488008Y-8042169D02*
G75*
G02*
X18528008Y-8042169I20000J0D01*
G01*
X18535274Y-12453533D02*
G75*
G02*
X18495274Y-12453533I-20000J0D01*
G01*
X18495274Y-12453533D02*
G75*
G02*
X18535274Y-12453533I20000J0D01*
G01*
X18572834Y-14018442D02*
G75*
G02*
X18532834Y-14018442I-20000J0D01*
G01*
X18532834Y-14018442D02*
G75*
G02*
X18572834Y-14018442I20000J0D01*
G01*
X18572834Y-12878427D02*
G75*
G02*
X18532834Y-12878427I-20000J0D01*
G01*
X18532834Y-12878427D02*
G75*
G02*
X18572834Y-12878427I20000J0D01*
G01*
X18572835Y-13447342D02*
G75*
G02*
X18532835Y-13447342I-20000J0D01*
G01*
X18532835Y-13447342D02*
G75*
G02*
X18572835Y-13447342I20000J0D01*
G01*
X18651209Y-15080857D02*
G75*
G02*
X18611209Y-15080857I-20000J0D01*
G01*
X18611209Y-15080857D02*
G75*
G02*
X18651209Y-15080857I20000J0D01*
G01*
X18708850Y-10041324D02*
G75*
G02*
X18668850Y-10041324I-20000J0D01*
G01*
X18668850Y-10041324D02*
G75*
G02*
X18708850Y-10041324I20000J0D01*
G01*
X18725378Y-14953342D02*
G75*
G02*
X18685378Y-14953342I-20000J0D01*
G01*
X18685378Y-14953342D02*
G75*
G02*
X18725378Y-14953342I20000J0D01*
G01*
X18732873Y-12537409D02*
G75*
G02*
X18692873Y-12537409I-20000J0D01*
G01*
X18692873Y-12537409D02*
G75*
G02*
X18732873Y-12537409I20000J0D01*
G01*
X18763168Y-10175766D02*
G75*
G02*
X18723168Y-10175766I-20000J0D01*
G01*
X18723168Y-10175766D02*
G75*
G02*
X18763168Y-10175766I20000J0D01*
G01*
X18818857Y-12416282D02*
G75*
G02*
X18778857Y-12416282I-20000J0D01*
G01*
X18778857Y-12416282D02*
G75*
G02*
X18818857Y-12416282I20000J0D01*
G01*
X18843292Y-9987006D02*
G75*
G02*
X18803292Y-9987006I-20000J0D01*
G01*
X18803292Y-9987006D02*
G75*
G02*
X18843292Y-9987006I20000J0D01*
G01*
X18876895Y-12549220D02*
G75*
G02*
X18836895Y-12549220I-20000J0D01*
G01*
X18836895Y-12549220D02*
G75*
G02*
X18876895Y-12549220I20000J0D01*
G01*
X18897610Y-10121448D02*
G75*
G02*
X18857610Y-10121448I-20000J0D01*
G01*
X18857610Y-10121448D02*
G75*
G02*
X18897610Y-10121448I20000J0D01*
G01*
X18926190Y-9181278D02*
G75*
G02*
X18886190Y-9181278I-20000J0D01*
G01*
X18886190Y-9181278D02*
G75*
G02*
X18926190Y-9181278I20000J0D01*
G01*
X19046160Y-8904983D02*
G75*
G02*
X19006160Y-8904983I-20000J0D01*
G01*
X19006160Y-8904983D02*
G75*
G02*
X19046160Y-8904983I20000J0D01*
G01*
X19063681Y-12317367D02*
G75*
G02*
X19023681Y-12317367I-20000J0D01*
G01*
X19023681Y-12317367D02*
G75*
G02*
X19063681Y-12317367I20000J0D01*
G01*
X19074549Y-9893572D02*
G75*
G02*
X19034549Y-9893572I-20000J0D01*
G01*
X19034549Y-9893572D02*
G75*
G02*
X19074549Y-9893572I20000J0D01*
G01*
X19076709Y-9173862D02*
G75*
G02*
X19036709Y-9173862I-20000J0D01*
G01*
X19036709Y-9173862D02*
G75*
G02*
X19076709Y-9173862I20000J0D01*
G01*
X19110690Y-10795577D02*
G75*
G02*
X19070690Y-10795577I-20000J0D01*
G01*
X19070690Y-10795577D02*
G75*
G02*
X19110690Y-10795577I20000J0D01*
G01*
X19137472Y-12443941D02*
G75*
G02*
X19097472Y-12443941I-20000J0D01*
G01*
X19097472Y-12443941D02*
G75*
G02*
X19137472Y-12443941I20000J0D01*
G01*
X19139885Y-9716461D02*
G75*
G02*
X19099885Y-9716461I-20000J0D01*
G01*
X19099885Y-9716461D02*
G75*
G02*
X19139885Y-9716461I20000J0D01*
G01*
X19144844Y-9019842D02*
G75*
G02*
X19104844Y-9019842I-20000J0D01*
G01*
X19104844Y-9019842D02*
G75*
G02*
X19144844Y-9019842I20000J0D01*
G01*
X19152705Y-12619997D02*
G75*
G02*
X19112705Y-12619997I-20000J0D01*
G01*
X19112705Y-12619997D02*
G75*
G02*
X19152705Y-12619997I20000J0D01*
G01*
X19191634Y-9987052D02*
G75*
G02*
X19151634Y-9987052I-20000J0D01*
G01*
X19151634Y-9987052D02*
G75*
G02*
X19191634Y-9987052I20000J0D01*
G01*
X19201661Y-12309926D02*
G75*
G02*
X19161661Y-12309926I-20000J0D01*
G01*
X19161661Y-12309926D02*
G75*
G02*
X19201661Y-12309926I20000J0D01*
G01*
X19205439Y-9492493D02*
G75*
G02*
X19165439Y-9492493I-20000J0D01*
G01*
X19165439Y-9492493D02*
G75*
G02*
X19205439Y-9492493I20000J0D01*
G01*
X19232811Y-12801182D02*
G75*
G02*
X19192811Y-12801182I-20000J0D01*
G01*
X19192811Y-12801182D02*
G75*
G02*
X19232811Y-12801182I20000J0D01*
G01*
X19281219Y-9782825D02*
G75*
G02*
X19241219Y-9782825I-20000J0D01*
G01*
X19241219Y-9782825D02*
G75*
G02*
X19281219Y-9782825I20000J0D01*
G01*
X19290091Y-11479942D02*
G75*
G02*
X19250091Y-11479942I-20000J0D01*
G01*
X19250091Y-11479942D02*
G75*
G02*
X19290091Y-11479942I20000J0D01*
G01*
X19323686Y-12361722D02*
G75*
G02*
X19283686Y-12361722I-20000J0D01*
G01*
X19283686Y-12361722D02*
G75*
G02*
X19323686Y-12361722I20000J0D01*
G01*
X19341920Y-15373022D02*
G75*
G02*
X19301920Y-15373022I-20000J0D01*
G01*
X19301920Y-15373022D02*
G75*
G02*
X19341920Y-15373022I20000J0D01*
G01*
X19344409Y-11614384D02*
G75*
G02*
X19304409Y-11614384I-20000J0D01*
G01*
X19304409Y-11614384D02*
G75*
G02*
X19344409Y-11614384I20000J0D01*
G01*
X19424532Y-11425624D02*
G75*
G02*
X19384532Y-11425624I-20000J0D01*
G01*
X19384532Y-11425624D02*
G75*
G02*
X19424532Y-11425624I20000J0D01*
G01*
X19440579Y-12417477D02*
G75*
G02*
X19400579Y-12417477I-20000J0D01*
G01*
X19400579Y-12417477D02*
G75*
G02*
X19440579Y-12417477I20000J0D01*
G01*
X19478850Y-11560066D02*
G75*
G02*
X19438850Y-11560066I-20000J0D01*
G01*
X19438850Y-11560066D02*
G75*
G02*
X19478850Y-11560066I20000J0D01*
G01*
X19508690Y-13900012D02*
G75*
G02*
X19468690Y-13900012I-20000J0D01*
G01*
X19468690Y-13900012D02*
G75*
G02*
X19508690Y-13900012I20000J0D01*
G01*
X19557385Y-12142297D02*
G75*
G02*
X19517385Y-12142297I-20000J0D01*
G01*
X19517385Y-12142297D02*
G75*
G02*
X19557385Y-12142297I20000J0D01*
G01*
X19608112Y-12943375D02*
G75*
G02*
X19568112Y-12943375I-20000J0D01*
G01*
X19568112Y-12943375D02*
G75*
G02*
X19608112Y-12943375I20000J0D01*
G01*
X19609318Y-10912349D02*
G75*
G02*
X19569318Y-10912349I-20000J0D01*
G01*
X19569318Y-10912349D02*
G75*
G02*
X19609318Y-10912349I20000J0D01*
G01*
X19619429Y-13787754D02*
G75*
G02*
X19579429Y-13787754I-20000J0D01*
G01*
X19579429Y-13787754D02*
G75*
G02*
X19619429Y-13787754I20000J0D01*
G01*
X19624881Y-6697017D02*
G75*
G02*
X19584881Y-6697017I-20000J0D01*
G01*
X19584881Y-6697017D02*
G75*
G02*
X19624881Y-6697017I20000J0D01*
G01*
X19641818Y-15254672D02*
G75*
G02*
X19601818Y-15254672I-20000J0D01*
G01*
X19601818Y-15254672D02*
G75*
G02*
X19641818Y-15254672I20000J0D01*
G01*
X19649492Y-12594649D02*
G75*
G02*
X19609492Y-12594649I-20000J0D01*
G01*
X19609492Y-12594649D02*
G75*
G02*
X19649492Y-12594649I20000J0D01*
G01*
X19653216Y-13930632D02*
G75*
G02*
X19613216Y-13930632I-20000J0D01*
G01*
X19613216Y-13930632D02*
G75*
G02*
X19653216Y-13930632I20000J0D01*
G01*
X19660871Y-12495298D02*
G75*
G02*
X19620871Y-12495298I-20000J0D01*
G01*
X19620871Y-12495298D02*
G75*
G02*
X19660871Y-12495298I20000J0D01*
G01*
X19661436Y-12817749D02*
G75*
G02*
X19621436Y-12817749I-20000J0D01*
G01*
X19621436Y-12817749D02*
G75*
G02*
X19661436Y-12817749I20000J0D01*
G01*
X19680442Y-12223493D02*
G75*
G02*
X19640442Y-12223493I-20000J0D01*
G01*
X19640442Y-12223493D02*
G75*
G02*
X19680442Y-12223493I20000J0D01*
G01*
X19684279Y-12398076D02*
G75*
G02*
X19644279Y-12398076I-20000J0D01*
G01*
X19644279Y-12398076D02*
G75*
G02*
X19684279Y-12398076I20000J0D01*
G01*
X19691808Y-12087523D02*
G75*
G02*
X19651808Y-12087523I-20000J0D01*
G01*
X19651808Y-12087523D02*
G75*
G02*
X19691808Y-12087523I20000J0D01*
G01*
X19699819Y-6839828D02*
G75*
G02*
X19659819Y-6839828I-20000J0D01*
G01*
X19659819Y-6839828D02*
G75*
G02*
X19699819Y-6839828I20000J0D01*
G01*
X19702234Y-10693452D02*
G75*
G02*
X19662234Y-10693452I-20000J0D01*
G01*
X19662234Y-10693452D02*
G75*
G02*
X19702234Y-10693452I20000J0D01*
G01*
X19750360Y-7410598D02*
G75*
G02*
X19710360Y-7410598I-20000J0D01*
G01*
X19710360Y-7410598D02*
G75*
G02*
X19750360Y-7410598I20000J0D01*
G01*
X19764019Y-11460873D02*
G75*
G02*
X19724019Y-11460873I-20000J0D01*
G01*
X19724019Y-11460873D02*
G75*
G02*
X19764019Y-11460873I20000J0D01*
G01*
X19771118Y-11306363D02*
G75*
G02*
X19731118Y-11306363I-20000J0D01*
G01*
X19731118Y-11306363D02*
G75*
G02*
X19771118Y-11306363I20000J0D01*
G01*
X19775410Y-6714392D02*
G75*
G02*
X19735410Y-6714392I-20000J0D01*
G01*
X19735410Y-6714392D02*
G75*
G02*
X19775410Y-6714392I20000J0D01*
G01*
X19780124Y-10864671D02*
G75*
G02*
X19740124Y-10864671I-20000J0D01*
G01*
X19740124Y-10864671D02*
G75*
G02*
X19780124Y-10864671I20000J0D01*
G01*
X19869895Y-7468356D02*
G75*
G02*
X19829895Y-7468356I-20000J0D01*
G01*
X19829895Y-7468356D02*
G75*
G02*
X19869895Y-7468356I20000J0D01*
G01*
X19890111Y-11514396D02*
G75*
G02*
X19850111Y-11514396I-20000J0D01*
G01*
X19850111Y-11514396D02*
G75*
G02*
X19890111Y-11514396I20000J0D01*
G01*
X19932236Y-5986232D02*
G75*
G02*
X19892236Y-5986232I-20000J0D01*
G01*
X19892236Y-5986232D02*
G75*
G02*
X19932236Y-5986232I20000J0D01*
G01*
X19952140Y-6942503D02*
G75*
G02*
X19912140Y-6942503I-20000J0D01*
G01*
X19912140Y-6942503D02*
G75*
G02*
X19952140Y-6942503I20000J0D01*
G01*
X19956004Y-6791050D02*
G75*
G02*
X19916004Y-6791050I-20000J0D01*
G01*
X19916004Y-6791050D02*
G75*
G02*
X19956004Y-6791050I20000J0D01*
G01*
X20042867Y-6091332D02*
G75*
G02*
X20002867Y-6091332I-20000J0D01*
G01*
X20002867Y-6091332D02*
G75*
G02*
X20042867Y-6091332I20000J0D01*
G01*
X20122575Y-8468428D02*
G75*
G02*
X20082575Y-8468428I-20000J0D01*
G01*
X20082575Y-8468428D02*
G75*
G02*
X20122575Y-8468428I20000J0D01*
G01*
X20142299Y-13012256D02*
G75*
G02*
X20102299Y-13012256I-20000J0D01*
G01*
X20102299Y-13012256D02*
G75*
G02*
X20142299Y-13012256I20000J0D01*
G01*
X20155728Y-13722959D02*
G75*
G02*
X20115728Y-13722959I-20000J0D01*
G01*
X20115728Y-13722959D02*
G75*
G02*
X20155728Y-13722959I20000J0D01*
G01*
X20159218Y-14901157D02*
G75*
G02*
X20119218Y-14901157I-20000J0D01*
G01*
X20119218Y-14901157D02*
G75*
G02*
X20159218Y-14901157I20000J0D01*
G01*
X20176892Y-8602868D02*
G75*
G02*
X20136892Y-8602868I-20000J0D01*
G01*
X20136892Y-8602868D02*
G75*
G02*
X20176892Y-8602868I20000J0D01*
G01*
X20183166Y-12300799D02*
G75*
G02*
X20143166Y-12300799I-20000J0D01*
G01*
X20143166Y-12300799D02*
G75*
G02*
X20183166Y-12300799I20000J0D01*
G01*
X20214309Y-13231870D02*
G75*
G02*
X20174309Y-13231870I-20000J0D01*
G01*
X20174309Y-13231870D02*
G75*
G02*
X20214309Y-13231870I20000J0D01*
G01*
X20238482Y-13546020D02*
G75*
G02*
X20198482Y-13546020I-20000J0D01*
G01*
X20198482Y-13546020D02*
G75*
G02*
X20238482Y-13546020I20000J0D01*
G01*
X20249620Y-12149918D02*
G75*
G02*
X20209620Y-12149918I-20000J0D01*
G01*
X20209620Y-12149918D02*
G75*
G02*
X20249620Y-12149918I20000J0D01*
G01*
X20257017Y-8414110D02*
G75*
G02*
X20217017Y-8414110I-20000J0D01*
G01*
X20217017Y-8414110D02*
G75*
G02*
X20257017Y-8414110I20000J0D01*
G01*
X20263031Y-12565129D02*
G75*
G02*
X20223031Y-12565129I-20000J0D01*
G01*
X20223031Y-12565129D02*
G75*
G02*
X20263031Y-12565129I20000J0D01*
G01*
X20265794Y-15008465D02*
G75*
G02*
X20225794Y-15008465I-20000J0D01*
G01*
X20225794Y-15008465D02*
G75*
G02*
X20265794Y-15008465I20000J0D01*
G01*
X20277772Y-13082359D02*
G75*
G02*
X20237772Y-13082359I-20000J0D01*
G01*
X20237772Y-13082359D02*
G75*
G02*
X20277772Y-13082359I20000J0D01*
G01*
X20298105Y-13405557D02*
G75*
G02*
X20258105Y-13405557I-20000J0D01*
G01*
X20258105Y-13405557D02*
G75*
G02*
X20298105Y-13405557I20000J0D01*
G01*
X20311335Y-8548549D02*
G75*
G02*
X20271335Y-8548549I-20000J0D01*
G01*
X20271335Y-8548549D02*
G75*
G02*
X20311335Y-8548549I20000J0D01*
G01*
X20363374Y-12368200D02*
G75*
G02*
X20323374Y-12368200I-20000J0D01*
G01*
X20323374Y-12368200D02*
G75*
G02*
X20363374Y-12368200I20000J0D01*
G01*
X20368661Y-14434959D02*
G75*
G02*
X20328661Y-14434959I-20000J0D01*
G01*
X20328661Y-14434959D02*
G75*
G02*
X20368661Y-14434959I20000J0D01*
G01*
X20390921Y-12513457D02*
G75*
G02*
X20350921Y-12513457I-20000J0D01*
G01*
X20350921Y-12513457D02*
G75*
G02*
X20390921Y-12513457I20000J0D01*
G01*
X20412477Y-8351221D02*
G75*
G02*
X20372477Y-8351221I-20000J0D01*
G01*
X20372477Y-8351221D02*
G75*
G02*
X20412477Y-8351221I20000J0D01*
G01*
X20426540Y-13062261D02*
G75*
G02*
X20386540Y-13062261I-20000J0D01*
G01*
X20386540Y-13062261D02*
G75*
G02*
X20426540Y-13062261I20000J0D01*
G01*
X20442183Y-12184034D02*
G75*
G02*
X20402183Y-12184034I-20000J0D01*
G01*
X20402183Y-12184034D02*
G75*
G02*
X20442183Y-12184034I20000J0D01*
G01*
X20461970Y-8487690D02*
G75*
G02*
X20421970Y-8487690I-20000J0D01*
G01*
X20421970Y-8487690D02*
G75*
G02*
X20461970Y-8487690I20000J0D01*
G01*
X20467287Y-14549070D02*
G75*
G02*
X20427287Y-14549070I-20000J0D01*
G01*
X20427287Y-14549070D02*
G75*
G02*
X20467287Y-14549070I20000J0D01*
G01*
X20494891Y-12391632D02*
G75*
G02*
X20454891Y-12391632I-20000J0D01*
G01*
X20454891Y-12391632D02*
G75*
G02*
X20494891Y-12391632I20000J0D01*
G01*
X20516462Y-9203000D02*
G75*
G02*
X20476462Y-9203000I-20000J0D01*
G01*
X20476462Y-9203000D02*
G75*
G02*
X20516462Y-9203000I20000J0D01*
G01*
X20517401Y-12538927D02*
G75*
G02*
X20477401Y-12538927I-20000J0D01*
G01*
X20477401Y-12538927D02*
G75*
G02*
X20517401Y-12538927I20000J0D01*
G01*
X20562505Y-8368878D02*
G75*
G02*
X20522505Y-8368878I-20000J0D01*
G01*
X20522505Y-8368878D02*
G75*
G02*
X20562505Y-8368878I20000J0D01*
G01*
X20651843Y-12484609D02*
G75*
G02*
X20611843Y-12484609I-20000J0D01*
G01*
X20611843Y-12484609D02*
G75*
G02*
X20651843Y-12484609I20000J0D01*
G01*
X20685696Y-7719415D02*
G75*
G02*
X20645696Y-7719415I-20000J0D01*
G01*
X20645696Y-7719415D02*
G75*
G02*
X20685696Y-7719415I20000J0D01*
G01*
X20791847Y-7828580D02*
G75*
G02*
X20751847Y-7828580I-20000J0D01*
G01*
X20751847Y-7828580D02*
G75*
G02*
X20791847Y-7828580I20000J0D01*
G01*
X20809919Y-8473899D02*
G75*
G02*
X20769919Y-8473899I-20000J0D01*
G01*
X20769919Y-8473899D02*
G75*
G02*
X20809919Y-8473899I20000J0D01*
G01*
X20834644Y-10230861D02*
G75*
G02*
X20794644Y-10230861I-20000J0D01*
G01*
X20794644Y-10230861D02*
G75*
G02*
X20834644Y-10230861I20000J0D01*
G01*
X20841583Y-8636271D02*
G75*
G02*
X20801583Y-8636271I-20000J0D01*
G01*
X20801583Y-8636271D02*
G75*
G02*
X20841583Y-8636271I20000J0D01*
G01*
X20847050Y-5766421D02*
G75*
G02*
X20807050Y-5766421I-20000J0D01*
G01*
X20807050Y-5766421D02*
G75*
G02*
X20847050Y-5766421I20000J0D01*
G01*
X20851389Y-5615543D02*
G75*
G02*
X20811389Y-5615543I-20000J0D01*
G01*
X20811389Y-5615543D02*
G75*
G02*
X20851389Y-5615543I20000J0D01*
G01*
X20888963Y-10365301D02*
G75*
G02*
X20848963Y-10365301I-20000J0D01*
G01*
X20848963Y-10365301D02*
G75*
G02*
X20888963Y-10365301I20000J0D01*
G01*
X20969086Y-10176541D02*
G75*
G02*
X20929086Y-10176541I-20000J0D01*
G01*
X20929086Y-10176541D02*
G75*
G02*
X20969086Y-10176541I20000J0D01*
G01*
X21023404Y-10310985D02*
G75*
G02*
X20983404Y-10310985I-20000J0D01*
G01*
X20983404Y-10310985D02*
G75*
G02*
X21023404Y-10310985I20000J0D01*
G01*
X21043138Y-14159197D02*
G75*
G02*
X21003138Y-14159197I-20000J0D01*
G01*
X21003138Y-14159197D02*
G75*
G02*
X21043138Y-14159197I20000J0D01*
G01*
X21106462Y-10118534D02*
G75*
G02*
X21066462Y-10118534I-20000J0D01*
G01*
X21066462Y-10118534D02*
G75*
G02*
X21106462Y-10118534I20000J0D01*
G01*
X21110596Y-12113764D02*
G75*
G02*
X21070596Y-12113764I-20000J0D01*
G01*
X21070596Y-12113764D02*
G75*
G02*
X21110596Y-12113764I20000J0D01*
G01*
X21157485Y-14257204D02*
G75*
G02*
X21117485Y-14257204I-20000J0D01*
G01*
X21117485Y-14257204D02*
G75*
G02*
X21157485Y-14257204I20000J0D01*
G01*
X21169037Y-10252144D02*
G75*
G02*
X21129037Y-10252144I-20000J0D01*
G01*
X21129037Y-10252144D02*
G75*
G02*
X21169037Y-10252144I20000J0D01*
G01*
X21197637Y-12260112D02*
G75*
G02*
X21157637Y-12260112I-20000J0D01*
G01*
X21157637Y-12260112D02*
G75*
G02*
X21197637Y-12260112I20000J0D01*
G01*
X21212956Y-11872621D02*
G75*
G02*
X21172956Y-11872621I-20000J0D01*
G01*
X21172956Y-11872621D02*
G75*
G02*
X21212956Y-11872621I20000J0D01*
G01*
X21230090Y-11002406D02*
G75*
G02*
X21190090Y-11002406I-20000J0D01*
G01*
X21190090Y-11002406D02*
G75*
G02*
X21230090Y-11002406I20000J0D01*
G01*
X21258118Y-10132351D02*
G75*
G02*
X21218118Y-10132351I-20000J0D01*
G01*
X21218118Y-10132351D02*
G75*
G02*
X21258118Y-10132351I20000J0D01*
G01*
X21375968Y-9510080D02*
G75*
G02*
X21335968Y-9510080I-20000J0D01*
G01*
X21335968Y-9510080D02*
G75*
G02*
X21375968Y-9510080I20000J0D01*
G01*
X21394747Y-11022958D02*
G75*
G02*
X21354747Y-11022958I-20000J0D01*
G01*
X21354747Y-11022958D02*
G75*
G02*
X21394747Y-11022958I20000J0D01*
G01*
X21440234Y-11708285D02*
G75*
G02*
X21400234Y-11708285I-20000J0D01*
G01*
X21400234Y-11708285D02*
G75*
G02*
X21440234Y-11708285I20000J0D01*
G01*
X21472328Y-9627702D02*
G75*
G02*
X21432328Y-9627702I-20000J0D01*
G01*
X21432328Y-9627702D02*
G75*
G02*
X21472328Y-9627702I20000J0D01*
G01*
X21502151Y-6040293D02*
G75*
G02*
X21462151Y-6040293I-20000J0D01*
G01*
X21462151Y-6040293D02*
G75*
G02*
X21502151Y-6040293I20000J0D01*
G01*
X21512134Y-5889121D02*
G75*
G02*
X21472134Y-5889121I-20000J0D01*
G01*
X21472134Y-5889121D02*
G75*
G02*
X21512134Y-5889121I20000J0D01*
G01*
X21523830Y-10245139D02*
G75*
G02*
X21483830Y-10245139I-20000J0D01*
G01*
X21483830Y-10245139D02*
G75*
G02*
X21523830Y-10245139I20000J0D01*
G01*
X21555962Y-10400016D02*
G75*
G02*
X21515962Y-10400016I-20000J0D01*
G01*
X21515962Y-10400016D02*
G75*
G02*
X21555962Y-10400016I20000J0D01*
G01*
X21598945Y-11346981D02*
G75*
G02*
X21558945Y-11346981I-20000J0D01*
G01*
X21558945Y-11346981D02*
G75*
G02*
X21598945Y-11346981I20000J0D01*
G01*
X21700665Y-7302354D02*
G75*
G02*
X21660665Y-7302354I-20000J0D01*
G01*
X21660665Y-7302354D02*
G75*
G02*
X21700665Y-7302354I20000J0D01*
G01*
X21754985Y-7436796D02*
G75*
G02*
X21714985Y-7436796I-20000J0D01*
G01*
X21714985Y-7436796D02*
G75*
G02*
X21754985Y-7436796I20000J0D01*
G01*
X21835108Y-7248037D02*
G75*
G02*
X21795108Y-7248037I-20000J0D01*
G01*
X21795108Y-7248037D02*
G75*
G02*
X21835108Y-7248037I20000J0D01*
G01*
X21889426Y-7382478D02*
G75*
G02*
X21849426Y-7382478I-20000J0D01*
G01*
X21849426Y-7382478D02*
G75*
G02*
X21889426Y-7382478I20000J0D01*
G01*
X21893830Y-5911049D02*
G75*
G02*
X21853830Y-5911049I-20000J0D01*
G01*
X21853830Y-5911049D02*
G75*
G02*
X21893830Y-5911049I20000J0D01*
G01*
X21914230Y-5750669D02*
G75*
G02*
X21874230Y-5750669I-20000J0D01*
G01*
X21874230Y-5750669D02*
G75*
G02*
X21914230Y-5750669I20000J0D01*
G01*
X21972249Y-7350322D02*
G75*
G02*
X21932249Y-7350322I-20000J0D01*
G01*
X21932249Y-7350322D02*
G75*
G02*
X21972249Y-7350322I20000J0D01*
G01*
X21973858Y-7198726D02*
G75*
G02*
X21933858Y-7198726I-20000J0D01*
G01*
X21933858Y-7198726D02*
G75*
G02*
X21973858Y-7198726I20000J0D01*
G01*
X22030929Y-5863841D02*
G75*
G02*
X21990929Y-5863841I-20000J0D01*
G01*
X21990929Y-5863841D02*
G75*
G02*
X22030929Y-5863841I20000J0D01*
G01*
X22146368Y-8039686D02*
G75*
G02*
X22106368Y-8039686I-20000J0D01*
G01*
X22106368Y-8039686D02*
G75*
G02*
X22146368Y-8039686I20000J0D01*
G01*
X22196630Y-6345069D02*
G75*
G02*
X22156630Y-6345069I-20000J0D01*
G01*
X22156630Y-6345069D02*
G75*
G02*
X22196630Y-6345069I20000J0D01*
G01*
X22310195Y-7493903D02*
G75*
G02*
X22270195Y-7493903I-20000J0D01*
G01*
X22270195Y-7493903D02*
G75*
G02*
X22310195Y-7493903I20000J0D01*
G01*
X22378061Y-7662198D02*
G75*
G02*
X22338061Y-7662198I-20000J0D01*
G01*
X22338061Y-7662198D02*
G75*
G02*
X22378061Y-7662198I20000J0D01*
G01*
X22420799Y-7391155D02*
G75*
G02*
X22380799Y-7391155I-20000J0D01*
G01*
X22380799Y-7391155D02*
G75*
G02*
X22420799Y-7391155I20000J0D01*
G01*
X22421100Y-9085488D02*
G75*
G02*
X22381100Y-9085488I-20000J0D01*
G01*
X22381100Y-9085488D02*
G75*
G02*
X22421100Y-9085488I20000J0D01*
G01*
X22475417Y-9219930D02*
G75*
G02*
X22435417Y-9219930I-20000J0D01*
G01*
X22435417Y-9219930D02*
G75*
G02*
X22475417Y-9219930I20000J0D01*
G01*
X22485576Y-7540913D02*
G75*
G02*
X22445576Y-7540913I-20000J0D01*
G01*
X22445576Y-7540913D02*
G75*
G02*
X22485576Y-7540913I20000J0D01*
G01*
X22537408Y-7679597D02*
G75*
G02*
X22497408Y-7679597I-20000J0D01*
G01*
X22497408Y-7679597D02*
G75*
G02*
X22537408Y-7679597I20000J0D01*
G01*
X22555541Y-9031172D02*
G75*
G02*
X22515541Y-9031172I-20000J0D01*
G01*
X22515541Y-9031172D02*
G75*
G02*
X22555541Y-9031172I20000J0D01*
G01*
X22564289Y-8173841D02*
G75*
G02*
X22524289Y-8173841I-20000J0D01*
G01*
X22524289Y-8173841D02*
G75*
G02*
X22564289Y-8173841I20000J0D01*
G01*
X22609860Y-9165612D02*
G75*
G02*
X22569860Y-9165612I-20000J0D01*
G01*
X22569860Y-9165612D02*
G75*
G02*
X22609860Y-9165612I20000J0D01*
G01*
X22672757Y-8068285D02*
G75*
G02*
X22632757Y-8068285I-20000J0D01*
G01*
X22632757Y-8068285D02*
G75*
G02*
X22672757Y-8068285I20000J0D01*
G01*
X22674318Y-10497349D02*
G75*
G02*
X22634318Y-10497349I-20000J0D01*
G01*
X22634318Y-10497349D02*
G75*
G02*
X22674318Y-10497349I20000J0D01*
G01*
X22781225Y-8942651D02*
G75*
G02*
X22741225Y-8942651I-20000J0D01*
G01*
X22741225Y-8942651D02*
G75*
G02*
X22781225Y-8942651I20000J0D01*
G01*
X22790979Y-9093759D02*
G75*
G02*
X22750979Y-9093759I-20000J0D01*
G01*
X22750979Y-9093759D02*
G75*
G02*
X22790979Y-9093759I20000J0D01*
G01*
X22800526Y-10575698D02*
G75*
G02*
X22760526Y-10575698I-20000J0D01*
G01*
X22760526Y-10575698D02*
G75*
G02*
X22800526Y-10575698I20000J0D01*
G01*
X22817227Y-9809044D02*
G75*
G02*
X22777227Y-9809044I-20000J0D01*
G01*
X22777227Y-9809044D02*
G75*
G02*
X22817227Y-9809044I20000J0D01*
G01*
X22832654Y-10128910D02*
G75*
G02*
X22792654Y-10128910I-20000J0D01*
G01*
X22792654Y-10128910D02*
G75*
G02*
X22832654Y-10128910I20000J0D01*
G01*
X22982527Y-10142700D02*
G75*
G02*
X22942527Y-10142700I-20000J0D01*
G01*
X22942527Y-10142700D02*
G75*
G02*
X22982527Y-10142700I20000J0D01*
G01*
X23104833Y-9226981D02*
G75*
G02*
X23064833Y-9226981I-20000J0D01*
G01*
X23064833Y-9226981D02*
G75*
G02*
X23104833Y-9226981I20000J0D01*
G01*
X23190121Y-5311345D02*
G75*
G02*
X23150121Y-5311345I-20000J0D01*
G01*
X23150121Y-5311345D02*
G75*
G02*
X23190121Y-5311345I20000J0D01*
G01*
X23226017Y-9129699D02*
G75*
G02*
X23186017Y-9129699I-20000J0D01*
G01*
X23186017Y-9129699D02*
G75*
G02*
X23226017Y-9129699I20000J0D01*
G01*
X23237406Y-5448419D02*
G75*
G02*
X23197406Y-5448419I-20000J0D01*
G01*
X23197406Y-5448419D02*
G75*
G02*
X23237406Y-5448419I20000J0D01*
G01*
X23296077Y-5311924D02*
G75*
G02*
X23256077Y-5311924I-20000J0D01*
G01*
X23256077Y-5311924D02*
G75*
G02*
X23296077Y-5311924I20000J0D01*
G01*
X23416607Y-10090883D02*
G75*
G02*
X23376607Y-10090883I-20000J0D01*
G01*
X23376607Y-10090883D02*
G75*
G02*
X23416607Y-10090883I20000J0D01*
G01*
X23417251Y-10482911D02*
G75*
G02*
X23377251Y-10482911I-20000J0D01*
G01*
X23377251Y-10482911D02*
G75*
G02*
X23417251Y-10482911I20000J0D01*
G01*
X23431571Y-5547095D02*
G75*
G02*
X23391571Y-5547095I-20000J0D01*
G01*
X23391571Y-5547095D02*
G75*
G02*
X23431571Y-5547095I20000J0D01*
G01*
X23469133Y-5396329D02*
G75*
G02*
X23429133Y-5396329I-20000J0D01*
G01*
X23429133Y-5396329D02*
G75*
G02*
X23469133Y-5396329I20000J0D01*
G01*
X23476757Y-10306316D02*
G75*
G02*
X23436757Y-10306316I-20000J0D01*
G01*
X23436757Y-10306316D02*
G75*
G02*
X23476757Y-10306316I20000J0D01*
G01*
X23486013Y-10460437D02*
G75*
G02*
X23446013Y-10460437I-20000J0D01*
G01*
X23446013Y-10460437D02*
G75*
G02*
X23486013Y-10460437I20000J0D01*
G01*
X23496623Y-9901234D02*
G75*
G02*
X23456623Y-9901234I-20000J0D01*
G01*
X23456623Y-9901234D02*
G75*
G02*
X23496623Y-9901234I20000J0D01*
G01*
X23502359Y-10685749D02*
G75*
G02*
X23462359Y-10685749I-20000J0D01*
G01*
X23462359Y-10685749D02*
G75*
G02*
X23502359Y-10685749I20000J0D01*
G01*
X23555209Y-6060654D02*
G75*
G02*
X23515209Y-6060654I-20000J0D01*
G01*
X23515209Y-6060654D02*
G75*
G02*
X23555209Y-6060654I20000J0D01*
G01*
X23566386Y-5493251D02*
G75*
G02*
X23526386Y-5493251I-20000J0D01*
G01*
X23526386Y-5493251D02*
G75*
G02*
X23566386Y-5493251I20000J0D01*
G01*
X23618095Y-6134871D02*
G75*
G02*
X23578095Y-6134871I-20000J0D01*
G01*
X23578095Y-6134871D02*
G75*
G02*
X23618095Y-6134871I20000J0D01*
G01*
X23676781Y-6305310D02*
G75*
G02*
X23636781Y-6305310I-20000J0D01*
G01*
X23636781Y-6305310D02*
G75*
G02*
X23676781Y-6305310I20000J0D01*
G01*
X23752140Y-6478096D02*
G75*
G02*
X23712140Y-6478096I-20000J0D01*
G01*
X23712140Y-6478096D02*
G75*
G02*
X23752140Y-6478096I20000J0D01*
G01*
X23793723Y-6635256D02*
G75*
G02*
X23753723Y-6635256I-20000J0D01*
G01*
X23753723Y-6635256D02*
G75*
G02*
X23793723Y-6635256I20000J0D01*
G01*
X23794754Y-7093303D02*
G75*
G02*
X23754754Y-7093303I-20000J0D01*
G01*
X23754754Y-7093303D02*
G75*
G02*
X23794754Y-7093303I20000J0D01*
G01*
X23841961Y-7230402D02*
G75*
G02*
X23801961Y-7230402I-20000J0D01*
G01*
X23801961Y-7230402D02*
G75*
G02*
X23841961Y-7230402I20000J0D01*
G01*
X23908057Y-6762814D02*
G75*
G02*
X23868057Y-6762814I-20000J0D01*
G01*
X23868057Y-6762814D02*
G75*
G02*
X23908057Y-6762814I20000J0D01*
G01*
X23925048Y-10891908D02*
G75*
G02*
X23885048Y-10891908I-20000J0D01*
G01*
X23885048Y-10891908D02*
G75*
G02*
X23925048Y-10891908I20000J0D01*
G01*
X23931853Y-7046095D02*
G75*
G02*
X23891853Y-7046095I-20000J0D01*
G01*
X23891853Y-7046095D02*
G75*
G02*
X23931853Y-7046095I20000J0D01*
G01*
X23954731Y-6621089D02*
G75*
G02*
X23914731Y-6621089I-20000J0D01*
G01*
X23914731Y-6621089D02*
G75*
G02*
X23954731Y-6621089I20000J0D01*
G01*
X23979062Y-7183195D02*
G75*
G02*
X23939062Y-7183195I-20000J0D01*
G01*
X23939062Y-7183195D02*
G75*
G02*
X23979062Y-7183195I20000J0D01*
G01*
X24000246Y-10767257D02*
G75*
G02*
X23960246Y-10767257I-20000J0D01*
G01*
X23960246Y-10767257D02*
G75*
G02*
X24000246Y-10767257I20000J0D01*
G01*
X24029116Y-10563998D02*
G75*
G02*
X23989116Y-10563998I-20000J0D01*
G01*
X23989116Y-10563998D02*
G75*
G02*
X24029116Y-10563998I20000J0D01*
G01*
X24102168Y-6987452D02*
G75*
G02*
X24062168Y-6987452I-20000J0D01*
G01*
X24062168Y-6987452D02*
G75*
G02*
X24102168Y-6987452I20000J0D01*
G01*
X24151038Y-7123980D02*
G75*
G02*
X24111038Y-7123980I-20000J0D01*
G01*
X24111038Y-7123980D02*
G75*
G02*
X24151038Y-7123980I20000J0D01*
G01*
X24207410Y-7858560D02*
G75*
G02*
X24167410Y-7858560I-20000J0D01*
G01*
X24167410Y-7858560D02*
G75*
G02*
X24207410Y-7858560I20000J0D01*
G01*
X24245301Y-7002270D02*
G75*
G02*
X24205301Y-7002270I-20000J0D01*
G01*
X24205301Y-7002270D02*
G75*
G02*
X24245301Y-7002270I20000J0D01*
G01*
X24657136Y-10497701D02*
G75*
G02*
X24617136Y-10497701I-20000J0D01*
G01*
X24617136Y-10497701D02*
G75*
G02*
X24657136Y-10497701I20000J0D01*
G01*
X24701304Y-7445427D02*
G75*
G02*
X24661304Y-7445427I-20000J0D01*
G01*
X24661304Y-7445427D02*
G75*
G02*
X24701304Y-7445427I20000J0D01*
G01*
X24769589Y-7021682D02*
G75*
G02*
X24729589Y-7021682I-20000J0D01*
G01*
X24729589Y-7021682D02*
G75*
G02*
X24769589Y-7021682I20000J0D01*
G01*
X24807620Y-7190954D02*
G75*
G02*
X24767620Y-7190954I-20000J0D01*
G01*
X24767620Y-7190954D02*
G75*
G02*
X24807620Y-7190954I20000J0D01*
G01*
X24821032Y-7353202D02*
G75*
G02*
X24781032Y-7353202I-20000J0D01*
G01*
X24781032Y-7353202D02*
G75*
G02*
X24821032Y-7353202I20000J0D01*
G01*
X24826116Y-9655329D02*
G75*
G02*
X24786116Y-9655329I-20000J0D01*
G01*
X24786116Y-9655329D02*
G75*
G02*
X24826116Y-9655329I20000J0D01*
G01*
X24925328Y-10539554D02*
G75*
G02*
X24885328Y-10539554I-20000J0D01*
G01*
X24885328Y-10539554D02*
G75*
G02*
X24925328Y-10539554I20000J0D01*
G01*
X25077451Y-8925088D02*
G75*
G02*
X25037451Y-8925088I-20000J0D01*
G01*
X25037451Y-8925088D02*
G75*
G02*
X25077451Y-8925088I20000J0D01*
G01*
X25154330Y-9757838D02*
G75*
G02*
X25114330Y-9757838I-20000J0D01*
G01*
X25114330Y-9757838D02*
G75*
G02*
X25154330Y-9757838I20000J0D01*
G01*
X25228132Y-8851726D02*
G75*
G02*
X25188132Y-8851726I-20000J0D01*
G01*
X25188132Y-8851726D02*
G75*
G02*
X25228132Y-8851726I20000J0D01*
G01*
X25247721Y-9878367D02*
G75*
G02*
X25207721Y-9878367I-20000J0D01*
G01*
X25207721Y-9878367D02*
G75*
G02*
X25247721Y-9878367I20000J0D01*
G01*
X25260117Y-9032029D02*
G75*
G02*
X25220117Y-9032029I-20000J0D01*
G01*
X25220117Y-9032029D02*
G75*
G02*
X25260117Y-9032029I20000J0D01*
G01*
X26081616Y-6765468D02*
G75*
G02*
X26041616Y-6765468I-20000J0D01*
G01*
X26041616Y-6765468D02*
G75*
G02*
X26081616Y-6765468I20000J0D01*
G01*
X26518308Y-9408348D02*
G75*
G02*
X26478308Y-9408348I-20000J0D01*
G01*
X26478308Y-9408348D02*
G75*
G02*
X26518308Y-9408348I20000J0D01*
G01*
X26584171Y-8630437D02*
G75*
G02*
X26544171Y-8630437I-20000J0D01*
G01*
X26544171Y-8630437D02*
G75*
G02*
X26584171Y-8630437I20000J0D01*
G01*
X26625496Y-9226557D02*
G75*
G02*
X26585496Y-9226557I-20000J0D01*
G01*
X26585496Y-9226557D02*
G75*
G02*
X26625496Y-9226557I20000J0D01*
G01*
X26627838Y-9507591D02*
G75*
G02*
X26587838Y-9507591I-20000J0D01*
G01*
X26587838Y-9507591D02*
G75*
G02*
X26627838Y-9507591I20000J0D01*
G01*
X26772314Y-9263996D02*
G75*
G02*
X26732314Y-9263996I-20000J0D01*
G01*
X26732314Y-9263996D02*
G75*
G02*
X26772314Y-9263996I20000J0D01*
G01*
X14477094Y-10776929D02*
X14477094Y-10876929D01*
X14427094Y-10826929D02*
X14527094Y-10826929D01*
X14731095Y-10776929D02*
X14731095Y-10876929D01*
X14681095Y-10826929D02*
X14781095Y-10826929D01*
X15106937Y-11547837D02*
X15106937Y-11647837D01*
X15056937Y-11597837D02*
X15156937Y-11597837D01*
X15106937Y-11039838D02*
X15106937Y-11139838D01*
X15056937Y-11089838D02*
X15156937Y-11089838D01*
X15106938Y-11801839D02*
X15106938Y-11901839D01*
X15056938Y-11851839D02*
X15156938Y-11851839D01*
X15106938Y-11293837D02*
X15106938Y-11393837D01*
X15056938Y-11343837D02*
X15156938Y-11343837D01*
X15106938Y-12055837D02*
X15106938Y-12155837D01*
X15056938Y-12105837D02*
X15156938Y-12105837D01*
X15106938Y-12309838D02*
X15106938Y-12409838D01*
X15056938Y-12359838D02*
X15156938Y-12359838D01*
X15106938Y-10785838D02*
X15106938Y-10885838D01*
X15056938Y-10835838D02*
X15156938Y-10835838D01*
X16630938Y-12309838D02*
X16630938Y-12409838D01*
X16580938Y-12359838D02*
X16680938Y-12359838D01*
X16630938Y-10785838D02*
X16630938Y-10885838D01*
X16580938Y-10835838D02*
X16680938Y-10835838D01*
X16630938Y-11039838D02*
X16630938Y-11139838D01*
X16580938Y-11089838D02*
X16680938Y-11089838D01*
X16630938Y-11801838D02*
X16630938Y-11901838D01*
X16580938Y-11851838D02*
X16680938Y-11851838D01*
X16630939Y-11293836D02*
X16630939Y-11393836D01*
X16580939Y-11343836D02*
X16680939Y-11343836D01*
X16630939Y-12055837D02*
X16630939Y-12155837D01*
X16580939Y-12105837D02*
X16680939Y-12105837D01*
X16630939Y-11547838D02*
X16630939Y-11647838D01*
X16580939Y-11597838D02*
X16680939Y-11597838D01*
D14*
X15460360Y-11602059D02*
X15460360Y-11530216D01*
X15388517Y-11530216D01*
X15388517Y-11602059D01*
X15460360Y-11602059D01*
X15777210Y-11031209D02*
X15777210Y-10959366D01*
X15705367Y-10959366D01*
X15705367Y-11031209D01*
X15777210Y-11031209D01*
X16285860Y-12554558D02*
X16285860Y-12482715D01*
X16214017Y-12482715D01*
X16214017Y-12554558D01*
X16285860Y-12554558D01*
D15*
X11976583Y-11920182D02*
X12041583Y-11855182D01*
X11976583Y-11790182D01*
X11911583Y-11855182D01*
X11976583Y-11920182D01*
X12579253Y-12163676D02*
X12644253Y-12098676D01*
X12579253Y-12033676D01*
X12514253Y-12098676D01*
X12579253Y-12163676D01*
D11*
X5029061Y-16083845D02*
X5029061Y-15883845D01*
X5029061Y-15883845D02*
X5076680Y-15883845D01*
X5076680Y-15883845D02*
X5105251Y-15893369D01*
X5105251Y-15893369D02*
X5124299Y-15912417D01*
X5124299Y-15912417D02*
X5133823Y-15931464D01*
X5133823Y-15931464D02*
X5143346Y-15969559D01*
X5143346Y-15969559D02*
X5143346Y-15998131D01*
X5143346Y-15998131D02*
X5133823Y-16036226D01*
X5133823Y-16036226D02*
X5124299Y-16055274D01*
X5124299Y-16055274D02*
X5105251Y-16074321D01*
X5105251Y-16074321D02*
X5076680Y-16083845D01*
X5076680Y-16083845D02*
X5029061Y-16083845D01*
X5229061Y-16083845D02*
X5229061Y-15950512D01*
X5229061Y-15988607D02*
X5238584Y-15969559D01*
X5238584Y-15969559D02*
X5248108Y-15960036D01*
X5248108Y-15960036D02*
X5267156Y-15950512D01*
X5267156Y-15950512D02*
X5286204Y-15950512D01*
X5352870Y-16083845D02*
X5352870Y-15950512D01*
X5352870Y-15883845D02*
X5343346Y-15893369D01*
X5343346Y-15893369D02*
X5352870Y-15902893D01*
X5352870Y-15902893D02*
X5362394Y-15893369D01*
X5362394Y-15893369D02*
X5352870Y-15883845D01*
X5352870Y-15883845D02*
X5352870Y-15902893D01*
X5476680Y-16083845D02*
X5457632Y-16074321D01*
X5457632Y-16074321D02*
X5448108Y-16055274D01*
X5448108Y-16055274D02*
X5448108Y-15883845D01*
X5581442Y-16083845D02*
X5562394Y-16074321D01*
X5562394Y-16074321D02*
X5552870Y-16055274D01*
X5552870Y-16055274D02*
X5552870Y-15883845D01*
X5810013Y-16083845D02*
X5810013Y-15883845D01*
X5810013Y-15883845D02*
X5876680Y-16026702D01*
X5876680Y-16026702D02*
X5943346Y-15883845D01*
X5943346Y-15883845D02*
X5943346Y-16083845D01*
X6124299Y-16083845D02*
X6124299Y-15979083D01*
X6124299Y-15979083D02*
X6114775Y-15960036D01*
X6114775Y-15960036D02*
X6095727Y-15950512D01*
X6095727Y-15950512D02*
X6057632Y-15950512D01*
X6057632Y-15950512D02*
X6038584Y-15960036D01*
X6124299Y-16074321D02*
X6105251Y-16083845D01*
X6105251Y-16083845D02*
X6057632Y-16083845D01*
X6057632Y-16083845D02*
X6038584Y-16074321D01*
X6038584Y-16074321D02*
X6029061Y-16055274D01*
X6029061Y-16055274D02*
X6029061Y-16036226D01*
X6029061Y-16036226D02*
X6038584Y-16017178D01*
X6038584Y-16017178D02*
X6057632Y-16007655D01*
X6057632Y-16007655D02*
X6105251Y-16007655D01*
X6105251Y-16007655D02*
X6124299Y-15998131D01*
X6219537Y-15950512D02*
X6219537Y-16150512D01*
X6219537Y-15960036D02*
X6238584Y-15950512D01*
X6238584Y-15950512D02*
X6276680Y-15950512D01*
X6276680Y-15950512D02*
X6295727Y-15960036D01*
X6295727Y-15960036D02*
X6305251Y-15969559D01*
X6305251Y-15969559D02*
X6314775Y-15988607D01*
X6314775Y-15988607D02*
X6314775Y-16045750D01*
X6314775Y-16045750D02*
X6305251Y-16064797D01*
X6305251Y-16064797D02*
X6295727Y-16074321D01*
X6295727Y-16074321D02*
X6276680Y-16083845D01*
X6276680Y-16083845D02*
X6238584Y-16083845D01*
X6238584Y-16083845D02*
X6219537Y-16074321D01*
X6400489Y-16064797D02*
X6410013Y-16074321D01*
X6410013Y-16074321D02*
X6400489Y-16083845D01*
X6400489Y-16083845D02*
X6390965Y-16074321D01*
X6390965Y-16074321D02*
X6400489Y-16064797D01*
X6400489Y-16064797D02*
X6400489Y-16083845D01*
X6400489Y-15960036D02*
X6410013Y-15969559D01*
X6410013Y-15969559D02*
X6400489Y-15979083D01*
X6400489Y-15979083D02*
X6390965Y-15969559D01*
X6390965Y-15969559D02*
X6400489Y-15960036D01*
X6400489Y-15960036D02*
X6400489Y-15979083D01*
D13*
X4738284Y-16397361D02*
X4768284Y-16427361D01*
X4768284Y-16397361D02*
X4738284Y-16427361D01*
D11*
X5067156Y-16303845D02*
X5086204Y-16303845D01*
X5086204Y-16303845D02*
X5105251Y-16313369D01*
X5105251Y-16313369D02*
X5114775Y-16322893D01*
X5114775Y-16322893D02*
X5124299Y-16341940D01*
X5124299Y-16341940D02*
X5133823Y-16380036D01*
X5133823Y-16380036D02*
X5133823Y-16427655D01*
X5133823Y-16427655D02*
X5124299Y-16465750D01*
X5124299Y-16465750D02*
X5114775Y-16484797D01*
X5114775Y-16484797D02*
X5105251Y-16494321D01*
X5105251Y-16494321D02*
X5086204Y-16503845D01*
X5086204Y-16503845D02*
X5067156Y-16503845D01*
X5067156Y-16503845D02*
X5048108Y-16494321D01*
X5048108Y-16494321D02*
X5038584Y-16484797D01*
X5038584Y-16484797D02*
X5029061Y-16465750D01*
X5029061Y-16465750D02*
X5019537Y-16427655D01*
X5019537Y-16427655D02*
X5019537Y-16380036D01*
X5019537Y-16380036D02*
X5029061Y-16341940D01*
X5029061Y-16341940D02*
X5038584Y-16322893D01*
X5038584Y-16322893D02*
X5048108Y-16313369D01*
X5048108Y-16313369D02*
X5067156Y-16303845D01*
X5219537Y-16484797D02*
X5229061Y-16494321D01*
X5229061Y-16494321D02*
X5219537Y-16503845D01*
X5219537Y-16503845D02*
X5210013Y-16494321D01*
X5210013Y-16494321D02*
X5219537Y-16484797D01*
X5219537Y-16484797D02*
X5219537Y-16503845D01*
X5295727Y-16303845D02*
X5419537Y-16303845D01*
X5419537Y-16303845D02*
X5352870Y-16380036D01*
X5352870Y-16380036D02*
X5381442Y-16380036D01*
X5381442Y-16380036D02*
X5400489Y-16389559D01*
X5400489Y-16389559D02*
X5410013Y-16399083D01*
X5410013Y-16399083D02*
X5419537Y-16418131D01*
X5419537Y-16418131D02*
X5419537Y-16465750D01*
X5419537Y-16465750D02*
X5410013Y-16484797D01*
X5410013Y-16484797D02*
X5400489Y-16494321D01*
X5400489Y-16494321D02*
X5381442Y-16503845D01*
X5381442Y-16503845D02*
X5324299Y-16503845D01*
X5324299Y-16503845D02*
X5305251Y-16494321D01*
X5305251Y-16494321D02*
X5295727Y-16484797D01*
X5543346Y-16303845D02*
X5562394Y-16303845D01*
X5562394Y-16303845D02*
X5581442Y-16313369D01*
X5581442Y-16313369D02*
X5590965Y-16322893D01*
X5590965Y-16322893D02*
X5600489Y-16341940D01*
X5600489Y-16341940D02*
X5610013Y-16380036D01*
X5610013Y-16380036D02*
X5610013Y-16427655D01*
X5610013Y-16427655D02*
X5600489Y-16465750D01*
X5600489Y-16465750D02*
X5590965Y-16484797D01*
X5590965Y-16484797D02*
X5581442Y-16494321D01*
X5581442Y-16494321D02*
X5562394Y-16503845D01*
X5562394Y-16503845D02*
X5543346Y-16503845D01*
X5543346Y-16503845D02*
X5524299Y-16494321D01*
X5524299Y-16494321D02*
X5514775Y-16484797D01*
X5514775Y-16484797D02*
X5505251Y-16465750D01*
X5505251Y-16465750D02*
X5495727Y-16427655D01*
X5495727Y-16427655D02*
X5495727Y-16380036D01*
X5495727Y-16380036D02*
X5505251Y-16341940D01*
X5505251Y-16341940D02*
X5514775Y-16322893D01*
X5514775Y-16322893D02*
X5524299Y-16313369D01*
X5524299Y-16313369D02*
X5543346Y-16303845D01*
X5733822Y-16303845D02*
X5752870Y-16303845D01*
X5752870Y-16303845D02*
X5771918Y-16313369D01*
X5771918Y-16313369D02*
X5781442Y-16322893D01*
X5781442Y-16322893D02*
X5790965Y-16341940D01*
X5790965Y-16341940D02*
X5800489Y-16380036D01*
X5800489Y-16380036D02*
X5800489Y-16427655D01*
X5800489Y-16427655D02*
X5790965Y-16465750D01*
X5790965Y-16465750D02*
X5781442Y-16484797D01*
X5781442Y-16484797D02*
X5771918Y-16494321D01*
X5771918Y-16494321D02*
X5752870Y-16503845D01*
X5752870Y-16503845D02*
X5733822Y-16503845D01*
X5733822Y-16503845D02*
X5714775Y-16494321D01*
X5714775Y-16494321D02*
X5705251Y-16484797D01*
X5705251Y-16484797D02*
X5695727Y-16465750D01*
X5695727Y-16465750D02*
X5686203Y-16427655D01*
X5686203Y-16427655D02*
X5686203Y-16380036D01*
X5686203Y-16380036D02*
X5695727Y-16341940D01*
X5695727Y-16341940D02*
X5705251Y-16322893D01*
X5705251Y-16322893D02*
X5714775Y-16313369D01*
X5714775Y-16313369D02*
X5733822Y-16303845D01*
X5886203Y-16503845D02*
X5886203Y-16370512D01*
X5886203Y-16389559D02*
X5895727Y-16380036D01*
X5895727Y-16380036D02*
X5914775Y-16370512D01*
X5914775Y-16370512D02*
X5943346Y-16370512D01*
X5943346Y-16370512D02*
X5962394Y-16380036D01*
X5962394Y-16380036D02*
X5971918Y-16399083D01*
X5971918Y-16399083D02*
X5971918Y-16503845D01*
X5971918Y-16399083D02*
X5981442Y-16380036D01*
X5981442Y-16380036D02*
X6000489Y-16370512D01*
X6000489Y-16370512D02*
X6029061Y-16370512D01*
X6029061Y-16370512D02*
X6048108Y-16380036D01*
X6048108Y-16380036D02*
X6057632Y-16399083D01*
X6057632Y-16399083D02*
X6057632Y-16503845D01*
X6152870Y-16503845D02*
X6152870Y-16370512D01*
X6152870Y-16389559D02*
X6162394Y-16380036D01*
X6162394Y-16380036D02*
X6181442Y-16370512D01*
X6181442Y-16370512D02*
X6210013Y-16370512D01*
X6210013Y-16370512D02*
X6229061Y-16380036D01*
X6229061Y-16380036D02*
X6238584Y-16399083D01*
X6238584Y-16399083D02*
X6238584Y-16503845D01*
X6238584Y-16399083D02*
X6248108Y-16380036D01*
X6248108Y-16380036D02*
X6267156Y-16370512D01*
X6267156Y-16370512D02*
X6295727Y-16370512D01*
X6295727Y-16370512D02*
X6314775Y-16380036D01*
X6314775Y-16380036D02*
X6324299Y-16399083D01*
X6324299Y-16399083D02*
X6324299Y-16503845D01*
X6714775Y-16294321D02*
X6543346Y-16551464D01*
X6971918Y-16303845D02*
X6990966Y-16303845D01*
X6990966Y-16303845D02*
X7010013Y-16313369D01*
X7010013Y-16313369D02*
X7019537Y-16322893D01*
X7019537Y-16322893D02*
X7029061Y-16341940D01*
X7029061Y-16341940D02*
X7038585Y-16380036D01*
X7038585Y-16380036D02*
X7038585Y-16427655D01*
X7038585Y-16427655D02*
X7029061Y-16465750D01*
X7029061Y-16465750D02*
X7019537Y-16484797D01*
X7019537Y-16484797D02*
X7010013Y-16494321D01*
X7010013Y-16494321D02*
X6990966Y-16503845D01*
X6990966Y-16503845D02*
X6971918Y-16503845D01*
X6971918Y-16503845D02*
X6952870Y-16494321D01*
X6952870Y-16494321D02*
X6943346Y-16484797D01*
X6943346Y-16484797D02*
X6933823Y-16465750D01*
X6933823Y-16465750D02*
X6924299Y-16427655D01*
X6924299Y-16427655D02*
X6924299Y-16380036D01*
X6924299Y-16380036D02*
X6933823Y-16341940D01*
X6933823Y-16341940D02*
X6943346Y-16322893D01*
X6943346Y-16322893D02*
X6952870Y-16313369D01*
X6952870Y-16313369D02*
X6971918Y-16303845D01*
X7124299Y-16484797D02*
X7133823Y-16494321D01*
X7133823Y-16494321D02*
X7124299Y-16503845D01*
X7124299Y-16503845D02*
X7114775Y-16494321D01*
X7114775Y-16494321D02*
X7124299Y-16484797D01*
X7124299Y-16484797D02*
X7124299Y-16503845D01*
X7257632Y-16303845D02*
X7276680Y-16303845D01*
X7276680Y-16303845D02*
X7295727Y-16313369D01*
X7295727Y-16313369D02*
X7305251Y-16322893D01*
X7305251Y-16322893D02*
X7314775Y-16341940D01*
X7314775Y-16341940D02*
X7324299Y-16380036D01*
X7324299Y-16380036D02*
X7324299Y-16427655D01*
X7324299Y-16427655D02*
X7314775Y-16465750D01*
X7314775Y-16465750D02*
X7305251Y-16484797D01*
X7305251Y-16484797D02*
X7295727Y-16494321D01*
X7295727Y-16494321D02*
X7276680Y-16503845D01*
X7276680Y-16503845D02*
X7257632Y-16503845D01*
X7257632Y-16503845D02*
X7238585Y-16494321D01*
X7238585Y-16494321D02*
X7229061Y-16484797D01*
X7229061Y-16484797D02*
X7219537Y-16465750D01*
X7219537Y-16465750D02*
X7210013Y-16427655D01*
X7210013Y-16427655D02*
X7210013Y-16380036D01*
X7210013Y-16380036D02*
X7219537Y-16341940D01*
X7219537Y-16341940D02*
X7229061Y-16322893D01*
X7229061Y-16322893D02*
X7238585Y-16313369D01*
X7238585Y-16313369D02*
X7257632Y-16303845D01*
X7514775Y-16503845D02*
X7400489Y-16503845D01*
X7457632Y-16503845D02*
X7457632Y-16303845D01*
X7457632Y-16303845D02*
X7438585Y-16332417D01*
X7438585Y-16332417D02*
X7419537Y-16351464D01*
X7419537Y-16351464D02*
X7400489Y-16360988D01*
X7705251Y-16503845D02*
X7590966Y-16503845D01*
X7648108Y-16503845D02*
X7648108Y-16303845D01*
X7648108Y-16303845D02*
X7629061Y-16332417D01*
X7629061Y-16332417D02*
X7610013Y-16351464D01*
X7610013Y-16351464D02*
X7590966Y-16360988D01*
X7819537Y-16389559D02*
X7800489Y-16380036D01*
X7800489Y-16380036D02*
X7790966Y-16370512D01*
X7790966Y-16370512D02*
X7781442Y-16351464D01*
X7781442Y-16351464D02*
X7781442Y-16341940D01*
X7781442Y-16341940D02*
X7790966Y-16322893D01*
X7790966Y-16322893D02*
X7800489Y-16313369D01*
X7800489Y-16313369D02*
X7819537Y-16303845D01*
X7819537Y-16303845D02*
X7857632Y-16303845D01*
X7857632Y-16303845D02*
X7876680Y-16313369D01*
X7876680Y-16313369D02*
X7886204Y-16322893D01*
X7886204Y-16322893D02*
X7895727Y-16341940D01*
X7895727Y-16341940D02*
X7895727Y-16351464D01*
X7895727Y-16351464D02*
X7886204Y-16370512D01*
X7886204Y-16370512D02*
X7876680Y-16380036D01*
X7876680Y-16380036D02*
X7857632Y-16389559D01*
X7857632Y-16389559D02*
X7819537Y-16389559D01*
X7819537Y-16389559D02*
X7800489Y-16399083D01*
X7800489Y-16399083D02*
X7790966Y-16408607D01*
X7790966Y-16408607D02*
X7781442Y-16427655D01*
X7781442Y-16427655D02*
X7781442Y-16465750D01*
X7781442Y-16465750D02*
X7790966Y-16484797D01*
X7790966Y-16484797D02*
X7800489Y-16494321D01*
X7800489Y-16494321D02*
X7819537Y-16503845D01*
X7819537Y-16503845D02*
X7857632Y-16503845D01*
X7857632Y-16503845D02*
X7876680Y-16494321D01*
X7876680Y-16494321D02*
X7886204Y-16484797D01*
X7886204Y-16484797D02*
X7895727Y-16465750D01*
X7895727Y-16465750D02*
X7895727Y-16427655D01*
X7895727Y-16427655D02*
X7886204Y-16408607D01*
X7886204Y-16408607D02*
X7876680Y-16399083D01*
X7876680Y-16399083D02*
X7857632Y-16389559D01*
X7971918Y-16303845D02*
X7971918Y-16341940D01*
X8048108Y-16303845D02*
X8048108Y-16341940D01*
X8343347Y-16580036D02*
X8333823Y-16570512D01*
X8333823Y-16570512D02*
X8314775Y-16541940D01*
X8314775Y-16541940D02*
X8305251Y-16522893D01*
X8305251Y-16522893D02*
X8295728Y-16494321D01*
X8295728Y-16494321D02*
X8286204Y-16446702D01*
X8286204Y-16446702D02*
X8286204Y-16408607D01*
X8286204Y-16408607D02*
X8295728Y-16360988D01*
X8295728Y-16360988D02*
X8305251Y-16332417D01*
X8305251Y-16332417D02*
X8314775Y-16313369D01*
X8314775Y-16313369D02*
X8333823Y-16284797D01*
X8333823Y-16284797D02*
X8343347Y-16275274D01*
X8505251Y-16303845D02*
X8467156Y-16303845D01*
X8467156Y-16303845D02*
X8448109Y-16313369D01*
X8448109Y-16313369D02*
X8438585Y-16322893D01*
X8438585Y-16322893D02*
X8419537Y-16351464D01*
X8419537Y-16351464D02*
X8410013Y-16389559D01*
X8410013Y-16389559D02*
X8410013Y-16465750D01*
X8410013Y-16465750D02*
X8419537Y-16484797D01*
X8419537Y-16484797D02*
X8429061Y-16494321D01*
X8429061Y-16494321D02*
X8448109Y-16503845D01*
X8448109Y-16503845D02*
X8486204Y-16503845D01*
X8486204Y-16503845D02*
X8505251Y-16494321D01*
X8505251Y-16494321D02*
X8514775Y-16484797D01*
X8514775Y-16484797D02*
X8524299Y-16465750D01*
X8524299Y-16465750D02*
X8524299Y-16418131D01*
X8524299Y-16418131D02*
X8514775Y-16399083D01*
X8514775Y-16399083D02*
X8505251Y-16389559D01*
X8505251Y-16389559D02*
X8486204Y-16380036D01*
X8486204Y-16380036D02*
X8448109Y-16380036D01*
X8448109Y-16380036D02*
X8429061Y-16389559D01*
X8429061Y-16389559D02*
X8419537Y-16399083D01*
X8419537Y-16399083D02*
X8410013Y-16418131D01*
X8648109Y-16303845D02*
X8667156Y-16303845D01*
X8667156Y-16303845D02*
X8686204Y-16313369D01*
X8686204Y-16313369D02*
X8695728Y-16322893D01*
X8695728Y-16322893D02*
X8705251Y-16341940D01*
X8705251Y-16341940D02*
X8714775Y-16380036D01*
X8714775Y-16380036D02*
X8714775Y-16427655D01*
X8714775Y-16427655D02*
X8705251Y-16465750D01*
X8705251Y-16465750D02*
X8695728Y-16484797D01*
X8695728Y-16484797D02*
X8686204Y-16494321D01*
X8686204Y-16494321D02*
X8667156Y-16503845D01*
X8667156Y-16503845D02*
X8648109Y-16503845D01*
X8648109Y-16503845D02*
X8629061Y-16494321D01*
X8629061Y-16494321D02*
X8619537Y-16484797D01*
X8619537Y-16484797D02*
X8610013Y-16465750D01*
X8610013Y-16465750D02*
X8600490Y-16427655D01*
X8600490Y-16427655D02*
X8600490Y-16380036D01*
X8600490Y-16380036D02*
X8610013Y-16341940D01*
X8610013Y-16341940D02*
X8619537Y-16322893D01*
X8619537Y-16322893D02*
X8629061Y-16313369D01*
X8629061Y-16313369D02*
X8648109Y-16303845D01*
X8952871Y-16503845D02*
X8952871Y-16303845D01*
X9038585Y-16503845D02*
X9038585Y-16399083D01*
X9038585Y-16399083D02*
X9029061Y-16380036D01*
X9029061Y-16380036D02*
X9010013Y-16370512D01*
X9010013Y-16370512D02*
X8981442Y-16370512D01*
X8981442Y-16370512D02*
X8962394Y-16380036D01*
X8962394Y-16380036D02*
X8952871Y-16389559D01*
X9162394Y-16503845D02*
X9143347Y-16494321D01*
X9143347Y-16494321D02*
X9133823Y-16484797D01*
X9133823Y-16484797D02*
X9124299Y-16465750D01*
X9124299Y-16465750D02*
X9124299Y-16408607D01*
X9124299Y-16408607D02*
X9133823Y-16389559D01*
X9133823Y-16389559D02*
X9143347Y-16380036D01*
X9143347Y-16380036D02*
X9162394Y-16370512D01*
X9162394Y-16370512D02*
X9190966Y-16370512D01*
X9190966Y-16370512D02*
X9210013Y-16380036D01*
X9210013Y-16380036D02*
X9219537Y-16389559D01*
X9219537Y-16389559D02*
X9229061Y-16408607D01*
X9229061Y-16408607D02*
X9229061Y-16465750D01*
X9229061Y-16465750D02*
X9219537Y-16484797D01*
X9219537Y-16484797D02*
X9210013Y-16494321D01*
X9210013Y-16494321D02*
X9190966Y-16503845D01*
X9190966Y-16503845D02*
X9162394Y-16503845D01*
X9343347Y-16503845D02*
X9324299Y-16494321D01*
X9324299Y-16494321D02*
X9314775Y-16475274D01*
X9314775Y-16475274D02*
X9314775Y-16303845D01*
X9495728Y-16494321D02*
X9476680Y-16503845D01*
X9476680Y-16503845D02*
X9438585Y-16503845D01*
X9438585Y-16503845D02*
X9419537Y-16494321D01*
X9419537Y-16494321D02*
X9410013Y-16475274D01*
X9410013Y-16475274D02*
X9410013Y-16399083D01*
X9410013Y-16399083D02*
X9419537Y-16380036D01*
X9419537Y-16380036D02*
X9438585Y-16370512D01*
X9438585Y-16370512D02*
X9476680Y-16370512D01*
X9476680Y-16370512D02*
X9495728Y-16380036D01*
X9495728Y-16380036D02*
X9505252Y-16399083D01*
X9505252Y-16399083D02*
X9505252Y-16418131D01*
X9505252Y-16418131D02*
X9410013Y-16437178D01*
X9581442Y-16494321D02*
X9600490Y-16503845D01*
X9600490Y-16503845D02*
X9638585Y-16503845D01*
X9638585Y-16503845D02*
X9657633Y-16494321D01*
X9657633Y-16494321D02*
X9667156Y-16475274D01*
X9667156Y-16475274D02*
X9667156Y-16465750D01*
X9667156Y-16465750D02*
X9657633Y-16446702D01*
X9657633Y-16446702D02*
X9638585Y-16437178D01*
X9638585Y-16437178D02*
X9610013Y-16437178D01*
X9610013Y-16437178D02*
X9590966Y-16427655D01*
X9590966Y-16427655D02*
X9581442Y-16408607D01*
X9581442Y-16408607D02*
X9581442Y-16399083D01*
X9581442Y-16399083D02*
X9590966Y-16380036D01*
X9590966Y-16380036D02*
X9610013Y-16370512D01*
X9610013Y-16370512D02*
X9638585Y-16370512D01*
X9638585Y-16370512D02*
X9657633Y-16380036D01*
X9733823Y-16580036D02*
X9743347Y-16570512D01*
X9743347Y-16570512D02*
X9762394Y-16541940D01*
X9762394Y-16541940D02*
X9771918Y-16522893D01*
X9771918Y-16522893D02*
X9781442Y-16494321D01*
X9781442Y-16494321D02*
X9790966Y-16446702D01*
X9790966Y-16446702D02*
X9790966Y-16408607D01*
X9790966Y-16408607D02*
X9781442Y-16360988D01*
X9781442Y-16360988D02*
X9771918Y-16332417D01*
X9771918Y-16332417D02*
X9762394Y-16313369D01*
X9762394Y-16313369D02*
X9743347Y-16284797D01*
X9743347Y-16284797D02*
X9733823Y-16275274D01*
D13*
X4768284Y-16676361D02*
G75*
G02*
X4728284Y-16676361I-20000J0D01*
G01*
X4728284Y-16676361D02*
G75*
G02*
X4768284Y-16676361I20000J0D01*
G01*
D11*
X5067156Y-16567845D02*
X5086204Y-16567845D01*
X5086204Y-16567845D02*
X5105251Y-16577369D01*
X5105251Y-16577369D02*
X5114775Y-16586893D01*
X5114775Y-16586893D02*
X5124299Y-16605940D01*
X5124299Y-16605940D02*
X5133823Y-16644036D01*
X5133823Y-16644036D02*
X5133823Y-16691655D01*
X5133823Y-16691655D02*
X5124299Y-16729750D01*
X5124299Y-16729750D02*
X5114775Y-16748797D01*
X5114775Y-16748797D02*
X5105251Y-16758321D01*
X5105251Y-16758321D02*
X5086204Y-16767845D01*
X5086204Y-16767845D02*
X5067156Y-16767845D01*
X5067156Y-16767845D02*
X5048108Y-16758321D01*
X5048108Y-16758321D02*
X5038584Y-16748797D01*
X5038584Y-16748797D02*
X5029061Y-16729750D01*
X5029061Y-16729750D02*
X5019537Y-16691655D01*
X5019537Y-16691655D02*
X5019537Y-16644036D01*
X5019537Y-16644036D02*
X5029061Y-16605940D01*
X5029061Y-16605940D02*
X5038584Y-16586893D01*
X5038584Y-16586893D02*
X5048108Y-16577369D01*
X5048108Y-16577369D02*
X5067156Y-16567845D01*
X5219537Y-16748797D02*
X5229061Y-16758321D01*
X5229061Y-16758321D02*
X5219537Y-16767845D01*
X5219537Y-16767845D02*
X5210013Y-16758321D01*
X5210013Y-16758321D02*
X5219537Y-16748797D01*
X5219537Y-16748797D02*
X5219537Y-16767845D01*
X5400489Y-16634512D02*
X5400489Y-16767845D01*
X5352870Y-16558321D02*
X5305251Y-16701178D01*
X5305251Y-16701178D02*
X5429061Y-16701178D01*
X5543346Y-16567845D02*
X5562394Y-16567845D01*
X5562394Y-16567845D02*
X5581442Y-16577369D01*
X5581442Y-16577369D02*
X5590965Y-16586893D01*
X5590965Y-16586893D02*
X5600489Y-16605940D01*
X5600489Y-16605940D02*
X5610013Y-16644036D01*
X5610013Y-16644036D02*
X5610013Y-16691655D01*
X5610013Y-16691655D02*
X5600489Y-16729750D01*
X5600489Y-16729750D02*
X5590965Y-16748797D01*
X5590965Y-16748797D02*
X5581442Y-16758321D01*
X5581442Y-16758321D02*
X5562394Y-16767845D01*
X5562394Y-16767845D02*
X5543346Y-16767845D01*
X5543346Y-16767845D02*
X5524299Y-16758321D01*
X5524299Y-16758321D02*
X5514775Y-16748797D01*
X5514775Y-16748797D02*
X5505251Y-16729750D01*
X5505251Y-16729750D02*
X5495727Y-16691655D01*
X5495727Y-16691655D02*
X5495727Y-16644036D01*
X5495727Y-16644036D02*
X5505251Y-16605940D01*
X5505251Y-16605940D02*
X5514775Y-16586893D01*
X5514775Y-16586893D02*
X5524299Y-16577369D01*
X5524299Y-16577369D02*
X5543346Y-16567845D01*
X5733822Y-16567845D02*
X5752870Y-16567845D01*
X5752870Y-16567845D02*
X5771918Y-16577369D01*
X5771918Y-16577369D02*
X5781442Y-16586893D01*
X5781442Y-16586893D02*
X5790965Y-16605940D01*
X5790965Y-16605940D02*
X5800489Y-16644036D01*
X5800489Y-16644036D02*
X5800489Y-16691655D01*
X5800489Y-16691655D02*
X5790965Y-16729750D01*
X5790965Y-16729750D02*
X5781442Y-16748797D01*
X5781442Y-16748797D02*
X5771918Y-16758321D01*
X5771918Y-16758321D02*
X5752870Y-16767845D01*
X5752870Y-16767845D02*
X5733822Y-16767845D01*
X5733822Y-16767845D02*
X5714775Y-16758321D01*
X5714775Y-16758321D02*
X5705251Y-16748797D01*
X5705251Y-16748797D02*
X5695727Y-16729750D01*
X5695727Y-16729750D02*
X5686203Y-16691655D01*
X5686203Y-16691655D02*
X5686203Y-16644036D01*
X5686203Y-16644036D02*
X5695727Y-16605940D01*
X5695727Y-16605940D02*
X5705251Y-16586893D01*
X5705251Y-16586893D02*
X5714775Y-16577369D01*
X5714775Y-16577369D02*
X5733822Y-16567845D01*
X5886203Y-16767845D02*
X5886203Y-16634512D01*
X5886203Y-16653559D02*
X5895727Y-16644036D01*
X5895727Y-16644036D02*
X5914775Y-16634512D01*
X5914775Y-16634512D02*
X5943346Y-16634512D01*
X5943346Y-16634512D02*
X5962394Y-16644036D01*
X5962394Y-16644036D02*
X5971918Y-16663083D01*
X5971918Y-16663083D02*
X5971918Y-16767845D01*
X5971918Y-16663083D02*
X5981442Y-16644036D01*
X5981442Y-16644036D02*
X6000489Y-16634512D01*
X6000489Y-16634512D02*
X6029061Y-16634512D01*
X6029061Y-16634512D02*
X6048108Y-16644036D01*
X6048108Y-16644036D02*
X6057632Y-16663083D01*
X6057632Y-16663083D02*
X6057632Y-16767845D01*
X6152870Y-16767845D02*
X6152870Y-16634512D01*
X6152870Y-16653559D02*
X6162394Y-16644036D01*
X6162394Y-16644036D02*
X6181442Y-16634512D01*
X6181442Y-16634512D02*
X6210013Y-16634512D01*
X6210013Y-16634512D02*
X6229061Y-16644036D01*
X6229061Y-16644036D02*
X6238584Y-16663083D01*
X6238584Y-16663083D02*
X6238584Y-16767845D01*
X6238584Y-16663083D02*
X6248108Y-16644036D01*
X6248108Y-16644036D02*
X6267156Y-16634512D01*
X6267156Y-16634512D02*
X6295727Y-16634512D01*
X6295727Y-16634512D02*
X6314775Y-16644036D01*
X6314775Y-16644036D02*
X6324299Y-16663083D01*
X6324299Y-16663083D02*
X6324299Y-16767845D01*
X6714775Y-16558321D02*
X6543346Y-16815464D01*
X6971918Y-16567845D02*
X6990966Y-16567845D01*
X6990966Y-16567845D02*
X7010013Y-16577369D01*
X7010013Y-16577369D02*
X7019537Y-16586893D01*
X7019537Y-16586893D02*
X7029061Y-16605940D01*
X7029061Y-16605940D02*
X7038585Y-16644036D01*
X7038585Y-16644036D02*
X7038585Y-16691655D01*
X7038585Y-16691655D02*
X7029061Y-16729750D01*
X7029061Y-16729750D02*
X7019537Y-16748797D01*
X7019537Y-16748797D02*
X7010013Y-16758321D01*
X7010013Y-16758321D02*
X6990966Y-16767845D01*
X6990966Y-16767845D02*
X6971918Y-16767845D01*
X6971918Y-16767845D02*
X6952870Y-16758321D01*
X6952870Y-16758321D02*
X6943346Y-16748797D01*
X6943346Y-16748797D02*
X6933823Y-16729750D01*
X6933823Y-16729750D02*
X6924299Y-16691655D01*
X6924299Y-16691655D02*
X6924299Y-16644036D01*
X6924299Y-16644036D02*
X6933823Y-16605940D01*
X6933823Y-16605940D02*
X6943346Y-16586893D01*
X6943346Y-16586893D02*
X6952870Y-16577369D01*
X6952870Y-16577369D02*
X6971918Y-16567845D01*
X7124299Y-16748797D02*
X7133823Y-16758321D01*
X7133823Y-16758321D02*
X7124299Y-16767845D01*
X7124299Y-16767845D02*
X7114775Y-16758321D01*
X7114775Y-16758321D02*
X7124299Y-16748797D01*
X7124299Y-16748797D02*
X7124299Y-16767845D01*
X7257632Y-16567845D02*
X7276680Y-16567845D01*
X7276680Y-16567845D02*
X7295727Y-16577369D01*
X7295727Y-16577369D02*
X7305251Y-16586893D01*
X7305251Y-16586893D02*
X7314775Y-16605940D01*
X7314775Y-16605940D02*
X7324299Y-16644036D01*
X7324299Y-16644036D02*
X7324299Y-16691655D01*
X7324299Y-16691655D02*
X7314775Y-16729750D01*
X7314775Y-16729750D02*
X7305251Y-16748797D01*
X7305251Y-16748797D02*
X7295727Y-16758321D01*
X7295727Y-16758321D02*
X7276680Y-16767845D01*
X7276680Y-16767845D02*
X7257632Y-16767845D01*
X7257632Y-16767845D02*
X7238585Y-16758321D01*
X7238585Y-16758321D02*
X7229061Y-16748797D01*
X7229061Y-16748797D02*
X7219537Y-16729750D01*
X7219537Y-16729750D02*
X7210013Y-16691655D01*
X7210013Y-16691655D02*
X7210013Y-16644036D01*
X7210013Y-16644036D02*
X7219537Y-16605940D01*
X7219537Y-16605940D02*
X7229061Y-16586893D01*
X7229061Y-16586893D02*
X7238585Y-16577369D01*
X7238585Y-16577369D02*
X7257632Y-16567845D01*
X7514775Y-16767845D02*
X7400489Y-16767845D01*
X7457632Y-16767845D02*
X7457632Y-16567845D01*
X7457632Y-16567845D02*
X7438585Y-16596417D01*
X7438585Y-16596417D02*
X7419537Y-16615464D01*
X7419537Y-16615464D02*
X7400489Y-16624988D01*
X7695727Y-16567845D02*
X7600489Y-16567845D01*
X7600489Y-16567845D02*
X7590966Y-16663083D01*
X7590966Y-16663083D02*
X7600489Y-16653559D01*
X7600489Y-16653559D02*
X7619537Y-16644036D01*
X7619537Y-16644036D02*
X7667156Y-16644036D01*
X7667156Y-16644036D02*
X7686204Y-16653559D01*
X7686204Y-16653559D02*
X7695727Y-16663083D01*
X7695727Y-16663083D02*
X7705251Y-16682131D01*
X7705251Y-16682131D02*
X7705251Y-16729750D01*
X7705251Y-16729750D02*
X7695727Y-16748797D01*
X7695727Y-16748797D02*
X7686204Y-16758321D01*
X7686204Y-16758321D02*
X7667156Y-16767845D01*
X7667156Y-16767845D02*
X7619537Y-16767845D01*
X7619537Y-16767845D02*
X7600489Y-16758321D01*
X7600489Y-16758321D02*
X7590966Y-16748797D01*
X7771918Y-16567845D02*
X7905251Y-16567845D01*
X7905251Y-16567845D02*
X7819537Y-16767845D01*
X7971918Y-16567845D02*
X7971918Y-16605940D01*
X8048108Y-16567845D02*
X8048108Y-16605940D01*
X8343347Y-16844036D02*
X8333823Y-16834512D01*
X8333823Y-16834512D02*
X8314775Y-16805940D01*
X8314775Y-16805940D02*
X8305251Y-16786893D01*
X8305251Y-16786893D02*
X8295728Y-16758321D01*
X8295728Y-16758321D02*
X8286204Y-16710702D01*
X8286204Y-16710702D02*
X8286204Y-16672607D01*
X8286204Y-16672607D02*
X8295728Y-16624988D01*
X8295728Y-16624988D02*
X8305251Y-16596417D01*
X8305251Y-16596417D02*
X8314775Y-16577369D01*
X8314775Y-16577369D02*
X8333823Y-16548797D01*
X8333823Y-16548797D02*
X8343347Y-16539274D01*
X8514775Y-16567845D02*
X8419537Y-16567845D01*
X8419537Y-16567845D02*
X8410013Y-16663083D01*
X8410013Y-16663083D02*
X8419537Y-16653559D01*
X8419537Y-16653559D02*
X8438585Y-16644036D01*
X8438585Y-16644036D02*
X8486204Y-16644036D01*
X8486204Y-16644036D02*
X8505251Y-16653559D01*
X8505251Y-16653559D02*
X8514775Y-16663083D01*
X8514775Y-16663083D02*
X8524299Y-16682131D01*
X8524299Y-16682131D02*
X8524299Y-16729750D01*
X8524299Y-16729750D02*
X8514775Y-16748797D01*
X8514775Y-16748797D02*
X8505251Y-16758321D01*
X8505251Y-16758321D02*
X8486204Y-16767845D01*
X8486204Y-16767845D02*
X8438585Y-16767845D01*
X8438585Y-16767845D02*
X8419537Y-16758321D01*
X8419537Y-16758321D02*
X8410013Y-16748797D01*
X8590966Y-16567845D02*
X8714775Y-16567845D01*
X8714775Y-16567845D02*
X8648109Y-16644036D01*
X8648109Y-16644036D02*
X8676680Y-16644036D01*
X8676680Y-16644036D02*
X8695728Y-16653559D01*
X8695728Y-16653559D02*
X8705251Y-16663083D01*
X8705251Y-16663083D02*
X8714775Y-16682131D01*
X8714775Y-16682131D02*
X8714775Y-16729750D01*
X8714775Y-16729750D02*
X8705251Y-16748797D01*
X8705251Y-16748797D02*
X8695728Y-16758321D01*
X8695728Y-16758321D02*
X8676680Y-16767845D01*
X8676680Y-16767845D02*
X8619537Y-16767845D01*
X8619537Y-16767845D02*
X8600490Y-16758321D01*
X8600490Y-16758321D02*
X8590966Y-16748797D01*
X8838585Y-16567845D02*
X8857632Y-16567845D01*
X8857632Y-16567845D02*
X8876680Y-16577369D01*
X8876680Y-16577369D02*
X8886204Y-16586893D01*
X8886204Y-16586893D02*
X8895728Y-16605940D01*
X8895728Y-16605940D02*
X8905251Y-16644036D01*
X8905251Y-16644036D02*
X8905251Y-16691655D01*
X8905251Y-16691655D02*
X8895728Y-16729750D01*
X8895728Y-16729750D02*
X8886204Y-16748797D01*
X8886204Y-16748797D02*
X8876680Y-16758321D01*
X8876680Y-16758321D02*
X8857632Y-16767845D01*
X8857632Y-16767845D02*
X8838585Y-16767845D01*
X8838585Y-16767845D02*
X8819537Y-16758321D01*
X8819537Y-16758321D02*
X8810013Y-16748797D01*
X8810013Y-16748797D02*
X8800490Y-16729750D01*
X8800490Y-16729750D02*
X8790966Y-16691655D01*
X8790966Y-16691655D02*
X8790966Y-16644036D01*
X8790966Y-16644036D02*
X8800490Y-16605940D01*
X8800490Y-16605940D02*
X8810013Y-16586893D01*
X8810013Y-16586893D02*
X8819537Y-16577369D01*
X8819537Y-16577369D02*
X8838585Y-16567845D01*
X9143347Y-16767845D02*
X9143347Y-16567845D01*
X9229061Y-16767845D02*
X9229061Y-16663083D01*
X9229061Y-16663083D02*
X9219537Y-16644036D01*
X9219537Y-16644036D02*
X9200490Y-16634512D01*
X9200490Y-16634512D02*
X9171918Y-16634512D01*
X9171918Y-16634512D02*
X9152871Y-16644036D01*
X9152871Y-16644036D02*
X9143347Y-16653559D01*
X9352871Y-16767845D02*
X9333823Y-16758321D01*
X9333823Y-16758321D02*
X9324299Y-16748797D01*
X9324299Y-16748797D02*
X9314775Y-16729750D01*
X9314775Y-16729750D02*
X9314775Y-16672607D01*
X9314775Y-16672607D02*
X9324299Y-16653559D01*
X9324299Y-16653559D02*
X9333823Y-16644036D01*
X9333823Y-16644036D02*
X9352871Y-16634512D01*
X9352871Y-16634512D02*
X9381442Y-16634512D01*
X9381442Y-16634512D02*
X9400490Y-16644036D01*
X9400490Y-16644036D02*
X9410013Y-16653559D01*
X9410013Y-16653559D02*
X9419537Y-16672607D01*
X9419537Y-16672607D02*
X9419537Y-16729750D01*
X9419537Y-16729750D02*
X9410013Y-16748797D01*
X9410013Y-16748797D02*
X9400490Y-16758321D01*
X9400490Y-16758321D02*
X9381442Y-16767845D01*
X9381442Y-16767845D02*
X9352871Y-16767845D01*
X9533823Y-16767845D02*
X9514775Y-16758321D01*
X9514775Y-16758321D02*
X9505252Y-16739274D01*
X9505252Y-16739274D02*
X9505252Y-16567845D01*
X9686204Y-16758321D02*
X9667156Y-16767845D01*
X9667156Y-16767845D02*
X9629061Y-16767845D01*
X9629061Y-16767845D02*
X9610013Y-16758321D01*
X9610013Y-16758321D02*
X9600490Y-16739274D01*
X9600490Y-16739274D02*
X9600490Y-16663083D01*
X9600490Y-16663083D02*
X9610013Y-16644036D01*
X9610013Y-16644036D02*
X9629061Y-16634512D01*
X9629061Y-16634512D02*
X9667156Y-16634512D01*
X9667156Y-16634512D02*
X9686204Y-16644036D01*
X9686204Y-16644036D02*
X9695728Y-16663083D01*
X9695728Y-16663083D02*
X9695728Y-16682131D01*
X9695728Y-16682131D02*
X9600490Y-16701178D01*
X9771918Y-16758321D02*
X9790966Y-16767845D01*
X9790966Y-16767845D02*
X9829061Y-16767845D01*
X9829061Y-16767845D02*
X9848109Y-16758321D01*
X9848109Y-16758321D02*
X9857633Y-16739274D01*
X9857633Y-16739274D02*
X9857633Y-16729750D01*
X9857633Y-16729750D02*
X9848109Y-16710702D01*
X9848109Y-16710702D02*
X9829061Y-16701178D01*
X9829061Y-16701178D02*
X9800490Y-16701178D01*
X9800490Y-16701178D02*
X9781442Y-16691655D01*
X9781442Y-16691655D02*
X9771918Y-16672607D01*
X9771918Y-16672607D02*
X9771918Y-16663083D01*
X9771918Y-16663083D02*
X9781442Y-16644036D01*
X9781442Y-16644036D02*
X9800490Y-16634512D01*
X9800490Y-16634512D02*
X9829061Y-16634512D01*
X9829061Y-16634512D02*
X9848109Y-16644036D01*
X9924299Y-16844036D02*
X9933823Y-16834512D01*
X9933823Y-16834512D02*
X9952871Y-16805940D01*
X9952871Y-16805940D02*
X9962394Y-16786893D01*
X9962394Y-16786893D02*
X9971918Y-16758321D01*
X9971918Y-16758321D02*
X9981442Y-16710702D01*
X9981442Y-16710702D02*
X9981442Y-16672607D01*
X9981442Y-16672607D02*
X9971918Y-16624988D01*
X9971918Y-16624988D02*
X9962394Y-16596417D01*
X9962394Y-16596417D02*
X9952871Y-16577369D01*
X9952871Y-16577369D02*
X9933823Y-16548797D01*
X9933823Y-16548797D02*
X9924299Y-16539274D01*
D13*
X4718284Y-16890361D02*
X4718284Y-16990361D01*
X4668284Y-16940361D02*
X4768284Y-16940361D01*
D11*
X5133823Y-17031845D02*
X5019537Y-17031845D01*
X5076680Y-17031845D02*
X5076680Y-16831845D01*
X5076680Y-16831845D02*
X5057632Y-16860417D01*
X5057632Y-16860417D02*
X5038584Y-16879464D01*
X5038584Y-16879464D02*
X5019537Y-16888988D01*
X5219537Y-17012798D02*
X5229061Y-17022321D01*
X5229061Y-17022321D02*
X5219537Y-17031845D01*
X5219537Y-17031845D02*
X5210013Y-17022321D01*
X5210013Y-17022321D02*
X5219537Y-17012798D01*
X5219537Y-17012798D02*
X5219537Y-17031845D01*
X5352870Y-16831845D02*
X5371918Y-16831845D01*
X5371918Y-16831845D02*
X5390965Y-16841369D01*
X5390965Y-16841369D02*
X5400489Y-16850893D01*
X5400489Y-16850893D02*
X5410013Y-16869940D01*
X5410013Y-16869940D02*
X5419537Y-16908036D01*
X5419537Y-16908036D02*
X5419537Y-16955655D01*
X5419537Y-16955655D02*
X5410013Y-16993750D01*
X5410013Y-16993750D02*
X5400489Y-17012798D01*
X5400489Y-17012798D02*
X5390965Y-17022321D01*
X5390965Y-17022321D02*
X5371918Y-17031845D01*
X5371918Y-17031845D02*
X5352870Y-17031845D01*
X5352870Y-17031845D02*
X5333823Y-17022321D01*
X5333823Y-17022321D02*
X5324299Y-17012798D01*
X5324299Y-17012798D02*
X5314775Y-16993750D01*
X5314775Y-16993750D02*
X5305251Y-16955655D01*
X5305251Y-16955655D02*
X5305251Y-16908036D01*
X5305251Y-16908036D02*
X5314775Y-16869940D01*
X5314775Y-16869940D02*
X5324299Y-16850893D01*
X5324299Y-16850893D02*
X5333823Y-16841369D01*
X5333823Y-16841369D02*
X5352870Y-16831845D01*
X5543346Y-16831845D02*
X5562394Y-16831845D01*
X5562394Y-16831845D02*
X5581442Y-16841369D01*
X5581442Y-16841369D02*
X5590965Y-16850893D01*
X5590965Y-16850893D02*
X5600489Y-16869940D01*
X5600489Y-16869940D02*
X5610013Y-16908036D01*
X5610013Y-16908036D02*
X5610013Y-16955655D01*
X5610013Y-16955655D02*
X5600489Y-16993750D01*
X5600489Y-16993750D02*
X5590965Y-17012798D01*
X5590965Y-17012798D02*
X5581442Y-17022321D01*
X5581442Y-17022321D02*
X5562394Y-17031845D01*
X5562394Y-17031845D02*
X5543346Y-17031845D01*
X5543346Y-17031845D02*
X5524299Y-17022321D01*
X5524299Y-17022321D02*
X5514775Y-17012798D01*
X5514775Y-17012798D02*
X5505251Y-16993750D01*
X5505251Y-16993750D02*
X5495727Y-16955655D01*
X5495727Y-16955655D02*
X5495727Y-16908036D01*
X5495727Y-16908036D02*
X5505251Y-16869940D01*
X5505251Y-16869940D02*
X5514775Y-16850893D01*
X5514775Y-16850893D02*
X5524299Y-16841369D01*
X5524299Y-16841369D02*
X5543346Y-16831845D01*
X5733822Y-16831845D02*
X5752870Y-16831845D01*
X5752870Y-16831845D02*
X5771918Y-16841369D01*
X5771918Y-16841369D02*
X5781442Y-16850893D01*
X5781442Y-16850893D02*
X5790965Y-16869940D01*
X5790965Y-16869940D02*
X5800489Y-16908036D01*
X5800489Y-16908036D02*
X5800489Y-16955655D01*
X5800489Y-16955655D02*
X5790965Y-16993750D01*
X5790965Y-16993750D02*
X5781442Y-17012798D01*
X5781442Y-17012798D02*
X5771918Y-17022321D01*
X5771918Y-17022321D02*
X5752870Y-17031845D01*
X5752870Y-17031845D02*
X5733822Y-17031845D01*
X5733822Y-17031845D02*
X5714775Y-17022321D01*
X5714775Y-17022321D02*
X5705251Y-17012798D01*
X5705251Y-17012798D02*
X5695727Y-16993750D01*
X5695727Y-16993750D02*
X5686203Y-16955655D01*
X5686203Y-16955655D02*
X5686203Y-16908036D01*
X5686203Y-16908036D02*
X5695727Y-16869940D01*
X5695727Y-16869940D02*
X5705251Y-16850893D01*
X5705251Y-16850893D02*
X5714775Y-16841369D01*
X5714775Y-16841369D02*
X5733822Y-16831845D01*
X5886203Y-17031845D02*
X5886203Y-16898512D01*
X5886203Y-16917559D02*
X5895727Y-16908036D01*
X5895727Y-16908036D02*
X5914775Y-16898512D01*
X5914775Y-16898512D02*
X5943346Y-16898512D01*
X5943346Y-16898512D02*
X5962394Y-16908036D01*
X5962394Y-16908036D02*
X5971918Y-16927083D01*
X5971918Y-16927083D02*
X5971918Y-17031845D01*
X5971918Y-16927083D02*
X5981442Y-16908036D01*
X5981442Y-16908036D02*
X6000489Y-16898512D01*
X6000489Y-16898512D02*
X6029061Y-16898512D01*
X6029061Y-16898512D02*
X6048108Y-16908036D01*
X6048108Y-16908036D02*
X6057632Y-16927083D01*
X6057632Y-16927083D02*
X6057632Y-17031845D01*
X6152870Y-17031845D02*
X6152870Y-16898512D01*
X6152870Y-16917559D02*
X6162394Y-16908036D01*
X6162394Y-16908036D02*
X6181442Y-16898512D01*
X6181442Y-16898512D02*
X6210013Y-16898512D01*
X6210013Y-16898512D02*
X6229061Y-16908036D01*
X6229061Y-16908036D02*
X6238584Y-16927083D01*
X6238584Y-16927083D02*
X6238584Y-17031845D01*
X6238584Y-16927083D02*
X6248108Y-16908036D01*
X6248108Y-16908036D02*
X6267156Y-16898512D01*
X6267156Y-16898512D02*
X6295727Y-16898512D01*
X6295727Y-16898512D02*
X6314775Y-16908036D01*
X6314775Y-16908036D02*
X6324299Y-16927083D01*
X6324299Y-16927083D02*
X6324299Y-17031845D01*
X6714775Y-16822321D02*
X6543346Y-17079464D01*
X6971918Y-16831845D02*
X6990966Y-16831845D01*
X6990966Y-16831845D02*
X7010013Y-16841369D01*
X7010013Y-16841369D02*
X7019537Y-16850893D01*
X7019537Y-16850893D02*
X7029061Y-16869940D01*
X7029061Y-16869940D02*
X7038585Y-16908036D01*
X7038585Y-16908036D02*
X7038585Y-16955655D01*
X7038585Y-16955655D02*
X7029061Y-16993750D01*
X7029061Y-16993750D02*
X7019537Y-17012798D01*
X7019537Y-17012798D02*
X7010013Y-17022321D01*
X7010013Y-17022321D02*
X6990966Y-17031845D01*
X6990966Y-17031845D02*
X6971918Y-17031845D01*
X6971918Y-17031845D02*
X6952870Y-17022321D01*
X6952870Y-17022321D02*
X6943346Y-17012798D01*
X6943346Y-17012798D02*
X6933823Y-16993750D01*
X6933823Y-16993750D02*
X6924299Y-16955655D01*
X6924299Y-16955655D02*
X6924299Y-16908036D01*
X6924299Y-16908036D02*
X6933823Y-16869940D01*
X6933823Y-16869940D02*
X6943346Y-16850893D01*
X6943346Y-16850893D02*
X6952870Y-16841369D01*
X6952870Y-16841369D02*
X6971918Y-16831845D01*
X7124299Y-17012798D02*
X7133823Y-17022321D01*
X7133823Y-17022321D02*
X7124299Y-17031845D01*
X7124299Y-17031845D02*
X7114775Y-17022321D01*
X7114775Y-17022321D02*
X7124299Y-17012798D01*
X7124299Y-17012798D02*
X7124299Y-17031845D01*
X7257632Y-16831845D02*
X7276680Y-16831845D01*
X7276680Y-16831845D02*
X7295727Y-16841369D01*
X7295727Y-16841369D02*
X7305251Y-16850893D01*
X7305251Y-16850893D02*
X7314775Y-16869940D01*
X7314775Y-16869940D02*
X7324299Y-16908036D01*
X7324299Y-16908036D02*
X7324299Y-16955655D01*
X7324299Y-16955655D02*
X7314775Y-16993750D01*
X7314775Y-16993750D02*
X7305251Y-17012798D01*
X7305251Y-17012798D02*
X7295727Y-17022321D01*
X7295727Y-17022321D02*
X7276680Y-17031845D01*
X7276680Y-17031845D02*
X7257632Y-17031845D01*
X7257632Y-17031845D02*
X7238585Y-17022321D01*
X7238585Y-17022321D02*
X7229061Y-17012798D01*
X7229061Y-17012798D02*
X7219537Y-16993750D01*
X7219537Y-16993750D02*
X7210013Y-16955655D01*
X7210013Y-16955655D02*
X7210013Y-16908036D01*
X7210013Y-16908036D02*
X7219537Y-16869940D01*
X7219537Y-16869940D02*
X7229061Y-16850893D01*
X7229061Y-16850893D02*
X7238585Y-16841369D01*
X7238585Y-16841369D02*
X7257632Y-16831845D01*
X7390966Y-16831845D02*
X7514775Y-16831845D01*
X7514775Y-16831845D02*
X7448108Y-16908036D01*
X7448108Y-16908036D02*
X7476680Y-16908036D01*
X7476680Y-16908036D02*
X7495727Y-16917559D01*
X7495727Y-16917559D02*
X7505251Y-16927083D01*
X7505251Y-16927083D02*
X7514775Y-16946131D01*
X7514775Y-16946131D02*
X7514775Y-16993750D01*
X7514775Y-16993750D02*
X7505251Y-17012798D01*
X7505251Y-17012798D02*
X7495727Y-17022321D01*
X7495727Y-17022321D02*
X7476680Y-17031845D01*
X7476680Y-17031845D02*
X7419537Y-17031845D01*
X7419537Y-17031845D02*
X7400489Y-17022321D01*
X7400489Y-17022321D02*
X7390966Y-17012798D01*
X7610013Y-17031845D02*
X7648108Y-17031845D01*
X7648108Y-17031845D02*
X7667156Y-17022321D01*
X7667156Y-17022321D02*
X7676680Y-17012798D01*
X7676680Y-17012798D02*
X7695727Y-16984226D01*
X7695727Y-16984226D02*
X7705251Y-16946131D01*
X7705251Y-16946131D02*
X7705251Y-16869940D01*
X7705251Y-16869940D02*
X7695727Y-16850893D01*
X7695727Y-16850893D02*
X7686204Y-16841369D01*
X7686204Y-16841369D02*
X7667156Y-16831845D01*
X7667156Y-16831845D02*
X7629061Y-16831845D01*
X7629061Y-16831845D02*
X7610013Y-16841369D01*
X7610013Y-16841369D02*
X7600489Y-16850893D01*
X7600489Y-16850893D02*
X7590966Y-16869940D01*
X7590966Y-16869940D02*
X7590966Y-16917559D01*
X7590966Y-16917559D02*
X7600489Y-16936607D01*
X7600489Y-16936607D02*
X7610013Y-16946131D01*
X7610013Y-16946131D02*
X7629061Y-16955655D01*
X7629061Y-16955655D02*
X7667156Y-16955655D01*
X7667156Y-16955655D02*
X7686204Y-16946131D01*
X7686204Y-16946131D02*
X7695727Y-16936607D01*
X7695727Y-16936607D02*
X7705251Y-16917559D01*
X7876680Y-16898512D02*
X7876680Y-17031845D01*
X7829061Y-16822321D02*
X7781442Y-16965179D01*
X7781442Y-16965179D02*
X7905251Y-16965179D01*
X7971918Y-16831845D02*
X7971918Y-16869940D01*
X8048108Y-16831845D02*
X8048108Y-16869940D01*
X8343347Y-17108036D02*
X8333823Y-17098512D01*
X8333823Y-17098512D02*
X8314775Y-17069940D01*
X8314775Y-17069940D02*
X8305251Y-17050893D01*
X8305251Y-17050893D02*
X8295728Y-17022321D01*
X8295728Y-17022321D02*
X8286204Y-16974702D01*
X8286204Y-16974702D02*
X8286204Y-16936607D01*
X8286204Y-16936607D02*
X8295728Y-16888988D01*
X8295728Y-16888988D02*
X8305251Y-16860417D01*
X8305251Y-16860417D02*
X8314775Y-16841369D01*
X8314775Y-16841369D02*
X8333823Y-16812798D01*
X8333823Y-16812798D02*
X8343347Y-16803274D01*
X8524299Y-17031845D02*
X8410013Y-17031845D01*
X8467156Y-17031845D02*
X8467156Y-16831845D01*
X8467156Y-16831845D02*
X8448109Y-16860417D01*
X8448109Y-16860417D02*
X8429061Y-16879464D01*
X8429061Y-16879464D02*
X8410013Y-16888988D01*
X8695728Y-16831845D02*
X8657632Y-16831845D01*
X8657632Y-16831845D02*
X8638585Y-16841369D01*
X8638585Y-16841369D02*
X8629061Y-16850893D01*
X8629061Y-16850893D02*
X8610013Y-16879464D01*
X8610013Y-16879464D02*
X8600490Y-16917559D01*
X8600490Y-16917559D02*
X8600490Y-16993750D01*
X8600490Y-16993750D02*
X8610013Y-17012798D01*
X8610013Y-17012798D02*
X8619537Y-17022321D01*
X8619537Y-17022321D02*
X8638585Y-17031845D01*
X8638585Y-17031845D02*
X8676680Y-17031845D01*
X8676680Y-17031845D02*
X8695728Y-17022321D01*
X8695728Y-17022321D02*
X8705251Y-17012798D01*
X8705251Y-17012798D02*
X8714775Y-16993750D01*
X8714775Y-16993750D02*
X8714775Y-16946131D01*
X8714775Y-16946131D02*
X8705251Y-16927083D01*
X8705251Y-16927083D02*
X8695728Y-16917559D01*
X8695728Y-16917559D02*
X8676680Y-16908036D01*
X8676680Y-16908036D02*
X8638585Y-16908036D01*
X8638585Y-16908036D02*
X8619537Y-16917559D01*
X8619537Y-16917559D02*
X8610013Y-16927083D01*
X8610013Y-16927083D02*
X8600490Y-16946131D01*
X8952871Y-17031845D02*
X8952871Y-16831845D01*
X9038585Y-17031845D02*
X9038585Y-16927083D01*
X9038585Y-16927083D02*
X9029061Y-16908036D01*
X9029061Y-16908036D02*
X9010013Y-16898512D01*
X9010013Y-16898512D02*
X8981442Y-16898512D01*
X8981442Y-16898512D02*
X8962394Y-16908036D01*
X8962394Y-16908036D02*
X8952871Y-16917559D01*
X9162394Y-17031845D02*
X9143347Y-17022321D01*
X9143347Y-17022321D02*
X9133823Y-17012798D01*
X9133823Y-17012798D02*
X9124299Y-16993750D01*
X9124299Y-16993750D02*
X9124299Y-16936607D01*
X9124299Y-16936607D02*
X9133823Y-16917559D01*
X9133823Y-16917559D02*
X9143347Y-16908036D01*
X9143347Y-16908036D02*
X9162394Y-16898512D01*
X9162394Y-16898512D02*
X9190966Y-16898512D01*
X9190966Y-16898512D02*
X9210013Y-16908036D01*
X9210013Y-16908036D02*
X9219537Y-16917559D01*
X9219537Y-16917559D02*
X9229061Y-16936607D01*
X9229061Y-16936607D02*
X9229061Y-16993750D01*
X9229061Y-16993750D02*
X9219537Y-17012798D01*
X9219537Y-17012798D02*
X9210013Y-17022321D01*
X9210013Y-17022321D02*
X9190966Y-17031845D01*
X9190966Y-17031845D02*
X9162394Y-17031845D01*
X9343347Y-17031845D02*
X9324299Y-17022321D01*
X9324299Y-17022321D02*
X9314775Y-17003274D01*
X9314775Y-17003274D02*
X9314775Y-16831845D01*
X9495728Y-17022321D02*
X9476680Y-17031845D01*
X9476680Y-17031845D02*
X9438585Y-17031845D01*
X9438585Y-17031845D02*
X9419537Y-17022321D01*
X9419537Y-17022321D02*
X9410013Y-17003274D01*
X9410013Y-17003274D02*
X9410013Y-16927083D01*
X9410013Y-16927083D02*
X9419537Y-16908036D01*
X9419537Y-16908036D02*
X9438585Y-16898512D01*
X9438585Y-16898512D02*
X9476680Y-16898512D01*
X9476680Y-16898512D02*
X9495728Y-16908036D01*
X9495728Y-16908036D02*
X9505252Y-16927083D01*
X9505252Y-16927083D02*
X9505252Y-16946131D01*
X9505252Y-16946131D02*
X9410013Y-16965179D01*
X9581442Y-17022321D02*
X9600490Y-17031845D01*
X9600490Y-17031845D02*
X9638585Y-17031845D01*
X9638585Y-17031845D02*
X9657633Y-17022321D01*
X9657633Y-17022321D02*
X9667156Y-17003274D01*
X9667156Y-17003274D02*
X9667156Y-16993750D01*
X9667156Y-16993750D02*
X9657633Y-16974702D01*
X9657633Y-16974702D02*
X9638585Y-16965179D01*
X9638585Y-16965179D02*
X9610013Y-16965179D01*
X9610013Y-16965179D02*
X9590966Y-16955655D01*
X9590966Y-16955655D02*
X9581442Y-16936607D01*
X9581442Y-16936607D02*
X9581442Y-16927083D01*
X9581442Y-16927083D02*
X9590966Y-16908036D01*
X9590966Y-16908036D02*
X9610013Y-16898512D01*
X9610013Y-16898512D02*
X9638585Y-16898512D01*
X9638585Y-16898512D02*
X9657633Y-16908036D01*
X9733823Y-17108036D02*
X9743347Y-17098512D01*
X9743347Y-17098512D02*
X9762394Y-17069940D01*
X9762394Y-17069940D02*
X9771918Y-17050893D01*
X9771918Y-17050893D02*
X9781442Y-17022321D01*
X9781442Y-17022321D02*
X9790966Y-16974702D01*
X9790966Y-16974702D02*
X9790966Y-16936607D01*
X9790966Y-16936607D02*
X9781442Y-16888988D01*
X9781442Y-16888988D02*
X9771918Y-16860417D01*
X9771918Y-16860417D02*
X9762394Y-16841369D01*
X9762394Y-16841369D02*
X9743347Y-16812798D01*
X9743347Y-16812798D02*
X9733823Y-16803274D01*
D14*
X4753405Y-17240283D02*
X4753405Y-17168440D01*
X4681562Y-17168440D01*
X4681562Y-17240283D01*
X4753405Y-17240283D01*
D11*
X5133823Y-17295845D02*
X5019537Y-17295845D01*
X5076680Y-17295845D02*
X5076680Y-17095845D01*
X5076680Y-17095845D02*
X5057632Y-17124417D01*
X5057632Y-17124417D02*
X5038584Y-17143464D01*
X5038584Y-17143464D02*
X5019537Y-17152988D01*
X5219537Y-17276798D02*
X5229061Y-17286321D01*
X5229061Y-17286321D02*
X5219537Y-17295845D01*
X5219537Y-17295845D02*
X5210013Y-17286321D01*
X5210013Y-17286321D02*
X5219537Y-17276798D01*
X5219537Y-17276798D02*
X5219537Y-17295845D01*
X5352870Y-17095845D02*
X5371918Y-17095845D01*
X5371918Y-17095845D02*
X5390965Y-17105369D01*
X5390965Y-17105369D02*
X5400489Y-17114893D01*
X5400489Y-17114893D02*
X5410013Y-17133940D01*
X5410013Y-17133940D02*
X5419537Y-17172036D01*
X5419537Y-17172036D02*
X5419537Y-17219655D01*
X5419537Y-17219655D02*
X5410013Y-17257750D01*
X5410013Y-17257750D02*
X5400489Y-17276798D01*
X5400489Y-17276798D02*
X5390965Y-17286321D01*
X5390965Y-17286321D02*
X5371918Y-17295845D01*
X5371918Y-17295845D02*
X5352870Y-17295845D01*
X5352870Y-17295845D02*
X5333823Y-17286321D01*
X5333823Y-17286321D02*
X5324299Y-17276798D01*
X5324299Y-17276798D02*
X5314775Y-17257750D01*
X5314775Y-17257750D02*
X5305251Y-17219655D01*
X5305251Y-17219655D02*
X5305251Y-17172036D01*
X5305251Y-17172036D02*
X5314775Y-17133940D01*
X5314775Y-17133940D02*
X5324299Y-17114893D01*
X5324299Y-17114893D02*
X5333823Y-17105369D01*
X5333823Y-17105369D02*
X5352870Y-17095845D01*
X5610013Y-17295845D02*
X5495727Y-17295845D01*
X5552870Y-17295845D02*
X5552870Y-17095845D01*
X5552870Y-17095845D02*
X5533823Y-17124417D01*
X5533823Y-17124417D02*
X5514775Y-17143464D01*
X5514775Y-17143464D02*
X5495727Y-17152988D01*
X5781442Y-17095845D02*
X5743346Y-17095845D01*
X5743346Y-17095845D02*
X5724299Y-17105369D01*
X5724299Y-17105369D02*
X5714775Y-17114893D01*
X5714775Y-17114893D02*
X5695727Y-17143464D01*
X5695727Y-17143464D02*
X5686203Y-17181559D01*
X5686203Y-17181559D02*
X5686203Y-17257750D01*
X5686203Y-17257750D02*
X5695727Y-17276798D01*
X5695727Y-17276798D02*
X5705251Y-17286321D01*
X5705251Y-17286321D02*
X5724299Y-17295845D01*
X5724299Y-17295845D02*
X5762394Y-17295845D01*
X5762394Y-17295845D02*
X5781442Y-17286321D01*
X5781442Y-17286321D02*
X5790965Y-17276798D01*
X5790965Y-17276798D02*
X5800489Y-17257750D01*
X5800489Y-17257750D02*
X5800489Y-17210131D01*
X5800489Y-17210131D02*
X5790965Y-17191083D01*
X5790965Y-17191083D02*
X5781442Y-17181559D01*
X5781442Y-17181559D02*
X5762394Y-17172036D01*
X5762394Y-17172036D02*
X5724299Y-17172036D01*
X5724299Y-17172036D02*
X5705251Y-17181559D01*
X5705251Y-17181559D02*
X5695727Y-17191083D01*
X5695727Y-17191083D02*
X5686203Y-17210131D01*
X5886203Y-17295845D02*
X5886203Y-17162512D01*
X5886203Y-17181559D02*
X5895727Y-17172036D01*
X5895727Y-17172036D02*
X5914775Y-17162512D01*
X5914775Y-17162512D02*
X5943346Y-17162512D01*
X5943346Y-17162512D02*
X5962394Y-17172036D01*
X5962394Y-17172036D02*
X5971918Y-17191083D01*
X5971918Y-17191083D02*
X5971918Y-17295845D01*
X5971918Y-17191083D02*
X5981442Y-17172036D01*
X5981442Y-17172036D02*
X6000489Y-17162512D01*
X6000489Y-17162512D02*
X6029061Y-17162512D01*
X6029061Y-17162512D02*
X6048108Y-17172036D01*
X6048108Y-17172036D02*
X6057632Y-17191083D01*
X6057632Y-17191083D02*
X6057632Y-17295845D01*
X6152870Y-17295845D02*
X6152870Y-17162512D01*
X6152870Y-17181559D02*
X6162394Y-17172036D01*
X6162394Y-17172036D02*
X6181442Y-17162512D01*
X6181442Y-17162512D02*
X6210013Y-17162512D01*
X6210013Y-17162512D02*
X6229061Y-17172036D01*
X6229061Y-17172036D02*
X6238584Y-17191083D01*
X6238584Y-17191083D02*
X6238584Y-17295845D01*
X6238584Y-17191083D02*
X6248108Y-17172036D01*
X6248108Y-17172036D02*
X6267156Y-17162512D01*
X6267156Y-17162512D02*
X6295727Y-17162512D01*
X6295727Y-17162512D02*
X6314775Y-17172036D01*
X6314775Y-17172036D02*
X6324299Y-17191083D01*
X6324299Y-17191083D02*
X6324299Y-17295845D01*
X6714775Y-17086321D02*
X6543346Y-17343464D01*
X6971918Y-17095845D02*
X6990966Y-17095845D01*
X6990966Y-17095845D02*
X7010013Y-17105369D01*
X7010013Y-17105369D02*
X7019537Y-17114893D01*
X7019537Y-17114893D02*
X7029061Y-17133940D01*
X7029061Y-17133940D02*
X7038585Y-17172036D01*
X7038585Y-17172036D02*
X7038585Y-17219655D01*
X7038585Y-17219655D02*
X7029061Y-17257750D01*
X7029061Y-17257750D02*
X7019537Y-17276798D01*
X7019537Y-17276798D02*
X7010013Y-17286321D01*
X7010013Y-17286321D02*
X6990966Y-17295845D01*
X6990966Y-17295845D02*
X6971918Y-17295845D01*
X6971918Y-17295845D02*
X6952870Y-17286321D01*
X6952870Y-17286321D02*
X6943346Y-17276798D01*
X6943346Y-17276798D02*
X6933823Y-17257750D01*
X6933823Y-17257750D02*
X6924299Y-17219655D01*
X6924299Y-17219655D02*
X6924299Y-17172036D01*
X6924299Y-17172036D02*
X6933823Y-17133940D01*
X6933823Y-17133940D02*
X6943346Y-17114893D01*
X6943346Y-17114893D02*
X6952870Y-17105369D01*
X6952870Y-17105369D02*
X6971918Y-17095845D01*
X7124299Y-17276798D02*
X7133823Y-17286321D01*
X7133823Y-17286321D02*
X7124299Y-17295845D01*
X7124299Y-17295845D02*
X7114775Y-17286321D01*
X7114775Y-17286321D02*
X7124299Y-17276798D01*
X7124299Y-17276798D02*
X7124299Y-17295845D01*
X7257632Y-17095845D02*
X7276680Y-17095845D01*
X7276680Y-17095845D02*
X7295727Y-17105369D01*
X7295727Y-17105369D02*
X7305251Y-17114893D01*
X7305251Y-17114893D02*
X7314775Y-17133940D01*
X7314775Y-17133940D02*
X7324299Y-17172036D01*
X7324299Y-17172036D02*
X7324299Y-17219655D01*
X7324299Y-17219655D02*
X7314775Y-17257750D01*
X7314775Y-17257750D02*
X7305251Y-17276798D01*
X7305251Y-17276798D02*
X7295727Y-17286321D01*
X7295727Y-17286321D02*
X7276680Y-17295845D01*
X7276680Y-17295845D02*
X7257632Y-17295845D01*
X7257632Y-17295845D02*
X7238585Y-17286321D01*
X7238585Y-17286321D02*
X7229061Y-17276798D01*
X7229061Y-17276798D02*
X7219537Y-17257750D01*
X7219537Y-17257750D02*
X7210013Y-17219655D01*
X7210013Y-17219655D02*
X7210013Y-17172036D01*
X7210013Y-17172036D02*
X7219537Y-17133940D01*
X7219537Y-17133940D02*
X7229061Y-17114893D01*
X7229061Y-17114893D02*
X7238585Y-17105369D01*
X7238585Y-17105369D02*
X7257632Y-17095845D01*
X7495727Y-17162512D02*
X7495727Y-17295845D01*
X7448108Y-17086321D02*
X7400489Y-17229179D01*
X7400489Y-17229179D02*
X7524299Y-17229179D01*
X7638585Y-17095845D02*
X7657632Y-17095845D01*
X7657632Y-17095845D02*
X7676680Y-17105369D01*
X7676680Y-17105369D02*
X7686204Y-17114893D01*
X7686204Y-17114893D02*
X7695727Y-17133940D01*
X7695727Y-17133940D02*
X7705251Y-17172036D01*
X7705251Y-17172036D02*
X7705251Y-17219655D01*
X7705251Y-17219655D02*
X7695727Y-17257750D01*
X7695727Y-17257750D02*
X7686204Y-17276798D01*
X7686204Y-17276798D02*
X7676680Y-17286321D01*
X7676680Y-17286321D02*
X7657632Y-17295845D01*
X7657632Y-17295845D02*
X7638585Y-17295845D01*
X7638585Y-17295845D02*
X7619537Y-17286321D01*
X7619537Y-17286321D02*
X7610013Y-17276798D01*
X7610013Y-17276798D02*
X7600489Y-17257750D01*
X7600489Y-17257750D02*
X7590966Y-17219655D01*
X7590966Y-17219655D02*
X7590966Y-17172036D01*
X7590966Y-17172036D02*
X7600489Y-17133940D01*
X7600489Y-17133940D02*
X7610013Y-17114893D01*
X7610013Y-17114893D02*
X7619537Y-17105369D01*
X7619537Y-17105369D02*
X7638585Y-17095845D01*
X7829061Y-17095845D02*
X7848108Y-17095845D01*
X7848108Y-17095845D02*
X7867156Y-17105369D01*
X7867156Y-17105369D02*
X7876680Y-17114893D01*
X7876680Y-17114893D02*
X7886204Y-17133940D01*
X7886204Y-17133940D02*
X7895727Y-17172036D01*
X7895727Y-17172036D02*
X7895727Y-17219655D01*
X7895727Y-17219655D02*
X7886204Y-17257750D01*
X7886204Y-17257750D02*
X7876680Y-17276798D01*
X7876680Y-17276798D02*
X7867156Y-17286321D01*
X7867156Y-17286321D02*
X7848108Y-17295845D01*
X7848108Y-17295845D02*
X7829061Y-17295845D01*
X7829061Y-17295845D02*
X7810013Y-17286321D01*
X7810013Y-17286321D02*
X7800489Y-17276798D01*
X7800489Y-17276798D02*
X7790966Y-17257750D01*
X7790966Y-17257750D02*
X7781442Y-17219655D01*
X7781442Y-17219655D02*
X7781442Y-17172036D01*
X7781442Y-17172036D02*
X7790966Y-17133940D01*
X7790966Y-17133940D02*
X7800489Y-17114893D01*
X7800489Y-17114893D02*
X7810013Y-17105369D01*
X7810013Y-17105369D02*
X7829061Y-17095845D01*
X7971918Y-17095845D02*
X7971918Y-17133940D01*
X8048108Y-17095845D02*
X8048108Y-17133940D01*
X8343347Y-17372036D02*
X8333823Y-17362512D01*
X8333823Y-17362512D02*
X8314775Y-17333940D01*
X8314775Y-17333940D02*
X8305251Y-17314893D01*
X8305251Y-17314893D02*
X8295728Y-17286321D01*
X8295728Y-17286321D02*
X8286204Y-17238702D01*
X8286204Y-17238702D02*
X8286204Y-17200607D01*
X8286204Y-17200607D02*
X8295728Y-17152988D01*
X8295728Y-17152988D02*
X8305251Y-17124417D01*
X8305251Y-17124417D02*
X8314775Y-17105369D01*
X8314775Y-17105369D02*
X8333823Y-17076798D01*
X8333823Y-17076798D02*
X8343347Y-17067274D01*
X8400490Y-17095845D02*
X8524299Y-17095845D01*
X8524299Y-17095845D02*
X8457632Y-17172036D01*
X8457632Y-17172036D02*
X8486204Y-17172036D01*
X8486204Y-17172036D02*
X8505251Y-17181559D01*
X8505251Y-17181559D02*
X8514775Y-17191083D01*
X8514775Y-17191083D02*
X8524299Y-17210131D01*
X8524299Y-17210131D02*
X8524299Y-17257750D01*
X8524299Y-17257750D02*
X8514775Y-17276798D01*
X8514775Y-17276798D02*
X8505251Y-17286321D01*
X8505251Y-17286321D02*
X8486204Y-17295845D01*
X8486204Y-17295845D02*
X8429061Y-17295845D01*
X8429061Y-17295845D02*
X8410013Y-17286321D01*
X8410013Y-17286321D02*
X8400490Y-17276798D01*
X8762394Y-17295845D02*
X8762394Y-17095845D01*
X8848109Y-17295845D02*
X8848109Y-17191083D01*
X8848109Y-17191083D02*
X8838585Y-17172036D01*
X8838585Y-17172036D02*
X8819537Y-17162512D01*
X8819537Y-17162512D02*
X8790966Y-17162512D01*
X8790966Y-17162512D02*
X8771918Y-17172036D01*
X8771918Y-17172036D02*
X8762394Y-17181559D01*
X8971918Y-17295845D02*
X8952871Y-17286321D01*
X8952871Y-17286321D02*
X8943347Y-17276798D01*
X8943347Y-17276798D02*
X8933823Y-17257750D01*
X8933823Y-17257750D02*
X8933823Y-17200607D01*
X8933823Y-17200607D02*
X8943347Y-17181559D01*
X8943347Y-17181559D02*
X8952871Y-17172036D01*
X8952871Y-17172036D02*
X8971918Y-17162512D01*
X8971918Y-17162512D02*
X9000490Y-17162512D01*
X9000490Y-17162512D02*
X9019537Y-17172036D01*
X9019537Y-17172036D02*
X9029061Y-17181559D01*
X9029061Y-17181559D02*
X9038585Y-17200607D01*
X9038585Y-17200607D02*
X9038585Y-17257750D01*
X9038585Y-17257750D02*
X9029061Y-17276798D01*
X9029061Y-17276798D02*
X9019537Y-17286321D01*
X9019537Y-17286321D02*
X9000490Y-17295845D01*
X9000490Y-17295845D02*
X8971918Y-17295845D01*
X9152871Y-17295845D02*
X9133823Y-17286321D01*
X9133823Y-17286321D02*
X9124299Y-17267274D01*
X9124299Y-17267274D02*
X9124299Y-17095845D01*
X9305252Y-17286321D02*
X9286204Y-17295845D01*
X9286204Y-17295845D02*
X9248109Y-17295845D01*
X9248109Y-17295845D02*
X9229061Y-17286321D01*
X9229061Y-17286321D02*
X9219537Y-17267274D01*
X9219537Y-17267274D02*
X9219537Y-17191083D01*
X9219537Y-17191083D02*
X9229061Y-17172036D01*
X9229061Y-17172036D02*
X9248109Y-17162512D01*
X9248109Y-17162512D02*
X9286204Y-17162512D01*
X9286204Y-17162512D02*
X9305252Y-17172036D01*
X9305252Y-17172036D02*
X9314775Y-17191083D01*
X9314775Y-17191083D02*
X9314775Y-17210131D01*
X9314775Y-17210131D02*
X9219537Y-17229179D01*
X9390966Y-17286321D02*
X9410013Y-17295845D01*
X9410013Y-17295845D02*
X9448109Y-17295845D01*
X9448109Y-17295845D02*
X9467156Y-17286321D01*
X9467156Y-17286321D02*
X9476680Y-17267274D01*
X9476680Y-17267274D02*
X9476680Y-17257750D01*
X9476680Y-17257750D02*
X9467156Y-17238702D01*
X9467156Y-17238702D02*
X9448109Y-17229179D01*
X9448109Y-17229179D02*
X9419537Y-17229179D01*
X9419537Y-17229179D02*
X9400490Y-17219655D01*
X9400490Y-17219655D02*
X9390966Y-17200607D01*
X9390966Y-17200607D02*
X9390966Y-17191083D01*
X9390966Y-17191083D02*
X9400490Y-17172036D01*
X9400490Y-17172036D02*
X9419537Y-17162512D01*
X9419537Y-17162512D02*
X9448109Y-17162512D01*
X9448109Y-17162512D02*
X9467156Y-17172036D01*
X9543347Y-17372036D02*
X9552871Y-17362512D01*
X9552871Y-17362512D02*
X9571918Y-17333940D01*
X9571918Y-17333940D02*
X9581442Y-17314893D01*
X9581442Y-17314893D02*
X9590966Y-17286321D01*
X9590966Y-17286321D02*
X9600490Y-17238702D01*
X9600490Y-17238702D02*
X9600490Y-17200607D01*
X9600490Y-17200607D02*
X9590966Y-17152988D01*
X9590966Y-17152988D02*
X9581442Y-17124417D01*
X9581442Y-17124417D02*
X9571918Y-17105369D01*
X9571918Y-17105369D02*
X9552871Y-17076798D01*
X9552871Y-17076798D02*
X9543347Y-17067274D01*
D15*
X4703284Y-17533361D02*
X4768284Y-17468361D01*
X4703284Y-17403361D01*
X4638284Y-17468361D01*
X4703284Y-17533361D01*
D11*
X5133823Y-17559845D02*
X5019537Y-17559845D01*
X5076680Y-17559845D02*
X5076680Y-17359845D01*
X5076680Y-17359845D02*
X5057632Y-17388417D01*
X5057632Y-17388417D02*
X5038584Y-17407464D01*
X5038584Y-17407464D02*
X5019537Y-17416988D01*
X5219537Y-17540798D02*
X5229061Y-17550321D01*
X5229061Y-17550321D02*
X5219537Y-17559845D01*
X5219537Y-17559845D02*
X5210013Y-17550321D01*
X5210013Y-17550321D02*
X5219537Y-17540798D01*
X5219537Y-17540798D02*
X5219537Y-17559845D01*
X5295727Y-17359845D02*
X5419537Y-17359845D01*
X5419537Y-17359845D02*
X5352870Y-17436036D01*
X5352870Y-17436036D02*
X5381442Y-17436036D01*
X5381442Y-17436036D02*
X5400489Y-17445559D01*
X5400489Y-17445559D02*
X5410013Y-17455083D01*
X5410013Y-17455083D02*
X5419537Y-17474131D01*
X5419537Y-17474131D02*
X5419537Y-17521750D01*
X5419537Y-17521750D02*
X5410013Y-17540798D01*
X5410013Y-17540798D02*
X5400489Y-17550321D01*
X5400489Y-17550321D02*
X5381442Y-17559845D01*
X5381442Y-17559845D02*
X5324299Y-17559845D01*
X5324299Y-17559845D02*
X5305251Y-17550321D01*
X5305251Y-17550321D02*
X5295727Y-17540798D01*
X5543346Y-17359845D02*
X5562394Y-17359845D01*
X5562394Y-17359845D02*
X5581442Y-17369369D01*
X5581442Y-17369369D02*
X5590965Y-17378893D01*
X5590965Y-17378893D02*
X5600489Y-17397940D01*
X5600489Y-17397940D02*
X5610013Y-17436036D01*
X5610013Y-17436036D02*
X5610013Y-17483655D01*
X5610013Y-17483655D02*
X5600489Y-17521750D01*
X5600489Y-17521750D02*
X5590965Y-17540798D01*
X5590965Y-17540798D02*
X5581442Y-17550321D01*
X5581442Y-17550321D02*
X5562394Y-17559845D01*
X5562394Y-17559845D02*
X5543346Y-17559845D01*
X5543346Y-17559845D02*
X5524299Y-17550321D01*
X5524299Y-17550321D02*
X5514775Y-17540798D01*
X5514775Y-17540798D02*
X5505251Y-17521750D01*
X5505251Y-17521750D02*
X5495727Y-17483655D01*
X5495727Y-17483655D02*
X5495727Y-17436036D01*
X5495727Y-17436036D02*
X5505251Y-17397940D01*
X5505251Y-17397940D02*
X5514775Y-17378893D01*
X5514775Y-17378893D02*
X5524299Y-17369369D01*
X5524299Y-17369369D02*
X5543346Y-17359845D01*
X5733822Y-17359845D02*
X5752870Y-17359845D01*
X5752870Y-17359845D02*
X5771918Y-17369369D01*
X5771918Y-17369369D02*
X5781442Y-17378893D01*
X5781442Y-17378893D02*
X5790965Y-17397940D01*
X5790965Y-17397940D02*
X5800489Y-17436036D01*
X5800489Y-17436036D02*
X5800489Y-17483655D01*
X5800489Y-17483655D02*
X5790965Y-17521750D01*
X5790965Y-17521750D02*
X5781442Y-17540798D01*
X5781442Y-17540798D02*
X5771918Y-17550321D01*
X5771918Y-17550321D02*
X5752870Y-17559845D01*
X5752870Y-17559845D02*
X5733822Y-17559845D01*
X5733822Y-17559845D02*
X5714775Y-17550321D01*
X5714775Y-17550321D02*
X5705251Y-17540798D01*
X5705251Y-17540798D02*
X5695727Y-17521750D01*
X5695727Y-17521750D02*
X5686203Y-17483655D01*
X5686203Y-17483655D02*
X5686203Y-17436036D01*
X5686203Y-17436036D02*
X5695727Y-17397940D01*
X5695727Y-17397940D02*
X5705251Y-17378893D01*
X5705251Y-17378893D02*
X5714775Y-17369369D01*
X5714775Y-17369369D02*
X5733822Y-17359845D01*
X5886203Y-17559845D02*
X5886203Y-17426512D01*
X5886203Y-17445559D02*
X5895727Y-17436036D01*
X5895727Y-17436036D02*
X5914775Y-17426512D01*
X5914775Y-17426512D02*
X5943346Y-17426512D01*
X5943346Y-17426512D02*
X5962394Y-17436036D01*
X5962394Y-17436036D02*
X5971918Y-17455083D01*
X5971918Y-17455083D02*
X5971918Y-17559845D01*
X5971918Y-17455083D02*
X5981442Y-17436036D01*
X5981442Y-17436036D02*
X6000489Y-17426512D01*
X6000489Y-17426512D02*
X6029061Y-17426512D01*
X6029061Y-17426512D02*
X6048108Y-17436036D01*
X6048108Y-17436036D02*
X6057632Y-17455083D01*
X6057632Y-17455083D02*
X6057632Y-17559845D01*
X6152870Y-17559845D02*
X6152870Y-17426512D01*
X6152870Y-17445559D02*
X6162394Y-17436036D01*
X6162394Y-17436036D02*
X6181442Y-17426512D01*
X6181442Y-17426512D02*
X6210013Y-17426512D01*
X6210013Y-17426512D02*
X6229061Y-17436036D01*
X6229061Y-17436036D02*
X6238584Y-17455083D01*
X6238584Y-17455083D02*
X6238584Y-17559845D01*
X6238584Y-17455083D02*
X6248108Y-17436036D01*
X6248108Y-17436036D02*
X6267156Y-17426512D01*
X6267156Y-17426512D02*
X6295727Y-17426512D01*
X6295727Y-17426512D02*
X6314775Y-17436036D01*
X6314775Y-17436036D02*
X6324299Y-17455083D01*
X6324299Y-17455083D02*
X6324299Y-17559845D01*
X6714775Y-17350321D02*
X6543346Y-17607464D01*
X6971918Y-17359845D02*
X6990966Y-17359845D01*
X6990966Y-17359845D02*
X7010013Y-17369369D01*
X7010013Y-17369369D02*
X7019537Y-17378893D01*
X7019537Y-17378893D02*
X7029061Y-17397940D01*
X7029061Y-17397940D02*
X7038585Y-17436036D01*
X7038585Y-17436036D02*
X7038585Y-17483655D01*
X7038585Y-17483655D02*
X7029061Y-17521750D01*
X7029061Y-17521750D02*
X7019537Y-17540798D01*
X7019537Y-17540798D02*
X7010013Y-17550321D01*
X7010013Y-17550321D02*
X6990966Y-17559845D01*
X6990966Y-17559845D02*
X6971918Y-17559845D01*
X6971918Y-17559845D02*
X6952870Y-17550321D01*
X6952870Y-17550321D02*
X6943346Y-17540798D01*
X6943346Y-17540798D02*
X6933823Y-17521750D01*
X6933823Y-17521750D02*
X6924299Y-17483655D01*
X6924299Y-17483655D02*
X6924299Y-17436036D01*
X6924299Y-17436036D02*
X6933823Y-17397940D01*
X6933823Y-17397940D02*
X6943346Y-17378893D01*
X6943346Y-17378893D02*
X6952870Y-17369369D01*
X6952870Y-17369369D02*
X6971918Y-17359845D01*
X7124299Y-17540798D02*
X7133823Y-17550321D01*
X7133823Y-17550321D02*
X7124299Y-17559845D01*
X7124299Y-17559845D02*
X7114775Y-17550321D01*
X7114775Y-17550321D02*
X7124299Y-17540798D01*
X7124299Y-17540798D02*
X7124299Y-17559845D01*
X7257632Y-17359845D02*
X7276680Y-17359845D01*
X7276680Y-17359845D02*
X7295727Y-17369369D01*
X7295727Y-17369369D02*
X7305251Y-17378893D01*
X7305251Y-17378893D02*
X7314775Y-17397940D01*
X7314775Y-17397940D02*
X7324299Y-17436036D01*
X7324299Y-17436036D02*
X7324299Y-17483655D01*
X7324299Y-17483655D02*
X7314775Y-17521750D01*
X7314775Y-17521750D02*
X7305251Y-17540798D01*
X7305251Y-17540798D02*
X7295727Y-17550321D01*
X7295727Y-17550321D02*
X7276680Y-17559845D01*
X7276680Y-17559845D02*
X7257632Y-17559845D01*
X7257632Y-17559845D02*
X7238585Y-17550321D01*
X7238585Y-17550321D02*
X7229061Y-17540798D01*
X7229061Y-17540798D02*
X7219537Y-17521750D01*
X7219537Y-17521750D02*
X7210013Y-17483655D01*
X7210013Y-17483655D02*
X7210013Y-17436036D01*
X7210013Y-17436036D02*
X7219537Y-17397940D01*
X7219537Y-17397940D02*
X7229061Y-17378893D01*
X7229061Y-17378893D02*
X7238585Y-17369369D01*
X7238585Y-17369369D02*
X7257632Y-17359845D01*
X7505251Y-17359845D02*
X7410013Y-17359845D01*
X7410013Y-17359845D02*
X7400489Y-17455083D01*
X7400489Y-17455083D02*
X7410013Y-17445559D01*
X7410013Y-17445559D02*
X7429061Y-17436036D01*
X7429061Y-17436036D02*
X7476680Y-17436036D01*
X7476680Y-17436036D02*
X7495727Y-17445559D01*
X7495727Y-17445559D02*
X7505251Y-17455083D01*
X7505251Y-17455083D02*
X7514775Y-17474131D01*
X7514775Y-17474131D02*
X7514775Y-17521750D01*
X7514775Y-17521750D02*
X7505251Y-17540798D01*
X7505251Y-17540798D02*
X7495727Y-17550321D01*
X7495727Y-17550321D02*
X7476680Y-17559845D01*
X7476680Y-17559845D02*
X7429061Y-17559845D01*
X7429061Y-17559845D02*
X7410013Y-17550321D01*
X7410013Y-17550321D02*
X7400489Y-17540798D01*
X7705251Y-17559845D02*
X7590966Y-17559845D01*
X7648108Y-17559845D02*
X7648108Y-17359845D01*
X7648108Y-17359845D02*
X7629061Y-17388417D01*
X7629061Y-17388417D02*
X7610013Y-17407464D01*
X7610013Y-17407464D02*
X7590966Y-17416988D01*
X7781442Y-17378893D02*
X7790966Y-17369369D01*
X7790966Y-17369369D02*
X7810013Y-17359845D01*
X7810013Y-17359845D02*
X7857632Y-17359845D01*
X7857632Y-17359845D02*
X7876680Y-17369369D01*
X7876680Y-17369369D02*
X7886204Y-17378893D01*
X7886204Y-17378893D02*
X7895727Y-17397940D01*
X7895727Y-17397940D02*
X7895727Y-17416988D01*
X7895727Y-17416988D02*
X7886204Y-17445559D01*
X7886204Y-17445559D02*
X7771918Y-17559845D01*
X7771918Y-17559845D02*
X7895727Y-17559845D01*
X7971918Y-17359845D02*
X7971918Y-17397940D01*
X8048108Y-17359845D02*
X8048108Y-17397940D01*
X8343347Y-17636036D02*
X8333823Y-17626512D01*
X8333823Y-17626512D02*
X8314775Y-17597940D01*
X8314775Y-17597940D02*
X8305251Y-17578893D01*
X8305251Y-17578893D02*
X8295728Y-17550321D01*
X8295728Y-17550321D02*
X8286204Y-17502702D01*
X8286204Y-17502702D02*
X8286204Y-17464607D01*
X8286204Y-17464607D02*
X8295728Y-17416988D01*
X8295728Y-17416988D02*
X8305251Y-17388417D01*
X8305251Y-17388417D02*
X8314775Y-17369369D01*
X8314775Y-17369369D02*
X8333823Y-17340798D01*
X8333823Y-17340798D02*
X8343347Y-17331274D01*
X8410013Y-17378893D02*
X8419537Y-17369369D01*
X8419537Y-17369369D02*
X8438585Y-17359845D01*
X8438585Y-17359845D02*
X8486204Y-17359845D01*
X8486204Y-17359845D02*
X8505251Y-17369369D01*
X8505251Y-17369369D02*
X8514775Y-17378893D01*
X8514775Y-17378893D02*
X8524299Y-17397940D01*
X8524299Y-17397940D02*
X8524299Y-17416988D01*
X8524299Y-17416988D02*
X8514775Y-17445559D01*
X8514775Y-17445559D02*
X8400490Y-17559845D01*
X8400490Y-17559845D02*
X8524299Y-17559845D01*
X8762394Y-17559845D02*
X8762394Y-17359845D01*
X8848109Y-17559845D02*
X8848109Y-17455083D01*
X8848109Y-17455083D02*
X8838585Y-17436036D01*
X8838585Y-17436036D02*
X8819537Y-17426512D01*
X8819537Y-17426512D02*
X8790966Y-17426512D01*
X8790966Y-17426512D02*
X8771918Y-17436036D01*
X8771918Y-17436036D02*
X8762394Y-17445559D01*
X8971918Y-17559845D02*
X8952871Y-17550321D01*
X8952871Y-17550321D02*
X8943347Y-17540798D01*
X8943347Y-17540798D02*
X8933823Y-17521750D01*
X8933823Y-17521750D02*
X8933823Y-17464607D01*
X8933823Y-17464607D02*
X8943347Y-17445559D01*
X8943347Y-17445559D02*
X8952871Y-17436036D01*
X8952871Y-17436036D02*
X8971918Y-17426512D01*
X8971918Y-17426512D02*
X9000490Y-17426512D01*
X9000490Y-17426512D02*
X9019537Y-17436036D01*
X9019537Y-17436036D02*
X9029061Y-17445559D01*
X9029061Y-17445559D02*
X9038585Y-17464607D01*
X9038585Y-17464607D02*
X9038585Y-17521750D01*
X9038585Y-17521750D02*
X9029061Y-17540798D01*
X9029061Y-17540798D02*
X9019537Y-17550321D01*
X9019537Y-17550321D02*
X9000490Y-17559845D01*
X9000490Y-17559845D02*
X8971918Y-17559845D01*
X9152871Y-17559845D02*
X9133823Y-17550321D01*
X9133823Y-17550321D02*
X9124299Y-17531274D01*
X9124299Y-17531274D02*
X9124299Y-17359845D01*
X9305252Y-17550321D02*
X9286204Y-17559845D01*
X9286204Y-17559845D02*
X9248109Y-17559845D01*
X9248109Y-17559845D02*
X9229061Y-17550321D01*
X9229061Y-17550321D02*
X9219537Y-17531274D01*
X9219537Y-17531274D02*
X9219537Y-17455083D01*
X9219537Y-17455083D02*
X9229061Y-17436036D01*
X9229061Y-17436036D02*
X9248109Y-17426512D01*
X9248109Y-17426512D02*
X9286204Y-17426512D01*
X9286204Y-17426512D02*
X9305252Y-17436036D01*
X9305252Y-17436036D02*
X9314775Y-17455083D01*
X9314775Y-17455083D02*
X9314775Y-17474131D01*
X9314775Y-17474131D02*
X9219537Y-17493179D01*
X9390966Y-17550321D02*
X9410013Y-17559845D01*
X9410013Y-17559845D02*
X9448109Y-17559845D01*
X9448109Y-17559845D02*
X9467156Y-17550321D01*
X9467156Y-17550321D02*
X9476680Y-17531274D01*
X9476680Y-17531274D02*
X9476680Y-17521750D01*
X9476680Y-17521750D02*
X9467156Y-17502702D01*
X9467156Y-17502702D02*
X9448109Y-17493179D01*
X9448109Y-17493179D02*
X9419537Y-17493179D01*
X9419537Y-17493179D02*
X9400490Y-17483655D01*
X9400490Y-17483655D02*
X9390966Y-17464607D01*
X9390966Y-17464607D02*
X9390966Y-17455083D01*
X9390966Y-17455083D02*
X9400490Y-17436036D01*
X9400490Y-17436036D02*
X9419537Y-17426512D01*
X9419537Y-17426512D02*
X9448109Y-17426512D01*
X9448109Y-17426512D02*
X9467156Y-17436036D01*
X9543347Y-17636036D02*
X9552871Y-17626512D01*
X9552871Y-17626512D02*
X9571918Y-17597940D01*
X9571918Y-17597940D02*
X9581442Y-17578893D01*
X9581442Y-17578893D02*
X9590966Y-17550321D01*
X9590966Y-17550321D02*
X9600490Y-17502702D01*
X9600490Y-17502702D02*
X9600490Y-17464607D01*
X9600490Y-17464607D02*
X9590966Y-17416988D01*
X9590966Y-17416988D02*
X9581442Y-17388417D01*
X9581442Y-17388417D02*
X9571918Y-17369369D01*
X9571918Y-17369369D02*
X9552871Y-17340798D01*
X9552871Y-17340798D02*
X9543347Y-17331274D01*
M02*
