%TF.GenerationSoftware,KiCad,Pcbnew,8.0.9-1.fc41*%
%TF.CreationDate,2025-03-09T10:33:42+11:00*%
%TF.ProjectId,katori,6b61746f-7269-42e6-9b69-6361645f7063,0.2*%
%TF.SameCoordinates,Original*%
%TF.FileFunction,Drillmap*%
%TF.FilePolarity,Positive*%
%FSLAX45Y45*%
G04 Gerber Fmt 4.5, Leading zero omitted, Abs format (unit mm)*
G04 Created by KiCad (PCBNEW 8.0.9-1.fc41) date 2025-03-09 10:33:42*
%MOMM*%
%LPD*%
G01*
G04 APERTURE LIST*
%ADD10C,0.150000*%
%ADD11C,0.200000*%
%ADD12C,0.120000*%
%ADD13C,0.100000*%
%ADD14C,0.220000*%
%ADD15C,0.425000*%
G04 APERTURE END LIST*
D10*
X14957104Y-10533839D02*
G75*
G02*
X14678952Y-10121455I-14J299989D01*
G01*
X21385325Y-12060474D02*
G75*
G02*
X21468208Y-11865200I139106J56184D01*
G01*
X4780236Y-9337361D02*
X5617285Y-5980138D01*
X16780769Y-10533838D02*
X14957104Y-10533839D01*
X9723685Y-14017390D02*
X11207175Y-14616759D01*
X15162745Y-8924016D02*
X14678948Y-10121454D01*
X25303873Y-9904280D02*
X26848379Y-9519193D01*
X25276035Y-10324328D02*
G75*
G02*
X25183041Y-10514986I-141826J-48832D01*
G01*
X20447808Y-14812029D02*
G75*
G02*
X20530692Y-14616755I139093J56189D01*
G01*
X8291432Y-10723889D02*
G75*
G02*
X8489452Y-10633644I141828J-48831D01*
G01*
X17058924Y-10121456D02*
G75*
G02*
X16780769Y-10533835I-278134J-112394D01*
G01*
X11207177Y-14616761D02*
G75*
G02*
X11290060Y-14812028I-56177J-139069D01*
G01*
X21093903Y-5399621D02*
G75*
G02*
X21289175Y-5482508I56197J-139069D01*
G01*
X19630167Y-6341533D02*
G75*
G02*
X19547279Y-6536799I-139057J-56197D01*
G01*
X6554830Y-10514990D02*
X8029839Y-11022876D01*
X12107704Y-6341534D02*
X12173263Y-6179277D01*
X25198332Y-10098663D02*
G75*
G02*
X25303873Y-9904280I141818J48843D01*
G01*
X21561066Y-5776004D02*
X23340325Y-5163354D01*
X6539539Y-10098663D02*
X6461838Y-10324329D01*
D11*
X18368936Y-12769467D02*
X18368936Y-13869466D01*
X13368935Y-13869466D01*
X13368935Y-12769466D01*
X18368936Y-12769467D01*
D10*
X18063785Y-7136174D02*
X19547280Y-6536802D01*
X18305026Y-14586267D02*
G75*
G02*
X18383200Y-14667156I-60896J-137073D01*
G01*
X25276035Y-10324328D02*
X25198332Y-10098665D01*
X16575129Y-8924019D02*
X17058924Y-10121456D01*
X7866395Y-6245195D02*
G75*
G02*
X7688281Y-6341901I-141825J48835D01*
G01*
X10269663Y-11865204D02*
G75*
G02*
X10352545Y-12060470I-56173J-139066D01*
G01*
X18984071Y-15753939D02*
G75*
G02*
X18788802Y-15671053I-56191J139079D01*
G01*
X12949070Y-15671053D02*
X13354670Y-14667156D01*
X21373155Y-5690366D02*
X21289174Y-5482509D01*
X8397546Y-5163355D02*
X10176805Y-5776004D01*
X9640797Y-13822121D02*
X10352547Y-12060471D01*
X13596363Y-8129381D02*
X15079857Y-8728749D01*
X18984071Y-15753939D02*
X20430478Y-15169555D01*
X17980901Y-7331441D02*
G75*
G02*
X18063786Y-7136174I139099J56181D01*
G01*
X11307395Y-15169556D02*
X12753801Y-15753940D01*
X8220502Y-10929885D02*
X8291432Y-10723889D01*
X21730683Y-11246854D02*
X23248423Y-10633647D01*
X12190590Y-6536802D02*
G75*
G02*
X12107701Y-6341533I56220J139092D01*
G01*
X8220502Y-10929883D02*
G75*
G02*
X8029842Y-11022872I-141863J48913D01*
G01*
X19564613Y-6179276D02*
X19630167Y-6341533D01*
X5799118Y-5870884D02*
X7688281Y-6341903D01*
X24049593Y-6341906D02*
G75*
G02*
X23871475Y-6245195I-36283J145556D01*
G01*
X4889492Y-9519194D02*
G75*
G02*
X4780234Y-9337360I36318J145564D01*
G01*
X6554830Y-10514990D02*
G75*
G02*
X6461836Y-10324329I48900J141860D01*
G01*
X8489452Y-10633646D02*
X10007187Y-11246853D01*
X12190590Y-6536801D02*
X13674085Y-7136173D01*
X12090373Y-5984009D02*
G75*
G02*
X12173260Y-6179275I-56153J-139061D01*
G01*
X10364718Y-5690367D02*
G75*
G02*
X10176806Y-5776001I-139078J56197D01*
G01*
X13513479Y-7934110D02*
X13756971Y-7331441D01*
X6434002Y-9904283D02*
G75*
G02*
X6539536Y-10098661I-36302J-145547D01*
G01*
X23708033Y-11022876D02*
G75*
G02*
X23517373Y-10929884I-48843J141806D01*
G01*
X16658013Y-8728751D02*
X18141507Y-8129379D01*
X13674085Y-7136174D02*
G75*
G02*
X13756968Y-7331440I-56195J-139076D01*
G01*
X21561066Y-5776004D02*
G75*
G02*
X21373156Y-5690365I-48816J141864D01*
G01*
X10007187Y-11246853D02*
G75*
G02*
X10090073Y-11442118I-56217J-139087D01*
G01*
X10090076Y-11442120D02*
X10024519Y-11604379D01*
X25938753Y-5870885D02*
G75*
G02*
X26120589Y-5980139I36297J-145535D01*
G01*
X26957637Y-9337363D02*
G75*
G02*
X26848379Y-9519194I-145528J-36297D01*
G01*
X21385325Y-12060471D02*
X22097076Y-13822121D01*
X4889492Y-9519194D02*
X6434002Y-9904283D01*
X9723685Y-14017390D02*
G75*
G02*
X9640794Y-13822120I56166J139070D01*
G01*
X8206881Y-5256346D02*
G75*
G02*
X8397547Y-5163352I141839J-48854D01*
G01*
X21647797Y-11442121D02*
G75*
G02*
X21730681Y-11246850I139153J56161D01*
G01*
X17980902Y-7331442D02*
X18224394Y-7934112D01*
X11307395Y-15169556D02*
G75*
G02*
X11224506Y-14974285I56275J139116D01*
G01*
X5617285Y-5980138D02*
G75*
G02*
X5799119Y-5870880I145525J-36252D01*
G01*
X13354670Y-14667156D02*
G75*
G02*
X13432846Y-14586268I139110J-56224D01*
G01*
X15079858Y-8728749D02*
G75*
G02*
X15162743Y-8924018I-56179J-139071D01*
G01*
X10107405Y-11799647D02*
G75*
G02*
X10024516Y-11604378I56185J139078D01*
G01*
X18383201Y-14667156D02*
X18788802Y-15671053D01*
X12949071Y-15671054D02*
G75*
G02*
X12753802Y-15753937I-139081J56204D01*
G01*
X21713354Y-11604377D02*
G75*
G02*
X21630468Y-11799648I-139054J-56203D01*
G01*
X20530693Y-14616759D02*
X22014189Y-14017389D01*
X20513365Y-14974285D02*
G75*
G02*
X20430477Y-15169552I-139065J-56195D01*
G01*
X23446440Y-10723890D02*
X23517369Y-10929885D01*
X21713354Y-11604377D02*
X21647797Y-11442121D01*
X7866395Y-6245195D02*
X8206881Y-5256346D01*
X10107407Y-11799648D02*
X10269663Y-11865203D01*
X11290063Y-14812029D02*
X11224508Y-14974285D01*
X23530988Y-5256349D02*
X23871477Y-6245195D01*
X23340325Y-5163354D02*
G75*
G02*
X23530987Y-5256349I48845J-141806D01*
G01*
X20513365Y-14974285D02*
X20447809Y-14812028D01*
X12090373Y-5984009D02*
X10643969Y-5399621D01*
X22097075Y-13822123D02*
G75*
G02*
X22014188Y-14017386I-139055J-56197D01*
G01*
X13596363Y-8129381D02*
G75*
G02*
X13513475Y-7934108I56217J139091D01*
G01*
X10448698Y-5482508D02*
G75*
G02*
X10643970Y-5399619I139072J-56172D01*
G01*
X26120587Y-5980139D02*
X26957636Y-9337363D01*
X21093903Y-5399621D02*
X19647497Y-5984008D01*
X16575128Y-8924018D02*
G75*
G02*
X16658012Y-8728750I139132J56168D01*
G01*
X10448698Y-5482508D02*
X10364718Y-5690366D01*
X19564613Y-6179275D02*
G75*
G02*
X19647496Y-5984005I139097J56185D01*
G01*
X24049593Y-6341906D02*
X25938753Y-5870885D01*
X13432845Y-14586267D02*
G75*
G02*
X18305026Y-14586267I2436090J-5483199D01*
G01*
X23248422Y-10633646D02*
G75*
G02*
X23446443Y-10723889I56208J-139044D01*
G01*
X23708033Y-11022876D02*
X25183042Y-10514989D01*
X18224394Y-7934112D02*
G75*
G02*
X18141506Y-8129377I-139054J-56198D01*
G01*
X21468209Y-11865203D02*
X21630468Y-11799648D01*
D12*
X15399012Y-11522982D02*
X15398937Y-11388639D01*
X15437038Y-11350537D02*
X15627614Y-11350262D01*
X15462099Y-11038757D02*
X15462099Y-11206397D01*
X15627613Y-11591563D02*
X15467594Y-11591563D01*
X15665712Y-11388363D02*
X15665713Y-11553462D01*
X15698319Y-10970177D02*
X15530679Y-10970177D01*
X15698319Y-11274977D02*
X15530679Y-11274977D01*
X15766899Y-11038757D02*
X15766899Y-11206397D01*
X16010699Y-12505750D02*
X16010699Y-12340649D01*
X16048802Y-12302549D02*
X16208819Y-12302599D01*
X16208818Y-12543899D02*
X16048799Y-12543850D01*
X16277399Y-12371179D02*
X16277399Y-12475320D01*
X15398937Y-11388639D02*
G75*
G02*
X15437038Y-11350537I38099J3D01*
G01*
X15399012Y-11522982D02*
G75*
G02*
X15467594Y-11591563I24777J-43805D01*
G01*
X15462099Y-11038757D02*
G75*
G02*
X15530679Y-10970177I65947J2634D01*
G01*
X15530679Y-11274977D02*
G75*
G02*
X15462099Y-11206397I-3106J65474D01*
G01*
X15627614Y-11350262D02*
G75*
G02*
X15665712Y-11388363I1J-38098D01*
G01*
X15665713Y-11553462D02*
G75*
G02*
X15627613Y-11591563I-38100J-1D01*
G01*
X15766899Y-11038757D02*
G75*
G02*
X15698319Y-10970177I-24775J43805D01*
G01*
X15766899Y-11206397D02*
G75*
G02*
X15698319Y-11274977I-65611J-2969D01*
G01*
X16010699Y-12340649D02*
G75*
G02*
X16048802Y-12302549I38105J-5D01*
G01*
X16048799Y-12543850D02*
G75*
G02*
X16010699Y-12505750I-2J38098D01*
G01*
X16208818Y-12543899D02*
G75*
G02*
X16277399Y-12475319I43805J24775D01*
G01*
X16208819Y-12302599D02*
G75*
G02*
X16277400Y-12371179I3955J-64626D01*
G01*
D11*
D13*
X15657189Y-10654386D02*
X15747189Y-10744386D01*
X15747189Y-10654386D02*
X15657189Y-10744386D01*
X15957189Y-10654386D02*
X16047189Y-10744386D01*
X16047189Y-10654386D02*
X15957189Y-10744386D01*
D14*
X6211137Y-7883737D02*
G75*
G02*
X5991137Y-7883737I-110000J0D01*
G01*
X5991137Y-7883737D02*
G75*
G02*
X6211137Y-7883737I110000J0D01*
G01*
X7640961Y-6561956D02*
G75*
G02*
X7420961Y-6561956I-110000J0D01*
G01*
X7420961Y-6561956D02*
G75*
G02*
X7640961Y-6561956I110000J0D01*
G01*
X8014403Y-8991357D02*
G75*
G02*
X7794403Y-8991357I-110000J0D01*
G01*
X7794403Y-8991357D02*
G75*
G02*
X8014403Y-8991357I110000J0D01*
G01*
X8632983Y-7194871D02*
G75*
G02*
X8412983Y-7194871I-110000J0D01*
G01*
X8412983Y-7194871D02*
G75*
G02*
X8632983Y-7194871I110000J0D01*
G01*
X10061157Y-9196570D02*
G75*
G02*
X9841157Y-9196570I-110000J0D01*
G01*
X9841157Y-9196570D02*
G75*
G02*
X10061157Y-9196570I110000J0D01*
G01*
X10097851Y-6165717D02*
G75*
G02*
X9877851Y-6165717I-110000J0D01*
G01*
X9877851Y-6165717D02*
G75*
G02*
X10097851Y-6165717I110000J0D01*
G01*
X10772910Y-7434919D02*
G75*
G02*
X10552910Y-7434919I-110000J0D01*
G01*
X10552910Y-7434919D02*
G75*
G02*
X10772910Y-7434919I110000J0D01*
G01*
X10933116Y-12110383D02*
G75*
G02*
X10713116Y-12110383I-110000J0D01*
G01*
X10713116Y-12110383D02*
G75*
G02*
X10933116Y-12110383I110000J0D01*
G01*
X11644869Y-10348735D02*
G75*
G02*
X11424869Y-10348735I-110000J0D01*
G01*
X11424869Y-10348735D02*
G75*
G02*
X11644869Y-10348735I110000J0D01*
G01*
X12356620Y-8587086D02*
G75*
G02*
X12136620Y-8587086I-110000J0D01*
G01*
X12136620Y-8587086D02*
G75*
G02*
X12356620Y-8587086I110000J0D01*
G01*
X12844856Y-13718644D02*
G75*
G02*
X12624856Y-13718644I-110000J0D01*
G01*
X12624856Y-13718644D02*
G75*
G02*
X12844856Y-13718644I110000J0D01*
G01*
X13050644Y-11941312D02*
G75*
G02*
X12830644Y-11941312I-110000J0D01*
G01*
X12830644Y-11941312D02*
G75*
G02*
X13050644Y-11941312I110000J0D01*
G01*
X13762393Y-10179663D02*
G75*
G02*
X13542393Y-10179663I-110000J0D01*
G01*
X13542393Y-10179663D02*
G75*
G02*
X13762393Y-10179663I110000J0D01*
G01*
X18195478Y-10179661D02*
G75*
G02*
X17975478Y-10179661I-110000J0D01*
G01*
X17975478Y-10179661D02*
G75*
G02*
X18195478Y-10179661I110000J0D01*
G01*
X18907229Y-11941310D02*
G75*
G02*
X18687229Y-11941310I-110000J0D01*
G01*
X18687229Y-11941310D02*
G75*
G02*
X18907229Y-11941310I110000J0D01*
G01*
X19113014Y-13718641D02*
G75*
G02*
X18893014Y-13718641I-110000J0D01*
G01*
X18893014Y-13718641D02*
G75*
G02*
X19113014Y-13718641I110000J0D01*
G01*
X19601253Y-8587087D02*
G75*
G02*
X19381253Y-8587087I-110000J0D01*
G01*
X19381253Y-8587087D02*
G75*
G02*
X19601253Y-8587087I110000J0D01*
G01*
X20313003Y-10348735D02*
G75*
G02*
X20093003Y-10348735I-110000J0D01*
G01*
X20093003Y-10348735D02*
G75*
G02*
X20313003Y-10348735I110000J0D01*
G01*
X21024754Y-12110385D02*
G75*
G02*
X20804754Y-12110385I-110000J0D01*
G01*
X20804754Y-12110385D02*
G75*
G02*
X21024754Y-12110385I110000J0D01*
G01*
X21184964Y-7434920D02*
G75*
G02*
X20964964Y-7434920I-110000J0D01*
G01*
X20964964Y-7434920D02*
G75*
G02*
X21184964Y-7434920I110000J0D01*
G01*
X21860022Y-6165720D02*
G75*
G02*
X21640022Y-6165720I-110000J0D01*
G01*
X21640022Y-6165720D02*
G75*
G02*
X21860022Y-6165720I110000J0D01*
G01*
X21896715Y-9196572D02*
G75*
G02*
X21676715Y-9196572I-110000J0D01*
G01*
X21676715Y-9196572D02*
G75*
G02*
X21896715Y-9196572I110000J0D01*
G01*
X23324890Y-7194873D02*
G75*
G02*
X23104890Y-7194873I-110000J0D01*
G01*
X23104890Y-7194873D02*
G75*
G02*
X23324890Y-7194873I110000J0D01*
G01*
X23943469Y-8991358D02*
G75*
G02*
X23723469Y-8991358I-110000J0D01*
G01*
X23723469Y-8991358D02*
G75*
G02*
X23943469Y-8991358I110000J0D01*
G01*
X24316911Y-6561956D02*
G75*
G02*
X24096911Y-6561956I-110000J0D01*
G01*
X24096911Y-6561956D02*
G75*
G02*
X24316911Y-6561956I110000J0D01*
G01*
X25746736Y-7883737D02*
G75*
G02*
X25526736Y-7883737I-110000J0D01*
G01*
X25526736Y-7883737D02*
G75*
G02*
X25746736Y-7883737I110000J0D01*
G01*
D15*
X7071433Y-7913159D02*
X7071433Y-8338159D01*
X6858933Y-8125659D02*
X7283933Y-8125659D01*
X9792510Y-6520529D02*
X9792510Y-6945529D01*
X9580010Y-6733029D02*
X10005010Y-6733029D01*
X11900392Y-13168998D02*
X11900392Y-13593998D01*
X11687892Y-13381498D02*
X12112892Y-13381498D01*
X19837479Y-13168995D02*
X19837479Y-13593995D01*
X19624979Y-13381495D02*
X20049979Y-13381495D01*
X21945363Y-6520530D02*
X21945363Y-6945530D01*
X21732863Y-6733030D02*
X22157863Y-6733030D01*
X24666440Y-7913159D02*
X24666440Y-8338159D01*
X24453940Y-8125659D02*
X24878940Y-8125659D01*
D11*
X5029061Y-16083845D02*
X5029061Y-15883845D01*
X5029061Y-15883845D02*
X5076680Y-15883845D01*
X5076680Y-15883845D02*
X5105251Y-15893369D01*
X5105251Y-15893369D02*
X5124299Y-15912417D01*
X5124299Y-15912417D02*
X5133823Y-15931464D01*
X5133823Y-15931464D02*
X5143346Y-15969559D01*
X5143346Y-15969559D02*
X5143346Y-15998131D01*
X5143346Y-15998131D02*
X5133823Y-16036226D01*
X5133823Y-16036226D02*
X5124299Y-16055274D01*
X5124299Y-16055274D02*
X5105251Y-16074321D01*
X5105251Y-16074321D02*
X5076680Y-16083845D01*
X5076680Y-16083845D02*
X5029061Y-16083845D01*
X5229061Y-16083845D02*
X5229061Y-15950512D01*
X5229061Y-15988607D02*
X5238584Y-15969559D01*
X5238584Y-15969559D02*
X5248108Y-15960036D01*
X5248108Y-15960036D02*
X5267156Y-15950512D01*
X5267156Y-15950512D02*
X5286204Y-15950512D01*
X5352870Y-16083845D02*
X5352870Y-15950512D01*
X5352870Y-15883845D02*
X5343346Y-15893369D01*
X5343346Y-15893369D02*
X5352870Y-15902893D01*
X5352870Y-15902893D02*
X5362394Y-15893369D01*
X5362394Y-15893369D02*
X5352870Y-15883845D01*
X5352870Y-15883845D02*
X5352870Y-15902893D01*
X5476680Y-16083845D02*
X5457632Y-16074321D01*
X5457632Y-16074321D02*
X5448108Y-16055274D01*
X5448108Y-16055274D02*
X5448108Y-15883845D01*
X5581442Y-16083845D02*
X5562394Y-16074321D01*
X5562394Y-16074321D02*
X5552870Y-16055274D01*
X5552870Y-16055274D02*
X5552870Y-15883845D01*
X5810013Y-16083845D02*
X5810013Y-15883845D01*
X5810013Y-15883845D02*
X5876680Y-16026702D01*
X5876680Y-16026702D02*
X5943346Y-15883845D01*
X5943346Y-15883845D02*
X5943346Y-16083845D01*
X6124299Y-16083845D02*
X6124299Y-15979083D01*
X6124299Y-15979083D02*
X6114775Y-15960036D01*
X6114775Y-15960036D02*
X6095727Y-15950512D01*
X6095727Y-15950512D02*
X6057632Y-15950512D01*
X6057632Y-15950512D02*
X6038584Y-15960036D01*
X6124299Y-16074321D02*
X6105251Y-16083845D01*
X6105251Y-16083845D02*
X6057632Y-16083845D01*
X6057632Y-16083845D02*
X6038584Y-16074321D01*
X6038584Y-16074321D02*
X6029061Y-16055274D01*
X6029061Y-16055274D02*
X6029061Y-16036226D01*
X6029061Y-16036226D02*
X6038584Y-16017178D01*
X6038584Y-16017178D02*
X6057632Y-16007655D01*
X6057632Y-16007655D02*
X6105251Y-16007655D01*
X6105251Y-16007655D02*
X6124299Y-15998131D01*
X6219537Y-15950512D02*
X6219537Y-16150512D01*
X6219537Y-15960036D02*
X6238584Y-15950512D01*
X6238584Y-15950512D02*
X6276680Y-15950512D01*
X6276680Y-15950512D02*
X6295727Y-15960036D01*
X6295727Y-15960036D02*
X6305251Y-15969559D01*
X6305251Y-15969559D02*
X6314775Y-15988607D01*
X6314775Y-15988607D02*
X6314775Y-16045750D01*
X6314775Y-16045750D02*
X6305251Y-16064797D01*
X6305251Y-16064797D02*
X6295727Y-16074321D01*
X6295727Y-16074321D02*
X6276680Y-16083845D01*
X6276680Y-16083845D02*
X6238584Y-16083845D01*
X6238584Y-16083845D02*
X6219537Y-16074321D01*
X6400489Y-16064797D02*
X6410013Y-16074321D01*
X6410013Y-16074321D02*
X6400489Y-16083845D01*
X6400489Y-16083845D02*
X6390965Y-16074321D01*
X6390965Y-16074321D02*
X6400489Y-16064797D01*
X6400489Y-16064797D02*
X6400489Y-16083845D01*
X6400489Y-15960036D02*
X6410013Y-15969559D01*
X6410013Y-15969559D02*
X6400489Y-15979083D01*
X6400489Y-15979083D02*
X6390965Y-15969559D01*
X6390965Y-15969559D02*
X6400489Y-15960036D01*
X6400489Y-15960036D02*
X6400489Y-15979083D01*
D13*
X4678284Y-16367361D02*
X4768284Y-16457361D01*
X4768284Y-16367361D02*
X4678284Y-16457361D01*
D11*
X5067156Y-16303845D02*
X5086204Y-16303845D01*
X5086204Y-16303845D02*
X5105251Y-16313369D01*
X5105251Y-16313369D02*
X5114775Y-16322893D01*
X5114775Y-16322893D02*
X5124299Y-16341940D01*
X5124299Y-16341940D02*
X5133823Y-16380036D01*
X5133823Y-16380036D02*
X5133823Y-16427655D01*
X5133823Y-16427655D02*
X5124299Y-16465750D01*
X5124299Y-16465750D02*
X5114775Y-16484797D01*
X5114775Y-16484797D02*
X5105251Y-16494321D01*
X5105251Y-16494321D02*
X5086204Y-16503845D01*
X5086204Y-16503845D02*
X5067156Y-16503845D01*
X5067156Y-16503845D02*
X5048108Y-16494321D01*
X5048108Y-16494321D02*
X5038584Y-16484797D01*
X5038584Y-16484797D02*
X5029061Y-16465750D01*
X5029061Y-16465750D02*
X5019537Y-16427655D01*
X5019537Y-16427655D02*
X5019537Y-16380036D01*
X5019537Y-16380036D02*
X5029061Y-16341940D01*
X5029061Y-16341940D02*
X5038584Y-16322893D01*
X5038584Y-16322893D02*
X5048108Y-16313369D01*
X5048108Y-16313369D02*
X5067156Y-16303845D01*
X5219537Y-16484797D02*
X5229061Y-16494321D01*
X5229061Y-16494321D02*
X5219537Y-16503845D01*
X5219537Y-16503845D02*
X5210013Y-16494321D01*
X5210013Y-16494321D02*
X5219537Y-16484797D01*
X5219537Y-16484797D02*
X5219537Y-16503845D01*
X5324299Y-16503845D02*
X5362394Y-16503845D01*
X5362394Y-16503845D02*
X5381442Y-16494321D01*
X5381442Y-16494321D02*
X5390965Y-16484797D01*
X5390965Y-16484797D02*
X5410013Y-16456226D01*
X5410013Y-16456226D02*
X5419537Y-16418131D01*
X5419537Y-16418131D02*
X5419537Y-16341940D01*
X5419537Y-16341940D02*
X5410013Y-16322893D01*
X5410013Y-16322893D02*
X5400489Y-16313369D01*
X5400489Y-16313369D02*
X5381442Y-16303845D01*
X5381442Y-16303845D02*
X5343346Y-16303845D01*
X5343346Y-16303845D02*
X5324299Y-16313369D01*
X5324299Y-16313369D02*
X5314775Y-16322893D01*
X5314775Y-16322893D02*
X5305251Y-16341940D01*
X5305251Y-16341940D02*
X5305251Y-16389559D01*
X5305251Y-16389559D02*
X5314775Y-16408607D01*
X5314775Y-16408607D02*
X5324299Y-16418131D01*
X5324299Y-16418131D02*
X5343346Y-16427655D01*
X5343346Y-16427655D02*
X5381442Y-16427655D01*
X5381442Y-16427655D02*
X5400489Y-16418131D01*
X5400489Y-16418131D02*
X5410013Y-16408607D01*
X5410013Y-16408607D02*
X5419537Y-16389559D01*
X5543346Y-16303845D02*
X5562394Y-16303845D01*
X5562394Y-16303845D02*
X5581442Y-16313369D01*
X5581442Y-16313369D02*
X5590965Y-16322893D01*
X5590965Y-16322893D02*
X5600489Y-16341940D01*
X5600489Y-16341940D02*
X5610013Y-16380036D01*
X5610013Y-16380036D02*
X5610013Y-16427655D01*
X5610013Y-16427655D02*
X5600489Y-16465750D01*
X5600489Y-16465750D02*
X5590965Y-16484797D01*
X5590965Y-16484797D02*
X5581442Y-16494321D01*
X5581442Y-16494321D02*
X5562394Y-16503845D01*
X5562394Y-16503845D02*
X5543346Y-16503845D01*
X5543346Y-16503845D02*
X5524299Y-16494321D01*
X5524299Y-16494321D02*
X5514775Y-16484797D01*
X5514775Y-16484797D02*
X5505251Y-16465750D01*
X5505251Y-16465750D02*
X5495727Y-16427655D01*
X5495727Y-16427655D02*
X5495727Y-16380036D01*
X5495727Y-16380036D02*
X5505251Y-16341940D01*
X5505251Y-16341940D02*
X5514775Y-16322893D01*
X5514775Y-16322893D02*
X5524299Y-16313369D01*
X5524299Y-16313369D02*
X5543346Y-16303845D01*
X5733822Y-16303845D02*
X5752870Y-16303845D01*
X5752870Y-16303845D02*
X5771918Y-16313369D01*
X5771918Y-16313369D02*
X5781442Y-16322893D01*
X5781442Y-16322893D02*
X5790965Y-16341940D01*
X5790965Y-16341940D02*
X5800489Y-16380036D01*
X5800489Y-16380036D02*
X5800489Y-16427655D01*
X5800489Y-16427655D02*
X5790965Y-16465750D01*
X5790965Y-16465750D02*
X5781442Y-16484797D01*
X5781442Y-16484797D02*
X5771918Y-16494321D01*
X5771918Y-16494321D02*
X5752870Y-16503845D01*
X5752870Y-16503845D02*
X5733822Y-16503845D01*
X5733822Y-16503845D02*
X5714775Y-16494321D01*
X5714775Y-16494321D02*
X5705251Y-16484797D01*
X5705251Y-16484797D02*
X5695727Y-16465750D01*
X5695727Y-16465750D02*
X5686203Y-16427655D01*
X5686203Y-16427655D02*
X5686203Y-16380036D01*
X5686203Y-16380036D02*
X5695727Y-16341940D01*
X5695727Y-16341940D02*
X5705251Y-16322893D01*
X5705251Y-16322893D02*
X5714775Y-16313369D01*
X5714775Y-16313369D02*
X5733822Y-16303845D01*
X5886203Y-16503845D02*
X5886203Y-16370512D01*
X5886203Y-16389559D02*
X5895727Y-16380036D01*
X5895727Y-16380036D02*
X5914775Y-16370512D01*
X5914775Y-16370512D02*
X5943346Y-16370512D01*
X5943346Y-16370512D02*
X5962394Y-16380036D01*
X5962394Y-16380036D02*
X5971918Y-16399083D01*
X5971918Y-16399083D02*
X5971918Y-16503845D01*
X5971918Y-16399083D02*
X5981442Y-16380036D01*
X5981442Y-16380036D02*
X6000489Y-16370512D01*
X6000489Y-16370512D02*
X6029061Y-16370512D01*
X6029061Y-16370512D02*
X6048108Y-16380036D01*
X6048108Y-16380036D02*
X6057632Y-16399083D01*
X6057632Y-16399083D02*
X6057632Y-16503845D01*
X6152870Y-16503845D02*
X6152870Y-16370512D01*
X6152870Y-16389559D02*
X6162394Y-16380036D01*
X6162394Y-16380036D02*
X6181442Y-16370512D01*
X6181442Y-16370512D02*
X6210013Y-16370512D01*
X6210013Y-16370512D02*
X6229061Y-16380036D01*
X6229061Y-16380036D02*
X6238584Y-16399083D01*
X6238584Y-16399083D02*
X6238584Y-16503845D01*
X6238584Y-16399083D02*
X6248108Y-16380036D01*
X6248108Y-16380036D02*
X6267156Y-16370512D01*
X6267156Y-16370512D02*
X6295727Y-16370512D01*
X6295727Y-16370512D02*
X6314775Y-16380036D01*
X6314775Y-16380036D02*
X6324299Y-16399083D01*
X6324299Y-16399083D02*
X6324299Y-16503845D01*
X6714775Y-16294321D02*
X6543346Y-16551464D01*
X6971918Y-16303845D02*
X6990966Y-16303845D01*
X6990966Y-16303845D02*
X7010013Y-16313369D01*
X7010013Y-16313369D02*
X7019537Y-16322893D01*
X7019537Y-16322893D02*
X7029061Y-16341940D01*
X7029061Y-16341940D02*
X7038585Y-16380036D01*
X7038585Y-16380036D02*
X7038585Y-16427655D01*
X7038585Y-16427655D02*
X7029061Y-16465750D01*
X7029061Y-16465750D02*
X7019537Y-16484797D01*
X7019537Y-16484797D02*
X7010013Y-16494321D01*
X7010013Y-16494321D02*
X6990966Y-16503845D01*
X6990966Y-16503845D02*
X6971918Y-16503845D01*
X6971918Y-16503845D02*
X6952870Y-16494321D01*
X6952870Y-16494321D02*
X6943346Y-16484797D01*
X6943346Y-16484797D02*
X6933823Y-16465750D01*
X6933823Y-16465750D02*
X6924299Y-16427655D01*
X6924299Y-16427655D02*
X6924299Y-16380036D01*
X6924299Y-16380036D02*
X6933823Y-16341940D01*
X6933823Y-16341940D02*
X6943346Y-16322893D01*
X6943346Y-16322893D02*
X6952870Y-16313369D01*
X6952870Y-16313369D02*
X6971918Y-16303845D01*
X7124299Y-16484797D02*
X7133823Y-16494321D01*
X7133823Y-16494321D02*
X7124299Y-16503845D01*
X7124299Y-16503845D02*
X7114775Y-16494321D01*
X7114775Y-16494321D02*
X7124299Y-16484797D01*
X7124299Y-16484797D02*
X7124299Y-16503845D01*
X7257632Y-16303845D02*
X7276680Y-16303845D01*
X7276680Y-16303845D02*
X7295727Y-16313369D01*
X7295727Y-16313369D02*
X7305251Y-16322893D01*
X7305251Y-16322893D02*
X7314775Y-16341940D01*
X7314775Y-16341940D02*
X7324299Y-16380036D01*
X7324299Y-16380036D02*
X7324299Y-16427655D01*
X7324299Y-16427655D02*
X7314775Y-16465750D01*
X7314775Y-16465750D02*
X7305251Y-16484797D01*
X7305251Y-16484797D02*
X7295727Y-16494321D01*
X7295727Y-16494321D02*
X7276680Y-16503845D01*
X7276680Y-16503845D02*
X7257632Y-16503845D01*
X7257632Y-16503845D02*
X7238585Y-16494321D01*
X7238585Y-16494321D02*
X7229061Y-16484797D01*
X7229061Y-16484797D02*
X7219537Y-16465750D01*
X7219537Y-16465750D02*
X7210013Y-16427655D01*
X7210013Y-16427655D02*
X7210013Y-16380036D01*
X7210013Y-16380036D02*
X7219537Y-16341940D01*
X7219537Y-16341940D02*
X7229061Y-16322893D01*
X7229061Y-16322893D02*
X7238585Y-16313369D01*
X7238585Y-16313369D02*
X7257632Y-16303845D01*
X7390966Y-16303845D02*
X7514775Y-16303845D01*
X7514775Y-16303845D02*
X7448108Y-16380036D01*
X7448108Y-16380036D02*
X7476680Y-16380036D01*
X7476680Y-16380036D02*
X7495727Y-16389559D01*
X7495727Y-16389559D02*
X7505251Y-16399083D01*
X7505251Y-16399083D02*
X7514775Y-16418131D01*
X7514775Y-16418131D02*
X7514775Y-16465750D01*
X7514775Y-16465750D02*
X7505251Y-16484797D01*
X7505251Y-16484797D02*
X7495727Y-16494321D01*
X7495727Y-16494321D02*
X7476680Y-16503845D01*
X7476680Y-16503845D02*
X7419537Y-16503845D01*
X7419537Y-16503845D02*
X7400489Y-16494321D01*
X7400489Y-16494321D02*
X7390966Y-16484797D01*
X7695727Y-16303845D02*
X7600489Y-16303845D01*
X7600489Y-16303845D02*
X7590966Y-16399083D01*
X7590966Y-16399083D02*
X7600489Y-16389559D01*
X7600489Y-16389559D02*
X7619537Y-16380036D01*
X7619537Y-16380036D02*
X7667156Y-16380036D01*
X7667156Y-16380036D02*
X7686204Y-16389559D01*
X7686204Y-16389559D02*
X7695727Y-16399083D01*
X7695727Y-16399083D02*
X7705251Y-16418131D01*
X7705251Y-16418131D02*
X7705251Y-16465750D01*
X7705251Y-16465750D02*
X7695727Y-16484797D01*
X7695727Y-16484797D02*
X7686204Y-16494321D01*
X7686204Y-16494321D02*
X7667156Y-16503845D01*
X7667156Y-16503845D02*
X7619537Y-16503845D01*
X7619537Y-16503845D02*
X7600489Y-16494321D01*
X7600489Y-16494321D02*
X7590966Y-16484797D01*
X7876680Y-16370512D02*
X7876680Y-16503845D01*
X7829061Y-16294321D02*
X7781442Y-16437178D01*
X7781442Y-16437178D02*
X7905251Y-16437178D01*
X7971918Y-16303845D02*
X7971918Y-16341940D01*
X8048108Y-16303845D02*
X8048108Y-16341940D01*
X8343347Y-16580036D02*
X8333823Y-16570512D01*
X8333823Y-16570512D02*
X8314775Y-16541940D01*
X8314775Y-16541940D02*
X8305251Y-16522893D01*
X8305251Y-16522893D02*
X8295728Y-16494321D01*
X8295728Y-16494321D02*
X8286204Y-16446702D01*
X8286204Y-16446702D02*
X8286204Y-16408607D01*
X8286204Y-16408607D02*
X8295728Y-16360988D01*
X8295728Y-16360988D02*
X8305251Y-16332417D01*
X8305251Y-16332417D02*
X8314775Y-16313369D01*
X8314775Y-16313369D02*
X8333823Y-16284797D01*
X8333823Y-16284797D02*
X8343347Y-16275274D01*
X8410013Y-16322893D02*
X8419537Y-16313369D01*
X8419537Y-16313369D02*
X8438585Y-16303845D01*
X8438585Y-16303845D02*
X8486204Y-16303845D01*
X8486204Y-16303845D02*
X8505251Y-16313369D01*
X8505251Y-16313369D02*
X8514775Y-16322893D01*
X8514775Y-16322893D02*
X8524299Y-16341940D01*
X8524299Y-16341940D02*
X8524299Y-16360988D01*
X8524299Y-16360988D02*
X8514775Y-16389559D01*
X8514775Y-16389559D02*
X8400490Y-16503845D01*
X8400490Y-16503845D02*
X8524299Y-16503845D01*
X8762394Y-16503845D02*
X8762394Y-16303845D01*
X8848109Y-16503845D02*
X8848109Y-16399083D01*
X8848109Y-16399083D02*
X8838585Y-16380036D01*
X8838585Y-16380036D02*
X8819537Y-16370512D01*
X8819537Y-16370512D02*
X8790966Y-16370512D01*
X8790966Y-16370512D02*
X8771918Y-16380036D01*
X8771918Y-16380036D02*
X8762394Y-16389559D01*
X8971918Y-16503845D02*
X8952871Y-16494321D01*
X8952871Y-16494321D02*
X8943347Y-16484797D01*
X8943347Y-16484797D02*
X8933823Y-16465750D01*
X8933823Y-16465750D02*
X8933823Y-16408607D01*
X8933823Y-16408607D02*
X8943347Y-16389559D01*
X8943347Y-16389559D02*
X8952871Y-16380036D01*
X8952871Y-16380036D02*
X8971918Y-16370512D01*
X8971918Y-16370512D02*
X9000490Y-16370512D01*
X9000490Y-16370512D02*
X9019537Y-16380036D01*
X9019537Y-16380036D02*
X9029061Y-16389559D01*
X9029061Y-16389559D02*
X9038585Y-16408607D01*
X9038585Y-16408607D02*
X9038585Y-16465750D01*
X9038585Y-16465750D02*
X9029061Y-16484797D01*
X9029061Y-16484797D02*
X9019537Y-16494321D01*
X9019537Y-16494321D02*
X9000490Y-16503845D01*
X9000490Y-16503845D02*
X8971918Y-16503845D01*
X9152871Y-16503845D02*
X9133823Y-16494321D01*
X9133823Y-16494321D02*
X9124299Y-16475274D01*
X9124299Y-16475274D02*
X9124299Y-16303845D01*
X9305252Y-16494321D02*
X9286204Y-16503845D01*
X9286204Y-16503845D02*
X9248109Y-16503845D01*
X9248109Y-16503845D02*
X9229061Y-16494321D01*
X9229061Y-16494321D02*
X9219537Y-16475274D01*
X9219537Y-16475274D02*
X9219537Y-16399083D01*
X9219537Y-16399083D02*
X9229061Y-16380036D01*
X9229061Y-16380036D02*
X9248109Y-16370512D01*
X9248109Y-16370512D02*
X9286204Y-16370512D01*
X9286204Y-16370512D02*
X9305252Y-16380036D01*
X9305252Y-16380036D02*
X9314775Y-16399083D01*
X9314775Y-16399083D02*
X9314775Y-16418131D01*
X9314775Y-16418131D02*
X9219537Y-16437178D01*
X9390966Y-16494321D02*
X9410013Y-16503845D01*
X9410013Y-16503845D02*
X9448109Y-16503845D01*
X9448109Y-16503845D02*
X9467156Y-16494321D01*
X9467156Y-16494321D02*
X9476680Y-16475274D01*
X9476680Y-16475274D02*
X9476680Y-16465750D01*
X9476680Y-16465750D02*
X9467156Y-16446702D01*
X9467156Y-16446702D02*
X9448109Y-16437178D01*
X9448109Y-16437178D02*
X9419537Y-16437178D01*
X9419537Y-16437178D02*
X9400490Y-16427655D01*
X9400490Y-16427655D02*
X9390966Y-16408607D01*
X9390966Y-16408607D02*
X9390966Y-16399083D01*
X9390966Y-16399083D02*
X9400490Y-16380036D01*
X9400490Y-16380036D02*
X9419537Y-16370512D01*
X9419537Y-16370512D02*
X9448109Y-16370512D01*
X9448109Y-16370512D02*
X9467156Y-16380036D01*
X9543347Y-16580036D02*
X9552871Y-16570512D01*
X9552871Y-16570512D02*
X9571918Y-16541940D01*
X9571918Y-16541940D02*
X9581442Y-16522893D01*
X9581442Y-16522893D02*
X9590966Y-16494321D01*
X9590966Y-16494321D02*
X9600490Y-16446702D01*
X9600490Y-16446702D02*
X9600490Y-16408607D01*
X9600490Y-16408607D02*
X9590966Y-16360988D01*
X9590966Y-16360988D02*
X9581442Y-16332417D01*
X9581442Y-16332417D02*
X9571918Y-16313369D01*
X9571918Y-16313369D02*
X9552871Y-16284797D01*
X9552871Y-16284797D02*
X9543347Y-16275274D01*
X9905252Y-16580036D02*
X9895728Y-16570512D01*
X9895728Y-16570512D02*
X9876680Y-16541940D01*
X9876680Y-16541940D02*
X9867156Y-16522893D01*
X9867156Y-16522893D02*
X9857633Y-16494321D01*
X9857633Y-16494321D02*
X9848109Y-16446702D01*
X9848109Y-16446702D02*
X9848109Y-16408607D01*
X9848109Y-16408607D02*
X9857633Y-16360988D01*
X9857633Y-16360988D02*
X9867156Y-16332417D01*
X9867156Y-16332417D02*
X9876680Y-16313369D01*
X9876680Y-16313369D02*
X9895728Y-16284797D01*
X9895728Y-16284797D02*
X9905252Y-16275274D01*
X9981442Y-16370512D02*
X9981442Y-16503845D01*
X9981442Y-16389559D02*
X9990966Y-16380036D01*
X9990966Y-16380036D02*
X10010013Y-16370512D01*
X10010013Y-16370512D02*
X10038585Y-16370512D01*
X10038585Y-16370512D02*
X10057633Y-16380036D01*
X10057633Y-16380036D02*
X10067156Y-16399083D01*
X10067156Y-16399083D02*
X10067156Y-16503845D01*
X10190966Y-16503845D02*
X10171918Y-16494321D01*
X10171918Y-16494321D02*
X10162394Y-16484797D01*
X10162394Y-16484797D02*
X10152871Y-16465750D01*
X10152871Y-16465750D02*
X10152871Y-16408607D01*
X10152871Y-16408607D02*
X10162394Y-16389559D01*
X10162394Y-16389559D02*
X10171918Y-16380036D01*
X10171918Y-16380036D02*
X10190966Y-16370512D01*
X10190966Y-16370512D02*
X10219537Y-16370512D01*
X10219537Y-16370512D02*
X10238585Y-16380036D01*
X10238585Y-16380036D02*
X10248109Y-16389559D01*
X10248109Y-16389559D02*
X10257633Y-16408607D01*
X10257633Y-16408607D02*
X10257633Y-16465750D01*
X10257633Y-16465750D02*
X10248109Y-16484797D01*
X10248109Y-16484797D02*
X10238585Y-16494321D01*
X10238585Y-16494321D02*
X10219537Y-16503845D01*
X10219537Y-16503845D02*
X10190966Y-16503845D01*
X10314775Y-16370512D02*
X10390966Y-16370512D01*
X10343347Y-16303845D02*
X10343347Y-16475274D01*
X10343347Y-16475274D02*
X10352871Y-16494321D01*
X10352871Y-16494321D02*
X10371918Y-16503845D01*
X10371918Y-16503845D02*
X10390966Y-16503845D01*
X10610014Y-16370512D02*
X10610014Y-16570512D01*
X10610014Y-16380036D02*
X10629061Y-16370512D01*
X10629061Y-16370512D02*
X10667156Y-16370512D01*
X10667156Y-16370512D02*
X10686204Y-16380036D01*
X10686204Y-16380036D02*
X10695728Y-16389559D01*
X10695728Y-16389559D02*
X10705252Y-16408607D01*
X10705252Y-16408607D02*
X10705252Y-16465750D01*
X10705252Y-16465750D02*
X10695728Y-16484797D01*
X10695728Y-16484797D02*
X10686204Y-16494321D01*
X10686204Y-16494321D02*
X10667156Y-16503845D01*
X10667156Y-16503845D02*
X10629061Y-16503845D01*
X10629061Y-16503845D02*
X10610014Y-16494321D01*
X10819537Y-16503845D02*
X10800490Y-16494321D01*
X10800490Y-16494321D02*
X10790966Y-16475274D01*
X10790966Y-16475274D02*
X10790966Y-16303845D01*
X10981442Y-16503845D02*
X10981442Y-16399083D01*
X10981442Y-16399083D02*
X10971918Y-16380036D01*
X10971918Y-16380036D02*
X10952871Y-16370512D01*
X10952871Y-16370512D02*
X10914775Y-16370512D01*
X10914775Y-16370512D02*
X10895728Y-16380036D01*
X10981442Y-16494321D02*
X10962395Y-16503845D01*
X10962395Y-16503845D02*
X10914775Y-16503845D01*
X10914775Y-16503845D02*
X10895728Y-16494321D01*
X10895728Y-16494321D02*
X10886204Y-16475274D01*
X10886204Y-16475274D02*
X10886204Y-16456226D01*
X10886204Y-16456226D02*
X10895728Y-16437178D01*
X10895728Y-16437178D02*
X10914775Y-16427655D01*
X10914775Y-16427655D02*
X10962395Y-16427655D01*
X10962395Y-16427655D02*
X10981442Y-16418131D01*
X11048109Y-16370512D02*
X11124299Y-16370512D01*
X11076680Y-16303845D02*
X11076680Y-16475274D01*
X11076680Y-16475274D02*
X11086204Y-16494321D01*
X11086204Y-16494321D02*
X11105252Y-16503845D01*
X11105252Y-16503845D02*
X11124299Y-16503845D01*
X11267156Y-16494321D02*
X11248109Y-16503845D01*
X11248109Y-16503845D02*
X11210013Y-16503845D01*
X11210013Y-16503845D02*
X11190966Y-16494321D01*
X11190966Y-16494321D02*
X11181442Y-16475274D01*
X11181442Y-16475274D02*
X11181442Y-16399083D01*
X11181442Y-16399083D02*
X11190966Y-16380036D01*
X11190966Y-16380036D02*
X11210013Y-16370512D01*
X11210013Y-16370512D02*
X11248109Y-16370512D01*
X11248109Y-16370512D02*
X11267156Y-16380036D01*
X11267156Y-16380036D02*
X11276680Y-16399083D01*
X11276680Y-16399083D02*
X11276680Y-16418131D01*
X11276680Y-16418131D02*
X11181442Y-16437178D01*
X11448109Y-16503845D02*
X11448109Y-16303845D01*
X11448109Y-16494321D02*
X11429061Y-16503845D01*
X11429061Y-16503845D02*
X11390966Y-16503845D01*
X11390966Y-16503845D02*
X11371918Y-16494321D01*
X11371918Y-16494321D02*
X11362394Y-16484797D01*
X11362394Y-16484797D02*
X11352871Y-16465750D01*
X11352871Y-16465750D02*
X11352871Y-16408607D01*
X11352871Y-16408607D02*
X11362394Y-16389559D01*
X11362394Y-16389559D02*
X11371918Y-16380036D01*
X11371918Y-16380036D02*
X11390966Y-16370512D01*
X11390966Y-16370512D02*
X11429061Y-16370512D01*
X11429061Y-16370512D02*
X11448109Y-16380036D01*
X11524299Y-16580036D02*
X11533823Y-16570512D01*
X11533823Y-16570512D02*
X11552871Y-16541940D01*
X11552871Y-16541940D02*
X11562394Y-16522893D01*
X11562394Y-16522893D02*
X11571918Y-16494321D01*
X11571918Y-16494321D02*
X11581442Y-16446702D01*
X11581442Y-16446702D02*
X11581442Y-16408607D01*
X11581442Y-16408607D02*
X11571918Y-16360988D01*
X11571918Y-16360988D02*
X11562394Y-16332417D01*
X11562394Y-16332417D02*
X11552871Y-16313369D01*
X11552871Y-16313369D02*
X11533823Y-16284797D01*
X11533823Y-16284797D02*
X11524299Y-16275274D01*
X4768284Y-16676361D02*
G75*
G02*
X4568284Y-16676361I-100000J0D01*
G01*
X4568284Y-16676361D02*
G75*
G02*
X4768284Y-16676361I100000J0D01*
G01*
X5019537Y-16586893D02*
X5029061Y-16577369D01*
X5029061Y-16577369D02*
X5048108Y-16567845D01*
X5048108Y-16567845D02*
X5095727Y-16567845D01*
X5095727Y-16567845D02*
X5114775Y-16577369D01*
X5114775Y-16577369D02*
X5124299Y-16586893D01*
X5124299Y-16586893D02*
X5133823Y-16605940D01*
X5133823Y-16605940D02*
X5133823Y-16624988D01*
X5133823Y-16624988D02*
X5124299Y-16653559D01*
X5124299Y-16653559D02*
X5010013Y-16767845D01*
X5010013Y-16767845D02*
X5133823Y-16767845D01*
X5219537Y-16748797D02*
X5229061Y-16758321D01*
X5229061Y-16758321D02*
X5219537Y-16767845D01*
X5219537Y-16767845D02*
X5210013Y-16758321D01*
X5210013Y-16758321D02*
X5219537Y-16748797D01*
X5219537Y-16748797D02*
X5219537Y-16767845D01*
X5305251Y-16586893D02*
X5314775Y-16577369D01*
X5314775Y-16577369D02*
X5333823Y-16567845D01*
X5333823Y-16567845D02*
X5381442Y-16567845D01*
X5381442Y-16567845D02*
X5400489Y-16577369D01*
X5400489Y-16577369D02*
X5410013Y-16586893D01*
X5410013Y-16586893D02*
X5419537Y-16605940D01*
X5419537Y-16605940D02*
X5419537Y-16624988D01*
X5419537Y-16624988D02*
X5410013Y-16653559D01*
X5410013Y-16653559D02*
X5295727Y-16767845D01*
X5295727Y-16767845D02*
X5419537Y-16767845D01*
X5543346Y-16567845D02*
X5562394Y-16567845D01*
X5562394Y-16567845D02*
X5581442Y-16577369D01*
X5581442Y-16577369D02*
X5590965Y-16586893D01*
X5590965Y-16586893D02*
X5600489Y-16605940D01*
X5600489Y-16605940D02*
X5610013Y-16644036D01*
X5610013Y-16644036D02*
X5610013Y-16691655D01*
X5610013Y-16691655D02*
X5600489Y-16729750D01*
X5600489Y-16729750D02*
X5590965Y-16748797D01*
X5590965Y-16748797D02*
X5581442Y-16758321D01*
X5581442Y-16758321D02*
X5562394Y-16767845D01*
X5562394Y-16767845D02*
X5543346Y-16767845D01*
X5543346Y-16767845D02*
X5524299Y-16758321D01*
X5524299Y-16758321D02*
X5514775Y-16748797D01*
X5514775Y-16748797D02*
X5505251Y-16729750D01*
X5505251Y-16729750D02*
X5495727Y-16691655D01*
X5495727Y-16691655D02*
X5495727Y-16644036D01*
X5495727Y-16644036D02*
X5505251Y-16605940D01*
X5505251Y-16605940D02*
X5514775Y-16586893D01*
X5514775Y-16586893D02*
X5524299Y-16577369D01*
X5524299Y-16577369D02*
X5543346Y-16567845D01*
X5733822Y-16567845D02*
X5752870Y-16567845D01*
X5752870Y-16567845D02*
X5771918Y-16577369D01*
X5771918Y-16577369D02*
X5781442Y-16586893D01*
X5781442Y-16586893D02*
X5790965Y-16605940D01*
X5790965Y-16605940D02*
X5800489Y-16644036D01*
X5800489Y-16644036D02*
X5800489Y-16691655D01*
X5800489Y-16691655D02*
X5790965Y-16729750D01*
X5790965Y-16729750D02*
X5781442Y-16748797D01*
X5781442Y-16748797D02*
X5771918Y-16758321D01*
X5771918Y-16758321D02*
X5752870Y-16767845D01*
X5752870Y-16767845D02*
X5733822Y-16767845D01*
X5733822Y-16767845D02*
X5714775Y-16758321D01*
X5714775Y-16758321D02*
X5705251Y-16748797D01*
X5705251Y-16748797D02*
X5695727Y-16729750D01*
X5695727Y-16729750D02*
X5686203Y-16691655D01*
X5686203Y-16691655D02*
X5686203Y-16644036D01*
X5686203Y-16644036D02*
X5695727Y-16605940D01*
X5695727Y-16605940D02*
X5705251Y-16586893D01*
X5705251Y-16586893D02*
X5714775Y-16577369D01*
X5714775Y-16577369D02*
X5733822Y-16567845D01*
X5886203Y-16767845D02*
X5886203Y-16634512D01*
X5886203Y-16653559D02*
X5895727Y-16644036D01*
X5895727Y-16644036D02*
X5914775Y-16634512D01*
X5914775Y-16634512D02*
X5943346Y-16634512D01*
X5943346Y-16634512D02*
X5962394Y-16644036D01*
X5962394Y-16644036D02*
X5971918Y-16663083D01*
X5971918Y-16663083D02*
X5971918Y-16767845D01*
X5971918Y-16663083D02*
X5981442Y-16644036D01*
X5981442Y-16644036D02*
X6000489Y-16634512D01*
X6000489Y-16634512D02*
X6029061Y-16634512D01*
X6029061Y-16634512D02*
X6048108Y-16644036D01*
X6048108Y-16644036D02*
X6057632Y-16663083D01*
X6057632Y-16663083D02*
X6057632Y-16767845D01*
X6152870Y-16767845D02*
X6152870Y-16634512D01*
X6152870Y-16653559D02*
X6162394Y-16644036D01*
X6162394Y-16644036D02*
X6181442Y-16634512D01*
X6181442Y-16634512D02*
X6210013Y-16634512D01*
X6210013Y-16634512D02*
X6229061Y-16644036D01*
X6229061Y-16644036D02*
X6238584Y-16663083D01*
X6238584Y-16663083D02*
X6238584Y-16767845D01*
X6238584Y-16663083D02*
X6248108Y-16644036D01*
X6248108Y-16644036D02*
X6267156Y-16634512D01*
X6267156Y-16634512D02*
X6295727Y-16634512D01*
X6295727Y-16634512D02*
X6314775Y-16644036D01*
X6314775Y-16644036D02*
X6324299Y-16663083D01*
X6324299Y-16663083D02*
X6324299Y-16767845D01*
X6714775Y-16558321D02*
X6543346Y-16815464D01*
X6971918Y-16567845D02*
X6990966Y-16567845D01*
X6990966Y-16567845D02*
X7010013Y-16577369D01*
X7010013Y-16577369D02*
X7019537Y-16586893D01*
X7019537Y-16586893D02*
X7029061Y-16605940D01*
X7029061Y-16605940D02*
X7038585Y-16644036D01*
X7038585Y-16644036D02*
X7038585Y-16691655D01*
X7038585Y-16691655D02*
X7029061Y-16729750D01*
X7029061Y-16729750D02*
X7019537Y-16748797D01*
X7019537Y-16748797D02*
X7010013Y-16758321D01*
X7010013Y-16758321D02*
X6990966Y-16767845D01*
X6990966Y-16767845D02*
X6971918Y-16767845D01*
X6971918Y-16767845D02*
X6952870Y-16758321D01*
X6952870Y-16758321D02*
X6943346Y-16748797D01*
X6943346Y-16748797D02*
X6933823Y-16729750D01*
X6933823Y-16729750D02*
X6924299Y-16691655D01*
X6924299Y-16691655D02*
X6924299Y-16644036D01*
X6924299Y-16644036D02*
X6933823Y-16605940D01*
X6933823Y-16605940D02*
X6943346Y-16586893D01*
X6943346Y-16586893D02*
X6952870Y-16577369D01*
X6952870Y-16577369D02*
X6971918Y-16567845D01*
X7124299Y-16748797D02*
X7133823Y-16758321D01*
X7133823Y-16758321D02*
X7124299Y-16767845D01*
X7124299Y-16767845D02*
X7114775Y-16758321D01*
X7114775Y-16758321D02*
X7124299Y-16748797D01*
X7124299Y-16748797D02*
X7124299Y-16767845D01*
X7257632Y-16567845D02*
X7276680Y-16567845D01*
X7276680Y-16567845D02*
X7295727Y-16577369D01*
X7295727Y-16577369D02*
X7305251Y-16586893D01*
X7305251Y-16586893D02*
X7314775Y-16605940D01*
X7314775Y-16605940D02*
X7324299Y-16644036D01*
X7324299Y-16644036D02*
X7324299Y-16691655D01*
X7324299Y-16691655D02*
X7314775Y-16729750D01*
X7314775Y-16729750D02*
X7305251Y-16748797D01*
X7305251Y-16748797D02*
X7295727Y-16758321D01*
X7295727Y-16758321D02*
X7276680Y-16767845D01*
X7276680Y-16767845D02*
X7257632Y-16767845D01*
X7257632Y-16767845D02*
X7238585Y-16758321D01*
X7238585Y-16758321D02*
X7229061Y-16748797D01*
X7229061Y-16748797D02*
X7219537Y-16729750D01*
X7219537Y-16729750D02*
X7210013Y-16691655D01*
X7210013Y-16691655D02*
X7210013Y-16644036D01*
X7210013Y-16644036D02*
X7219537Y-16605940D01*
X7219537Y-16605940D02*
X7229061Y-16586893D01*
X7229061Y-16586893D02*
X7238585Y-16577369D01*
X7238585Y-16577369D02*
X7257632Y-16567845D01*
X7438585Y-16653559D02*
X7419537Y-16644036D01*
X7419537Y-16644036D02*
X7410013Y-16634512D01*
X7410013Y-16634512D02*
X7400489Y-16615464D01*
X7400489Y-16615464D02*
X7400489Y-16605940D01*
X7400489Y-16605940D02*
X7410013Y-16586893D01*
X7410013Y-16586893D02*
X7419537Y-16577369D01*
X7419537Y-16577369D02*
X7438585Y-16567845D01*
X7438585Y-16567845D02*
X7476680Y-16567845D01*
X7476680Y-16567845D02*
X7495727Y-16577369D01*
X7495727Y-16577369D02*
X7505251Y-16586893D01*
X7505251Y-16586893D02*
X7514775Y-16605940D01*
X7514775Y-16605940D02*
X7514775Y-16615464D01*
X7514775Y-16615464D02*
X7505251Y-16634512D01*
X7505251Y-16634512D02*
X7495727Y-16644036D01*
X7495727Y-16644036D02*
X7476680Y-16653559D01*
X7476680Y-16653559D02*
X7438585Y-16653559D01*
X7438585Y-16653559D02*
X7419537Y-16663083D01*
X7419537Y-16663083D02*
X7410013Y-16672607D01*
X7410013Y-16672607D02*
X7400489Y-16691655D01*
X7400489Y-16691655D02*
X7400489Y-16729750D01*
X7400489Y-16729750D02*
X7410013Y-16748797D01*
X7410013Y-16748797D02*
X7419537Y-16758321D01*
X7419537Y-16758321D02*
X7438585Y-16767845D01*
X7438585Y-16767845D02*
X7476680Y-16767845D01*
X7476680Y-16767845D02*
X7495727Y-16758321D01*
X7495727Y-16758321D02*
X7505251Y-16748797D01*
X7505251Y-16748797D02*
X7514775Y-16729750D01*
X7514775Y-16729750D02*
X7514775Y-16691655D01*
X7514775Y-16691655D02*
X7505251Y-16672607D01*
X7505251Y-16672607D02*
X7495727Y-16663083D01*
X7495727Y-16663083D02*
X7476680Y-16653559D01*
X7686204Y-16567845D02*
X7648108Y-16567845D01*
X7648108Y-16567845D02*
X7629061Y-16577369D01*
X7629061Y-16577369D02*
X7619537Y-16586893D01*
X7619537Y-16586893D02*
X7600489Y-16615464D01*
X7600489Y-16615464D02*
X7590966Y-16653559D01*
X7590966Y-16653559D02*
X7590966Y-16729750D01*
X7590966Y-16729750D02*
X7600489Y-16748797D01*
X7600489Y-16748797D02*
X7610013Y-16758321D01*
X7610013Y-16758321D02*
X7629061Y-16767845D01*
X7629061Y-16767845D02*
X7667156Y-16767845D01*
X7667156Y-16767845D02*
X7686204Y-16758321D01*
X7686204Y-16758321D02*
X7695727Y-16748797D01*
X7695727Y-16748797D02*
X7705251Y-16729750D01*
X7705251Y-16729750D02*
X7705251Y-16682131D01*
X7705251Y-16682131D02*
X7695727Y-16663083D01*
X7695727Y-16663083D02*
X7686204Y-16653559D01*
X7686204Y-16653559D02*
X7667156Y-16644036D01*
X7667156Y-16644036D02*
X7629061Y-16644036D01*
X7629061Y-16644036D02*
X7610013Y-16653559D01*
X7610013Y-16653559D02*
X7600489Y-16663083D01*
X7600489Y-16663083D02*
X7590966Y-16682131D01*
X7876680Y-16567845D02*
X7838585Y-16567845D01*
X7838585Y-16567845D02*
X7819537Y-16577369D01*
X7819537Y-16577369D02*
X7810013Y-16586893D01*
X7810013Y-16586893D02*
X7790966Y-16615464D01*
X7790966Y-16615464D02*
X7781442Y-16653559D01*
X7781442Y-16653559D02*
X7781442Y-16729750D01*
X7781442Y-16729750D02*
X7790966Y-16748797D01*
X7790966Y-16748797D02*
X7800489Y-16758321D01*
X7800489Y-16758321D02*
X7819537Y-16767845D01*
X7819537Y-16767845D02*
X7857632Y-16767845D01*
X7857632Y-16767845D02*
X7876680Y-16758321D01*
X7876680Y-16758321D02*
X7886204Y-16748797D01*
X7886204Y-16748797D02*
X7895727Y-16729750D01*
X7895727Y-16729750D02*
X7895727Y-16682131D01*
X7895727Y-16682131D02*
X7886204Y-16663083D01*
X7886204Y-16663083D02*
X7876680Y-16653559D01*
X7876680Y-16653559D02*
X7857632Y-16644036D01*
X7857632Y-16644036D02*
X7819537Y-16644036D01*
X7819537Y-16644036D02*
X7800489Y-16653559D01*
X7800489Y-16653559D02*
X7790966Y-16663083D01*
X7790966Y-16663083D02*
X7781442Y-16682131D01*
X7971918Y-16567845D02*
X7971918Y-16605940D01*
X8048108Y-16567845D02*
X8048108Y-16605940D01*
X8343347Y-16844036D02*
X8333823Y-16834512D01*
X8333823Y-16834512D02*
X8314775Y-16805940D01*
X8314775Y-16805940D02*
X8305251Y-16786893D01*
X8305251Y-16786893D02*
X8295728Y-16758321D01*
X8295728Y-16758321D02*
X8286204Y-16710702D01*
X8286204Y-16710702D02*
X8286204Y-16672607D01*
X8286204Y-16672607D02*
X8295728Y-16624988D01*
X8295728Y-16624988D02*
X8305251Y-16596417D01*
X8305251Y-16596417D02*
X8314775Y-16577369D01*
X8314775Y-16577369D02*
X8333823Y-16548797D01*
X8333823Y-16548797D02*
X8343347Y-16539274D01*
X8410013Y-16586893D02*
X8419537Y-16577369D01*
X8419537Y-16577369D02*
X8438585Y-16567845D01*
X8438585Y-16567845D02*
X8486204Y-16567845D01*
X8486204Y-16567845D02*
X8505251Y-16577369D01*
X8505251Y-16577369D02*
X8514775Y-16586893D01*
X8514775Y-16586893D02*
X8524299Y-16605940D01*
X8524299Y-16605940D02*
X8524299Y-16624988D01*
X8524299Y-16624988D02*
X8514775Y-16653559D01*
X8514775Y-16653559D02*
X8400490Y-16767845D01*
X8400490Y-16767845D02*
X8524299Y-16767845D01*
X8695728Y-16567845D02*
X8657632Y-16567845D01*
X8657632Y-16567845D02*
X8638585Y-16577369D01*
X8638585Y-16577369D02*
X8629061Y-16586893D01*
X8629061Y-16586893D02*
X8610013Y-16615464D01*
X8610013Y-16615464D02*
X8600490Y-16653559D01*
X8600490Y-16653559D02*
X8600490Y-16729750D01*
X8600490Y-16729750D02*
X8610013Y-16748797D01*
X8610013Y-16748797D02*
X8619537Y-16758321D01*
X8619537Y-16758321D02*
X8638585Y-16767845D01*
X8638585Y-16767845D02*
X8676680Y-16767845D01*
X8676680Y-16767845D02*
X8695728Y-16758321D01*
X8695728Y-16758321D02*
X8705251Y-16748797D01*
X8705251Y-16748797D02*
X8714775Y-16729750D01*
X8714775Y-16729750D02*
X8714775Y-16682131D01*
X8714775Y-16682131D02*
X8705251Y-16663083D01*
X8705251Y-16663083D02*
X8695728Y-16653559D01*
X8695728Y-16653559D02*
X8676680Y-16644036D01*
X8676680Y-16644036D02*
X8638585Y-16644036D01*
X8638585Y-16644036D02*
X8619537Y-16653559D01*
X8619537Y-16653559D02*
X8610013Y-16663083D01*
X8610013Y-16663083D02*
X8600490Y-16682131D01*
X8952871Y-16767845D02*
X8952871Y-16567845D01*
X9038585Y-16767845D02*
X9038585Y-16663083D01*
X9038585Y-16663083D02*
X9029061Y-16644036D01*
X9029061Y-16644036D02*
X9010013Y-16634512D01*
X9010013Y-16634512D02*
X8981442Y-16634512D01*
X8981442Y-16634512D02*
X8962394Y-16644036D01*
X8962394Y-16644036D02*
X8952871Y-16653559D01*
X9162394Y-16767845D02*
X9143347Y-16758321D01*
X9143347Y-16758321D02*
X9133823Y-16748797D01*
X9133823Y-16748797D02*
X9124299Y-16729750D01*
X9124299Y-16729750D02*
X9124299Y-16672607D01*
X9124299Y-16672607D02*
X9133823Y-16653559D01*
X9133823Y-16653559D02*
X9143347Y-16644036D01*
X9143347Y-16644036D02*
X9162394Y-16634512D01*
X9162394Y-16634512D02*
X9190966Y-16634512D01*
X9190966Y-16634512D02*
X9210013Y-16644036D01*
X9210013Y-16644036D02*
X9219537Y-16653559D01*
X9219537Y-16653559D02*
X9229061Y-16672607D01*
X9229061Y-16672607D02*
X9229061Y-16729750D01*
X9229061Y-16729750D02*
X9219537Y-16748797D01*
X9219537Y-16748797D02*
X9210013Y-16758321D01*
X9210013Y-16758321D02*
X9190966Y-16767845D01*
X9190966Y-16767845D02*
X9162394Y-16767845D01*
X9343347Y-16767845D02*
X9324299Y-16758321D01*
X9324299Y-16758321D02*
X9314775Y-16739274D01*
X9314775Y-16739274D02*
X9314775Y-16567845D01*
X9495728Y-16758321D02*
X9476680Y-16767845D01*
X9476680Y-16767845D02*
X9438585Y-16767845D01*
X9438585Y-16767845D02*
X9419537Y-16758321D01*
X9419537Y-16758321D02*
X9410013Y-16739274D01*
X9410013Y-16739274D02*
X9410013Y-16663083D01*
X9410013Y-16663083D02*
X9419537Y-16644036D01*
X9419537Y-16644036D02*
X9438585Y-16634512D01*
X9438585Y-16634512D02*
X9476680Y-16634512D01*
X9476680Y-16634512D02*
X9495728Y-16644036D01*
X9495728Y-16644036D02*
X9505252Y-16663083D01*
X9505252Y-16663083D02*
X9505252Y-16682131D01*
X9505252Y-16682131D02*
X9410013Y-16701178D01*
X9581442Y-16758321D02*
X9600490Y-16767845D01*
X9600490Y-16767845D02*
X9638585Y-16767845D01*
X9638585Y-16767845D02*
X9657633Y-16758321D01*
X9657633Y-16758321D02*
X9667156Y-16739274D01*
X9667156Y-16739274D02*
X9667156Y-16729750D01*
X9667156Y-16729750D02*
X9657633Y-16710702D01*
X9657633Y-16710702D02*
X9638585Y-16701178D01*
X9638585Y-16701178D02*
X9610013Y-16701178D01*
X9610013Y-16701178D02*
X9590966Y-16691655D01*
X9590966Y-16691655D02*
X9581442Y-16672607D01*
X9581442Y-16672607D02*
X9581442Y-16663083D01*
X9581442Y-16663083D02*
X9590966Y-16644036D01*
X9590966Y-16644036D02*
X9610013Y-16634512D01*
X9610013Y-16634512D02*
X9638585Y-16634512D01*
X9638585Y-16634512D02*
X9657633Y-16644036D01*
X9733823Y-16844036D02*
X9743347Y-16834512D01*
X9743347Y-16834512D02*
X9762394Y-16805940D01*
X9762394Y-16805940D02*
X9771918Y-16786893D01*
X9771918Y-16786893D02*
X9781442Y-16758321D01*
X9781442Y-16758321D02*
X9790966Y-16710702D01*
X9790966Y-16710702D02*
X9790966Y-16672607D01*
X9790966Y-16672607D02*
X9781442Y-16624988D01*
X9781442Y-16624988D02*
X9771918Y-16596417D01*
X9771918Y-16596417D02*
X9762394Y-16577369D01*
X9762394Y-16577369D02*
X9743347Y-16548797D01*
X9743347Y-16548797D02*
X9733823Y-16539274D01*
X10095728Y-16844036D02*
X10086204Y-16834512D01*
X10086204Y-16834512D02*
X10067156Y-16805940D01*
X10067156Y-16805940D02*
X10057633Y-16786893D01*
X10057633Y-16786893D02*
X10048109Y-16758321D01*
X10048109Y-16758321D02*
X10038585Y-16710702D01*
X10038585Y-16710702D02*
X10038585Y-16672607D01*
X10038585Y-16672607D02*
X10048109Y-16624988D01*
X10048109Y-16624988D02*
X10057633Y-16596417D01*
X10057633Y-16596417D02*
X10067156Y-16577369D01*
X10067156Y-16577369D02*
X10086204Y-16548797D01*
X10086204Y-16548797D02*
X10095728Y-16539274D01*
X10171918Y-16634512D02*
X10171918Y-16767845D01*
X10171918Y-16653559D02*
X10181442Y-16644036D01*
X10181442Y-16644036D02*
X10200490Y-16634512D01*
X10200490Y-16634512D02*
X10229061Y-16634512D01*
X10229061Y-16634512D02*
X10248109Y-16644036D01*
X10248109Y-16644036D02*
X10257633Y-16663083D01*
X10257633Y-16663083D02*
X10257633Y-16767845D01*
X10381442Y-16767845D02*
X10362394Y-16758321D01*
X10362394Y-16758321D02*
X10352871Y-16748797D01*
X10352871Y-16748797D02*
X10343347Y-16729750D01*
X10343347Y-16729750D02*
X10343347Y-16672607D01*
X10343347Y-16672607D02*
X10352871Y-16653559D01*
X10352871Y-16653559D02*
X10362394Y-16644036D01*
X10362394Y-16644036D02*
X10381442Y-16634512D01*
X10381442Y-16634512D02*
X10410014Y-16634512D01*
X10410014Y-16634512D02*
X10429061Y-16644036D01*
X10429061Y-16644036D02*
X10438585Y-16653559D01*
X10438585Y-16653559D02*
X10448109Y-16672607D01*
X10448109Y-16672607D02*
X10448109Y-16729750D01*
X10448109Y-16729750D02*
X10438585Y-16748797D01*
X10438585Y-16748797D02*
X10429061Y-16758321D01*
X10429061Y-16758321D02*
X10410014Y-16767845D01*
X10410014Y-16767845D02*
X10381442Y-16767845D01*
X10505252Y-16634512D02*
X10581442Y-16634512D01*
X10533823Y-16567845D02*
X10533823Y-16739274D01*
X10533823Y-16739274D02*
X10543347Y-16758321D01*
X10543347Y-16758321D02*
X10562394Y-16767845D01*
X10562394Y-16767845D02*
X10581442Y-16767845D01*
X10800490Y-16634512D02*
X10800490Y-16834512D01*
X10800490Y-16644036D02*
X10819537Y-16634512D01*
X10819537Y-16634512D02*
X10857633Y-16634512D01*
X10857633Y-16634512D02*
X10876680Y-16644036D01*
X10876680Y-16644036D02*
X10886204Y-16653559D01*
X10886204Y-16653559D02*
X10895728Y-16672607D01*
X10895728Y-16672607D02*
X10895728Y-16729750D01*
X10895728Y-16729750D02*
X10886204Y-16748797D01*
X10886204Y-16748797D02*
X10876680Y-16758321D01*
X10876680Y-16758321D02*
X10857633Y-16767845D01*
X10857633Y-16767845D02*
X10819537Y-16767845D01*
X10819537Y-16767845D02*
X10800490Y-16758321D01*
X11010014Y-16767845D02*
X10990966Y-16758321D01*
X10990966Y-16758321D02*
X10981442Y-16739274D01*
X10981442Y-16739274D02*
X10981442Y-16567845D01*
X11171918Y-16767845D02*
X11171918Y-16663083D01*
X11171918Y-16663083D02*
X11162395Y-16644036D01*
X11162395Y-16644036D02*
X11143347Y-16634512D01*
X11143347Y-16634512D02*
X11105252Y-16634512D01*
X11105252Y-16634512D02*
X11086204Y-16644036D01*
X11171918Y-16758321D02*
X11152871Y-16767845D01*
X11152871Y-16767845D02*
X11105252Y-16767845D01*
X11105252Y-16767845D02*
X11086204Y-16758321D01*
X11086204Y-16758321D02*
X11076680Y-16739274D01*
X11076680Y-16739274D02*
X11076680Y-16720226D01*
X11076680Y-16720226D02*
X11086204Y-16701178D01*
X11086204Y-16701178D02*
X11105252Y-16691655D01*
X11105252Y-16691655D02*
X11152871Y-16691655D01*
X11152871Y-16691655D02*
X11171918Y-16682131D01*
X11238585Y-16634512D02*
X11314775Y-16634512D01*
X11267156Y-16567845D02*
X11267156Y-16739274D01*
X11267156Y-16739274D02*
X11276680Y-16758321D01*
X11276680Y-16758321D02*
X11295728Y-16767845D01*
X11295728Y-16767845D02*
X11314775Y-16767845D01*
X11457633Y-16758321D02*
X11438585Y-16767845D01*
X11438585Y-16767845D02*
X11400490Y-16767845D01*
X11400490Y-16767845D02*
X11381442Y-16758321D01*
X11381442Y-16758321D02*
X11371918Y-16739274D01*
X11371918Y-16739274D02*
X11371918Y-16663083D01*
X11371918Y-16663083D02*
X11381442Y-16644036D01*
X11381442Y-16644036D02*
X11400490Y-16634512D01*
X11400490Y-16634512D02*
X11438585Y-16634512D01*
X11438585Y-16634512D02*
X11457633Y-16644036D01*
X11457633Y-16644036D02*
X11467156Y-16663083D01*
X11467156Y-16663083D02*
X11467156Y-16682131D01*
X11467156Y-16682131D02*
X11371918Y-16701178D01*
X11638585Y-16767845D02*
X11638585Y-16567845D01*
X11638585Y-16758321D02*
X11619537Y-16767845D01*
X11619537Y-16767845D02*
X11581442Y-16767845D01*
X11581442Y-16767845D02*
X11562394Y-16758321D01*
X11562394Y-16758321D02*
X11552871Y-16748797D01*
X11552871Y-16748797D02*
X11543347Y-16729750D01*
X11543347Y-16729750D02*
X11543347Y-16672607D01*
X11543347Y-16672607D02*
X11552871Y-16653559D01*
X11552871Y-16653559D02*
X11562394Y-16644036D01*
X11562394Y-16644036D02*
X11581442Y-16634512D01*
X11581442Y-16634512D02*
X11619537Y-16634512D01*
X11619537Y-16634512D02*
X11638585Y-16644036D01*
X11714775Y-16844036D02*
X11724299Y-16834512D01*
X11724299Y-16834512D02*
X11743347Y-16805940D01*
X11743347Y-16805940D02*
X11752871Y-16786893D01*
X11752871Y-16786893D02*
X11762394Y-16758321D01*
X11762394Y-16758321D02*
X11771918Y-16710702D01*
X11771918Y-16710702D02*
X11771918Y-16672607D01*
X11771918Y-16672607D02*
X11762394Y-16624988D01*
X11762394Y-16624988D02*
X11752871Y-16596417D01*
X11752871Y-16596417D02*
X11743347Y-16577369D01*
X11743347Y-16577369D02*
X11724299Y-16548797D01*
X11724299Y-16548797D02*
X11714775Y-16539274D01*
X4668284Y-16896361D02*
X4668284Y-17096361D01*
X4568284Y-16996361D02*
X4768284Y-16996361D01*
X5114775Y-16954512D02*
X5114775Y-17087845D01*
X5067156Y-16878321D02*
X5019537Y-17021179D01*
X5019537Y-17021179D02*
X5143346Y-17021179D01*
X5219537Y-17068798D02*
X5229061Y-17078321D01*
X5229061Y-17078321D02*
X5219537Y-17087845D01*
X5219537Y-17087845D02*
X5210013Y-17078321D01*
X5210013Y-17078321D02*
X5219537Y-17068798D01*
X5219537Y-17068798D02*
X5219537Y-17087845D01*
X5305251Y-16906893D02*
X5314775Y-16897369D01*
X5314775Y-16897369D02*
X5333823Y-16887845D01*
X5333823Y-16887845D02*
X5381442Y-16887845D01*
X5381442Y-16887845D02*
X5400489Y-16897369D01*
X5400489Y-16897369D02*
X5410013Y-16906893D01*
X5410013Y-16906893D02*
X5419537Y-16925940D01*
X5419537Y-16925940D02*
X5419537Y-16944988D01*
X5419537Y-16944988D02*
X5410013Y-16973559D01*
X5410013Y-16973559D02*
X5295727Y-17087845D01*
X5295727Y-17087845D02*
X5419537Y-17087845D01*
X5600489Y-16887845D02*
X5505251Y-16887845D01*
X5505251Y-16887845D02*
X5495727Y-16983083D01*
X5495727Y-16983083D02*
X5505251Y-16973559D01*
X5505251Y-16973559D02*
X5524299Y-16964036D01*
X5524299Y-16964036D02*
X5571918Y-16964036D01*
X5571918Y-16964036D02*
X5590965Y-16973559D01*
X5590965Y-16973559D02*
X5600489Y-16983083D01*
X5600489Y-16983083D02*
X5610013Y-17002131D01*
X5610013Y-17002131D02*
X5610013Y-17049750D01*
X5610013Y-17049750D02*
X5600489Y-17068798D01*
X5600489Y-17068798D02*
X5590965Y-17078321D01*
X5590965Y-17078321D02*
X5571918Y-17087845D01*
X5571918Y-17087845D02*
X5524299Y-17087845D01*
X5524299Y-17087845D02*
X5505251Y-17078321D01*
X5505251Y-17078321D02*
X5495727Y-17068798D01*
X5733822Y-16887845D02*
X5752870Y-16887845D01*
X5752870Y-16887845D02*
X5771918Y-16897369D01*
X5771918Y-16897369D02*
X5781442Y-16906893D01*
X5781442Y-16906893D02*
X5790965Y-16925940D01*
X5790965Y-16925940D02*
X5800489Y-16964036D01*
X5800489Y-16964036D02*
X5800489Y-17011655D01*
X5800489Y-17011655D02*
X5790965Y-17049750D01*
X5790965Y-17049750D02*
X5781442Y-17068798D01*
X5781442Y-17068798D02*
X5771918Y-17078321D01*
X5771918Y-17078321D02*
X5752870Y-17087845D01*
X5752870Y-17087845D02*
X5733822Y-17087845D01*
X5733822Y-17087845D02*
X5714775Y-17078321D01*
X5714775Y-17078321D02*
X5705251Y-17068798D01*
X5705251Y-17068798D02*
X5695727Y-17049750D01*
X5695727Y-17049750D02*
X5686203Y-17011655D01*
X5686203Y-17011655D02*
X5686203Y-16964036D01*
X5686203Y-16964036D02*
X5695727Y-16925940D01*
X5695727Y-16925940D02*
X5705251Y-16906893D01*
X5705251Y-16906893D02*
X5714775Y-16897369D01*
X5714775Y-16897369D02*
X5733822Y-16887845D01*
X5886203Y-17087845D02*
X5886203Y-16954512D01*
X5886203Y-16973559D02*
X5895727Y-16964036D01*
X5895727Y-16964036D02*
X5914775Y-16954512D01*
X5914775Y-16954512D02*
X5943346Y-16954512D01*
X5943346Y-16954512D02*
X5962394Y-16964036D01*
X5962394Y-16964036D02*
X5971918Y-16983083D01*
X5971918Y-16983083D02*
X5971918Y-17087845D01*
X5971918Y-16983083D02*
X5981442Y-16964036D01*
X5981442Y-16964036D02*
X6000489Y-16954512D01*
X6000489Y-16954512D02*
X6029061Y-16954512D01*
X6029061Y-16954512D02*
X6048108Y-16964036D01*
X6048108Y-16964036D02*
X6057632Y-16983083D01*
X6057632Y-16983083D02*
X6057632Y-17087845D01*
X6152870Y-17087845D02*
X6152870Y-16954512D01*
X6152870Y-16973559D02*
X6162394Y-16964036D01*
X6162394Y-16964036D02*
X6181442Y-16954512D01*
X6181442Y-16954512D02*
X6210013Y-16954512D01*
X6210013Y-16954512D02*
X6229061Y-16964036D01*
X6229061Y-16964036D02*
X6238584Y-16983083D01*
X6238584Y-16983083D02*
X6238584Y-17087845D01*
X6238584Y-16983083D02*
X6248108Y-16964036D01*
X6248108Y-16964036D02*
X6267156Y-16954512D01*
X6267156Y-16954512D02*
X6295727Y-16954512D01*
X6295727Y-16954512D02*
X6314775Y-16964036D01*
X6314775Y-16964036D02*
X6324299Y-16983083D01*
X6324299Y-16983083D02*
X6324299Y-17087845D01*
X6714775Y-16878321D02*
X6543346Y-17135464D01*
X6971918Y-16887845D02*
X6990966Y-16887845D01*
X6990966Y-16887845D02*
X7010013Y-16897369D01*
X7010013Y-16897369D02*
X7019537Y-16906893D01*
X7019537Y-16906893D02*
X7029061Y-16925940D01*
X7029061Y-16925940D02*
X7038585Y-16964036D01*
X7038585Y-16964036D02*
X7038585Y-17011655D01*
X7038585Y-17011655D02*
X7029061Y-17049750D01*
X7029061Y-17049750D02*
X7019537Y-17068798D01*
X7019537Y-17068798D02*
X7010013Y-17078321D01*
X7010013Y-17078321D02*
X6990966Y-17087845D01*
X6990966Y-17087845D02*
X6971918Y-17087845D01*
X6971918Y-17087845D02*
X6952870Y-17078321D01*
X6952870Y-17078321D02*
X6943346Y-17068798D01*
X6943346Y-17068798D02*
X6933823Y-17049750D01*
X6933823Y-17049750D02*
X6924299Y-17011655D01*
X6924299Y-17011655D02*
X6924299Y-16964036D01*
X6924299Y-16964036D02*
X6933823Y-16925940D01*
X6933823Y-16925940D02*
X6943346Y-16906893D01*
X6943346Y-16906893D02*
X6952870Y-16897369D01*
X6952870Y-16897369D02*
X6971918Y-16887845D01*
X7124299Y-17068798D02*
X7133823Y-17078321D01*
X7133823Y-17078321D02*
X7124299Y-17087845D01*
X7124299Y-17087845D02*
X7114775Y-17078321D01*
X7114775Y-17078321D02*
X7124299Y-17068798D01*
X7124299Y-17068798D02*
X7124299Y-17087845D01*
X7324299Y-17087845D02*
X7210013Y-17087845D01*
X7267156Y-17087845D02*
X7267156Y-16887845D01*
X7267156Y-16887845D02*
X7248108Y-16916417D01*
X7248108Y-16916417D02*
X7229061Y-16935464D01*
X7229061Y-16935464D02*
X7210013Y-16944988D01*
X7495727Y-16887845D02*
X7457632Y-16887845D01*
X7457632Y-16887845D02*
X7438585Y-16897369D01*
X7438585Y-16897369D02*
X7429061Y-16906893D01*
X7429061Y-16906893D02*
X7410013Y-16935464D01*
X7410013Y-16935464D02*
X7400489Y-16973559D01*
X7400489Y-16973559D02*
X7400489Y-17049750D01*
X7400489Y-17049750D02*
X7410013Y-17068798D01*
X7410013Y-17068798D02*
X7419537Y-17078321D01*
X7419537Y-17078321D02*
X7438585Y-17087845D01*
X7438585Y-17087845D02*
X7476680Y-17087845D01*
X7476680Y-17087845D02*
X7495727Y-17078321D01*
X7495727Y-17078321D02*
X7505251Y-17068798D01*
X7505251Y-17068798D02*
X7514775Y-17049750D01*
X7514775Y-17049750D02*
X7514775Y-17002131D01*
X7514775Y-17002131D02*
X7505251Y-16983083D01*
X7505251Y-16983083D02*
X7495727Y-16973559D01*
X7495727Y-16973559D02*
X7476680Y-16964036D01*
X7476680Y-16964036D02*
X7438585Y-16964036D01*
X7438585Y-16964036D02*
X7419537Y-16973559D01*
X7419537Y-16973559D02*
X7410013Y-16983083D01*
X7410013Y-16983083D02*
X7400489Y-17002131D01*
X7581442Y-16887845D02*
X7714775Y-16887845D01*
X7714775Y-16887845D02*
X7629061Y-17087845D01*
X7771918Y-16887845D02*
X7895727Y-16887845D01*
X7895727Y-16887845D02*
X7829061Y-16964036D01*
X7829061Y-16964036D02*
X7857632Y-16964036D01*
X7857632Y-16964036D02*
X7876680Y-16973559D01*
X7876680Y-16973559D02*
X7886204Y-16983083D01*
X7886204Y-16983083D02*
X7895727Y-17002131D01*
X7895727Y-17002131D02*
X7895727Y-17049750D01*
X7895727Y-17049750D02*
X7886204Y-17068798D01*
X7886204Y-17068798D02*
X7876680Y-17078321D01*
X7876680Y-17078321D02*
X7857632Y-17087845D01*
X7857632Y-17087845D02*
X7800489Y-17087845D01*
X7800489Y-17087845D02*
X7781442Y-17078321D01*
X7781442Y-17078321D02*
X7771918Y-17068798D01*
X7971918Y-16887845D02*
X7971918Y-16925940D01*
X8048108Y-16887845D02*
X8048108Y-16925940D01*
X8343347Y-17164036D02*
X8333823Y-17154512D01*
X8333823Y-17154512D02*
X8314775Y-17125940D01*
X8314775Y-17125940D02*
X8305251Y-17106893D01*
X8305251Y-17106893D02*
X8295728Y-17078321D01*
X8295728Y-17078321D02*
X8286204Y-17030702D01*
X8286204Y-17030702D02*
X8286204Y-16992607D01*
X8286204Y-16992607D02*
X8295728Y-16944988D01*
X8295728Y-16944988D02*
X8305251Y-16916417D01*
X8305251Y-16916417D02*
X8314775Y-16897369D01*
X8314775Y-16897369D02*
X8333823Y-16868798D01*
X8333823Y-16868798D02*
X8343347Y-16859274D01*
X8505251Y-16887845D02*
X8467156Y-16887845D01*
X8467156Y-16887845D02*
X8448109Y-16897369D01*
X8448109Y-16897369D02*
X8438585Y-16906893D01*
X8438585Y-16906893D02*
X8419537Y-16935464D01*
X8419537Y-16935464D02*
X8410013Y-16973559D01*
X8410013Y-16973559D02*
X8410013Y-17049750D01*
X8410013Y-17049750D02*
X8419537Y-17068798D01*
X8419537Y-17068798D02*
X8429061Y-17078321D01*
X8429061Y-17078321D02*
X8448109Y-17087845D01*
X8448109Y-17087845D02*
X8486204Y-17087845D01*
X8486204Y-17087845D02*
X8505251Y-17078321D01*
X8505251Y-17078321D02*
X8514775Y-17068798D01*
X8514775Y-17068798D02*
X8524299Y-17049750D01*
X8524299Y-17049750D02*
X8524299Y-17002131D01*
X8524299Y-17002131D02*
X8514775Y-16983083D01*
X8514775Y-16983083D02*
X8505251Y-16973559D01*
X8505251Y-16973559D02*
X8486204Y-16964036D01*
X8486204Y-16964036D02*
X8448109Y-16964036D01*
X8448109Y-16964036D02*
X8429061Y-16973559D01*
X8429061Y-16973559D02*
X8419537Y-16983083D01*
X8419537Y-16983083D02*
X8410013Y-17002131D01*
X8762394Y-17087845D02*
X8762394Y-16887845D01*
X8848109Y-17087845D02*
X8848109Y-16983083D01*
X8848109Y-16983083D02*
X8838585Y-16964036D01*
X8838585Y-16964036D02*
X8819537Y-16954512D01*
X8819537Y-16954512D02*
X8790966Y-16954512D01*
X8790966Y-16954512D02*
X8771918Y-16964036D01*
X8771918Y-16964036D02*
X8762394Y-16973559D01*
X8971918Y-17087845D02*
X8952871Y-17078321D01*
X8952871Y-17078321D02*
X8943347Y-17068798D01*
X8943347Y-17068798D02*
X8933823Y-17049750D01*
X8933823Y-17049750D02*
X8933823Y-16992607D01*
X8933823Y-16992607D02*
X8943347Y-16973559D01*
X8943347Y-16973559D02*
X8952871Y-16964036D01*
X8952871Y-16964036D02*
X8971918Y-16954512D01*
X8971918Y-16954512D02*
X9000490Y-16954512D01*
X9000490Y-16954512D02*
X9019537Y-16964036D01*
X9019537Y-16964036D02*
X9029061Y-16973559D01*
X9029061Y-16973559D02*
X9038585Y-16992607D01*
X9038585Y-16992607D02*
X9038585Y-17049750D01*
X9038585Y-17049750D02*
X9029061Y-17068798D01*
X9029061Y-17068798D02*
X9019537Y-17078321D01*
X9019537Y-17078321D02*
X9000490Y-17087845D01*
X9000490Y-17087845D02*
X8971918Y-17087845D01*
X9152871Y-17087845D02*
X9133823Y-17078321D01*
X9133823Y-17078321D02*
X9124299Y-17059274D01*
X9124299Y-17059274D02*
X9124299Y-16887845D01*
X9305252Y-17078321D02*
X9286204Y-17087845D01*
X9286204Y-17087845D02*
X9248109Y-17087845D01*
X9248109Y-17087845D02*
X9229061Y-17078321D01*
X9229061Y-17078321D02*
X9219537Y-17059274D01*
X9219537Y-17059274D02*
X9219537Y-16983083D01*
X9219537Y-16983083D02*
X9229061Y-16964036D01*
X9229061Y-16964036D02*
X9248109Y-16954512D01*
X9248109Y-16954512D02*
X9286204Y-16954512D01*
X9286204Y-16954512D02*
X9305252Y-16964036D01*
X9305252Y-16964036D02*
X9314775Y-16983083D01*
X9314775Y-16983083D02*
X9314775Y-17002131D01*
X9314775Y-17002131D02*
X9219537Y-17021179D01*
X9390966Y-17078321D02*
X9410013Y-17087845D01*
X9410013Y-17087845D02*
X9448109Y-17087845D01*
X9448109Y-17087845D02*
X9467156Y-17078321D01*
X9467156Y-17078321D02*
X9476680Y-17059274D01*
X9476680Y-17059274D02*
X9476680Y-17049750D01*
X9476680Y-17049750D02*
X9467156Y-17030702D01*
X9467156Y-17030702D02*
X9448109Y-17021179D01*
X9448109Y-17021179D02*
X9419537Y-17021179D01*
X9419537Y-17021179D02*
X9400490Y-17011655D01*
X9400490Y-17011655D02*
X9390966Y-16992607D01*
X9390966Y-16992607D02*
X9390966Y-16983083D01*
X9390966Y-16983083D02*
X9400490Y-16964036D01*
X9400490Y-16964036D02*
X9419537Y-16954512D01*
X9419537Y-16954512D02*
X9448109Y-16954512D01*
X9448109Y-16954512D02*
X9467156Y-16964036D01*
X9543347Y-17164036D02*
X9552871Y-17154512D01*
X9552871Y-17154512D02*
X9571918Y-17125940D01*
X9571918Y-17125940D02*
X9581442Y-17106893D01*
X9581442Y-17106893D02*
X9590966Y-17078321D01*
X9590966Y-17078321D02*
X9600490Y-17030702D01*
X9600490Y-17030702D02*
X9600490Y-16992607D01*
X9600490Y-16992607D02*
X9590966Y-16944988D01*
X9590966Y-16944988D02*
X9581442Y-16916417D01*
X9581442Y-16916417D02*
X9571918Y-16897369D01*
X9571918Y-16897369D02*
X9552871Y-16868798D01*
X9552871Y-16868798D02*
X9543347Y-16859274D01*
X9905252Y-17164036D02*
X9895728Y-17154512D01*
X9895728Y-17154512D02*
X9876680Y-17125940D01*
X9876680Y-17125940D02*
X9867156Y-17106893D01*
X9867156Y-17106893D02*
X9857633Y-17078321D01*
X9857633Y-17078321D02*
X9848109Y-17030702D01*
X9848109Y-17030702D02*
X9848109Y-16992607D01*
X9848109Y-16992607D02*
X9857633Y-16944988D01*
X9857633Y-16944988D02*
X9867156Y-16916417D01*
X9867156Y-16916417D02*
X9876680Y-16897369D01*
X9876680Y-16897369D02*
X9895728Y-16868798D01*
X9895728Y-16868798D02*
X9905252Y-16859274D01*
X9981442Y-16954512D02*
X9981442Y-17087845D01*
X9981442Y-16973559D02*
X9990966Y-16964036D01*
X9990966Y-16964036D02*
X10010013Y-16954512D01*
X10010013Y-16954512D02*
X10038585Y-16954512D01*
X10038585Y-16954512D02*
X10057633Y-16964036D01*
X10057633Y-16964036D02*
X10067156Y-16983083D01*
X10067156Y-16983083D02*
X10067156Y-17087845D01*
X10190966Y-17087845D02*
X10171918Y-17078321D01*
X10171918Y-17078321D02*
X10162394Y-17068798D01*
X10162394Y-17068798D02*
X10152871Y-17049750D01*
X10152871Y-17049750D02*
X10152871Y-16992607D01*
X10152871Y-16992607D02*
X10162394Y-16973559D01*
X10162394Y-16973559D02*
X10171918Y-16964036D01*
X10171918Y-16964036D02*
X10190966Y-16954512D01*
X10190966Y-16954512D02*
X10219537Y-16954512D01*
X10219537Y-16954512D02*
X10238585Y-16964036D01*
X10238585Y-16964036D02*
X10248109Y-16973559D01*
X10248109Y-16973559D02*
X10257633Y-16992607D01*
X10257633Y-16992607D02*
X10257633Y-17049750D01*
X10257633Y-17049750D02*
X10248109Y-17068798D01*
X10248109Y-17068798D02*
X10238585Y-17078321D01*
X10238585Y-17078321D02*
X10219537Y-17087845D01*
X10219537Y-17087845D02*
X10190966Y-17087845D01*
X10314775Y-16954512D02*
X10390966Y-16954512D01*
X10343347Y-16887845D02*
X10343347Y-17059274D01*
X10343347Y-17059274D02*
X10352871Y-17078321D01*
X10352871Y-17078321D02*
X10371918Y-17087845D01*
X10371918Y-17087845D02*
X10390966Y-17087845D01*
X10610014Y-16954512D02*
X10610014Y-17154512D01*
X10610014Y-16964036D02*
X10629061Y-16954512D01*
X10629061Y-16954512D02*
X10667156Y-16954512D01*
X10667156Y-16954512D02*
X10686204Y-16964036D01*
X10686204Y-16964036D02*
X10695728Y-16973559D01*
X10695728Y-16973559D02*
X10705252Y-16992607D01*
X10705252Y-16992607D02*
X10705252Y-17049750D01*
X10705252Y-17049750D02*
X10695728Y-17068798D01*
X10695728Y-17068798D02*
X10686204Y-17078321D01*
X10686204Y-17078321D02*
X10667156Y-17087845D01*
X10667156Y-17087845D02*
X10629061Y-17087845D01*
X10629061Y-17087845D02*
X10610014Y-17078321D01*
X10819537Y-17087845D02*
X10800490Y-17078321D01*
X10800490Y-17078321D02*
X10790966Y-17059274D01*
X10790966Y-17059274D02*
X10790966Y-16887845D01*
X10981442Y-17087845D02*
X10981442Y-16983083D01*
X10981442Y-16983083D02*
X10971918Y-16964036D01*
X10971918Y-16964036D02*
X10952871Y-16954512D01*
X10952871Y-16954512D02*
X10914775Y-16954512D01*
X10914775Y-16954512D02*
X10895728Y-16964036D01*
X10981442Y-17078321D02*
X10962395Y-17087845D01*
X10962395Y-17087845D02*
X10914775Y-17087845D01*
X10914775Y-17087845D02*
X10895728Y-17078321D01*
X10895728Y-17078321D02*
X10886204Y-17059274D01*
X10886204Y-17059274D02*
X10886204Y-17040226D01*
X10886204Y-17040226D02*
X10895728Y-17021179D01*
X10895728Y-17021179D02*
X10914775Y-17011655D01*
X10914775Y-17011655D02*
X10962395Y-17011655D01*
X10962395Y-17011655D02*
X10981442Y-17002131D01*
X11048109Y-16954512D02*
X11124299Y-16954512D01*
X11076680Y-16887845D02*
X11076680Y-17059274D01*
X11076680Y-17059274D02*
X11086204Y-17078321D01*
X11086204Y-17078321D02*
X11105252Y-17087845D01*
X11105252Y-17087845D02*
X11124299Y-17087845D01*
X11267156Y-17078321D02*
X11248109Y-17087845D01*
X11248109Y-17087845D02*
X11210013Y-17087845D01*
X11210013Y-17087845D02*
X11190966Y-17078321D01*
X11190966Y-17078321D02*
X11181442Y-17059274D01*
X11181442Y-17059274D02*
X11181442Y-16983083D01*
X11181442Y-16983083D02*
X11190966Y-16964036D01*
X11190966Y-16964036D02*
X11210013Y-16954512D01*
X11210013Y-16954512D02*
X11248109Y-16954512D01*
X11248109Y-16954512D02*
X11267156Y-16964036D01*
X11267156Y-16964036D02*
X11276680Y-16983083D01*
X11276680Y-16983083D02*
X11276680Y-17002131D01*
X11276680Y-17002131D02*
X11181442Y-17021179D01*
X11448109Y-17087845D02*
X11448109Y-16887845D01*
X11448109Y-17078321D02*
X11429061Y-17087845D01*
X11429061Y-17087845D02*
X11390966Y-17087845D01*
X11390966Y-17087845D02*
X11371918Y-17078321D01*
X11371918Y-17078321D02*
X11362394Y-17068798D01*
X11362394Y-17068798D02*
X11352871Y-17049750D01*
X11352871Y-17049750D02*
X11352871Y-16992607D01*
X11352871Y-16992607D02*
X11362394Y-16973559D01*
X11362394Y-16973559D02*
X11371918Y-16964036D01*
X11371918Y-16964036D02*
X11390966Y-16954512D01*
X11390966Y-16954512D02*
X11429061Y-16954512D01*
X11429061Y-16954512D02*
X11448109Y-16964036D01*
X11524299Y-17164036D02*
X11533823Y-17154512D01*
X11533823Y-17154512D02*
X11552871Y-17125940D01*
X11552871Y-17125940D02*
X11562394Y-17106893D01*
X11562394Y-17106893D02*
X11571918Y-17078321D01*
X11571918Y-17078321D02*
X11581442Y-17030702D01*
X11581442Y-17030702D02*
X11581442Y-16992607D01*
X11581442Y-16992607D02*
X11571918Y-16944988D01*
X11571918Y-16944988D02*
X11562394Y-16916417D01*
X11562394Y-16916417D02*
X11552871Y-16897369D01*
X11552871Y-16897369D02*
X11533823Y-16868798D01*
X11533823Y-16868798D02*
X11524299Y-16859274D01*
M02*
