M48
; DRILL file {KiCad 8.0.6-1.fc41} date 2024-11-30T14:56:51+1100
; FORMAT={-:-/ absolute / inch / decimal}
; #@! TF.CreationDate,2024-11-30T14:56:51+11:00
; #@! TF.GenerationSoftware,Kicad,Pcbnew,8.0.6-1.fc41
; #@! TF.FileFunction,NonPlated,1,2,NPTH
FMAT,2
INCH
; #@! TA.AperFunction,NonPlated,NPTH,ComponentDrill
T1C0.0866
%
G90
G05
T1
X2.3082Y-3.1056
X2.8711Y-2.5852
X3.0181Y-3.5416
X3.2617Y-2.8344
X3.824Y-3.6224
X3.8384Y-2.4292
X4.1042Y-2.9289
X4.1672Y-4.7696
X4.4475Y-4.076
X4.7277Y-3.3825
X4.9199Y-5.4028
X5.0009Y-4.703
X5.0009Y-4.703
X5.2811Y-4.0095
X5.2811Y-4.0095
X7.0264Y-4.0095
X7.3067Y-4.703
X7.3877Y-5.4028
X7.5799Y-3.3825
X7.8601Y-4.076
X8.1403Y-4.7696
X8.2034Y-2.9289
X8.4692Y-2.4292
X8.4692Y-2.4292
X8.4836Y-3.6224
X9.0459Y-2.8344
X9.2894Y-3.5416
X9.4365Y-2.5852
X9.4365Y-2.5852
X9.9994Y-3.1056
M30
