%TF.GenerationSoftware,KiCad,Pcbnew,8.0.6-1.fc41*%
%TF.CreationDate,2024-11-30T14:56:50+11:00*%
%TF.ProjectId,katori-plate,6b61746f-7269-42d7-906c-6174652e6b69,0.1*%
%TF.SameCoordinates,Original*%
%TF.FileFunction,Drillmap*%
%TF.FilePolarity,Positive*%
%FSLAX45Y45*%
G04 Gerber Fmt 4.5, Leading zero omitted, Abs format (unit mm)*
G04 Created by KiCad (PCBNEW 8.0.6-1.fc41) date 2024-11-30 14:56:50*
%MOMM*%
%LPD*%
G01*
G04 APERTURE LIST*
%ADD10C,0.150000*%
%ADD11C,0.050000*%
%ADD12C,0.100000*%
%ADD13C,0.200000*%
G04 APERTURE END LIST*
D10*
X7982187Y-10934313D02*
X8053116Y-10728317D01*
X21322751Y-5780433D02*
X23102010Y-5167783D01*
X16542581Y-10838266D02*
G75*
G02*
X16730994Y-10472041I401989J24766D01*
G01*
X20209493Y-14816457D02*
G75*
G02*
X20292376Y-14621181I139078J56198D01*
G01*
X5560803Y-5875312D02*
X7449965Y-6346331D01*
X23811278Y-6346334D02*
X25700439Y-5875313D01*
X12710755Y-15675483D02*
G75*
G02*
X12515487Y-15758365I-139075J56193D01*
G01*
X11069081Y-15173985D02*
G75*
G02*
X10986188Y-14978712I56219J139095D01*
G01*
X11051748Y-14816457D02*
X10986193Y-14978714D01*
X23811278Y-6346334D02*
G75*
G02*
X23633162Y-6249623I-36288J145544D01*
G01*
X16419698Y-8733179D02*
X17903192Y-8133808D01*
X4651177Y-9523622D02*
X6195687Y-9908712D01*
X20855588Y-5404050D02*
G75*
G02*
X21050860Y-5486937I56192J-139080D01*
G01*
X18745756Y-15758368D02*
G75*
G02*
X18550489Y-15675481I-56186J139088D01*
G01*
X11952275Y-6541229D02*
X13435770Y-7140602D01*
X5378970Y-5984567D02*
G75*
G02*
X5560802Y-5875317I145530J-36273D01*
G01*
X21147009Y-12064899D02*
X21858761Y-13826550D01*
X23102010Y-5167783D02*
G75*
G02*
X23292673Y-5260778I48840J-141817D01*
G01*
X18745756Y-15758368D02*
X20192163Y-15173984D01*
X23010108Y-10638075D02*
G75*
G02*
X23208123Y-10728319I56202J-139046D01*
G01*
X21409482Y-11446550D02*
G75*
G02*
X21492365Y-11251277I139138J56170D01*
G01*
X7968566Y-5260776D02*
G75*
G02*
X8159229Y-5167788I141834J-48855D01*
G01*
X13358049Y-8133809D02*
X14841543Y-8733177D01*
X21322751Y-5780433D02*
G75*
G02*
X21134841Y-5694793I-48821J141853D01*
G01*
X20292379Y-14621187D02*
X21775873Y-14021818D01*
X25037721Y-10328757D02*
X24960017Y-10103093D01*
X13194530Y-14590696D02*
G75*
G02*
X18066711Y-14590696I2436090J-5483194D01*
G01*
X11852058Y-5988437D02*
G75*
G02*
X11934946Y-6183705I-56178J-139073D01*
G01*
X11869390Y-6345962D02*
X11934948Y-6183705D01*
X9485369Y-14021818D02*
X10968860Y-14621188D01*
X25700439Y-5875313D02*
G75*
G02*
X25882269Y-5984568I36291J-145537D01*
G01*
X7628080Y-6249623D02*
X7968566Y-5260776D01*
X23469718Y-11027305D02*
G75*
G02*
X23279054Y-10934315I-48849J141805D01*
G01*
X21492368Y-11251282D02*
X23010108Y-10638075D01*
X6316515Y-10519418D02*
G75*
G02*
X6223520Y-10328756I48895J141858D01*
G01*
X21147009Y-12064903D02*
G75*
G02*
X21229891Y-11869625I139091J56193D01*
G01*
X13358049Y-8133809D02*
G75*
G02*
X13275160Y-7938537I56211J139089D01*
G01*
X8251137Y-10638074D02*
X9768873Y-11251282D01*
X10210383Y-5486937D02*
X10126403Y-5694795D01*
X16336813Y-8928446D02*
G75*
G02*
X16419696Y-8733176I139117J56176D01*
G01*
X9869090Y-11804076D02*
G75*
G02*
X9786200Y-11608806I56180J139076D01*
G01*
X4541922Y-9341790D02*
X5378970Y-5984567D01*
X9768873Y-11251282D02*
G75*
G02*
X9851755Y-11446546I-56203J-139078D01*
G01*
X14924430Y-8928445D02*
X14440634Y-10125883D01*
X20275050Y-14978714D02*
G75*
G02*
X20192161Y-15173978I-139080J-56186D01*
G01*
X16542581Y-10838266D02*
X16543404Y-12652533D01*
X21229894Y-11869631D02*
X21392153Y-11804077D01*
X11069081Y-15173985D02*
X12515486Y-15758369D01*
X16336813Y-8928447D02*
X16820609Y-10125885D01*
X23469718Y-11027305D02*
X24944727Y-10519418D01*
X17825471Y-7140602D02*
X19308965Y-6541231D01*
X9402483Y-13826549D02*
X10114232Y-12064899D01*
X10031348Y-11869632D02*
G75*
G02*
X10114230Y-12064898I-56178J-139068D01*
G01*
X16820908Y-10125764D02*
G75*
G02*
X16730989Y-10472034I-278438J-112506D01*
G01*
X13435770Y-7140602D02*
G75*
G02*
X13518652Y-7335868I-56200J-139078D01*
G01*
X12710754Y-15675483D02*
X13116355Y-14671585D01*
X19326298Y-6183704D02*
G75*
G02*
X19409180Y-5988430I139082J56194D01*
G01*
X19326297Y-6183704D02*
X19391853Y-6345962D01*
X10210383Y-5486937D02*
G75*
G02*
X10405651Y-5404054I139067J-56173D01*
G01*
X7982187Y-10934312D02*
G75*
G02*
X7791525Y-11027307I-141847J48872D01*
G01*
X8053116Y-10728317D02*
G75*
G02*
X8251135Y-10638079I141824J-48833D01*
G01*
X23208124Y-10728317D02*
X23279055Y-10934314D01*
X4651177Y-9523622D02*
G75*
G02*
X4541922Y-9341790I36304J145552D01*
G01*
X21475039Y-11608806D02*
G75*
G02*
X21392152Y-11804074I-139069J-56194D01*
G01*
X14530505Y-10471837D02*
G75*
G02*
X14440634Y-10125883I188265J233557D01*
G01*
X14841544Y-8733177D02*
G75*
G02*
X14924428Y-8928446I-56184J-139073D01*
G01*
X25037721Y-10328757D02*
G75*
G02*
X24944726Y-10519413I-141841J-48823D01*
G01*
X9485369Y-14021818D02*
G75*
G02*
X9402478Y-13826547I56161J139069D01*
G01*
X6301225Y-10103091D02*
X6223523Y-10328757D01*
X9851760Y-11446548D02*
X9786203Y-11608807D01*
X21858760Y-13826551D02*
G75*
G02*
X21775871Y-14021813I-139070J-56189D01*
G01*
X9869091Y-11804076D02*
X10031348Y-11869632D01*
X20855588Y-5404050D02*
X19409182Y-5988436D01*
X8159230Y-5167784D02*
X9938490Y-5780433D01*
X10968862Y-14621189D02*
G75*
G02*
X11051745Y-14816456I-56182J-139071D01*
G01*
X18066711Y-14590696D02*
G75*
G02*
X18144889Y-14671584I-60901J-137084D01*
G01*
X14718789Y-12652296D02*
X16543404Y-12652533D01*
X6316515Y-10519419D02*
X7791524Y-11027305D01*
X17742586Y-7335869D02*
G75*
G02*
X17825468Y-7140595I139094J56189D01*
G01*
X21475039Y-11608806D02*
X21409482Y-11446550D01*
X20275050Y-14978714D02*
X20209494Y-14816457D01*
X11952275Y-6541230D02*
G75*
G02*
X11869387Y-6345962I56195J139080D01*
G01*
X19391853Y-6345962D02*
G75*
G02*
X19308963Y-6541225I-139073J-56188D01*
G01*
X21134839Y-5694794D02*
X21050859Y-5486937D01*
X17742587Y-7335870D02*
X17986078Y-7938541D01*
X13275164Y-7938538D02*
X13518656Y-7335870D01*
X7628080Y-6249623D02*
G75*
G02*
X7449964Y-6346335I-141840J48853D01*
G01*
X14718789Y-10838268D02*
X14718789Y-12652296D01*
X24960018Y-10103092D02*
G75*
G02*
X25065556Y-9908702I141812J48852D01*
G01*
X25882272Y-5984568D02*
X26719321Y-9341791D01*
X6195687Y-9908712D02*
G75*
G02*
X6301224Y-10103091I-36317J-145558D01*
G01*
X18144886Y-14671585D02*
X18550487Y-15675482D01*
X17986078Y-7938541D02*
G75*
G02*
X17903190Y-8133802I-139068J-56189D01*
G01*
X11852058Y-5988437D02*
X10405653Y-5404050D01*
X10126403Y-5694796D02*
G75*
G02*
X9938491Y-5780429I-139063J56166D01*
G01*
X23292674Y-5260778D02*
X23633162Y-6249623D01*
X26719323Y-9341791D02*
G75*
G02*
X26610063Y-9523617I-145533J-36289D01*
G01*
X25065557Y-9908709D02*
X26610064Y-9523621D01*
X14530376Y-10472042D02*
G75*
G02*
X14718789Y-10838268I-213577J-341458D01*
G01*
X13116355Y-14671585D02*
G75*
G02*
X13194530Y-14590694I139085J-56195D01*
G01*
D11*
X10822659Y-9924418D02*
X10767401Y-9794239D01*
X10822659Y-9924418D02*
X11935280Y-10373946D01*
X11239406Y-8625987D02*
X10767401Y-9794239D01*
X11369585Y-8570729D02*
X11239406Y-8625987D01*
X12065459Y-10318688D02*
X11935280Y-10373946D01*
X12065459Y-10318688D02*
X12537463Y-9150436D01*
X12482205Y-9020257D02*
X11369585Y-8570729D01*
X12537463Y-9150436D02*
X12482205Y-9020257D01*
X22418893Y-7729766D02*
X22480888Y-7602657D01*
X22418893Y-7729766D02*
X22829109Y-8921119D01*
X22829109Y-8921119D02*
X22956218Y-8983114D01*
X22956218Y-8983114D02*
X24090840Y-8592432D01*
X23615510Y-7211975D02*
X22480888Y-7602657D01*
X23615510Y-7211975D02*
X23742619Y-7273970D01*
X24090840Y-8592432D02*
X24152835Y-8465324D01*
X24152835Y-8465324D02*
X23742619Y-7273970D01*
X5333867Y-7529547D02*
X5261029Y-7408326D01*
X5333867Y-7529547D02*
X6498221Y-7819854D01*
X5565851Y-6185753D02*
X5261029Y-7408326D01*
X5687072Y-6112916D02*
X5565851Y-6185753D01*
X6619443Y-7747016D02*
X6498221Y-7819854D01*
X6619443Y-7747016D02*
X6924265Y-6524444D01*
X6851427Y-6403222D02*
X5687072Y-6112916D01*
X6924265Y-6524444D02*
X6851427Y-6403222D01*
X19435532Y-10912086D02*
X19490790Y-10781907D01*
X19435532Y-10912086D02*
X19907536Y-12080338D01*
X19907536Y-12080338D02*
X20037715Y-12135596D01*
X20037715Y-12135596D02*
X21150336Y-11686068D01*
X20603410Y-10332379D02*
X19490790Y-10781907D01*
X20603410Y-10332379D02*
X20733589Y-10387637D01*
X21150336Y-11686068D02*
X21205594Y-11555889D01*
X21205594Y-11555889D02*
X20733589Y-10387637D01*
X17318008Y-10743015D02*
X17790012Y-11911266D01*
X17373266Y-10612835D02*
X17318008Y-10743015D01*
X17920191Y-11966524D02*
X17790012Y-11911266D01*
X17920191Y-11966524D02*
X19032812Y-11516996D01*
X18485886Y-10163308D02*
X17373266Y-10612835D01*
X18616065Y-10218565D02*
X18485886Y-10163308D01*
X19088070Y-11386817D02*
X18616065Y-10218565D01*
X19088070Y-11386817D02*
X19032812Y-11516996D01*
X12940183Y-9755345D02*
X12884925Y-9625166D01*
X12940183Y-9755345D02*
X14052804Y-10204873D01*
X13356930Y-8456915D02*
X12884925Y-9625166D01*
X13487109Y-8401657D02*
X13356930Y-8456915D01*
X14182983Y-10149615D02*
X14052804Y-10204873D01*
X14182983Y-10149615D02*
X14654987Y-8981364D01*
X14599729Y-8851185D02*
X13487109Y-8401657D01*
X14654987Y-8981364D02*
X14599729Y-8851185D01*
D12*
X11850637Y-12013942D02*
X12156783Y-12137688D01*
X11872383Y-11866393D02*
X11831167Y-11968434D01*
X12202291Y-12118218D02*
X12243442Y-12016365D01*
X12223777Y-11970779D02*
X11917890Y-11846925D01*
X11850637Y-12013942D02*
G75*
G02*
X11831167Y-11968434I13149J32544D01*
G01*
X11872383Y-11866393D02*
G75*
G02*
X11917891Y-11846922I32543J-13144D01*
G01*
X12202291Y-12118218D02*
G75*
G02*
X12156783Y-12137686I-32544J13150D01*
G01*
X12223777Y-11970779D02*
G75*
G02*
X12243247Y-12016287I-13149J-32545D01*
G01*
D11*
X8527193Y-10533903D02*
X8471935Y-10403724D01*
X8527193Y-10533903D02*
X9639814Y-10983431D01*
X8943940Y-9235472D02*
X8471935Y-10403724D01*
X9074119Y-9180215D02*
X8943940Y-9235472D01*
X9769993Y-10928173D02*
X9639814Y-10983431D01*
X9769993Y-10928173D02*
X10241997Y-9759922D01*
X10186739Y-9629743D02*
X9074119Y-9180215D01*
X10241997Y-9759922D02*
X10186739Y-9629743D01*
X11255635Y-14925796D02*
X11310893Y-15055976D01*
X11310893Y-15055976D02*
X12423513Y-15505503D01*
X11727639Y-13757545D02*
X11255635Y-14925796D01*
X11727639Y-13757545D02*
X11857818Y-13702287D01*
X12423513Y-15505503D02*
X12553692Y-15450246D01*
X12553692Y-15450246D02*
X13025697Y-14281994D01*
X12970439Y-14151815D02*
X11857818Y-13702287D01*
X12970439Y-14151815D02*
X13025697Y-14281994D01*
X18723781Y-9150438D02*
X18779039Y-9020259D01*
X18723781Y-9150438D02*
X19195786Y-10318690D01*
X19195786Y-10318690D02*
X19325965Y-10373948D01*
X19325965Y-10373948D02*
X20438585Y-9924420D01*
X19891660Y-8570731D02*
X18779039Y-9020259D01*
X19891660Y-8570731D02*
X20021839Y-8625989D01*
X20438585Y-9924420D02*
X20493843Y-9794241D01*
X20493843Y-9794241D02*
X20021839Y-8625989D01*
X21800315Y-5933281D02*
X21862310Y-5806172D01*
X21800315Y-5933281D02*
X22210530Y-7124635D01*
X22210530Y-7124635D02*
X22337639Y-7186630D01*
X22337639Y-7186630D02*
X23472261Y-6795948D01*
X22996932Y-5415491D02*
X21862310Y-5806172D01*
X22996932Y-5415491D02*
X23124041Y-5477486D01*
X23472261Y-6795948D02*
X23534256Y-6668839D01*
X23534256Y-6668839D02*
X23124041Y-5477486D01*
X4874214Y-9373109D02*
X4801377Y-9251887D01*
X4874214Y-9373109D02*
X6038569Y-9663415D01*
X5106198Y-8029314D02*
X4801377Y-9251887D01*
X5227420Y-7956477D02*
X5106198Y-8029314D01*
X6159790Y-9590578D02*
X6038569Y-9663415D01*
X6159790Y-9590578D02*
X6464612Y-8368005D01*
X6391775Y-8246783D02*
X5227420Y-7956477D01*
X6464612Y-8368005D02*
X6391775Y-8246783D01*
X9950698Y-7010605D02*
X9895441Y-6880426D01*
X9950698Y-7010605D02*
X11063319Y-7460133D01*
X10367445Y-5712174D02*
X9895441Y-6880426D01*
X10497624Y-5656916D02*
X10367445Y-5712174D01*
X11193498Y-7404875D02*
X11063319Y-7460133D01*
X11193498Y-7404875D02*
X11665502Y-6236623D01*
X11610244Y-6106444D02*
X10497624Y-5656916D01*
X11665502Y-6236623D02*
X11610244Y-6106444D01*
X24796631Y-8368007D02*
X24869468Y-8246785D01*
X24796631Y-8368007D02*
X25101452Y-9590580D01*
X25101452Y-9590580D02*
X25222674Y-9663417D01*
X25222674Y-9663417D02*
X26387029Y-9373111D01*
X26033823Y-7956479D02*
X24869468Y-8246785D01*
X26033823Y-7956479D02*
X26155045Y-8029316D01*
X26387029Y-9373111D02*
X26459866Y-9251889D01*
X26459866Y-9251889D02*
X26155045Y-8029316D01*
X18012028Y-7388787D02*
X18067286Y-7258608D01*
X18012028Y-7388787D02*
X18484032Y-8557039D01*
X18484032Y-8557039D02*
X18614211Y-8612296D01*
X18614211Y-8612296D02*
X19726832Y-8162768D01*
X19179906Y-6809080D02*
X18067286Y-7258608D01*
X19179906Y-6809080D02*
X19310085Y-6864338D01*
X19726832Y-8162768D02*
X19782090Y-8032589D01*
X19782090Y-8032589D02*
X19310085Y-6864338D01*
X19595741Y-6236622D02*
X19650999Y-6106443D01*
X19595741Y-6236622D02*
X20067745Y-7404874D01*
X20067745Y-7404874D02*
X20197924Y-7460132D01*
X20197924Y-7460132D02*
X21310545Y-7010604D01*
X20763619Y-5656915D02*
X19650999Y-6106443D01*
X20763619Y-5656915D02*
X20893798Y-5712173D01*
X21310545Y-7010604D02*
X21365803Y-6880425D01*
X21365803Y-6880425D02*
X20893798Y-5712173D01*
X16606256Y-8981365D02*
X17078261Y-10149617D01*
X16661514Y-8851186D02*
X16606256Y-8981365D01*
X17208440Y-10204875D02*
X17078261Y-10149617D01*
X17208440Y-10204875D02*
X18321060Y-9755347D01*
X17774135Y-8401658D02*
X16661514Y-8851186D01*
X17904314Y-8456916D02*
X17774135Y-8401658D01*
X18376318Y-9625168D02*
X17904314Y-8456916D01*
X18376318Y-9625168D02*
X18321060Y-9755347D01*
X24336978Y-6524443D02*
X24409815Y-6403221D01*
X24336978Y-6524443D02*
X24641799Y-7747015D01*
X24641799Y-7747015D02*
X24763021Y-7819853D01*
X24763021Y-7819853D02*
X25927376Y-7529547D01*
X25574170Y-6112915D02*
X24409815Y-6403221D01*
X25574170Y-6112915D02*
X25695392Y-6185752D01*
X25927376Y-7529547D02*
X26000213Y-7408325D01*
X26000213Y-7408325D02*
X25695392Y-6185752D01*
X12228430Y-11516994D02*
X12173172Y-11386815D01*
X12228430Y-11516994D02*
X13341051Y-11966522D01*
X12645177Y-10218563D02*
X12173172Y-11386815D01*
X12775356Y-10163305D02*
X12645177Y-10218563D01*
X13471230Y-11911264D02*
X13341051Y-11966522D01*
X13471230Y-11911264D02*
X13943234Y-10743012D01*
X13887976Y-10612833D02*
X12775356Y-10163305D01*
X13943234Y-10743012D02*
X13887976Y-10612833D01*
X19819256Y-13129829D02*
X19874514Y-12999650D01*
X19819256Y-13129829D02*
X20291260Y-14298080D01*
X20291260Y-14298080D02*
X20421439Y-14353338D01*
X20421439Y-14353338D02*
X21534060Y-13903810D01*
X20987134Y-12550122D02*
X19874514Y-12999650D01*
X20987134Y-12550122D02*
X21117313Y-12605380D01*
X21534060Y-13903810D02*
X21589318Y-13773631D01*
X21589318Y-13773631D02*
X21117313Y-12605380D01*
X7788981Y-6795946D02*
X7726986Y-6668838D01*
X7788981Y-6795946D02*
X8923604Y-7186628D01*
X8137202Y-5477484D02*
X7726986Y-6668838D01*
X8264311Y-5415489D02*
X8137202Y-5477484D01*
X9050713Y-7124633D02*
X8923604Y-7186628D01*
X9050713Y-7124633D02*
X9460928Y-5933280D01*
X9398933Y-5806171D02*
X8264311Y-5415489D01*
X9460928Y-5933280D02*
X9398933Y-5806171D01*
X18235545Y-14281991D02*
X18290803Y-14151812D01*
X18235545Y-14281991D02*
X18707549Y-15450243D01*
X18707549Y-15450243D02*
X18837728Y-15505501D01*
X18837728Y-15505501D02*
X19950349Y-15055973D01*
X19403423Y-13702284D02*
X18290803Y-14151812D01*
X19403423Y-13702284D02*
X19533602Y-13757542D01*
X19950349Y-15055973D02*
X20005607Y-14925794D01*
X20005607Y-14925794D02*
X19533602Y-13757542D01*
X6551823Y-10388917D02*
X6489828Y-10261808D01*
X6551823Y-10388917D02*
X7686446Y-10779599D01*
X6900044Y-9070455D02*
X6489828Y-10261808D01*
X7027153Y-9008460D02*
X6900044Y-9070455D01*
X7813554Y-10717604D02*
X7686446Y-10779599D01*
X7813554Y-10717604D02*
X8223770Y-9526250D01*
X8161775Y-9399142D02*
X7027153Y-9008460D01*
X8223770Y-9526250D02*
X8161775Y-9399142D01*
X20307492Y-7998272D02*
X20362750Y-7868093D01*
X20307492Y-7998272D02*
X20779497Y-9166524D01*
X20779497Y-9166524D02*
X20909676Y-9221781D01*
X20909676Y-9221781D02*
X22022296Y-8772253D01*
X21475371Y-7418565D02*
X20362750Y-7868093D01*
X21475371Y-7418565D02*
X21605550Y-7473823D01*
X22022296Y-8772253D02*
X22077554Y-8642074D01*
X22077554Y-8642074D02*
X21605550Y-7473823D01*
X9727183Y-13903811D02*
X9671925Y-13773632D01*
X9727183Y-13903811D02*
X10839803Y-14353339D01*
X10143929Y-12605380D02*
X9671925Y-13773632D01*
X10274108Y-12550122D02*
X10143929Y-12605380D01*
X10969982Y-14298081D02*
X10839803Y-14353339D01*
X10969982Y-14298081D02*
X11441986Y-13129829D01*
X11386729Y-12999650D02*
X10274108Y-12550122D01*
X11441986Y-13129829D02*
X11386729Y-12999650D01*
X10110905Y-11686067D02*
X10055647Y-11555888D01*
X10110905Y-11686067D02*
X11223526Y-12135595D01*
X10527652Y-10387637D02*
X10055647Y-11555888D01*
X10657831Y-10332379D02*
X10527652Y-10387637D01*
X11353705Y-12080337D02*
X11223526Y-12135595D01*
X11353705Y-12080337D02*
X11825709Y-10912086D01*
X11770451Y-10781907D02*
X10657831Y-10332379D01*
X11825709Y-10912086D02*
X11770451Y-10781907D01*
X9238946Y-8772252D02*
X9183688Y-8642073D01*
X9238946Y-8772252D02*
X10351566Y-9221780D01*
X9655692Y-7473821D02*
X9183688Y-8642073D01*
X9785871Y-7418564D02*
X9655692Y-7473821D01*
X10481745Y-9166522D02*
X10351566Y-9221780D01*
X10481745Y-9166522D02*
X10953750Y-7998271D01*
X10898492Y-7868091D02*
X9785871Y-7418564D01*
X10953750Y-7998271D02*
X10898492Y-7868091D01*
X23037473Y-9526252D02*
X23099468Y-9399144D01*
X23037473Y-9526252D02*
X23447689Y-10717606D01*
X23447689Y-10717606D02*
X23574798Y-10779601D01*
X23574798Y-10779601D02*
X24709420Y-10388919D01*
X24234091Y-9008462D02*
X23099468Y-9399144D01*
X24234091Y-9008462D02*
X24361199Y-9070457D01*
X24709420Y-10388919D02*
X24771415Y-10261810D01*
X24771415Y-10261810D02*
X24361199Y-9070457D01*
X7170401Y-8592432D02*
X7108406Y-8465323D01*
X7170401Y-8592432D02*
X8305023Y-8983114D01*
X7518621Y-7273970D02*
X7108406Y-8465323D01*
X7645730Y-7211975D02*
X7518621Y-7273970D01*
X8432132Y-8921119D02*
X8305023Y-8983114D01*
X8432132Y-8921119D02*
X8842348Y-7729765D01*
X8780353Y-7602657D02*
X7645730Y-7211975D01*
X8842348Y-7729765D02*
X8780353Y-7602657D01*
X11534408Y-8162768D02*
X11479150Y-8032589D01*
X11534408Y-8162768D02*
X12647029Y-8612296D01*
X11951155Y-6864338D02*
X11479150Y-8032589D01*
X12081334Y-6809080D02*
X11951155Y-6864338D01*
X12777208Y-8557038D02*
X12647029Y-8612296D01*
X12777208Y-8557038D02*
X13249212Y-7388787D01*
X13193954Y-7258608D02*
X12081334Y-6809080D01*
X13249212Y-7388787D02*
X13193954Y-7258608D01*
X21019245Y-9759923D02*
X21074503Y-9629744D01*
X21019245Y-9759923D02*
X21491249Y-10928174D01*
X21491249Y-10928174D02*
X21621428Y-10983432D01*
X21621428Y-10983432D02*
X22734049Y-10533904D01*
X22187123Y-9180216D02*
X21074503Y-9629744D01*
X22187123Y-9180216D02*
X22317302Y-9235473D01*
X22734049Y-10533904D02*
X22789307Y-10403725D01*
X22789307Y-10403725D02*
X22317302Y-9235473D01*
D13*
X4790746Y-16088272D02*
X4790746Y-15888272D01*
X4790746Y-15888272D02*
X4838365Y-15888272D01*
X4838365Y-15888272D02*
X4866936Y-15897796D01*
X4866936Y-15897796D02*
X4885984Y-15916844D01*
X4885984Y-15916844D02*
X4895507Y-15935891D01*
X4895507Y-15935891D02*
X4905031Y-15973986D01*
X4905031Y-15973986D02*
X4905031Y-16002558D01*
X4905031Y-16002558D02*
X4895507Y-16040653D01*
X4895507Y-16040653D02*
X4885984Y-16059701D01*
X4885984Y-16059701D02*
X4866936Y-16078748D01*
X4866936Y-16078748D02*
X4838365Y-16088272D01*
X4838365Y-16088272D02*
X4790746Y-16088272D01*
X4990746Y-16088272D02*
X4990746Y-15954939D01*
X4990746Y-15993034D02*
X5000269Y-15973986D01*
X5000269Y-15973986D02*
X5009793Y-15964463D01*
X5009793Y-15964463D02*
X5028841Y-15954939D01*
X5028841Y-15954939D02*
X5047888Y-15954939D01*
X5114555Y-16088272D02*
X5114555Y-15954939D01*
X5114555Y-15888272D02*
X5105031Y-15897796D01*
X5105031Y-15897796D02*
X5114555Y-15907320D01*
X5114555Y-15907320D02*
X5124079Y-15897796D01*
X5124079Y-15897796D02*
X5114555Y-15888272D01*
X5114555Y-15888272D02*
X5114555Y-15907320D01*
X5238365Y-16088272D02*
X5219317Y-16078748D01*
X5219317Y-16078748D02*
X5209793Y-16059701D01*
X5209793Y-16059701D02*
X5209793Y-15888272D01*
X5343126Y-16088272D02*
X5324079Y-16078748D01*
X5324079Y-16078748D02*
X5314555Y-16059701D01*
X5314555Y-16059701D02*
X5314555Y-15888272D01*
X5571698Y-16088272D02*
X5571698Y-15888272D01*
X5571698Y-15888272D02*
X5638365Y-16031129D01*
X5638365Y-16031129D02*
X5705031Y-15888272D01*
X5705031Y-15888272D02*
X5705031Y-16088272D01*
X5885984Y-16088272D02*
X5885984Y-15983510D01*
X5885984Y-15983510D02*
X5876460Y-15964463D01*
X5876460Y-15964463D02*
X5857412Y-15954939D01*
X5857412Y-15954939D02*
X5819317Y-15954939D01*
X5819317Y-15954939D02*
X5800269Y-15964463D01*
X5885984Y-16078748D02*
X5866936Y-16088272D01*
X5866936Y-16088272D02*
X5819317Y-16088272D01*
X5819317Y-16088272D02*
X5800269Y-16078748D01*
X5800269Y-16078748D02*
X5790745Y-16059701D01*
X5790745Y-16059701D02*
X5790745Y-16040653D01*
X5790745Y-16040653D02*
X5800269Y-16021605D01*
X5800269Y-16021605D02*
X5819317Y-16012082D01*
X5819317Y-16012082D02*
X5866936Y-16012082D01*
X5866936Y-16012082D02*
X5885984Y-16002558D01*
X5981222Y-15954939D02*
X5981222Y-16154939D01*
X5981222Y-15964463D02*
X6000269Y-15954939D01*
X6000269Y-15954939D02*
X6038365Y-15954939D01*
X6038365Y-15954939D02*
X6057412Y-15964463D01*
X6057412Y-15964463D02*
X6066936Y-15973986D01*
X6066936Y-15973986D02*
X6076460Y-15993034D01*
X6076460Y-15993034D02*
X6076460Y-16050177D01*
X6076460Y-16050177D02*
X6066936Y-16069224D01*
X6066936Y-16069224D02*
X6057412Y-16078748D01*
X6057412Y-16078748D02*
X6038365Y-16088272D01*
X6038365Y-16088272D02*
X6000269Y-16088272D01*
X6000269Y-16088272D02*
X5981222Y-16078748D01*
X6162174Y-16069224D02*
X6171698Y-16078748D01*
X6171698Y-16078748D02*
X6162174Y-16088272D01*
X6162174Y-16088272D02*
X6152650Y-16078748D01*
X6152650Y-16078748D02*
X6162174Y-16069224D01*
X6162174Y-16069224D02*
X6162174Y-16088272D01*
X6162174Y-15964463D02*
X6171698Y-15973986D01*
X6171698Y-15973986D02*
X6162174Y-15983510D01*
X6162174Y-15983510D02*
X6152650Y-15973986D01*
X6152650Y-15973986D02*
X6162174Y-15964463D01*
X6162174Y-15964463D02*
X6162174Y-15983510D01*
M02*
