%TF.GenerationSoftware,KiCad,Pcbnew,8.0.6-1.fc41*%
%TF.CreationDate,2024-11-30T14:56:56+11:00*%
%TF.ProjectId,katori-plate,6b61746f-7269-42d7-906c-6174652e6b69,0.1*%
%TF.SameCoordinates,Original*%
%TF.FileFunction,Copper,L2,Bot*%
%TF.FilePolarity,Positive*%
%FSLAX46Y46*%
G04 Gerber Fmt 4.6, Leading zero omitted, Abs format (unit mm)*
G04 Created by KiCad (PCBNEW 8.0.6-1.fc41) date 2024-11-30 14:56:56*
%MOMM*%
%LPD*%
G01*
G04 APERTURE LIST*
G04 APERTURE END LIST*
%TA.AperFunction,NonConductor*%
G36*
X231536709Y-52097869D02*
G01*
X231688400Y-52113809D01*
X231709606Y-52117930D01*
X231856240Y-52159976D01*
X231876411Y-52167720D01*
X232013502Y-52234585D01*
X232032031Y-52245719D01*
X232155420Y-52335372D01*
X232171733Y-52349554D01*
X232277684Y-52459278D01*
X232291287Y-52476077D01*
X232376571Y-52602529D01*
X232387050Y-52621436D01*
X232451324Y-52765823D01*
X232455288Y-52775889D01*
X232477222Y-52839606D01*
X232477256Y-52839689D01*
X235882352Y-62728794D01*
X235882635Y-62729467D01*
X235902444Y-62786889D01*
X235902444Y-62786891D01*
X236019170Y-63018706D01*
X236023962Y-63028222D01*
X236176826Y-63251024D01*
X236195966Y-63272146D01*
X236358262Y-63451252D01*
X236490450Y-63562529D01*
X236564968Y-63625260D01*
X236793196Y-63769897D01*
X236793200Y-63769899D01*
X236793204Y-63769901D01*
X236901754Y-63819683D01*
X237038800Y-63882534D01*
X237297318Y-63961125D01*
X237357147Y-63970795D01*
X237564047Y-64004240D01*
X237564053Y-64004240D01*
X237564056Y-64004241D01*
X237834169Y-64011101D01*
X238102752Y-63981580D01*
X238161720Y-63966914D01*
X238162377Y-63966796D01*
X238169921Y-63964914D01*
X238169925Y-63964915D01*
X238247051Y-63945684D01*
X238269002Y-63940212D01*
X238269003Y-63940212D01*
X238291321Y-63934647D01*
X238297794Y-63933034D01*
X238297794Y-63933033D01*
X238314162Y-63928953D01*
X238314165Y-63928951D01*
X257052889Y-59256856D01*
X257052994Y-59256838D01*
X257120224Y-59240073D01*
X257130810Y-59237918D01*
X257286847Y-59213199D01*
X257308405Y-59211692D01*
X257460913Y-59214351D01*
X257482391Y-59216607D01*
X257632127Y-59245712D01*
X257652900Y-59251668D01*
X257666065Y-59256722D01*
X257795289Y-59306326D01*
X257814717Y-59315801D01*
X257945460Y-59394359D01*
X257962947Y-59407065D01*
X258078053Y-59507127D01*
X258093068Y-59522676D01*
X258189050Y-59641208D01*
X258201137Y-59659128D01*
X258275077Y-59792526D01*
X258283869Y-59812273D01*
X258335404Y-59961957D01*
X258338475Y-59972328D01*
X258339733Y-59977373D01*
X258355081Y-60038937D01*
X258355090Y-60038964D01*
X266706310Y-93533900D01*
X266708466Y-93544497D01*
X266733156Y-93700359D01*
X266734664Y-93721923D01*
X266732003Y-93874414D01*
X266729744Y-93895912D01*
X266700640Y-94045633D01*
X266694681Y-94066412D01*
X266640022Y-94208796D01*
X266630546Y-94228224D01*
X266551986Y-94358960D01*
X266539280Y-94376447D01*
X266439220Y-94491543D01*
X266423670Y-94506558D01*
X266305133Y-94602537D01*
X266287211Y-94614624D01*
X266153813Y-94688556D01*
X266134065Y-94697346D01*
X265984199Y-94748936D01*
X265973828Y-94752008D01*
X265908487Y-94768294D01*
X265908396Y-94768323D01*
X263522668Y-95363150D01*
X250584067Y-98589095D01*
X250583887Y-98589088D01*
X250410537Y-98632234D01*
X250410533Y-98632235D01*
X250270211Y-98686955D01*
X250172469Y-98725071D01*
X249948150Y-98847439D01*
X249741222Y-98997348D01*
X249741220Y-98997350D01*
X249555042Y-99172366D01*
X249392645Y-99369642D01*
X249256669Y-99585963D01*
X249256662Y-99585977D01*
X249149304Y-99817853D01*
X249072316Y-100061504D01*
X249026949Y-100312971D01*
X249013942Y-100568148D01*
X249013943Y-100568163D01*
X249033504Y-100822935D01*
X249085317Y-101073147D01*
X249117354Y-101166045D01*
X249117373Y-101166100D01*
X249902191Y-103445343D01*
X249905267Y-103455727D01*
X249943464Y-103608990D01*
X249946843Y-103630336D01*
X249957472Y-103782494D01*
X249957093Y-103804105D01*
X249941140Y-103955792D01*
X249937015Y-103977006D01*
X249894967Y-104123621D01*
X249887221Y-104143797D01*
X249820356Y-104280883D01*
X249809224Y-104299409D01*
X249719569Y-104422806D01*
X249705391Y-104439117D01*
X249595673Y-104545073D01*
X249578878Y-104558674D01*
X249452434Y-104643968D01*
X249433530Y-104654447D01*
X249288702Y-104718936D01*
X249278651Y-104722897D01*
X249274683Y-104724264D01*
X249274664Y-104724270D01*
X234603609Y-109775925D01*
X234603465Y-109775965D01*
X234539296Y-109798070D01*
X234528923Y-109801144D01*
X234375661Y-109839376D01*
X234354309Y-109842760D01*
X234202166Y-109853413D01*
X234180552Y-109853038D01*
X234028863Y-109837106D01*
X234007642Y-109832982D01*
X233885871Y-109798070D01*
X233861027Y-109790947D01*
X233840851Y-109783203D01*
X233703758Y-109716341D01*
X233685235Y-109705211D01*
X233589389Y-109635573D01*
X233561842Y-109615558D01*
X233545529Y-109601377D01*
X233545351Y-109601193D01*
X233453471Y-109506040D01*
X233439582Y-109491656D01*
X233425979Y-109474855D01*
X233354888Y-109369444D01*
X233340699Y-109348405D01*
X233330226Y-109329509D01*
X233266020Y-109185265D01*
X233262076Y-109175250D01*
X233242350Y-109117941D01*
X233242347Y-109117937D01*
X233239579Y-109109894D01*
X233239536Y-109109792D01*
X232555584Y-107123448D01*
X232553604Y-107117157D01*
X232546194Y-107091222D01*
X232543091Y-107087044D01*
X232542157Y-107084420D01*
X232510476Y-106992159D01*
X232465530Y-106902954D01*
X232388517Y-106750105D01*
X232235027Y-106526714D01*
X232166694Y-106451471D01*
X232052813Y-106326072D01*
X232052804Y-106326063D01*
X231845202Y-106151837D01*
X231845189Y-106151828D01*
X231616086Y-106007261D01*
X231615972Y-106007189D01*
X231615969Y-106007187D01*
X231369341Y-105894787D01*
X231369330Y-105894783D01*
X231109801Y-105816677D01*
X231109785Y-105816674D01*
X230842093Y-105774287D01*
X230842097Y-105774287D01*
X230571115Y-105768392D01*
X230301816Y-105799100D01*
X230039127Y-105865849D01*
X230039124Y-105865850D01*
X229914791Y-105916201D01*
X229914714Y-105916232D01*
X229872575Y-105933264D01*
X229872559Y-105933271D01*
X214804527Y-112021157D01*
X214804171Y-112021275D01*
X214783434Y-112029661D01*
X214783222Y-112029681D01*
X214614468Y-112097923D01*
X214386306Y-112227094D01*
X214386292Y-112227103D01*
X214176936Y-112384939D01*
X213989953Y-112568752D01*
X213828556Y-112775383D01*
X213828553Y-112775386D01*
X213828552Y-112775389D01*
X213695492Y-113001319D01*
X213654099Y-113098838D01*
X213593048Y-113242675D01*
X213593044Y-113242688D01*
X213522972Y-113495333D01*
X213522971Y-113495338D01*
X213486460Y-113754984D01*
X213484138Y-114017164D01*
X213484139Y-114017189D01*
X213516043Y-114277422D01*
X213516045Y-114277430D01*
X213581634Y-114531284D01*
X213581636Y-114531290D01*
X213602145Y-114582092D01*
X213603122Y-114584511D01*
X213603222Y-114584811D01*
X213630337Y-114651924D01*
X213630630Y-114652646D01*
X213630674Y-114652873D01*
X213630715Y-114652857D01*
X213658321Y-114721243D01*
X213658467Y-114721545D01*
X214259281Y-116208588D01*
X214259297Y-116208634D01*
X214261657Y-116214476D01*
X214261658Y-116214477D01*
X214280478Y-116261054D01*
X214284314Y-116270546D01*
X214287926Y-116280745D01*
X214334115Y-116431808D01*
X214338609Y-116452949D01*
X214357201Y-116604330D01*
X214357956Y-116625934D01*
X214349975Y-116778248D01*
X214346967Y-116799653D01*
X214312656Y-116948273D01*
X214305977Y-116968829D01*
X214246378Y-117109234D01*
X214236234Y-117128312D01*
X214153160Y-117256229D01*
X214139852Y-117273262D01*
X214035827Y-117384810D01*
X214019763Y-117399273D01*
X213897949Y-117491060D01*
X213879616Y-117502515D01*
X213738588Y-117574363D01*
X213728769Y-117578838D01*
X213724692Y-117580486D01*
X213724669Y-117580495D01*
X213667123Y-117603742D01*
X213667074Y-117603765D01*
X212179368Y-118204816D01*
X212179248Y-118204857D01*
X212159496Y-118212839D01*
X212159274Y-118212860D01*
X211989815Y-118281343D01*
X211989812Y-118281345D01*
X211761586Y-118410493D01*
X211761580Y-118410497D01*
X211552167Y-118568325D01*
X211552156Y-118568334D01*
X211365142Y-118752136D01*
X211365126Y-118752154D01*
X211203693Y-118958803D01*
X211070610Y-119184754D01*
X210968154Y-119426150D01*
X210968152Y-119426154D01*
X210898080Y-119678850D01*
X210884119Y-119778203D01*
X210861587Y-119938542D01*
X210861587Y-119938547D01*
X210861586Y-119938555D01*
X210859300Y-120200758D01*
X210859300Y-120200763D01*
X210867596Y-120268330D01*
X210888710Y-120440296D01*
X210891259Y-120461051D01*
X210891259Y-120461054D01*
X210907162Y-120522549D01*
X210955366Y-120708951D01*
X210956916Y-120714942D01*
X210969492Y-120746070D01*
X211006032Y-120836511D01*
X211013925Y-120856048D01*
X211033780Y-120905196D01*
X211033873Y-120905388D01*
X218096029Y-138384866D01*
X218096080Y-138385018D01*
X218121517Y-138447978D01*
X218125126Y-138458172D01*
X218171312Y-138609235D01*
X218175807Y-138630379D01*
X218194393Y-138781761D01*
X218195147Y-138803363D01*
X218187163Y-138955675D01*
X218184155Y-138977078D01*
X218149842Y-139125693D01*
X218143163Y-139146246D01*
X218083566Y-139286637D01*
X218073418Y-139305721D01*
X218013378Y-139398172D01*
X217990349Y-139433631D01*
X217977039Y-139450664D01*
X217873015Y-139562207D01*
X217856952Y-139576670D01*
X217735140Y-139668454D01*
X217716809Y-139679907D01*
X217575585Y-139751856D01*
X217565742Y-139756341D01*
X217505715Y-139780590D01*
X217505645Y-139780622D01*
X202803691Y-145720590D01*
X202803650Y-145720604D01*
X202783912Y-145728580D01*
X202783671Y-145728603D01*
X202614689Y-145796880D01*
X202614683Y-145796883D01*
X202386451Y-145926016D01*
X202386429Y-145926030D01*
X202177008Y-146083847D01*
X201989966Y-146267660D01*
X201989959Y-146267667D01*
X201828515Y-146474317D01*
X201828514Y-146474318D01*
X201695419Y-146700283D01*
X201592960Y-146941677D01*
X201592955Y-146941692D01*
X201522883Y-147194390D01*
X201522882Y-147194394D01*
X201486393Y-147454089D01*
X201486392Y-147454096D01*
X201484112Y-147716318D01*
X201484112Y-147716326D01*
X201516082Y-147976616D01*
X201516085Y-147976630D01*
X201581752Y-148230505D01*
X201581755Y-148230514D01*
X201606176Y-148290952D01*
X201606176Y-148290953D01*
X201658549Y-148420568D01*
X201658624Y-148420724D01*
X202281505Y-149962411D01*
X202281504Y-149962411D01*
X202284405Y-149969590D01*
X202288018Y-149979793D01*
X202334195Y-150130853D01*
X202338688Y-150151994D01*
X202357271Y-150303377D01*
X202358025Y-150324979D01*
X202350037Y-150477298D01*
X202347028Y-150498700D01*
X202312716Y-150647309D01*
X202306037Y-150667866D01*
X202246437Y-150808268D01*
X202236289Y-150827352D01*
X202153218Y-150955265D01*
X202139911Y-150972297D01*
X202035885Y-151083848D01*
X202019823Y-151098310D01*
X201898018Y-151190096D01*
X201879688Y-151201550D01*
X201738305Y-151273588D01*
X201728464Y-151278073D01*
X201673051Y-151300463D01*
X201673048Y-151300464D01*
X187275119Y-157117578D01*
X187264916Y-157121191D01*
X187113848Y-157167368D01*
X187092707Y-157171860D01*
X186941321Y-157190442D01*
X186919721Y-157191196D01*
X186767400Y-157183209D01*
X186745997Y-157180200D01*
X186597378Y-157145886D01*
X186576823Y-157139208D01*
X186436417Y-157079609D01*
X186417334Y-157069462D01*
X186289415Y-156986393D01*
X186272384Y-156973087D01*
X186160827Y-156869064D01*
X186146364Y-156853002D01*
X186054565Y-156731189D01*
X186043115Y-156712868D01*
X185971282Y-156571906D01*
X185966811Y-156562095D01*
X181942071Y-146600519D01*
X181942066Y-146600498D01*
X181931881Y-146575291D01*
X181931873Y-146575219D01*
X181912934Y-146528340D01*
X181912935Y-146528340D01*
X181864865Y-146409353D01*
X181839602Y-146364413D01*
X181739092Y-146185616D01*
X181585773Y-145979795D01*
X181585766Y-145979787D01*
X181407403Y-145795241D01*
X181407402Y-145795240D01*
X181407399Y-145795237D01*
X181206911Y-145634987D01*
X181197334Y-145629165D01*
X180987600Y-145501672D01*
X180987585Y-145501664D01*
X180915621Y-145469697D01*
X180915621Y-145469696D01*
X180915614Y-145469695D01*
X180870326Y-145449575D01*
X180870322Y-145449573D01*
X180824888Y-145429388D01*
X180824888Y-145429387D01*
X180824883Y-145429386D01*
X180190409Y-145147481D01*
X178816153Y-144576962D01*
X177428243Y-144040394D01*
X176027592Y-143538131D01*
X174615006Y-143070461D01*
X173776344Y-142815508D01*
X181850647Y-142815508D01*
X181850647Y-142815510D01*
X181866708Y-142946312D01*
X186636119Y-154751016D01*
X186715429Y-154856264D01*
X186819276Y-154937398D01*
X186940584Y-154988890D01*
X186940586Y-154988890D01*
X188115740Y-155487714D01*
X188115745Y-155487717D01*
X188121064Y-155489974D01*
X188121066Y-155489976D01*
X188242374Y-155541468D01*
X188354532Y-155557230D01*
X188354533Y-155557231D01*
X188357368Y-155557629D01*
X188361046Y-155558146D01*
X188376999Y-155561976D01*
X188389045Y-155562081D01*
X188392484Y-155562564D01*
X188407767Y-155555555D01*
X188410418Y-155555199D01*
X188503678Y-155543748D01*
X199752072Y-150999102D01*
X199798171Y-150964364D01*
X199857319Y-150919793D01*
X199938454Y-150815945D01*
X200542524Y-149392847D01*
X200560865Y-149262345D01*
X200544804Y-149131543D01*
X200495437Y-149009354D01*
X200490764Y-148997787D01*
X200490757Y-148997774D01*
X195775393Y-137326838D01*
X195696083Y-137221591D01*
X195592236Y-137140456D01*
X195592233Y-137140455D01*
X195592232Y-137140454D01*
X195554408Y-137124398D01*
X195554408Y-137124399D01*
X194301439Y-136592544D01*
X194301423Y-136592536D01*
X194169138Y-136536386D01*
X194169133Y-136536385D01*
X194038637Y-136518045D01*
X193907835Y-136534106D01*
X193907833Y-136534106D01*
X193907831Y-136534107D01*
X193783355Y-136584398D01*
X193783346Y-136584400D01*
X193783347Y-136584401D01*
X182659437Y-141078753D01*
X182554193Y-141158061D01*
X182473059Y-141261907D01*
X182473058Y-141261908D01*
X182350317Y-141551068D01*
X182027900Y-142310635D01*
X181920480Y-142563700D01*
X181868988Y-142685008D01*
X181868987Y-142685012D01*
X181850647Y-142815508D01*
X173776344Y-142815508D01*
X173191343Y-142637668D01*
X171757468Y-142240015D01*
X170314251Y-141877744D01*
X168862560Y-141551071D01*
X167403253Y-141260192D01*
X165937250Y-141005290D01*
X164465480Y-140786524D01*
X162988654Y-140604000D01*
X161507918Y-140457863D01*
X160023929Y-140348175D01*
X158537769Y-140275016D01*
X158537749Y-140275015D01*
X157793977Y-140256719D01*
X157050185Y-140238423D01*
X155562230Y-140238423D01*
X155562229Y-140238423D01*
X155562211Y-140238423D01*
X154074667Y-140275014D01*
X154074647Y-140275014D01*
X154074646Y-140275015D01*
X152588486Y-140348174D01*
X151104497Y-140457862D01*
X149623761Y-140603999D01*
X148146935Y-140786522D01*
X146675165Y-141005287D01*
X145209162Y-141260190D01*
X143749855Y-141551068D01*
X142298164Y-141877740D01*
X140854946Y-142240011D01*
X139421071Y-142637663D01*
X137997408Y-143070456D01*
X136584822Y-143538126D01*
X135184171Y-144040389D01*
X133796261Y-144576956D01*
X132421990Y-145147481D01*
X131808564Y-145420033D01*
X131808550Y-145420038D01*
X131808551Y-145420039D01*
X131792258Y-145427278D01*
X131792225Y-145427282D01*
X131742073Y-145449562D01*
X131624795Y-145501663D01*
X131624793Y-145501664D01*
X131405487Y-145634990D01*
X131205002Y-145795250D01*
X131026645Y-145979806D01*
X131026636Y-145979817D01*
X130873327Y-146185635D01*
X130873320Y-146185646D01*
X130747564Y-146409368D01*
X130747561Y-146409375D01*
X130706293Y-146511536D01*
X130706290Y-146511543D01*
X126645482Y-156562396D01*
X126640995Y-156572242D01*
X126569324Y-156712897D01*
X126557870Y-156731227D01*
X126466078Y-156853035D01*
X126451614Y-156869097D01*
X126340063Y-156973116D01*
X126323030Y-156986423D01*
X126195113Y-157069490D01*
X126176029Y-157079637D01*
X126035627Y-157139232D01*
X126015070Y-157145911D01*
X125866455Y-157180219D01*
X125845051Y-157183227D01*
X125692734Y-157191207D01*
X125671132Y-157190452D01*
X125519747Y-157171861D01*
X125498605Y-157167367D01*
X125347104Y-157121046D01*
X125336907Y-157117435D01*
X125274983Y-157092415D01*
X125274954Y-157092405D01*
X115803773Y-153265809D01*
X110883383Y-151277847D01*
X110873529Y-151273356D01*
X110732785Y-151201622D01*
X110714460Y-151190169D01*
X110592637Y-151098354D01*
X110576578Y-151083892D01*
X110507686Y-151010007D01*
X110472546Y-150972320D01*
X110459247Y-150955296D01*
X110376168Y-150827360D01*
X110366022Y-150808280D01*
X110366017Y-150808268D01*
X110306410Y-150667849D01*
X110299737Y-150647311D01*
X110265413Y-150498676D01*
X110262405Y-150477287D01*
X110254408Y-150324935D01*
X110255160Y-150303345D01*
X110273734Y-150151920D01*
X110278220Y-150130803D01*
X110324233Y-149980219D01*
X110327832Y-149970052D01*
X110613752Y-149262372D01*
X112051551Y-149262372D01*
X112069887Y-149392842D01*
X112069892Y-149392872D01*
X112622470Y-150694663D01*
X112673962Y-150815971D01*
X112755097Y-150919818D01*
X112860344Y-150999128D01*
X123974970Y-155489727D01*
X123974983Y-155489734D01*
X124035609Y-155514228D01*
X124108739Y-155543774D01*
X124239541Y-155559835D01*
X124317546Y-155548871D01*
X124370039Y-155541495D01*
X124370039Y-155541494D01*
X124370042Y-155541494D01*
X124370106Y-155541467D01*
X124491351Y-155490002D01*
X124491351Y-155490001D01*
X124511302Y-155481533D01*
X124511531Y-155481434D01*
X125793140Y-154937424D01*
X125896987Y-154856289D01*
X125976297Y-154751042D01*
X125998961Y-154694947D01*
X130687849Y-143089539D01*
X130687851Y-143089537D01*
X130696339Y-143068526D01*
X130696341Y-143068526D01*
X130745708Y-142946337D01*
X130761769Y-142815535D01*
X130743428Y-142685033D01*
X130139358Y-141261935D01*
X130058223Y-141158087D01*
X130058188Y-141158061D01*
X129952977Y-141078779D01*
X129952976Y-141078778D01*
X129952912Y-141078752D01*
X120165641Y-137124438D01*
X123614920Y-137124438D01*
X123614920Y-137337011D01*
X123648167Y-137546929D01*
X123648174Y-137546968D01*
X123713850Y-137749098D01*
X123713864Y-137749139D01*
X123810371Y-137938545D01*
X123935310Y-138110511D01*
X124085633Y-138260834D01*
X124257599Y-138385773D01*
X124257601Y-138385774D01*
X124257604Y-138385776D01*
X124447008Y-138482282D01*
X124649177Y-138547971D01*
X124859133Y-138581225D01*
X124859134Y-138581225D01*
X125071706Y-138581225D01*
X125071707Y-138581225D01*
X125281663Y-138547971D01*
X125483832Y-138482282D01*
X125673236Y-138385776D01*
X125695209Y-138369811D01*
X125845206Y-138260834D01*
X125845208Y-138260831D01*
X125845212Y-138260829D01*
X125995524Y-138110517D01*
X125995526Y-138110513D01*
X125995529Y-138110511D01*
X126120468Y-137938545D01*
X126120467Y-137938545D01*
X126120471Y-137938541D01*
X126216977Y-137749137D01*
X126282666Y-137546968D01*
X126315920Y-137337012D01*
X126315920Y-137124438D01*
X126315914Y-137124398D01*
X186296496Y-137124398D01*
X186296496Y-137336972D01*
X186318538Y-137476144D01*
X186329750Y-137546929D01*
X186392718Y-137740725D01*
X186395440Y-137749100D01*
X186491947Y-137938506D01*
X186616886Y-138110472D01*
X186767209Y-138260795D01*
X186939175Y-138385734D01*
X186939177Y-138385735D01*
X186939180Y-138385737D01*
X187128584Y-138482243D01*
X187330753Y-138547932D01*
X187540709Y-138581186D01*
X187540710Y-138581186D01*
X187753282Y-138581186D01*
X187753283Y-138581186D01*
X187963239Y-138547932D01*
X188165408Y-138482243D01*
X188354812Y-138385737D01*
X188376785Y-138369772D01*
X188526782Y-138260795D01*
X188526784Y-138260792D01*
X188526788Y-138260790D01*
X188677100Y-138110478D01*
X188677102Y-138110474D01*
X188677105Y-138110472D01*
X188802044Y-137938506D01*
X188802043Y-137938506D01*
X188802047Y-137938502D01*
X188898553Y-137749098D01*
X188964242Y-137546929D01*
X188997496Y-137336973D01*
X188997496Y-137124399D01*
X188964242Y-136914443D01*
X188898553Y-136712274D01*
X188802047Y-136522870D01*
X188802045Y-136522867D01*
X188802044Y-136522865D01*
X188677105Y-136350899D01*
X188526782Y-136200576D01*
X188354816Y-136075637D01*
X188165410Y-135979130D01*
X188165409Y-135979129D01*
X188165408Y-135979129D01*
X187963239Y-135913440D01*
X187963237Y-135913439D01*
X187963236Y-135913439D01*
X187801953Y-135887894D01*
X187753283Y-135880186D01*
X187540709Y-135880186D01*
X187492038Y-135887894D01*
X187330756Y-135913439D01*
X187128581Y-135979130D01*
X186939175Y-136075637D01*
X186767209Y-136200576D01*
X186616886Y-136350899D01*
X186491947Y-136522865D01*
X186395440Y-136712271D01*
X186329749Y-136914446D01*
X186296496Y-137124398D01*
X126315914Y-137124398D01*
X126282666Y-136914482D01*
X126216977Y-136712313D01*
X126120471Y-136522909D01*
X126120469Y-136522906D01*
X126120468Y-136522904D01*
X125995529Y-136350938D01*
X125845206Y-136200615D01*
X125673240Y-136075676D01*
X125483834Y-135979169D01*
X125483833Y-135979168D01*
X125483832Y-135979168D01*
X125281663Y-135913479D01*
X125281661Y-135913478D01*
X125281660Y-135913478D01*
X125120377Y-135887933D01*
X125071707Y-135880225D01*
X124859133Y-135880225D01*
X124810462Y-135887933D01*
X124649180Y-135913478D01*
X124447005Y-135979169D01*
X124257599Y-136075676D01*
X124085633Y-136200615D01*
X123935310Y-136350938D01*
X123810371Y-136522904D01*
X123713864Y-136712310D01*
X123648173Y-136914485D01*
X123614920Y-137124438D01*
X120165641Y-137124438D01*
X118704582Y-136534132D01*
X118573780Y-136518071D01*
X118573779Y-136518071D01*
X118573778Y-136518071D01*
X118570779Y-136518492D01*
X118555438Y-136520648D01*
X118555435Y-136520648D01*
X118443281Y-136536411D01*
X118443274Y-136536413D01*
X118324353Y-136586890D01*
X118324240Y-136586940D01*
X118321970Y-136587904D01*
X118321967Y-136587905D01*
X118028980Y-136712271D01*
X117141488Y-137088990D01*
X117020179Y-137140482D01*
X117020179Y-137140483D01*
X116924342Y-137215357D01*
X116924343Y-137215358D01*
X116916330Y-137221618D01*
X116878795Y-137271430D01*
X116878794Y-137271429D01*
X116837025Y-137326859D01*
X116837023Y-137326864D01*
X112067996Y-149130617D01*
X112067628Y-149131504D01*
X112067613Y-149131561D01*
X112067612Y-149131568D01*
X112067612Y-149131569D01*
X112052673Y-149253237D01*
X112051551Y-149262372D01*
X110613752Y-149262372D01*
X110978510Y-148359562D01*
X110981528Y-148352095D01*
X110981527Y-148352094D01*
X110995424Y-148317712D01*
X110995490Y-148317533D01*
X111006223Y-148290971D01*
X111006223Y-148290968D01*
X111009253Y-148283470D01*
X111009393Y-148283040D01*
X111030621Y-148230510D01*
X111096296Y-147976623D01*
X111128267Y-147716336D01*
X111125988Y-147454102D01*
X111089499Y-147194410D01*
X111019423Y-146941702D01*
X110916959Y-146700304D01*
X110858184Y-146600524D01*
X110783867Y-146474357D01*
X110783866Y-146474356D01*
X110783861Y-146474347D01*
X110689347Y-146353376D01*
X110622413Y-146267704D01*
X110622404Y-146267694D01*
X110435360Y-146083891D01*
X110435359Y-146083890D01*
X110225921Y-145926074D01*
X110225911Y-145926068D01*
X109997671Y-145796944D01*
X109997662Y-145796940D01*
X109944694Y-145775542D01*
X109944626Y-145775509D01*
X95109734Y-139781826D01*
X95109583Y-139781754D01*
X95102204Y-139778774D01*
X95102203Y-139778773D01*
X95046131Y-139756129D01*
X95036289Y-139751645D01*
X94895526Y-139679948D01*
X94877191Y-139668494D01*
X94755373Y-139576719D01*
X94739306Y-139562255D01*
X94635278Y-139450717D01*
X94621967Y-139433682D01*
X94538892Y-139305770D01*
X94528742Y-139286683D01*
X94469139Y-139146274D01*
X94462464Y-139125728D01*
X94428156Y-138977106D01*
X94425150Y-138955711D01*
X94417175Y-138803386D01*
X94417931Y-138781785D01*
X94433914Y-138651710D01*
X94436531Y-138630404D01*
X94441027Y-138609262D01*
X94449614Y-138581186D01*
X94487075Y-138458706D01*
X94490673Y-138448553D01*
X94513549Y-138391956D01*
X94513549Y-138391953D01*
X94516725Y-138384097D01*
X94516774Y-138383944D01*
X94776650Y-137740725D01*
X96214447Y-137740725D01*
X96232786Y-137871217D01*
X96232788Y-137871226D01*
X96284277Y-137992528D01*
X96702209Y-138977112D01*
X96785366Y-139173017D01*
X96836858Y-139294325D01*
X96836859Y-139294326D01*
X96917993Y-139398172D01*
X97023230Y-139477475D01*
X97023240Y-139477482D01*
X108137866Y-143968081D01*
X108137879Y-143968088D01*
X108198505Y-143992582D01*
X108271635Y-144022128D01*
X108402437Y-144038189D01*
X108532938Y-144019848D01*
X108532946Y-144019844D01*
X108532966Y-144019839D01*
X108533494Y-144019611D01*
X108654247Y-143968356D01*
X108654247Y-143968355D01*
X108674198Y-143959887D01*
X108674427Y-143959788D01*
X109956036Y-143415778D01*
X110059883Y-143334643D01*
X110139193Y-143229396D01*
X110159329Y-143179557D01*
X114850745Y-131567893D01*
X114850747Y-131567891D01*
X114859235Y-131546880D01*
X114859237Y-131546880D01*
X114908604Y-131424691D01*
X114924665Y-131293889D01*
X114924664Y-131293882D01*
X197687757Y-131293882D01*
X197687757Y-131293884D01*
X197703818Y-131424686D01*
X202453095Y-143179557D01*
X202473229Y-143229389D01*
X202473231Y-143229394D01*
X202532957Y-143308654D01*
X202532958Y-143308654D01*
X202552536Y-143334635D01*
X202552537Y-143334636D01*
X202552539Y-143334638D01*
X202656386Y-143415772D01*
X202777694Y-143467264D01*
X202777696Y-143467264D01*
X203952850Y-143966088D01*
X203952855Y-143966091D01*
X203958174Y-143968348D01*
X203958176Y-143968350D01*
X204079484Y-144019842D01*
X204191642Y-144035604D01*
X204191643Y-144035605D01*
X204194478Y-144036003D01*
X204198156Y-144036520D01*
X204214109Y-144040350D01*
X204226155Y-144040455D01*
X204229594Y-144040938D01*
X204244877Y-144033929D01*
X204247528Y-144033573D01*
X204340788Y-144022122D01*
X215589182Y-139477476D01*
X215694430Y-139398166D01*
X215775564Y-139294319D01*
X215800458Y-139235672D01*
X216379634Y-137871221D01*
X216397975Y-137740719D01*
X216381914Y-137609917D01*
X216332547Y-137487728D01*
X216327874Y-137476161D01*
X216327867Y-137476148D01*
X211612503Y-125805212D01*
X211533193Y-125699965D01*
X211429354Y-125618836D01*
X211429344Y-125618828D01*
X211418971Y-125614426D01*
X211418968Y-125614423D01*
X211418968Y-125614425D01*
X210138549Y-125070918D01*
X210138533Y-125070910D01*
X210006248Y-125014760D01*
X210006243Y-125014759D01*
X209875747Y-124996419D01*
X209744945Y-125012480D01*
X209744943Y-125012480D01*
X209744941Y-125012481D01*
X209620465Y-125062772D01*
X209620456Y-125062774D01*
X209620457Y-125062775D01*
X198496547Y-129557127D01*
X198391303Y-129636435D01*
X198310169Y-129740281D01*
X198310168Y-129740282D01*
X197757590Y-131042074D01*
X197706098Y-131163382D01*
X197706097Y-131163386D01*
X197687757Y-131293882D01*
X114924664Y-131293882D01*
X114906324Y-131163387D01*
X114302254Y-129740289D01*
X114221119Y-129636441D01*
X114221112Y-129636436D01*
X114115868Y-129557129D01*
X114115869Y-129557129D01*
X114115750Y-129557082D01*
X102867478Y-125012486D01*
X102867429Y-125012480D01*
X102736676Y-124996425D01*
X102736675Y-124996425D01*
X102736674Y-124996425D01*
X102733675Y-124996846D01*
X102718334Y-124999002D01*
X102718331Y-124999002D01*
X102606177Y-125014765D01*
X102606170Y-125014767D01*
X102487249Y-125065244D01*
X102487136Y-125065294D01*
X102484866Y-125066258D01*
X102484863Y-125066259D01*
X101304386Y-125567343D01*
X101304384Y-125567344D01*
X101183077Y-125618835D01*
X101183076Y-125618836D01*
X101079229Y-125699970D01*
X101079228Y-125699971D01*
X101079227Y-125699972D01*
X100999919Y-125805217D01*
X100999919Y-125805218D01*
X96230512Y-137609913D01*
X96230508Y-137609922D01*
X96214448Y-137740720D01*
X96214447Y-137740725D01*
X94776650Y-137740725D01*
X101523411Y-121041830D01*
X104497514Y-121041830D01*
X104497514Y-121254404D01*
X104506093Y-121308572D01*
X104528043Y-121447160D01*
X104530768Y-121464360D01*
X104570613Y-121586991D01*
X104596458Y-121666531D01*
X104692965Y-121855937D01*
X104817904Y-122027903D01*
X104968227Y-122178226D01*
X105140193Y-122303165D01*
X105140195Y-122303166D01*
X105140198Y-122303168D01*
X105329602Y-122399674D01*
X105531771Y-122465363D01*
X105741727Y-122498617D01*
X105741728Y-122498617D01*
X105954300Y-122498617D01*
X105954301Y-122498617D01*
X106164257Y-122465363D01*
X106366426Y-122399674D01*
X106555830Y-122303168D01*
X106577803Y-122287203D01*
X106727800Y-122178226D01*
X106727802Y-122178223D01*
X106727806Y-122178221D01*
X106878118Y-122027909D01*
X106878120Y-122027905D01*
X106878123Y-122027903D01*
X106990789Y-121872829D01*
X107003065Y-121855933D01*
X107099571Y-121666529D01*
X107165260Y-121464360D01*
X107198514Y-121254404D01*
X107198514Y-121041830D01*
X107165260Y-120831874D01*
X107099571Y-120629705D01*
X107003065Y-120440301D01*
X107003063Y-120440298D01*
X107003062Y-120440296D01*
X106878123Y-120268330D01*
X106727800Y-120118007D01*
X106555834Y-119993068D01*
X106366428Y-119896561D01*
X106366427Y-119896560D01*
X106366426Y-119896560D01*
X106164257Y-119830871D01*
X106164255Y-119830870D01*
X106164254Y-119830870D01*
X106002971Y-119805325D01*
X105954301Y-119797617D01*
X105741727Y-119797617D01*
X105693056Y-119805325D01*
X105531774Y-119830870D01*
X105329599Y-119896561D01*
X105140193Y-119993068D01*
X104968227Y-120118007D01*
X104817904Y-120268330D01*
X104692965Y-120440296D01*
X104596458Y-120629702D01*
X104530767Y-120831877D01*
X104501468Y-121016866D01*
X104497514Y-121041830D01*
X101523411Y-121041830D01*
X101631062Y-120775384D01*
X101631062Y-120775378D01*
X101634096Y-120767871D01*
X101634193Y-120767577D01*
X101655464Y-120714943D01*
X101655464Y-120714942D01*
X101655466Y-120714938D01*
X101721146Y-120461051D01*
X101753121Y-120200763D01*
X101752854Y-120170039D01*
X101750846Y-119938533D01*
X101750846Y-119938528D01*
X101714359Y-119678834D01*
X101644284Y-119426125D01*
X101644283Y-119426122D01*
X101644282Y-119426119D01*
X101644281Y-119426116D01*
X101541821Y-119184727D01*
X101541816Y-119184718D01*
X101408725Y-118958771D01*
X101408722Y-118958767D01*
X101247266Y-118752117D01*
X101060216Y-118568311D01*
X100850772Y-118410495D01*
X100850769Y-118410493D01*
X100797712Y-118380478D01*
X100622520Y-118281369D01*
X100552424Y-118253052D01*
X98883330Y-117578693D01*
X98873494Y-117574211D01*
X98732792Y-117502531D01*
X98714460Y-117491077D01*
X98592638Y-117399287D01*
X98576573Y-117384824D01*
X98576560Y-117384810D01*
X98472543Y-117273274D01*
X98459244Y-117256253D01*
X98376154Y-117128312D01*
X98366015Y-117109243D01*
X98344369Y-117058250D01*
X98306412Y-116968831D01*
X98299735Y-116948282D01*
X98296496Y-116934253D01*
X98265422Y-116799660D01*
X98262415Y-116778256D01*
X98262415Y-116778248D01*
X98254433Y-116625930D01*
X98255187Y-116604342D01*
X98273780Y-116452944D01*
X98278274Y-116431806D01*
X98324346Y-116281126D01*
X98327940Y-116270977D01*
X98331949Y-116261057D01*
X98350767Y-116214487D01*
X98350767Y-116214484D01*
X98355230Y-116203439D01*
X98355241Y-116203405D01*
X98613865Y-115563288D01*
X100051672Y-115563288D01*
X100057523Y-115604923D01*
X100070013Y-115693789D01*
X100649186Y-117058235D01*
X100649185Y-117058235D01*
X100674081Y-117116884D01*
X100674083Y-117116888D01*
X100683021Y-117128328D01*
X100755218Y-117220735D01*
X100824941Y-117273276D01*
X100860465Y-117300045D01*
X111975091Y-121790644D01*
X111975104Y-121790651D01*
X111999997Y-121800708D01*
X112108860Y-121844691D01*
X112239662Y-121860752D01*
X112370163Y-121842411D01*
X112428546Y-121817629D01*
X112491472Y-121790919D01*
X112491472Y-121790918D01*
X112511423Y-121782450D01*
X112511652Y-121782351D01*
X113793261Y-121238341D01*
X113897108Y-121157206D01*
X113976418Y-121051959D01*
X114022344Y-120938287D01*
X114505891Y-119741467D01*
X117785367Y-119741467D01*
X117785367Y-119741468D01*
X117787529Y-119908568D01*
X117805413Y-119993066D01*
X117822130Y-120072056D01*
X117864041Y-120170039D01*
X117877180Y-120200758D01*
X117887850Y-120225702D01*
X117925239Y-120280375D01*
X117964090Y-120337188D01*
X117982182Y-120363643D01*
X118043421Y-120423665D01*
X118101524Y-120480615D01*
X118101526Y-120480616D01*
X118101527Y-120480617D01*
X118241334Y-120572162D01*
X118315435Y-120602081D01*
X118318812Y-120603445D01*
X118318812Y-120603446D01*
X118322371Y-120604883D01*
X118322391Y-120604899D01*
X118322394Y-120604893D01*
X121311910Y-121813272D01*
X121317607Y-121816000D01*
X121321699Y-121817626D01*
X121321702Y-121817629D01*
X121380719Y-121841090D01*
X121381357Y-121841344D01*
X121382019Y-121841610D01*
X121445357Y-121867212D01*
X121451599Y-121869253D01*
X121460305Y-121872717D01*
X121460591Y-121872831D01*
X121624937Y-121903202D01*
X121792052Y-121901044D01*
X121955560Y-121866439D01*
X122069664Y-121817629D01*
X122109216Y-121800710D01*
X122109217Y-121800709D01*
X122109220Y-121800708D01*
X122247170Y-121706359D01*
X122364147Y-121586991D01*
X122455686Y-121447160D01*
X122486187Y-121371588D01*
X122486215Y-121371553D01*
X122486204Y-121371549D01*
X122508210Y-121317083D01*
X122511648Y-121308575D01*
X122511648Y-121308572D01*
X122516116Y-121297517D01*
X122516118Y-121297506D01*
X122923158Y-120290050D01*
X122923158Y-120290044D01*
X122925194Y-120282176D01*
X122925956Y-120282373D01*
X122927540Y-120276184D01*
X122926746Y-120275955D01*
X122928433Y-120270104D01*
X122958802Y-120105769D01*
X122958802Y-120105762D01*
X122958803Y-120105759D01*
X122956644Y-119938641D01*
X122922037Y-119775131D01*
X122921395Y-119773631D01*
X122889169Y-119698300D01*
X122856302Y-119621469D01*
X122761949Y-119483519D01*
X122761947Y-119483517D01*
X122761945Y-119483514D01*
X122642583Y-119366547D01*
X122642580Y-119366545D01*
X122642578Y-119366543D01*
X122619001Y-119351109D01*
X125672789Y-119351109D01*
X125672789Y-119563683D01*
X125674920Y-119577137D01*
X125706041Y-119773631D01*
X125706043Y-119773639D01*
X125771731Y-119975806D01*
X125771733Y-119975810D01*
X125868240Y-120165216D01*
X125993179Y-120337182D01*
X126143502Y-120487505D01*
X126315468Y-120612444D01*
X126315470Y-120612445D01*
X126315473Y-120612447D01*
X126504877Y-120708953D01*
X126707046Y-120774642D01*
X126917002Y-120807896D01*
X126917003Y-120807896D01*
X127129575Y-120807896D01*
X127129576Y-120807896D01*
X127339532Y-120774642D01*
X127541701Y-120708953D01*
X127731105Y-120612447D01*
X127854840Y-120522549D01*
X127903075Y-120487505D01*
X127903077Y-120487502D01*
X127903081Y-120487500D01*
X128053393Y-120337188D01*
X128053395Y-120337184D01*
X128053398Y-120337182D01*
X128178337Y-120165216D01*
X128178336Y-120165216D01*
X128178340Y-120165212D01*
X128274846Y-119975808D01*
X128340535Y-119773639D01*
X128373789Y-119563683D01*
X128373789Y-119351109D01*
X128340535Y-119141153D01*
X128274846Y-118938984D01*
X128178340Y-118749580D01*
X128178338Y-118749577D01*
X128178337Y-118749575D01*
X128053398Y-118577609D01*
X127903075Y-118427286D01*
X127731109Y-118302347D01*
X127541703Y-118205840D01*
X127541702Y-118205839D01*
X127541701Y-118205839D01*
X127339532Y-118140150D01*
X127339530Y-118140149D01*
X127339529Y-118140149D01*
X127178246Y-118114604D01*
X127129576Y-118106896D01*
X126917002Y-118106896D01*
X126868331Y-118114604D01*
X126707049Y-118140149D01*
X126707046Y-118140150D01*
X126508026Y-118204816D01*
X126504874Y-118205840D01*
X126315468Y-118302347D01*
X126143502Y-118427286D01*
X125993179Y-118577609D01*
X125868240Y-118749575D01*
X125771733Y-118938981D01*
X125706042Y-119141156D01*
X125684843Y-119275004D01*
X125672789Y-119351109D01*
X122619001Y-119351109D01*
X122502742Y-119275005D01*
X122425856Y-119243974D01*
X122425861Y-119243960D01*
X122425785Y-119243945D01*
X122425250Y-119243729D01*
X122424905Y-119243589D01*
X122424851Y-119243546D01*
X122424844Y-119243565D01*
X119435243Y-118033076D01*
X119428453Y-118029822D01*
X119411443Y-118023063D01*
X119411383Y-118023016D01*
X119355607Y-118000829D01*
X119354905Y-118000547D01*
X119316373Y-117984946D01*
X119305664Y-117980610D01*
X119305662Y-117980609D01*
X119301373Y-117978873D01*
X119295934Y-117977092D01*
X119286106Y-117973183D01*
X119286104Y-117973182D01*
X119286103Y-117973182D01*
X119286101Y-117973181D01*
X119286099Y-117973181D01*
X119189784Y-117955396D01*
X119121749Y-117942834D01*
X119121748Y-117942834D01*
X119121739Y-117942833D01*
X118954636Y-117945013D01*
X118954632Y-117945013D01*
X118954631Y-117945014D01*
X118791126Y-117979640D01*
X118637468Y-118045390D01*
X118637466Y-118045391D01*
X118499531Y-118139753D01*
X118382559Y-118259140D01*
X118291034Y-118398976D01*
X118291033Y-118398976D01*
X118260370Y-118474964D01*
X118260364Y-118474981D01*
X118258295Y-118480106D01*
X118258285Y-118480130D01*
X118232915Y-118542935D01*
X118232912Y-118542943D01*
X117875204Y-119428535D01*
X117872547Y-119434088D01*
X117847185Y-119497898D01*
X117846930Y-119498535D01*
X117821322Y-119561937D01*
X117819245Y-119568290D01*
X117815727Y-119577133D01*
X117815726Y-119577134D01*
X117785367Y-119741467D01*
X114505891Y-119741467D01*
X116877086Y-113872552D01*
X121226925Y-113872552D01*
X121245265Y-114003050D01*
X121245267Y-114003058D01*
X121256921Y-114030513D01*
X121256922Y-114030513D01*
X121256922Y-114030514D01*
X121550248Y-114721545D01*
X121800161Y-115310303D01*
X121800160Y-115310303D01*
X121849333Y-115426146D01*
X121849336Y-115426152D01*
X121854291Y-115432494D01*
X121930471Y-115529999D01*
X122029897Y-115604923D01*
X122035718Y-115609309D01*
X133150344Y-120099908D01*
X133150357Y-120099915D01*
X133204852Y-120121932D01*
X133284113Y-120153955D01*
X133414915Y-120170016D01*
X133545416Y-120151675D01*
X133584502Y-120135084D01*
X133666725Y-120100183D01*
X133666725Y-120100182D01*
X133686611Y-120091742D01*
X133686908Y-120091613D01*
X134968514Y-119547605D01*
X135072361Y-119466470D01*
X135151671Y-119361223D01*
X135186505Y-119275005D01*
X139863223Y-107699720D01*
X139863225Y-107699718D01*
X139871713Y-107678707D01*
X139871715Y-107678707D01*
X139921082Y-107556518D01*
X139937143Y-107425716D01*
X139918802Y-107295214D01*
X139314732Y-105872116D01*
X139271493Y-105816773D01*
X139233598Y-105768269D01*
X139233596Y-105768267D01*
X139140419Y-105698054D01*
X139140419Y-105698053D01*
X139140414Y-105698050D01*
X139128353Y-105688961D01*
X139128352Y-105688960D01*
X139128350Y-105688959D01*
X139088642Y-105672916D01*
X139088641Y-105672915D01*
X129341015Y-101734619D01*
X132790290Y-101734619D01*
X132790290Y-101947192D01*
X132823540Y-102157128D01*
X132823544Y-102157149D01*
X132889227Y-102359301D01*
X132889234Y-102359320D01*
X132985741Y-102548726D01*
X133110680Y-102720692D01*
X133261003Y-102871015D01*
X133432969Y-102995954D01*
X133432971Y-102995955D01*
X133432974Y-102995957D01*
X133622378Y-103092463D01*
X133824547Y-103158152D01*
X134034503Y-103191406D01*
X134034504Y-103191406D01*
X134247076Y-103191406D01*
X134247077Y-103191406D01*
X134457033Y-103158152D01*
X134659202Y-103092463D01*
X134848606Y-102995957D01*
X134943021Y-102927361D01*
X135020576Y-102871015D01*
X135020578Y-102871012D01*
X135020582Y-102871010D01*
X135170894Y-102720698D01*
X135170896Y-102720694D01*
X135170899Y-102720692D01*
X135295838Y-102548726D01*
X135295837Y-102548726D01*
X135295841Y-102548722D01*
X135392347Y-102359318D01*
X135458036Y-102157149D01*
X135491290Y-101947193D01*
X135491290Y-101734619D01*
X135458036Y-101524663D01*
X135392347Y-101322494D01*
X135295841Y-101133090D01*
X135295839Y-101133087D01*
X135295838Y-101133085D01*
X135170899Y-100961119D01*
X135020576Y-100810796D01*
X134848610Y-100685857D01*
X134659204Y-100589350D01*
X134659203Y-100589349D01*
X134659202Y-100589349D01*
X134457033Y-100523660D01*
X134457031Y-100523659D01*
X134457030Y-100523659D01*
X134295747Y-100498114D01*
X134247077Y-100490406D01*
X134034503Y-100490406D01*
X133985832Y-100498114D01*
X133824550Y-100523659D01*
X133824547Y-100523660D01*
X133687582Y-100568163D01*
X133622375Y-100589350D01*
X133432969Y-100685857D01*
X133261003Y-100810796D01*
X133110680Y-100961119D01*
X132985741Y-101133085D01*
X132889234Y-101322491D01*
X132889233Y-101322493D01*
X132889233Y-101322494D01*
X132868838Y-101385262D01*
X132823543Y-101524666D01*
X132790290Y-101734619D01*
X129341015Y-101734619D01*
X127879956Y-101144313D01*
X127749154Y-101128252D01*
X127749153Y-101128252D01*
X127749152Y-101128252D01*
X127746153Y-101128673D01*
X127730812Y-101130829D01*
X127730809Y-101130829D01*
X127618655Y-101146592D01*
X127618648Y-101146594D01*
X127499727Y-101197071D01*
X127499614Y-101197121D01*
X127497344Y-101198085D01*
X127497341Y-101198086D01*
X126642932Y-101560762D01*
X126316862Y-101699171D01*
X126195555Y-101750662D01*
X126166483Y-101773375D01*
X126091707Y-101831797D01*
X126091706Y-101831798D01*
X126091703Y-101831801D01*
X126029895Y-101913822D01*
X126029895Y-101913824D01*
X126016862Y-101931120D01*
X126012397Y-101937045D01*
X121242986Y-113741748D01*
X121242983Y-113741773D01*
X121228047Y-113863418D01*
X121226925Y-113872552D01*
X116877086Y-113872552D01*
X118687970Y-109390456D01*
X118687972Y-109390454D01*
X118696460Y-109369443D01*
X118696462Y-109369443D01*
X118745829Y-109247254D01*
X118761890Y-109116452D01*
X118743549Y-108985950D01*
X118139479Y-107562852D01*
X118139477Y-107562850D01*
X118139475Y-107562845D01*
X118098609Y-107510541D01*
X118098607Y-107510539D01*
X118058345Y-107459005D01*
X118041153Y-107446050D01*
X117953097Y-107379695D01*
X117941543Y-107375027D01*
X108165732Y-103425343D01*
X111615032Y-103425343D01*
X111615032Y-103637916D01*
X111639644Y-103793314D01*
X111648286Y-103847873D01*
X111713757Y-104049372D01*
X111713976Y-104050044D01*
X111810483Y-104239450D01*
X111935422Y-104411416D01*
X112085745Y-104561739D01*
X112257711Y-104686678D01*
X112257713Y-104686679D01*
X112257716Y-104686681D01*
X112447120Y-104783187D01*
X112649289Y-104848876D01*
X112859245Y-104882130D01*
X112859246Y-104882130D01*
X113071818Y-104882130D01*
X113071819Y-104882130D01*
X113281775Y-104848876D01*
X113483944Y-104783187D01*
X113673348Y-104686681D01*
X113732138Y-104643968D01*
X113845318Y-104561739D01*
X113845320Y-104561736D01*
X113845324Y-104561734D01*
X113995636Y-104411422D01*
X113995638Y-104411418D01*
X113995641Y-104411416D01*
X114117073Y-104244277D01*
X114120583Y-104239446D01*
X114217089Y-104050042D01*
X114282778Y-103847873D01*
X114316032Y-103637917D01*
X114316032Y-103425343D01*
X114282778Y-103215387D01*
X114217089Y-103013218D01*
X114120583Y-102823814D01*
X114120581Y-102823811D01*
X114120580Y-102823809D01*
X113995641Y-102651843D01*
X113845318Y-102501520D01*
X113673352Y-102376581D01*
X113483946Y-102280074D01*
X113483945Y-102280073D01*
X113483944Y-102280073D01*
X113281775Y-102214384D01*
X113281773Y-102214383D01*
X113281772Y-102214383D01*
X113120489Y-102188838D01*
X113071819Y-102181130D01*
X112859245Y-102181130D01*
X112810574Y-102188838D01*
X112649292Y-102214383D01*
X112447117Y-102280074D01*
X112257711Y-102376581D01*
X112085745Y-102501520D01*
X111935422Y-102651843D01*
X111810483Y-102823809D01*
X111713976Y-103013215D01*
X111648285Y-103215390D01*
X111615032Y-103425343D01*
X108165732Y-103425343D01*
X106704703Y-102835049D01*
X106573901Y-102818988D01*
X106573900Y-102818988D01*
X106573899Y-102818988D01*
X106570900Y-102819409D01*
X106555559Y-102821565D01*
X106555556Y-102821565D01*
X106443402Y-102837328D01*
X106443395Y-102837330D01*
X106324474Y-102887807D01*
X106324361Y-102887857D01*
X106322091Y-102888821D01*
X106322088Y-102888822D01*
X105146966Y-103387633D01*
X105141609Y-103389907D01*
X105020300Y-103441399D01*
X105020295Y-103441402D01*
X104938116Y-103505609D01*
X104928885Y-103512821D01*
X104916453Y-103522534D01*
X104863447Y-103592877D01*
X104856367Y-103602272D01*
X104856365Y-103602274D01*
X104837145Y-103627778D01*
X100070284Y-115426172D01*
X100070283Y-115426175D01*
X100067733Y-115432484D01*
X100067733Y-115432485D01*
X100067733Y-115432486D01*
X100052794Y-115554154D01*
X100051672Y-115563288D01*
X98613865Y-115563288D01*
X98953593Y-114722430D01*
X98953615Y-114722387D01*
X98956984Y-114714045D01*
X98956986Y-114714044D01*
X98981667Y-114652949D01*
X98981666Y-114652948D01*
X98990395Y-114631342D01*
X99006341Y-114591877D01*
X99006341Y-114591874D01*
X99009242Y-114584695D01*
X99009508Y-114583886D01*
X99030728Y-114531361D01*
X99096374Y-114277485D01*
X99128324Y-114017213D01*
X99126031Y-113754997D01*
X99089534Y-113495324D01*
X99019460Y-113242642D01*
X99019459Y-113242636D01*
X98917029Y-113001319D01*
X98917001Y-113001253D01*
X98783916Y-112775309D01*
X98622481Y-112568667D01*
X98435456Y-112384862D01*
X98226127Y-112227103D01*
X98226041Y-112227038D01*
X98226037Y-112227036D01*
X97997818Y-112097898D01*
X97997811Y-112097894D01*
X97944819Y-112076480D01*
X97944741Y-112076443D01*
X97876258Y-112048774D01*
X97876258Y-112048772D01*
X97876248Y-112048770D01*
X97808673Y-112021462D01*
X97808593Y-112021435D01*
X82637763Y-105892005D01*
X82637762Y-105892004D01*
X82636676Y-105891566D01*
X82636596Y-105891534D01*
X82573250Y-105865889D01*
X82310570Y-105799167D01*
X82310564Y-105799166D01*
X82310565Y-105799166D01*
X82041295Y-105768478D01*
X82041293Y-105768478D01*
X81950974Y-105770446D01*
X81770332Y-105774382D01*
X81502657Y-105816771D01*
X81243123Y-105894876D01*
X80996516Y-106007256D01*
X80996508Y-106007260D01*
X80767300Y-106151875D01*
X80767295Y-106151879D01*
X80559683Y-106326083D01*
X80559681Y-106326085D01*
X80377450Y-106526704D01*
X80223948Y-106750051D01*
X80223943Y-106750059D01*
X80101963Y-106992061D01*
X80101959Y-106992072D01*
X80080137Y-107055586D01*
X80057928Y-107120228D01*
X80056977Y-107122991D01*
X79350439Y-109174945D01*
X79346466Y-109185030D01*
X79282187Y-109329336D01*
X79271708Y-109348233D01*
X79186396Y-109474680D01*
X79172796Y-109491472D01*
X79066824Y-109601193D01*
X79050513Y-109615370D01*
X78927099Y-109705028D01*
X78908577Y-109716157D01*
X78771475Y-109783028D01*
X78751302Y-109790772D01*
X78604668Y-109832828D01*
X78583456Y-109836953D01*
X78431758Y-109852913D01*
X78410152Y-109853293D01*
X78404706Y-109852913D01*
X78334066Y-109847983D01*
X78257980Y-109842673D01*
X78236637Y-109839297D01*
X78227228Y-109836953D01*
X78210671Y-109832828D01*
X78083599Y-109801170D01*
X78073230Y-109798101D01*
X78040415Y-109786810D01*
X78040416Y-109786805D01*
X78040389Y-109786801D01*
X64512650Y-105128827D01*
X63333388Y-104722774D01*
X63323292Y-104718796D01*
X63178988Y-104654499D01*
X63160098Y-104644023D01*
X63033638Y-104558687D01*
X63016866Y-104545101D01*
X62907134Y-104439105D01*
X62892966Y-104422802D01*
X62803306Y-104299380D01*
X62792178Y-104280860D01*
X62725303Y-104143748D01*
X62717563Y-104123589D01*
X62675498Y-103976936D01*
X62671376Y-103955742D01*
X62655407Y-103804024D01*
X62655026Y-103782423D01*
X62656087Y-103767195D01*
X62665633Y-103630234D01*
X62669003Y-103608917D01*
X62707108Y-103455891D01*
X62710182Y-103445511D01*
X62984474Y-102648902D01*
X64394406Y-102648902D01*
X64399357Y-102674369D01*
X64402483Y-102690452D01*
X64402483Y-102690453D01*
X64419551Y-102778262D01*
X64419552Y-102778264D01*
X65039501Y-104049349D01*
X65039502Y-104049351D01*
X65058759Y-104088833D01*
X65097271Y-104167797D01*
X65115189Y-104188409D01*
X65183731Y-104267257D01*
X65292985Y-104340950D01*
X65292986Y-104340950D01*
X65292987Y-104340951D01*
X74310853Y-107446050D01*
X76616242Y-108239859D01*
X76625841Y-108243164D01*
X76625857Y-108243172D01*
X76763810Y-108290672D01*
X76763813Y-108290673D01*
X76895276Y-108299866D01*
X77024639Y-108274720D01*
X78283026Y-107660961D01*
X78283033Y-107660959D01*
X78414170Y-107597000D01*
X78414171Y-107596998D01*
X78414173Y-107596998D01*
X78513631Y-107510540D01*
X78587324Y-107401286D01*
X78606978Y-107344208D01*
X78610934Y-107332718D01*
X78633582Y-107266944D01*
X78633582Y-107266940D01*
X79744139Y-104041646D01*
X84214553Y-104041646D01*
X84232282Y-104167797D01*
X84232894Y-104172147D01*
X84270670Y-104261143D01*
X84813901Y-105540912D01*
X84836964Y-105595246D01*
X84918099Y-105699093D01*
X85023346Y-105778403D01*
X96137972Y-110269002D01*
X96137985Y-110269009D01*
X96161457Y-110278492D01*
X96271741Y-110323049D01*
X96402543Y-110339110D01*
X96533044Y-110320769D01*
X96573030Y-110303796D01*
X96654353Y-110269277D01*
X96654353Y-110269276D01*
X96674239Y-110260836D01*
X96674536Y-110260707D01*
X97956142Y-109716699D01*
X98059989Y-109635564D01*
X98139299Y-109530317D01*
X98149106Y-109506043D01*
X102819347Y-97946790D01*
X107169212Y-97946790D01*
X107187553Y-98077292D01*
X107749595Y-99401379D01*
X107749594Y-99401379D01*
X107791620Y-99500385D01*
X107791623Y-99500391D01*
X107791639Y-99500411D01*
X107872758Y-99604238D01*
X107911544Y-99633466D01*
X107978005Y-99683548D01*
X119092631Y-104174147D01*
X119092644Y-104174154D01*
X119153270Y-104198648D01*
X119226400Y-104228194D01*
X119357202Y-104244255D01*
X119487703Y-104225914D01*
X119520770Y-104211878D01*
X119609012Y-104174422D01*
X119609012Y-104174421D01*
X119628963Y-104165953D01*
X119629192Y-104165854D01*
X120910801Y-103621844D01*
X121014648Y-103540709D01*
X121093958Y-103435462D01*
X121113282Y-103387633D01*
X123994621Y-96256067D01*
X128344452Y-96256067D01*
X128350748Y-96300868D01*
X128362793Y-96386568D01*
X128411053Y-96500263D01*
X128963624Y-97802037D01*
X128966863Y-97809667D01*
X129047998Y-97913514D01*
X129092185Y-97946812D01*
X129153245Y-97992824D01*
X140267871Y-102483423D01*
X140267884Y-102483430D01*
X140328510Y-102507924D01*
X140401640Y-102537470D01*
X140532442Y-102553531D01*
X140662943Y-102535190D01*
X140784252Y-102483698D01*
X140784252Y-102483697D01*
X140804203Y-102475229D01*
X140804432Y-102475130D01*
X142086041Y-101931120D01*
X142189888Y-101849985D01*
X142269198Y-101744738D01*
X142289334Y-101694899D01*
X146980750Y-90083235D01*
X146980752Y-90083233D01*
X146989240Y-90062222D01*
X146989242Y-90062222D01*
X147038609Y-89940033D01*
X147054670Y-89809231D01*
X147036329Y-89678729D01*
X146432259Y-88255631D01*
X146432257Y-88255628D01*
X146432255Y-88255625D01*
X146395823Y-88208994D01*
X146395819Y-88208991D01*
X146359031Y-88161904D01*
X146351125Y-88151784D01*
X146351124Y-88151783D01*
X146351123Y-88151782D01*
X146291988Y-88107221D01*
X146245877Y-88072474D01*
X134997483Y-83527828D01*
X134866681Y-83511767D01*
X134866680Y-83511767D01*
X134866679Y-83511767D01*
X134863680Y-83512188D01*
X134848339Y-83514344D01*
X134848336Y-83514344D01*
X134736182Y-83530107D01*
X134736175Y-83530109D01*
X134617254Y-83580586D01*
X134617141Y-83580636D01*
X134614871Y-83581600D01*
X134614868Y-83581601D01*
X134248268Y-83737214D01*
X133434389Y-84082686D01*
X133313082Y-84134177D01*
X133313081Y-84134178D01*
X133209234Y-84215312D01*
X133209233Y-84215313D01*
X133209232Y-84215314D01*
X133129924Y-84320559D01*
X133129924Y-84320560D01*
X128360513Y-96125263D01*
X128352482Y-96190665D01*
X128345574Y-96246933D01*
X128344452Y-96256067D01*
X123994621Y-96256067D01*
X125805510Y-91773959D01*
X125805512Y-91773957D01*
X125814000Y-91752946D01*
X125814002Y-91752946D01*
X125863369Y-91630757D01*
X125879430Y-91499955D01*
X125861089Y-91369453D01*
X125257019Y-89946355D01*
X125239878Y-89924416D01*
X125239878Y-89924415D01*
X125175886Y-89842509D01*
X125175880Y-89842503D01*
X125127398Y-89805970D01*
X125127397Y-89805970D01*
X125070637Y-89763198D01*
X125038206Y-89750095D01*
X125038205Y-89750094D01*
X115283302Y-85808858D01*
X118732554Y-85808858D01*
X118732554Y-85808859D01*
X118732554Y-86021433D01*
X118732555Y-86021437D01*
X118761303Y-86202950D01*
X118765808Y-86231389D01*
X118828760Y-86425135D01*
X118831498Y-86433560D01*
X118928005Y-86622966D01*
X119052944Y-86794932D01*
X119203267Y-86945255D01*
X119375233Y-87070194D01*
X119375235Y-87070195D01*
X119375238Y-87070197D01*
X119564642Y-87166703D01*
X119766811Y-87232392D01*
X119976767Y-87265646D01*
X119976768Y-87265646D01*
X120189340Y-87265646D01*
X120189341Y-87265646D01*
X120399297Y-87232392D01*
X120601466Y-87166703D01*
X120790870Y-87070197D01*
X120824111Y-87046046D01*
X120962840Y-86945255D01*
X120962842Y-86945252D01*
X120962846Y-86945250D01*
X121113158Y-86794938D01*
X121113160Y-86794934D01*
X121113163Y-86794932D01*
X121226033Y-86639578D01*
X121238105Y-86622962D01*
X121334611Y-86433558D01*
X121400300Y-86231389D01*
X121433554Y-86021433D01*
X121433554Y-85808859D01*
X121400300Y-85598903D01*
X121334611Y-85396734D01*
X121238105Y-85207330D01*
X121238103Y-85207327D01*
X121238102Y-85207325D01*
X121113163Y-85035359D01*
X120962840Y-84885036D01*
X120790874Y-84760097D01*
X120601468Y-84663590D01*
X120601467Y-84663589D01*
X120601466Y-84663589D01*
X120399297Y-84597900D01*
X120399295Y-84597899D01*
X120399294Y-84597899D01*
X120238011Y-84572354D01*
X120189341Y-84564646D01*
X119976767Y-84564646D01*
X119928096Y-84572354D01*
X119766814Y-84597899D01*
X119564639Y-84663590D01*
X119375233Y-84760097D01*
X119203267Y-84885036D01*
X119052944Y-85035359D01*
X118928005Y-85207325D01*
X118831498Y-85396731D01*
X118765807Y-85598906D01*
X118732554Y-85808858D01*
X115283302Y-85808858D01*
X113822243Y-85218552D01*
X113691441Y-85202491D01*
X113691440Y-85202491D01*
X113691439Y-85202491D01*
X113688440Y-85202912D01*
X113673099Y-85205068D01*
X113673096Y-85205068D01*
X113560942Y-85220831D01*
X113560935Y-85220833D01*
X113442014Y-85271310D01*
X113441901Y-85271360D01*
X113439631Y-85272324D01*
X113439628Y-85272325D01*
X112259151Y-85773409D01*
X112259149Y-85773410D01*
X112137842Y-85824901D01*
X112033993Y-85906037D01*
X112033990Y-85906040D01*
X111996989Y-85955143D01*
X111996988Y-85955142D01*
X111954686Y-86011279D01*
X111954684Y-86011284D01*
X107187827Y-97809667D01*
X107185273Y-97815988D01*
X107180430Y-97855431D01*
X107169212Y-97946790D01*
X102819347Y-97946790D01*
X102850851Y-97868814D01*
X102850853Y-97868812D01*
X102859341Y-97847801D01*
X102859343Y-97847801D01*
X102908710Y-97725612D01*
X102924771Y-97594810D01*
X102906430Y-97464308D01*
X102302360Y-96041210D01*
X102272580Y-96003093D01*
X102221226Y-95937363D01*
X102115978Y-95858053D01*
X92328596Y-91903694D01*
X95777925Y-91903694D01*
X95777925Y-92116268D01*
X95811179Y-92326224D01*
X95855205Y-92461722D01*
X95876869Y-92528395D01*
X95973376Y-92717801D01*
X96098315Y-92889767D01*
X96248638Y-93040090D01*
X96420604Y-93165029D01*
X96420606Y-93165030D01*
X96420609Y-93165032D01*
X96610013Y-93261538D01*
X96812182Y-93327227D01*
X97022138Y-93360481D01*
X97022139Y-93360481D01*
X97234711Y-93360481D01*
X97234712Y-93360481D01*
X97444668Y-93327227D01*
X97646837Y-93261538D01*
X97836241Y-93165032D01*
X97858214Y-93149067D01*
X98008211Y-93040090D01*
X98008213Y-93040087D01*
X98008217Y-93040085D01*
X98158529Y-92889773D01*
X98158531Y-92889769D01*
X98158534Y-92889767D01*
X98281741Y-92720185D01*
X98283476Y-92717797D01*
X98379982Y-92528393D01*
X98445671Y-92326224D01*
X98478925Y-92116268D01*
X98478925Y-91903694D01*
X98445671Y-91693738D01*
X98379982Y-91491569D01*
X98283476Y-91302165D01*
X98283474Y-91302162D01*
X98283473Y-91302160D01*
X98158534Y-91130194D01*
X98008211Y-90979871D01*
X97836245Y-90854932D01*
X97646839Y-90758425D01*
X97646838Y-90758424D01*
X97646837Y-90758424D01*
X97444668Y-90692735D01*
X97444666Y-90692734D01*
X97444665Y-90692734D01*
X97273819Y-90665675D01*
X97234712Y-90659481D01*
X97022138Y-90659481D01*
X96983031Y-90665675D01*
X96812185Y-90692734D01*
X96610010Y-90758425D01*
X96420604Y-90854932D01*
X96248638Y-90979871D01*
X96098315Y-91130194D01*
X95973376Y-91302160D01*
X95876869Y-91491566D01*
X95811178Y-91693741D01*
X95783537Y-91868264D01*
X95777925Y-91903694D01*
X92328596Y-91903694D01*
X90867584Y-91313407D01*
X90736782Y-91297346D01*
X90736781Y-91297346D01*
X90736780Y-91297346D01*
X90733781Y-91297767D01*
X90718440Y-91299923D01*
X90718437Y-91299923D01*
X90606283Y-91315686D01*
X90606276Y-91315688D01*
X90487355Y-91366165D01*
X90487242Y-91366215D01*
X90484972Y-91367179D01*
X90484969Y-91367180D01*
X89526665Y-91773957D01*
X89304490Y-91868265D01*
X89183181Y-91919757D01*
X89183169Y-91919767D01*
X89087312Y-91994657D01*
X89087313Y-91994658D01*
X89079334Y-92000892D01*
X89060943Y-92025298D01*
X89000025Y-92106139D01*
X84231066Y-103909725D01*
X84230614Y-103910843D01*
X84215675Y-104032512D01*
X84214553Y-104041646D01*
X79744139Y-104041646D01*
X82684878Y-95501115D01*
X82684886Y-95501100D01*
X82732379Y-95363171D01*
X82732387Y-95363148D01*
X82741580Y-95231685D01*
X82731353Y-95179075D01*
X82716434Y-95102322D01*
X82658663Y-94983874D01*
X82514627Y-94688556D01*
X82102679Y-93843937D01*
X82102678Y-93843933D01*
X82038715Y-93712789D01*
X82014210Y-93684600D01*
X81952255Y-93613329D01*
X81843002Y-93539636D01*
X81842999Y-93539635D01*
X81842998Y-93539634D01*
X81722274Y-93498066D01*
X81722259Y-93498060D01*
X71132085Y-89851572D01*
X75310383Y-89851572D01*
X75310383Y-90064146D01*
X75310388Y-90064175D01*
X75335992Y-90225838D01*
X75343637Y-90274102D01*
X75372602Y-90363248D01*
X75409327Y-90476273D01*
X75505834Y-90665679D01*
X75630773Y-90837645D01*
X75781096Y-90987968D01*
X75953062Y-91112907D01*
X75953064Y-91112908D01*
X75953067Y-91112910D01*
X76142471Y-91209416D01*
X76344640Y-91275105D01*
X76554596Y-91308359D01*
X76554597Y-91308359D01*
X76767169Y-91308359D01*
X76767170Y-91308359D01*
X76977126Y-91275105D01*
X77179295Y-91209416D01*
X77368699Y-91112910D01*
X77436686Y-91063515D01*
X77540669Y-90987968D01*
X77540671Y-90987965D01*
X77540675Y-90987963D01*
X77690987Y-90837651D01*
X77690989Y-90837647D01*
X77690992Y-90837645D01*
X77815931Y-90665679D01*
X77815930Y-90665679D01*
X77815934Y-90665675D01*
X77912440Y-90476271D01*
X77978129Y-90274102D01*
X78011383Y-90064146D01*
X78011383Y-89851572D01*
X77978129Y-89641616D01*
X77912440Y-89439447D01*
X77815934Y-89250043D01*
X77815932Y-89250040D01*
X77815931Y-89250038D01*
X77690992Y-89078072D01*
X77540669Y-88927749D01*
X77368703Y-88802810D01*
X77179297Y-88706303D01*
X77179296Y-88706302D01*
X77179295Y-88706302D01*
X76977126Y-88640613D01*
X76977124Y-88640612D01*
X76977123Y-88640612D01*
X76815840Y-88615067D01*
X76767170Y-88607359D01*
X76554596Y-88607359D01*
X76505925Y-88615067D01*
X76344643Y-88640612D01*
X76142468Y-88706303D01*
X75953062Y-88802810D01*
X75781096Y-88927749D01*
X75630773Y-89078072D01*
X75505834Y-89250038D01*
X75409327Y-89439444D01*
X75343636Y-89641619D01*
X75317089Y-89809231D01*
X75310383Y-89851572D01*
X71132085Y-89851572D01*
X70510142Y-89637420D01*
X70510131Y-89637415D01*
X70372175Y-89589913D01*
X70372172Y-89589912D01*
X70308823Y-89585483D01*
X70240709Y-89580719D01*
X70176027Y-89593292D01*
X70132400Y-89601773D01*
X70132398Y-89601773D01*
X70111344Y-89605866D01*
X68831008Y-90230328D01*
X68830994Y-90230336D01*
X68721817Y-90283585D01*
X68721816Y-90283585D01*
X68622355Y-90370044D01*
X68548663Y-90479297D01*
X68548660Y-90479302D01*
X64633416Y-101850000D01*
X64446505Y-102392830D01*
X64446504Y-102392833D01*
X64403599Y-102517438D01*
X64398860Y-102585212D01*
X64398860Y-102585213D01*
X64394407Y-102648894D01*
X64394406Y-102648902D01*
X62984474Y-102648902D01*
X63461234Y-101264280D01*
X63461302Y-101264122D01*
X63484020Y-101198108D01*
X63485508Y-101193785D01*
X63485507Y-101193784D01*
X63487231Y-101188775D01*
X63501937Y-101146067D01*
X63501949Y-101146050D01*
X63501944Y-101146048D01*
X63506409Y-101133090D01*
X63527111Y-101073009D01*
X63578854Y-100822824D01*
X63598360Y-100568090D01*
X63585312Y-100312943D01*
X63539922Y-100061528D01*
X63462927Y-99817926D01*
X63400712Y-99683568D01*
X63355578Y-99586096D01*
X63355494Y-99585963D01*
X63239469Y-99401379D01*
X63219621Y-99369803D01*
X63219614Y-99369794D01*
X63057253Y-99172546D01*
X62871120Y-98997544D01*
X62664239Y-98847632D01*
X62439993Y-98725258D01*
X62439988Y-98725255D01*
X62439985Y-98725254D01*
X62201981Y-98632386D01*
X62201971Y-98632382D01*
X62201972Y-98632382D01*
X62078031Y-98601506D01*
X62077986Y-98601495D01*
X62006862Y-98583748D01*
X62006655Y-98583709D01*
X46703859Y-94768294D01*
X46638144Y-94751909D01*
X46627773Y-94748836D01*
X46541089Y-94718981D01*
X46478415Y-94697395D01*
X46458674Y-94688604D01*
X46325270Y-94614648D01*
X46307352Y-94602560D01*
X46188816Y-94506562D01*
X46173271Y-94491550D01*
X46130252Y-94442060D01*
X46073201Y-94376428D01*
X46060503Y-94358951D01*
X45981941Y-94228200D01*
X45972469Y-94208779D01*
X45971459Y-94206149D01*
X45951429Y-94153970D01*
X45917803Y-94066372D01*
X45911846Y-94045598D01*
X45911796Y-94045343D01*
X45882737Y-93895872D01*
X45880478Y-93874381D01*
X45879723Y-93831235D01*
X45877808Y-93721864D01*
X45879313Y-93700324D01*
X45904031Y-93544194D01*
X45906179Y-93533638D01*
X46173437Y-92461723D01*
X47512190Y-92461723D01*
X47514491Y-92593485D01*
X47514492Y-92593491D01*
X47550815Y-92720164D01*
X47818119Y-93165032D01*
X48347064Y-94045343D01*
X48441861Y-94136888D01*
X48441863Y-94136889D01*
X48557122Y-94200778D01*
X48716638Y-94240551D01*
X48716670Y-94240557D01*
X60320140Y-97133628D01*
X60335694Y-97138682D01*
X60344379Y-97139672D01*
X60348003Y-97140575D01*
X60360789Y-97135504D01*
X60370001Y-97134999D01*
X60460305Y-97133423D01*
X60586984Y-97097098D01*
X61880473Y-96319891D01*
X61912162Y-96300850D01*
X62003707Y-96206053D01*
X62067597Y-96090792D01*
X62089467Y-96003076D01*
X62099479Y-95962922D01*
X62099478Y-95962920D01*
X62104843Y-95941405D01*
X62104843Y-95941402D01*
X64911617Y-84684053D01*
X70580179Y-84684053D01*
X70580681Y-84688022D01*
X70581717Y-84691965D01*
X70605325Y-84813414D01*
X70605326Y-84813419D01*
X71186670Y-86005350D01*
X71225274Y-86084500D01*
X71225275Y-86084502D01*
X71244532Y-86123984D01*
X71283044Y-86202948D01*
X71283050Y-86202955D01*
X71369504Y-86302408D01*
X71478758Y-86376101D01*
X71478759Y-86376101D01*
X71478760Y-86376102D01*
X80375439Y-89439473D01*
X82799378Y-90274102D01*
X82811614Y-90278315D01*
X82811630Y-90278323D01*
X82949583Y-90325823D01*
X82949586Y-90325824D01*
X83081049Y-90335017D01*
X83210412Y-90309871D01*
X84468799Y-89696112D01*
X84468806Y-89696110D01*
X84599943Y-89632151D01*
X84599944Y-89632149D01*
X84599946Y-89632149D01*
X84699404Y-89545691D01*
X84773097Y-89436437D01*
X84782139Y-89410178D01*
X84819355Y-89302095D01*
X84819355Y-89302091D01*
X85809969Y-86425136D01*
X91332078Y-86425136D01*
X91349526Y-86549288D01*
X91350419Y-86555637D01*
X91910423Y-87874923D01*
X91910422Y-87874923D01*
X91951250Y-87971106D01*
X91954489Y-87978736D01*
X91955297Y-87979770D01*
X92035624Y-88082583D01*
X92127478Y-88151801D01*
X92140871Y-88161893D01*
X103255497Y-92652492D01*
X103255510Y-92652499D01*
X103316136Y-92676993D01*
X103389266Y-92706539D01*
X103520068Y-92722600D01*
X103606523Y-92710449D01*
X103650565Y-92704260D01*
X103650566Y-92704259D01*
X103650569Y-92704259D01*
X103651448Y-92703886D01*
X103771878Y-92652767D01*
X103771878Y-92652766D01*
X103791829Y-92644298D01*
X103792058Y-92644199D01*
X105073667Y-92100189D01*
X105177514Y-92019054D01*
X105256824Y-91913807D01*
X105279285Y-91858213D01*
X109936864Y-80330298D01*
X114286704Y-80330298D01*
X114290252Y-80355546D01*
X114305045Y-80460799D01*
X114863930Y-81777449D01*
X114863929Y-81777449D01*
X114909112Y-81883892D01*
X114909115Y-81883898D01*
X114973462Y-81966258D01*
X114990250Y-81987745D01*
X115088852Y-82062048D01*
X115095497Y-82067055D01*
X126210123Y-86557654D01*
X126210136Y-86557661D01*
X126270762Y-86582155D01*
X126343892Y-86611701D01*
X126474694Y-86627762D01*
X126605195Y-86609421D01*
X126726504Y-86557929D01*
X126726504Y-86557928D01*
X126746455Y-86549460D01*
X126746684Y-86549361D01*
X128028293Y-86005351D01*
X128132140Y-85924216D01*
X128211450Y-85818969D01*
X128233602Y-85764140D01*
X132923002Y-74157466D01*
X132923004Y-74157464D01*
X132931492Y-74136453D01*
X132931494Y-74136453D01*
X132980861Y-74014264D01*
X132996922Y-73883462D01*
X132978581Y-73752960D01*
X132374511Y-72329862D01*
X132335500Y-72279930D01*
X132293377Y-72226015D01*
X132285921Y-72220397D01*
X132285920Y-72220395D01*
X132285920Y-72220396D01*
X132188131Y-72146706D01*
X132188129Y-72146705D01*
X132183684Y-72144909D01*
X120939735Y-67602059D01*
X120808933Y-67585998D01*
X120808932Y-67585998D01*
X120808931Y-67585998D01*
X120805932Y-67586419D01*
X120790591Y-67588575D01*
X120790588Y-67588575D01*
X120678434Y-67604338D01*
X120678427Y-67604340D01*
X120559506Y-67654817D01*
X120559393Y-67654867D01*
X120557123Y-67655831D01*
X120557120Y-67655832D01*
X119376643Y-68156916D01*
X119376641Y-68156917D01*
X119255334Y-68208408D01*
X119151485Y-68289544D01*
X119151482Y-68289547D01*
X119091399Y-68369279D01*
X119091400Y-68369280D01*
X119072176Y-68394791D01*
X114347664Y-80088363D01*
X114347661Y-80088373D01*
X114344633Y-80095869D01*
X114344630Y-80095876D01*
X114303006Y-80198900D01*
X114302994Y-80198929D01*
X114302765Y-80199493D01*
X114300426Y-80218546D01*
X114287826Y-80321164D01*
X114286704Y-80330298D01*
X109936864Y-80330298D01*
X109968376Y-80252304D01*
X109968378Y-80252302D01*
X109976866Y-80231291D01*
X109976868Y-80231291D01*
X110026235Y-80109102D01*
X110042296Y-79978300D01*
X110023955Y-79847798D01*
X109419885Y-78424700D01*
X109371868Y-78363241D01*
X109338751Y-78320853D01*
X109338749Y-78320851D01*
X109297130Y-78289489D01*
X109233503Y-78241543D01*
X99446170Y-74287204D01*
X102895451Y-74287204D01*
X102895451Y-74499777D01*
X102928702Y-74709720D01*
X102928705Y-74709734D01*
X102994391Y-74911895D01*
X102994395Y-74911905D01*
X103090902Y-75101311D01*
X103215841Y-75273277D01*
X103366164Y-75423600D01*
X103538130Y-75548539D01*
X103538132Y-75548540D01*
X103538135Y-75548542D01*
X103727539Y-75645048D01*
X103929708Y-75710737D01*
X104139664Y-75743991D01*
X104139665Y-75743991D01*
X104352237Y-75743991D01*
X104352238Y-75743991D01*
X104562194Y-75710737D01*
X104764363Y-75645048D01*
X104953767Y-75548542D01*
X105025038Y-75496761D01*
X105125737Y-75423600D01*
X105125739Y-75423597D01*
X105125743Y-75423595D01*
X105276055Y-75273283D01*
X105276057Y-75273279D01*
X105276060Y-75273277D01*
X105397501Y-75106126D01*
X105401002Y-75101307D01*
X105497508Y-74911903D01*
X105563197Y-74709734D01*
X105596451Y-74499778D01*
X105596451Y-74287204D01*
X105563197Y-74077248D01*
X105497508Y-73875079D01*
X105401002Y-73685675D01*
X105401000Y-73685672D01*
X105400999Y-73685670D01*
X105276060Y-73513704D01*
X105125737Y-73363381D01*
X104953771Y-73238442D01*
X104764365Y-73141935D01*
X104764364Y-73141934D01*
X104764363Y-73141934D01*
X104562194Y-73076245D01*
X104562192Y-73076244D01*
X104562191Y-73076244D01*
X104400908Y-73050699D01*
X104352238Y-73042991D01*
X104139664Y-73042991D01*
X104090993Y-73050699D01*
X103929711Y-73076244D01*
X103727536Y-73141935D01*
X103538130Y-73238442D01*
X103366164Y-73363381D01*
X103215841Y-73513704D01*
X103090902Y-73685670D01*
X102994395Y-73875076D01*
X102928704Y-74077251D01*
X102895451Y-74287204D01*
X99446170Y-74287204D01*
X97985109Y-73696897D01*
X97854307Y-73680836D01*
X97854306Y-73680836D01*
X97854305Y-73680836D01*
X97854213Y-73680849D01*
X97835965Y-73683413D01*
X97835962Y-73683413D01*
X97723808Y-73699176D01*
X97723801Y-73699178D01*
X97604880Y-73749655D01*
X97604767Y-73749705D01*
X97602497Y-73750669D01*
X97602494Y-73750670D01*
X96422017Y-74251754D01*
X96422015Y-74251755D01*
X96300706Y-74303247D01*
X96300701Y-74303250D01*
X96206808Y-74376609D01*
X96206807Y-74376610D01*
X96196860Y-74384380D01*
X96196859Y-74384382D01*
X96183153Y-74402571D01*
X96117550Y-74489629D01*
X91348139Y-86294331D01*
X91348139Y-86294334D01*
X91347146Y-86302409D01*
X91347147Y-86302410D01*
X91347147Y-86302411D01*
X91332419Y-86422362D01*
X91332078Y-86425136D01*
X85809969Y-86425136D01*
X88870651Y-77536266D01*
X88870659Y-77536251D01*
X88918159Y-77398301D01*
X88918160Y-77398298D01*
X88927353Y-77266836D01*
X88925815Y-77258926D01*
X88902207Y-77137473D01*
X88288452Y-75879088D01*
X88288451Y-75879084D01*
X88224488Y-75747940D01*
X88174589Y-75690538D01*
X88138028Y-75648480D01*
X88138027Y-75648479D01*
X88138026Y-75648478D01*
X88132924Y-75645037D01*
X88132924Y-75645036D01*
X88028779Y-75574789D01*
X88028774Y-75574786D01*
X87908047Y-75533217D01*
X87908032Y-75533211D01*
X77317849Y-71886720D01*
X81496193Y-71886720D01*
X81496193Y-72099294D01*
X81501980Y-72135834D01*
X81522515Y-72265487D01*
X81529447Y-72309250D01*
X81590932Y-72498481D01*
X81595137Y-72511421D01*
X81691644Y-72700827D01*
X81816583Y-72872793D01*
X81966906Y-73023116D01*
X82138872Y-73148055D01*
X82138874Y-73148056D01*
X82138877Y-73148058D01*
X82328281Y-73244564D01*
X82530450Y-73310253D01*
X82740406Y-73343507D01*
X82740407Y-73343507D01*
X82952979Y-73343507D01*
X82952980Y-73343507D01*
X83162936Y-73310253D01*
X83365105Y-73244564D01*
X83554509Y-73148058D01*
X83653352Y-73076245D01*
X83726479Y-73023116D01*
X83726481Y-73023113D01*
X83726485Y-73023111D01*
X83876797Y-72872799D01*
X83876799Y-72872795D01*
X83876802Y-72872793D01*
X83985779Y-72722796D01*
X84001744Y-72700823D01*
X84098250Y-72511419D01*
X84163939Y-72309250D01*
X84197193Y-72099294D01*
X84197193Y-71886720D01*
X84163939Y-71676764D01*
X84098250Y-71474595D01*
X84001744Y-71285191D01*
X84001742Y-71285188D01*
X84001741Y-71285186D01*
X83876802Y-71113220D01*
X83726479Y-70962897D01*
X83554513Y-70837958D01*
X83365107Y-70741451D01*
X83365106Y-70741450D01*
X83365105Y-70741450D01*
X83162936Y-70675761D01*
X83162934Y-70675760D01*
X83162933Y-70675760D01*
X83001650Y-70650215D01*
X82952980Y-70642507D01*
X82740406Y-70642507D01*
X82691735Y-70650215D01*
X82530453Y-70675760D01*
X82328278Y-70741451D01*
X82138872Y-70837958D01*
X81966906Y-70962897D01*
X81816583Y-71113220D01*
X81691644Y-71285186D01*
X81595137Y-71474592D01*
X81529446Y-71676767D01*
X81499152Y-71868040D01*
X81496193Y-71886720D01*
X77317849Y-71886720D01*
X76695915Y-71672571D01*
X76695904Y-71672566D01*
X76557948Y-71625064D01*
X76557945Y-71625063D01*
X76494596Y-71620634D01*
X76426482Y-71615870D01*
X76361800Y-71628443D01*
X76318173Y-71636924D01*
X76318171Y-71636924D01*
X76297117Y-71641017D01*
X75016781Y-72265479D01*
X75016767Y-72265487D01*
X74907590Y-72318736D01*
X74907589Y-72318736D01*
X74808128Y-72405195D01*
X74734436Y-72514448D01*
X74734433Y-72514453D01*
X70632277Y-84427984D01*
X70632277Y-84427985D01*
X70589372Y-84552589D01*
X70589371Y-84552589D01*
X70581610Y-84663589D01*
X70580179Y-84684053D01*
X64911617Y-84684053D01*
X65147695Y-83737196D01*
X65145395Y-83605432D01*
X65109070Y-83478753D01*
X65041196Y-83365791D01*
X65041194Y-83365789D01*
X64380696Y-82266536D01*
X64312822Y-82153574D01*
X64218025Y-82062030D01*
X64218022Y-82062028D01*
X64102766Y-81998141D01*
X64102765Y-81998140D01*
X64102764Y-81998140D01*
X63974894Y-81966258D01*
X63974891Y-81966258D01*
X63967535Y-81964424D01*
X63967528Y-81964421D01*
X56622931Y-80133208D01*
X52331345Y-79063195D01*
X52331344Y-79063195D01*
X52331342Y-79063195D01*
X52331338Y-79063195D01*
X52199581Y-79065495D01*
X52199575Y-79065496D01*
X52072902Y-79101819D01*
X51390578Y-79511801D01*
X50860688Y-79830191D01*
X50860685Y-79830193D01*
X50860683Y-79830193D01*
X50759612Y-79890923D01*
X50759613Y-79890924D01*
X50747725Y-79898066D01*
X50656177Y-79992867D01*
X50592288Y-80108126D01*
X50561366Y-80232153D01*
X47537770Y-92359130D01*
X47512190Y-92461723D01*
X46173437Y-92461723D01*
X49585826Y-78775367D01*
X57277725Y-78775367D01*
X57277725Y-78987940D01*
X57303432Y-79150252D01*
X57310979Y-79197897D01*
X57350486Y-79319487D01*
X57376669Y-79400068D01*
X57473176Y-79589474D01*
X57598115Y-79761440D01*
X57748438Y-79911763D01*
X57920404Y-80036702D01*
X57920406Y-80036703D01*
X57920409Y-80036705D01*
X58109813Y-80133211D01*
X58311982Y-80198900D01*
X58521938Y-80232154D01*
X58521939Y-80232154D01*
X58734511Y-80232154D01*
X58734512Y-80232154D01*
X58944468Y-80198900D01*
X59146637Y-80133211D01*
X59336041Y-80036705D01*
X59396352Y-79992887D01*
X59508011Y-79911763D01*
X59508013Y-79911760D01*
X59508017Y-79911758D01*
X59658329Y-79761446D01*
X59658331Y-79761442D01*
X59658334Y-79761440D01*
X59783273Y-79589474D01*
X59783274Y-79589473D01*
X59783276Y-79589470D01*
X59879782Y-79400066D01*
X59945471Y-79197897D01*
X59978725Y-78987941D01*
X59978725Y-78775367D01*
X59945471Y-78565411D01*
X59879782Y-78363242D01*
X59783276Y-78173838D01*
X59783274Y-78173835D01*
X59783273Y-78173833D01*
X59658334Y-78001867D01*
X59508011Y-77851544D01*
X59336045Y-77726605D01*
X59146639Y-77630098D01*
X59146638Y-77630097D01*
X59146637Y-77630097D01*
X58944468Y-77564408D01*
X58944466Y-77564407D01*
X58944465Y-77564407D01*
X58766693Y-77536251D01*
X58734512Y-77531154D01*
X58521938Y-77531154D01*
X58489757Y-77536251D01*
X58311985Y-77564407D01*
X58109810Y-77630098D01*
X57920404Y-77726605D01*
X57748438Y-77851544D01*
X57598115Y-78001867D01*
X57473176Y-78173833D01*
X57376669Y-78363239D01*
X57310978Y-78565414D01*
X57277725Y-78775367D01*
X49585826Y-78775367D01*
X50769947Y-74026111D01*
X52108716Y-74026111D01*
X52111017Y-74157873D01*
X52111018Y-74157879D01*
X52147341Y-74284552D01*
X52413403Y-74727353D01*
X52741427Y-75273277D01*
X52879619Y-75503266D01*
X52879623Y-75503273D01*
X52922595Y-75574790D01*
X52943588Y-75609729D01*
X52943589Y-75609730D01*
X52943590Y-75609731D01*
X53038387Y-75701276D01*
X53038389Y-75701277D01*
X53153648Y-75765166D01*
X53313164Y-75804939D01*
X53313196Y-75804945D01*
X53522519Y-75857135D01*
X64916666Y-78698016D01*
X64932220Y-78703070D01*
X64940905Y-78704060D01*
X64944529Y-78704963D01*
X64957315Y-78699892D01*
X64966527Y-78699387D01*
X65056831Y-78697811D01*
X65183510Y-78661486D01*
X66395739Y-77933105D01*
X66508688Y-77865238D01*
X66600233Y-77770441D01*
X66664123Y-77655180D01*
X66670377Y-77630096D01*
X66683795Y-77576284D01*
X66693776Y-77536251D01*
X66696005Y-77527310D01*
X66696004Y-77527309D01*
X66701369Y-77505793D01*
X66701369Y-77505790D01*
X69680399Y-65557560D01*
X71575968Y-65557560D01*
X71575968Y-65770133D01*
X71609220Y-65980082D01*
X71609222Y-65980090D01*
X71674908Y-66182251D01*
X71674912Y-66182261D01*
X71771419Y-66371667D01*
X71896358Y-66543633D01*
X72046681Y-66693956D01*
X72218647Y-66818895D01*
X72218649Y-66818896D01*
X72218652Y-66818898D01*
X72408056Y-66915404D01*
X72610225Y-66981093D01*
X72820181Y-67014347D01*
X72820182Y-67014347D01*
X73032754Y-67014347D01*
X73032755Y-67014347D01*
X73242711Y-66981093D01*
X73444880Y-66915404D01*
X73634284Y-66818898D01*
X73771494Y-66719210D01*
X73771517Y-66719193D01*
X76765986Y-66719193D01*
X76782947Y-66806448D01*
X76791133Y-66848557D01*
X77411082Y-68119642D01*
X77411083Y-68119644D01*
X77452228Y-68204004D01*
X77468854Y-68238092D01*
X77536149Y-68315507D01*
X77536150Y-68315507D01*
X77536151Y-68315508D01*
X77555312Y-68337550D01*
X77664566Y-68411243D01*
X77760236Y-68444185D01*
X77760235Y-68444185D01*
X86128342Y-71325554D01*
X88985218Y-72309255D01*
X88997422Y-72313457D01*
X88997438Y-72313465D01*
X89135391Y-72360965D01*
X89135394Y-72360966D01*
X89266857Y-72370159D01*
X89396220Y-72345013D01*
X90654607Y-71731254D01*
X90654614Y-71731252D01*
X90785751Y-71667293D01*
X90785752Y-71667291D01*
X90785754Y-71667291D01*
X90885212Y-71580833D01*
X90958905Y-71471579D01*
X91875820Y-68808661D01*
X98449605Y-68808661D01*
X98467946Y-68939163D01*
X98503569Y-69023085D01*
X98516195Y-69052831D01*
X99020524Y-70240954D01*
X99072016Y-70362262D01*
X99072017Y-70362263D01*
X99153151Y-70466109D01*
X99258384Y-70545409D01*
X99258398Y-70545419D01*
X110373024Y-75036018D01*
X110373037Y-75036025D01*
X110433663Y-75060519D01*
X110506793Y-75090065D01*
X110637595Y-75106126D01*
X110768096Y-75087785D01*
X110768120Y-75087775D01*
X110889405Y-75036293D01*
X110889405Y-75036292D01*
X110909356Y-75027824D01*
X110909585Y-75027725D01*
X112191194Y-74483715D01*
X112295041Y-74402580D01*
X112374351Y-74297333D01*
X112379518Y-74284545D01*
X117085903Y-62635830D01*
X117085905Y-62635828D01*
X117094393Y-62614817D01*
X117094395Y-62614817D01*
X117143762Y-62492628D01*
X117159823Y-62361826D01*
X117141482Y-62231324D01*
X116537412Y-60808226D01*
X116479478Y-60734074D01*
X116456278Y-60704379D01*
X116456277Y-60704378D01*
X116456273Y-60704374D01*
X116405624Y-60666208D01*
X116405623Y-60666208D01*
X116351030Y-60625069D01*
X116351008Y-60625060D01*
X116324054Y-60614170D01*
X116324053Y-60614169D01*
X105102636Y-56080423D01*
X105102563Y-56080414D01*
X104971834Y-56064362D01*
X104971833Y-56064362D01*
X104971832Y-56064362D01*
X104968833Y-56064783D01*
X104953492Y-56066939D01*
X104953489Y-56066939D01*
X104841335Y-56082702D01*
X104841328Y-56082704D01*
X104722407Y-56133181D01*
X104722294Y-56133231D01*
X104720024Y-56134195D01*
X104720021Y-56134196D01*
X103539544Y-56635280D01*
X103539542Y-56635281D01*
X103418235Y-56686772D01*
X103368603Y-56725549D01*
X103314398Y-56767899D01*
X103314386Y-56767908D01*
X103314383Y-56767911D01*
X103280341Y-56813088D01*
X103235077Y-56873155D01*
X98465671Y-68677847D01*
X98465666Y-68677859D01*
X98449605Y-68808661D01*
X91875820Y-68808661D01*
X94359621Y-61595173D01*
X96144860Y-61595173D01*
X96144860Y-61807746D01*
X96169515Y-61963415D01*
X96178114Y-62017703D01*
X96230772Y-62179768D01*
X96243804Y-62219874D01*
X96340311Y-62409280D01*
X96465250Y-62581246D01*
X96615573Y-62731569D01*
X96787539Y-62856508D01*
X96787541Y-62856509D01*
X96787544Y-62856511D01*
X96976948Y-62953017D01*
X97179117Y-63018706D01*
X97389073Y-63051960D01*
X97389074Y-63051960D01*
X97601646Y-63051960D01*
X97601647Y-63051960D01*
X97811603Y-63018706D01*
X98013772Y-62953017D01*
X98203176Y-62856511D01*
X98298955Y-62786924D01*
X98375146Y-62731569D01*
X98375148Y-62731566D01*
X98375152Y-62731564D01*
X98525464Y-62581252D01*
X98525466Y-62581248D01*
X98525469Y-62581246D01*
X98634446Y-62431249D01*
X98650411Y-62409276D01*
X98746917Y-62219872D01*
X98812606Y-62017703D01*
X98845860Y-61807747D01*
X98845860Y-61595173D01*
X98812606Y-61385217D01*
X98746917Y-61183048D01*
X98650411Y-60993644D01*
X98650409Y-60993641D01*
X98650408Y-60993639D01*
X98525469Y-60821673D01*
X98375146Y-60671350D01*
X98203180Y-60546411D01*
X98013774Y-60449904D01*
X98013773Y-60449903D01*
X98013772Y-60449903D01*
X97811603Y-60384214D01*
X97811601Y-60384213D01*
X97811600Y-60384213D01*
X97650317Y-60358668D01*
X97601647Y-60350960D01*
X97389073Y-60350960D01*
X97340402Y-60358668D01*
X97179120Y-60384213D01*
X97179055Y-60384234D01*
X97025945Y-60433983D01*
X96976945Y-60449904D01*
X96787539Y-60546411D01*
X96615573Y-60671350D01*
X96465250Y-60821673D01*
X96340311Y-60993639D01*
X96243804Y-61183045D01*
X96243803Y-61183047D01*
X96243803Y-61183048D01*
X96243797Y-61183068D01*
X96178113Y-61385220D01*
X96144860Y-61595173D01*
X94359621Y-61595173D01*
X95056459Y-59571408D01*
X95056467Y-59571393D01*
X95073242Y-59522676D01*
X95103968Y-59433441D01*
X95113161Y-59301978D01*
X95103968Y-59254685D01*
X95103525Y-59252407D01*
X95096164Y-59214540D01*
X95088015Y-59172615D01*
X95088013Y-59172612D01*
X95088013Y-59172609D01*
X95081341Y-59158929D01*
X94474260Y-57914230D01*
X94474259Y-57914226D01*
X94410296Y-57783082D01*
X94323835Y-57683621D01*
X94323832Y-57683619D01*
X94315197Y-57677794D01*
X94315197Y-57677795D01*
X94315196Y-57677794D01*
X94214583Y-57609929D01*
X94214580Y-57609928D01*
X94214579Y-57609927D01*
X94093855Y-57568359D01*
X94093840Y-57568353D01*
X82881723Y-53707713D01*
X82881712Y-53707708D01*
X82743756Y-53660206D01*
X82743753Y-53660205D01*
X82680404Y-53655776D01*
X82612290Y-53651012D01*
X82547608Y-53663585D01*
X82503981Y-53672066D01*
X82503979Y-53672066D01*
X82482925Y-53676159D01*
X81202589Y-54300621D01*
X81202575Y-54300629D01*
X81093398Y-54353878D01*
X81093397Y-54353878D01*
X80993936Y-54440337D01*
X80920244Y-54549590D01*
X80920241Y-54549595D01*
X77010513Y-65904273D01*
X76818086Y-66463123D01*
X76818085Y-66463126D01*
X76790367Y-66543625D01*
X76775180Y-66587731D01*
X76775179Y-66587731D01*
X76765986Y-66719193D01*
X73771517Y-66719193D01*
X73806254Y-66693956D01*
X73806256Y-66693953D01*
X73806260Y-66693951D01*
X73956572Y-66543639D01*
X73956574Y-66543635D01*
X73956577Y-66543633D01*
X74081516Y-66371667D01*
X74081515Y-66371667D01*
X74081519Y-66371663D01*
X74178025Y-66182259D01*
X74243714Y-65980090D01*
X74276968Y-65770134D01*
X74276968Y-65557560D01*
X74243714Y-65347604D01*
X74178025Y-65145435D01*
X74081519Y-64956031D01*
X74081517Y-64956028D01*
X74081516Y-64956026D01*
X73956577Y-64784060D01*
X73806254Y-64633737D01*
X73634288Y-64508798D01*
X73444882Y-64412291D01*
X73444881Y-64412290D01*
X73444880Y-64412290D01*
X73242711Y-64346601D01*
X73242709Y-64346600D01*
X73242708Y-64346600D01*
X73081425Y-64321055D01*
X73032755Y-64313347D01*
X72820181Y-64313347D01*
X72771510Y-64321055D01*
X72610228Y-64346600D01*
X72408053Y-64412291D01*
X72218647Y-64508798D01*
X72046681Y-64633737D01*
X71896358Y-64784060D01*
X71771419Y-64956026D01*
X71674912Y-65145432D01*
X71609221Y-65347607D01*
X71575968Y-65557560D01*
X69680399Y-65557560D01*
X69744221Y-65301584D01*
X69741921Y-65169820D01*
X69705596Y-65043141D01*
X69637722Y-64930179D01*
X69637720Y-64930177D01*
X69633935Y-64923877D01*
X69633816Y-64923679D01*
X69633814Y-64923676D01*
X68966729Y-63813461D01*
X68966728Y-63813460D01*
X68909349Y-63717963D01*
X68909341Y-63717955D01*
X68814551Y-63626418D01*
X68814548Y-63626416D01*
X68812385Y-63625217D01*
X68812385Y-63625216D01*
X68699292Y-63562529D01*
X68699291Y-63562528D01*
X68699290Y-63562528D01*
X68571420Y-63530646D01*
X68571417Y-63530646D01*
X68564061Y-63528812D01*
X68564054Y-63528809D01*
X61088461Y-61664935D01*
X56927871Y-60627583D01*
X56927870Y-60627583D01*
X56927868Y-60627583D01*
X56927864Y-60627583D01*
X56796107Y-60629883D01*
X56796101Y-60629884D01*
X56669428Y-60666207D01*
X56124449Y-60993664D01*
X55457214Y-61394579D01*
X55457211Y-61394581D01*
X55457209Y-61394581D01*
X55344250Y-61462455D01*
X55252703Y-61557255D01*
X55188816Y-61672511D01*
X55188815Y-61672513D01*
X55188815Y-61672514D01*
X52323045Y-73166489D01*
X52132821Y-73929434D01*
X52108716Y-74026111D01*
X50769947Y-74026111D01*
X54257172Y-60039600D01*
X54257198Y-60039520D01*
X54274035Y-59971970D01*
X54277107Y-59961595D01*
X54328526Y-59812234D01*
X54337309Y-59792504D01*
X54411252Y-59659095D01*
X54423328Y-59641190D01*
X54519321Y-59522643D01*
X54534329Y-59507102D01*
X54649446Y-59407033D01*
X54666914Y-59394342D01*
X54797664Y-59315784D01*
X54817079Y-59306315D01*
X54959482Y-59251660D01*
X54980251Y-59245706D01*
X55129978Y-59216613D01*
X55151461Y-59214356D01*
X55303965Y-59211708D01*
X55325522Y-59213217D01*
X55482206Y-59238052D01*
X55492769Y-59240202D01*
X55550825Y-59254685D01*
X55550827Y-59254684D01*
X55558993Y-59256722D01*
X55559123Y-59256744D01*
X73836167Y-63813707D01*
X74306088Y-63930871D01*
X74306211Y-63930911D01*
X74314687Y-63933023D01*
X74328937Y-63936574D01*
X74329157Y-63936703D01*
X74378614Y-63948997D01*
X74378614Y-63948998D01*
X74438479Y-63963880D01*
X74442504Y-63964884D01*
X74442504Y-63964883D01*
X74452718Y-63967432D01*
X74452855Y-63967454D01*
X74507503Y-63981039D01*
X74509716Y-63981590D01*
X74778288Y-64011085D01*
X75048386Y-64004206D01*
X75315107Y-63961077D01*
X75573609Y-63882482D01*
X75819198Y-63769848D01*
X76047415Y-63625219D01*
X76047417Y-63625217D01*
X76047418Y-63625217D01*
X76159763Y-63530646D01*
X76254116Y-63451221D01*
X76435548Y-63251015D01*
X76588418Y-63028234D01*
X76709949Y-62786924D01*
X76709953Y-62786913D01*
X76729745Y-62729555D01*
X76730036Y-62728862D01*
X76755916Y-62653703D01*
X76755920Y-62653690D01*
X76775474Y-62596920D01*
X76775474Y-62596918D01*
X76778386Y-62588464D01*
X76778411Y-62588368D01*
X80157108Y-52775889D01*
X80161074Y-52765823D01*
X80225346Y-52621501D01*
X80235821Y-52602608D01*
X80321132Y-52476151D01*
X80334721Y-52459372D01*
X80440696Y-52349645D01*
X80456996Y-52335476D01*
X80580409Y-52245819D01*
X80598932Y-52234691D01*
X80736032Y-52167826D01*
X80756202Y-52160083D01*
X80902837Y-52118036D01*
X80924019Y-52113918D01*
X81075747Y-52097967D01*
X81097341Y-52097591D01*
X81249511Y-52108225D01*
X81270839Y-52111602D01*
X81397451Y-52143162D01*
X81424570Y-52149922D01*
X81434948Y-52152996D01*
X89882887Y-55061857D01*
X99167585Y-58258838D01*
X99221145Y-58277280D01*
X99221538Y-58277416D01*
X99221664Y-58277460D01*
X99229454Y-58280142D01*
X99284257Y-58299012D01*
X99284259Y-58299012D01*
X99291546Y-58301521D01*
X99292412Y-58301755D01*
X99341747Y-58318727D01*
X99589912Y-58370378D01*
X99842611Y-58390292D01*
X100095803Y-58378150D01*
X100345438Y-58334148D01*
X100587522Y-58258988D01*
X100818183Y-58153873D01*
X101033731Y-58020485D01*
X101230719Y-57860957D01*
X101405996Y-57677841D01*
X101556758Y-57474066D01*
X101680594Y-57252891D01*
X101700259Y-57204260D01*
X101700395Y-57203981D01*
X101713902Y-57170549D01*
X101713926Y-57170518D01*
X101743283Y-57097828D01*
X101743289Y-57097812D01*
X101876576Y-56767911D01*
X102539583Y-55126894D01*
X102539628Y-55126807D01*
X102543895Y-55116240D01*
X102565870Y-55061836D01*
X102570336Y-55052033D01*
X102642056Y-54911248D01*
X102653510Y-54892918D01*
X102745292Y-54771107D01*
X102759749Y-54755048D01*
X102871301Y-54651017D01*
X102888326Y-54637715D01*
X103016253Y-54554637D01*
X103035327Y-54544496D01*
X103175737Y-54484898D01*
X103196271Y-54478227D01*
X103344908Y-54443917D01*
X103366299Y-54440913D01*
X103518615Y-54432940D01*
X103540215Y-54433695D01*
X103691598Y-54452296D01*
X103712737Y-54456791D01*
X103864345Y-54503160D01*
X103874369Y-54506703D01*
X103874591Y-54506792D01*
X103874784Y-54506870D01*
X103874938Y-54506991D01*
X103874959Y-54506941D01*
X103930078Y-54529219D01*
X103930081Y-54529219D01*
X103937879Y-54532371D01*
X103937984Y-54532405D01*
X117414726Y-59977379D01*
X118263879Y-60320460D01*
X118263945Y-60320492D01*
X118272024Y-60323755D01*
X118272026Y-60323757D01*
X118328108Y-60346411D01*
X118337940Y-60350892D01*
X118478694Y-60422599D01*
X118497021Y-60434050D01*
X118618839Y-60525837D01*
X118634904Y-60540300D01*
X118738928Y-60651844D01*
X118752234Y-60668873D01*
X118835313Y-60796799D01*
X118845458Y-60815878D01*
X118905055Y-60956276D01*
X118911735Y-60976835D01*
X118946044Y-61125449D01*
X118949052Y-61146854D01*
X118957032Y-61299168D01*
X118956277Y-61320771D01*
X118937685Y-61472156D01*
X118933190Y-61493301D01*
X118886934Y-61644572D01*
X118883322Y-61654769D01*
X118858220Y-61716888D01*
X118858197Y-61716954D01*
X118257165Y-63204504D01*
X118257139Y-63204559D01*
X118249033Y-63224623D01*
X118248986Y-63224681D01*
X118180700Y-63393709D01*
X118115051Y-63647586D01*
X118115048Y-63647599D01*
X118083094Y-63907875D01*
X118083094Y-63907883D01*
X118085387Y-64170091D01*
X118085388Y-64170108D01*
X118121888Y-64429790D01*
X118191967Y-64682481D01*
X118191969Y-64682487D01*
X118235086Y-64784060D01*
X118294435Y-64923875D01*
X118364686Y-65043138D01*
X118427530Y-65149826D01*
X118427535Y-65149833D01*
X118546094Y-65301582D01*
X118588978Y-65356471D01*
X118588982Y-65356475D01*
X118588989Y-65356483D01*
X118776010Y-65540270D01*
X118776014Y-65540273D01*
X118776017Y-65540276D01*
X118985447Y-65698096D01*
X119213684Y-65827230D01*
X119300102Y-65862147D01*
X119300108Y-65862151D01*
X119404271Y-65904238D01*
X119404373Y-65904270D01*
X134165171Y-71868043D01*
X134175009Y-71872526D01*
X134218051Y-71894460D01*
X134315746Y-71944245D01*
X134334074Y-71955699D01*
X134455884Y-72047497D01*
X134471939Y-72061954D01*
X134575969Y-72173518D01*
X134589267Y-72190541D01*
X134672338Y-72318467D01*
X134682484Y-72337550D01*
X134742077Y-72477947D01*
X134748756Y-72498502D01*
X134783067Y-72647121D01*
X134786075Y-72668525D01*
X134794058Y-72820840D01*
X134793304Y-72842439D01*
X134774719Y-72993826D01*
X134770226Y-73014969D01*
X134723905Y-73166489D01*
X134720293Y-73176688D01*
X132314969Y-79130115D01*
X132314912Y-79130235D01*
X132306878Y-79150126D01*
X132306778Y-79150252D01*
X132238416Y-79319498D01*
X132172783Y-79573374D01*
X132172782Y-79573379D01*
X132141265Y-79830214D01*
X132140843Y-79833657D01*
X132140842Y-79833666D01*
X132143144Y-80095866D01*
X132143144Y-80095869D01*
X132162181Y-80231291D01*
X132179650Y-80355552D01*
X132249733Y-80608243D01*
X132284468Y-80690073D01*
X132352196Y-80849629D01*
X132381100Y-80898699D01*
X132485283Y-81075573D01*
X132646722Y-81282218D01*
X132833748Y-81466026D01*
X132833750Y-81466027D01*
X132833750Y-81466028D01*
X133043161Y-81623851D01*
X133043164Y-81623853D01*
X133271387Y-81753000D01*
X133323718Y-81774148D01*
X133323889Y-81774217D01*
X133323984Y-81774263D01*
X133391856Y-81801685D01*
X133392950Y-81802127D01*
X133392962Y-81802132D01*
X133461722Y-81829921D01*
X133461830Y-81829956D01*
X148222990Y-87793826D01*
X148232801Y-87798297D01*
X148373528Y-87869996D01*
X148391859Y-87881450D01*
X148513677Y-87973243D01*
X148529737Y-87987704D01*
X148633761Y-88099254D01*
X148647064Y-88116281D01*
X148707273Y-88208994D01*
X148730138Y-88244203D01*
X148740286Y-88263289D01*
X148799880Y-88403688D01*
X148806559Y-88424246D01*
X148840866Y-88572860D01*
X148843874Y-88594265D01*
X148851852Y-88746579D01*
X148851097Y-88768182D01*
X148832503Y-88919569D01*
X148828008Y-88940712D01*
X148781759Y-89091958D01*
X148778150Y-89102149D01*
X145835051Y-96386583D01*
X143970317Y-101001969D01*
X143950383Y-101051307D01*
X143950380Y-101051314D01*
X143942301Y-101071307D01*
X143889179Y-101202766D01*
X143877865Y-101230763D01*
X143877863Y-101230767D01*
X143780874Y-101560766D01*
X143716701Y-101898682D01*
X143685962Y-102241265D01*
X143685961Y-102241278D01*
X143688952Y-102585195D01*
X143688953Y-102585212D01*
X143725644Y-102927205D01*
X143795686Y-103263960D01*
X143795687Y-103263967D01*
X143898400Y-103592226D01*
X143898402Y-103592229D01*
X144032793Y-103908829D01*
X144032802Y-103908847D01*
X144033899Y-103910856D01*
X144197590Y-104210761D01*
X144257952Y-104299409D01*
X144347946Y-104431575D01*
X144391181Y-104495069D01*
X144611709Y-104759030D01*
X144611714Y-104759035D01*
X144611715Y-104759036D01*
X144611718Y-104759040D01*
X144857041Y-105000094D01*
X144857044Y-105000097D01*
X144857048Y-105000101D01*
X144857051Y-105000103D01*
X144943484Y-105069775D01*
X144956374Y-105081774D01*
X144982489Y-105109805D01*
X145012901Y-105128827D01*
X145023750Y-105135613D01*
X145035812Y-105144201D01*
X145042243Y-105149385D01*
X145049184Y-105153617D01*
X145049157Y-105153660D01*
X145059628Y-105159546D01*
X145315824Y-105337744D01*
X145325385Y-105345111D01*
X145578122Y-105560298D01*
X145586931Y-105568572D01*
X145817495Y-105807351D01*
X145825462Y-105816451D01*
X146031667Y-106076558D01*
X146038710Y-106086391D01*
X146218585Y-106365337D01*
X146224636Y-106375810D01*
X146376489Y-106670974D01*
X146381491Y-106681986D01*
X146503856Y-106990516D01*
X146507762Y-107001964D01*
X146599488Y-107320957D01*
X146602260Y-107332730D01*
X146662474Y-107659154D01*
X146664085Y-107671141D01*
X146692209Y-108001864D01*
X146692645Y-108013951D01*
X146689028Y-108297737D01*
X146687978Y-108312337D01*
X146687392Y-108316789D01*
X146687392Y-108363462D01*
X146687157Y-108371088D01*
X146684287Y-108417664D01*
X146684287Y-108417674D01*
X146684914Y-108420759D01*
X146687392Y-108445424D01*
X146687392Y-126522912D01*
X146687383Y-126588785D01*
X146687391Y-126588849D01*
X146704186Y-126651531D01*
X146704188Y-126651546D01*
X146704190Y-126651546D01*
X146721477Y-126716095D01*
X146721494Y-126716137D01*
X146754806Y-126773834D01*
X146754814Y-126773848D01*
X146787351Y-126830221D01*
X146787393Y-126830276D01*
X146833926Y-126876808D01*
X146833934Y-126876822D01*
X146833937Y-126876820D01*
X146880531Y-126923425D01*
X146880571Y-126923455D01*
X146880575Y-126923457D01*
X146880578Y-126923460D01*
X146936890Y-126955971D01*
X146936903Y-126955984D01*
X146936905Y-126955980D01*
X146977231Y-126979270D01*
X146993881Y-126988886D01*
X146994674Y-126989356D01*
X146994682Y-126989359D01*
X146995715Y-126989623D01*
X147045527Y-127002969D01*
X147059161Y-127006622D01*
X147059176Y-127006631D01*
X147059178Y-127006627D01*
X147074868Y-127010833D01*
X147121935Y-127023451D01*
X147121938Y-127023451D01*
X147121997Y-127023459D01*
X147122000Y-127023460D01*
X147122002Y-127023460D01*
X147191054Y-127023460D01*
X165359853Y-127025824D01*
X165360499Y-127025868D01*
X165368374Y-127025864D01*
X165368377Y-127025865D01*
X165433486Y-127025835D01*
X165499869Y-127025844D01*
X165499874Y-127025842D01*
X165500152Y-127025806D01*
X165500156Y-127025805D01*
X165500161Y-127025805D01*
X165563180Y-127008888D01*
X165563253Y-127008889D01*
X165563248Y-127008870D01*
X165571642Y-127006622D01*
X165627167Y-126991752D01*
X165627174Y-126991747D01*
X165627429Y-126991641D01*
X165627440Y-126991639D01*
X165679217Y-126961713D01*
X165684895Y-126958432D01*
X165684896Y-126958434D01*
X165684930Y-126958411D01*
X165741304Y-126925875D01*
X165741306Y-126925873D01*
X165741496Y-126925727D01*
X165741527Y-126925701D01*
X165741538Y-126925696D01*
X165765308Y-126901902D01*
X165788011Y-126879180D01*
X165788064Y-126879127D01*
X165811299Y-126855896D01*
X165834502Y-126832701D01*
X165834508Y-126832689D01*
X165834676Y-126832471D01*
X165834681Y-126832467D01*
X165867300Y-126775909D01*
X165867304Y-126775911D01*
X165867326Y-126775863D01*
X165900409Y-126718582D01*
X165900410Y-126718579D01*
X165900519Y-126718315D01*
X165900519Y-126718313D01*
X165900522Y-126718309D01*
X165913377Y-126670245D01*
X165917663Y-126654222D01*
X165917678Y-126654226D01*
X165917679Y-126654157D01*
X165934533Y-126591292D01*
X165934533Y-126591286D01*
X165934534Y-126591283D01*
X165934572Y-126590999D01*
X165934541Y-126524221D01*
X165934541Y-126524146D01*
X165934541Y-126522895D01*
X165934550Y-126459508D01*
X165934549Y-126459504D01*
X165934550Y-126451727D01*
X165934508Y-126451080D01*
X165934315Y-126024770D01*
X165926336Y-108445319D01*
X165928817Y-108420593D01*
X165929414Y-108417654D01*
X165926533Y-108370919D01*
X165926299Y-108363354D01*
X165926279Y-108316545D01*
X165926276Y-108316536D01*
X165925730Y-108312396D01*
X165924671Y-108297729D01*
X165924581Y-108290694D01*
X165921055Y-108013935D01*
X165921491Y-108001850D01*
X165938144Y-107806038D01*
X165949618Y-107671116D01*
X165951226Y-107659152D01*
X165994283Y-107425740D01*
X172675277Y-107425740D01*
X172691338Y-107556542D01*
X177440613Y-119311407D01*
X177460749Y-119361246D01*
X177460750Y-119361247D01*
X177502483Y-119416630D01*
X177509634Y-119426119D01*
X177540059Y-119466494D01*
X177643906Y-119547628D01*
X177765214Y-119599120D01*
X177765216Y-119599120D01*
X178940370Y-120097944D01*
X178940375Y-120097947D01*
X178945694Y-120100204D01*
X178945696Y-120100206D01*
X179067004Y-120151698D01*
X179179162Y-120167460D01*
X179179163Y-120167461D01*
X179181998Y-120167859D01*
X179185676Y-120168376D01*
X179201629Y-120172206D01*
X179213675Y-120172311D01*
X179217114Y-120172794D01*
X179232397Y-120165785D01*
X179235048Y-120165429D01*
X179328308Y-120153978D01*
X181315488Y-119351105D01*
X184238640Y-119351105D01*
X184238640Y-119563679D01*
X184238641Y-119563683D01*
X184265201Y-119731381D01*
X184271894Y-119773635D01*
X184328547Y-119947995D01*
X184337584Y-119975806D01*
X184434091Y-120165212D01*
X184559030Y-120337178D01*
X184709353Y-120487501D01*
X184881319Y-120612440D01*
X184881321Y-120612441D01*
X184881324Y-120612443D01*
X185070728Y-120708949D01*
X185272897Y-120774638D01*
X185482853Y-120807892D01*
X185482854Y-120807892D01*
X185695426Y-120807892D01*
X185695427Y-120807892D01*
X185905383Y-120774638D01*
X186107552Y-120708949D01*
X186296956Y-120612443D01*
X186318929Y-120596478D01*
X186468926Y-120487501D01*
X186468928Y-120487498D01*
X186468932Y-120487496D01*
X186619244Y-120337184D01*
X186619246Y-120337180D01*
X186619249Y-120337178D01*
X186740698Y-120170016D01*
X186744191Y-120165208D01*
X186840697Y-119975804D01*
X186906386Y-119773635D01*
X186939640Y-119563679D01*
X186939640Y-119351105D01*
X186906386Y-119141149D01*
X186840697Y-118938980D01*
X186744191Y-118749576D01*
X186744189Y-118749573D01*
X186744188Y-118749571D01*
X186619249Y-118577605D01*
X186468926Y-118427282D01*
X186296960Y-118302343D01*
X186107554Y-118205836D01*
X186107553Y-118205835D01*
X186107552Y-118205835D01*
X185905383Y-118140146D01*
X185905381Y-118140145D01*
X185905380Y-118140145D01*
X185744097Y-118114600D01*
X185695427Y-118106892D01*
X185482853Y-118106892D01*
X185434182Y-118114600D01*
X185272900Y-118140145D01*
X185070725Y-118205836D01*
X184881319Y-118302343D01*
X184709353Y-118427282D01*
X184559030Y-118577605D01*
X184434091Y-118749571D01*
X184337584Y-118938977D01*
X184337583Y-118938979D01*
X184337583Y-118938980D01*
X184331143Y-118958801D01*
X184271893Y-119141152D01*
X184239722Y-119344274D01*
X184238640Y-119351105D01*
X181315488Y-119351105D01*
X190576702Y-115609332D01*
X190580161Y-115606725D01*
X190582554Y-115604923D01*
X190623198Y-115574294D01*
X190681949Y-115530023D01*
X190763084Y-115426175D01*
X191367154Y-114003077D01*
X191385495Y-113872575D01*
X191369434Y-113741773D01*
X191320067Y-113619584D01*
X191315394Y-113608017D01*
X191315387Y-113608004D01*
X189500685Y-109116459D01*
X193850518Y-109116459D01*
X193858330Y-109180083D01*
X193866579Y-109247261D01*
X198576691Y-120905196D01*
X198621810Y-121016868D01*
X198635990Y-121051965D01*
X198715294Y-121157206D01*
X198715300Y-121157213D01*
X198819147Y-121238347D01*
X198940455Y-121289839D01*
X198940457Y-121289839D01*
X200115611Y-121788663D01*
X200115616Y-121788666D01*
X200120935Y-121790923D01*
X200120937Y-121790925D01*
X200242245Y-121842417D01*
X200354403Y-121858179D01*
X200354404Y-121858180D01*
X200357239Y-121858578D01*
X200360917Y-121859095D01*
X200376870Y-121862925D01*
X200388916Y-121863030D01*
X200392355Y-121863513D01*
X200407638Y-121856504D01*
X200410289Y-121856148D01*
X200503549Y-121844697D01*
X202490678Y-121041845D01*
X205413884Y-121041845D01*
X205413884Y-121254418D01*
X205447137Y-121464371D01*
X205512828Y-121666546D01*
X205609335Y-121855952D01*
X205734274Y-122027918D01*
X205884597Y-122178241D01*
X206056563Y-122303180D01*
X206056565Y-122303181D01*
X206056568Y-122303183D01*
X206245972Y-122399689D01*
X206448141Y-122465378D01*
X206658097Y-122498632D01*
X206658098Y-122498632D01*
X206870670Y-122498632D01*
X206870671Y-122498632D01*
X207080627Y-122465378D01*
X207282796Y-122399689D01*
X207472200Y-122303183D01*
X207494173Y-122287218D01*
X207644170Y-122178241D01*
X207644172Y-122178238D01*
X207644176Y-122178236D01*
X207794488Y-122027924D01*
X207794490Y-122027920D01*
X207794493Y-122027918D01*
X207911814Y-121866438D01*
X207919435Y-121855948D01*
X208015941Y-121666544D01*
X208081630Y-121464375D01*
X208114884Y-121254419D01*
X208114884Y-121041845D01*
X208081630Y-120831889D01*
X208015941Y-120629720D01*
X207919435Y-120440316D01*
X207919433Y-120440313D01*
X207919432Y-120440311D01*
X207794493Y-120268345D01*
X207644170Y-120118022D01*
X207472204Y-119993083D01*
X207282798Y-119896576D01*
X207282797Y-119896575D01*
X207282796Y-119896575D01*
X207080627Y-119830886D01*
X207080625Y-119830885D01*
X207080624Y-119830885D01*
X206919341Y-119805340D01*
X206870671Y-119797632D01*
X206658097Y-119797632D01*
X206609426Y-119805340D01*
X206448144Y-119830885D01*
X206245969Y-119896576D01*
X206056563Y-119993083D01*
X205884597Y-120118022D01*
X205734274Y-120268345D01*
X205609335Y-120440311D01*
X205512828Y-120629717D01*
X205447137Y-120831892D01*
X205413884Y-121041845D01*
X202490678Y-121041845D01*
X211751943Y-117300051D01*
X211857191Y-117220741D01*
X211938325Y-117116894D01*
X211989817Y-116995586D01*
X211989816Y-116995586D01*
X212542395Y-115693796D01*
X212560736Y-115563294D01*
X212544675Y-115432492D01*
X212495308Y-115310303D01*
X212490635Y-115298736D01*
X212490628Y-115298723D01*
X207775264Y-103627787D01*
X207775259Y-103627781D01*
X207695954Y-103522540D01*
X207674383Y-103505687D01*
X207592107Y-103441405D01*
X207592104Y-103441403D01*
X207592101Y-103441402D01*
X207481622Y-103394506D01*
X207481622Y-103394507D01*
X206301310Y-102893493D01*
X206301294Y-102893485D01*
X206169009Y-102837335D01*
X206169004Y-102837334D01*
X206038508Y-102818994D01*
X205907706Y-102835055D01*
X205907704Y-102835055D01*
X205907702Y-102835056D01*
X205783226Y-102885347D01*
X205783217Y-102885349D01*
X205783218Y-102885350D01*
X194967311Y-107255261D01*
X194670880Y-107375027D01*
X194669015Y-107375780D01*
X194659311Y-107379700D01*
X194659310Y-107379701D01*
X194554064Y-107459010D01*
X194472930Y-107562856D01*
X194472929Y-107562857D01*
X194281451Y-108013951D01*
X194103590Y-108432966D01*
X193920351Y-108864649D01*
X193868859Y-108985957D01*
X193868858Y-108985961D01*
X193850519Y-109116450D01*
X193850518Y-109116459D01*
X189500685Y-109116459D01*
X186600023Y-101937068D01*
X186595539Y-101931118D01*
X186520713Y-101831821D01*
X186416866Y-101750686D01*
X186416865Y-101750685D01*
X186402853Y-101744738D01*
X185126069Y-101202774D01*
X185126053Y-101202766D01*
X184993768Y-101146616D01*
X184993763Y-101146615D01*
X184863267Y-101128275D01*
X184732465Y-101144336D01*
X184732463Y-101144336D01*
X184732461Y-101144337D01*
X184607985Y-101194628D01*
X184607976Y-101194630D01*
X184607977Y-101194631D01*
X173484411Y-105688844D01*
X173484072Y-105688981D01*
X173484070Y-105688982D01*
X173378823Y-105768291D01*
X173297689Y-105872137D01*
X173297688Y-105872138D01*
X173086180Y-106370420D01*
X172767933Y-107120163D01*
X172745110Y-107173930D01*
X172693618Y-107295238D01*
X172693617Y-107295242D01*
X172675280Y-107425716D01*
X172675277Y-107425740D01*
X165994283Y-107425740D01*
X166011444Y-107332709D01*
X166014215Y-107320945D01*
X166016135Y-107314268D01*
X166105945Y-107001940D01*
X166109845Y-106990511D01*
X166232223Y-106681951D01*
X166237210Y-106670974D01*
X166389074Y-106375789D01*
X166395110Y-106365343D01*
X166575007Y-106086365D01*
X166582031Y-106076558D01*
X166788254Y-105816431D01*
X166796204Y-105807351D01*
X167026779Y-105568561D01*
X167035587Y-105560290D01*
X167101828Y-105503890D01*
X167288324Y-105345105D01*
X167297882Y-105337740D01*
X167543871Y-105166642D01*
X167564460Y-105155064D01*
X167572835Y-105151357D01*
X167594992Y-105133486D01*
X167607062Y-105124892D01*
X167631211Y-105109788D01*
X167646172Y-105093729D01*
X167659050Y-105081740D01*
X167758050Y-105001903D01*
X168003516Y-104760609D01*
X168224152Y-104496420D01*
X168417834Y-104211878D01*
X168582696Y-103909725D01*
X168717152Y-103592868D01*
X168819906Y-103264359D01*
X168889969Y-102927361D01*
X168926667Y-102585119D01*
X168928621Y-102359303D01*
X168929646Y-102240941D01*
X168929646Y-102240928D01*
X168898878Y-101898101D01*
X168834658Y-101559943D01*
X168819103Y-101507014D01*
X168737606Y-101229704D01*
X168673130Y-101070135D01*
X168665522Y-101051307D01*
X168648446Y-101009044D01*
X168644443Y-101001969D01*
X168644880Y-101001721D01*
X168634827Y-100983949D01*
X164119959Y-89809247D01*
X165557763Y-89809247D01*
X165557763Y-89809249D01*
X165573824Y-89940051D01*
X165594540Y-89991324D01*
X165619781Y-90053800D01*
X170063064Y-101051307D01*
X170323092Y-101694899D01*
X170323091Y-101694899D01*
X170343228Y-101744737D01*
X170343235Y-101744755D01*
X170408826Y-101831798D01*
X170408827Y-101831799D01*
X170408826Y-101831799D01*
X170422542Y-101850000D01*
X170422543Y-101850000D01*
X170422545Y-101850003D01*
X170526392Y-101931137D01*
X170647700Y-101982629D01*
X170647702Y-101982629D01*
X171822856Y-102481453D01*
X171822861Y-102481456D01*
X171828180Y-102483713D01*
X171828182Y-102483715D01*
X171949490Y-102535207D01*
X172061648Y-102550969D01*
X172061649Y-102550970D01*
X172064484Y-102551368D01*
X172068162Y-102551885D01*
X172084115Y-102555715D01*
X172096161Y-102555820D01*
X172099600Y-102556303D01*
X172114883Y-102549294D01*
X172117534Y-102548938D01*
X172210794Y-102537487D01*
X174198004Y-101734602D01*
X177121133Y-101734602D01*
X177121133Y-101947176D01*
X177154387Y-102157132D01*
X177198536Y-102293009D01*
X177220077Y-102359303D01*
X177316584Y-102548709D01*
X177441523Y-102720675D01*
X177591846Y-102870998D01*
X177763812Y-102995937D01*
X177763814Y-102995938D01*
X177763817Y-102995940D01*
X177953221Y-103092446D01*
X178155390Y-103158135D01*
X178365346Y-103191389D01*
X178365347Y-103191389D01*
X178577919Y-103191389D01*
X178577920Y-103191389D01*
X178787876Y-103158135D01*
X178990045Y-103092446D01*
X179179449Y-102995940D01*
X179274047Y-102927211D01*
X179351419Y-102870998D01*
X179351421Y-102870995D01*
X179351425Y-102870993D01*
X179501737Y-102720681D01*
X179501739Y-102720677D01*
X179501742Y-102720675D01*
X179626681Y-102548709D01*
X179626680Y-102548709D01*
X179626684Y-102548705D01*
X179723190Y-102359301D01*
X179788879Y-102157132D01*
X179822133Y-101947176D01*
X179822133Y-101734602D01*
X179788879Y-101524646D01*
X179723190Y-101322477D01*
X179626684Y-101133073D01*
X179626682Y-101133070D01*
X179626681Y-101133068D01*
X179501742Y-100961102D01*
X179351419Y-100810779D01*
X179179453Y-100685840D01*
X178990047Y-100589333D01*
X178990046Y-100589332D01*
X178990045Y-100589332D01*
X178787876Y-100523643D01*
X178787874Y-100523642D01*
X178787873Y-100523642D01*
X178626590Y-100498097D01*
X178577920Y-100490389D01*
X178365346Y-100490389D01*
X178316675Y-100498097D01*
X178155393Y-100523642D01*
X177953218Y-100589333D01*
X177763812Y-100685840D01*
X177591846Y-100810779D01*
X177441523Y-100961102D01*
X177316584Y-101133068D01*
X177220077Y-101322474D01*
X177220076Y-101322476D01*
X177220076Y-101322477D01*
X177199683Y-101385240D01*
X177154386Y-101524649D01*
X177148666Y-101560766D01*
X177121133Y-101734602D01*
X174198004Y-101734602D01*
X183459188Y-97992841D01*
X183564436Y-97913531D01*
X183645570Y-97809684D01*
X183697062Y-97688376D01*
X183697061Y-97688376D01*
X184249640Y-96386586D01*
X184267981Y-96256084D01*
X184251920Y-96125282D01*
X184202553Y-96003093D01*
X184197880Y-95991526D01*
X184197873Y-95991513D01*
X182383174Y-91499976D01*
X186733014Y-91499976D01*
X186749075Y-91630778D01*
X191499154Y-103387633D01*
X191512496Y-103420656D01*
X191518487Y-103435484D01*
X191533877Y-103455907D01*
X191591556Y-103532450D01*
X191597796Y-103540730D01*
X191701643Y-103621864D01*
X191822951Y-103673356D01*
X191822953Y-103673356D01*
X192998107Y-104172180D01*
X192998112Y-104172183D01*
X193003431Y-104174440D01*
X193003433Y-104174442D01*
X193124741Y-104225934D01*
X193236899Y-104241696D01*
X193236900Y-104241697D01*
X193239735Y-104242095D01*
X193243413Y-104242612D01*
X193259366Y-104246442D01*
X193271412Y-104246547D01*
X193274851Y-104247030D01*
X193290134Y-104240021D01*
X193292785Y-104239665D01*
X193386045Y-104228214D01*
X195373188Y-103425356D01*
X198296383Y-103425356D01*
X198296383Y-103637929D01*
X198322702Y-103804105D01*
X198329637Y-103847886D01*
X198395322Y-104050044D01*
X198395327Y-104050057D01*
X198491834Y-104239463D01*
X198616773Y-104411429D01*
X198767096Y-104561752D01*
X198939062Y-104686691D01*
X198939064Y-104686692D01*
X198939067Y-104686694D01*
X199128471Y-104783200D01*
X199330640Y-104848889D01*
X199540596Y-104882143D01*
X199540597Y-104882143D01*
X199753169Y-104882143D01*
X199753170Y-104882143D01*
X199963126Y-104848889D01*
X200165295Y-104783200D01*
X200354699Y-104686694D01*
X200399012Y-104654499D01*
X200526669Y-104561752D01*
X200526671Y-104561749D01*
X200526675Y-104561747D01*
X200676987Y-104411435D01*
X200676989Y-104411431D01*
X200676992Y-104411429D01*
X200796861Y-104246442D01*
X200801934Y-104239459D01*
X200898440Y-104050055D01*
X200964129Y-103847886D01*
X200997383Y-103637930D01*
X200997383Y-103425356D01*
X200964129Y-103215400D01*
X200898440Y-103013231D01*
X200801934Y-102823827D01*
X200801932Y-102823824D01*
X200801931Y-102823822D01*
X200676992Y-102651856D01*
X200526669Y-102501533D01*
X200354703Y-102376594D01*
X200165297Y-102280087D01*
X200165296Y-102280086D01*
X200165295Y-102280086D01*
X199963126Y-102214397D01*
X199963124Y-102214396D01*
X199963123Y-102214396D01*
X199801840Y-102188851D01*
X199753170Y-102181143D01*
X199540596Y-102181143D01*
X199491925Y-102188851D01*
X199330643Y-102214396D01*
X199128468Y-102280087D01*
X198939062Y-102376594D01*
X198767096Y-102501533D01*
X198616773Y-102651856D01*
X198491834Y-102823822D01*
X198395327Y-103013228D01*
X198329636Y-103215403D01*
X198296383Y-103425356D01*
X195373188Y-103425356D01*
X204634439Y-99683568D01*
X204700927Y-99633466D01*
X204739686Y-99604259D01*
X204739703Y-99604238D01*
X204820821Y-99500411D01*
X204828566Y-99482165D01*
X205424891Y-98077313D01*
X205443232Y-97946811D01*
X205427171Y-97816009D01*
X205390649Y-97725612D01*
X205373131Y-97682253D01*
X205373124Y-97682240D01*
X205337804Y-97594819D01*
X209687648Y-97594819D01*
X209687648Y-97594821D01*
X209699804Y-97693818D01*
X209703709Y-97725623D01*
X214463309Y-109506043D01*
X214463310Y-109506045D01*
X214473119Y-109530325D01*
X214473122Y-109530330D01*
X214552409Y-109635550D01*
X214552420Y-109635563D01*
X214552421Y-109635564D01*
X214552430Y-109635575D01*
X214656277Y-109716709D01*
X214777585Y-109768201D01*
X214777587Y-109768201D01*
X215952741Y-110267025D01*
X215952746Y-110267028D01*
X215958065Y-110269285D01*
X215958067Y-110269287D01*
X216079375Y-110320779D01*
X216191533Y-110336541D01*
X216191534Y-110336542D01*
X216194369Y-110336940D01*
X216198047Y-110337457D01*
X216214000Y-110341287D01*
X216226046Y-110341392D01*
X216229485Y-110341875D01*
X216244768Y-110334866D01*
X216247419Y-110334510D01*
X216340679Y-110323059D01*
X227589073Y-105778413D01*
X227694321Y-105699103D01*
X227775455Y-105595256D01*
X227788629Y-105564221D01*
X228379525Y-104172158D01*
X228397866Y-104041656D01*
X228381805Y-103910854D01*
X228338676Y-103804105D01*
X228327765Y-103777098D01*
X228327758Y-103777085D01*
X224875202Y-95231708D01*
X229870857Y-95231708D01*
X229880049Y-95363168D01*
X229880050Y-95363171D01*
X229924285Y-95491638D01*
X229924291Y-95491653D01*
X233986801Y-107290046D01*
X233986807Y-107290060D01*
X233995142Y-107314264D01*
X233995143Y-107314268D01*
X234025111Y-107401304D01*
X234025114Y-107401309D01*
X234097314Y-107508350D01*
X234098806Y-107510562D01*
X234198265Y-107597019D01*
X234198266Y-107597019D01*
X234198268Y-107597021D01*
X234329406Y-107660982D01*
X234329414Y-107660985D01*
X234788451Y-107884872D01*
X235587798Y-108274741D01*
X235608849Y-108278832D01*
X235608850Y-108278833D01*
X235608851Y-108278833D01*
X235717161Y-108299887D01*
X235785274Y-108295123D01*
X235848624Y-108290694D01*
X235973229Y-108247789D01*
X235973229Y-108247787D01*
X235996248Y-108239862D01*
X235996252Y-108239859D01*
X247185103Y-104387230D01*
X247185110Y-104387229D01*
X247194848Y-104383876D01*
X247319453Y-104340971D01*
X247428706Y-104267278D01*
X247448702Y-104244275D01*
X247515164Y-104167820D01*
X247515164Y-104167818D01*
X247515166Y-104167817D01*
X247579125Y-104036680D01*
X247579127Y-104036673D01*
X248192885Y-102778285D01*
X248213085Y-102674369D01*
X248218031Y-102648923D01*
X248218030Y-102648902D01*
X248208838Y-102517459D01*
X248197213Y-102483698D01*
X248162783Y-102383704D01*
X248162773Y-102383682D01*
X248160332Y-102376594D01*
X244086172Y-90544368D01*
X244063775Y-90479321D01*
X243990082Y-90370067D01*
X243982238Y-90363248D01*
X243890624Y-90283609D01*
X243890622Y-90283607D01*
X243811636Y-90245084D01*
X243772176Y-90225838D01*
X243772174Y-90225837D01*
X242501090Y-89605887D01*
X242458981Y-89597701D01*
X242371726Y-89580740D01*
X242240264Y-89589933D01*
X242240261Y-89589934D01*
X242111787Y-89634172D01*
X242111779Y-89634175D01*
X230769438Y-93539655D01*
X230660213Y-93613329D01*
X230660182Y-93613350D01*
X230573724Y-93712808D01*
X230520468Y-93821996D01*
X230520459Y-93822014D01*
X229953773Y-94983893D01*
X229953774Y-94983894D01*
X229896003Y-95102342D01*
X229896003Y-95102343D01*
X229881088Y-95179074D01*
X229870857Y-95231708D01*
X224875202Y-95231708D01*
X223612394Y-92106149D01*
X223612386Y-92106139D01*
X223533084Y-92000902D01*
X223429238Y-91919768D01*
X223429237Y-91919767D01*
X223429213Y-91919757D01*
X223391371Y-91903694D01*
X222138440Y-91371855D01*
X222138424Y-91371847D01*
X222006139Y-91315697D01*
X222006134Y-91315696D01*
X221875638Y-91297356D01*
X221744836Y-91313417D01*
X221744834Y-91313417D01*
X221744832Y-91313418D01*
X221620356Y-91363709D01*
X221620347Y-91363711D01*
X221620348Y-91363712D01*
X210519744Y-95848648D01*
X210519743Y-95848647D01*
X210496441Y-95858062D01*
X210496439Y-95858063D01*
X210391194Y-95937372D01*
X210310060Y-96041218D01*
X210310059Y-96041219D01*
X210115207Y-96500262D01*
X209844214Y-97138682D01*
X209757481Y-97343011D01*
X209705989Y-97464319D01*
X209705988Y-97464323D01*
X209687648Y-97594819D01*
X205337804Y-97594819D01*
X200657760Y-86011304D01*
X200653273Y-86005350D01*
X200578450Y-85906057D01*
X200474604Y-85824923D01*
X200474605Y-85824923D01*
X200474603Y-85824922D01*
X200474600Y-85824921D01*
X200474599Y-85824920D01*
X200436761Y-85808858D01*
X200436761Y-85808859D01*
X199183806Y-85277010D01*
X199183790Y-85277002D01*
X199051505Y-85220852D01*
X199051500Y-85220851D01*
X198921004Y-85202511D01*
X198790202Y-85218572D01*
X198790200Y-85218572D01*
X198790198Y-85218573D01*
X198665722Y-85268864D01*
X198665713Y-85268866D01*
X198665714Y-85268867D01*
X187574288Y-89750095D01*
X187541807Y-89763218D01*
X187541806Y-89763218D01*
X187436560Y-89842527D01*
X187355426Y-89946373D01*
X187355425Y-89946374D01*
X187129202Y-90479321D01*
X186860249Y-91112936D01*
X186802847Y-91248166D01*
X186751355Y-91369474D01*
X186751354Y-91369478D01*
X186734193Y-91491585D01*
X186733014Y-91499976D01*
X182383174Y-91499976D01*
X179482509Y-84320577D01*
X179482495Y-84320559D01*
X179403199Y-84215330D01*
X179299350Y-84134193D01*
X179288937Y-84129774D01*
X179288934Y-84129771D01*
X179288934Y-84129773D01*
X178008555Y-83586283D01*
X178008539Y-83586275D01*
X177876254Y-83530125D01*
X177876249Y-83530124D01*
X177745753Y-83511784D01*
X177614951Y-83527845D01*
X177614949Y-83527845D01*
X177614947Y-83527846D01*
X177490471Y-83578137D01*
X177490462Y-83578139D01*
X177490463Y-83578140D01*
X168061765Y-87387582D01*
X166366598Y-88072474D01*
X166366561Y-88072489D01*
X166366560Y-88072488D01*
X166366560Y-88072489D01*
X166366555Y-88072491D01*
X166261309Y-88151800D01*
X166180175Y-88255646D01*
X166180174Y-88255647D01*
X165962616Y-88768182D01*
X165632583Y-89545691D01*
X165627596Y-89557439D01*
X165576104Y-89678747D01*
X165576103Y-89678751D01*
X165557763Y-89809247D01*
X164119959Y-89809247D01*
X163835856Y-89106066D01*
X163835846Y-89106042D01*
X163834241Y-89102068D01*
X163830638Y-89091884D01*
X163826427Y-89078101D01*
X163784474Y-88940795D01*
X163779987Y-88919672D01*
X163761414Y-88768252D01*
X163760663Y-88746662D01*
X163768659Y-88594319D01*
X163771665Y-88572937D01*
X163805987Y-88424292D01*
X163812661Y-88403753D01*
X163872265Y-88263332D01*
X163882408Y-88244254D01*
X163965480Y-88116318D01*
X163978782Y-88099289D01*
X164082810Y-87987708D01*
X164098857Y-87973255D01*
X164220675Y-87881429D01*
X164238989Y-87869981D01*
X164379424Y-87798390D01*
X164389260Y-87793906D01*
X179215112Y-81803871D01*
X179219390Y-81802143D01*
X179219389Y-81802142D01*
X179220520Y-81801685D01*
X179281155Y-81777194D01*
X179281178Y-81777178D01*
X179287735Y-81774529D01*
X179288515Y-81774151D01*
X179340941Y-81752974D01*
X179569188Y-81623852D01*
X179778628Y-81466042D01*
X179965676Y-81282244D01*
X180127132Y-81075602D01*
X180260234Y-80849653D01*
X180362704Y-80608263D01*
X180432788Y-80355564D01*
X180469287Y-80095878D01*
X180471076Y-79890923D01*
X180471576Y-79833659D01*
X180471576Y-79833657D01*
X180471575Y-79833656D01*
X180471576Y-79833649D01*
X180439616Y-79573365D01*
X180373955Y-79319480D01*
X180324836Y-79197909D01*
X180324831Y-79197896D01*
X178177692Y-73883462D01*
X179615478Y-73883462D01*
X179615478Y-73883465D01*
X179630177Y-74003175D01*
X179631539Y-74014267D01*
X184382541Y-85773409D01*
X184396866Y-85808863D01*
X184400950Y-85818971D01*
X184480257Y-85924216D01*
X184480260Y-85924219D01*
X184584107Y-86005353D01*
X184705415Y-86056845D01*
X184705417Y-86056845D01*
X185880571Y-86555669D01*
X185880576Y-86555672D01*
X185885895Y-86557929D01*
X185885897Y-86557931D01*
X186007205Y-86609423D01*
X186119363Y-86625185D01*
X186119364Y-86625186D01*
X186122199Y-86625584D01*
X186125877Y-86626101D01*
X186141830Y-86629931D01*
X186153876Y-86630036D01*
X186157315Y-86630519D01*
X186172598Y-86623510D01*
X186175249Y-86623154D01*
X186268509Y-86611703D01*
X188255608Y-85808863D01*
X191178873Y-85808863D01*
X191178873Y-86021436D01*
X191212125Y-86231385D01*
X191212127Y-86231393D01*
X191277815Y-86433560D01*
X191277817Y-86433564D01*
X191374324Y-86622970D01*
X191499263Y-86794936D01*
X191649586Y-86945259D01*
X191821552Y-87070198D01*
X191821554Y-87070199D01*
X191821557Y-87070201D01*
X192010961Y-87166707D01*
X192213130Y-87232396D01*
X192423086Y-87265650D01*
X192423087Y-87265650D01*
X192635659Y-87265650D01*
X192635660Y-87265650D01*
X192845616Y-87232396D01*
X193047785Y-87166707D01*
X193237189Y-87070201D01*
X193270561Y-87045955D01*
X193409159Y-86945259D01*
X193409161Y-86945256D01*
X193409165Y-86945254D01*
X193559477Y-86794942D01*
X193559479Y-86794938D01*
X193559482Y-86794936D01*
X193680939Y-86627763D01*
X193684424Y-86622966D01*
X193780930Y-86433562D01*
X193846619Y-86231393D01*
X193879873Y-86021437D01*
X193879873Y-85808863D01*
X193846619Y-85598907D01*
X193780930Y-85396738D01*
X193684424Y-85207334D01*
X193684422Y-85207331D01*
X193684421Y-85207329D01*
X193559482Y-85035363D01*
X193409159Y-84885040D01*
X193237193Y-84760101D01*
X193047787Y-84663594D01*
X193047786Y-84663593D01*
X193047785Y-84663593D01*
X192845616Y-84597904D01*
X192845614Y-84597903D01*
X192845613Y-84597903D01*
X192684330Y-84572358D01*
X192635660Y-84564650D01*
X192423086Y-84564650D01*
X192374415Y-84572358D01*
X192213133Y-84597903D01*
X192010958Y-84663594D01*
X191821552Y-84760101D01*
X191649586Y-84885040D01*
X191499263Y-85035363D01*
X191374324Y-85207329D01*
X191277817Y-85396735D01*
X191212126Y-85598910D01*
X191178873Y-85808863D01*
X188255608Y-85808863D01*
X197516903Y-82067057D01*
X197599411Y-82004883D01*
X197622150Y-81987748D01*
X197622153Y-81987745D01*
X197703285Y-81883900D01*
X197727515Y-81826817D01*
X198307355Y-80460802D01*
X198325696Y-80330300D01*
X198309635Y-80199498D01*
X198267770Y-80095878D01*
X198255595Y-80065742D01*
X198255588Y-80065729D01*
X198220270Y-79978314D01*
X202570121Y-79978314D01*
X202586060Y-80108126D01*
X202586180Y-80109102D01*
X202586182Y-80109114D01*
X202586182Y-80109117D01*
X202630394Y-80218546D01*
X207337188Y-91868265D01*
X207337188Y-91868266D01*
X207355590Y-91913814D01*
X207355592Y-91913819D01*
X207360074Y-91919767D01*
X207427452Y-92009181D01*
X207434903Y-92019068D01*
X207538750Y-92100202D01*
X207660058Y-92151694D01*
X207660060Y-92151694D01*
X208835214Y-92650518D01*
X208835219Y-92650521D01*
X208840538Y-92652778D01*
X208840540Y-92652780D01*
X208961848Y-92704272D01*
X209074006Y-92720034D01*
X209074007Y-92720035D01*
X209075075Y-92720185D01*
X209080520Y-92720950D01*
X209096473Y-92724780D01*
X209108519Y-92724885D01*
X209111958Y-92725368D01*
X209127241Y-92718359D01*
X209129892Y-92718003D01*
X209223152Y-92706552D01*
X211210248Y-91903713D01*
X214133500Y-91903713D01*
X214133500Y-92116287D01*
X214166754Y-92326243D01*
X214232437Y-92528395D01*
X214232444Y-92528414D01*
X214328951Y-92717820D01*
X214453890Y-92889786D01*
X214604213Y-93040109D01*
X214776179Y-93165048D01*
X214776181Y-93165049D01*
X214776184Y-93165051D01*
X214965588Y-93261557D01*
X215167757Y-93327246D01*
X215377713Y-93360500D01*
X215377714Y-93360500D01*
X215590286Y-93360500D01*
X215590287Y-93360500D01*
X215800243Y-93327246D01*
X216002412Y-93261557D01*
X216191816Y-93165051D01*
X216213789Y-93149086D01*
X216363786Y-93040109D01*
X216363788Y-93040106D01*
X216363792Y-93040104D01*
X216514104Y-92889792D01*
X216514106Y-92889788D01*
X216514109Y-92889786D01*
X216635566Y-92722613D01*
X216639051Y-92717816D01*
X216735557Y-92528412D01*
X216801246Y-92326243D01*
X216834500Y-92116287D01*
X216834500Y-91903713D01*
X216801246Y-91693757D01*
X216735557Y-91491588D01*
X216639051Y-91302184D01*
X216639049Y-91302181D01*
X216639048Y-91302179D01*
X216514109Y-91130213D01*
X216363786Y-90979890D01*
X216191820Y-90854951D01*
X216002414Y-90758444D01*
X216002413Y-90758443D01*
X216002412Y-90758443D01*
X215800243Y-90692754D01*
X215800241Y-90692753D01*
X215800240Y-90692753D01*
X215629274Y-90665675D01*
X215590287Y-90659500D01*
X215377713Y-90659500D01*
X215338726Y-90665675D01*
X215167760Y-90692753D01*
X215167757Y-90692754D01*
X214965647Y-90758424D01*
X214965585Y-90758444D01*
X214776179Y-90854951D01*
X214604213Y-90979890D01*
X214453890Y-91130213D01*
X214328951Y-91302179D01*
X214232444Y-91491585D01*
X214166753Y-91693760D01*
X214139115Y-91868264D01*
X214133500Y-91903713D01*
X211210248Y-91903713D01*
X220471546Y-88161906D01*
X220484980Y-88151783D01*
X220576793Y-88082597D01*
X220581247Y-88076897D01*
X220584690Y-88072491D01*
X220657925Y-87978753D01*
X220657925Y-87978752D01*
X220657928Y-87978749D01*
X220661172Y-87971106D01*
X221261998Y-86555651D01*
X221280339Y-86425149D01*
X221264278Y-86294347D01*
X221214911Y-86172158D01*
X221210238Y-86160591D01*
X221210231Y-86160578D01*
X217616926Y-77266836D01*
X223685054Y-77266836D01*
X223685054Y-77266838D01*
X223685054Y-77266839D01*
X223689522Y-77330728D01*
X223694247Y-77398301D01*
X223694247Y-77398304D01*
X223738482Y-77526771D01*
X223738487Y-77526785D01*
X223755532Y-77576285D01*
X227839308Y-89436437D01*
X227839311Y-89436442D01*
X227904437Y-89532995D01*
X227913003Y-89545695D01*
X228012462Y-89632152D01*
X228012463Y-89632152D01*
X228012465Y-89632154D01*
X228143603Y-89696115D01*
X228143611Y-89696118D01*
X228443755Y-89842508D01*
X229401995Y-90309874D01*
X229423046Y-90313965D01*
X229423047Y-90313966D01*
X229423048Y-90313966D01*
X229531358Y-90335020D01*
X229599471Y-90330256D01*
X229662821Y-90325827D01*
X229787426Y-90282922D01*
X229787426Y-90282920D01*
X229810445Y-90274995D01*
X229810449Y-90274992D01*
X231040066Y-89851601D01*
X234601047Y-89851601D01*
X234601047Y-90064175D01*
X234611081Y-90127532D01*
X234634295Y-90274098D01*
X234634301Y-90274131D01*
X234699981Y-90476273D01*
X234699991Y-90476302D01*
X234796498Y-90665708D01*
X234921437Y-90837674D01*
X235071760Y-90987997D01*
X235243726Y-91112936D01*
X235243728Y-91112937D01*
X235243731Y-91112939D01*
X235433135Y-91209445D01*
X235635304Y-91275134D01*
X235845260Y-91308388D01*
X235845261Y-91308388D01*
X236057833Y-91308388D01*
X236057834Y-91308388D01*
X236267790Y-91275134D01*
X236469959Y-91209445D01*
X236659363Y-91112939D01*
X236727390Y-91063515D01*
X236831333Y-90987997D01*
X236831335Y-90987994D01*
X236831339Y-90987992D01*
X236981651Y-90837680D01*
X236981653Y-90837676D01*
X236981656Y-90837674D01*
X237106595Y-90665708D01*
X237106594Y-90665708D01*
X237106598Y-90665704D01*
X237203104Y-90476300D01*
X237268793Y-90274131D01*
X237302047Y-90064175D01*
X237302047Y-89851601D01*
X237268793Y-89641645D01*
X237203104Y-89439476D01*
X237106598Y-89250072D01*
X237106596Y-89250069D01*
X237106595Y-89250067D01*
X236981656Y-89078101D01*
X236831333Y-88927778D01*
X236659367Y-88802839D01*
X236469961Y-88706332D01*
X236469960Y-88706331D01*
X236469959Y-88706331D01*
X236267790Y-88640642D01*
X236267788Y-88640641D01*
X236267787Y-88640641D01*
X236106504Y-88615096D01*
X236057834Y-88607388D01*
X235845260Y-88607388D01*
X235796589Y-88615096D01*
X235635307Y-88640641D01*
X235433132Y-88706332D01*
X235243726Y-88802839D01*
X235071760Y-88927778D01*
X234921437Y-89078101D01*
X234796498Y-89250067D01*
X234699991Y-89439473D01*
X234634300Y-89641648D01*
X234602488Y-89842503D01*
X234601047Y-89851601D01*
X231040066Y-89851601D01*
X240999300Y-86422363D01*
X240999307Y-86422362D01*
X241009045Y-86419009D01*
X241133650Y-86376104D01*
X241242903Y-86302411D01*
X241249925Y-86294333D01*
X241329361Y-86202953D01*
X241387132Y-86084505D01*
X241387133Y-86084502D01*
X242007082Y-84813418D01*
X242032228Y-84684055D01*
X242023035Y-84552592D01*
X242023034Y-84552589D01*
X241976980Y-84418837D01*
X241976970Y-84418815D01*
X241906898Y-84215312D01*
X241742276Y-83737214D01*
X247464732Y-83737214D01*
X250511114Y-95955583D01*
X250521057Y-95995460D01*
X250521057Y-95995463D01*
X250521058Y-95995463D01*
X250544830Y-96090811D01*
X250563938Y-96125282D01*
X250608721Y-96206073D01*
X250700266Y-96300870D01*
X250813227Y-96368745D01*
X250813230Y-96368746D01*
X252025444Y-97097118D01*
X252152123Y-97133443D01*
X252268118Y-97135467D01*
X252284403Y-97137829D01*
X252300212Y-97136028D01*
X252301534Y-97136051D01*
X252316687Y-97127565D01*
X252438803Y-97097118D01*
X263910292Y-94236952D01*
X263910304Y-94236952D01*
X263979506Y-94219697D01*
X264055306Y-94200798D01*
X264170567Y-94136908D01*
X264181696Y-94126161D01*
X264265364Y-94045364D01*
X264333238Y-93932402D01*
X264333238Y-93932401D01*
X264993751Y-92833126D01*
X265061612Y-92720185D01*
X265097937Y-92593506D01*
X265100237Y-92461742D01*
X262051057Y-80232153D01*
X262020139Y-80108146D01*
X261956249Y-79992885D01*
X261864704Y-79898088D01*
X261845452Y-79886520D01*
X261781038Y-79847816D01*
X261758245Y-79834120D01*
X261758243Y-79834119D01*
X260539525Y-79101839D01*
X260412852Y-79065516D01*
X260412848Y-79065515D01*
X260412847Y-79065515D01*
X260394023Y-79065186D01*
X260281089Y-79063215D01*
X260281085Y-79063215D01*
X260281084Y-79063215D01*
X260281083Y-79063215D01*
X260281082Y-79063215D01*
X255725983Y-80198929D01*
X248637535Y-81966277D01*
X248637535Y-81966278D01*
X248637534Y-81966278D01*
X248509664Y-81998160D01*
X248509663Y-81998160D01*
X248509661Y-81998161D01*
X248394405Y-82062048D01*
X248394403Y-82062050D01*
X248299606Y-82153595D01*
X247571245Y-83365791D01*
X247503357Y-83478775D01*
X247503355Y-83478779D01*
X247467034Y-83605443D01*
X247467033Y-83605452D01*
X247464732Y-83737214D01*
X241742276Y-83737214D01*
X240033775Y-78775366D01*
X252633710Y-78775366D01*
X252633710Y-78987939D01*
X252666963Y-79197892D01*
X252666963Y-79197894D01*
X252666964Y-79197896D01*
X252706474Y-79319496D01*
X252732654Y-79400067D01*
X252829161Y-79589473D01*
X252954100Y-79761439D01*
X253104423Y-79911762D01*
X253276389Y-80036701D01*
X253276391Y-80036702D01*
X253276394Y-80036704D01*
X253465798Y-80133210D01*
X253667967Y-80198899D01*
X253877923Y-80232153D01*
X253877924Y-80232153D01*
X254090496Y-80232153D01*
X254090497Y-80232153D01*
X254300453Y-80198899D01*
X254502622Y-80133210D01*
X254692026Y-80036704D01*
X254713999Y-80020739D01*
X254863996Y-79911762D01*
X254863998Y-79911759D01*
X254864002Y-79911757D01*
X255014314Y-79761445D01*
X255014318Y-79761440D01*
X255014319Y-79761439D01*
X255139258Y-79589473D01*
X255139260Y-79589470D01*
X255139261Y-79589469D01*
X255235767Y-79400065D01*
X255301456Y-79197896D01*
X255334710Y-78987940D01*
X255334710Y-78775366D01*
X255301456Y-78565410D01*
X255235767Y-78363241D01*
X255139261Y-78173837D01*
X255139259Y-78173834D01*
X255139258Y-78173832D01*
X255014319Y-78001866D01*
X254863996Y-77851543D01*
X254692030Y-77726604D01*
X254502624Y-77630097D01*
X254502623Y-77630096D01*
X254502622Y-77630096D01*
X254300453Y-77564407D01*
X254300451Y-77564406D01*
X254300450Y-77564406D01*
X254122684Y-77536251D01*
X254090497Y-77531153D01*
X253877923Y-77531153D01*
X253845736Y-77536251D01*
X253667970Y-77564406D01*
X253465795Y-77630097D01*
X253276389Y-77726604D01*
X253104423Y-77851543D01*
X252954100Y-78001866D01*
X252829161Y-78173832D01*
X252732654Y-78363238D01*
X252666963Y-78565413D01*
X252633710Y-78775366D01*
X240033775Y-78775366D01*
X237897624Y-72571529D01*
X237897623Y-72571525D01*
X237877973Y-72514455D01*
X237877970Y-72514450D01*
X237804280Y-72405201D01*
X237804281Y-72405201D01*
X237785100Y-72388528D01*
X237704819Y-72318740D01*
X237625243Y-72279929D01*
X237586373Y-72260971D01*
X237586371Y-72260970D01*
X236315287Y-71641020D01*
X236273178Y-71632834D01*
X236185923Y-71615873D01*
X236054461Y-71625066D01*
X236054458Y-71625067D01*
X235925984Y-71669305D01*
X235925976Y-71669308D01*
X224583635Y-75574788D01*
X224474386Y-75648478D01*
X224474379Y-75648483D01*
X224387921Y-75747941D01*
X224334667Y-75857126D01*
X224334662Y-75857135D01*
X223745861Y-77064361D01*
X223745860Y-77064361D01*
X223710201Y-77137471D01*
X223710200Y-77137475D01*
X223686592Y-77258926D01*
X223685556Y-77262868D01*
X223685054Y-77266836D01*
X217616926Y-77266836D01*
X216494867Y-74489642D01*
X216429257Y-74402576D01*
X216415557Y-74384395D01*
X216311711Y-74303261D01*
X216311712Y-74303261D01*
X216311710Y-74303260D01*
X216311707Y-74303258D01*
X216311704Y-74303257D01*
X216229269Y-74268265D01*
X216229269Y-74268266D01*
X215020913Y-73755348D01*
X215020897Y-73755340D01*
X214888612Y-73699190D01*
X214888607Y-73699189D01*
X214758111Y-73680849D01*
X214627309Y-73696910D01*
X214627307Y-73696910D01*
X214627305Y-73696911D01*
X214502829Y-73747202D01*
X214502820Y-73747204D01*
X214502821Y-73747205D01*
X206085746Y-77147925D01*
X203378946Y-78241543D01*
X203378914Y-78241556D01*
X203378912Y-78241557D01*
X203273667Y-78320865D01*
X203192533Y-78424711D01*
X203192532Y-78424712D01*
X203043688Y-78775366D01*
X202698120Y-79589474D01*
X202639954Y-79726504D01*
X202588462Y-79847812D01*
X202588461Y-79847816D01*
X202579381Y-79912423D01*
X202570121Y-79978314D01*
X198220270Y-79978314D01*
X193540224Y-68394793D01*
X193520998Y-68369280D01*
X193460914Y-68289546D01*
X193357065Y-68208409D01*
X193357063Y-68208408D01*
X193346690Y-68204006D01*
X193346689Y-68204005D01*
X193346685Y-68204004D01*
X192437592Y-67818116D01*
X192066270Y-67660499D01*
X192066254Y-67660491D01*
X191933969Y-67604341D01*
X191933964Y-67604340D01*
X191803468Y-67586000D01*
X191672666Y-67602061D01*
X191672664Y-67602061D01*
X191672662Y-67602062D01*
X191548186Y-67652353D01*
X191548177Y-67652355D01*
X191548178Y-67652356D01*
X180428722Y-72144908D01*
X180428721Y-72144909D01*
X180424271Y-72146707D01*
X180424270Y-72146708D01*
X180424265Y-72146711D01*
X180319027Y-72226013D01*
X180319024Y-72226016D01*
X180237890Y-72329862D01*
X180237889Y-72329863D01*
X179965118Y-72972470D01*
X179695658Y-73607280D01*
X179685311Y-73631655D01*
X179633819Y-73752963D01*
X179633818Y-73752967D01*
X179615478Y-73883462D01*
X178177692Y-73883462D01*
X177891936Y-73176182D01*
X177888324Y-73165980D01*
X177880971Y-73141925D01*
X177842163Y-73014969D01*
X177837673Y-72993843D01*
X177819085Y-72842428D01*
X177818332Y-72820846D01*
X177826317Y-72668505D01*
X177829325Y-72647107D01*
X177859950Y-72514455D01*
X177863637Y-72498478D01*
X177870315Y-72477927D01*
X177929912Y-72337510D01*
X177940056Y-72318433D01*
X177940287Y-72318077D01*
X178023131Y-72190495D01*
X178036425Y-72173477D01*
X178140462Y-72061897D01*
X178156504Y-72047450D01*
X178278335Y-71955626D01*
X178296643Y-71944184D01*
X178436683Y-71872812D01*
X178446514Y-71868331D01*
X193338234Y-65851678D01*
X193338235Y-65851676D01*
X193345425Y-65848772D01*
X193346213Y-65848390D01*
X193398669Y-65827200D01*
X193626916Y-65698077D01*
X193836355Y-65540266D01*
X194023403Y-65356467D01*
X194184860Y-65149826D01*
X194317962Y-64923877D01*
X194420433Y-64682488D01*
X194490519Y-64429788D01*
X194527021Y-64170103D01*
X194528823Y-63963880D01*
X194529313Y-63907879D01*
X194529313Y-63907871D01*
X194512374Y-63769901D01*
X194497358Y-63647590D01*
X194431701Y-63393704D01*
X194411740Y-63344298D01*
X194411735Y-63344282D01*
X194407268Y-63333225D01*
X194407268Y-63333224D01*
X194014798Y-62361818D01*
X195452610Y-62361818D01*
X195458437Y-62409276D01*
X195468671Y-62492620D01*
X200218126Y-74247930D01*
X200218126Y-74247931D01*
X200238079Y-74297318D01*
X200238081Y-74297323D01*
X200242553Y-74303257D01*
X200313580Y-74397514D01*
X200317392Y-74402572D01*
X200421239Y-74483706D01*
X200542547Y-74535198D01*
X200542549Y-74535198D01*
X201717703Y-75034022D01*
X201717708Y-75034025D01*
X201723027Y-75036282D01*
X201723029Y-75036284D01*
X201844337Y-75087776D01*
X201956495Y-75103538D01*
X201956496Y-75103539D01*
X201959331Y-75103937D01*
X201963009Y-75104454D01*
X201978962Y-75108284D01*
X201991008Y-75108389D01*
X201994447Y-75108872D01*
X202009730Y-75101863D01*
X202012381Y-75101507D01*
X202105641Y-75090056D01*
X204092794Y-74287194D01*
X207015987Y-74287194D01*
X207015987Y-74499768D01*
X207049241Y-74709724D01*
X207098064Y-74859986D01*
X207114931Y-74911895D01*
X207211438Y-75101301D01*
X207336377Y-75273267D01*
X207486700Y-75423590D01*
X207658666Y-75548529D01*
X207658668Y-75548530D01*
X207658671Y-75548532D01*
X207848075Y-75645038D01*
X208050244Y-75710727D01*
X208260200Y-75743981D01*
X208260201Y-75743981D01*
X208472773Y-75743981D01*
X208472774Y-75743981D01*
X208682730Y-75710727D01*
X208884899Y-75645038D01*
X209074303Y-75548532D01*
X209145560Y-75496761D01*
X209246273Y-75423590D01*
X209246275Y-75423587D01*
X209246279Y-75423585D01*
X209396591Y-75273273D01*
X209396593Y-75273269D01*
X209396596Y-75273267D01*
X209516462Y-75108284D01*
X209521538Y-75101297D01*
X209618044Y-74911893D01*
X209683733Y-74709724D01*
X209716987Y-74499768D01*
X209716987Y-74287194D01*
X209683733Y-74077238D01*
X209618044Y-73875069D01*
X209521538Y-73685665D01*
X209521536Y-73685662D01*
X209521535Y-73685660D01*
X209396596Y-73513694D01*
X209246273Y-73363371D01*
X209074307Y-73238432D01*
X208884901Y-73141925D01*
X208884900Y-73141924D01*
X208884899Y-73141924D01*
X208682730Y-73076235D01*
X208682728Y-73076234D01*
X208682727Y-73076234D01*
X208521444Y-73050689D01*
X208472774Y-73042981D01*
X208260200Y-73042981D01*
X208211529Y-73050689D01*
X208050247Y-73076234D01*
X207848072Y-73141925D01*
X207658666Y-73238432D01*
X207486700Y-73363371D01*
X207336377Y-73513694D01*
X207211438Y-73685660D01*
X207114931Y-73875066D01*
X207049240Y-74077241D01*
X207022206Y-74247930D01*
X207015987Y-74287194D01*
X204092794Y-74287194D01*
X213354035Y-70545410D01*
X213459283Y-70466100D01*
X213540417Y-70362253D01*
X213591909Y-70240945D01*
X213591908Y-70240945D01*
X214144487Y-68939155D01*
X214162828Y-68808653D01*
X214146767Y-68677851D01*
X214097400Y-68555662D01*
X214092727Y-68544095D01*
X214092720Y-68544082D01*
X211285187Y-61595193D01*
X213766570Y-61595193D01*
X213766570Y-61807766D01*
X213799820Y-62017703D01*
X213799824Y-62017723D01*
X213865507Y-62219874D01*
X213865514Y-62219894D01*
X213962021Y-62409300D01*
X214086960Y-62581266D01*
X214237283Y-62731589D01*
X214409249Y-62856528D01*
X214409251Y-62856529D01*
X214409254Y-62856531D01*
X214598658Y-62953037D01*
X214800827Y-63018726D01*
X215010783Y-63051980D01*
X215010784Y-63051980D01*
X215223356Y-63051980D01*
X215223357Y-63051980D01*
X215433313Y-63018726D01*
X215635482Y-62953037D01*
X215824886Y-62856531D01*
X215846859Y-62840566D01*
X215996856Y-62731589D01*
X215996858Y-62731586D01*
X215996862Y-62731584D01*
X216147174Y-62581272D01*
X216147176Y-62581268D01*
X216147179Y-62581266D01*
X216272118Y-62409300D01*
X216272117Y-62409300D01*
X216272121Y-62409296D01*
X216368627Y-62219892D01*
X216434316Y-62017723D01*
X216467570Y-61807767D01*
X216467570Y-61595193D01*
X216434316Y-61385237D01*
X216368627Y-61183068D01*
X216272121Y-60993664D01*
X216272119Y-60993661D01*
X216272118Y-60993659D01*
X216147179Y-60821693D01*
X215996856Y-60671370D01*
X215824890Y-60546431D01*
X215635484Y-60449924D01*
X215635483Y-60449923D01*
X215635482Y-60449923D01*
X215433313Y-60384234D01*
X215433311Y-60384233D01*
X215433310Y-60384233D01*
X215272027Y-60358688D01*
X215223357Y-60350980D01*
X215010783Y-60350980D01*
X214962112Y-60358688D01*
X214800830Y-60384233D01*
X214800827Y-60384234D01*
X214598717Y-60449904D01*
X214598655Y-60449924D01*
X214409249Y-60546431D01*
X214237283Y-60671370D01*
X214086960Y-60821693D01*
X213962021Y-60993659D01*
X213865514Y-61183065D01*
X213799823Y-61385240D01*
X213766570Y-61595193D01*
X211285187Y-61595193D01*
X210358674Y-59301994D01*
X217499267Y-59301994D01*
X217508460Y-59433456D01*
X217508461Y-59433459D01*
X217552696Y-59561926D01*
X217552701Y-59561940D01*
X217586158Y-59659104D01*
X221653522Y-71471592D01*
X221653525Y-71471597D01*
X221727204Y-71580831D01*
X221727217Y-71580850D01*
X221826676Y-71667307D01*
X221826677Y-71667307D01*
X221826679Y-71667309D01*
X221957817Y-71731270D01*
X221957825Y-71731273D01*
X222248035Y-71872818D01*
X223216209Y-72345029D01*
X223237260Y-72349120D01*
X223237261Y-72349121D01*
X223237262Y-72349121D01*
X223345572Y-72370175D01*
X223413685Y-72365411D01*
X223477035Y-72360982D01*
X223601640Y-72318077D01*
X223601640Y-72318075D01*
X223624659Y-72310150D01*
X223624663Y-72310147D01*
X224854359Y-71886729D01*
X228415243Y-71886729D01*
X228415243Y-72099303D01*
X228422751Y-72146705D01*
X228448495Y-72309250D01*
X228448497Y-72309259D01*
X228509979Y-72498481D01*
X228514187Y-72511430D01*
X228610694Y-72700836D01*
X228735633Y-72872802D01*
X228885956Y-73023125D01*
X229057922Y-73148064D01*
X229057924Y-73148065D01*
X229057927Y-73148067D01*
X229247331Y-73244573D01*
X229449500Y-73310262D01*
X229659456Y-73343516D01*
X229659457Y-73343516D01*
X229872029Y-73343516D01*
X229872030Y-73343516D01*
X230081986Y-73310262D01*
X230284155Y-73244573D01*
X230473559Y-73148067D01*
X230541554Y-73098666D01*
X230645529Y-73023125D01*
X230645531Y-73023122D01*
X230645535Y-73023120D01*
X230795847Y-72872808D01*
X230795849Y-72872804D01*
X230795852Y-72872802D01*
X230920791Y-72700836D01*
X230920790Y-72700836D01*
X230920794Y-72700832D01*
X231017300Y-72511428D01*
X231082989Y-72309259D01*
X231116243Y-72099303D01*
X231116243Y-71886729D01*
X231082989Y-71676773D01*
X231017300Y-71474604D01*
X230920794Y-71285200D01*
X230920792Y-71285197D01*
X230920791Y-71285195D01*
X230795852Y-71113229D01*
X230645529Y-70962906D01*
X230473563Y-70837967D01*
X230284157Y-70741460D01*
X230284156Y-70741459D01*
X230284155Y-70741459D01*
X230081986Y-70675770D01*
X230081984Y-70675769D01*
X230081983Y-70675769D01*
X229920700Y-70650224D01*
X229872030Y-70642516D01*
X229659456Y-70642516D01*
X229610785Y-70650224D01*
X229449503Y-70675769D01*
X229247328Y-70741460D01*
X229057922Y-70837967D01*
X228885956Y-70962906D01*
X228735633Y-71113229D01*
X228610694Y-71285195D01*
X228514187Y-71474601D01*
X228448496Y-71676776D01*
X228439865Y-71731270D01*
X228415243Y-71886729D01*
X224854359Y-71886729D01*
X234813514Y-68457518D01*
X234813521Y-68457517D01*
X234823259Y-68454164D01*
X234947864Y-68411259D01*
X235057117Y-68337566D01*
X235064694Y-68328848D01*
X235076294Y-68315507D01*
X235114331Y-68271748D01*
X235143575Y-68238108D01*
X235201346Y-68119660D01*
X235201346Y-68119659D01*
X235207536Y-68106968D01*
X235207538Y-68106961D01*
X235821296Y-66848573D01*
X235846442Y-66719210D01*
X235844675Y-66693948D01*
X235837249Y-66587747D01*
X235837248Y-66587744D01*
X235791194Y-66453992D01*
X235791184Y-66453970D01*
X235762843Y-66371663D01*
X235482522Y-65557552D01*
X238335458Y-65557552D01*
X238335458Y-65770125D01*
X238352282Y-65876351D01*
X238368712Y-65980082D01*
X238368713Y-65980086D01*
X238434402Y-66182253D01*
X238530909Y-66371659D01*
X238655848Y-66543625D01*
X238806171Y-66693948D01*
X238978137Y-66818887D01*
X238978139Y-66818888D01*
X238978142Y-66818890D01*
X239167546Y-66915396D01*
X239369715Y-66981085D01*
X239579671Y-67014339D01*
X239579672Y-67014339D01*
X239792244Y-67014339D01*
X239792245Y-67014339D01*
X240002201Y-66981085D01*
X240204370Y-66915396D01*
X240393774Y-66818890D01*
X240530973Y-66719210D01*
X240565744Y-66693948D01*
X240565746Y-66693945D01*
X240565750Y-66693943D01*
X240716062Y-66543631D01*
X240716064Y-66543627D01*
X240716067Y-66543625D01*
X240841006Y-66371659D01*
X240841005Y-66371659D01*
X240841009Y-66371655D01*
X240937515Y-66182251D01*
X241003204Y-65980082D01*
X241036458Y-65770126D01*
X241036458Y-65557552D01*
X241003204Y-65347596D01*
X240988250Y-65301574D01*
X242868204Y-65301574D01*
X245643408Y-76432306D01*
X245916421Y-77527300D01*
X245916421Y-77527302D01*
X245918652Y-77536251D01*
X245928633Y-77576284D01*
X245948302Y-77655171D01*
X246012191Y-77770430D01*
X246012193Y-77770433D01*
X246103738Y-77865230D01*
X246216699Y-77933105D01*
X246216702Y-77933106D01*
X247428916Y-78661478D01*
X247555595Y-78697803D01*
X247671590Y-78699827D01*
X247687875Y-78702189D01*
X247703684Y-78700388D01*
X247705006Y-78700411D01*
X247720159Y-78691925D01*
X247842275Y-78661478D01*
X259313764Y-75801312D01*
X259313776Y-75801312D01*
X259382978Y-75784057D01*
X259458778Y-75765158D01*
X259574039Y-75701268D01*
X259585147Y-75690541D01*
X259668836Y-75609724D01*
X259736710Y-75496762D01*
X259736710Y-75496761D01*
X260400118Y-74392668D01*
X260465084Y-74284545D01*
X260501409Y-74157866D01*
X260503709Y-74026102D01*
X257423611Y-61672506D01*
X257359721Y-61557245D01*
X257268176Y-61462448D01*
X257268175Y-61462447D01*
X257268173Y-61462445D01*
X257161718Y-61398480D01*
X257161715Y-61398478D01*
X257161715Y-61398479D01*
X255942997Y-60666199D01*
X255816324Y-60629876D01*
X255816320Y-60629875D01*
X255816319Y-60629875D01*
X255797495Y-60629546D01*
X255684561Y-60627575D01*
X255684557Y-60627575D01*
X255684556Y-60627575D01*
X255684555Y-60627575D01*
X255684554Y-60627575D01*
X251315295Y-61716954D01*
X244041007Y-63530637D01*
X244041007Y-63530638D01*
X244041006Y-63530638D01*
X243913136Y-63562520D01*
X243913135Y-63562520D01*
X243913133Y-63562521D01*
X243797877Y-63626408D01*
X243703078Y-63717955D01*
X243641954Y-63819683D01*
X242949012Y-64972931D01*
X242906830Y-65043132D01*
X242906828Y-65043138D01*
X242870506Y-65169806D01*
X242870505Y-65169812D01*
X242868204Y-65301574D01*
X240988250Y-65301574D01*
X240937515Y-65145427D01*
X240841009Y-64956023D01*
X240841007Y-64956020D01*
X240841006Y-64956018D01*
X240716067Y-64784052D01*
X240565744Y-64633729D01*
X240393778Y-64508790D01*
X240204372Y-64412283D01*
X240204371Y-64412282D01*
X240204370Y-64412282D01*
X240002201Y-64346593D01*
X240002199Y-64346592D01*
X240002198Y-64346592D01*
X239840915Y-64321047D01*
X239792245Y-64313339D01*
X239579671Y-64313339D01*
X239531000Y-64321047D01*
X239369718Y-64346592D01*
X239167543Y-64412283D01*
X238978137Y-64508790D01*
X238806171Y-64633729D01*
X238655848Y-64784052D01*
X238530909Y-64956018D01*
X238434402Y-65145424D01*
X238368711Y-65347599D01*
X238335458Y-65557552D01*
X235482522Y-65557552D01*
X233799218Y-60668877D01*
X231692187Y-54549611D01*
X231692186Y-54549609D01*
X231618493Y-54440355D01*
X231519035Y-54353897D01*
X231519033Y-54353895D01*
X231440047Y-54315372D01*
X231400587Y-54296126D01*
X231400585Y-54296125D01*
X230129501Y-53676175D01*
X230087392Y-53667989D01*
X230000137Y-53651028D01*
X229868675Y-53660221D01*
X229868672Y-53660222D01*
X229740198Y-53704460D01*
X229740190Y-53704463D01*
X218484929Y-57579957D01*
X218484925Y-57579961D01*
X218476173Y-57582975D01*
X218476168Y-57582977D01*
X218397848Y-57609944D01*
X218288617Y-57683622D01*
X218288593Y-57683638D01*
X218202135Y-57783096D01*
X218148881Y-57892281D01*
X218148876Y-57892290D01*
X217524413Y-59172633D01*
X217499267Y-59301994D01*
X210358674Y-59301994D01*
X209377356Y-56873146D01*
X209298046Y-56767899D01*
X209194211Y-56686773D01*
X209194197Y-56686762D01*
X209183824Y-56682360D01*
X209183821Y-56682357D01*
X209183821Y-56682359D01*
X207903402Y-56138852D01*
X207903386Y-56138844D01*
X207771101Y-56082694D01*
X207771096Y-56082693D01*
X207640600Y-56064353D01*
X207509798Y-56080414D01*
X207509796Y-56080414D01*
X207509794Y-56080415D01*
X207385318Y-56130706D01*
X207385309Y-56130708D01*
X207385310Y-56130709D01*
X196288379Y-60614160D01*
X196288379Y-60614161D01*
X196277694Y-60618477D01*
X196261399Y-60625061D01*
X196156156Y-60704369D01*
X196075022Y-60808215D01*
X196075021Y-60808216D01*
X195931278Y-61146854D01*
X195561616Y-62017723D01*
X195522443Y-62110008D01*
X195470951Y-62231316D01*
X195470950Y-62231320D01*
X195465375Y-62270991D01*
X195452610Y-62361818D01*
X194014798Y-62361818D01*
X193755224Y-61719345D01*
X193755196Y-61719255D01*
X193729059Y-61654563D01*
X193725448Y-61644367D01*
X193679260Y-61493297D01*
X193674767Y-61472156D01*
X193673575Y-61462448D01*
X193656175Y-61320762D01*
X193655421Y-61299168D01*
X193663402Y-61146842D01*
X193666409Y-61125442D01*
X193696829Y-60993664D01*
X193700721Y-60976804D01*
X193707395Y-60956263D01*
X193766994Y-60815844D01*
X193777136Y-60796769D01*
X193860214Y-60668832D01*
X193873511Y-60651812D01*
X193977543Y-60540242D01*
X193993591Y-60525790D01*
X194115416Y-60433981D01*
X194133739Y-60422530D01*
X194273872Y-60351119D01*
X194283693Y-60346643D01*
X208682276Y-54529239D01*
X208682277Y-54529239D01*
X208738355Y-54506581D01*
X208748528Y-54502979D01*
X208899619Y-54456785D01*
X208920744Y-54452295D01*
X209072159Y-54433703D01*
X209093741Y-54432950D01*
X209246074Y-54440933D01*
X209267471Y-54443940D01*
X209415968Y-54478223D01*
X209416094Y-54478252D01*
X209436651Y-54484931D01*
X209577064Y-54544532D01*
X209596141Y-54554676D01*
X209724068Y-54637752D01*
X209741100Y-54651059D01*
X209852654Y-54755084D01*
X209867117Y-54771146D01*
X209958913Y-54892961D01*
X209970367Y-54911291D01*
X210042054Y-55051982D01*
X210046541Y-55061827D01*
X210856964Y-57067691D01*
X210857000Y-57067799D01*
X210884350Y-57135471D01*
X210884352Y-57135484D01*
X210884355Y-57135484D01*
X210911835Y-57203499D01*
X210912260Y-57204382D01*
X210931890Y-57252891D01*
X210931914Y-57252950D01*
X210975673Y-57331071D01*
X211055772Y-57474068D01*
X211206542Y-57677794D01*
X211206582Y-57677836D01*
X211307343Y-57783082D01*
X211381814Y-57860867D01*
X211578784Y-58020363D01*
X211794305Y-58153730D01*
X212024931Y-58258838D01*
X212217918Y-58318770D01*
X212266969Y-58334003D01*
X212266971Y-58334003D01*
X212266976Y-58334005D01*
X212516571Y-58378031D01*
X212769727Y-58390212D01*
X213022396Y-58370353D01*
X213270540Y-58318771D01*
X213320140Y-58301723D01*
X213320772Y-58301552D01*
X213382928Y-58280149D01*
X213382948Y-58280142D01*
X213390383Y-58277582D01*
X213390384Y-58277583D01*
X213452689Y-58256140D01*
X213452690Y-58256138D01*
X213460724Y-58253374D01*
X213460873Y-58253310D01*
X231111008Y-52175861D01*
X231111062Y-52175848D01*
X231120769Y-52172505D01*
X231120771Y-52172505D01*
X231177959Y-52152809D01*
X231188313Y-52149742D01*
X231327433Y-52115050D01*
X231341589Y-52111520D01*
X231362936Y-52108137D01*
X231515097Y-52097492D01*
X231536709Y-52097869D01*
G37*
%TD.AperFunction*%
M02*
