%TF.GenerationSoftware,KiCad,Pcbnew,8.0.6-1.fc41*%
%TF.CreationDate,2024-11-30T14:56:56+11:00*%
%TF.ProjectId,katori-plate,6b61746f-7269-42d7-906c-6174652e6b69,0.1*%
%TF.SameCoordinates,Original*%
%TF.FileFunction,Profile,NP*%
%FSLAX46Y46*%
G04 Gerber Fmt 4.6, Leading zero omitted, Abs format (unit mm)*
G04 Created by KiCad (PCBNEW 8.0.6-1.fc41) date 2024-11-30 14:56:56*
%MOMM*%
%LPD*%
G01*
G04 APERTURE LIST*
%TA.AperFunction,Profile*%
%ADD10C,0.150000*%
%TD*%
%TA.AperFunction,Profile*%
%ADD11C,0.050000*%
%TD*%
%TA.AperFunction,Profile*%
%ADD12C,0.100000*%
%TD*%
G04 APERTURE END LIST*
D10*
X79821869Y-109343128D02*
X80531161Y-107283172D01*
X213227506Y-57804327D02*
X231020100Y-51677826D01*
X165425809Y-108382664D02*
G75*
G02*
X167309945Y-104720412I4019891J247664D01*
G01*
X202094925Y-148164575D02*
G75*
G02*
X202923762Y-146211810I1390775J561975D01*
G01*
X55608034Y-58753118D02*
X74499651Y-63463310D01*
X238112778Y-63463341D02*
X257004392Y-58753127D01*
X127107551Y-156754829D02*
G75*
G02*
X125154871Y-157583651I-1390751J561929D01*
G01*
X110690806Y-151739848D02*
G75*
G02*
X109861883Y-149787124I562194J1390948D01*
G01*
X110517484Y-148164575D02*
X109861927Y-149787142D01*
X238112778Y-63463341D02*
G75*
G02*
X236331620Y-62496234I-362878J1455441D01*
G01*
X164196977Y-87331788D02*
X179031924Y-81338077D01*
X46511765Y-95236222D02*
X61956869Y-99087119D01*
X208555880Y-54040500D02*
G75*
G02*
X210508595Y-54869368I561920J-1390800D01*
G01*
X187457556Y-157583676D02*
G75*
G02*
X185504888Y-156754815I-561856J1390876D01*
G01*
X119522755Y-65412293D02*
X134357701Y-71406024D01*
X53789703Y-59845668D02*
G75*
G02*
X55608020Y-58753175I1455297J-362732D01*
G01*
X211470090Y-120648995D02*
X218587611Y-138265503D01*
X231020100Y-51677826D02*
G75*
G02*
X232926735Y-52607778I488400J-1418174D01*
G01*
X187457556Y-157583676D02*
X201921634Y-151739836D01*
X230101076Y-106380745D02*
G75*
G02*
X232081227Y-107283191I562024J-1390455D01*
G01*
X214094823Y-114465497D02*
G75*
G02*
X214923654Y-112512766I1391377J561697D01*
G01*
X79685663Y-52607755D02*
G75*
G02*
X81592290Y-51677875I1418337J-488545D01*
G01*
X133580486Y-81338090D02*
X148415431Y-87331771D01*
X213227506Y-57804327D02*
G75*
G02*
X211348412Y-56947933I-488206J1418527D01*
G01*
X202923788Y-146211875D02*
X217758731Y-140218177D01*
X250377206Y-103287570D02*
X249600170Y-101030930D01*
X131945304Y-145906958D02*
G75*
G02*
X180667110Y-145906964I24360896J-54831942D01*
G01*
X118520580Y-59884368D02*
G75*
G02*
X119349464Y-61837048I-561780J-1390732D01*
G01*
X118693896Y-63459624D02*
X119349482Y-61837055D01*
X94853689Y-140218185D02*
X109688602Y-146211876D01*
X257004388Y-58753132D02*
G75*
G02*
X258822692Y-59845684I362912J-1455368D01*
G01*
X76280798Y-62496232D02*
X79685663Y-52607755D01*
X234697185Y-110273045D02*
G75*
G02*
X232790538Y-109343146I-488485J1418045D01*
G01*
X214923678Y-112512825D02*
X230101083Y-106380749D01*
X63165146Y-105194183D02*
G75*
G02*
X62235202Y-103287562I488954J1418583D01*
G01*
X211470091Y-120649030D02*
G75*
G02*
X212298914Y-118696254I1390909J561930D01*
G01*
X133580486Y-81338090D02*
G75*
G02*
X132751597Y-79385366I562114J1390890D01*
G01*
X82511366Y-106380744D02*
X97688733Y-112512816D01*
X102103826Y-54869368D02*
X101264032Y-56947948D01*
X163368127Y-89284459D02*
G75*
G02*
X164196965Y-87331760I1391173J561759D01*
G01*
X98690904Y-118040761D02*
G75*
G02*
X97861998Y-116088058I561796J1390761D01*
G01*
X45419216Y-93417896D02*
X53789703Y-59845668D01*
X97688733Y-112512816D02*
G75*
G02*
X98517553Y-114465461I-562033J-1390784D01*
G01*
X149244305Y-89284448D02*
X144406344Y-101258831D01*
X202750499Y-149787143D02*
G75*
G02*
X201921610Y-151739777I-1390799J-561857D01*
G01*
X165425809Y-108382664D02*
X165434042Y-126525335D01*
X212298938Y-118696314D02*
X213921526Y-118040769D01*
X110690806Y-151739848D02*
X125154856Y-157583689D01*
X163368130Y-89284470D02*
X168206086Y-101258848D01*
X234697185Y-110273045D02*
X249447275Y-105194175D01*
X178254705Y-71406021D02*
X193089649Y-65412306D01*
X94024827Y-138265493D02*
X101142323Y-120648988D01*
X100313479Y-118696322D02*
G75*
G02*
X101142298Y-120648978I-561779J-1390678D01*
G01*
X168209080Y-101257640D02*
G75*
G02*
X167309893Y-104720344I-2784380J-1125060D01*
G01*
X134357698Y-71406022D02*
G75*
G02*
X135186524Y-73358684I-561998J-1390778D01*
G01*
X127107543Y-156754826D02*
X131163550Y-146715854D01*
X193262976Y-61837038D02*
G75*
G02*
X194091799Y-59884302I1390824J561938D01*
G01*
X193262971Y-61837040D02*
X193918528Y-63459619D01*
X102103826Y-54869368D02*
G75*
G02*
X104056514Y-54040540I1390674J-561732D01*
G01*
X79821871Y-109343120D02*
G75*
G02*
X77915250Y-110273067I-1418471J488720D01*
G01*
X80531161Y-107283172D02*
G75*
G02*
X82511348Y-106380788I1418239J-488328D01*
G01*
X232081242Y-107283172D02*
X232790547Y-109343143D01*
X46511765Y-95236222D02*
G75*
G02*
X45419220Y-93417897I363035J1455522D01*
G01*
X214750392Y-116088061D02*
G75*
G02*
X213921515Y-118040742I-1390692J-561939D01*
G01*
X145305048Y-104718368D02*
G75*
G02*
X144406343Y-101258830I1882652J2335568D01*
G01*
X148415438Y-87331770D02*
G75*
G02*
X149244280Y-89284461I-561838J-1390730D01*
G01*
X250377206Y-103287570D02*
G75*
G02*
X249447259Y-105194127I-1418406J-488230D01*
G01*
X94853689Y-140218185D02*
G75*
G02*
X94024782Y-138265475I561611J1390685D01*
G01*
X63012252Y-101030909D02*
X62235227Y-103287571D01*
X98517602Y-114465481D02*
X97862033Y-116088072D01*
X218587604Y-138265513D02*
G75*
G02*
X217758714Y-140218134I-1390704J-561887D01*
G01*
X98690911Y-118040758D02*
X100313478Y-118696319D01*
X208555880Y-54040500D02*
X194091822Y-59884359D01*
X81592303Y-51677838D02*
X99384902Y-57804328D01*
X109688621Y-146211891D02*
G75*
G02*
X110517452Y-148164562I-561821J-1390709D01*
G01*
X180667109Y-145906965D02*
G75*
G02*
X181448886Y-146715843I-609009J-1370835D01*
G01*
X147187892Y-126522960D02*
X165434042Y-126525335D01*
X63165151Y-105194185D02*
X77915243Y-110273050D01*
X177425861Y-73358688D02*
G75*
G02*
X178254678Y-71405955I1390939J561888D01*
G01*
X214750392Y-116088061D02*
X214094823Y-114465497D01*
X202750499Y-149787143D02*
X202094937Y-148164568D01*
X119522752Y-65412299D02*
G75*
G02*
X118693875Y-63459616I561948J1390799D01*
G01*
X193918528Y-63459619D02*
G75*
G02*
X193089626Y-65412250I-1390728J-561881D01*
G01*
X211348390Y-56947942D02*
X210508590Y-54869370D01*
X177425874Y-73358705D02*
X179860783Y-79385406D01*
X132751641Y-79385384D02*
X135186563Y-73358700D01*
X76280798Y-62496232D02*
G75*
G02*
X74499641Y-63463352I-1418398J488532D01*
G01*
X147187892Y-108382682D02*
X147187892Y-126522960D01*
X249600180Y-101030918D02*
G75*
G02*
X250655556Y-99087020I1418120J488518D01*
G01*
X258822721Y-59845677D02*
X267193213Y-93417908D01*
X61956869Y-99087119D02*
G75*
G02*
X63012243Y-101030906I-363169J-1455581D01*
G01*
X181448863Y-146715852D02*
X185504871Y-156754822D01*
X179860783Y-79385406D02*
G75*
G02*
X179031901Y-81338021I-1390683J-561894D01*
G01*
X118520580Y-59884368D02*
X104056532Y-54040495D01*
X101264033Y-56947959D02*
G75*
G02*
X99384914Y-57804292I-1390633J561659D01*
G01*
X232926742Y-52607776D02*
X236331616Y-62496235D01*
X267193228Y-93417910D02*
G75*
G02*
X266100633Y-95236167I-1455328J-362890D01*
G01*
X250655573Y-99087090D02*
X266100644Y-95236213D01*
X145303765Y-104720416D02*
G75*
G02*
X147187892Y-108382682I-2135765J-3414584D01*
G01*
X131163550Y-146715854D02*
G75*
G02*
X131945298Y-145906945I1390850J-561946D01*
G01*
D11*
%TO.C,SW14*%
X108226590Y-99244176D02*
X107674012Y-97942385D01*
X108226590Y-99244176D02*
X119352796Y-103739455D01*
X112394056Y-86259869D02*
X107674012Y-97942385D01*
X113695846Y-85707291D02*
X112394056Y-86259869D01*
X120654586Y-103186877D02*
X119352796Y-103739455D01*
X120654586Y-103186877D02*
X125374630Y-91504361D01*
X124822052Y-90202570D02*
X113695846Y-85707291D01*
X125374630Y-91504361D02*
X124822052Y-90202570D01*
%TO.C,SW19*%
X224188932Y-77297657D02*
X224808882Y-76026570D01*
X224188932Y-77297657D02*
X228291090Y-89211191D01*
X228291090Y-89211191D02*
X229562177Y-89831142D01*
X229562177Y-89831142D02*
X240908400Y-85924324D01*
X236155105Y-72119752D02*
X224808882Y-76026570D01*
X236155105Y-72119752D02*
X237426192Y-72739703D01*
X240908400Y-85924324D02*
X241528350Y-84653237D01*
X241528350Y-84653237D02*
X237426192Y-72739703D01*
%TO.C,SW1*%
X53338665Y-75295474D02*
X52610291Y-74083257D01*
X53338665Y-75295474D02*
X64982214Y-78198537D01*
X55658507Y-61857531D02*
X52610291Y-74083257D01*
X56870724Y-61129157D02*
X55658507Y-61857531D01*
X66194431Y-77470163D02*
X64982214Y-78198537D01*
X66194431Y-77470163D02*
X69242647Y-65244437D01*
X68514273Y-64032220D02*
X56870724Y-61129157D01*
X69242647Y-65244437D02*
X68514273Y-64032220D01*
%TO.C,SW24*%
X194355318Y-109120864D02*
X194907896Y-107819073D01*
X194355318Y-109120864D02*
X199075362Y-120803380D01*
X199075362Y-120803380D02*
X200377152Y-121355958D01*
X200377152Y-121355958D02*
X211503358Y-116860679D01*
X206034102Y-103323794D02*
X194907896Y-107819073D01*
X206034102Y-103323794D02*
X207335892Y-103876372D01*
X211503358Y-116860679D02*
X212055936Y-115558888D01*
X212055936Y-115558888D02*
X207335892Y-103876372D01*
%TO.C,SW16*%
X173180077Y-107430145D02*
X177900121Y-119112661D01*
X173732655Y-106128354D02*
X173180077Y-107430145D01*
X179201911Y-119665239D02*
X177900121Y-119112661D01*
X179201911Y-119665239D02*
X190328117Y-115169960D01*
X184858861Y-101633075D02*
X173732655Y-106128354D01*
X186160651Y-102185653D02*
X184858861Y-101633075D01*
X190880695Y-113868169D02*
X186160651Y-102185653D01*
X190880695Y-113868169D02*
X190328117Y-115169960D01*
%TO.C,SW5*%
X129401830Y-97553452D02*
X128849252Y-96251661D01*
X129401830Y-97553452D02*
X140528036Y-102048731D01*
X133569296Y-84569145D02*
X128849252Y-96251661D01*
X134871086Y-84016567D02*
X133569296Y-84569145D01*
X141829826Y-101496153D02*
X140528036Y-102048731D01*
X141829826Y-101496153D02*
X146549870Y-89813637D01*
X145997292Y-88511846D02*
X134871086Y-84016567D01*
X146549870Y-89813637D02*
X145997292Y-88511846D01*
D12*
%TO.C,RESET1*%
X118506369Y-120139417D02*
X121567830Y-121376876D01*
X118723831Y-118663930D02*
X118311669Y-119684338D01*
X122022909Y-121182176D02*
X122434419Y-120163653D01*
X122237768Y-119707788D02*
X119178901Y-118469254D01*
X118506369Y-120139417D02*
G75*
G02*
X118311674Y-119684340I131488J325441D01*
G01*
X118723831Y-118663930D02*
G75*
G02*
X119178913Y-118469223I325430J-131439D01*
G01*
X122022909Y-121182176D02*
G75*
G02*
X121567834Y-121376865I-325440J131497D01*
G01*
X122237768Y-119707788D02*
G75*
G02*
X122432469Y-120162867I-131490J-325447D01*
G01*
D11*
%TO.C,SW22*%
X85271931Y-105339031D02*
X84719353Y-104037240D01*
X85271931Y-105339031D02*
X96398137Y-109834310D01*
X89439397Y-92354724D02*
X84719353Y-104037240D01*
X90741187Y-91802146D02*
X89439397Y-92354724D01*
X97699927Y-109281732D02*
X96398137Y-109834310D01*
X97699927Y-109281732D02*
X102419971Y-97599216D01*
X101867393Y-96297425D02*
X90741187Y-91802146D01*
X102419971Y-97599216D02*
X101867393Y-96297425D01*
%TO.C,SW28*%
X112556351Y-149257965D02*
X113108929Y-150559756D01*
X113108929Y-150559756D02*
X124235135Y-155055035D01*
X117276395Y-137575449D02*
X112556351Y-149257965D01*
X117276395Y-137575449D02*
X118578185Y-137022871D01*
X124235135Y-155055035D02*
X125536925Y-154502457D01*
X125536925Y-154502457D02*
X130256969Y-142819941D01*
X129704391Y-141518150D02*
X118578185Y-137022871D01*
X129704391Y-141518150D02*
X130256969Y-142819941D01*
%TO.C,SW17*%
X187237814Y-91504381D02*
X187790392Y-90202590D01*
X187237814Y-91504381D02*
X191957858Y-103186897D01*
X191957858Y-103186897D02*
X193259648Y-103739475D01*
X193259648Y-103739475D02*
X204385854Y-99244196D01*
X198916598Y-85707311D02*
X187790392Y-90202590D01*
X198916598Y-85707311D02*
X200218388Y-86259889D01*
X204385854Y-99244196D02*
X204938432Y-97942405D01*
X204938432Y-97942405D02*
X200218388Y-86259889D01*
%TO.C,SW9*%
X218003146Y-59332812D02*
X218623096Y-58061725D01*
X218003146Y-59332812D02*
X222105304Y-71246346D01*
X222105304Y-71246346D02*
X223376391Y-71866297D01*
X223376391Y-71866297D02*
X234722614Y-67959479D01*
X229969319Y-54154907D02*
X218623096Y-58061725D01*
X229969319Y-54154907D02*
X231240406Y-54774858D01*
X234722614Y-67959479D02*
X235342564Y-66688392D01*
X235342564Y-66688392D02*
X231240406Y-54774858D01*
%TO.C,SW11*%
X48742139Y-93731086D02*
X48013765Y-92518869D01*
X48742139Y-93731086D02*
X60385688Y-96634149D01*
X51061981Y-80293143D02*
X48013765Y-92518869D01*
X52274198Y-79564769D02*
X51061981Y-80293143D01*
X61597905Y-95905775D02*
X60385688Y-96634149D01*
X61597905Y-95905775D02*
X64646121Y-83680049D01*
X63917747Y-82467832D02*
X52274198Y-79564769D01*
X64646121Y-83680049D02*
X63917747Y-82467832D01*
%TO.C,SW3*%
X99506983Y-70106047D02*
X98954405Y-68804256D01*
X99506983Y-70106047D02*
X110633189Y-74601326D01*
X103674449Y-57121740D02*
X98954405Y-68804256D01*
X104976239Y-56569162D02*
X103674449Y-57121740D01*
X111934979Y-74048748D02*
X110633189Y-74601326D01*
X111934979Y-74048748D02*
X116655023Y-62366232D01*
X116102445Y-61064441D02*
X104976239Y-56569162D01*
X116655023Y-62366232D02*
X116102445Y-61064441D01*
%TO.C,SW20*%
X247966307Y-83680069D02*
X248694681Y-82467852D01*
X247966307Y-83680069D02*
X251014523Y-95905795D01*
X251014523Y-95905795D02*
X252226740Y-96634169D01*
X252226740Y-96634169D02*
X263870289Y-93731106D01*
X260338230Y-79564789D02*
X248694681Y-82467852D01*
X260338230Y-79564789D02*
X261550447Y-80293163D01*
X263870289Y-93731106D02*
X264598663Y-92518889D01*
X264598663Y-92518889D02*
X261550447Y-80293163D01*
%TO.C,SW7*%
X180120278Y-73887870D02*
X180672856Y-72586079D01*
X180120278Y-73887870D02*
X184840322Y-85570386D01*
X184840322Y-85570386D02*
X186142112Y-86122964D01*
X186142112Y-86122964D02*
X197268318Y-81627685D01*
X191799062Y-68090800D02*
X180672856Y-72586079D01*
X191799062Y-68090800D02*
X193100852Y-68643378D01*
X197268318Y-81627685D02*
X197820896Y-80325894D01*
X197820896Y-80325894D02*
X193100852Y-68643378D01*
%TO.C,SW8*%
X195957410Y-62366223D02*
X196509988Y-61064432D01*
X195957410Y-62366223D02*
X200677454Y-74048739D01*
X200677454Y-74048739D02*
X201979244Y-74601317D01*
X201979244Y-74601317D02*
X213105450Y-70106038D01*
X207636194Y-56569153D02*
X196509988Y-61064432D01*
X207636194Y-56569153D02*
X208937984Y-57121731D01*
X213105450Y-70106038D02*
X213658028Y-68804247D01*
X213658028Y-68804247D02*
X208937984Y-57121731D01*
%TO.C,SW6*%
X166062563Y-89813654D02*
X170782607Y-101496170D01*
X166615141Y-88511863D02*
X166062563Y-89813654D01*
X172084397Y-102048748D02*
X170782607Y-101496170D01*
X172084397Y-102048748D02*
X183210603Y-97553469D01*
X177741347Y-84016584D02*
X166615141Y-88511863D01*
X179043137Y-84569162D02*
X177741347Y-84016584D01*
X183763181Y-96251678D02*
X179043137Y-84569162D01*
X183763181Y-96251678D02*
X183210603Y-97553469D01*
%TO.C,SW10*%
X243369779Y-65244429D02*
X244098153Y-64032212D01*
X243369779Y-65244429D02*
X246417995Y-77470155D01*
X246417995Y-77470155D02*
X247630212Y-78198529D01*
X247630212Y-78198529D02*
X259273761Y-75295466D01*
X255741702Y-61129149D02*
X244098153Y-64032212D01*
X255741702Y-61129149D02*
X256953919Y-61857523D01*
X259273761Y-75295466D02*
X260002135Y-74083249D01*
X260002135Y-74083249D02*
X256953919Y-61857523D01*
%TO.C,SW15*%
X122284303Y-115169937D02*
X121731725Y-113868146D01*
X122284303Y-115169937D02*
X133410509Y-119665216D01*
X126451769Y-102185630D02*
X121731725Y-113868146D01*
X127753559Y-101633052D02*
X126451769Y-102185630D01*
X134712299Y-119112638D02*
X133410509Y-119665216D01*
X134712299Y-119112638D02*
X139432343Y-107430122D01*
X138879765Y-106128331D02*
X127753559Y-101633052D01*
X139432343Y-107430122D02*
X138879765Y-106128331D01*
%TO.C,SW30*%
X198192557Y-131298289D02*
X198745135Y-129996498D01*
X198192557Y-131298289D02*
X202912601Y-142980805D01*
X202912601Y-142980805D02*
X204214391Y-143533383D01*
X204214391Y-143533383D02*
X215340597Y-139038104D01*
X209871341Y-125501219D02*
X198745135Y-129996498D01*
X209871341Y-125501219D02*
X211173131Y-126053797D01*
X215340597Y-139038104D02*
X215893175Y-137736313D01*
X215893175Y-137736313D02*
X211173131Y-126053797D01*
%TO.C,SW2*%
X77889815Y-67959463D02*
X77269865Y-66688376D01*
X77889815Y-67959463D02*
X89236038Y-71866281D01*
X81372023Y-54774842D02*
X77269865Y-66688376D01*
X82643110Y-54154891D02*
X81372023Y-54774842D01*
X90507125Y-71246330D02*
X89236038Y-71866281D01*
X90507125Y-71246330D02*
X94609283Y-59332796D01*
X93989333Y-58061709D02*
X82643110Y-54154891D01*
X94609283Y-59332796D02*
X93989333Y-58061709D01*
%TO.C,SW29*%
X182355447Y-142819915D02*
X182908025Y-141518124D01*
X182355447Y-142819915D02*
X187075491Y-154502431D01*
X187075491Y-154502431D02*
X188377281Y-155055009D01*
X188377281Y-155055009D02*
X199503487Y-150559730D01*
X194034231Y-137022845D02*
X182908025Y-141518124D01*
X194034231Y-137022845D02*
X195336021Y-137575423D01*
X199503487Y-150559730D02*
X200056065Y-149257939D01*
X200056065Y-149257939D02*
X195336021Y-137575423D01*
%TO.C,SW21*%
X65518234Y-103889170D02*
X64898284Y-102618083D01*
X65518234Y-103889170D02*
X76864457Y-107795988D01*
X69000442Y-90704549D02*
X64898284Y-102618083D01*
X70271529Y-90084598D02*
X69000442Y-90704549D01*
X78135544Y-107176037D02*
X76864457Y-107795988D01*
X78135544Y-107176037D02*
X82237702Y-95262503D01*
X81617752Y-93991416D02*
X70271529Y-90084598D01*
X82237702Y-95262503D02*
X81617752Y-93991416D01*
%TO.C,SW18*%
X203074921Y-79982719D02*
X203627499Y-78680928D01*
X203074921Y-79982719D02*
X207794965Y-91665235D01*
X207794965Y-91665235D02*
X209096755Y-92217813D01*
X209096755Y-92217813D02*
X220222961Y-87722534D01*
X214753705Y-74185649D02*
X203627499Y-78680928D01*
X214753705Y-74185649D02*
X216055495Y-74738227D01*
X220222961Y-87722534D02*
X220775539Y-86420743D01*
X220775539Y-86420743D02*
X216055495Y-74738227D01*
%TO.C,SW27*%
X97271825Y-139038110D02*
X96719247Y-137736319D01*
X97271825Y-139038110D02*
X108398031Y-143533389D01*
X101439291Y-126053803D02*
X96719247Y-137736319D01*
X102741081Y-125501225D02*
X101439291Y-126053803D01*
X109699821Y-142980811D02*
X108398031Y-143533389D01*
X109699821Y-142980811D02*
X114419865Y-131298295D01*
X113867287Y-129996504D02*
X102741081Y-125501225D01*
X114419865Y-131298295D02*
X113867287Y-129996504D01*
%TO.C,SW23*%
X101109050Y-116860673D02*
X100556472Y-115558882D01*
X101109050Y-116860673D02*
X112235256Y-121355952D01*
X105276516Y-103876366D02*
X100556472Y-115558882D01*
X106578306Y-103323788D02*
X105276516Y-103876366D01*
X113537046Y-120803374D02*
X112235256Y-121355952D01*
X113537046Y-120803374D02*
X118257090Y-109120858D01*
X117704512Y-107819067D02*
X106578306Y-103323788D01*
X118257090Y-109120858D02*
X117704512Y-107819067D01*
%TO.C,SW13*%
X92389456Y-87722521D02*
X91836878Y-86420730D01*
X92389456Y-87722521D02*
X103515662Y-92217800D01*
X96556922Y-74738214D02*
X91836878Y-86420730D01*
X97858712Y-74185636D02*
X96556922Y-74738214D01*
X104817452Y-91665222D02*
X103515662Y-92217800D01*
X104817452Y-91665222D02*
X109537496Y-79982706D01*
X108984918Y-78680915D02*
X97858712Y-74185636D01*
X109537496Y-79982706D02*
X108984918Y-78680915D01*
%TO.C,SW26*%
X230374735Y-95262524D02*
X230994685Y-93991437D01*
X230374735Y-95262524D02*
X234476893Y-107176058D01*
X234476893Y-107176058D02*
X235747980Y-107796009D01*
X235747980Y-107796009D02*
X247094203Y-103889191D01*
X242340908Y-90084619D02*
X230994685Y-93991437D01*
X242340908Y-90084619D02*
X243611995Y-90704570D01*
X247094203Y-103889191D02*
X247714153Y-102618104D01*
X247714153Y-102618104D02*
X243611995Y-90704570D01*
%TO.C,SW12*%
X71704007Y-85924321D02*
X71084057Y-84653234D01*
X71704007Y-85924321D02*
X83050230Y-89831139D01*
X75186215Y-72739700D02*
X71084057Y-84653234D01*
X76457302Y-72119749D02*
X75186215Y-72739700D01*
X84321317Y-89211188D02*
X83050230Y-89831139D01*
X84321317Y-89211188D02*
X88423475Y-77297654D01*
X87803525Y-76026567D02*
X76457302Y-72119749D01*
X88423475Y-77297654D02*
X87803525Y-76026567D01*
%TO.C,SW4*%
X115344082Y-81627683D02*
X114791504Y-80325892D01*
X115344082Y-81627683D02*
X126470288Y-86122962D01*
X119511548Y-68643376D02*
X114791504Y-80325892D01*
X120813338Y-68090798D02*
X119511548Y-68643376D01*
X127772078Y-85570384D02*
X126470288Y-86122962D01*
X127772078Y-85570384D02*
X132492122Y-73887868D01*
X131939544Y-72586077D02*
X120813338Y-68090798D01*
X132492122Y-73887868D02*
X131939544Y-72586077D01*
%TO.C,SW25*%
X210192448Y-97599226D02*
X210745026Y-96297435D01*
X210192448Y-97599226D02*
X214912492Y-109281742D01*
X214912492Y-109281742D02*
X216214282Y-109834320D01*
X216214282Y-109834320D02*
X227340488Y-105339041D01*
X221871232Y-91802156D02*
X210745026Y-96297435D01*
X221871232Y-91802156D02*
X223173022Y-92354734D01*
X227340488Y-105339041D02*
X227893066Y-104037250D01*
X227893066Y-104037250D02*
X223173022Y-92354734D01*
%TD*%
M02*
