M48
; DRILL file {KiCad 8.0.6-1.fc41} date 2024-11-30T15:40:18+1100
; FORMAT={-:-/ absolute / inch / decimal}
; #@! TF.CreationDate,2024-11-30T15:40:18+11:00
; #@! TF.GenerationSoftware,Kicad,Pcbnew,8.0.6-1.fc41
; #@! TF.FileFunction,NonPlated,1,4,NPTH
FMAT,2
INCH
; #@! TA.AperFunction,NonPlated,NPTH,ComponentDrill
T1C0.0354
; #@! TA.AperFunction,NonPlated,NPTH,ComponentDrill
T2C0.0866
; #@! TA.AperFunction,NonPlated,NPTH,ComponentDrill
T3C0.1673
%
G90
G05
T1
X6.207Y-4.2281
X6.3251Y-4.2281
T2
X2.4271Y-3.1196
X2.99Y-2.5992
X3.137Y-3.5556
X3.3805Y-2.8484
X3.9428Y-3.6364
X3.9573Y-2.4432
X4.223Y-2.9429
X4.2861Y-4.7836
X4.5663Y-4.09
X4.8465Y-3.3965
X5.0388Y-5.4168
X5.1198Y-4.717
X5.4Y-4.0235
X7.1453Y-4.0235
X7.4255Y-4.717
X7.5065Y-5.4168
X7.6987Y-3.3965
X7.979Y-4.09
X8.2592Y-4.7836
X8.3223Y-2.9429
X8.588Y-2.4432
X8.6025Y-3.6364
X9.1647Y-2.8484
X9.4083Y-3.5556
X9.5553Y-2.5992
X10.1182Y-3.1196
T3
X2.8091Y-3.2148
X3.8803Y-2.6665
X4.7102Y-5.284
X7.8351Y-5.284
X8.6649Y-2.6665
X9.7362Y-3.2148
M30
