M48
; DRILL file {KiCad 8.0.6-1.fc41} date 2024-11-30T15:40:18+1100
; FORMAT={-:-/ absolute / inch / decimal}
; #@! TF.CreationDate,2024-11-30T15:40:18+11:00
; #@! TF.GenerationSoftware,Kicad,Pcbnew,8.0.6-1.fc41
; #@! TF.FileFunction,Plated,1,4,PTH
FMAT,2
INCH
; #@! TA.AperFunction,Plated,PTH,ComponentDrill
T1C0.0118
; #@! TA.AperFunction,Plated,PTH,ViaDrill
T2C0.0157
; #@! TA.AperFunction,Plated,PTH,ComponentDrill
T3C0.0394
; #@! TA.AperFunction,Plated,PTH,ComponentDrill
T4C0.0400
; #@! TA.AperFunction,Plated,PTH,ComponentDrill
T5C0.0512
%
G90
G05
T1
X2.2926Y-3.4715
X2.3805Y-3.4934
X2.4736Y-2.7457
X2.5615Y-2.7676
X2.9724Y-3.8945
X3.058Y-3.924
X3.216Y-3.1873
X3.3016Y-3.2167
X3.4595Y-2.48
X3.5451Y-2.5095
X3.7607Y-3.9662
X3.8447Y-4.0002
X4.0409Y-3.2727
X4.1249Y-3.3066
X4.2582Y-5.3519
X4.2921Y-5.268
X4.3212Y-2.5791
X4.3842Y-4.4199
X4.4051Y-2.613
X4.4682Y-4.4538
X4.6644Y-3.7263
X4.7484Y-3.7602
X4.8817Y-5.8055
X4.9156Y-5.7216
X4.9447Y-3.0327
X5.0286Y-3.0667
X5.2179Y-4.3533
X5.3019Y-4.3872
X5.4981Y-3.6597
X5.5821Y-3.6937
X6.9632Y-3.6937
X7.0472Y-3.6597
X7.2434Y-4.3872
X7.3274Y-4.3533
X7.5167Y-3.0667
X7.6006Y-3.0327
X7.6297Y-5.7216
X7.6636Y-5.8055
X7.7969Y-3.7602
X7.8808Y-3.7263
X8.0771Y-4.4538
X8.1402Y-2.613
X8.1611Y-4.4199
X8.2241Y-2.5791
X8.2532Y-5.268
X8.2871Y-5.3519
X8.4204Y-3.3066
X8.5043Y-3.2727
X8.7006Y-4.0002
X8.7846Y-3.9662
X9.0002Y-2.5095
X9.0858Y-2.48
X9.2437Y-3.2167
X9.3293Y-3.1873
X9.4872Y-3.924
X9.5729Y-3.8945
X9.9838Y-2.7676
X10.0717Y-2.7457
X10.1648Y-3.4934
X10.2526Y-3.4715
T2
X2.0602Y-3.3533
X2.0683Y-3.3981
X2.2181Y-3.7387
X2.2241Y-2.7001
X2.2557Y-3.7677
X2.268Y-2.6699
X2.5807Y-3.8505
X2.5878Y-3.5608
X2.5984Y-3.7944
X2.6152Y-3.5272
X2.6328Y-3.8273
X2.7028Y-2.9479
X2.7217Y-4.1752
X2.7223Y-3.916
X2.7271Y-3.9681
X2.7545Y-2.9822
X2.7569Y-3.819
X2.7658Y-4.1346
X2.7719Y-2.8442
X2.7765Y-2.7785
X2.9989Y-3.1158
X3.0456Y-2.841
X3.0464Y-2.7815
X3.048Y-4.2245
X3.0678Y-2.6364
X3.0869Y-2.8552
X3.091Y-4.3021
X3.1055Y-2.8012
X3.1086Y-4.2194
X3.1189Y-2.6656
X3.1409Y-2.8738
X3.1523Y-2.6654
X3.1595Y-2.8198
X3.1931Y-4.1855
X3.2117Y-2.4928
X3.2436Y-2.179
X3.2583Y-2.3963
X3.2694Y-2.2299
X3.2723Y-4.1401
X3.2885Y-4.0711
X3.3195Y-4.141
X3.381Y-2.115
X3.3834Y-3.5784
X3.3835Y-2.1745
X3.4284Y-3.6179
X3.4916Y-3.9585
X3.4937Y-4.0123
X3.5176Y-3.1786
X3.5185Y-3.5804
X3.5194Y-3.5206
X3.53Y-3.2829
X3.5467Y-3.8844
X3.5635Y-4.1781
X3.5677Y-3.0227
X3.6001Y-2.9718
X3.6251Y-3.6235
X3.6336Y-3.0413
X3.6447Y-2.8672
X3.6465Y-3.5706
X3.678Y-3.6449
X3.687Y-2.9092
X3.6994Y-3.592
X3.743Y-2.5967
X3.7776Y-2.8102
X3.7788Y-2.8699
X3.7911Y-2.5097
X3.847Y-2.5247
X3.8517Y-2.3357
X3.8986Y-2.2915
X3.9057Y-2.3543
X3.9086Y-2.9218
X3.93Y-2.8689
X3.9615Y-2.9432
X3.9829Y-2.8903
X4.0181Y-4.5194
X4.0404Y-2.3382
X4.0431Y-3.7931
X4.0445Y-2.3994
X4.0842Y-4.3471
X4.0888Y-3.7553
X4.1241Y-4.3957
X4.1314Y-4.0011
X4.1444Y-4.8169
X4.1552Y-4.6962
X4.167Y-4.048
X4.1691Y-4.3317
X4.1856Y-4.8583
X4.1908Y-3.9943
X4.1991Y-4.7996
X4.2515Y-4.0804
X4.2729Y-4.0275
X4.3044Y-4.1018
X4.3058Y-2.2128
X4.3104Y-2.2731
X4.3258Y-4.0489
X4.327Y-3.413
X4.3363Y-3.3474
X4.3596Y-3.1065
X4.4053Y-3.0683
X4.4427Y-3.3022
X4.4457Y-3.6367
X4.4493Y-5.6723
X4.4786Y-3.349
X4.4883Y-4.9806
X4.4927Y-5.6312
X4.5025Y-3.2965
X4.5081Y-4.9271
X4.5268Y-5.0693
X4.5376Y-3.3723
X4.544Y-4.9637
X4.5534Y-5.9162
X4.554Y-4.8586
X4.559Y-3.3193
X4.5663Y-5.1051
X4.5779Y-4.9134
X4.5802Y-5.0489
X4.5906Y-3.3936
X4.5987Y-5.8782
X4.6119Y-3.3407
X4.6159Y-2.3966
X4.6171Y-4.7714
X4.6277Y-5.0673
X4.6412Y-4.8267
X4.6497Y-5.1388
X4.6587Y-2.3554
X4.6729Y-5.0866
X4.6969Y-4.5387
X4.7023Y-5.1362
X4.7037Y-2.6036
X4.7291Y-4.7632
X4.7335Y-4.2863
X4.7369Y-5.0503
X4.7374Y-4.4594
X4.7444Y-2.6484
X4.7548Y-5.1139
X4.7616Y-2.5934
X4.7668Y-4.2282
X4.7735Y-4.9324
X4.784Y-4.5017
X4.7849Y-4.4421
X4.7881Y-4.8964
X4.7899Y-5.4999
X4.7909Y-5.4387
X4.7944Y-5.0603
X4.7952Y-6.0128
X4.7992Y-4.2993
X4.8261Y-5.139
X4.844Y-5.4759
X4.8525Y-5.1518
X4.8718Y-4.5368
X4.8932Y-4.4839
X4.9026Y-5.3274
X4.9119Y-6.0645
X4.9247Y-4.5582
X4.9296Y-3.5306
X4.933Y-5.1418
X4.9461Y-4.5053
X4.9677Y-3.8837
X4.9766Y-3.4949
X4.9776Y-3.8388
X5.0098Y-3.759
X5.0162Y-3.9855
X5.0258Y-3.8745
X5.0393Y-5.0773
X5.0494Y-5.161
X5.0526Y-3.9375
X5.0556Y-5.0223
X5.0703Y-4.9891
X5.0775Y-3.7369
X5.0779Y-4.0109
X5.078Y-5.075
X5.0993Y-3.958
X5.11Y-4.9994
X5.1308Y-4.0323
X5.1522Y-3.9794
X5.1554Y-5.9001
X5.1745Y-5.034
X5.1905Y-5.949
X5.2035Y-4.9597
X5.2557Y-3.5837
X5.264Y-3.1194
X5.2706Y-3.1791
X5.2745Y-4.9916
X5.2848Y-4.7013
X5.2865Y-4.6408
X5.3022Y-4.9178
X5.3033Y-3.5629
X5.3149Y-3.279
X5.3172Y-3.1428
X5.3234Y-5.4957
X5.3287Y-2.9026
X5.358Y-3.2378
X5.3609Y-2.8379
X5.3615Y-5.5425
X5.3693Y-4.9513
X5.3854Y-4.8825
X5.3903Y-4.6587
X5.3998Y-2.9301
X5.4475Y-4.9182
X5.4584Y-4.5678
X5.4726Y-4.8455
X5.4947Y-4.4873
X5.5081Y-4.6043
X5.5295Y-4.8833
X5.5494Y-4.8129
X5.5694Y-4.225
X5.5942Y-4.678
X5.6025Y-4.8523
X5.6163Y-4.1893
X5.6212Y-4.7824
X5.6466Y-4.9105
X5.6468Y-4.2646
X5.673Y-4.8224
X5.6999Y-4.749
X5.7384Y-4.1266
X5.7552Y-4.7875
X5.7677Y-4.1561
X5.7792Y-4.7153
X5.7899Y-3.7843
X5.8312Y-4.7552
X5.8447Y-4.6875
X5.8482Y-3.4974
X5.8626Y-3.5294
X5.8909Y-3.4546
X5.8946Y-4.7284
X5.9225Y-3.524
X6.0307Y-4.6709
X6.0307Y-4.7281
X6.0307Y-4.8105
X6.0323Y-4.3605
X6.0577Y-4.4391
X6.0705Y-4.273
X6.083Y-4.4643
X6.0878Y-4.671
X6.0878Y-4.7281
X6.0878Y-4.8105
X6.0894Y-4.3605
X6.1456Y-4.671
X6.1456Y-4.7281
X6.1456Y-4.8105
X6.2027Y-4.671
X6.2027Y-4.7281
X6.2027Y-4.8105
X6.2431Y-4.671
X6.2431Y-4.7281
X6.254Y-4.4363
X6.2735Y-4.4963
X6.2842Y-4.671
X6.2854Y-4.7281
X6.2956Y-4.3629
X6.321Y-4.4015
X6.321Y-4.4586
X6.3258Y-4.7281
X6.3264Y-4.674
X6.3546Y-4.3631
X6.3662Y-4.7281
X6.3681Y-4.671
X6.3879Y-4.4015
X6.3879Y-4.4586
X6.4081Y-4.7281
X6.4097Y-4.671
X6.4463Y-4.6833
X6.4525Y-4.7702
X6.4559Y-4.4586
X6.4559Y-4.4015
X6.4717Y-4.7087
X6.4892Y-4.8069
X6.4959Y-4.7329
X6.5264Y-4.8451
X6.6347Y-3.5657
X6.6541Y-4.1946
X6.668Y-3.4805
X6.6939Y-3.5617
X6.7099Y-4.2339
X6.7124Y-3.5212
X6.7225Y-4.7567
X6.7453Y-4.3097
X6.7455Y-4.4015
X6.7455Y-4.4586
X6.7563Y-3.7922
X6.7698Y-4.2807
X6.7728Y-4.5057
X6.7786Y-4.8587
X6.7786Y-4.8016
X6.7929Y-4.6603
X6.8069Y-4.4819
X6.8107Y-4.1125
X6.8357Y-4.8016
X6.8357Y-4.8587
X6.8896Y-4.4586
X6.8937Y-4.8659
X6.8971Y-4.2807
X6.907Y-4.8051
X6.9105Y-4.2059
X6.9137Y-4.4027
X6.9403Y-4.1488
X6.9613Y-4.8659
X6.9623Y-4.2367
X6.9689Y-4.4527
X6.9788Y-4.194
X7.0094Y-4.6386
X7.0094Y-4.678
X7.0194Y-4.8659
X7.026Y-4.7577
X7.0375Y-4.6074
X7.0547Y-4.8933
X7.0555Y-4.9582
X7.097Y-4.9011
X7.1044Y-4.7765
X7.1149Y-4.834
X7.1478Y-4.7859
X7.1627Y-4.9011
X7.1822Y-5.5425
X7.1927Y-2.971
X7.1998Y-4.87
X7.2166Y-3.2559
X7.2205Y-5.4954
X7.2424Y-2.8553
X7.252Y-3.5656
X7.2524Y-2.9653
X7.2604Y-3.2973
X7.2634Y-3.148
X7.2722Y-5.5348
X7.2796Y-2.9013
X7.2815Y-4.7813
X7.2833Y-4.8434
X7.2989Y-3.6088
X7.3007Y-5.7596
X7.3116Y-3.1819
X7.3145Y-4.9187
X7.3293Y-5.5348
X7.3293Y-5.086
X7.3293Y-5.31
X7.3601Y-5.9531
X7.3828Y-3.969
X7.3894Y-5.9029
X7.3923Y-4.9517
X7.4042Y-4.0219
X7.4262Y-4.904
X7.4358Y-3.9476
X7.449Y-4.9564
X7.4572Y-4.0006
X7.4684Y-3.6304
X7.5156Y-3.5216
X7.5225Y-4.8651
X7.5268Y-3.9108
X7.5277Y-3.6275
X7.541Y-4.266
X7.5516Y-4.9149
X7.5525Y-3.8411
X7.5545Y-3.5669
X7.5576Y-4.9842
X7.5729Y-3.9476
X7.5769Y-4.8622
X7.5784Y-3.7529
X7.5891Y-5.0556
X7.6082Y-3.8672
X7.6117Y-4.5354
X7.6249Y-4.8826
X7.6321Y-6.0681
X7.6331Y-4.5883
X7.6646Y-4.514
X7.6709Y-4.9045
X7.686Y-4.5669
X7.6977Y-5.4882
X7.7169Y-4.7962
X7.7369Y-5.1115
X7.7374Y-4.3119
X7.7413Y-5.444
X7.7435Y-2.6524
X7.7502Y-6.0215
X7.7532Y-4.9743
X7.7546Y-5.5002
X7.7577Y-4.9351
X7.7579Y-5.0621
X7.7654Y-4.8281
X7.7669Y-4.8969
X7.7698Y-4.7746
X7.773Y-2.7086
X7.7739Y-4.2258
X7.7929Y-2.9333
X7.7983Y-4.5279
X7.8011Y-4.4671
X7.8027Y-2.6592
X7.8046Y-4.2932
X7.8399Y-2.956
X7.8479Y-4.549
X7.8645Y-2.3725
X7.8723Y-2.749
X7.8738Y-2.6894
X7.908Y-2.4139
X7.9394Y-3.3498
X7.9501Y-5.1012
X7.9539Y-5.8823
X7.9608Y-3.4027
X7.9633Y-4.8586
X7.9894Y-4.7992
X7.9924Y-3.3284
X7.9947Y-4.9626
X7.9958Y-5.9246
X8.0137Y-3.3813
X8.0342Y-4.8851
X8.0351Y-5.0418
X8.0363Y-5.6988
X8.0451Y-4.9423
X8.0536Y-3.3036
X8.0653Y-4.8126
X8.0718Y-4.9954
X8.073Y-3.3573
X8.0751Y-5.7437
X8.086Y-4.8943
X8.0945Y-3.639
X8.1035Y-5.0444
X8.1126Y-3.3106
X8.1183Y-4.9428
X8.1611Y-3.0549
X8.2029Y-3.0978
X8.21Y-3.3519
X8.2198Y-4.0436
X8.2225Y-3.4158
X8.2247Y-2.286
X8.2264Y-2.2266
X8.2412Y-4.0966
X8.2727Y-4.0222
X8.2941Y-4.0752
X8.3019Y-5.5902
X8.3268Y-3.9994
X8.3284Y-4.7849
X8.3469Y-5.6288
X8.3514Y-4.052
X8.3627Y-4.8425
X8.3687Y-4.69
X8.3755Y-4.3474
X8.3865Y-4.0048
X8.4329Y-3.7599
X8.4403Y-4.3555
X8.4582Y-4.6253
X8.4708Y-3.8062
X8.4826Y-2.3938
X8.4865Y-2.3343
X8.4911Y-4.0493
X8.5038Y-4.1102
X8.5207Y-4.483
X8.5607Y-2.8907
X8.5821Y-2.9436
X8.6137Y-2.8693
X8.635Y-2.9222
X8.6368Y-2.3429
X8.6448Y-2.2798
X8.6676Y-2.9096
X8.6683Y-2.8499
X8.6907Y-2.3243
X8.7362Y-3.181
X8.756Y-2.5138
X8.8007Y-2.9661
X8.8274Y-3.0323
X8.8442Y-2.9256
X8.8444Y-3.5927
X8.8657Y-3.6456
X8.8697Y-2.9846
X8.8901Y-3.0392
X8.8973Y-3.5713
X8.9007Y-3.2338
X8.9187Y-3.6242
X8.9434Y-3.1922
X8.9441Y-4.1485
X8.9861Y-3.5365
X8.99Y-3.596
X8.9937Y-4.1794
X9.0003Y-3.8776
X9.0064Y-4.0035
X9.0654Y-4.0089
X9.1135Y-3.6484
X9.1471Y-2.1068
X9.1613Y-3.6101
X9.1657Y-2.1608
X9.1888Y-2.107
X9.2363Y-3.9885
X9.2365Y-4.1429
X9.2422Y-2.1996
X9.257Y-2.1403
X9.26Y-4.0733
X9.2636Y-4.134
X9.2678Y-3.9139
X9.2701Y-4.2227
X9.2909Y-2.4018
X9.2953Y-2.1784
X9.3156Y-2.431
X9.3387Y-2.4981
X9.3684Y-2.5662
X9.3848Y-2.628
X9.3852Y-2.8084
X9.4038Y-2.8623
X9.4298Y-2.6783
X9.4365Y-4.3039
X9.4391Y-2.7898
X9.4482Y-2.6225
X9.4577Y-2.8438
X9.4661Y-4.2548
X9.4774Y-4.1748
X9.5062Y-2.7667
X9.5254Y-2.8204
X9.5476Y-3.1097
X9.5625Y-2.7725
X9.7247Y-4.1487
X9.7421Y-2.947
X9.769Y-2.7802
X9.7839Y-2.8468
X9.7892Y-2.9107
X9.7912Y-3.817
X9.8303Y-4.1652
X9.8902Y-3.5295
X9.9204Y-3.8574
X9.9495Y-3.5007
X9.9572Y-3.9049
X9.9621Y-3.5716
X10.2855Y-2.6793
X10.4574Y-3.7198
X10.4834Y-3.4135
X10.4996Y-3.6482
X10.5006Y-3.7589
X10.5574Y-3.663
T3
X5.7247Y-4.2783
X5.8247Y-4.2783
X5.9726Y-4.5818
X5.9726Y-4.3818
X5.9726Y-4.6818
X5.9726Y-4.4818
X5.9726Y-4.7818
X5.9726Y-4.8818
X5.9726Y-4.2818
X6.5726Y-4.8818
X6.5726Y-4.2818
X6.5726Y-4.3818
X6.5726Y-4.6818
X6.5726Y-4.4818
X6.5726Y-4.7818
X6.5726Y-4.5818
T4
X6.0976Y-4.5693
X6.2224Y-4.3446
X6.4226Y-4.9443
T5
X4.7402Y-4.6831
X4.9775Y-4.779
M30
