%TF.GenerationSoftware,KiCad,Pcbnew,8.0.6-1.fc41*%
%TF.CreationDate,2024-11-30T15:40:15+11:00*%
%TF.ProjectId,katori,6b61746f-7269-42e6-9b69-6361645f7063,0.1*%
%TF.SameCoordinates,Original*%
%TF.FileFunction,Soldermask,Top*%
%TF.FilePolarity,Negative*%
%FSLAX46Y46*%
G04 Gerber Fmt 4.6, Leading zero omitted, Abs format (unit mm)*
G04 Created by KiCad (PCBNEW 8.0.6-1.fc41) date 2024-11-30 15:40:15*
%MOMM*%
%LPD*%
G01*
G04 APERTURE LIST*
G04 Aperture macros list*
%AMRoundRect*
0 Rectangle with rounded corners*
0 $1 Rounding radius*
0 $2 $3 $4 $5 $6 $7 $8 $9 X,Y pos of 4 corners*
0 Add a 4 corners polygon primitive as box body*
4,1,4,$2,$3,$4,$5,$6,$7,$8,$9,$2,$3,0*
0 Add four circle primitives for the rounded corners*
1,1,$1+$1,$2,$3*
1,1,$1+$1,$4,$5*
1,1,$1+$1,$6,$7*
1,1,$1+$1,$8,$9*
0 Add four rect primitives between the rounded corners*
20,1,$1+$1,$2,$3,$4,$5,0*
20,1,$1+$1,$4,$5,$6,$7,0*
20,1,$1+$1,$6,$7,$8,$9,0*
20,1,$1+$1,$8,$9,$2,$3,0*%
G04 Aperture macros list end*
%ADD10C,2.300000*%
%ADD11O,2.850000X1.900000*%
%ADD12C,1.497000*%
%ADD13RoundRect,0.050000X0.621649X-1.464514X1.464514X0.621649X-0.621649X1.464514X-1.464514X-0.621649X0*%
%ADD14C,2.350000*%
%ADD15RoundRect,0.050000X0.850000X-0.850000X0.850000X0.850000X-0.850000X0.850000X-0.850000X-0.850000X0*%
%ADD16O,1.800000X1.800000*%
%ADD17C,4.350000*%
%ADD18C,1.000000*%
G04 APERTURE END LIST*
D10*
%TO.C,PH6*%
X123101910Y-86270442D03*
%TD*%
%TO.C,PH19*%
X238970400Y-90313162D03*
%TD*%
%TO.C,PH22*%
X242704820Y-66019140D03*
%TD*%
%TO.C,PH9*%
X137159645Y-102196208D03*
%TD*%
%TO.C,PH1*%
X61647085Y-79236948D03*
%TD*%
D11*
%TO.C,U1*%
X151230091Y-108757957D03*
X151230084Y-111297962D03*
X151230089Y-113837951D03*
X151230082Y-116377957D03*
X151230087Y-118917972D03*
X151230089Y-121457955D03*
X151230090Y-123997960D03*
X167420093Y-123997961D03*
X167420100Y-121457956D03*
X167420095Y-118917967D03*
X167420102Y-116377961D03*
X167420097Y-113837946D03*
X167420095Y-111297963D03*
X167420094Y-108757958D03*
D12*
X158048600Y-110352456D03*
X154880093Y-116060954D03*
X163135096Y-125585951D03*
%TD*%
D10*
%TO.C,PH18*%
X232784605Y-72348316D03*
%TD*%
%TO.C,PH7*%
X115984398Y-103886929D03*
%TD*%
%TO.C,PH3*%
X79679744Y-90313152D03*
%TD*%
%TO.C,PH24*%
X218135928Y-62056778D03*
%TD*%
%TO.C,PH2*%
X85865543Y-72348297D03*
%TD*%
%TO.C,PH28*%
X190665846Y-137585994D03*
%TD*%
%TO.C,PH16*%
X211385348Y-74748778D03*
%TD*%
%TO.C,PH11*%
X181490491Y-102196188D03*
%TD*%
%TO.C,PH21*%
X75945322Y-66019145D03*
%TD*%
D13*
%TO.C,RESET1*%
X120401542Y-118951403D03*
D14*
X126428237Y-121386346D03*
%TD*%
D10*
%TO.C,PH13*%
X195548236Y-86270448D03*
%TD*%
%TO.C,PH27*%
X127984275Y-137586022D03*
%TD*%
%TO.C,PH10*%
X130042146Y-119812700D03*
%TD*%
%TO.C,PH20*%
X257003066Y-79236951D03*
%TD*%
%TO.C,PH23*%
X100514220Y-62056753D03*
%TD*%
%TO.C,PH14*%
X202665744Y-103886935D03*
%TD*%
%TO.C,PH12*%
X188608003Y-119812686D03*
%TD*%
%TO.C,PH8*%
X108866873Y-121503410D03*
%TD*%
%TO.C,PH4*%
X107264809Y-74748772D03*
%TD*%
%TO.C,PH17*%
X218502855Y-92365300D03*
%TD*%
D15*
%TO.C,J2*%
X145406651Y-108668870D03*
D16*
X147946661Y-108668871D03*
%TD*%
D10*
%TO.C,PH5*%
X100147280Y-92365282D03*
%TD*%
%TO.C,PH15*%
X209783246Y-121503429D03*
%TD*%
D17*
%TO.C,H6*%
X199010500Y-134214536D03*
%TD*%
%TO.C,H2*%
X220089335Y-67729886D03*
%TD*%
%TO.C,H1*%
X98560809Y-67729873D03*
%TD*%
D18*
%TO.C,SW31*%
X157657603Y-107393439D03*
X160657601Y-107393441D03*
%TD*%
D17*
%TO.C,H3*%
X71350042Y-81656173D03*
%TD*%
%TO.C,H4*%
X247300112Y-81656169D03*
%TD*%
%TO.C,H5*%
X119639628Y-134214560D03*
%TD*%
M02*
