%TF.GenerationSoftware,KiCad,Pcbnew,8.0.6-1.fc41*%
%TF.CreationDate,2024-11-30T15:40:15+11:00*%
%TF.ProjectId,katori,6b61746f-7269-42e6-9b69-6361645f7063,0.1*%
%TF.SameCoordinates,Original*%
%TF.FileFunction,Paste,Bot*%
%TF.FilePolarity,Positive*%
%FSLAX46Y46*%
G04 Gerber Fmt 4.6, Leading zero omitted, Abs format (unit mm)*
G04 Created by KiCad (PCBNEW 8.0.6-1.fc41) date 2024-11-30 15:40:15*
%MOMM*%
%LPD*%
G01*
G04 APERTURE LIST*
G04 Aperture macros list*
%AMRoundRect*
0 Rectangle with rounded corners*
0 $1 Rounding radius*
0 $2 $3 $4 $5 $6 $7 $8 $9 X,Y pos of 4 corners*
0 Add a 4 corners polygon primitive as box body*
4,1,4,$2,$3,$4,$5,$6,$7,$8,$9,$2,$3,0*
0 Add four circle primitives for the rounded corners*
1,1,$1+$1,$2,$3*
1,1,$1+$1,$4,$5*
1,1,$1+$1,$6,$7*
1,1,$1+$1,$8,$9*
0 Add four rect primitives between the rounded corners*
20,1,$1+$1,$2,$3,$4,$5,0*
20,1,$1+$1,$4,$5,$6,$7,0*
20,1,$1+$1,$6,$7,$8,$9,0*
20,1,$1+$1,$8,$9,$2,$3,0*%
G04 Aperture macros list end*
%ADD10C,0.700000*%
%ADD11RoundRect,0.100000X0.628540X-0.146093X-0.553619X0.331530X-0.628540X0.146093X0.553619X-0.331530X0*%
%ADD12RoundRect,0.237500X-0.142827X-0.313858X0.320765X-0.126555X0.142827X0.313858X-0.320765X0.126555X0*%
%ADD13RoundRect,0.237500X-0.367124X-0.107824X0.189186X-0.332588X0.367124X0.107824X-0.189186X0.332588X0*%
%ADD14RoundRect,0.237500X0.250000X0.237500X-0.250000X0.237500X-0.250000X-0.237500X0.250000X-0.237500X0*%
%ADD15RoundRect,0.150000X0.150000X0.275000X-0.150000X0.275000X-0.150000X-0.275000X0.150000X-0.275000X0*%
%ADD16RoundRect,0.175000X0.175000X0.225000X-0.175000X0.225000X-0.175000X-0.225000X0.175000X-0.225000X0*%
%ADD17RoundRect,0.237500X-0.237500X0.250000X-0.237500X-0.250000X0.237500X-0.250000X0.237500X0.250000X0*%
%ADD18RoundRect,0.237500X-0.320765X-0.126555X0.142827X-0.313858X0.320765X0.126555X-0.142827X0.313858X0*%
%ADD19RoundRect,0.237500X-0.300030X-0.169965X0.185117X-0.290926X0.300030X0.169965X-0.185117X0.290926X0*%
%ADD20RoundRect,0.237500X-0.300000X-0.237500X0.300000X-0.237500X0.300000X0.237500X-0.300000X0.237500X0*%
%ADD21RoundRect,0.100000X-0.553619X-0.331530X0.628540X0.146093X0.553619X0.331530X-0.628540X-0.146093X0*%
%ADD22R,1.000000X0.800000*%
%ADD23R,0.700000X1.500000*%
%ADD24RoundRect,0.150000X0.512500X0.150000X-0.512500X0.150000X-0.512500X-0.150000X0.512500X-0.150000X0*%
%ADD25RoundRect,0.237500X0.142827X0.313858X-0.320765X0.126555X-0.142827X-0.313858X0.320765X-0.126555X0*%
%ADD26RoundRect,0.237500X-0.313702X-0.143169X0.159057X-0.305953X0.313702X0.143169X-0.159057X0.305953X0*%
%ADD27RoundRect,0.237500X-0.185117X-0.290926X0.300030X-0.169965X0.185117X0.290926X-0.300030X0.169965X0*%
%ADD28RoundRect,0.237500X-0.159057X-0.305953X0.313702X-0.143169X0.159057X0.305953X-0.313702X0.143169X0*%
%ADD29RoundRect,0.237500X0.189186X0.332588X-0.367124X0.107824X-0.189186X-0.332588X0.367124X-0.107824X0*%
G04 APERTURE END LIST*
D10*
%TO.C,H6*%
X201710500Y-134214536D02*
G75*
G02*
X196310500Y-134214536I-2700000J0D01*
G01*
X196310500Y-134214536D02*
G75*
G02*
X201710500Y-134214536I2700000J0D01*
G01*
%TO.C,H2*%
X222789335Y-67729886D02*
G75*
G02*
X217389335Y-67729886I-2700000J0D01*
G01*
X217389335Y-67729886D02*
G75*
G02*
X222789335Y-67729886I2700000J0D01*
G01*
%TO.C,H1*%
X101260809Y-67729873D02*
G75*
G02*
X95860809Y-67729873I-2700000J0D01*
G01*
X95860809Y-67729873D02*
G75*
G02*
X101260809Y-67729873I2700000J0D01*
G01*
%TO.C,H3*%
X74050042Y-81656173D02*
G75*
G02*
X68650042Y-81656173I-2700000J0D01*
G01*
X68650042Y-81656173D02*
G75*
G02*
X74050042Y-81656173I2700000J0D01*
G01*
%TO.C,H4*%
X250000112Y-81656169D02*
G75*
G02*
X244600112Y-81656169I-2700000J0D01*
G01*
X244600112Y-81656169D02*
G75*
G02*
X250000112Y-81656169I2700000J0D01*
G01*
%TO.C,H5*%
X122339628Y-134214560D02*
G75*
G02*
X116939628Y-134214560I-2700000J0D01*
G01*
X116939628Y-134214560D02*
G75*
G02*
X122339628Y-134214560I2700000J0D01*
G01*
%TD*%
D11*
%TO.C,U2*%
X125325927Y-125699660D03*
X125082433Y-126302330D03*
X124838940Y-126904992D03*
X124595463Y-127507661D03*
X124351951Y-128110330D03*
X124108455Y-128712997D03*
X123864971Y-129315669D03*
X123621474Y-129918331D03*
X118313353Y-127773706D03*
X118556847Y-127171036D03*
X118800340Y-126568374D03*
X119043817Y-125965705D03*
X119287329Y-125363036D03*
X119530825Y-124760369D03*
X119774309Y-124157697D03*
X120017806Y-123555035D03*
%TD*%
D12*
%TO.C,R13*%
X224577720Y-89355354D03*
X226269832Y-88671720D03*
%TD*%
D13*
%TO.C,C1*%
X118826396Y-121573810D03*
X120425792Y-122220010D03*
%TD*%
D14*
%TO.C,R8*%
X173789055Y-120821102D03*
X171964045Y-120821076D03*
%TD*%
D12*
%TO.C,R12*%
X206827756Y-126941482D03*
X208519860Y-126257850D03*
%TD*%
%TO.C,R14*%
X208901104Y-100973939D03*
X210593216Y-100290305D03*
%TD*%
D15*
%TO.C,J1*%
X145508000Y-110873000D03*
X144307992Y-110872999D03*
D16*
X146658001Y-114647995D03*
X143157997Y-114648004D03*
%TD*%
D17*
%TO.C,R16*%
X171539062Y-117408622D03*
X171539052Y-119233612D03*
%TD*%
D18*
%TO.C,R4*%
X130732724Y-99383845D03*
X132424824Y-100067475D03*
%TD*%
D19*
%TO.C,R6*%
X55120499Y-77068493D03*
X56891287Y-77510007D03*
%TD*%
D20*
%TO.C,C2*%
X172039067Y-115821105D03*
X173764065Y-115821103D03*
%TD*%
D21*
%TO.C,U4*%
X195028666Y-129918335D03*
X194785177Y-129315669D03*
X194541683Y-128712996D03*
X194298196Y-128110320D03*
X194054704Y-127507656D03*
X193811201Y-126904987D03*
X193567704Y-126302322D03*
X193324222Y-125699652D03*
X198632338Y-123555025D03*
X198875827Y-124157691D03*
X199119321Y-124760364D03*
X199362808Y-125363040D03*
X199606300Y-125965704D03*
X199849803Y-126568373D03*
X200093300Y-127171038D03*
X200336782Y-127773708D03*
%TD*%
D14*
%TO.C,R9*%
X177201557Y-114321118D03*
X175376547Y-114321092D03*
%TD*%
D22*
%TO.C,SW31*%
X155507605Y-108503449D03*
X155507606Y-106293443D03*
X162807597Y-106293438D03*
X162807598Y-108503435D03*
D23*
X156907590Y-109153445D03*
X159907608Y-109153441D03*
X161407606Y-109153441D03*
%TD*%
D18*
%TO.C,R2*%
X94066019Y-89136456D03*
X95758137Y-89820086D03*
%TD*%
%TO.C,R3*%
X109688212Y-100821654D03*
X111380312Y-101505284D03*
%TD*%
D24*
%TO.C,U3*%
X176289059Y-117421106D03*
X176289062Y-118371124D03*
X176289060Y-119321108D03*
X174014071Y-119321116D03*
X174014068Y-118371098D03*
X174014070Y-117421114D03*
%TD*%
D14*
%TO.C,R7*%
X177201558Y-115821129D03*
X175376548Y-115821103D03*
%TD*%
D25*
%TO.C,R15*%
X187486952Y-98342938D03*
X185794842Y-99026580D03*
%TD*%
D26*
%TO.C,R1*%
X73960450Y-88182852D03*
X75686040Y-88776996D03*
%TD*%
D27*
%TO.C,R11*%
X263577924Y-77613646D03*
X265348706Y-77172144D03*
%TD*%
D28*
%TO.C,R10*%
X245119584Y-87205966D03*
X246845146Y-86611820D03*
%TD*%
D18*
%TO.C,R5*%
X122774767Y-137665429D03*
X124466885Y-138349059D03*
%TD*%
D20*
%TO.C,C3*%
X175426537Y-120821104D03*
X177151535Y-120821102D03*
%TD*%
D29*
%TO.C,C4*%
X202385056Y-128254284D03*
X200785646Y-128900490D03*
%TD*%
M02*
