%TF.GenerationSoftware,KiCad,Pcbnew,8.0.6-1.fc41*%
%TF.CreationDate,2024-11-30T15:40:15+11:00*%
%TF.ProjectId,katori,6b61746f-7269-42e6-9b69-6361645f7063,0.1*%
%TF.SameCoordinates,Original*%
%TF.FileFunction,Soldermask,Bot*%
%TF.FilePolarity,Negative*%
%FSLAX46Y46*%
G04 Gerber Fmt 4.6, Leading zero omitted, Abs format (unit mm)*
G04 Created by KiCad (PCBNEW 8.0.6-1.fc41) date 2024-11-30 15:40:15*
%MOMM*%
%LPD*%
G01*
G04 APERTURE LIST*
G04 Aperture macros list*
%AMRoundRect*
0 Rectangle with rounded corners*
0 $1 Rounding radius*
0 $2 $3 $4 $5 $6 $7 $8 $9 X,Y pos of 4 corners*
0 Add a 4 corners polygon primitive as box body*
4,1,4,$2,$3,$4,$5,$6,$7,$8,$9,$2,$3,0*
0 Add four circle primitives for the rounded corners*
1,1,$1+$1,$2,$3*
1,1,$1+$1,$4,$5*
1,1,$1+$1,$6,$7*
1,1,$1+$1,$8,$9*
0 Add four rect primitives between the rounded corners*
20,1,$1+$1,$2,$3,$4,$5,0*
20,1,$1+$1,$4,$5,$6,$7,0*
20,1,$1+$1,$6,$7,$8,$9,0*
20,1,$1+$1,$8,$9,$2,$3,0*%
G04 Aperture macros list end*
%ADD10C,2.300000*%
%ADD11O,2.850000X1.900000*%
%ADD12C,1.497000*%
%ADD13RoundRect,0.050000X0.621649X-1.464514X1.464514X0.621649X-0.621649X1.464514X-1.464514X-0.621649X0*%
%ADD14C,2.350000*%
%ADD15RoundRect,0.050000X0.850000X-0.850000X0.850000X0.850000X-0.850000X0.850000X-0.850000X-0.850000X0*%
%ADD16O,1.800000X1.800000*%
%ADD17C,4.350000*%
%ADD18C,6.300000*%
%ADD19RoundRect,0.125000X0.661085X-0.132279X-0.567433X0.364075X-0.661085X0.132279X0.567433X-0.364075X0*%
%ADD20RoundRect,0.262500X-0.156641X-0.346403X0.353310X-0.140369X0.156641X0.346403X-0.353310X0.140369X0*%
%ADD21RoundRect,0.262500X-0.399669X-0.121639X0.203001X-0.365133X0.399669X0.121639X-0.203001X0.365133X0*%
%ADD22RoundRect,0.262500X0.275000X0.262500X-0.275000X0.262500X-0.275000X-0.262500X0.275000X-0.262500X0*%
%ADD23RoundRect,0.175000X0.175000X0.300000X-0.175000X0.300000X-0.175000X-0.300000X0.175000X-0.300000X0*%
%ADD24RoundRect,0.200000X0.200000X0.250000X-0.200000X0.250000X-0.200000X-0.250000X0.200000X-0.250000X0*%
%ADD25RoundRect,0.262500X-0.262500X0.275000X-0.262500X-0.275000X0.262500X-0.275000X0.262500X0.275000X0*%
%ADD26RoundRect,0.262500X-0.353310X-0.140369X0.156641X-0.346403X0.353310X0.140369X-0.156641X0.346403X0*%
%ADD27RoundRect,0.262500X-0.330336X-0.188174X0.203327X-0.321231X0.330336X0.188174X-0.203327X0.321231X0*%
%ADD28RoundRect,0.262500X-0.325000X-0.262500X0.325000X-0.262500X0.325000X0.262500X-0.325000X0.262500X0*%
%ADD29RoundRect,0.125000X-0.567433X-0.364075X0.661085X0.132279X0.567433X0.364075X-0.661085X-0.132279X0*%
%ADD30RoundRect,0.050000X-0.500000X-0.400000X0.500000X-0.400000X0.500000X0.400000X-0.500000X0.400000X0*%
%ADD31C,1.000000*%
%ADD32RoundRect,0.050000X-0.350000X-0.750000X0.350000X-0.750000X0.350000X0.750000X-0.350000X0.750000X0*%
%ADD33RoundRect,0.175000X0.537500X0.175000X-0.537500X0.175000X-0.537500X-0.175000X0.537500X-0.175000X0*%
%ADD34RoundRect,0.262500X0.156641X0.346403X-0.353310X0.140369X-0.156641X-0.346403X0.353310X-0.140369X0*%
%ADD35RoundRect,0.262500X-0.345479X-0.158667X0.174556X-0.337730X0.345479X0.158667X-0.174556X0.337730X0*%
%ADD36RoundRect,0.262500X-0.203327X-0.321231X0.330336X-0.188174X0.203327X0.321231X-0.330336X0.188174X0*%
%ADD37RoundRect,0.262500X-0.174556X-0.337730X0.345479X-0.158667X0.174556X0.337730X-0.345479X0.158667X0*%
%ADD38RoundRect,0.262500X0.203001X0.365133X-0.399669X0.121639X-0.203001X-0.365133X0.399669X-0.121639X0*%
G04 APERTURE END LIST*
D10*
%TO.C,PH6*%
X123101910Y-86270442D03*
%TD*%
%TO.C,PH19*%
X238970400Y-90313162D03*
%TD*%
%TO.C,PH22*%
X242704820Y-66019140D03*
%TD*%
%TO.C,PH9*%
X137159645Y-102196208D03*
%TD*%
%TO.C,PH1*%
X61647085Y-79236948D03*
%TD*%
D11*
%TO.C,U1*%
X151230091Y-108757957D03*
X151230084Y-111297962D03*
X151230089Y-113837951D03*
X151230082Y-116377957D03*
X151230087Y-118917972D03*
X151230089Y-121457955D03*
X151230090Y-123997960D03*
X167420093Y-123997961D03*
X167420100Y-121457956D03*
X167420095Y-118917967D03*
X167420102Y-116377961D03*
X167420097Y-113837946D03*
X167420095Y-111297963D03*
X167420094Y-108757958D03*
D12*
X158048600Y-110352456D03*
X154880093Y-116060954D03*
X163135096Y-125585951D03*
%TD*%
D10*
%TO.C,PH18*%
X232784605Y-72348316D03*
%TD*%
%TO.C,PH7*%
X115984398Y-103886929D03*
%TD*%
%TO.C,PH3*%
X79679744Y-90313152D03*
%TD*%
%TO.C,PH24*%
X218135928Y-62056778D03*
%TD*%
%TO.C,PH2*%
X85865543Y-72348297D03*
%TD*%
%TO.C,PH28*%
X190665846Y-137585994D03*
%TD*%
%TO.C,PH16*%
X211385348Y-74748778D03*
%TD*%
%TO.C,PH11*%
X181490491Y-102196188D03*
%TD*%
%TO.C,PH21*%
X75945322Y-66019145D03*
%TD*%
D13*
%TO.C,RESET1*%
X120401542Y-118951403D03*
D14*
X126428237Y-121386346D03*
%TD*%
D10*
%TO.C,PH13*%
X195548236Y-86270448D03*
%TD*%
%TO.C,PH27*%
X127984275Y-137586022D03*
%TD*%
%TO.C,PH10*%
X130042146Y-119812700D03*
%TD*%
%TO.C,PH20*%
X257003066Y-79236951D03*
%TD*%
%TO.C,PH23*%
X100514220Y-62056753D03*
%TD*%
%TO.C,PH14*%
X202665744Y-103886935D03*
%TD*%
%TO.C,PH12*%
X188608003Y-119812686D03*
%TD*%
%TO.C,PH8*%
X108866873Y-121503410D03*
%TD*%
%TO.C,PH4*%
X107264809Y-74748772D03*
%TD*%
%TO.C,PH17*%
X218502855Y-92365300D03*
%TD*%
D15*
%TO.C,J2*%
X145406651Y-108668870D03*
D16*
X147946661Y-108668871D03*
%TD*%
D10*
%TO.C,PH5*%
X100147280Y-92365282D03*
%TD*%
%TO.C,PH15*%
X209783246Y-121503429D03*
%TD*%
D17*
%TO.C,H6*%
X199010500Y-134214536D03*
D18*
X199010500Y-134214536D03*
%TD*%
D19*
%TO.C,U2*%
X125325927Y-125699660D03*
X125082433Y-126302330D03*
X124838940Y-126904992D03*
X124595463Y-127507661D03*
X124351951Y-128110330D03*
X124108455Y-128712997D03*
X123864971Y-129315669D03*
X123621474Y-129918331D03*
X118313353Y-127773706D03*
X118556847Y-127171036D03*
X118800340Y-126568374D03*
X119043817Y-125965705D03*
X119287329Y-125363036D03*
X119530825Y-124760369D03*
X119774309Y-124157697D03*
X120017806Y-123555035D03*
%TD*%
D20*
%TO.C,R13*%
X224577720Y-89355354D03*
X226269832Y-88671720D03*
%TD*%
D21*
%TO.C,C1*%
X118826396Y-121573810D03*
X120425792Y-122220010D03*
%TD*%
D17*
%TO.C,H2*%
X220089335Y-67729886D03*
D18*
X220089335Y-67729886D03*
%TD*%
D22*
%TO.C,R8*%
X173789055Y-120821102D03*
X171964045Y-120821076D03*
%TD*%
D20*
%TO.C,R12*%
X206827756Y-126941482D03*
X208519860Y-126257850D03*
%TD*%
D17*
%TO.C,H1*%
X98560809Y-67729873D03*
D18*
X98560809Y-67729873D03*
%TD*%
D20*
%TO.C,R14*%
X208901104Y-100973939D03*
X210593216Y-100290305D03*
%TD*%
D23*
%TO.C,J1*%
X145508000Y-110873000D03*
X144307992Y-110872999D03*
D24*
X146658001Y-114647995D03*
X143157997Y-114648004D03*
%TD*%
D25*
%TO.C,R16*%
X171539062Y-117408622D03*
X171539052Y-119233612D03*
%TD*%
D26*
%TO.C,R4*%
X130732724Y-99383845D03*
X132424824Y-100067475D03*
%TD*%
D27*
%TO.C,R6*%
X55120499Y-77068493D03*
X56891287Y-77510007D03*
%TD*%
D28*
%TO.C,C2*%
X172039067Y-115821105D03*
X173764065Y-115821103D03*
%TD*%
D29*
%TO.C,U4*%
X195028666Y-129918335D03*
X194785177Y-129315669D03*
X194541683Y-128712996D03*
X194298196Y-128110320D03*
X194054704Y-127507656D03*
X193811201Y-126904987D03*
X193567704Y-126302322D03*
X193324222Y-125699652D03*
X198632338Y-123555025D03*
X198875827Y-124157691D03*
X199119321Y-124760364D03*
X199362808Y-125363040D03*
X199606300Y-125965704D03*
X199849803Y-126568373D03*
X200093300Y-127171038D03*
X200336782Y-127773708D03*
%TD*%
D22*
%TO.C,R9*%
X177201557Y-114321118D03*
X175376547Y-114321092D03*
%TD*%
D30*
%TO.C,SW31*%
X155507605Y-108503449D03*
X155507606Y-106293443D03*
D31*
X157657603Y-107393439D03*
X160657601Y-107393441D03*
D30*
X162807597Y-106293438D03*
X162807598Y-108503435D03*
D32*
X156907590Y-109153445D03*
X159907608Y-109153441D03*
X161407606Y-109153441D03*
%TD*%
D26*
%TO.C,R2*%
X94066019Y-89136456D03*
X95758137Y-89820086D03*
%TD*%
%TO.C,R3*%
X109688212Y-100821654D03*
X111380312Y-101505284D03*
%TD*%
D33*
%TO.C,U3*%
X176289059Y-117421106D03*
X176289062Y-118371124D03*
X176289060Y-119321108D03*
X174014071Y-119321116D03*
X174014068Y-118371098D03*
X174014070Y-117421114D03*
%TD*%
D17*
%TO.C,H3*%
X71350042Y-81656173D03*
D18*
X71350042Y-81656173D03*
%TD*%
D22*
%TO.C,R7*%
X177201558Y-115821129D03*
X175376548Y-115821103D03*
%TD*%
D34*
%TO.C,R15*%
X187486952Y-98342938D03*
X185794842Y-99026580D03*
%TD*%
D35*
%TO.C,R1*%
X73960450Y-88182852D03*
X75686040Y-88776996D03*
%TD*%
D36*
%TO.C,R11*%
X263577924Y-77613646D03*
X265348706Y-77172144D03*
%TD*%
D37*
%TO.C,R10*%
X245119584Y-87205966D03*
X246845146Y-86611820D03*
%TD*%
D26*
%TO.C,R5*%
X122774767Y-137665429D03*
X124466885Y-138349059D03*
%TD*%
D17*
%TO.C,H4*%
X247300112Y-81656169D03*
D18*
X247300112Y-81656169D03*
%TD*%
D28*
%TO.C,C3*%
X175426537Y-120821104D03*
X177151535Y-120821102D03*
%TD*%
D17*
%TO.C,H5*%
X119639628Y-134214560D03*
D18*
X119639628Y-134214560D03*
%TD*%
D38*
%TO.C,C4*%
X202385056Y-128254284D03*
X200785646Y-128900490D03*
%TD*%
M02*
