%TF.GenerationSoftware,KiCad,Pcbnew,8.0.6-1.fc41*%
%TF.CreationDate,2024-11-30T15:40:19+11:00*%
%TF.ProjectId,katori,6b61746f-7269-42e6-9b69-6361645f7063,0.1*%
%TF.SameCoordinates,Original*%
%TF.FileFunction,Drillmap*%
%TF.FilePolarity,Positive*%
%FSLAX45Y45*%
G04 Gerber Fmt 4.5, Leading zero omitted, Abs format (unit mm)*
G04 Created by KiCad (PCBNEW 8.0.6-1.fc41) date 2024-11-30 15:40:19*
%MOMM*%
%LPD*%
G01*
G04 APERTURE LIST*
%ADD10C,0.150000*%
%ADD11C,0.200000*%
%ADD12C,0.120000*%
%ADD13C,0.100000*%
%ADD14C,0.220000*%
%ADD15C,0.425000*%
G04 APERTURE END LIST*
D10*
X15020675Y-10573798D02*
G75*
G02*
X14742524Y-10161414I-15J299988D01*
G01*
X21448895Y-12100433D02*
G75*
G02*
X21531780Y-11905161I139105J56183D01*
G01*
X4843807Y-9377319D02*
X5680856Y-6020096D01*
X16844340Y-10573796D02*
X15020675Y-10573798D01*
X9787256Y-14057348D02*
X11270746Y-14656717D01*
X15226316Y-8963974D02*
X14742519Y-10161412D01*
X25367444Y-9944238D02*
X26911950Y-9559151D01*
X25339606Y-10364287D02*
G75*
G02*
X25246613Y-10554947I-141826J-48834D01*
G01*
X20511379Y-14851987D02*
G75*
G02*
X20594264Y-14656716I139092J56187D01*
G01*
X8355003Y-10763847D02*
G75*
G02*
X8553023Y-10673604I141827J-48833D01*
G01*
X17122495Y-10161414D02*
G75*
G02*
X16844340Y-10573797I-278135J-112396D01*
G01*
X11270748Y-14656719D02*
G75*
G02*
X11353633Y-14851987I-56178J-139071D01*
G01*
X21157474Y-5439579D02*
G75*
G02*
X21352741Y-5522469I56196J-139061D01*
G01*
X19693738Y-6381491D02*
G75*
G02*
X19610851Y-6576759I-139058J-56199D01*
G01*
X6618401Y-10554948D02*
X8093410Y-11062834D01*
X12171275Y-6381492D02*
X12236834Y-6219235D01*
X25261903Y-10138622D02*
G75*
G02*
X25367443Y-9944234I141827J48842D01*
G01*
X21624637Y-5815962D02*
X23403896Y-5203312D01*
X6603110Y-10138621D02*
X6525409Y-10364287D01*
D11*
X18432507Y-12809425D02*
X18432507Y-13909424D01*
X13432506Y-13909424D01*
X13432506Y-12809424D01*
X18432507Y-12809425D01*
D10*
X18127356Y-7176132D02*
X19610851Y-6576760D01*
X18368597Y-14626225D02*
G75*
G02*
X18446772Y-14707114I-60897J-137075D01*
G01*
X25339606Y-10364287D02*
X25261903Y-10138623D01*
X16638700Y-8963977D02*
X17122495Y-10161414D01*
X7929966Y-6285153D02*
G75*
G02*
X7751851Y-6381861I-141826J48833D01*
G01*
X10333234Y-11905162D02*
G75*
G02*
X10416118Y-12100429I-56174J-139068D01*
G01*
X19047642Y-15793897D02*
G75*
G02*
X18852372Y-15711011I-56192J139077D01*
G01*
X13012641Y-15711011D02*
X13418241Y-14707114D01*
X21436726Y-5730324D02*
X21352745Y-5522467D01*
X8461117Y-5203314D02*
X10240376Y-5815962D01*
X9704368Y-13862079D02*
X10416118Y-12100429D01*
X13659934Y-8169339D02*
X15143428Y-8768707D01*
X19047642Y-15793897D02*
X20494049Y-15209513D01*
X18044472Y-7371399D02*
G75*
G02*
X18127356Y-7176130I139108J56179D01*
G01*
X11370966Y-15209514D02*
X12817372Y-15793898D01*
X8284073Y-10969843D02*
X8355003Y-10763847D01*
X21794254Y-11286812D02*
X23311994Y-10673605D01*
X12254161Y-6576760D02*
G75*
G02*
X12171281Y-6381494I56209J139080D01*
G01*
X8284073Y-10969841D02*
G75*
G02*
X8093414Y-11062827I-141854J48901D01*
G01*
X19628184Y-6219234D02*
X19693738Y-6381491D01*
X5862689Y-5910842D02*
X7751852Y-6381861D01*
X24113164Y-6381864D02*
G75*
G02*
X23935046Y-6285154I-36284J145554D01*
G01*
X4953063Y-9559152D02*
G75*
G02*
X4843806Y-9377319I36317J145562D01*
G01*
X6618401Y-10554948D02*
G75*
G02*
X6525409Y-10364287I48899J141858D01*
G01*
X8553023Y-10673604D02*
X10070758Y-11286811D01*
X12254161Y-6576759D02*
X13737656Y-7176131D01*
X12153944Y-6023967D02*
G75*
G02*
X12236840Y-6219237I-56164J-139073D01*
G01*
X10428289Y-5730325D02*
G75*
G02*
X10240378Y-5815955I-139069J56185D01*
G01*
X13577050Y-7974068D02*
X13820542Y-7371399D01*
X6497573Y-9944241D02*
G75*
G02*
X6603108Y-10138620I-36303J-145549D01*
G01*
X23771604Y-11062835D02*
G75*
G02*
X23580938Y-10969844I-48844J141815D01*
G01*
X16721584Y-8768709D02*
X18205078Y-8169337D01*
X13737656Y-7176132D02*
G75*
G02*
X13820541Y-7371399I-56196J-139078D01*
G01*
X21624637Y-5815962D02*
G75*
G02*
X21436722Y-5730326I-48817J141872D01*
G01*
X10070758Y-11286811D02*
G75*
G02*
X10153645Y-11482077I-56218J-139089D01*
G01*
X10153647Y-11482078D02*
X10088090Y-11644337D01*
X26002324Y-5910843D02*
G75*
G02*
X26184153Y-6020098I36296J-145527D01*
G01*
X27021208Y-9377321D02*
G75*
G02*
X26911949Y-9559148I-145519J-36299D01*
G01*
X21448896Y-12100429D02*
X22160647Y-13862079D01*
X4953063Y-9559152D02*
X6497573Y-9944241D01*
X9787256Y-14057348D02*
G75*
G02*
X9704367Y-13862078I56165J139068D01*
G01*
X8270452Y-5296304D02*
G75*
G02*
X8461117Y-5203312I141838J-48856D01*
G01*
X21711368Y-11482079D02*
G75*
G02*
X21794254Y-11286811I139152J56159D01*
G01*
X18044473Y-7371400D02*
X18287965Y-7974070D01*
X11370966Y-15209514D02*
G75*
G02*
X11288086Y-15014246I56264J139104D01*
G01*
X5680856Y-6020096D02*
G75*
G02*
X5862690Y-5910840I145524J-36254D01*
G01*
X13418241Y-14707114D02*
G75*
G02*
X13496417Y-14626227I139099J-56216D01*
G01*
X15143429Y-8768708D02*
G75*
G02*
X15226315Y-8963977I-56180J-139073D01*
G01*
X10170976Y-11839606D02*
G75*
G02*
X10088088Y-11644336I56184J139076D01*
G01*
X18446772Y-14707114D02*
X18852373Y-15711011D01*
X13012642Y-15711012D02*
G75*
G02*
X12817372Y-15793897I-139082J56202D01*
G01*
X21776925Y-11644335D02*
G75*
G02*
X21694038Y-11839604I-139045J-56205D01*
G01*
X20594264Y-14656717D02*
X22077760Y-14057347D01*
X20576936Y-15014243D02*
G75*
G02*
X20494049Y-15209513I-139066J-56197D01*
G01*
X23510011Y-10763849D02*
X23580940Y-10969844D01*
X21776925Y-11644335D02*
X21711368Y-11482079D01*
X7929966Y-6285153D02*
X8270452Y-5296304D01*
X10170978Y-11839606D02*
X10333234Y-11905162D01*
X11353634Y-14851987D02*
X11288079Y-15014244D01*
X23594559Y-5296307D02*
X23935048Y-6285153D01*
X23403896Y-5203312D02*
G75*
G02*
X23594558Y-5296307I48844J-141808D01*
G01*
X20576936Y-15014243D02*
X20511380Y-14851986D01*
X12153944Y-6023967D02*
X10707540Y-5439579D01*
X22160646Y-13862082D02*
G75*
G02*
X22077760Y-14057347I-139056J-56198D01*
G01*
X13659934Y-8169339D02*
G75*
G02*
X13577048Y-7974067I56216J139089D01*
G01*
X10512269Y-5522466D02*
G75*
G02*
X10707539Y-5439579I139071J-56174D01*
G01*
X26184158Y-6020097D02*
X27021207Y-9377321D01*
X21157474Y-5439579D02*
X19711069Y-6023966D01*
X16638699Y-8963976D02*
G75*
G02*
X16721582Y-8768706I139141J56166D01*
G01*
X10512269Y-5522466D02*
X10428289Y-5730324D01*
X19628184Y-6219233D02*
G75*
G02*
X19711068Y-6023966I139096J56183D01*
G01*
X24113164Y-6381864D02*
X26002324Y-5910843D01*
X13496416Y-14626225D02*
G75*
G02*
X18368597Y-14626225I2436090J-5483197D01*
G01*
X23311993Y-10673604D02*
G75*
G02*
X23510008Y-10763849I56207J-139036D01*
G01*
X23771604Y-11062835D02*
X25246614Y-10554948D01*
X18287965Y-7974070D02*
G75*
G02*
X18205079Y-8169337I-139055J-56200D01*
G01*
X21531780Y-11905161D02*
X21694039Y-11839606D01*
D12*
X15462583Y-11562941D02*
X15462508Y-11428597D01*
X15500609Y-11390495D02*
X15691185Y-11390221D01*
X15525670Y-11078715D02*
X15525670Y-11246355D01*
X15691184Y-11631521D02*
X15531165Y-11631522D01*
X15729283Y-11428321D02*
X15729284Y-11593421D01*
X15761890Y-11010135D02*
X15594250Y-11010135D01*
X15761890Y-11314935D02*
X15594250Y-11314935D01*
X15830470Y-11078715D02*
X15830470Y-11246355D01*
X16074270Y-12545708D02*
X16074270Y-12380607D01*
X16112373Y-12342507D02*
X16272390Y-12342557D01*
X16272389Y-12583857D02*
X16112370Y-12583808D01*
X16340970Y-12411138D02*
X16340970Y-12515278D01*
X15462508Y-11428597D02*
G75*
G02*
X15500609Y-11390495I38099J3D01*
G01*
X15462583Y-11562941D02*
G75*
G02*
X15531165Y-11631522I24777J-43805D01*
G01*
X15525670Y-11078715D02*
G75*
G02*
X15594250Y-11010135I65947J2634D01*
G01*
X15594250Y-11314935D02*
G75*
G02*
X15525670Y-11246355I-3106J65474D01*
G01*
X15691185Y-11390221D02*
G75*
G02*
X15729283Y-11428321I1J-38098D01*
G01*
X15729284Y-11593421D02*
G75*
G02*
X15691184Y-11631521I-38100J-1D01*
G01*
X15830470Y-11078715D02*
G75*
G02*
X15761890Y-11010135I-24775J43805D01*
G01*
X15830470Y-11246355D02*
G75*
G02*
X15761890Y-11314935I-65611J-2969D01*
G01*
X16074270Y-12380607D02*
G75*
G02*
X16112373Y-12342508I38104J-5D01*
G01*
X16112370Y-12583808D02*
G75*
G02*
X16074270Y-12545708I-2J38098D01*
G01*
X16272389Y-12583857D02*
G75*
G02*
X16340970Y-12515277I43805J24775D01*
G01*
X16272390Y-12342557D02*
G75*
G02*
X16340970Y-12411138I3955J-64625D01*
G01*
D11*
D13*
X15720760Y-10694344D02*
X15810760Y-10784344D01*
X15810760Y-10694344D02*
X15720760Y-10784344D01*
X16020760Y-10694344D02*
X16110760Y-10784344D01*
X16110760Y-10694344D02*
X16020760Y-10784344D01*
D14*
X6274708Y-7923695D02*
G75*
G02*
X6054708Y-7923695I-110000J0D01*
G01*
X6054708Y-7923695D02*
G75*
G02*
X6274708Y-7923695I110000J0D01*
G01*
X7704532Y-6601914D02*
G75*
G02*
X7484532Y-6601914I-110000J0D01*
G01*
X7484532Y-6601914D02*
G75*
G02*
X7704532Y-6601914I110000J0D01*
G01*
X8077974Y-9031315D02*
G75*
G02*
X7857974Y-9031315I-110000J0D01*
G01*
X7857974Y-9031315D02*
G75*
G02*
X8077974Y-9031315I110000J0D01*
G01*
X8696554Y-7234830D02*
G75*
G02*
X8476554Y-7234830I-110000J0D01*
G01*
X8476554Y-7234830D02*
G75*
G02*
X8696554Y-7234830I110000J0D01*
G01*
X10124728Y-9236528D02*
G75*
G02*
X9904728Y-9236528I-110000J0D01*
G01*
X9904728Y-9236528D02*
G75*
G02*
X10124728Y-9236528I110000J0D01*
G01*
X10161422Y-6205675D02*
G75*
G02*
X9941422Y-6205675I-110000J0D01*
G01*
X9941422Y-6205675D02*
G75*
G02*
X10161422Y-6205675I110000J0D01*
G01*
X10836481Y-7474877D02*
G75*
G02*
X10616481Y-7474877I-110000J0D01*
G01*
X10616481Y-7474877D02*
G75*
G02*
X10836481Y-7474877I110000J0D01*
G01*
X10996687Y-12150341D02*
G75*
G02*
X10776687Y-12150341I-110000J0D01*
G01*
X10776687Y-12150341D02*
G75*
G02*
X10996687Y-12150341I110000J0D01*
G01*
X11708440Y-10388693D02*
G75*
G02*
X11488440Y-10388693I-110000J0D01*
G01*
X11488440Y-10388693D02*
G75*
G02*
X11708440Y-10388693I110000J0D01*
G01*
X12420191Y-8627044D02*
G75*
G02*
X12200191Y-8627044I-110000J0D01*
G01*
X12200191Y-8627044D02*
G75*
G02*
X12420191Y-8627044I110000J0D01*
G01*
X12908427Y-13758602D02*
G75*
G02*
X12688427Y-13758602I-110000J0D01*
G01*
X12688427Y-13758602D02*
G75*
G02*
X12908427Y-13758602I110000J0D01*
G01*
X13114215Y-11981270D02*
G75*
G02*
X12894215Y-11981270I-110000J0D01*
G01*
X12894215Y-11981270D02*
G75*
G02*
X13114215Y-11981270I110000J0D01*
G01*
X13825964Y-10219621D02*
G75*
G02*
X13605964Y-10219621I-110000J0D01*
G01*
X13605964Y-10219621D02*
G75*
G02*
X13825964Y-10219621I110000J0D01*
G01*
X18259049Y-10219619D02*
G75*
G02*
X18039049Y-10219619I-110000J0D01*
G01*
X18039049Y-10219619D02*
G75*
G02*
X18259049Y-10219619I110000J0D01*
G01*
X18970800Y-11981269D02*
G75*
G02*
X18750800Y-11981269I-110000J0D01*
G01*
X18750800Y-11981269D02*
G75*
G02*
X18970800Y-11981269I110000J0D01*
G01*
X19176585Y-13758599D02*
G75*
G02*
X18956585Y-13758599I-110000J0D01*
G01*
X18956585Y-13758599D02*
G75*
G02*
X19176585Y-13758599I110000J0D01*
G01*
X19664824Y-8627045D02*
G75*
G02*
X19444824Y-8627045I-110000J0D01*
G01*
X19444824Y-8627045D02*
G75*
G02*
X19664824Y-8627045I110000J0D01*
G01*
X20376574Y-10388694D02*
G75*
G02*
X20156574Y-10388694I-110000J0D01*
G01*
X20156574Y-10388694D02*
G75*
G02*
X20376574Y-10388694I110000J0D01*
G01*
X21088325Y-12150343D02*
G75*
G02*
X20868325Y-12150343I-110000J0D01*
G01*
X20868325Y-12150343D02*
G75*
G02*
X21088325Y-12150343I110000J0D01*
G01*
X21248535Y-7474878D02*
G75*
G02*
X21028535Y-7474878I-110000J0D01*
G01*
X21028535Y-7474878D02*
G75*
G02*
X21248535Y-7474878I110000J0D01*
G01*
X21923593Y-6205678D02*
G75*
G02*
X21703593Y-6205678I-110000J0D01*
G01*
X21703593Y-6205678D02*
G75*
G02*
X21923593Y-6205678I110000J0D01*
G01*
X21960286Y-9236530D02*
G75*
G02*
X21740286Y-9236530I-110000J0D01*
G01*
X21740286Y-9236530D02*
G75*
G02*
X21960286Y-9236530I110000J0D01*
G01*
X23388460Y-7234832D02*
G75*
G02*
X23168460Y-7234832I-110000J0D01*
G01*
X23168460Y-7234832D02*
G75*
G02*
X23388460Y-7234832I110000J0D01*
G01*
X24007040Y-9031316D02*
G75*
G02*
X23787040Y-9031316I-110000J0D01*
G01*
X23787040Y-9031316D02*
G75*
G02*
X24007040Y-9031316I110000J0D01*
G01*
X24380482Y-6601914D02*
G75*
G02*
X24160482Y-6601914I-110000J0D01*
G01*
X24160482Y-6601914D02*
G75*
G02*
X24380482Y-6601914I110000J0D01*
G01*
X25810307Y-7923695D02*
G75*
G02*
X25590307Y-7923695I-110000J0D01*
G01*
X25590307Y-7923695D02*
G75*
G02*
X25810307Y-7923695I110000J0D01*
G01*
D15*
X7135004Y-7953117D02*
X7135004Y-8378117D01*
X6922504Y-8165617D02*
X7347504Y-8165617D01*
X9856081Y-6560487D02*
X9856081Y-6985487D01*
X9643581Y-6772987D02*
X10068581Y-6772987D01*
X11963963Y-13208956D02*
X11963963Y-13633956D01*
X11751463Y-13421456D02*
X12176463Y-13421456D01*
X19901050Y-13208954D02*
X19901050Y-13633954D01*
X19688550Y-13421454D02*
X20113550Y-13421454D01*
X22008934Y-6560489D02*
X22008934Y-6985489D01*
X21796434Y-6772989D02*
X22221434Y-6772989D01*
X24730011Y-7953117D02*
X24730011Y-8378117D01*
X24517511Y-8165617D02*
X24942511Y-8165617D01*
D11*
X5092633Y-16123804D02*
X5092633Y-15923804D01*
X5092633Y-15923804D02*
X5140252Y-15923804D01*
X5140252Y-15923804D02*
X5168823Y-15933328D01*
X5168823Y-15933328D02*
X5187871Y-15952375D01*
X5187871Y-15952375D02*
X5197394Y-15971423D01*
X5197394Y-15971423D02*
X5206918Y-16009518D01*
X5206918Y-16009518D02*
X5206918Y-16038090D01*
X5206918Y-16038090D02*
X5197394Y-16076185D01*
X5197394Y-16076185D02*
X5187871Y-16095232D01*
X5187871Y-16095232D02*
X5168823Y-16114280D01*
X5168823Y-16114280D02*
X5140252Y-16123804D01*
X5140252Y-16123804D02*
X5092633Y-16123804D01*
X5292633Y-16123804D02*
X5292633Y-15990470D01*
X5292633Y-16028566D02*
X5302156Y-16009518D01*
X5302156Y-16009518D02*
X5311680Y-15999994D01*
X5311680Y-15999994D02*
X5330728Y-15990470D01*
X5330728Y-15990470D02*
X5349775Y-15990470D01*
X5416442Y-16123804D02*
X5416442Y-15990470D01*
X5416442Y-15923804D02*
X5406918Y-15933328D01*
X5406918Y-15933328D02*
X5416442Y-15942851D01*
X5416442Y-15942851D02*
X5425966Y-15933328D01*
X5425966Y-15933328D02*
X5416442Y-15923804D01*
X5416442Y-15923804D02*
X5416442Y-15942851D01*
X5540252Y-16123804D02*
X5521204Y-16114280D01*
X5521204Y-16114280D02*
X5511680Y-16095232D01*
X5511680Y-16095232D02*
X5511680Y-15923804D01*
X5645013Y-16123804D02*
X5625966Y-16114280D01*
X5625966Y-16114280D02*
X5616442Y-16095232D01*
X5616442Y-16095232D02*
X5616442Y-15923804D01*
X5873585Y-16123804D02*
X5873585Y-15923804D01*
X5873585Y-15923804D02*
X5940252Y-16066661D01*
X5940252Y-16066661D02*
X6006918Y-15923804D01*
X6006918Y-15923804D02*
X6006918Y-16123804D01*
X6187871Y-16123804D02*
X6187871Y-16019042D01*
X6187871Y-16019042D02*
X6178347Y-15999994D01*
X6178347Y-15999994D02*
X6159299Y-15990470D01*
X6159299Y-15990470D02*
X6121204Y-15990470D01*
X6121204Y-15990470D02*
X6102156Y-15999994D01*
X6187871Y-16114280D02*
X6168823Y-16123804D01*
X6168823Y-16123804D02*
X6121204Y-16123804D01*
X6121204Y-16123804D02*
X6102156Y-16114280D01*
X6102156Y-16114280D02*
X6092632Y-16095232D01*
X6092632Y-16095232D02*
X6092632Y-16076185D01*
X6092632Y-16076185D02*
X6102156Y-16057137D01*
X6102156Y-16057137D02*
X6121204Y-16047613D01*
X6121204Y-16047613D02*
X6168823Y-16047613D01*
X6168823Y-16047613D02*
X6187871Y-16038090D01*
X6283109Y-15990470D02*
X6283109Y-16190470D01*
X6283109Y-15999994D02*
X6302156Y-15990470D01*
X6302156Y-15990470D02*
X6340252Y-15990470D01*
X6340252Y-15990470D02*
X6359299Y-15999994D01*
X6359299Y-15999994D02*
X6368823Y-16009518D01*
X6368823Y-16009518D02*
X6378347Y-16028566D01*
X6378347Y-16028566D02*
X6378347Y-16085709D01*
X6378347Y-16085709D02*
X6368823Y-16104756D01*
X6368823Y-16104756D02*
X6359299Y-16114280D01*
X6359299Y-16114280D02*
X6340252Y-16123804D01*
X6340252Y-16123804D02*
X6302156Y-16123804D01*
X6302156Y-16123804D02*
X6283109Y-16114280D01*
X6464061Y-16104756D02*
X6473585Y-16114280D01*
X6473585Y-16114280D02*
X6464061Y-16123804D01*
X6464061Y-16123804D02*
X6454537Y-16114280D01*
X6454537Y-16114280D02*
X6464061Y-16104756D01*
X6464061Y-16104756D02*
X6464061Y-16123804D01*
X6464061Y-15999994D02*
X6473585Y-16009518D01*
X6473585Y-16009518D02*
X6464061Y-16019042D01*
X6464061Y-16019042D02*
X6454537Y-16009518D01*
X6454537Y-16009518D02*
X6464061Y-15999994D01*
X6464061Y-15999994D02*
X6464061Y-16019042D01*
D13*
X4741856Y-16407320D02*
X4831856Y-16497320D01*
X4831856Y-16407320D02*
X4741856Y-16497320D01*
D11*
X5130728Y-16343804D02*
X5149775Y-16343804D01*
X5149775Y-16343804D02*
X5168823Y-16353328D01*
X5168823Y-16353328D02*
X5178347Y-16362851D01*
X5178347Y-16362851D02*
X5187871Y-16381899D01*
X5187871Y-16381899D02*
X5197394Y-16419994D01*
X5197394Y-16419994D02*
X5197394Y-16467613D01*
X5197394Y-16467613D02*
X5187871Y-16505709D01*
X5187871Y-16505709D02*
X5178347Y-16524756D01*
X5178347Y-16524756D02*
X5168823Y-16534280D01*
X5168823Y-16534280D02*
X5149775Y-16543804D01*
X5149775Y-16543804D02*
X5130728Y-16543804D01*
X5130728Y-16543804D02*
X5111680Y-16534280D01*
X5111680Y-16534280D02*
X5102156Y-16524756D01*
X5102156Y-16524756D02*
X5092633Y-16505709D01*
X5092633Y-16505709D02*
X5083109Y-16467613D01*
X5083109Y-16467613D02*
X5083109Y-16419994D01*
X5083109Y-16419994D02*
X5092633Y-16381899D01*
X5092633Y-16381899D02*
X5102156Y-16362851D01*
X5102156Y-16362851D02*
X5111680Y-16353328D01*
X5111680Y-16353328D02*
X5130728Y-16343804D01*
X5283109Y-16524756D02*
X5292633Y-16534280D01*
X5292633Y-16534280D02*
X5283109Y-16543804D01*
X5283109Y-16543804D02*
X5273585Y-16534280D01*
X5273585Y-16534280D02*
X5283109Y-16524756D01*
X5283109Y-16524756D02*
X5283109Y-16543804D01*
X5387871Y-16543804D02*
X5425966Y-16543804D01*
X5425966Y-16543804D02*
X5445014Y-16534280D01*
X5445014Y-16534280D02*
X5454537Y-16524756D01*
X5454537Y-16524756D02*
X5473585Y-16496185D01*
X5473585Y-16496185D02*
X5483109Y-16458090D01*
X5483109Y-16458090D02*
X5483109Y-16381899D01*
X5483109Y-16381899D02*
X5473585Y-16362851D01*
X5473585Y-16362851D02*
X5464061Y-16353328D01*
X5464061Y-16353328D02*
X5445014Y-16343804D01*
X5445014Y-16343804D02*
X5406918Y-16343804D01*
X5406918Y-16343804D02*
X5387871Y-16353328D01*
X5387871Y-16353328D02*
X5378347Y-16362851D01*
X5378347Y-16362851D02*
X5368823Y-16381899D01*
X5368823Y-16381899D02*
X5368823Y-16429518D01*
X5368823Y-16429518D02*
X5378347Y-16448566D01*
X5378347Y-16448566D02*
X5387871Y-16458090D01*
X5387871Y-16458090D02*
X5406918Y-16467613D01*
X5406918Y-16467613D02*
X5445014Y-16467613D01*
X5445014Y-16467613D02*
X5464061Y-16458090D01*
X5464061Y-16458090D02*
X5473585Y-16448566D01*
X5473585Y-16448566D02*
X5483109Y-16429518D01*
X5606918Y-16343804D02*
X5625966Y-16343804D01*
X5625966Y-16343804D02*
X5645013Y-16353328D01*
X5645013Y-16353328D02*
X5654537Y-16362851D01*
X5654537Y-16362851D02*
X5664061Y-16381899D01*
X5664061Y-16381899D02*
X5673585Y-16419994D01*
X5673585Y-16419994D02*
X5673585Y-16467613D01*
X5673585Y-16467613D02*
X5664061Y-16505709D01*
X5664061Y-16505709D02*
X5654537Y-16524756D01*
X5654537Y-16524756D02*
X5645013Y-16534280D01*
X5645013Y-16534280D02*
X5625966Y-16543804D01*
X5625966Y-16543804D02*
X5606918Y-16543804D01*
X5606918Y-16543804D02*
X5587871Y-16534280D01*
X5587871Y-16534280D02*
X5578347Y-16524756D01*
X5578347Y-16524756D02*
X5568823Y-16505709D01*
X5568823Y-16505709D02*
X5559299Y-16467613D01*
X5559299Y-16467613D02*
X5559299Y-16419994D01*
X5559299Y-16419994D02*
X5568823Y-16381899D01*
X5568823Y-16381899D02*
X5578347Y-16362851D01*
X5578347Y-16362851D02*
X5587871Y-16353328D01*
X5587871Y-16353328D02*
X5606918Y-16343804D01*
X5797394Y-16343804D02*
X5816442Y-16343804D01*
X5816442Y-16343804D02*
X5835490Y-16353328D01*
X5835490Y-16353328D02*
X5845013Y-16362851D01*
X5845013Y-16362851D02*
X5854537Y-16381899D01*
X5854537Y-16381899D02*
X5864061Y-16419994D01*
X5864061Y-16419994D02*
X5864061Y-16467613D01*
X5864061Y-16467613D02*
X5854537Y-16505709D01*
X5854537Y-16505709D02*
X5845013Y-16524756D01*
X5845013Y-16524756D02*
X5835490Y-16534280D01*
X5835490Y-16534280D02*
X5816442Y-16543804D01*
X5816442Y-16543804D02*
X5797394Y-16543804D01*
X5797394Y-16543804D02*
X5778347Y-16534280D01*
X5778347Y-16534280D02*
X5768823Y-16524756D01*
X5768823Y-16524756D02*
X5759299Y-16505709D01*
X5759299Y-16505709D02*
X5749775Y-16467613D01*
X5749775Y-16467613D02*
X5749775Y-16419994D01*
X5749775Y-16419994D02*
X5759299Y-16381899D01*
X5759299Y-16381899D02*
X5768823Y-16362851D01*
X5768823Y-16362851D02*
X5778347Y-16353328D01*
X5778347Y-16353328D02*
X5797394Y-16343804D01*
X5949775Y-16543804D02*
X5949775Y-16410470D01*
X5949775Y-16429518D02*
X5959299Y-16419994D01*
X5959299Y-16419994D02*
X5978347Y-16410470D01*
X5978347Y-16410470D02*
X6006918Y-16410470D01*
X6006918Y-16410470D02*
X6025966Y-16419994D01*
X6025966Y-16419994D02*
X6035490Y-16439042D01*
X6035490Y-16439042D02*
X6035490Y-16543804D01*
X6035490Y-16439042D02*
X6045013Y-16419994D01*
X6045013Y-16419994D02*
X6064061Y-16410470D01*
X6064061Y-16410470D02*
X6092632Y-16410470D01*
X6092632Y-16410470D02*
X6111680Y-16419994D01*
X6111680Y-16419994D02*
X6121204Y-16439042D01*
X6121204Y-16439042D02*
X6121204Y-16543804D01*
X6216442Y-16543804D02*
X6216442Y-16410470D01*
X6216442Y-16429518D02*
X6225966Y-16419994D01*
X6225966Y-16419994D02*
X6245013Y-16410470D01*
X6245013Y-16410470D02*
X6273585Y-16410470D01*
X6273585Y-16410470D02*
X6292633Y-16419994D01*
X6292633Y-16419994D02*
X6302156Y-16439042D01*
X6302156Y-16439042D02*
X6302156Y-16543804D01*
X6302156Y-16439042D02*
X6311680Y-16419994D01*
X6311680Y-16419994D02*
X6330728Y-16410470D01*
X6330728Y-16410470D02*
X6359299Y-16410470D01*
X6359299Y-16410470D02*
X6378347Y-16419994D01*
X6378347Y-16419994D02*
X6387871Y-16439042D01*
X6387871Y-16439042D02*
X6387871Y-16543804D01*
X6778347Y-16334280D02*
X6606918Y-16591423D01*
X7035490Y-16343804D02*
X7054537Y-16343804D01*
X7054537Y-16343804D02*
X7073585Y-16353328D01*
X7073585Y-16353328D02*
X7083109Y-16362851D01*
X7083109Y-16362851D02*
X7092633Y-16381899D01*
X7092633Y-16381899D02*
X7102156Y-16419994D01*
X7102156Y-16419994D02*
X7102156Y-16467613D01*
X7102156Y-16467613D02*
X7092633Y-16505709D01*
X7092633Y-16505709D02*
X7083109Y-16524756D01*
X7083109Y-16524756D02*
X7073585Y-16534280D01*
X7073585Y-16534280D02*
X7054537Y-16543804D01*
X7054537Y-16543804D02*
X7035490Y-16543804D01*
X7035490Y-16543804D02*
X7016442Y-16534280D01*
X7016442Y-16534280D02*
X7006918Y-16524756D01*
X7006918Y-16524756D02*
X6997395Y-16505709D01*
X6997395Y-16505709D02*
X6987871Y-16467613D01*
X6987871Y-16467613D02*
X6987871Y-16419994D01*
X6987871Y-16419994D02*
X6997395Y-16381899D01*
X6997395Y-16381899D02*
X7006918Y-16362851D01*
X7006918Y-16362851D02*
X7016442Y-16353328D01*
X7016442Y-16353328D02*
X7035490Y-16343804D01*
X7187871Y-16524756D02*
X7197395Y-16534280D01*
X7197395Y-16534280D02*
X7187871Y-16543804D01*
X7187871Y-16543804D02*
X7178347Y-16534280D01*
X7178347Y-16534280D02*
X7187871Y-16524756D01*
X7187871Y-16524756D02*
X7187871Y-16543804D01*
X7321204Y-16343804D02*
X7340252Y-16343804D01*
X7340252Y-16343804D02*
X7359299Y-16353328D01*
X7359299Y-16353328D02*
X7368823Y-16362851D01*
X7368823Y-16362851D02*
X7378347Y-16381899D01*
X7378347Y-16381899D02*
X7387871Y-16419994D01*
X7387871Y-16419994D02*
X7387871Y-16467613D01*
X7387871Y-16467613D02*
X7378347Y-16505709D01*
X7378347Y-16505709D02*
X7368823Y-16524756D01*
X7368823Y-16524756D02*
X7359299Y-16534280D01*
X7359299Y-16534280D02*
X7340252Y-16543804D01*
X7340252Y-16543804D02*
X7321204Y-16543804D01*
X7321204Y-16543804D02*
X7302156Y-16534280D01*
X7302156Y-16534280D02*
X7292633Y-16524756D01*
X7292633Y-16524756D02*
X7283109Y-16505709D01*
X7283109Y-16505709D02*
X7273585Y-16467613D01*
X7273585Y-16467613D02*
X7273585Y-16419994D01*
X7273585Y-16419994D02*
X7283109Y-16381899D01*
X7283109Y-16381899D02*
X7292633Y-16362851D01*
X7292633Y-16362851D02*
X7302156Y-16353328D01*
X7302156Y-16353328D02*
X7321204Y-16343804D01*
X7454537Y-16343804D02*
X7578347Y-16343804D01*
X7578347Y-16343804D02*
X7511680Y-16419994D01*
X7511680Y-16419994D02*
X7540252Y-16419994D01*
X7540252Y-16419994D02*
X7559299Y-16429518D01*
X7559299Y-16429518D02*
X7568823Y-16439042D01*
X7568823Y-16439042D02*
X7578347Y-16458090D01*
X7578347Y-16458090D02*
X7578347Y-16505709D01*
X7578347Y-16505709D02*
X7568823Y-16524756D01*
X7568823Y-16524756D02*
X7559299Y-16534280D01*
X7559299Y-16534280D02*
X7540252Y-16543804D01*
X7540252Y-16543804D02*
X7483109Y-16543804D01*
X7483109Y-16543804D02*
X7464061Y-16534280D01*
X7464061Y-16534280D02*
X7454537Y-16524756D01*
X7759299Y-16343804D02*
X7664061Y-16343804D01*
X7664061Y-16343804D02*
X7654537Y-16439042D01*
X7654537Y-16439042D02*
X7664061Y-16429518D01*
X7664061Y-16429518D02*
X7683109Y-16419994D01*
X7683109Y-16419994D02*
X7730728Y-16419994D01*
X7730728Y-16419994D02*
X7749776Y-16429518D01*
X7749776Y-16429518D02*
X7759299Y-16439042D01*
X7759299Y-16439042D02*
X7768823Y-16458090D01*
X7768823Y-16458090D02*
X7768823Y-16505709D01*
X7768823Y-16505709D02*
X7759299Y-16524756D01*
X7759299Y-16524756D02*
X7749776Y-16534280D01*
X7749776Y-16534280D02*
X7730728Y-16543804D01*
X7730728Y-16543804D02*
X7683109Y-16543804D01*
X7683109Y-16543804D02*
X7664061Y-16534280D01*
X7664061Y-16534280D02*
X7654537Y-16524756D01*
X7940252Y-16410470D02*
X7940252Y-16543804D01*
X7892633Y-16334280D02*
X7845014Y-16477137D01*
X7845014Y-16477137D02*
X7968823Y-16477137D01*
X8035490Y-16343804D02*
X8035490Y-16381899D01*
X8111680Y-16343804D02*
X8111680Y-16381899D01*
X8406919Y-16619994D02*
X8397395Y-16610470D01*
X8397395Y-16610470D02*
X8378347Y-16581899D01*
X8378347Y-16581899D02*
X8368823Y-16562851D01*
X8368823Y-16562851D02*
X8359299Y-16534280D01*
X8359299Y-16534280D02*
X8349776Y-16486661D01*
X8349776Y-16486661D02*
X8349776Y-16448566D01*
X8349776Y-16448566D02*
X8359299Y-16400947D01*
X8359299Y-16400947D02*
X8368823Y-16372375D01*
X8368823Y-16372375D02*
X8378347Y-16353328D01*
X8378347Y-16353328D02*
X8397395Y-16324756D01*
X8397395Y-16324756D02*
X8406919Y-16315232D01*
X8473585Y-16362851D02*
X8483109Y-16353328D01*
X8483109Y-16353328D02*
X8502157Y-16343804D01*
X8502157Y-16343804D02*
X8549776Y-16343804D01*
X8549776Y-16343804D02*
X8568823Y-16353328D01*
X8568823Y-16353328D02*
X8578347Y-16362851D01*
X8578347Y-16362851D02*
X8587871Y-16381899D01*
X8587871Y-16381899D02*
X8587871Y-16400947D01*
X8587871Y-16400947D02*
X8578347Y-16429518D01*
X8578347Y-16429518D02*
X8464061Y-16543804D01*
X8464061Y-16543804D02*
X8587871Y-16543804D01*
X8825966Y-16543804D02*
X8825966Y-16343804D01*
X8911681Y-16543804D02*
X8911681Y-16439042D01*
X8911681Y-16439042D02*
X8902157Y-16419994D01*
X8902157Y-16419994D02*
X8883109Y-16410470D01*
X8883109Y-16410470D02*
X8854538Y-16410470D01*
X8854538Y-16410470D02*
X8835490Y-16419994D01*
X8835490Y-16419994D02*
X8825966Y-16429518D01*
X9035490Y-16543804D02*
X9016442Y-16534280D01*
X9016442Y-16534280D02*
X9006919Y-16524756D01*
X9006919Y-16524756D02*
X8997395Y-16505709D01*
X8997395Y-16505709D02*
X8997395Y-16448566D01*
X8997395Y-16448566D02*
X9006919Y-16429518D01*
X9006919Y-16429518D02*
X9016442Y-16419994D01*
X9016442Y-16419994D02*
X9035490Y-16410470D01*
X9035490Y-16410470D02*
X9064062Y-16410470D01*
X9064062Y-16410470D02*
X9083109Y-16419994D01*
X9083109Y-16419994D02*
X9092633Y-16429518D01*
X9092633Y-16429518D02*
X9102157Y-16448566D01*
X9102157Y-16448566D02*
X9102157Y-16505709D01*
X9102157Y-16505709D02*
X9092633Y-16524756D01*
X9092633Y-16524756D02*
X9083109Y-16534280D01*
X9083109Y-16534280D02*
X9064062Y-16543804D01*
X9064062Y-16543804D02*
X9035490Y-16543804D01*
X9216442Y-16543804D02*
X9197395Y-16534280D01*
X9197395Y-16534280D02*
X9187871Y-16515232D01*
X9187871Y-16515232D02*
X9187871Y-16343804D01*
X9368823Y-16534280D02*
X9349776Y-16543804D01*
X9349776Y-16543804D02*
X9311681Y-16543804D01*
X9311681Y-16543804D02*
X9292633Y-16534280D01*
X9292633Y-16534280D02*
X9283109Y-16515232D01*
X9283109Y-16515232D02*
X9283109Y-16439042D01*
X9283109Y-16439042D02*
X9292633Y-16419994D01*
X9292633Y-16419994D02*
X9311681Y-16410470D01*
X9311681Y-16410470D02*
X9349776Y-16410470D01*
X9349776Y-16410470D02*
X9368823Y-16419994D01*
X9368823Y-16419994D02*
X9378347Y-16439042D01*
X9378347Y-16439042D02*
X9378347Y-16458090D01*
X9378347Y-16458090D02*
X9283109Y-16477137D01*
X9454538Y-16534280D02*
X9473585Y-16543804D01*
X9473585Y-16543804D02*
X9511681Y-16543804D01*
X9511681Y-16543804D02*
X9530728Y-16534280D01*
X9530728Y-16534280D02*
X9540252Y-16515232D01*
X9540252Y-16515232D02*
X9540252Y-16505709D01*
X9540252Y-16505709D02*
X9530728Y-16486661D01*
X9530728Y-16486661D02*
X9511681Y-16477137D01*
X9511681Y-16477137D02*
X9483109Y-16477137D01*
X9483109Y-16477137D02*
X9464062Y-16467613D01*
X9464062Y-16467613D02*
X9454538Y-16448566D01*
X9454538Y-16448566D02*
X9454538Y-16439042D01*
X9454538Y-16439042D02*
X9464062Y-16419994D01*
X9464062Y-16419994D02*
X9483109Y-16410470D01*
X9483109Y-16410470D02*
X9511681Y-16410470D01*
X9511681Y-16410470D02*
X9530728Y-16419994D01*
X9606919Y-16619994D02*
X9616443Y-16610470D01*
X9616443Y-16610470D02*
X9635490Y-16581899D01*
X9635490Y-16581899D02*
X9645014Y-16562851D01*
X9645014Y-16562851D02*
X9654538Y-16534280D01*
X9654538Y-16534280D02*
X9664062Y-16486661D01*
X9664062Y-16486661D02*
X9664062Y-16448566D01*
X9664062Y-16448566D02*
X9654538Y-16400947D01*
X9654538Y-16400947D02*
X9645014Y-16372375D01*
X9645014Y-16372375D02*
X9635490Y-16353328D01*
X9635490Y-16353328D02*
X9616443Y-16324756D01*
X9616443Y-16324756D02*
X9606919Y-16315232D01*
X9968824Y-16619994D02*
X9959300Y-16610470D01*
X9959300Y-16610470D02*
X9940252Y-16581899D01*
X9940252Y-16581899D02*
X9930728Y-16562851D01*
X9930728Y-16562851D02*
X9921204Y-16534280D01*
X9921204Y-16534280D02*
X9911681Y-16486661D01*
X9911681Y-16486661D02*
X9911681Y-16448566D01*
X9911681Y-16448566D02*
X9921204Y-16400947D01*
X9921204Y-16400947D02*
X9930728Y-16372375D01*
X9930728Y-16372375D02*
X9940252Y-16353328D01*
X9940252Y-16353328D02*
X9959300Y-16324756D01*
X9959300Y-16324756D02*
X9968824Y-16315232D01*
X10045014Y-16410470D02*
X10045014Y-16543804D01*
X10045014Y-16429518D02*
X10054538Y-16419994D01*
X10054538Y-16419994D02*
X10073585Y-16410470D01*
X10073585Y-16410470D02*
X10102157Y-16410470D01*
X10102157Y-16410470D02*
X10121204Y-16419994D01*
X10121204Y-16419994D02*
X10130728Y-16439042D01*
X10130728Y-16439042D02*
X10130728Y-16543804D01*
X10254538Y-16543804D02*
X10235490Y-16534280D01*
X10235490Y-16534280D02*
X10225966Y-16524756D01*
X10225966Y-16524756D02*
X10216443Y-16505709D01*
X10216443Y-16505709D02*
X10216443Y-16448566D01*
X10216443Y-16448566D02*
X10225966Y-16429518D01*
X10225966Y-16429518D02*
X10235490Y-16419994D01*
X10235490Y-16419994D02*
X10254538Y-16410470D01*
X10254538Y-16410470D02*
X10283109Y-16410470D01*
X10283109Y-16410470D02*
X10302157Y-16419994D01*
X10302157Y-16419994D02*
X10311681Y-16429518D01*
X10311681Y-16429518D02*
X10321204Y-16448566D01*
X10321204Y-16448566D02*
X10321204Y-16505709D01*
X10321204Y-16505709D02*
X10311681Y-16524756D01*
X10311681Y-16524756D02*
X10302157Y-16534280D01*
X10302157Y-16534280D02*
X10283109Y-16543804D01*
X10283109Y-16543804D02*
X10254538Y-16543804D01*
X10378347Y-16410470D02*
X10454538Y-16410470D01*
X10406919Y-16343804D02*
X10406919Y-16515232D01*
X10406919Y-16515232D02*
X10416443Y-16534280D01*
X10416443Y-16534280D02*
X10435490Y-16543804D01*
X10435490Y-16543804D02*
X10454538Y-16543804D01*
X10673585Y-16410470D02*
X10673585Y-16610470D01*
X10673585Y-16419994D02*
X10692633Y-16410470D01*
X10692633Y-16410470D02*
X10730728Y-16410470D01*
X10730728Y-16410470D02*
X10749776Y-16419994D01*
X10749776Y-16419994D02*
X10759300Y-16429518D01*
X10759300Y-16429518D02*
X10768824Y-16448566D01*
X10768824Y-16448566D02*
X10768824Y-16505709D01*
X10768824Y-16505709D02*
X10759300Y-16524756D01*
X10759300Y-16524756D02*
X10749776Y-16534280D01*
X10749776Y-16534280D02*
X10730728Y-16543804D01*
X10730728Y-16543804D02*
X10692633Y-16543804D01*
X10692633Y-16543804D02*
X10673585Y-16534280D01*
X10883109Y-16543804D02*
X10864062Y-16534280D01*
X10864062Y-16534280D02*
X10854538Y-16515232D01*
X10854538Y-16515232D02*
X10854538Y-16343804D01*
X11045014Y-16543804D02*
X11045014Y-16439042D01*
X11045014Y-16439042D02*
X11035490Y-16419994D01*
X11035490Y-16419994D02*
X11016443Y-16410470D01*
X11016443Y-16410470D02*
X10978347Y-16410470D01*
X10978347Y-16410470D02*
X10959300Y-16419994D01*
X11045014Y-16534280D02*
X11025966Y-16543804D01*
X11025966Y-16543804D02*
X10978347Y-16543804D01*
X10978347Y-16543804D02*
X10959300Y-16534280D01*
X10959300Y-16534280D02*
X10949776Y-16515232D01*
X10949776Y-16515232D02*
X10949776Y-16496185D01*
X10949776Y-16496185D02*
X10959300Y-16477137D01*
X10959300Y-16477137D02*
X10978347Y-16467613D01*
X10978347Y-16467613D02*
X11025966Y-16467613D01*
X11025966Y-16467613D02*
X11045014Y-16458090D01*
X11111681Y-16410470D02*
X11187871Y-16410470D01*
X11140252Y-16343804D02*
X11140252Y-16515232D01*
X11140252Y-16515232D02*
X11149776Y-16534280D01*
X11149776Y-16534280D02*
X11168824Y-16543804D01*
X11168824Y-16543804D02*
X11187871Y-16543804D01*
X11330728Y-16534280D02*
X11311681Y-16543804D01*
X11311681Y-16543804D02*
X11273585Y-16543804D01*
X11273585Y-16543804D02*
X11254538Y-16534280D01*
X11254538Y-16534280D02*
X11245014Y-16515232D01*
X11245014Y-16515232D02*
X11245014Y-16439042D01*
X11245014Y-16439042D02*
X11254538Y-16419994D01*
X11254538Y-16419994D02*
X11273585Y-16410470D01*
X11273585Y-16410470D02*
X11311681Y-16410470D01*
X11311681Y-16410470D02*
X11330728Y-16419994D01*
X11330728Y-16419994D02*
X11340252Y-16439042D01*
X11340252Y-16439042D02*
X11340252Y-16458090D01*
X11340252Y-16458090D02*
X11245014Y-16477137D01*
X11511681Y-16543804D02*
X11511681Y-16343804D01*
X11511681Y-16534280D02*
X11492633Y-16543804D01*
X11492633Y-16543804D02*
X11454538Y-16543804D01*
X11454538Y-16543804D02*
X11435490Y-16534280D01*
X11435490Y-16534280D02*
X11425966Y-16524756D01*
X11425966Y-16524756D02*
X11416443Y-16505709D01*
X11416443Y-16505709D02*
X11416443Y-16448566D01*
X11416443Y-16448566D02*
X11425966Y-16429518D01*
X11425966Y-16429518D02*
X11435490Y-16419994D01*
X11435490Y-16419994D02*
X11454538Y-16410470D01*
X11454538Y-16410470D02*
X11492633Y-16410470D01*
X11492633Y-16410470D02*
X11511681Y-16419994D01*
X11587871Y-16619994D02*
X11597395Y-16610470D01*
X11597395Y-16610470D02*
X11616443Y-16581899D01*
X11616443Y-16581899D02*
X11625966Y-16562851D01*
X11625966Y-16562851D02*
X11635490Y-16534280D01*
X11635490Y-16534280D02*
X11645014Y-16486661D01*
X11645014Y-16486661D02*
X11645014Y-16448566D01*
X11645014Y-16448566D02*
X11635490Y-16400947D01*
X11635490Y-16400947D02*
X11625966Y-16372375D01*
X11625966Y-16372375D02*
X11616443Y-16353328D01*
X11616443Y-16353328D02*
X11597395Y-16324756D01*
X11597395Y-16324756D02*
X11587871Y-16315232D01*
X4831856Y-16716320D02*
G75*
G02*
X4631856Y-16716320I-100000J0D01*
G01*
X4631856Y-16716320D02*
G75*
G02*
X4831856Y-16716320I100000J0D01*
G01*
X5083109Y-16626851D02*
X5092633Y-16617328D01*
X5092633Y-16617328D02*
X5111680Y-16607804D01*
X5111680Y-16607804D02*
X5159299Y-16607804D01*
X5159299Y-16607804D02*
X5178347Y-16617328D01*
X5178347Y-16617328D02*
X5187871Y-16626851D01*
X5187871Y-16626851D02*
X5197394Y-16645899D01*
X5197394Y-16645899D02*
X5197394Y-16664947D01*
X5197394Y-16664947D02*
X5187871Y-16693518D01*
X5187871Y-16693518D02*
X5073585Y-16807804D01*
X5073585Y-16807804D02*
X5197394Y-16807804D01*
X5283109Y-16788756D02*
X5292633Y-16798280D01*
X5292633Y-16798280D02*
X5283109Y-16807804D01*
X5283109Y-16807804D02*
X5273585Y-16798280D01*
X5273585Y-16798280D02*
X5283109Y-16788756D01*
X5283109Y-16788756D02*
X5283109Y-16807804D01*
X5368823Y-16626851D02*
X5378347Y-16617328D01*
X5378347Y-16617328D02*
X5397394Y-16607804D01*
X5397394Y-16607804D02*
X5445014Y-16607804D01*
X5445014Y-16607804D02*
X5464061Y-16617328D01*
X5464061Y-16617328D02*
X5473585Y-16626851D01*
X5473585Y-16626851D02*
X5483109Y-16645899D01*
X5483109Y-16645899D02*
X5483109Y-16664947D01*
X5483109Y-16664947D02*
X5473585Y-16693518D01*
X5473585Y-16693518D02*
X5359299Y-16807804D01*
X5359299Y-16807804D02*
X5483109Y-16807804D01*
X5606918Y-16607804D02*
X5625966Y-16607804D01*
X5625966Y-16607804D02*
X5645013Y-16617328D01*
X5645013Y-16617328D02*
X5654537Y-16626851D01*
X5654537Y-16626851D02*
X5664061Y-16645899D01*
X5664061Y-16645899D02*
X5673585Y-16683994D01*
X5673585Y-16683994D02*
X5673585Y-16731613D01*
X5673585Y-16731613D02*
X5664061Y-16769709D01*
X5664061Y-16769709D02*
X5654537Y-16788756D01*
X5654537Y-16788756D02*
X5645013Y-16798280D01*
X5645013Y-16798280D02*
X5625966Y-16807804D01*
X5625966Y-16807804D02*
X5606918Y-16807804D01*
X5606918Y-16807804D02*
X5587871Y-16798280D01*
X5587871Y-16798280D02*
X5578347Y-16788756D01*
X5578347Y-16788756D02*
X5568823Y-16769709D01*
X5568823Y-16769709D02*
X5559299Y-16731613D01*
X5559299Y-16731613D02*
X5559299Y-16683994D01*
X5559299Y-16683994D02*
X5568823Y-16645899D01*
X5568823Y-16645899D02*
X5578347Y-16626851D01*
X5578347Y-16626851D02*
X5587871Y-16617328D01*
X5587871Y-16617328D02*
X5606918Y-16607804D01*
X5797394Y-16607804D02*
X5816442Y-16607804D01*
X5816442Y-16607804D02*
X5835490Y-16617328D01*
X5835490Y-16617328D02*
X5845013Y-16626851D01*
X5845013Y-16626851D02*
X5854537Y-16645899D01*
X5854537Y-16645899D02*
X5864061Y-16683994D01*
X5864061Y-16683994D02*
X5864061Y-16731613D01*
X5864061Y-16731613D02*
X5854537Y-16769709D01*
X5854537Y-16769709D02*
X5845013Y-16788756D01*
X5845013Y-16788756D02*
X5835490Y-16798280D01*
X5835490Y-16798280D02*
X5816442Y-16807804D01*
X5816442Y-16807804D02*
X5797394Y-16807804D01*
X5797394Y-16807804D02*
X5778347Y-16798280D01*
X5778347Y-16798280D02*
X5768823Y-16788756D01*
X5768823Y-16788756D02*
X5759299Y-16769709D01*
X5759299Y-16769709D02*
X5749775Y-16731613D01*
X5749775Y-16731613D02*
X5749775Y-16683994D01*
X5749775Y-16683994D02*
X5759299Y-16645899D01*
X5759299Y-16645899D02*
X5768823Y-16626851D01*
X5768823Y-16626851D02*
X5778347Y-16617328D01*
X5778347Y-16617328D02*
X5797394Y-16607804D01*
X5949775Y-16807804D02*
X5949775Y-16674470D01*
X5949775Y-16693518D02*
X5959299Y-16683994D01*
X5959299Y-16683994D02*
X5978347Y-16674470D01*
X5978347Y-16674470D02*
X6006918Y-16674470D01*
X6006918Y-16674470D02*
X6025966Y-16683994D01*
X6025966Y-16683994D02*
X6035490Y-16703042D01*
X6035490Y-16703042D02*
X6035490Y-16807804D01*
X6035490Y-16703042D02*
X6045013Y-16683994D01*
X6045013Y-16683994D02*
X6064061Y-16674470D01*
X6064061Y-16674470D02*
X6092632Y-16674470D01*
X6092632Y-16674470D02*
X6111680Y-16683994D01*
X6111680Y-16683994D02*
X6121204Y-16703042D01*
X6121204Y-16703042D02*
X6121204Y-16807804D01*
X6216442Y-16807804D02*
X6216442Y-16674470D01*
X6216442Y-16693518D02*
X6225966Y-16683994D01*
X6225966Y-16683994D02*
X6245013Y-16674470D01*
X6245013Y-16674470D02*
X6273585Y-16674470D01*
X6273585Y-16674470D02*
X6292633Y-16683994D01*
X6292633Y-16683994D02*
X6302156Y-16703042D01*
X6302156Y-16703042D02*
X6302156Y-16807804D01*
X6302156Y-16703042D02*
X6311680Y-16683994D01*
X6311680Y-16683994D02*
X6330728Y-16674470D01*
X6330728Y-16674470D02*
X6359299Y-16674470D01*
X6359299Y-16674470D02*
X6378347Y-16683994D01*
X6378347Y-16683994D02*
X6387871Y-16703042D01*
X6387871Y-16703042D02*
X6387871Y-16807804D01*
X6778347Y-16598280D02*
X6606918Y-16855423D01*
X7035490Y-16607804D02*
X7054537Y-16607804D01*
X7054537Y-16607804D02*
X7073585Y-16617328D01*
X7073585Y-16617328D02*
X7083109Y-16626851D01*
X7083109Y-16626851D02*
X7092633Y-16645899D01*
X7092633Y-16645899D02*
X7102156Y-16683994D01*
X7102156Y-16683994D02*
X7102156Y-16731613D01*
X7102156Y-16731613D02*
X7092633Y-16769709D01*
X7092633Y-16769709D02*
X7083109Y-16788756D01*
X7083109Y-16788756D02*
X7073585Y-16798280D01*
X7073585Y-16798280D02*
X7054537Y-16807804D01*
X7054537Y-16807804D02*
X7035490Y-16807804D01*
X7035490Y-16807804D02*
X7016442Y-16798280D01*
X7016442Y-16798280D02*
X7006918Y-16788756D01*
X7006918Y-16788756D02*
X6997395Y-16769709D01*
X6997395Y-16769709D02*
X6987871Y-16731613D01*
X6987871Y-16731613D02*
X6987871Y-16683994D01*
X6987871Y-16683994D02*
X6997395Y-16645899D01*
X6997395Y-16645899D02*
X7006918Y-16626851D01*
X7006918Y-16626851D02*
X7016442Y-16617328D01*
X7016442Y-16617328D02*
X7035490Y-16607804D01*
X7187871Y-16788756D02*
X7197395Y-16798280D01*
X7197395Y-16798280D02*
X7187871Y-16807804D01*
X7187871Y-16807804D02*
X7178347Y-16798280D01*
X7178347Y-16798280D02*
X7187871Y-16788756D01*
X7187871Y-16788756D02*
X7187871Y-16807804D01*
X7321204Y-16607804D02*
X7340252Y-16607804D01*
X7340252Y-16607804D02*
X7359299Y-16617328D01*
X7359299Y-16617328D02*
X7368823Y-16626851D01*
X7368823Y-16626851D02*
X7378347Y-16645899D01*
X7378347Y-16645899D02*
X7387871Y-16683994D01*
X7387871Y-16683994D02*
X7387871Y-16731613D01*
X7387871Y-16731613D02*
X7378347Y-16769709D01*
X7378347Y-16769709D02*
X7368823Y-16788756D01*
X7368823Y-16788756D02*
X7359299Y-16798280D01*
X7359299Y-16798280D02*
X7340252Y-16807804D01*
X7340252Y-16807804D02*
X7321204Y-16807804D01*
X7321204Y-16807804D02*
X7302156Y-16798280D01*
X7302156Y-16798280D02*
X7292633Y-16788756D01*
X7292633Y-16788756D02*
X7283109Y-16769709D01*
X7283109Y-16769709D02*
X7273585Y-16731613D01*
X7273585Y-16731613D02*
X7273585Y-16683994D01*
X7273585Y-16683994D02*
X7283109Y-16645899D01*
X7283109Y-16645899D02*
X7292633Y-16626851D01*
X7292633Y-16626851D02*
X7302156Y-16617328D01*
X7302156Y-16617328D02*
X7321204Y-16607804D01*
X7502156Y-16693518D02*
X7483109Y-16683994D01*
X7483109Y-16683994D02*
X7473585Y-16674470D01*
X7473585Y-16674470D02*
X7464061Y-16655423D01*
X7464061Y-16655423D02*
X7464061Y-16645899D01*
X7464061Y-16645899D02*
X7473585Y-16626851D01*
X7473585Y-16626851D02*
X7483109Y-16617328D01*
X7483109Y-16617328D02*
X7502156Y-16607804D01*
X7502156Y-16607804D02*
X7540252Y-16607804D01*
X7540252Y-16607804D02*
X7559299Y-16617328D01*
X7559299Y-16617328D02*
X7568823Y-16626851D01*
X7568823Y-16626851D02*
X7578347Y-16645899D01*
X7578347Y-16645899D02*
X7578347Y-16655423D01*
X7578347Y-16655423D02*
X7568823Y-16674470D01*
X7568823Y-16674470D02*
X7559299Y-16683994D01*
X7559299Y-16683994D02*
X7540252Y-16693518D01*
X7540252Y-16693518D02*
X7502156Y-16693518D01*
X7502156Y-16693518D02*
X7483109Y-16703042D01*
X7483109Y-16703042D02*
X7473585Y-16712566D01*
X7473585Y-16712566D02*
X7464061Y-16731613D01*
X7464061Y-16731613D02*
X7464061Y-16769709D01*
X7464061Y-16769709D02*
X7473585Y-16788756D01*
X7473585Y-16788756D02*
X7483109Y-16798280D01*
X7483109Y-16798280D02*
X7502156Y-16807804D01*
X7502156Y-16807804D02*
X7540252Y-16807804D01*
X7540252Y-16807804D02*
X7559299Y-16798280D01*
X7559299Y-16798280D02*
X7568823Y-16788756D01*
X7568823Y-16788756D02*
X7578347Y-16769709D01*
X7578347Y-16769709D02*
X7578347Y-16731613D01*
X7578347Y-16731613D02*
X7568823Y-16712566D01*
X7568823Y-16712566D02*
X7559299Y-16703042D01*
X7559299Y-16703042D02*
X7540252Y-16693518D01*
X7749776Y-16607804D02*
X7711680Y-16607804D01*
X7711680Y-16607804D02*
X7692633Y-16617328D01*
X7692633Y-16617328D02*
X7683109Y-16626851D01*
X7683109Y-16626851D02*
X7664061Y-16655423D01*
X7664061Y-16655423D02*
X7654537Y-16693518D01*
X7654537Y-16693518D02*
X7654537Y-16769709D01*
X7654537Y-16769709D02*
X7664061Y-16788756D01*
X7664061Y-16788756D02*
X7673585Y-16798280D01*
X7673585Y-16798280D02*
X7692633Y-16807804D01*
X7692633Y-16807804D02*
X7730728Y-16807804D01*
X7730728Y-16807804D02*
X7749776Y-16798280D01*
X7749776Y-16798280D02*
X7759299Y-16788756D01*
X7759299Y-16788756D02*
X7768823Y-16769709D01*
X7768823Y-16769709D02*
X7768823Y-16722090D01*
X7768823Y-16722090D02*
X7759299Y-16703042D01*
X7759299Y-16703042D02*
X7749776Y-16693518D01*
X7749776Y-16693518D02*
X7730728Y-16683994D01*
X7730728Y-16683994D02*
X7692633Y-16683994D01*
X7692633Y-16683994D02*
X7673585Y-16693518D01*
X7673585Y-16693518D02*
X7664061Y-16703042D01*
X7664061Y-16703042D02*
X7654537Y-16722090D01*
X7940252Y-16607804D02*
X7902156Y-16607804D01*
X7902156Y-16607804D02*
X7883109Y-16617328D01*
X7883109Y-16617328D02*
X7873585Y-16626851D01*
X7873585Y-16626851D02*
X7854537Y-16655423D01*
X7854537Y-16655423D02*
X7845014Y-16693518D01*
X7845014Y-16693518D02*
X7845014Y-16769709D01*
X7845014Y-16769709D02*
X7854537Y-16788756D01*
X7854537Y-16788756D02*
X7864061Y-16798280D01*
X7864061Y-16798280D02*
X7883109Y-16807804D01*
X7883109Y-16807804D02*
X7921204Y-16807804D01*
X7921204Y-16807804D02*
X7940252Y-16798280D01*
X7940252Y-16798280D02*
X7949776Y-16788756D01*
X7949776Y-16788756D02*
X7959299Y-16769709D01*
X7959299Y-16769709D02*
X7959299Y-16722090D01*
X7959299Y-16722090D02*
X7949776Y-16703042D01*
X7949776Y-16703042D02*
X7940252Y-16693518D01*
X7940252Y-16693518D02*
X7921204Y-16683994D01*
X7921204Y-16683994D02*
X7883109Y-16683994D01*
X7883109Y-16683994D02*
X7864061Y-16693518D01*
X7864061Y-16693518D02*
X7854537Y-16703042D01*
X7854537Y-16703042D02*
X7845014Y-16722090D01*
X8035490Y-16607804D02*
X8035490Y-16645899D01*
X8111680Y-16607804D02*
X8111680Y-16645899D01*
X8406919Y-16883994D02*
X8397395Y-16874471D01*
X8397395Y-16874471D02*
X8378347Y-16845899D01*
X8378347Y-16845899D02*
X8368823Y-16826852D01*
X8368823Y-16826852D02*
X8359299Y-16798280D01*
X8359299Y-16798280D02*
X8349776Y-16750661D01*
X8349776Y-16750661D02*
X8349776Y-16712566D01*
X8349776Y-16712566D02*
X8359299Y-16664947D01*
X8359299Y-16664947D02*
X8368823Y-16636375D01*
X8368823Y-16636375D02*
X8378347Y-16617328D01*
X8378347Y-16617328D02*
X8397395Y-16588756D01*
X8397395Y-16588756D02*
X8406919Y-16579232D01*
X8473585Y-16626851D02*
X8483109Y-16617328D01*
X8483109Y-16617328D02*
X8502157Y-16607804D01*
X8502157Y-16607804D02*
X8549776Y-16607804D01*
X8549776Y-16607804D02*
X8568823Y-16617328D01*
X8568823Y-16617328D02*
X8578347Y-16626851D01*
X8578347Y-16626851D02*
X8587871Y-16645899D01*
X8587871Y-16645899D02*
X8587871Y-16664947D01*
X8587871Y-16664947D02*
X8578347Y-16693518D01*
X8578347Y-16693518D02*
X8464061Y-16807804D01*
X8464061Y-16807804D02*
X8587871Y-16807804D01*
X8759300Y-16607804D02*
X8721204Y-16607804D01*
X8721204Y-16607804D02*
X8702157Y-16617328D01*
X8702157Y-16617328D02*
X8692633Y-16626851D01*
X8692633Y-16626851D02*
X8673585Y-16655423D01*
X8673585Y-16655423D02*
X8664061Y-16693518D01*
X8664061Y-16693518D02*
X8664061Y-16769709D01*
X8664061Y-16769709D02*
X8673585Y-16788756D01*
X8673585Y-16788756D02*
X8683109Y-16798280D01*
X8683109Y-16798280D02*
X8702157Y-16807804D01*
X8702157Y-16807804D02*
X8740252Y-16807804D01*
X8740252Y-16807804D02*
X8759300Y-16798280D01*
X8759300Y-16798280D02*
X8768823Y-16788756D01*
X8768823Y-16788756D02*
X8778347Y-16769709D01*
X8778347Y-16769709D02*
X8778347Y-16722090D01*
X8778347Y-16722090D02*
X8768823Y-16703042D01*
X8768823Y-16703042D02*
X8759300Y-16693518D01*
X8759300Y-16693518D02*
X8740252Y-16683994D01*
X8740252Y-16683994D02*
X8702157Y-16683994D01*
X8702157Y-16683994D02*
X8683109Y-16693518D01*
X8683109Y-16693518D02*
X8673585Y-16703042D01*
X8673585Y-16703042D02*
X8664061Y-16722090D01*
X9016442Y-16807804D02*
X9016442Y-16607804D01*
X9102157Y-16807804D02*
X9102157Y-16703042D01*
X9102157Y-16703042D02*
X9092633Y-16683994D01*
X9092633Y-16683994D02*
X9073585Y-16674470D01*
X9073585Y-16674470D02*
X9045014Y-16674470D01*
X9045014Y-16674470D02*
X9025966Y-16683994D01*
X9025966Y-16683994D02*
X9016442Y-16693518D01*
X9225966Y-16807804D02*
X9206919Y-16798280D01*
X9206919Y-16798280D02*
X9197395Y-16788756D01*
X9197395Y-16788756D02*
X9187871Y-16769709D01*
X9187871Y-16769709D02*
X9187871Y-16712566D01*
X9187871Y-16712566D02*
X9197395Y-16693518D01*
X9197395Y-16693518D02*
X9206919Y-16683994D01*
X9206919Y-16683994D02*
X9225966Y-16674470D01*
X9225966Y-16674470D02*
X9254538Y-16674470D01*
X9254538Y-16674470D02*
X9273585Y-16683994D01*
X9273585Y-16683994D02*
X9283109Y-16693518D01*
X9283109Y-16693518D02*
X9292633Y-16712566D01*
X9292633Y-16712566D02*
X9292633Y-16769709D01*
X9292633Y-16769709D02*
X9283109Y-16788756D01*
X9283109Y-16788756D02*
X9273585Y-16798280D01*
X9273585Y-16798280D02*
X9254538Y-16807804D01*
X9254538Y-16807804D02*
X9225966Y-16807804D01*
X9406919Y-16807804D02*
X9387871Y-16798280D01*
X9387871Y-16798280D02*
X9378347Y-16779232D01*
X9378347Y-16779232D02*
X9378347Y-16607804D01*
X9559300Y-16798280D02*
X9540252Y-16807804D01*
X9540252Y-16807804D02*
X9502157Y-16807804D01*
X9502157Y-16807804D02*
X9483109Y-16798280D01*
X9483109Y-16798280D02*
X9473585Y-16779232D01*
X9473585Y-16779232D02*
X9473585Y-16703042D01*
X9473585Y-16703042D02*
X9483109Y-16683994D01*
X9483109Y-16683994D02*
X9502157Y-16674470D01*
X9502157Y-16674470D02*
X9540252Y-16674470D01*
X9540252Y-16674470D02*
X9559300Y-16683994D01*
X9559300Y-16683994D02*
X9568823Y-16703042D01*
X9568823Y-16703042D02*
X9568823Y-16722090D01*
X9568823Y-16722090D02*
X9473585Y-16741137D01*
X9645014Y-16798280D02*
X9664062Y-16807804D01*
X9664062Y-16807804D02*
X9702157Y-16807804D01*
X9702157Y-16807804D02*
X9721204Y-16798280D01*
X9721204Y-16798280D02*
X9730728Y-16779232D01*
X9730728Y-16779232D02*
X9730728Y-16769709D01*
X9730728Y-16769709D02*
X9721204Y-16750661D01*
X9721204Y-16750661D02*
X9702157Y-16741137D01*
X9702157Y-16741137D02*
X9673585Y-16741137D01*
X9673585Y-16741137D02*
X9654538Y-16731613D01*
X9654538Y-16731613D02*
X9645014Y-16712566D01*
X9645014Y-16712566D02*
X9645014Y-16703042D01*
X9645014Y-16703042D02*
X9654538Y-16683994D01*
X9654538Y-16683994D02*
X9673585Y-16674470D01*
X9673585Y-16674470D02*
X9702157Y-16674470D01*
X9702157Y-16674470D02*
X9721204Y-16683994D01*
X9797395Y-16883994D02*
X9806919Y-16874471D01*
X9806919Y-16874471D02*
X9825966Y-16845899D01*
X9825966Y-16845899D02*
X9835490Y-16826852D01*
X9835490Y-16826852D02*
X9845014Y-16798280D01*
X9845014Y-16798280D02*
X9854538Y-16750661D01*
X9854538Y-16750661D02*
X9854538Y-16712566D01*
X9854538Y-16712566D02*
X9845014Y-16664947D01*
X9845014Y-16664947D02*
X9835490Y-16636375D01*
X9835490Y-16636375D02*
X9825966Y-16617328D01*
X9825966Y-16617328D02*
X9806919Y-16588756D01*
X9806919Y-16588756D02*
X9797395Y-16579232D01*
X10159300Y-16883994D02*
X10149776Y-16874471D01*
X10149776Y-16874471D02*
X10130728Y-16845899D01*
X10130728Y-16845899D02*
X10121204Y-16826852D01*
X10121204Y-16826852D02*
X10111681Y-16798280D01*
X10111681Y-16798280D02*
X10102157Y-16750661D01*
X10102157Y-16750661D02*
X10102157Y-16712566D01*
X10102157Y-16712566D02*
X10111681Y-16664947D01*
X10111681Y-16664947D02*
X10121204Y-16636375D01*
X10121204Y-16636375D02*
X10130728Y-16617328D01*
X10130728Y-16617328D02*
X10149776Y-16588756D01*
X10149776Y-16588756D02*
X10159300Y-16579232D01*
X10235490Y-16674470D02*
X10235490Y-16807804D01*
X10235490Y-16693518D02*
X10245014Y-16683994D01*
X10245014Y-16683994D02*
X10264062Y-16674470D01*
X10264062Y-16674470D02*
X10292633Y-16674470D01*
X10292633Y-16674470D02*
X10311681Y-16683994D01*
X10311681Y-16683994D02*
X10321204Y-16703042D01*
X10321204Y-16703042D02*
X10321204Y-16807804D01*
X10445014Y-16807804D02*
X10425966Y-16798280D01*
X10425966Y-16798280D02*
X10416443Y-16788756D01*
X10416443Y-16788756D02*
X10406919Y-16769709D01*
X10406919Y-16769709D02*
X10406919Y-16712566D01*
X10406919Y-16712566D02*
X10416443Y-16693518D01*
X10416443Y-16693518D02*
X10425966Y-16683994D01*
X10425966Y-16683994D02*
X10445014Y-16674470D01*
X10445014Y-16674470D02*
X10473585Y-16674470D01*
X10473585Y-16674470D02*
X10492633Y-16683994D01*
X10492633Y-16683994D02*
X10502157Y-16693518D01*
X10502157Y-16693518D02*
X10511681Y-16712566D01*
X10511681Y-16712566D02*
X10511681Y-16769709D01*
X10511681Y-16769709D02*
X10502157Y-16788756D01*
X10502157Y-16788756D02*
X10492633Y-16798280D01*
X10492633Y-16798280D02*
X10473585Y-16807804D01*
X10473585Y-16807804D02*
X10445014Y-16807804D01*
X10568824Y-16674470D02*
X10645014Y-16674470D01*
X10597395Y-16607804D02*
X10597395Y-16779232D01*
X10597395Y-16779232D02*
X10606919Y-16798280D01*
X10606919Y-16798280D02*
X10625966Y-16807804D01*
X10625966Y-16807804D02*
X10645014Y-16807804D01*
X10864062Y-16674470D02*
X10864062Y-16874471D01*
X10864062Y-16683994D02*
X10883109Y-16674470D01*
X10883109Y-16674470D02*
X10921205Y-16674470D01*
X10921205Y-16674470D02*
X10940252Y-16683994D01*
X10940252Y-16683994D02*
X10949776Y-16693518D01*
X10949776Y-16693518D02*
X10959300Y-16712566D01*
X10959300Y-16712566D02*
X10959300Y-16769709D01*
X10959300Y-16769709D02*
X10949776Y-16788756D01*
X10949776Y-16788756D02*
X10940252Y-16798280D01*
X10940252Y-16798280D02*
X10921205Y-16807804D01*
X10921205Y-16807804D02*
X10883109Y-16807804D01*
X10883109Y-16807804D02*
X10864062Y-16798280D01*
X11073585Y-16807804D02*
X11054538Y-16798280D01*
X11054538Y-16798280D02*
X11045014Y-16779232D01*
X11045014Y-16779232D02*
X11045014Y-16607804D01*
X11235490Y-16807804D02*
X11235490Y-16703042D01*
X11235490Y-16703042D02*
X11225966Y-16683994D01*
X11225966Y-16683994D02*
X11206919Y-16674470D01*
X11206919Y-16674470D02*
X11168824Y-16674470D01*
X11168824Y-16674470D02*
X11149776Y-16683994D01*
X11235490Y-16798280D02*
X11216443Y-16807804D01*
X11216443Y-16807804D02*
X11168824Y-16807804D01*
X11168824Y-16807804D02*
X11149776Y-16798280D01*
X11149776Y-16798280D02*
X11140252Y-16779232D01*
X11140252Y-16779232D02*
X11140252Y-16760185D01*
X11140252Y-16760185D02*
X11149776Y-16741137D01*
X11149776Y-16741137D02*
X11168824Y-16731613D01*
X11168824Y-16731613D02*
X11216443Y-16731613D01*
X11216443Y-16731613D02*
X11235490Y-16722090D01*
X11302157Y-16674470D02*
X11378347Y-16674470D01*
X11330728Y-16607804D02*
X11330728Y-16779232D01*
X11330728Y-16779232D02*
X11340252Y-16798280D01*
X11340252Y-16798280D02*
X11359300Y-16807804D01*
X11359300Y-16807804D02*
X11378347Y-16807804D01*
X11521204Y-16798280D02*
X11502157Y-16807804D01*
X11502157Y-16807804D02*
X11464062Y-16807804D01*
X11464062Y-16807804D02*
X11445014Y-16798280D01*
X11445014Y-16798280D02*
X11435490Y-16779232D01*
X11435490Y-16779232D02*
X11435490Y-16703042D01*
X11435490Y-16703042D02*
X11445014Y-16683994D01*
X11445014Y-16683994D02*
X11464062Y-16674470D01*
X11464062Y-16674470D02*
X11502157Y-16674470D01*
X11502157Y-16674470D02*
X11521204Y-16683994D01*
X11521204Y-16683994D02*
X11530728Y-16703042D01*
X11530728Y-16703042D02*
X11530728Y-16722090D01*
X11530728Y-16722090D02*
X11435490Y-16741137D01*
X11702157Y-16807804D02*
X11702157Y-16607804D01*
X11702157Y-16798280D02*
X11683109Y-16807804D01*
X11683109Y-16807804D02*
X11645014Y-16807804D01*
X11645014Y-16807804D02*
X11625966Y-16798280D01*
X11625966Y-16798280D02*
X11616443Y-16788756D01*
X11616443Y-16788756D02*
X11606919Y-16769709D01*
X11606919Y-16769709D02*
X11606919Y-16712566D01*
X11606919Y-16712566D02*
X11616443Y-16693518D01*
X11616443Y-16693518D02*
X11625966Y-16683994D01*
X11625966Y-16683994D02*
X11645014Y-16674470D01*
X11645014Y-16674470D02*
X11683109Y-16674470D01*
X11683109Y-16674470D02*
X11702157Y-16683994D01*
X11778347Y-16883994D02*
X11787871Y-16874471D01*
X11787871Y-16874471D02*
X11806919Y-16845899D01*
X11806919Y-16845899D02*
X11816443Y-16826852D01*
X11816443Y-16826852D02*
X11825966Y-16798280D01*
X11825966Y-16798280D02*
X11835490Y-16750661D01*
X11835490Y-16750661D02*
X11835490Y-16712566D01*
X11835490Y-16712566D02*
X11825966Y-16664947D01*
X11825966Y-16664947D02*
X11816443Y-16636375D01*
X11816443Y-16636375D02*
X11806919Y-16617328D01*
X11806919Y-16617328D02*
X11787871Y-16588756D01*
X11787871Y-16588756D02*
X11778347Y-16579232D01*
X4731856Y-16936320D02*
X4731856Y-17136320D01*
X4631856Y-17036320D02*
X4831856Y-17036320D01*
X5178347Y-16994471D02*
X5178347Y-17127804D01*
X5130728Y-16918280D02*
X5083109Y-17061137D01*
X5083109Y-17061137D02*
X5206918Y-17061137D01*
X5283109Y-17108756D02*
X5292633Y-17118280D01*
X5292633Y-17118280D02*
X5283109Y-17127804D01*
X5283109Y-17127804D02*
X5273585Y-17118280D01*
X5273585Y-17118280D02*
X5283109Y-17108756D01*
X5283109Y-17108756D02*
X5283109Y-17127804D01*
X5368823Y-16946852D02*
X5378347Y-16937328D01*
X5378347Y-16937328D02*
X5397394Y-16927804D01*
X5397394Y-16927804D02*
X5445014Y-16927804D01*
X5445014Y-16927804D02*
X5464061Y-16937328D01*
X5464061Y-16937328D02*
X5473585Y-16946852D01*
X5473585Y-16946852D02*
X5483109Y-16965899D01*
X5483109Y-16965899D02*
X5483109Y-16984947D01*
X5483109Y-16984947D02*
X5473585Y-17013518D01*
X5473585Y-17013518D02*
X5359299Y-17127804D01*
X5359299Y-17127804D02*
X5483109Y-17127804D01*
X5664061Y-16927804D02*
X5568823Y-16927804D01*
X5568823Y-16927804D02*
X5559299Y-17023042D01*
X5559299Y-17023042D02*
X5568823Y-17013518D01*
X5568823Y-17013518D02*
X5587871Y-17003994D01*
X5587871Y-17003994D02*
X5635490Y-17003994D01*
X5635490Y-17003994D02*
X5654537Y-17013518D01*
X5654537Y-17013518D02*
X5664061Y-17023042D01*
X5664061Y-17023042D02*
X5673585Y-17042090D01*
X5673585Y-17042090D02*
X5673585Y-17089709D01*
X5673585Y-17089709D02*
X5664061Y-17108756D01*
X5664061Y-17108756D02*
X5654537Y-17118280D01*
X5654537Y-17118280D02*
X5635490Y-17127804D01*
X5635490Y-17127804D02*
X5587871Y-17127804D01*
X5587871Y-17127804D02*
X5568823Y-17118280D01*
X5568823Y-17118280D02*
X5559299Y-17108756D01*
X5797394Y-16927804D02*
X5816442Y-16927804D01*
X5816442Y-16927804D02*
X5835490Y-16937328D01*
X5835490Y-16937328D02*
X5845013Y-16946852D01*
X5845013Y-16946852D02*
X5854537Y-16965899D01*
X5854537Y-16965899D02*
X5864061Y-17003994D01*
X5864061Y-17003994D02*
X5864061Y-17051613D01*
X5864061Y-17051613D02*
X5854537Y-17089709D01*
X5854537Y-17089709D02*
X5845013Y-17108756D01*
X5845013Y-17108756D02*
X5835490Y-17118280D01*
X5835490Y-17118280D02*
X5816442Y-17127804D01*
X5816442Y-17127804D02*
X5797394Y-17127804D01*
X5797394Y-17127804D02*
X5778347Y-17118280D01*
X5778347Y-17118280D02*
X5768823Y-17108756D01*
X5768823Y-17108756D02*
X5759299Y-17089709D01*
X5759299Y-17089709D02*
X5749775Y-17051613D01*
X5749775Y-17051613D02*
X5749775Y-17003994D01*
X5749775Y-17003994D02*
X5759299Y-16965899D01*
X5759299Y-16965899D02*
X5768823Y-16946852D01*
X5768823Y-16946852D02*
X5778347Y-16937328D01*
X5778347Y-16937328D02*
X5797394Y-16927804D01*
X5949775Y-17127804D02*
X5949775Y-16994471D01*
X5949775Y-17013518D02*
X5959299Y-17003994D01*
X5959299Y-17003994D02*
X5978347Y-16994471D01*
X5978347Y-16994471D02*
X6006918Y-16994471D01*
X6006918Y-16994471D02*
X6025966Y-17003994D01*
X6025966Y-17003994D02*
X6035490Y-17023042D01*
X6035490Y-17023042D02*
X6035490Y-17127804D01*
X6035490Y-17023042D02*
X6045013Y-17003994D01*
X6045013Y-17003994D02*
X6064061Y-16994471D01*
X6064061Y-16994471D02*
X6092632Y-16994471D01*
X6092632Y-16994471D02*
X6111680Y-17003994D01*
X6111680Y-17003994D02*
X6121204Y-17023042D01*
X6121204Y-17023042D02*
X6121204Y-17127804D01*
X6216442Y-17127804D02*
X6216442Y-16994471D01*
X6216442Y-17013518D02*
X6225966Y-17003994D01*
X6225966Y-17003994D02*
X6245013Y-16994471D01*
X6245013Y-16994471D02*
X6273585Y-16994471D01*
X6273585Y-16994471D02*
X6292633Y-17003994D01*
X6292633Y-17003994D02*
X6302156Y-17023042D01*
X6302156Y-17023042D02*
X6302156Y-17127804D01*
X6302156Y-17023042D02*
X6311680Y-17003994D01*
X6311680Y-17003994D02*
X6330728Y-16994471D01*
X6330728Y-16994471D02*
X6359299Y-16994471D01*
X6359299Y-16994471D02*
X6378347Y-17003994D01*
X6378347Y-17003994D02*
X6387871Y-17023042D01*
X6387871Y-17023042D02*
X6387871Y-17127804D01*
X6778347Y-16918280D02*
X6606918Y-17175423D01*
X7035490Y-16927804D02*
X7054537Y-16927804D01*
X7054537Y-16927804D02*
X7073585Y-16937328D01*
X7073585Y-16937328D02*
X7083109Y-16946852D01*
X7083109Y-16946852D02*
X7092633Y-16965899D01*
X7092633Y-16965899D02*
X7102156Y-17003994D01*
X7102156Y-17003994D02*
X7102156Y-17051613D01*
X7102156Y-17051613D02*
X7092633Y-17089709D01*
X7092633Y-17089709D02*
X7083109Y-17108756D01*
X7083109Y-17108756D02*
X7073585Y-17118280D01*
X7073585Y-17118280D02*
X7054537Y-17127804D01*
X7054537Y-17127804D02*
X7035490Y-17127804D01*
X7035490Y-17127804D02*
X7016442Y-17118280D01*
X7016442Y-17118280D02*
X7006918Y-17108756D01*
X7006918Y-17108756D02*
X6997395Y-17089709D01*
X6997395Y-17089709D02*
X6987871Y-17051613D01*
X6987871Y-17051613D02*
X6987871Y-17003994D01*
X6987871Y-17003994D02*
X6997395Y-16965899D01*
X6997395Y-16965899D02*
X7006918Y-16946852D01*
X7006918Y-16946852D02*
X7016442Y-16937328D01*
X7016442Y-16937328D02*
X7035490Y-16927804D01*
X7187871Y-17108756D02*
X7197395Y-17118280D01*
X7197395Y-17118280D02*
X7187871Y-17127804D01*
X7187871Y-17127804D02*
X7178347Y-17118280D01*
X7178347Y-17118280D02*
X7187871Y-17108756D01*
X7187871Y-17108756D02*
X7187871Y-17127804D01*
X7387871Y-17127804D02*
X7273585Y-17127804D01*
X7330728Y-17127804D02*
X7330728Y-16927804D01*
X7330728Y-16927804D02*
X7311680Y-16956375D01*
X7311680Y-16956375D02*
X7292633Y-16975423D01*
X7292633Y-16975423D02*
X7273585Y-16984947D01*
X7559299Y-16927804D02*
X7521204Y-16927804D01*
X7521204Y-16927804D02*
X7502156Y-16937328D01*
X7502156Y-16937328D02*
X7492633Y-16946852D01*
X7492633Y-16946852D02*
X7473585Y-16975423D01*
X7473585Y-16975423D02*
X7464061Y-17013518D01*
X7464061Y-17013518D02*
X7464061Y-17089709D01*
X7464061Y-17089709D02*
X7473585Y-17108756D01*
X7473585Y-17108756D02*
X7483109Y-17118280D01*
X7483109Y-17118280D02*
X7502156Y-17127804D01*
X7502156Y-17127804D02*
X7540252Y-17127804D01*
X7540252Y-17127804D02*
X7559299Y-17118280D01*
X7559299Y-17118280D02*
X7568823Y-17108756D01*
X7568823Y-17108756D02*
X7578347Y-17089709D01*
X7578347Y-17089709D02*
X7578347Y-17042090D01*
X7578347Y-17042090D02*
X7568823Y-17023042D01*
X7568823Y-17023042D02*
X7559299Y-17013518D01*
X7559299Y-17013518D02*
X7540252Y-17003994D01*
X7540252Y-17003994D02*
X7502156Y-17003994D01*
X7502156Y-17003994D02*
X7483109Y-17013518D01*
X7483109Y-17013518D02*
X7473585Y-17023042D01*
X7473585Y-17023042D02*
X7464061Y-17042090D01*
X7645014Y-16927804D02*
X7778347Y-16927804D01*
X7778347Y-16927804D02*
X7692633Y-17127804D01*
X7835490Y-16927804D02*
X7959299Y-16927804D01*
X7959299Y-16927804D02*
X7892633Y-17003994D01*
X7892633Y-17003994D02*
X7921204Y-17003994D01*
X7921204Y-17003994D02*
X7940252Y-17013518D01*
X7940252Y-17013518D02*
X7949776Y-17023042D01*
X7949776Y-17023042D02*
X7959299Y-17042090D01*
X7959299Y-17042090D02*
X7959299Y-17089709D01*
X7959299Y-17089709D02*
X7949776Y-17108756D01*
X7949776Y-17108756D02*
X7940252Y-17118280D01*
X7940252Y-17118280D02*
X7921204Y-17127804D01*
X7921204Y-17127804D02*
X7864061Y-17127804D01*
X7864061Y-17127804D02*
X7845014Y-17118280D01*
X7845014Y-17118280D02*
X7835490Y-17108756D01*
X8035490Y-16927804D02*
X8035490Y-16965899D01*
X8111680Y-16927804D02*
X8111680Y-16965899D01*
X8406919Y-17203994D02*
X8397395Y-17194471D01*
X8397395Y-17194471D02*
X8378347Y-17165899D01*
X8378347Y-17165899D02*
X8368823Y-17146852D01*
X8368823Y-17146852D02*
X8359299Y-17118280D01*
X8359299Y-17118280D02*
X8349776Y-17070661D01*
X8349776Y-17070661D02*
X8349776Y-17032566D01*
X8349776Y-17032566D02*
X8359299Y-16984947D01*
X8359299Y-16984947D02*
X8368823Y-16956375D01*
X8368823Y-16956375D02*
X8378347Y-16937328D01*
X8378347Y-16937328D02*
X8397395Y-16908756D01*
X8397395Y-16908756D02*
X8406919Y-16899232D01*
X8568823Y-16927804D02*
X8530728Y-16927804D01*
X8530728Y-16927804D02*
X8511680Y-16937328D01*
X8511680Y-16937328D02*
X8502157Y-16946852D01*
X8502157Y-16946852D02*
X8483109Y-16975423D01*
X8483109Y-16975423D02*
X8473585Y-17013518D01*
X8473585Y-17013518D02*
X8473585Y-17089709D01*
X8473585Y-17089709D02*
X8483109Y-17108756D01*
X8483109Y-17108756D02*
X8492633Y-17118280D01*
X8492633Y-17118280D02*
X8511680Y-17127804D01*
X8511680Y-17127804D02*
X8549776Y-17127804D01*
X8549776Y-17127804D02*
X8568823Y-17118280D01*
X8568823Y-17118280D02*
X8578347Y-17108756D01*
X8578347Y-17108756D02*
X8587871Y-17089709D01*
X8587871Y-17089709D02*
X8587871Y-17042090D01*
X8587871Y-17042090D02*
X8578347Y-17023042D01*
X8578347Y-17023042D02*
X8568823Y-17013518D01*
X8568823Y-17013518D02*
X8549776Y-17003994D01*
X8549776Y-17003994D02*
X8511680Y-17003994D01*
X8511680Y-17003994D02*
X8492633Y-17013518D01*
X8492633Y-17013518D02*
X8483109Y-17023042D01*
X8483109Y-17023042D02*
X8473585Y-17042090D01*
X8825966Y-17127804D02*
X8825966Y-16927804D01*
X8911681Y-17127804D02*
X8911681Y-17023042D01*
X8911681Y-17023042D02*
X8902157Y-17003994D01*
X8902157Y-17003994D02*
X8883109Y-16994471D01*
X8883109Y-16994471D02*
X8854538Y-16994471D01*
X8854538Y-16994471D02*
X8835490Y-17003994D01*
X8835490Y-17003994D02*
X8825966Y-17013518D01*
X9035490Y-17127804D02*
X9016442Y-17118280D01*
X9016442Y-17118280D02*
X9006919Y-17108756D01*
X9006919Y-17108756D02*
X8997395Y-17089709D01*
X8997395Y-17089709D02*
X8997395Y-17032566D01*
X8997395Y-17032566D02*
X9006919Y-17013518D01*
X9006919Y-17013518D02*
X9016442Y-17003994D01*
X9016442Y-17003994D02*
X9035490Y-16994471D01*
X9035490Y-16994471D02*
X9064062Y-16994471D01*
X9064062Y-16994471D02*
X9083109Y-17003994D01*
X9083109Y-17003994D02*
X9092633Y-17013518D01*
X9092633Y-17013518D02*
X9102157Y-17032566D01*
X9102157Y-17032566D02*
X9102157Y-17089709D01*
X9102157Y-17089709D02*
X9092633Y-17108756D01*
X9092633Y-17108756D02*
X9083109Y-17118280D01*
X9083109Y-17118280D02*
X9064062Y-17127804D01*
X9064062Y-17127804D02*
X9035490Y-17127804D01*
X9216442Y-17127804D02*
X9197395Y-17118280D01*
X9197395Y-17118280D02*
X9187871Y-17099232D01*
X9187871Y-17099232D02*
X9187871Y-16927804D01*
X9368823Y-17118280D02*
X9349776Y-17127804D01*
X9349776Y-17127804D02*
X9311681Y-17127804D01*
X9311681Y-17127804D02*
X9292633Y-17118280D01*
X9292633Y-17118280D02*
X9283109Y-17099232D01*
X9283109Y-17099232D02*
X9283109Y-17023042D01*
X9283109Y-17023042D02*
X9292633Y-17003994D01*
X9292633Y-17003994D02*
X9311681Y-16994471D01*
X9311681Y-16994471D02*
X9349776Y-16994471D01*
X9349776Y-16994471D02*
X9368823Y-17003994D01*
X9368823Y-17003994D02*
X9378347Y-17023042D01*
X9378347Y-17023042D02*
X9378347Y-17042090D01*
X9378347Y-17042090D02*
X9283109Y-17061137D01*
X9454538Y-17118280D02*
X9473585Y-17127804D01*
X9473585Y-17127804D02*
X9511681Y-17127804D01*
X9511681Y-17127804D02*
X9530728Y-17118280D01*
X9530728Y-17118280D02*
X9540252Y-17099232D01*
X9540252Y-17099232D02*
X9540252Y-17089709D01*
X9540252Y-17089709D02*
X9530728Y-17070661D01*
X9530728Y-17070661D02*
X9511681Y-17061137D01*
X9511681Y-17061137D02*
X9483109Y-17061137D01*
X9483109Y-17061137D02*
X9464062Y-17051613D01*
X9464062Y-17051613D02*
X9454538Y-17032566D01*
X9454538Y-17032566D02*
X9454538Y-17023042D01*
X9454538Y-17023042D02*
X9464062Y-17003994D01*
X9464062Y-17003994D02*
X9483109Y-16994471D01*
X9483109Y-16994471D02*
X9511681Y-16994471D01*
X9511681Y-16994471D02*
X9530728Y-17003994D01*
X9606919Y-17203994D02*
X9616443Y-17194471D01*
X9616443Y-17194471D02*
X9635490Y-17165899D01*
X9635490Y-17165899D02*
X9645014Y-17146852D01*
X9645014Y-17146852D02*
X9654538Y-17118280D01*
X9654538Y-17118280D02*
X9664062Y-17070661D01*
X9664062Y-17070661D02*
X9664062Y-17032566D01*
X9664062Y-17032566D02*
X9654538Y-16984947D01*
X9654538Y-16984947D02*
X9645014Y-16956375D01*
X9645014Y-16956375D02*
X9635490Y-16937328D01*
X9635490Y-16937328D02*
X9616443Y-16908756D01*
X9616443Y-16908756D02*
X9606919Y-16899232D01*
X9968824Y-17203994D02*
X9959300Y-17194471D01*
X9959300Y-17194471D02*
X9940252Y-17165899D01*
X9940252Y-17165899D02*
X9930728Y-17146852D01*
X9930728Y-17146852D02*
X9921204Y-17118280D01*
X9921204Y-17118280D02*
X9911681Y-17070661D01*
X9911681Y-17070661D02*
X9911681Y-17032566D01*
X9911681Y-17032566D02*
X9921204Y-16984947D01*
X9921204Y-16984947D02*
X9930728Y-16956375D01*
X9930728Y-16956375D02*
X9940252Y-16937328D01*
X9940252Y-16937328D02*
X9959300Y-16908756D01*
X9959300Y-16908756D02*
X9968824Y-16899232D01*
X10045014Y-16994471D02*
X10045014Y-17127804D01*
X10045014Y-17013518D02*
X10054538Y-17003994D01*
X10054538Y-17003994D02*
X10073585Y-16994471D01*
X10073585Y-16994471D02*
X10102157Y-16994471D01*
X10102157Y-16994471D02*
X10121204Y-17003994D01*
X10121204Y-17003994D02*
X10130728Y-17023042D01*
X10130728Y-17023042D02*
X10130728Y-17127804D01*
X10254538Y-17127804D02*
X10235490Y-17118280D01*
X10235490Y-17118280D02*
X10225966Y-17108756D01*
X10225966Y-17108756D02*
X10216443Y-17089709D01*
X10216443Y-17089709D02*
X10216443Y-17032566D01*
X10216443Y-17032566D02*
X10225966Y-17013518D01*
X10225966Y-17013518D02*
X10235490Y-17003994D01*
X10235490Y-17003994D02*
X10254538Y-16994471D01*
X10254538Y-16994471D02*
X10283109Y-16994471D01*
X10283109Y-16994471D02*
X10302157Y-17003994D01*
X10302157Y-17003994D02*
X10311681Y-17013518D01*
X10311681Y-17013518D02*
X10321204Y-17032566D01*
X10321204Y-17032566D02*
X10321204Y-17089709D01*
X10321204Y-17089709D02*
X10311681Y-17108756D01*
X10311681Y-17108756D02*
X10302157Y-17118280D01*
X10302157Y-17118280D02*
X10283109Y-17127804D01*
X10283109Y-17127804D02*
X10254538Y-17127804D01*
X10378347Y-16994471D02*
X10454538Y-16994471D01*
X10406919Y-16927804D02*
X10406919Y-17099232D01*
X10406919Y-17099232D02*
X10416443Y-17118280D01*
X10416443Y-17118280D02*
X10435490Y-17127804D01*
X10435490Y-17127804D02*
X10454538Y-17127804D01*
X10673585Y-16994471D02*
X10673585Y-17194471D01*
X10673585Y-17003994D02*
X10692633Y-16994471D01*
X10692633Y-16994471D02*
X10730728Y-16994471D01*
X10730728Y-16994471D02*
X10749776Y-17003994D01*
X10749776Y-17003994D02*
X10759300Y-17013518D01*
X10759300Y-17013518D02*
X10768824Y-17032566D01*
X10768824Y-17032566D02*
X10768824Y-17089709D01*
X10768824Y-17089709D02*
X10759300Y-17108756D01*
X10759300Y-17108756D02*
X10749776Y-17118280D01*
X10749776Y-17118280D02*
X10730728Y-17127804D01*
X10730728Y-17127804D02*
X10692633Y-17127804D01*
X10692633Y-17127804D02*
X10673585Y-17118280D01*
X10883109Y-17127804D02*
X10864062Y-17118280D01*
X10864062Y-17118280D02*
X10854538Y-17099232D01*
X10854538Y-17099232D02*
X10854538Y-16927804D01*
X11045014Y-17127804D02*
X11045014Y-17023042D01*
X11045014Y-17023042D02*
X11035490Y-17003994D01*
X11035490Y-17003994D02*
X11016443Y-16994471D01*
X11016443Y-16994471D02*
X10978347Y-16994471D01*
X10978347Y-16994471D02*
X10959300Y-17003994D01*
X11045014Y-17118280D02*
X11025966Y-17127804D01*
X11025966Y-17127804D02*
X10978347Y-17127804D01*
X10978347Y-17127804D02*
X10959300Y-17118280D01*
X10959300Y-17118280D02*
X10949776Y-17099232D01*
X10949776Y-17099232D02*
X10949776Y-17080185D01*
X10949776Y-17080185D02*
X10959300Y-17061137D01*
X10959300Y-17061137D02*
X10978347Y-17051613D01*
X10978347Y-17051613D02*
X11025966Y-17051613D01*
X11025966Y-17051613D02*
X11045014Y-17042090D01*
X11111681Y-16994471D02*
X11187871Y-16994471D01*
X11140252Y-16927804D02*
X11140252Y-17099232D01*
X11140252Y-17099232D02*
X11149776Y-17118280D01*
X11149776Y-17118280D02*
X11168824Y-17127804D01*
X11168824Y-17127804D02*
X11187871Y-17127804D01*
X11330728Y-17118280D02*
X11311681Y-17127804D01*
X11311681Y-17127804D02*
X11273585Y-17127804D01*
X11273585Y-17127804D02*
X11254538Y-17118280D01*
X11254538Y-17118280D02*
X11245014Y-17099232D01*
X11245014Y-17099232D02*
X11245014Y-17023042D01*
X11245014Y-17023042D02*
X11254538Y-17003994D01*
X11254538Y-17003994D02*
X11273585Y-16994471D01*
X11273585Y-16994471D02*
X11311681Y-16994471D01*
X11311681Y-16994471D02*
X11330728Y-17003994D01*
X11330728Y-17003994D02*
X11340252Y-17023042D01*
X11340252Y-17023042D02*
X11340252Y-17042090D01*
X11340252Y-17042090D02*
X11245014Y-17061137D01*
X11511681Y-17127804D02*
X11511681Y-16927804D01*
X11511681Y-17118280D02*
X11492633Y-17127804D01*
X11492633Y-17127804D02*
X11454538Y-17127804D01*
X11454538Y-17127804D02*
X11435490Y-17118280D01*
X11435490Y-17118280D02*
X11425966Y-17108756D01*
X11425966Y-17108756D02*
X11416443Y-17089709D01*
X11416443Y-17089709D02*
X11416443Y-17032566D01*
X11416443Y-17032566D02*
X11425966Y-17013518D01*
X11425966Y-17013518D02*
X11435490Y-17003994D01*
X11435490Y-17003994D02*
X11454538Y-16994471D01*
X11454538Y-16994471D02*
X11492633Y-16994471D01*
X11492633Y-16994471D02*
X11511681Y-17003994D01*
X11587871Y-17203994D02*
X11597395Y-17194471D01*
X11597395Y-17194471D02*
X11616443Y-17165899D01*
X11616443Y-17165899D02*
X11625966Y-17146852D01*
X11625966Y-17146852D02*
X11635490Y-17118280D01*
X11635490Y-17118280D02*
X11645014Y-17070661D01*
X11645014Y-17070661D02*
X11645014Y-17032566D01*
X11645014Y-17032566D02*
X11635490Y-16984947D01*
X11635490Y-16984947D02*
X11625966Y-16956375D01*
X11625966Y-16956375D02*
X11616443Y-16937328D01*
X11616443Y-16937328D02*
X11597395Y-16908756D01*
X11597395Y-16908756D02*
X11587871Y-16899232D01*
M02*
